G04 #@! TF.GenerationSoftware,KiCad,Pcbnew,(5.1.0)-1*
G04 #@! TF.CreationDate,2020-03-21T07:41:18+08:00*
G04 #@! TF.ProjectId,driver,64726976-6572-42e6-9b69-6361645f7063,rev?*
G04 #@! TF.SameCoordinates,PX510ff40PY3473bc0*
G04 #@! TF.FileFunction,Legend,Bot*
G04 #@! TF.FilePolarity,Positive*
%FSLAX46Y46*%
G04 Gerber Fmt 4.6, Leading zero omitted, Abs format (unit mm)*
G04 Created by KiCad (PCBNEW (5.1.0)-1) date 2020-03-21 07:41:18*
%MOMM*%
%LPD*%
G04 APERTURE LIST*
%ADD10C,0.150000*%
%ADD11C,0.120000*%
G04 APERTURE END LIST*
D10*
X127102380Y-8414285D02*
X126102380Y-8414285D01*
X126816666Y-8747619D01*
X126102380Y-9080952D01*
X127102380Y-9080952D01*
X127054761Y-9509523D02*
X127102380Y-9652380D01*
X127102380Y-9890476D01*
X127054761Y-9985714D01*
X127007142Y-10033333D01*
X126911904Y-10080952D01*
X126816666Y-10080952D01*
X126721428Y-10033333D01*
X126673809Y-9985714D01*
X126626190Y-9890476D01*
X126578571Y-9700000D01*
X126530952Y-9604761D01*
X126483333Y-9557142D01*
X126388095Y-9509523D01*
X126292857Y-9509523D01*
X126197619Y-9557142D01*
X126150000Y-9604761D01*
X126102380Y-9700000D01*
X126102380Y-9938095D01*
X126150000Y-10080952D01*
X127102380Y-11033333D02*
X127102380Y-10461904D01*
X127102380Y-10747619D02*
X126102380Y-10747619D01*
X126245238Y-10652380D01*
X126340476Y-10557142D01*
X126388095Y-10461904D01*
X128752380Y-8414285D02*
X127752380Y-8414285D01*
X128466666Y-8747619D01*
X127752380Y-9080952D01*
X128752380Y-9080952D01*
X128704761Y-9509523D02*
X128752380Y-9652380D01*
X128752380Y-9890476D01*
X128704761Y-9985714D01*
X128657142Y-10033333D01*
X128561904Y-10080952D01*
X128466666Y-10080952D01*
X128371428Y-10033333D01*
X128323809Y-9985714D01*
X128276190Y-9890476D01*
X128228571Y-9700000D01*
X128180952Y-9604761D01*
X128133333Y-9557142D01*
X128038095Y-9509523D01*
X127942857Y-9509523D01*
X127847619Y-9557142D01*
X127800000Y-9604761D01*
X127752380Y-9700000D01*
X127752380Y-9938095D01*
X127800000Y-10080952D01*
X127847619Y-10461904D02*
X127800000Y-10509523D01*
X127752380Y-10604761D01*
X127752380Y-10842857D01*
X127800000Y-10938095D01*
X127847619Y-10985714D01*
X127942857Y-11033333D01*
X128038095Y-11033333D01*
X128180952Y-10985714D01*
X128752380Y-10414285D01*
X128752380Y-11033333D01*
X130402380Y-8414285D02*
X129402380Y-8414285D01*
X130116666Y-8747619D01*
X129402380Y-9080952D01*
X130402380Y-9080952D01*
X130354761Y-9509523D02*
X130402380Y-9652380D01*
X130402380Y-9890476D01*
X130354761Y-9985714D01*
X130307142Y-10033333D01*
X130211904Y-10080952D01*
X130116666Y-10080952D01*
X130021428Y-10033333D01*
X129973809Y-9985714D01*
X129926190Y-9890476D01*
X129878571Y-9700000D01*
X129830952Y-9604761D01*
X129783333Y-9557142D01*
X129688095Y-9509523D01*
X129592857Y-9509523D01*
X129497619Y-9557142D01*
X129450000Y-9604761D01*
X129402380Y-9700000D01*
X129402380Y-9938095D01*
X129450000Y-10080952D01*
X129402380Y-10414285D02*
X129402380Y-11033333D01*
X129783333Y-10700000D01*
X129783333Y-10842857D01*
X129830952Y-10938095D01*
X129878571Y-10985714D01*
X129973809Y-11033333D01*
X130211904Y-11033333D01*
X130307142Y-10985714D01*
X130354761Y-10938095D01*
X130402380Y-10842857D01*
X130402380Y-10557142D01*
X130354761Y-10461904D01*
X130307142Y-10414285D01*
X62402380Y-32614285D02*
X61402380Y-32614285D01*
X62116666Y-32947619D01*
X61402380Y-33280952D01*
X62402380Y-33280952D01*
X62354761Y-33709523D02*
X62402380Y-33852380D01*
X62402380Y-34090476D01*
X62354761Y-34185714D01*
X62307142Y-34233333D01*
X62211904Y-34280952D01*
X62116666Y-34280952D01*
X62021428Y-34233333D01*
X61973809Y-34185714D01*
X61926190Y-34090476D01*
X61878571Y-33900000D01*
X61830952Y-33804761D01*
X61783333Y-33757142D01*
X61688095Y-33709523D01*
X61592857Y-33709523D01*
X61497619Y-33757142D01*
X61450000Y-33804761D01*
X61402380Y-33900000D01*
X61402380Y-34138095D01*
X61450000Y-34280952D01*
X62402380Y-35233333D02*
X62402380Y-34661904D01*
X62402380Y-34947619D02*
X61402380Y-34947619D01*
X61545238Y-34852380D01*
X61640476Y-34757142D01*
X61688095Y-34661904D01*
X64052380Y-32614285D02*
X63052380Y-32614285D01*
X63766666Y-32947619D01*
X63052380Y-33280952D01*
X64052380Y-33280952D01*
X64004761Y-33709523D02*
X64052380Y-33852380D01*
X64052380Y-34090476D01*
X64004761Y-34185714D01*
X63957142Y-34233333D01*
X63861904Y-34280952D01*
X63766666Y-34280952D01*
X63671428Y-34233333D01*
X63623809Y-34185714D01*
X63576190Y-34090476D01*
X63528571Y-33900000D01*
X63480952Y-33804761D01*
X63433333Y-33757142D01*
X63338095Y-33709523D01*
X63242857Y-33709523D01*
X63147619Y-33757142D01*
X63100000Y-33804761D01*
X63052380Y-33900000D01*
X63052380Y-34138095D01*
X63100000Y-34280952D01*
X63147619Y-34661904D02*
X63100000Y-34709523D01*
X63052380Y-34804761D01*
X63052380Y-35042857D01*
X63100000Y-35138095D01*
X63147619Y-35185714D01*
X63242857Y-35233333D01*
X63338095Y-35233333D01*
X63480952Y-35185714D01*
X64052380Y-34614285D01*
X64052380Y-35233333D01*
X65702380Y-32614285D02*
X64702380Y-32614285D01*
X65416666Y-32947619D01*
X64702380Y-33280952D01*
X65702380Y-33280952D01*
X65654761Y-33709523D02*
X65702380Y-33852380D01*
X65702380Y-34090476D01*
X65654761Y-34185714D01*
X65607142Y-34233333D01*
X65511904Y-34280952D01*
X65416666Y-34280952D01*
X65321428Y-34233333D01*
X65273809Y-34185714D01*
X65226190Y-34090476D01*
X65178571Y-33900000D01*
X65130952Y-33804761D01*
X65083333Y-33757142D01*
X64988095Y-33709523D01*
X64892857Y-33709523D01*
X64797619Y-33757142D01*
X64750000Y-33804761D01*
X64702380Y-33900000D01*
X64702380Y-34138095D01*
X64750000Y-34280952D01*
X64702380Y-34614285D02*
X64702380Y-35233333D01*
X65083333Y-34900000D01*
X65083333Y-35042857D01*
X65130952Y-35138095D01*
X65178571Y-35185714D01*
X65273809Y-35233333D01*
X65511904Y-35233333D01*
X65607142Y-35185714D01*
X65654761Y-35138095D01*
X65702380Y-35042857D01*
X65702380Y-34757142D01*
X65654761Y-34661904D01*
X65607142Y-34614285D01*
X84002380Y-33214285D02*
X83002380Y-33214285D01*
X83716666Y-33547619D01*
X83002380Y-33880952D01*
X84002380Y-33880952D01*
X83954761Y-34309523D02*
X84002380Y-34452380D01*
X84002380Y-34690476D01*
X83954761Y-34785714D01*
X83907142Y-34833333D01*
X83811904Y-34880952D01*
X83716666Y-34880952D01*
X83621428Y-34833333D01*
X83573809Y-34785714D01*
X83526190Y-34690476D01*
X83478571Y-34500000D01*
X83430952Y-34404761D01*
X83383333Y-34357142D01*
X83288095Y-34309523D01*
X83192857Y-34309523D01*
X83097619Y-34357142D01*
X83050000Y-34404761D01*
X83002380Y-34500000D01*
X83002380Y-34738095D01*
X83050000Y-34880952D01*
X84002380Y-35833333D02*
X84002380Y-35261904D01*
X84002380Y-35547619D02*
X83002380Y-35547619D01*
X83145238Y-35452380D01*
X83240476Y-35357142D01*
X83288095Y-35261904D01*
X85652380Y-33214285D02*
X84652380Y-33214285D01*
X85366666Y-33547619D01*
X84652380Y-33880952D01*
X85652380Y-33880952D01*
X85604761Y-34309523D02*
X85652380Y-34452380D01*
X85652380Y-34690476D01*
X85604761Y-34785714D01*
X85557142Y-34833333D01*
X85461904Y-34880952D01*
X85366666Y-34880952D01*
X85271428Y-34833333D01*
X85223809Y-34785714D01*
X85176190Y-34690476D01*
X85128571Y-34500000D01*
X85080952Y-34404761D01*
X85033333Y-34357142D01*
X84938095Y-34309523D01*
X84842857Y-34309523D01*
X84747619Y-34357142D01*
X84700000Y-34404761D01*
X84652380Y-34500000D01*
X84652380Y-34738095D01*
X84700000Y-34880952D01*
X84747619Y-35261904D02*
X84700000Y-35309523D01*
X84652380Y-35404761D01*
X84652380Y-35642857D01*
X84700000Y-35738095D01*
X84747619Y-35785714D01*
X84842857Y-35833333D01*
X84938095Y-35833333D01*
X85080952Y-35785714D01*
X85652380Y-35214285D01*
X85652380Y-35833333D01*
X87302380Y-33214285D02*
X86302380Y-33214285D01*
X87016666Y-33547619D01*
X86302380Y-33880952D01*
X87302380Y-33880952D01*
X87254761Y-34309523D02*
X87302380Y-34452380D01*
X87302380Y-34690476D01*
X87254761Y-34785714D01*
X87207142Y-34833333D01*
X87111904Y-34880952D01*
X87016666Y-34880952D01*
X86921428Y-34833333D01*
X86873809Y-34785714D01*
X86826190Y-34690476D01*
X86778571Y-34500000D01*
X86730952Y-34404761D01*
X86683333Y-34357142D01*
X86588095Y-34309523D01*
X86492857Y-34309523D01*
X86397619Y-34357142D01*
X86350000Y-34404761D01*
X86302380Y-34500000D01*
X86302380Y-34738095D01*
X86350000Y-34880952D01*
X86302380Y-35214285D02*
X86302380Y-35833333D01*
X86683333Y-35500000D01*
X86683333Y-35642857D01*
X86730952Y-35738095D01*
X86778571Y-35785714D01*
X86873809Y-35833333D01*
X87111904Y-35833333D01*
X87207142Y-35785714D01*
X87254761Y-35738095D01*
X87302380Y-35642857D01*
X87302380Y-35357142D01*
X87254761Y-35261904D01*
X87207142Y-35214285D01*
X105302380Y-33214285D02*
X104302380Y-33214285D01*
X105016666Y-33547619D01*
X104302380Y-33880952D01*
X105302380Y-33880952D01*
X105254761Y-34309523D02*
X105302380Y-34452380D01*
X105302380Y-34690476D01*
X105254761Y-34785714D01*
X105207142Y-34833333D01*
X105111904Y-34880952D01*
X105016666Y-34880952D01*
X104921428Y-34833333D01*
X104873809Y-34785714D01*
X104826190Y-34690476D01*
X104778571Y-34500000D01*
X104730952Y-34404761D01*
X104683333Y-34357142D01*
X104588095Y-34309523D01*
X104492857Y-34309523D01*
X104397619Y-34357142D01*
X104350000Y-34404761D01*
X104302380Y-34500000D01*
X104302380Y-34738095D01*
X104350000Y-34880952D01*
X105302380Y-35833333D02*
X105302380Y-35261904D01*
X105302380Y-35547619D02*
X104302380Y-35547619D01*
X104445238Y-35452380D01*
X104540476Y-35357142D01*
X104588095Y-35261904D01*
X106952380Y-33214285D02*
X105952380Y-33214285D01*
X106666666Y-33547619D01*
X105952380Y-33880952D01*
X106952380Y-33880952D01*
X106904761Y-34309523D02*
X106952380Y-34452380D01*
X106952380Y-34690476D01*
X106904761Y-34785714D01*
X106857142Y-34833333D01*
X106761904Y-34880952D01*
X106666666Y-34880952D01*
X106571428Y-34833333D01*
X106523809Y-34785714D01*
X106476190Y-34690476D01*
X106428571Y-34500000D01*
X106380952Y-34404761D01*
X106333333Y-34357142D01*
X106238095Y-34309523D01*
X106142857Y-34309523D01*
X106047619Y-34357142D01*
X106000000Y-34404761D01*
X105952380Y-34500000D01*
X105952380Y-34738095D01*
X106000000Y-34880952D01*
X106047619Y-35261904D02*
X106000000Y-35309523D01*
X105952380Y-35404761D01*
X105952380Y-35642857D01*
X106000000Y-35738095D01*
X106047619Y-35785714D01*
X106142857Y-35833333D01*
X106238095Y-35833333D01*
X106380952Y-35785714D01*
X106952380Y-35214285D01*
X106952380Y-35833333D01*
X108602380Y-33214285D02*
X107602380Y-33214285D01*
X108316666Y-33547619D01*
X107602380Y-33880952D01*
X108602380Y-33880952D01*
X108554761Y-34309523D02*
X108602380Y-34452380D01*
X108602380Y-34690476D01*
X108554761Y-34785714D01*
X108507142Y-34833333D01*
X108411904Y-34880952D01*
X108316666Y-34880952D01*
X108221428Y-34833333D01*
X108173809Y-34785714D01*
X108126190Y-34690476D01*
X108078571Y-34500000D01*
X108030952Y-34404761D01*
X107983333Y-34357142D01*
X107888095Y-34309523D01*
X107792857Y-34309523D01*
X107697619Y-34357142D01*
X107650000Y-34404761D01*
X107602380Y-34500000D01*
X107602380Y-34738095D01*
X107650000Y-34880952D01*
X107602380Y-35214285D02*
X107602380Y-35833333D01*
X107983333Y-35500000D01*
X107983333Y-35642857D01*
X108030952Y-35738095D01*
X108078571Y-35785714D01*
X108173809Y-35833333D01*
X108411904Y-35833333D01*
X108507142Y-35785714D01*
X108554761Y-35738095D01*
X108602380Y-35642857D01*
X108602380Y-35357142D01*
X108554761Y-35261904D01*
X108507142Y-35214285D01*
X127102380Y-33214285D02*
X126102380Y-33214285D01*
X126816666Y-33547619D01*
X126102380Y-33880952D01*
X127102380Y-33880952D01*
X127054761Y-34309523D02*
X127102380Y-34452380D01*
X127102380Y-34690476D01*
X127054761Y-34785714D01*
X127007142Y-34833333D01*
X126911904Y-34880952D01*
X126816666Y-34880952D01*
X126721428Y-34833333D01*
X126673809Y-34785714D01*
X126626190Y-34690476D01*
X126578571Y-34500000D01*
X126530952Y-34404761D01*
X126483333Y-34357142D01*
X126388095Y-34309523D01*
X126292857Y-34309523D01*
X126197619Y-34357142D01*
X126150000Y-34404761D01*
X126102380Y-34500000D01*
X126102380Y-34738095D01*
X126150000Y-34880952D01*
X127102380Y-35833333D02*
X127102380Y-35261904D01*
X127102380Y-35547619D02*
X126102380Y-35547619D01*
X126245238Y-35452380D01*
X126340476Y-35357142D01*
X126388095Y-35261904D01*
X128752380Y-33214285D02*
X127752380Y-33214285D01*
X128466666Y-33547619D01*
X127752380Y-33880952D01*
X128752380Y-33880952D01*
X128704761Y-34309523D02*
X128752380Y-34452380D01*
X128752380Y-34690476D01*
X128704761Y-34785714D01*
X128657142Y-34833333D01*
X128561904Y-34880952D01*
X128466666Y-34880952D01*
X128371428Y-34833333D01*
X128323809Y-34785714D01*
X128276190Y-34690476D01*
X128228571Y-34500000D01*
X128180952Y-34404761D01*
X128133333Y-34357142D01*
X128038095Y-34309523D01*
X127942857Y-34309523D01*
X127847619Y-34357142D01*
X127800000Y-34404761D01*
X127752380Y-34500000D01*
X127752380Y-34738095D01*
X127800000Y-34880952D01*
X127847619Y-35261904D02*
X127800000Y-35309523D01*
X127752380Y-35404761D01*
X127752380Y-35642857D01*
X127800000Y-35738095D01*
X127847619Y-35785714D01*
X127942857Y-35833333D01*
X128038095Y-35833333D01*
X128180952Y-35785714D01*
X128752380Y-35214285D01*
X128752380Y-35833333D01*
X130402380Y-33214285D02*
X129402380Y-33214285D01*
X130116666Y-33547619D01*
X129402380Y-33880952D01*
X130402380Y-33880952D01*
X130354761Y-34309523D02*
X130402380Y-34452380D01*
X130402380Y-34690476D01*
X130354761Y-34785714D01*
X130307142Y-34833333D01*
X130211904Y-34880952D01*
X130116666Y-34880952D01*
X130021428Y-34833333D01*
X129973809Y-34785714D01*
X129926190Y-34690476D01*
X129878571Y-34500000D01*
X129830952Y-34404761D01*
X129783333Y-34357142D01*
X129688095Y-34309523D01*
X129592857Y-34309523D01*
X129497619Y-34357142D01*
X129450000Y-34404761D01*
X129402380Y-34500000D01*
X129402380Y-34738095D01*
X129450000Y-34880952D01*
X129402380Y-35214285D02*
X129402380Y-35833333D01*
X129783333Y-35500000D01*
X129783333Y-35642857D01*
X129830952Y-35738095D01*
X129878571Y-35785714D01*
X129973809Y-35833333D01*
X130211904Y-35833333D01*
X130307142Y-35785714D01*
X130354761Y-35738095D01*
X130402380Y-35642857D01*
X130402380Y-35357142D01*
X130354761Y-35261904D01*
X130307142Y-35214285D01*
X12304761Y-18871428D02*
X11542857Y-18871428D01*
X11923809Y-19252380D02*
X11923809Y-18490476D01*
X7257142Y-18871428D02*
X6495238Y-18871428D01*
X12804761Y-1271428D02*
X12042857Y-1271428D01*
X12423809Y-1652380D02*
X12423809Y-890476D01*
X7757142Y-1271428D02*
X6995238Y-1271428D01*
X3153571Y-8880952D02*
X3153571Y-8119047D01*
X2772619Y-8500000D02*
X3534523Y-8500000D01*
X1503571Y-8880952D02*
X1503571Y-8119047D01*
X2947619Y-7461904D02*
X1947619Y-7128571D01*
X2947619Y-6795238D01*
X1947619Y-6461904D02*
X2947619Y-6461904D01*
X2947619Y-6223809D01*
X2900000Y-6080952D01*
X2804761Y-5985714D01*
X2709523Y-5938095D01*
X2519047Y-5890476D01*
X2376190Y-5890476D01*
X2185714Y-5938095D01*
X2090476Y-5985714D01*
X1995238Y-6080952D01*
X1947619Y-6223809D01*
X1947619Y-6461904D01*
X1947619Y-4890476D02*
X2423809Y-5223809D01*
X1947619Y-5461904D02*
X2947619Y-5461904D01*
X2947619Y-5080952D01*
X2900000Y-4985714D01*
X2852380Y-4938095D01*
X2757142Y-4890476D01*
X2614285Y-4890476D01*
X2519047Y-4938095D01*
X2471428Y-4985714D01*
X2423809Y-5080952D01*
X2423809Y-5461904D01*
X2947619Y-4604761D02*
X1947619Y-4271428D01*
X2947619Y-3938095D01*
X3053571Y-18180952D02*
X3053571Y-17419047D01*
X2672619Y-17800000D02*
X3434523Y-17800000D01*
X1403571Y-18180952D02*
X1403571Y-17419047D01*
X1947619Y-16609523D02*
X2947619Y-16609523D01*
X2947619Y-16228571D01*
X2900000Y-16133333D01*
X2852380Y-16085714D01*
X2757142Y-16038095D01*
X2614285Y-16038095D01*
X2519047Y-16085714D01*
X2471428Y-16133333D01*
X2423809Y-16228571D01*
X2423809Y-16609523D01*
X2947619Y-15419047D02*
X2947619Y-15228571D01*
X2900000Y-15133333D01*
X2804761Y-15038095D01*
X2614285Y-14990476D01*
X2280952Y-14990476D01*
X2090476Y-15038095D01*
X1995238Y-15133333D01*
X1947619Y-15228571D01*
X1947619Y-15419047D01*
X1995238Y-15514285D01*
X2090476Y-15609523D01*
X2280952Y-15657142D01*
X2614285Y-15657142D01*
X2804761Y-15609523D01*
X2900000Y-15514285D01*
X2947619Y-15419047D01*
X2947619Y-14657142D02*
X1947619Y-14419047D01*
X2661904Y-14228571D01*
X1947619Y-14038095D01*
X2947619Y-13800000D01*
X2471428Y-13419047D02*
X2471428Y-13085714D01*
X1947619Y-12942857D02*
X1947619Y-13419047D01*
X2947619Y-13419047D01*
X2947619Y-12942857D01*
X1947619Y-11942857D02*
X2423809Y-12276190D01*
X1947619Y-12514285D02*
X2947619Y-12514285D01*
X2947619Y-12133333D01*
X2900000Y-12038095D01*
X2852380Y-11990476D01*
X2757142Y-11942857D01*
X2614285Y-11942857D01*
X2519047Y-11990476D01*
X2471428Y-12038095D01*
X2423809Y-12133333D01*
X2423809Y-12514285D01*
X40780952Y-50471428D02*
X40019047Y-50471428D01*
X45780952Y-50471428D02*
X45019047Y-50471428D01*
X45400000Y-50852380D02*
X45400000Y-50090476D01*
X28980952Y-50571428D02*
X28219047Y-50571428D01*
X34980952Y-50571428D02*
X34219047Y-50571428D01*
X34600000Y-50952380D02*
X34600000Y-50190476D01*
X18180952Y-50571428D02*
X17419047Y-50571428D01*
X23980952Y-50571428D02*
X23219047Y-50571428D01*
X23600000Y-50952380D02*
X23600000Y-50190476D01*
X7280952Y-50571428D02*
X6519047Y-50571428D01*
X12280952Y-50571428D02*
X11519047Y-50571428D01*
X11900000Y-50952380D02*
X11900000Y-50190476D01*
X10380952Y-50528571D02*
X10238095Y-50576190D01*
X10190476Y-50623809D01*
X10142857Y-50719047D01*
X10142857Y-50861904D01*
X10190476Y-50957142D01*
X10238095Y-51004761D01*
X10333333Y-51052380D01*
X10714285Y-51052380D01*
X10714285Y-50052380D01*
X10380952Y-50052380D01*
X10285714Y-50100000D01*
X10238095Y-50147619D01*
X10190476Y-50242857D01*
X10190476Y-50338095D01*
X10238095Y-50433333D01*
X10285714Y-50480952D01*
X10380952Y-50528571D01*
X10714285Y-50528571D01*
X9714285Y-50528571D02*
X9380952Y-50528571D01*
X9238095Y-51052380D02*
X9714285Y-51052380D01*
X9714285Y-50052380D01*
X9238095Y-50052380D01*
X8809523Y-51052380D02*
X8809523Y-50052380D01*
X8571428Y-50052380D01*
X8428571Y-50100000D01*
X8333333Y-50195238D01*
X8285714Y-50290476D01*
X8238095Y-50480952D01*
X8238095Y-50623809D01*
X8285714Y-50814285D01*
X8333333Y-50909523D01*
X8428571Y-51004761D01*
X8571428Y-51052380D01*
X8809523Y-51052380D01*
X22723809Y-51052380D02*
X22723809Y-50052380D01*
X22723809Y-50528571D02*
X22152380Y-50528571D01*
X22152380Y-51052380D02*
X22152380Y-50052380D01*
X21676190Y-50528571D02*
X21342857Y-50528571D01*
X21200000Y-51052380D02*
X21676190Y-51052380D01*
X21676190Y-50052380D01*
X21200000Y-50052380D01*
X20819047Y-50766666D02*
X20342857Y-50766666D01*
X20914285Y-51052380D02*
X20580952Y-50052380D01*
X20247619Y-51052380D01*
X20057142Y-50052380D02*
X19485714Y-50052380D01*
X19771428Y-51052380D02*
X19771428Y-50052380D01*
X18628571Y-51052380D02*
X19200000Y-51052380D01*
X18914285Y-51052380D02*
X18914285Y-50052380D01*
X19009523Y-50195238D01*
X19104761Y-50290476D01*
X19200000Y-50338095D01*
X33723809Y-51052380D02*
X33723809Y-50052380D01*
X33723809Y-50528571D02*
X33152380Y-50528571D01*
X33152380Y-51052380D02*
X33152380Y-50052380D01*
X32676190Y-50528571D02*
X32342857Y-50528571D01*
X32200000Y-51052380D02*
X32676190Y-51052380D01*
X32676190Y-50052380D01*
X32200000Y-50052380D01*
X31819047Y-50766666D02*
X31342857Y-50766666D01*
X31914285Y-51052380D02*
X31580952Y-50052380D01*
X31247619Y-51052380D01*
X31057142Y-50052380D02*
X30485714Y-50052380D01*
X30771428Y-51052380D02*
X30771428Y-50052380D01*
X30200000Y-50147619D02*
X30152380Y-50100000D01*
X30057142Y-50052380D01*
X29819047Y-50052380D01*
X29723809Y-50100000D01*
X29676190Y-50147619D01*
X29628571Y-50242857D01*
X29628571Y-50338095D01*
X29676190Y-50480952D01*
X30247619Y-51052380D01*
X29628571Y-51052380D01*
X43609523Y-50428571D02*
X43942857Y-50428571D01*
X43942857Y-50952380D02*
X43942857Y-49952380D01*
X43466666Y-49952380D01*
X43133333Y-50666666D02*
X42657142Y-50666666D01*
X43228571Y-50952380D02*
X42895238Y-49952380D01*
X42561904Y-50952380D01*
X42228571Y-50952380D02*
X42228571Y-49952380D01*
X41657142Y-50952380D01*
X41657142Y-49952380D01*
X73247619Y-12652380D02*
X72676190Y-12652380D01*
X72961904Y-13652380D02*
X72961904Y-12652380D01*
X72152380Y-12652380D02*
X71961904Y-12652380D01*
X71866666Y-12700000D01*
X71771428Y-12795238D01*
X71723809Y-12985714D01*
X71723809Y-13319047D01*
X71771428Y-13509523D01*
X71866666Y-13604761D01*
X71961904Y-13652380D01*
X72152380Y-13652380D01*
X72247619Y-13604761D01*
X72342857Y-13509523D01*
X72390476Y-13319047D01*
X72390476Y-12985714D01*
X72342857Y-12795238D01*
X72247619Y-12700000D01*
X72152380Y-12652380D01*
X71104761Y-12652380D02*
X70914285Y-12652380D01*
X70819047Y-12700000D01*
X70723809Y-12795238D01*
X70676190Y-12985714D01*
X70676190Y-13319047D01*
X70723809Y-13509523D01*
X70819047Y-13604761D01*
X70914285Y-13652380D01*
X71104761Y-13652380D01*
X71200000Y-13604761D01*
X71295238Y-13509523D01*
X71342857Y-13319047D01*
X71342857Y-12985714D01*
X71295238Y-12795238D01*
X71200000Y-12700000D01*
X71104761Y-12652380D01*
X69771428Y-13652380D02*
X70247619Y-13652380D01*
X70247619Y-12652380D01*
X69485714Y-13604761D02*
X69342857Y-13652380D01*
X69104761Y-13652380D01*
X69009523Y-13604761D01*
X68961904Y-13557142D01*
X68914285Y-13461904D01*
X68914285Y-13366666D01*
X68961904Y-13271428D01*
X69009523Y-13223809D01*
X69104761Y-13176190D01*
X69295238Y-13128571D01*
X69390476Y-13080952D01*
X69438095Y-13033333D01*
X69485714Y-12938095D01*
X69485714Y-12842857D01*
X69438095Y-12747619D01*
X69390476Y-12700000D01*
X69295238Y-12652380D01*
X69057142Y-12652380D01*
X68914285Y-12700000D01*
X68485714Y-13128571D02*
X68152380Y-13128571D01*
X68009523Y-13652380D02*
X68485714Y-13652380D01*
X68485714Y-12652380D01*
X68009523Y-12652380D01*
X67723809Y-12652380D02*
X67152380Y-12652380D01*
X67438095Y-13652380D02*
X67438095Y-12652380D01*
X76376190Y-22052380D02*
X76376190Y-21052380D01*
X75947619Y-21147619D02*
X75900000Y-21100000D01*
X75804761Y-21052380D01*
X75566666Y-21052380D01*
X75471428Y-21100000D01*
X75423809Y-21147619D01*
X75376190Y-21242857D01*
X75376190Y-21338095D01*
X75423809Y-21480952D01*
X75995238Y-22052380D01*
X75376190Y-22052380D01*
X74376190Y-21957142D02*
X74423809Y-22004761D01*
X74566666Y-22052380D01*
X74661904Y-22052380D01*
X74804761Y-22004761D01*
X74900000Y-21909523D01*
X74947619Y-21814285D01*
X74995238Y-21623809D01*
X74995238Y-21480952D01*
X74947619Y-21290476D01*
X74900000Y-21195238D01*
X74804761Y-21100000D01*
X74661904Y-21052380D01*
X74566666Y-21052380D01*
X74423809Y-21100000D01*
X74376190Y-21147619D01*
X46409523Y-22052380D02*
X45742857Y-22052380D01*
X46409523Y-23052380D01*
X45742857Y-23052380D01*
X45361904Y-23052380D02*
X45361904Y-22052380D01*
X45028571Y-22766666D01*
X44695238Y-22052380D01*
X44695238Y-23052380D01*
X44266666Y-22766666D02*
X43790476Y-22766666D01*
X44361904Y-23052380D02*
X44028571Y-22052380D01*
X43695238Y-23052380D01*
X43457142Y-22052380D02*
X42790476Y-23052380D01*
X42790476Y-22052380D02*
X43457142Y-23052380D01*
X46466666Y-18152380D02*
X45800000Y-18152380D01*
X46466666Y-19152380D01*
X45800000Y-19152380D01*
X45419047Y-19152380D02*
X45419047Y-18152380D01*
X45085714Y-18866666D01*
X44752380Y-18152380D01*
X44752380Y-19152380D01*
X44276190Y-19152380D02*
X44276190Y-18152380D01*
X43800000Y-19152380D02*
X43800000Y-18152380D01*
X43228571Y-19152380D01*
X43228571Y-18152380D01*
X46276190Y-15076190D02*
X46276190Y-15552380D01*
X46609523Y-14552380D02*
X46276190Y-15076190D01*
X45942857Y-14552380D01*
X45609523Y-15552380D02*
X45609523Y-14552380D01*
X45276190Y-15266666D01*
X44942857Y-14552380D01*
X44942857Y-15552380D01*
X44514285Y-15266666D02*
X44038095Y-15266666D01*
X44609523Y-15552380D02*
X44276190Y-14552380D01*
X43942857Y-15552380D01*
X43704761Y-14552380D02*
X43038095Y-15552380D01*
X43038095Y-14552380D02*
X43704761Y-15552380D01*
X46133333Y-11176190D02*
X46133333Y-11652380D01*
X46466666Y-10652380D02*
X46133333Y-11176190D01*
X45800000Y-10652380D01*
X45466666Y-11652380D02*
X45466666Y-10652380D01*
X45133333Y-11366666D01*
X44800000Y-10652380D01*
X44800000Y-11652380D01*
X44323809Y-11652380D02*
X44323809Y-10652380D01*
X43847619Y-11652380D02*
X43847619Y-10652380D01*
X43276190Y-11652380D01*
X43276190Y-10652380D01*
X46409523Y-6452380D02*
X45742857Y-7452380D01*
X45742857Y-6452380D02*
X46409523Y-7452380D01*
X45361904Y-7452380D02*
X45361904Y-6452380D01*
X45028571Y-7166666D01*
X44695238Y-6452380D01*
X44695238Y-7452380D01*
X44266666Y-7166666D02*
X43790476Y-7166666D01*
X44361904Y-7452380D02*
X44028571Y-6452380D01*
X43695238Y-7452380D01*
X43457142Y-6452380D02*
X42790476Y-7452380D01*
X42790476Y-6452380D02*
X43457142Y-7452380D01*
X46266666Y-2452380D02*
X45600000Y-3452380D01*
X45600000Y-2452380D02*
X46266666Y-3452380D01*
X45219047Y-3452380D02*
X45219047Y-2452380D01*
X44885714Y-3166666D01*
X44552380Y-2452380D01*
X44552380Y-3452380D01*
X44076190Y-3452380D02*
X44076190Y-2452380D01*
X43600000Y-3452380D02*
X43600000Y-2452380D01*
X43028571Y-3452380D01*
X43028571Y-2452380D01*
X68314285Y-23366666D02*
X67838095Y-23366666D01*
X68409523Y-23652380D02*
X68076190Y-22652380D01*
X67742857Y-23652380D01*
X67409523Y-22652380D02*
X67409523Y-23461904D01*
X67361904Y-23557142D01*
X67314285Y-23604761D01*
X67219047Y-23652380D01*
X67028571Y-23652380D01*
X66933333Y-23604761D01*
X66885714Y-23557142D01*
X66838095Y-23461904D01*
X66838095Y-22652380D01*
X66457142Y-22652380D02*
X65790476Y-23652380D01*
X65790476Y-22652380D02*
X66457142Y-23652380D01*
X65219047Y-22652380D02*
X65123809Y-22652380D01*
X65028571Y-22700000D01*
X64980952Y-22747619D01*
X64933333Y-22842857D01*
X64885714Y-23033333D01*
X64885714Y-23271428D01*
X64933333Y-23461904D01*
X64980952Y-23557142D01*
X65028571Y-23604761D01*
X65123809Y-23652380D01*
X65219047Y-23652380D01*
X65314285Y-23604761D01*
X65361904Y-23557142D01*
X65409523Y-23461904D01*
X65457142Y-23271428D01*
X65457142Y-23033333D01*
X65409523Y-22842857D01*
X65361904Y-22747619D01*
X65314285Y-22700000D01*
X65219047Y-22652380D01*
X69714285Y-19366666D02*
X69238095Y-19366666D01*
X69809523Y-19652380D02*
X69476190Y-18652380D01*
X69142857Y-19652380D01*
X68809523Y-18652380D02*
X68809523Y-19461904D01*
X68761904Y-19557142D01*
X68714285Y-19604761D01*
X68619047Y-19652380D01*
X68428571Y-19652380D01*
X68333333Y-19604761D01*
X68285714Y-19557142D01*
X68238095Y-19461904D01*
X68238095Y-18652380D01*
X67857142Y-18652380D02*
X67190476Y-19652380D01*
X67190476Y-18652380D02*
X67857142Y-19652380D01*
X66285714Y-19652380D02*
X66857142Y-19652380D01*
X66571428Y-19652380D02*
X66571428Y-18652380D01*
X66666666Y-18795238D01*
X66761904Y-18890476D01*
X66857142Y-18938095D01*
X69714285Y-15766666D02*
X69238095Y-15766666D01*
X69809523Y-16052380D02*
X69476190Y-15052380D01*
X69142857Y-16052380D01*
X68809523Y-15052380D02*
X68809523Y-15861904D01*
X68761904Y-15957142D01*
X68714285Y-16004761D01*
X68619047Y-16052380D01*
X68428571Y-16052380D01*
X68333333Y-16004761D01*
X68285714Y-15957142D01*
X68238095Y-15861904D01*
X68238095Y-15052380D01*
X67857142Y-15052380D02*
X67190476Y-16052380D01*
X67190476Y-15052380D02*
X67857142Y-16052380D01*
X66857142Y-15147619D02*
X66809523Y-15100000D01*
X66714285Y-15052380D01*
X66476190Y-15052380D01*
X66380952Y-15100000D01*
X66333333Y-15147619D01*
X66285714Y-15242857D01*
X66285714Y-15338095D01*
X66333333Y-15480952D01*
X66904761Y-16052380D01*
X66285714Y-16052380D01*
X62514285Y-9766666D02*
X62038095Y-9766666D01*
X62609523Y-10052380D02*
X62276190Y-9052380D01*
X61942857Y-10052380D01*
X61609523Y-9052380D02*
X61609523Y-9861904D01*
X61561904Y-9957142D01*
X61514285Y-10004761D01*
X61419047Y-10052380D01*
X61228571Y-10052380D01*
X61133333Y-10004761D01*
X61085714Y-9957142D01*
X61038095Y-9861904D01*
X61038095Y-9052380D01*
X60657142Y-9052380D02*
X59990476Y-10052380D01*
X59990476Y-9052380D02*
X60657142Y-10052380D01*
X59704761Y-9052380D02*
X59085714Y-9052380D01*
X59419047Y-9433333D01*
X59276190Y-9433333D01*
X59180952Y-9480952D01*
X59133333Y-9528571D01*
X59085714Y-9623809D01*
X59085714Y-9861904D01*
X59133333Y-9957142D01*
X59180952Y-10004761D01*
X59276190Y-10052380D01*
X59561904Y-10052380D01*
X59657142Y-10004761D01*
X59704761Y-9957142D01*
X60785714Y-6952380D02*
X60214285Y-6952380D01*
X60500000Y-7952380D02*
X60500000Y-6952380D01*
X59880952Y-7428571D02*
X59547619Y-7428571D01*
X59404761Y-7952380D02*
X59880952Y-7952380D01*
X59880952Y-6952380D01*
X59404761Y-6952380D01*
X58976190Y-7952380D02*
X58976190Y-6952380D01*
X58642857Y-7666666D01*
X58309523Y-6952380D01*
X58309523Y-7952380D01*
X57833333Y-7952380D02*
X57833333Y-6952380D01*
X57452380Y-6952380D01*
X57357142Y-7000000D01*
X57309523Y-7047619D01*
X57261904Y-7142857D01*
X57261904Y-7285714D01*
X57309523Y-7380952D01*
X57357142Y-7428571D01*
X57452380Y-7476190D01*
X57833333Y-7476190D01*
X56880952Y-7047619D02*
X56833333Y-7000000D01*
X56738095Y-6952380D01*
X56500000Y-6952380D01*
X56404761Y-7000000D01*
X56357142Y-7047619D01*
X56309523Y-7142857D01*
X56309523Y-7238095D01*
X56357142Y-7380952D01*
X56928571Y-7952380D01*
X56309523Y-7952380D01*
X65185714Y-352380D02*
X64614285Y-352380D01*
X64900000Y-1352380D02*
X64900000Y-352380D01*
X64280952Y-828571D02*
X63947619Y-828571D01*
X63804761Y-1352380D02*
X64280952Y-1352380D01*
X64280952Y-352380D01*
X63804761Y-352380D01*
X63376190Y-1352380D02*
X63376190Y-352380D01*
X63042857Y-1066666D01*
X62709523Y-352380D01*
X62709523Y-1352380D01*
X62233333Y-1352380D02*
X62233333Y-352380D01*
X61852380Y-352380D01*
X61757142Y-400000D01*
X61709523Y-447619D01*
X61661904Y-542857D01*
X61661904Y-685714D01*
X61709523Y-780952D01*
X61757142Y-828571D01*
X61852380Y-876190D01*
X62233333Y-876190D01*
X60709523Y-1352380D02*
X61280952Y-1352380D01*
X60995238Y-1352380D02*
X60995238Y-352380D01*
X61090476Y-495238D01*
X61185714Y-590476D01*
X61280952Y-638095D01*
X72485714Y-7828571D02*
X72342857Y-7876190D01*
X72295238Y-7923809D01*
X72247619Y-8019047D01*
X72247619Y-8161904D01*
X72295238Y-8257142D01*
X72342857Y-8304761D01*
X72438095Y-8352380D01*
X72819047Y-8352380D01*
X72819047Y-7352380D01*
X72485714Y-7352380D01*
X72390476Y-7400000D01*
X72342857Y-7447619D01*
X72295238Y-7542857D01*
X72295238Y-7638095D01*
X72342857Y-7733333D01*
X72390476Y-7780952D01*
X72485714Y-7828571D01*
X72819047Y-7828571D01*
X71819047Y-7828571D02*
X71485714Y-7828571D01*
X71342857Y-8352380D02*
X71819047Y-8352380D01*
X71819047Y-7352380D01*
X71342857Y-7352380D01*
X70914285Y-8352380D02*
X70914285Y-7352380D01*
X70676190Y-7352380D01*
X70533333Y-7400000D01*
X70438095Y-7495238D01*
X70390476Y-7590476D01*
X70342857Y-7780952D01*
X70342857Y-7923809D01*
X70390476Y-8114285D01*
X70438095Y-8209523D01*
X70533333Y-8304761D01*
X70676190Y-8352380D01*
X70914285Y-8352380D01*
X70057142Y-7352380D02*
X69485714Y-7352380D01*
X69771428Y-8352380D02*
X69771428Y-7352380D01*
X69152380Y-7828571D02*
X68819047Y-7828571D01*
X68676190Y-8352380D02*
X69152380Y-8352380D01*
X69152380Y-7352380D01*
X68676190Y-7352380D01*
X68247619Y-8352380D02*
X68247619Y-7352380D01*
X67914285Y-8066666D01*
X67580952Y-7352380D01*
X67580952Y-8352380D01*
X67104761Y-8352380D02*
X67104761Y-7352380D01*
X66723809Y-7352380D01*
X66628571Y-7400000D01*
X66580952Y-7447619D01*
X66533333Y-7542857D01*
X66533333Y-7685714D01*
X66580952Y-7780952D01*
X66628571Y-7828571D01*
X66723809Y-7876190D01*
X67104761Y-7876190D01*
X97614285Y-10852380D02*
X97614285Y-9852380D01*
X97376190Y-9852380D01*
X97233333Y-9900000D01*
X97138095Y-9995238D01*
X97090476Y-10090476D01*
X97042857Y-10280952D01*
X97042857Y-10423809D01*
X97090476Y-10614285D01*
X97138095Y-10709523D01*
X97233333Y-10804761D01*
X97376190Y-10852380D01*
X97614285Y-10852380D01*
X95900000Y-9804761D02*
X96757142Y-11090476D01*
X95614285Y-10566666D02*
X95138095Y-10566666D01*
X95709523Y-10852380D02*
X95376190Y-9852380D01*
X95042857Y-10852380D01*
X109547619Y-15604761D02*
X109404761Y-15652380D01*
X109166666Y-15652380D01*
X109071428Y-15604761D01*
X109023809Y-15557142D01*
X108976190Y-15461904D01*
X108976190Y-15366666D01*
X109023809Y-15271428D01*
X109071428Y-15223809D01*
X109166666Y-15176190D01*
X109357142Y-15128571D01*
X109452380Y-15080952D01*
X109500000Y-15033333D01*
X109547619Y-14938095D01*
X109547619Y-14842857D01*
X109500000Y-14747619D01*
X109452380Y-14700000D01*
X109357142Y-14652380D01*
X109119047Y-14652380D01*
X108976190Y-14700000D01*
X108690476Y-14652380D02*
X108119047Y-14652380D01*
X108404761Y-15652380D02*
X108404761Y-14652380D01*
X107785714Y-15128571D02*
X107452380Y-15128571D01*
X107309523Y-15652380D02*
X107785714Y-15652380D01*
X107785714Y-14652380D01*
X107309523Y-14652380D01*
X106880952Y-15652380D02*
X106880952Y-14652380D01*
X106500000Y-14652380D01*
X106404761Y-14700000D01*
X106357142Y-14747619D01*
X106309523Y-14842857D01*
X106309523Y-14985714D01*
X106357142Y-15080952D01*
X106404761Y-15128571D01*
X106500000Y-15176190D01*
X106880952Y-15176190D01*
X105880952Y-15652380D02*
X105880952Y-14652380D01*
X105500000Y-14652380D01*
X105404761Y-14700000D01*
X105357142Y-14747619D01*
X105309523Y-14842857D01*
X105309523Y-14985714D01*
X105357142Y-15080952D01*
X105404761Y-15128571D01*
X105500000Y-15176190D01*
X105880952Y-15176190D01*
X104880952Y-15128571D02*
X104547619Y-15128571D01*
X104404761Y-15652380D02*
X104880952Y-15652380D01*
X104880952Y-14652380D01*
X104404761Y-14652380D01*
X103404761Y-15652380D02*
X103738095Y-15176190D01*
X103976190Y-15652380D02*
X103976190Y-14652380D01*
X103595238Y-14652380D01*
X103500000Y-14700000D01*
X103452380Y-14747619D01*
X103404761Y-14842857D01*
X103404761Y-14985714D01*
X103452380Y-15080952D01*
X103500000Y-15128571D01*
X103595238Y-15176190D01*
X103976190Y-15176190D01*
X102500000Y-14652380D02*
X102976190Y-14652380D01*
X103023809Y-15128571D01*
X102976190Y-15080952D01*
X102880952Y-15033333D01*
X102642857Y-15033333D01*
X102547619Y-15080952D01*
X102500000Y-15128571D01*
X102452380Y-15223809D01*
X102452380Y-15461904D01*
X102500000Y-15557142D01*
X102547619Y-15604761D01*
X102642857Y-15652380D01*
X102880952Y-15652380D01*
X102976190Y-15604761D01*
X103023809Y-15557142D01*
X109547619Y-14004761D02*
X109404761Y-14052380D01*
X109166666Y-14052380D01*
X109071428Y-14004761D01*
X109023809Y-13957142D01*
X108976190Y-13861904D01*
X108976190Y-13766666D01*
X109023809Y-13671428D01*
X109071428Y-13623809D01*
X109166666Y-13576190D01*
X109357142Y-13528571D01*
X109452380Y-13480952D01*
X109500000Y-13433333D01*
X109547619Y-13338095D01*
X109547619Y-13242857D01*
X109500000Y-13147619D01*
X109452380Y-13100000D01*
X109357142Y-13052380D01*
X109119047Y-13052380D01*
X108976190Y-13100000D01*
X108690476Y-13052380D02*
X108119047Y-13052380D01*
X108404761Y-14052380D02*
X108404761Y-13052380D01*
X107785714Y-13528571D02*
X107452380Y-13528571D01*
X107309523Y-14052380D02*
X107785714Y-14052380D01*
X107785714Y-13052380D01*
X107309523Y-13052380D01*
X106880952Y-14052380D02*
X106880952Y-13052380D01*
X106500000Y-13052380D01*
X106404761Y-13100000D01*
X106357142Y-13147619D01*
X106309523Y-13242857D01*
X106309523Y-13385714D01*
X106357142Y-13480952D01*
X106404761Y-13528571D01*
X106500000Y-13576190D01*
X106880952Y-13576190D01*
X105880952Y-14052380D02*
X105880952Y-13052380D01*
X105500000Y-13052380D01*
X105404761Y-13100000D01*
X105357142Y-13147619D01*
X105309523Y-13242857D01*
X105309523Y-13385714D01*
X105357142Y-13480952D01*
X105404761Y-13528571D01*
X105500000Y-13576190D01*
X105880952Y-13576190D01*
X104880952Y-13528571D02*
X104547619Y-13528571D01*
X104404761Y-14052380D02*
X104880952Y-14052380D01*
X104880952Y-13052380D01*
X104404761Y-13052380D01*
X103404761Y-14052380D02*
X103738095Y-13576190D01*
X103976190Y-14052380D02*
X103976190Y-13052380D01*
X103595238Y-13052380D01*
X103500000Y-13100000D01*
X103452380Y-13147619D01*
X103404761Y-13242857D01*
X103404761Y-13385714D01*
X103452380Y-13480952D01*
X103500000Y-13528571D01*
X103595238Y-13576190D01*
X103976190Y-13576190D01*
X102547619Y-13052380D02*
X102738095Y-13052380D01*
X102833333Y-13100000D01*
X102880952Y-13147619D01*
X102976190Y-13290476D01*
X103023809Y-13480952D01*
X103023809Y-13861904D01*
X102976190Y-13957142D01*
X102928571Y-14004761D01*
X102833333Y-14052380D01*
X102642857Y-14052380D01*
X102547619Y-14004761D01*
X102500000Y-13957142D01*
X102452380Y-13861904D01*
X102452380Y-13623809D01*
X102500000Y-13528571D01*
X102547619Y-13480952D01*
X102642857Y-13433333D01*
X102833333Y-13433333D01*
X102928571Y-13480952D01*
X102976190Y-13528571D01*
X103023809Y-13623809D01*
X109547619Y-2004761D02*
X109404761Y-2052380D01*
X109166666Y-2052380D01*
X109071428Y-2004761D01*
X109023809Y-1957142D01*
X108976190Y-1861904D01*
X108976190Y-1766666D01*
X109023809Y-1671428D01*
X109071428Y-1623809D01*
X109166666Y-1576190D01*
X109357142Y-1528571D01*
X109452380Y-1480952D01*
X109500000Y-1433333D01*
X109547619Y-1338095D01*
X109547619Y-1242857D01*
X109500000Y-1147619D01*
X109452380Y-1100000D01*
X109357142Y-1052380D01*
X109119047Y-1052380D01*
X108976190Y-1100000D01*
X108690476Y-1052380D02*
X108119047Y-1052380D01*
X108404761Y-2052380D02*
X108404761Y-1052380D01*
X107785714Y-1528571D02*
X107452380Y-1528571D01*
X107309523Y-2052380D02*
X107785714Y-2052380D01*
X107785714Y-1052380D01*
X107309523Y-1052380D01*
X106880952Y-2052380D02*
X106880952Y-1052380D01*
X106500000Y-1052380D01*
X106404761Y-1100000D01*
X106357142Y-1147619D01*
X106309523Y-1242857D01*
X106309523Y-1385714D01*
X106357142Y-1480952D01*
X106404761Y-1528571D01*
X106500000Y-1576190D01*
X106880952Y-1576190D01*
X105880952Y-2052380D02*
X105880952Y-1052380D01*
X105500000Y-1052380D01*
X105404761Y-1100000D01*
X105357142Y-1147619D01*
X105309523Y-1242857D01*
X105309523Y-1385714D01*
X105357142Y-1480952D01*
X105404761Y-1528571D01*
X105500000Y-1576190D01*
X105880952Y-1576190D01*
X104880952Y-1528571D02*
X104547619Y-1528571D01*
X104404761Y-2052380D02*
X104880952Y-2052380D01*
X104880952Y-1052380D01*
X104404761Y-1052380D01*
X103404761Y-2052380D02*
X103738095Y-1576190D01*
X103976190Y-2052380D02*
X103976190Y-1052380D01*
X103595238Y-1052380D01*
X103500000Y-1100000D01*
X103452380Y-1147619D01*
X103404761Y-1242857D01*
X103404761Y-1385714D01*
X103452380Y-1480952D01*
X103500000Y-1528571D01*
X103595238Y-1576190D01*
X103976190Y-1576190D01*
X103071428Y-1052380D02*
X102404761Y-1052380D01*
X102833333Y-2052380D01*
X66747619Y-49804761D02*
X66604761Y-49852380D01*
X66366666Y-49852380D01*
X66271428Y-49804761D01*
X66223809Y-49757142D01*
X66176190Y-49661904D01*
X66176190Y-49566666D01*
X66223809Y-49471428D01*
X66271428Y-49423809D01*
X66366666Y-49376190D01*
X66557142Y-49328571D01*
X66652380Y-49280952D01*
X66700000Y-49233333D01*
X66747619Y-49138095D01*
X66747619Y-49042857D01*
X66700000Y-48947619D01*
X66652380Y-48900000D01*
X66557142Y-48852380D01*
X66319047Y-48852380D01*
X66176190Y-48900000D01*
X65890476Y-48852380D02*
X65319047Y-48852380D01*
X65604761Y-49852380D02*
X65604761Y-48852380D01*
X64985714Y-49328571D02*
X64652380Y-49328571D01*
X64509523Y-49852380D02*
X64985714Y-49852380D01*
X64985714Y-48852380D01*
X64509523Y-48852380D01*
X64080952Y-49852380D02*
X64080952Y-48852380D01*
X63700000Y-48852380D01*
X63604761Y-48900000D01*
X63557142Y-48947619D01*
X63509523Y-49042857D01*
X63509523Y-49185714D01*
X63557142Y-49280952D01*
X63604761Y-49328571D01*
X63700000Y-49376190D01*
X64080952Y-49376190D01*
X63080952Y-49852380D02*
X63080952Y-48852380D01*
X62700000Y-48852380D01*
X62604761Y-48900000D01*
X62557142Y-48947619D01*
X62509523Y-49042857D01*
X62509523Y-49185714D01*
X62557142Y-49280952D01*
X62604761Y-49328571D01*
X62700000Y-49376190D01*
X63080952Y-49376190D01*
X62080952Y-49328571D02*
X61747619Y-49328571D01*
X61604761Y-49852380D02*
X62080952Y-49852380D01*
X62080952Y-48852380D01*
X61604761Y-48852380D01*
X60604761Y-49852380D02*
X60938095Y-49376190D01*
X61176190Y-49852380D02*
X61176190Y-48852380D01*
X60795238Y-48852380D01*
X60700000Y-48900000D01*
X60652380Y-48947619D01*
X60604761Y-49042857D01*
X60604761Y-49185714D01*
X60652380Y-49280952D01*
X60700000Y-49328571D01*
X60795238Y-49376190D01*
X61176190Y-49376190D01*
X59985714Y-48852380D02*
X59890476Y-48852380D01*
X59795238Y-48900000D01*
X59747619Y-48947619D01*
X59700000Y-49042857D01*
X59652380Y-49233333D01*
X59652380Y-49471428D01*
X59700000Y-49661904D01*
X59747619Y-49757142D01*
X59795238Y-49804761D01*
X59890476Y-49852380D01*
X59985714Y-49852380D01*
X60080952Y-49804761D01*
X60128571Y-49757142D01*
X60176190Y-49661904D01*
X60223809Y-49471428D01*
X60223809Y-49233333D01*
X60176190Y-49042857D01*
X60128571Y-48947619D01*
X60080952Y-48900000D01*
X59985714Y-48852380D01*
X87947619Y-49804761D02*
X87804761Y-49852380D01*
X87566666Y-49852380D01*
X87471428Y-49804761D01*
X87423809Y-49757142D01*
X87376190Y-49661904D01*
X87376190Y-49566666D01*
X87423809Y-49471428D01*
X87471428Y-49423809D01*
X87566666Y-49376190D01*
X87757142Y-49328571D01*
X87852380Y-49280952D01*
X87900000Y-49233333D01*
X87947619Y-49138095D01*
X87947619Y-49042857D01*
X87900000Y-48947619D01*
X87852380Y-48900000D01*
X87757142Y-48852380D01*
X87519047Y-48852380D01*
X87376190Y-48900000D01*
X87090476Y-48852380D02*
X86519047Y-48852380D01*
X86804761Y-49852380D02*
X86804761Y-48852380D01*
X86185714Y-49328571D02*
X85852380Y-49328571D01*
X85709523Y-49852380D02*
X86185714Y-49852380D01*
X86185714Y-48852380D01*
X85709523Y-48852380D01*
X85280952Y-49852380D02*
X85280952Y-48852380D01*
X84900000Y-48852380D01*
X84804761Y-48900000D01*
X84757142Y-48947619D01*
X84709523Y-49042857D01*
X84709523Y-49185714D01*
X84757142Y-49280952D01*
X84804761Y-49328571D01*
X84900000Y-49376190D01*
X85280952Y-49376190D01*
X84280952Y-49852380D02*
X84280952Y-48852380D01*
X83900000Y-48852380D01*
X83804761Y-48900000D01*
X83757142Y-48947619D01*
X83709523Y-49042857D01*
X83709523Y-49185714D01*
X83757142Y-49280952D01*
X83804761Y-49328571D01*
X83900000Y-49376190D01*
X84280952Y-49376190D01*
X83280952Y-49328571D02*
X82947619Y-49328571D01*
X82804761Y-49852380D02*
X83280952Y-49852380D01*
X83280952Y-48852380D01*
X82804761Y-48852380D01*
X81804761Y-49852380D02*
X82138095Y-49376190D01*
X82376190Y-49852380D02*
X82376190Y-48852380D01*
X81995238Y-48852380D01*
X81900000Y-48900000D01*
X81852380Y-48947619D01*
X81804761Y-49042857D01*
X81804761Y-49185714D01*
X81852380Y-49280952D01*
X81900000Y-49328571D01*
X81995238Y-49376190D01*
X82376190Y-49376190D01*
X80852380Y-49852380D02*
X81423809Y-49852380D01*
X81138095Y-49852380D02*
X81138095Y-48852380D01*
X81233333Y-48995238D01*
X81328571Y-49090476D01*
X81423809Y-49138095D01*
X109147619Y-49804761D02*
X109004761Y-49852380D01*
X108766666Y-49852380D01*
X108671428Y-49804761D01*
X108623809Y-49757142D01*
X108576190Y-49661904D01*
X108576190Y-49566666D01*
X108623809Y-49471428D01*
X108671428Y-49423809D01*
X108766666Y-49376190D01*
X108957142Y-49328571D01*
X109052380Y-49280952D01*
X109100000Y-49233333D01*
X109147619Y-49138095D01*
X109147619Y-49042857D01*
X109100000Y-48947619D01*
X109052380Y-48900000D01*
X108957142Y-48852380D01*
X108719047Y-48852380D01*
X108576190Y-48900000D01*
X108290476Y-48852380D02*
X107719047Y-48852380D01*
X108004761Y-49852380D02*
X108004761Y-48852380D01*
X107385714Y-49328571D02*
X107052380Y-49328571D01*
X106909523Y-49852380D02*
X107385714Y-49852380D01*
X107385714Y-48852380D01*
X106909523Y-48852380D01*
X106480952Y-49852380D02*
X106480952Y-48852380D01*
X106100000Y-48852380D01*
X106004761Y-48900000D01*
X105957142Y-48947619D01*
X105909523Y-49042857D01*
X105909523Y-49185714D01*
X105957142Y-49280952D01*
X106004761Y-49328571D01*
X106100000Y-49376190D01*
X106480952Y-49376190D01*
X105480952Y-49852380D02*
X105480952Y-48852380D01*
X105100000Y-48852380D01*
X105004761Y-48900000D01*
X104957142Y-48947619D01*
X104909523Y-49042857D01*
X104909523Y-49185714D01*
X104957142Y-49280952D01*
X105004761Y-49328571D01*
X105100000Y-49376190D01*
X105480952Y-49376190D01*
X104480952Y-49328571D02*
X104147619Y-49328571D01*
X104004761Y-49852380D02*
X104480952Y-49852380D01*
X104480952Y-48852380D01*
X104004761Y-48852380D01*
X103004761Y-49852380D02*
X103338095Y-49376190D01*
X103576190Y-49852380D02*
X103576190Y-48852380D01*
X103195238Y-48852380D01*
X103100000Y-48900000D01*
X103052380Y-48947619D01*
X103004761Y-49042857D01*
X103004761Y-49185714D01*
X103052380Y-49280952D01*
X103100000Y-49328571D01*
X103195238Y-49376190D01*
X103576190Y-49376190D01*
X102623809Y-48947619D02*
X102576190Y-48900000D01*
X102480952Y-48852380D01*
X102242857Y-48852380D01*
X102147619Y-48900000D01*
X102100000Y-48947619D01*
X102052380Y-49042857D01*
X102052380Y-49138095D01*
X102100000Y-49280952D01*
X102671428Y-49852380D01*
X102052380Y-49852380D01*
X130947619Y-49804761D02*
X130804761Y-49852380D01*
X130566666Y-49852380D01*
X130471428Y-49804761D01*
X130423809Y-49757142D01*
X130376190Y-49661904D01*
X130376190Y-49566666D01*
X130423809Y-49471428D01*
X130471428Y-49423809D01*
X130566666Y-49376190D01*
X130757142Y-49328571D01*
X130852380Y-49280952D01*
X130900000Y-49233333D01*
X130947619Y-49138095D01*
X130947619Y-49042857D01*
X130900000Y-48947619D01*
X130852380Y-48900000D01*
X130757142Y-48852380D01*
X130519047Y-48852380D01*
X130376190Y-48900000D01*
X130090476Y-48852380D02*
X129519047Y-48852380D01*
X129804761Y-49852380D02*
X129804761Y-48852380D01*
X129185714Y-49328571D02*
X128852380Y-49328571D01*
X128709523Y-49852380D02*
X129185714Y-49852380D01*
X129185714Y-48852380D01*
X128709523Y-48852380D01*
X128280952Y-49852380D02*
X128280952Y-48852380D01*
X127900000Y-48852380D01*
X127804761Y-48900000D01*
X127757142Y-48947619D01*
X127709523Y-49042857D01*
X127709523Y-49185714D01*
X127757142Y-49280952D01*
X127804761Y-49328571D01*
X127900000Y-49376190D01*
X128280952Y-49376190D01*
X127280952Y-49852380D02*
X127280952Y-48852380D01*
X126900000Y-48852380D01*
X126804761Y-48900000D01*
X126757142Y-48947619D01*
X126709523Y-49042857D01*
X126709523Y-49185714D01*
X126757142Y-49280952D01*
X126804761Y-49328571D01*
X126900000Y-49376190D01*
X127280952Y-49376190D01*
X126280952Y-49328571D02*
X125947619Y-49328571D01*
X125804761Y-49852380D02*
X126280952Y-49852380D01*
X126280952Y-48852380D01*
X125804761Y-48852380D01*
X124804761Y-49852380D02*
X125138095Y-49376190D01*
X125376190Y-49852380D02*
X125376190Y-48852380D01*
X124995238Y-48852380D01*
X124900000Y-48900000D01*
X124852380Y-48947619D01*
X124804761Y-49042857D01*
X124804761Y-49185714D01*
X124852380Y-49280952D01*
X124900000Y-49328571D01*
X124995238Y-49376190D01*
X125376190Y-49376190D01*
X124471428Y-48852380D02*
X123852380Y-48852380D01*
X124185714Y-49233333D01*
X124042857Y-49233333D01*
X123947619Y-49280952D01*
X123900000Y-49328571D01*
X123852380Y-49423809D01*
X123852380Y-49661904D01*
X123900000Y-49757142D01*
X123947619Y-49804761D01*
X124042857Y-49852380D01*
X124328571Y-49852380D01*
X124423809Y-49804761D01*
X124471428Y-49757142D01*
X130847619Y-25104761D02*
X130704761Y-25152380D01*
X130466666Y-25152380D01*
X130371428Y-25104761D01*
X130323809Y-25057142D01*
X130276190Y-24961904D01*
X130276190Y-24866666D01*
X130323809Y-24771428D01*
X130371428Y-24723809D01*
X130466666Y-24676190D01*
X130657142Y-24628571D01*
X130752380Y-24580952D01*
X130800000Y-24533333D01*
X130847619Y-24438095D01*
X130847619Y-24342857D01*
X130800000Y-24247619D01*
X130752380Y-24200000D01*
X130657142Y-24152380D01*
X130419047Y-24152380D01*
X130276190Y-24200000D01*
X129990476Y-24152380D02*
X129419047Y-24152380D01*
X129704761Y-25152380D02*
X129704761Y-24152380D01*
X129085714Y-24628571D02*
X128752380Y-24628571D01*
X128609523Y-25152380D02*
X129085714Y-25152380D01*
X129085714Y-24152380D01*
X128609523Y-24152380D01*
X128180952Y-25152380D02*
X128180952Y-24152380D01*
X127800000Y-24152380D01*
X127704761Y-24200000D01*
X127657142Y-24247619D01*
X127609523Y-24342857D01*
X127609523Y-24485714D01*
X127657142Y-24580952D01*
X127704761Y-24628571D01*
X127800000Y-24676190D01*
X128180952Y-24676190D01*
X127180952Y-25152380D02*
X127180952Y-24152380D01*
X126800000Y-24152380D01*
X126704761Y-24200000D01*
X126657142Y-24247619D01*
X126609523Y-24342857D01*
X126609523Y-24485714D01*
X126657142Y-24580952D01*
X126704761Y-24628571D01*
X126800000Y-24676190D01*
X127180952Y-24676190D01*
X126180952Y-24628571D02*
X125847619Y-24628571D01*
X125704761Y-25152380D02*
X126180952Y-25152380D01*
X126180952Y-24152380D01*
X125704761Y-24152380D01*
X124704761Y-25152380D02*
X125038095Y-24676190D01*
X125276190Y-25152380D02*
X125276190Y-24152380D01*
X124895238Y-24152380D01*
X124800000Y-24200000D01*
X124752380Y-24247619D01*
X124704761Y-24342857D01*
X124704761Y-24485714D01*
X124752380Y-24580952D01*
X124800000Y-24628571D01*
X124895238Y-24676190D01*
X125276190Y-24676190D01*
X123847619Y-24485714D02*
X123847619Y-25152380D01*
X124085714Y-24104761D02*
X124323809Y-24819047D01*
X123704761Y-24819047D01*
D11*
X7618200Y-30256100D02*
X7618200Y-31766100D01*
X11319200Y-30256100D02*
X11319200Y-31766100D01*
X14589200Y-31766100D02*
X4349200Y-31766100D01*
X4349200Y-30256100D02*
X4349200Y-34897100D01*
X14589200Y-30256100D02*
X14589200Y-34897100D01*
X14589200Y-34897100D02*
X4349200Y-34897100D01*
X14589200Y-30256100D02*
X4349200Y-30256100D01*
X7618200Y-24884000D02*
X7618200Y-26394000D01*
X11319200Y-24884000D02*
X11319200Y-26394000D01*
X14589200Y-26394000D02*
X4349200Y-26394000D01*
X4349200Y-24884000D02*
X4349200Y-29525000D01*
X14589200Y-24884000D02*
X14589200Y-29525000D01*
X14589200Y-29525000D02*
X4349200Y-29525000D01*
X14589200Y-24884000D02*
X4349200Y-24884000D01*
X47861300Y-49261400D02*
X37701300Y-49261400D01*
X47861300Y-41641400D02*
X47861300Y-49261400D01*
X37701300Y-41641400D02*
X47861300Y-41641400D01*
X37701300Y-49261400D02*
X37701300Y-41641400D01*
X37701300Y-47991400D02*
X47861300Y-47991400D01*
X38197634Y-31615351D02*
G75*
G02X40465000Y-31674953I1167366J1251551D01*
G01*
X27212134Y-31678851D02*
G75*
G02X29479500Y-31738453I1167366J1251551D01*
G01*
X16252034Y-31640751D02*
G75*
G02X18519400Y-31700353I1167366J1251551D01*
G01*
X15655134Y-22712651D02*
G75*
G02X17922500Y-22772253I1167366J1251551D01*
G01*
X41959300Y-33623400D02*
X41959300Y-31973400D01*
X47159300Y-33623400D02*
X41959300Y-33623400D01*
X47159300Y-28323400D02*
X47159300Y-33623400D01*
X41959300Y-28323400D02*
X47159300Y-28323400D01*
X41959300Y-29973400D02*
X41959300Y-28323400D01*
X41959300Y-31973400D02*
G75*
G03X41959300Y-29973400I0J1000000D01*
G01*
X30897600Y-33686900D02*
X30897600Y-32036900D01*
X36097600Y-33686900D02*
X30897600Y-33686900D01*
X36097600Y-28386900D02*
X36097600Y-33686900D01*
X30897600Y-28386900D02*
X36097600Y-28386900D01*
X30897600Y-30036900D02*
X30897600Y-28386900D01*
X30897600Y-32036900D02*
G75*
G03X30897600Y-30036900I0J1000000D01*
G01*
X19835900Y-33686900D02*
X19835900Y-32036900D01*
X25035900Y-33686900D02*
X19835900Y-33686900D01*
X25035900Y-28386900D02*
X25035900Y-33686900D01*
X19835900Y-28386900D02*
X25035900Y-28386900D01*
X19835900Y-30036900D02*
X19835900Y-28386900D01*
X19835900Y-32036900D02*
G75*
G03X19835900Y-30036900I0J1000000D01*
G01*
X22871000Y-20029500D02*
G75*
G03X24871000Y-20029500I1000000J0D01*
G01*
X24871000Y-20029500D02*
X26521000Y-20029500D01*
X26521000Y-20029500D02*
X26521000Y-25229500D01*
X26521000Y-25229500D02*
X21221000Y-25229500D01*
X21221000Y-25229500D02*
X21221000Y-20029500D01*
X21221000Y-20029500D02*
X22871000Y-20029500D01*
X29868600Y-36148900D02*
X29868600Y-37658900D01*
X33569600Y-36148900D02*
X33569600Y-37658900D01*
X36839600Y-37658900D02*
X26599600Y-37658900D01*
X26599600Y-36148900D02*
X26599600Y-40789900D01*
X36839600Y-36148900D02*
X36839600Y-40789900D01*
X36839600Y-40789900D02*
X26599600Y-40789900D01*
X36839600Y-36148900D02*
X26599600Y-36148900D01*
X30564600Y-5751200D02*
G75*
G03X30564600Y-5751200I-3270000J0D01*
G01*
X27294600Y-8981200D02*
X27294600Y-2521200D01*
X27334600Y-8981200D02*
X27334600Y-2521200D01*
X27374600Y-8981200D02*
X27374600Y-2521200D01*
X27414600Y-8979200D02*
X27414600Y-2523200D01*
X27454600Y-8978200D02*
X27454600Y-2524200D01*
X27494600Y-8975200D02*
X27494600Y-2527200D01*
X27534600Y-8973200D02*
X27534600Y-6791200D01*
X27534600Y-4711200D02*
X27534600Y-2529200D01*
X27574600Y-8969200D02*
X27574600Y-6791200D01*
X27574600Y-4711200D02*
X27574600Y-2533200D01*
X27614600Y-8966200D02*
X27614600Y-6791200D01*
X27614600Y-4711200D02*
X27614600Y-2536200D01*
X27654600Y-8962200D02*
X27654600Y-6791200D01*
X27654600Y-4711200D02*
X27654600Y-2540200D01*
X27694600Y-8957200D02*
X27694600Y-6791200D01*
X27694600Y-4711200D02*
X27694600Y-2545200D01*
X27734600Y-8952200D02*
X27734600Y-6791200D01*
X27734600Y-4711200D02*
X27734600Y-2550200D01*
X27774600Y-8946200D02*
X27774600Y-6791200D01*
X27774600Y-4711200D02*
X27774600Y-2556200D01*
X27814600Y-8940200D02*
X27814600Y-6791200D01*
X27814600Y-4711200D02*
X27814600Y-2562200D01*
X27854600Y-8933200D02*
X27854600Y-6791200D01*
X27854600Y-4711200D02*
X27854600Y-2569200D01*
X27894600Y-8926200D02*
X27894600Y-6791200D01*
X27894600Y-4711200D02*
X27894600Y-2576200D01*
X27934600Y-8918200D02*
X27934600Y-6791200D01*
X27934600Y-4711200D02*
X27934600Y-2584200D01*
X27974600Y-8910200D02*
X27974600Y-6791200D01*
X27974600Y-4711200D02*
X27974600Y-2592200D01*
X28015600Y-8901200D02*
X28015600Y-6791200D01*
X28015600Y-4711200D02*
X28015600Y-2601200D01*
X28055600Y-8892200D02*
X28055600Y-6791200D01*
X28055600Y-4711200D02*
X28055600Y-2610200D01*
X28095600Y-8882200D02*
X28095600Y-6791200D01*
X28095600Y-4711200D02*
X28095600Y-2620200D01*
X28135600Y-8872200D02*
X28135600Y-6791200D01*
X28135600Y-4711200D02*
X28135600Y-2630200D01*
X28175600Y-8861200D02*
X28175600Y-6791200D01*
X28175600Y-4711200D02*
X28175600Y-2641200D01*
X28215600Y-8849200D02*
X28215600Y-6791200D01*
X28215600Y-4711200D02*
X28215600Y-2653200D01*
X28255600Y-8837200D02*
X28255600Y-6791200D01*
X28255600Y-4711200D02*
X28255600Y-2665200D01*
X28295600Y-8825200D02*
X28295600Y-6791200D01*
X28295600Y-4711200D02*
X28295600Y-2677200D01*
X28335600Y-8812200D02*
X28335600Y-6791200D01*
X28335600Y-4711200D02*
X28335600Y-2690200D01*
X28375600Y-8798200D02*
X28375600Y-6791200D01*
X28375600Y-4711200D02*
X28375600Y-2704200D01*
X28415600Y-8784200D02*
X28415600Y-6791200D01*
X28415600Y-4711200D02*
X28415600Y-2718200D01*
X28455600Y-8769200D02*
X28455600Y-6791200D01*
X28455600Y-4711200D02*
X28455600Y-2733200D01*
X28495600Y-8753200D02*
X28495600Y-6791200D01*
X28495600Y-4711200D02*
X28495600Y-2749200D01*
X28535600Y-8737200D02*
X28535600Y-6791200D01*
X28535600Y-4711200D02*
X28535600Y-2765200D01*
X28575600Y-8721200D02*
X28575600Y-6791200D01*
X28575600Y-4711200D02*
X28575600Y-2781200D01*
X28615600Y-8703200D02*
X28615600Y-6791200D01*
X28615600Y-4711200D02*
X28615600Y-2799200D01*
X28655600Y-8685200D02*
X28655600Y-6791200D01*
X28655600Y-4711200D02*
X28655600Y-2817200D01*
X28695600Y-8667200D02*
X28695600Y-6791200D01*
X28695600Y-4711200D02*
X28695600Y-2835200D01*
X28735600Y-8647200D02*
X28735600Y-6791200D01*
X28735600Y-4711200D02*
X28735600Y-2855200D01*
X28775600Y-8627200D02*
X28775600Y-6791200D01*
X28775600Y-4711200D02*
X28775600Y-2875200D01*
X28815600Y-8607200D02*
X28815600Y-6791200D01*
X28815600Y-4711200D02*
X28815600Y-2895200D01*
X28855600Y-8585200D02*
X28855600Y-6791200D01*
X28855600Y-4711200D02*
X28855600Y-2917200D01*
X28895600Y-8563200D02*
X28895600Y-6791200D01*
X28895600Y-4711200D02*
X28895600Y-2939200D01*
X28935600Y-8541200D02*
X28935600Y-6791200D01*
X28935600Y-4711200D02*
X28935600Y-2961200D01*
X28975600Y-8517200D02*
X28975600Y-6791200D01*
X28975600Y-4711200D02*
X28975600Y-2985200D01*
X29015600Y-8493200D02*
X29015600Y-6791200D01*
X29015600Y-4711200D02*
X29015600Y-3009200D01*
X29055600Y-8467200D02*
X29055600Y-6791200D01*
X29055600Y-4711200D02*
X29055600Y-3035200D01*
X29095600Y-8441200D02*
X29095600Y-6791200D01*
X29095600Y-4711200D02*
X29095600Y-3061200D01*
X29135600Y-8415200D02*
X29135600Y-6791200D01*
X29135600Y-4711200D02*
X29135600Y-3087200D01*
X29175600Y-8387200D02*
X29175600Y-6791200D01*
X29175600Y-4711200D02*
X29175600Y-3115200D01*
X29215600Y-8358200D02*
X29215600Y-6791200D01*
X29215600Y-4711200D02*
X29215600Y-3144200D01*
X29255600Y-8329200D02*
X29255600Y-6791200D01*
X29255600Y-4711200D02*
X29255600Y-3173200D01*
X29295600Y-8299200D02*
X29295600Y-6791200D01*
X29295600Y-4711200D02*
X29295600Y-3203200D01*
X29335600Y-8267200D02*
X29335600Y-6791200D01*
X29335600Y-4711200D02*
X29335600Y-3235200D01*
X29375600Y-8235200D02*
X29375600Y-6791200D01*
X29375600Y-4711200D02*
X29375600Y-3267200D01*
X29415600Y-8201200D02*
X29415600Y-6791200D01*
X29415600Y-4711200D02*
X29415600Y-3301200D01*
X29455600Y-8167200D02*
X29455600Y-6791200D01*
X29455600Y-4711200D02*
X29455600Y-3335200D01*
X29495600Y-8131200D02*
X29495600Y-6791200D01*
X29495600Y-4711200D02*
X29495600Y-3371200D01*
X29535600Y-8094200D02*
X29535600Y-6791200D01*
X29535600Y-4711200D02*
X29535600Y-3408200D01*
X29575600Y-8056200D02*
X29575600Y-6791200D01*
X29575600Y-4711200D02*
X29575600Y-3446200D01*
X29615600Y-8016200D02*
X29615600Y-3486200D01*
X29655600Y-7975200D02*
X29655600Y-3527200D01*
X29695600Y-7933200D02*
X29695600Y-3569200D01*
X29735600Y-7888200D02*
X29735600Y-3614200D01*
X29775600Y-7843200D02*
X29775600Y-3659200D01*
X29815600Y-7795200D02*
X29815600Y-3707200D01*
X29855600Y-7746200D02*
X29855600Y-3756200D01*
X29895600Y-7695200D02*
X29895600Y-3807200D01*
X29935600Y-7641200D02*
X29935600Y-3861200D01*
X29975600Y-7585200D02*
X29975600Y-3917200D01*
X30015600Y-7527200D02*
X30015600Y-3975200D01*
X30055600Y-7465200D02*
X30055600Y-4037200D01*
X30095600Y-7401200D02*
X30095600Y-4101200D01*
X30135600Y-7332200D02*
X30135600Y-4170200D01*
X30175600Y-7260200D02*
X30175600Y-4242200D01*
X30215600Y-7183200D02*
X30215600Y-4319200D01*
X30255600Y-7101200D02*
X30255600Y-4401200D01*
X30295600Y-7013200D02*
X30295600Y-4489200D01*
X30335600Y-6916200D02*
X30335600Y-4586200D01*
X30375600Y-6810200D02*
X30375600Y-4692200D01*
X30415600Y-6691200D02*
X30415600Y-4811200D01*
X30455600Y-6553200D02*
X30455600Y-4949200D01*
X30495600Y-6384200D02*
X30495600Y-5118200D01*
X30535600Y-6153200D02*
X30535600Y-5349200D01*
X23794359Y-7590200D02*
X24424359Y-7590200D01*
X24109359Y-7905200D02*
X24109359Y-7275200D01*
X38144600Y-5751200D02*
G75*
G03X38144600Y-5751200I-3270000J0D01*
G01*
X34874600Y-8981200D02*
X34874600Y-2521200D01*
X34914600Y-8981200D02*
X34914600Y-2521200D01*
X34954600Y-8981200D02*
X34954600Y-2521200D01*
X34994600Y-8979200D02*
X34994600Y-2523200D01*
X35034600Y-8978200D02*
X35034600Y-2524200D01*
X35074600Y-8975200D02*
X35074600Y-2527200D01*
X35114600Y-8973200D02*
X35114600Y-6791200D01*
X35114600Y-4711200D02*
X35114600Y-2529200D01*
X35154600Y-8969200D02*
X35154600Y-6791200D01*
X35154600Y-4711200D02*
X35154600Y-2533200D01*
X35194600Y-8966200D02*
X35194600Y-6791200D01*
X35194600Y-4711200D02*
X35194600Y-2536200D01*
X35234600Y-8962200D02*
X35234600Y-6791200D01*
X35234600Y-4711200D02*
X35234600Y-2540200D01*
X35274600Y-8957200D02*
X35274600Y-6791200D01*
X35274600Y-4711200D02*
X35274600Y-2545200D01*
X35314600Y-8952200D02*
X35314600Y-6791200D01*
X35314600Y-4711200D02*
X35314600Y-2550200D01*
X35354600Y-8946200D02*
X35354600Y-6791200D01*
X35354600Y-4711200D02*
X35354600Y-2556200D01*
X35394600Y-8940200D02*
X35394600Y-6791200D01*
X35394600Y-4711200D02*
X35394600Y-2562200D01*
X35434600Y-8933200D02*
X35434600Y-6791200D01*
X35434600Y-4711200D02*
X35434600Y-2569200D01*
X35474600Y-8926200D02*
X35474600Y-6791200D01*
X35474600Y-4711200D02*
X35474600Y-2576200D01*
X35514600Y-8918200D02*
X35514600Y-6791200D01*
X35514600Y-4711200D02*
X35514600Y-2584200D01*
X35554600Y-8910200D02*
X35554600Y-6791200D01*
X35554600Y-4711200D02*
X35554600Y-2592200D01*
X35595600Y-8901200D02*
X35595600Y-6791200D01*
X35595600Y-4711200D02*
X35595600Y-2601200D01*
X35635600Y-8892200D02*
X35635600Y-6791200D01*
X35635600Y-4711200D02*
X35635600Y-2610200D01*
X35675600Y-8882200D02*
X35675600Y-6791200D01*
X35675600Y-4711200D02*
X35675600Y-2620200D01*
X35715600Y-8872200D02*
X35715600Y-6791200D01*
X35715600Y-4711200D02*
X35715600Y-2630200D01*
X35755600Y-8861200D02*
X35755600Y-6791200D01*
X35755600Y-4711200D02*
X35755600Y-2641200D01*
X35795600Y-8849200D02*
X35795600Y-6791200D01*
X35795600Y-4711200D02*
X35795600Y-2653200D01*
X35835600Y-8837200D02*
X35835600Y-6791200D01*
X35835600Y-4711200D02*
X35835600Y-2665200D01*
X35875600Y-8825200D02*
X35875600Y-6791200D01*
X35875600Y-4711200D02*
X35875600Y-2677200D01*
X35915600Y-8812200D02*
X35915600Y-6791200D01*
X35915600Y-4711200D02*
X35915600Y-2690200D01*
X35955600Y-8798200D02*
X35955600Y-6791200D01*
X35955600Y-4711200D02*
X35955600Y-2704200D01*
X35995600Y-8784200D02*
X35995600Y-6791200D01*
X35995600Y-4711200D02*
X35995600Y-2718200D01*
X36035600Y-8769200D02*
X36035600Y-6791200D01*
X36035600Y-4711200D02*
X36035600Y-2733200D01*
X36075600Y-8753200D02*
X36075600Y-6791200D01*
X36075600Y-4711200D02*
X36075600Y-2749200D01*
X36115600Y-8737200D02*
X36115600Y-6791200D01*
X36115600Y-4711200D02*
X36115600Y-2765200D01*
X36155600Y-8721200D02*
X36155600Y-6791200D01*
X36155600Y-4711200D02*
X36155600Y-2781200D01*
X36195600Y-8703200D02*
X36195600Y-6791200D01*
X36195600Y-4711200D02*
X36195600Y-2799200D01*
X36235600Y-8685200D02*
X36235600Y-6791200D01*
X36235600Y-4711200D02*
X36235600Y-2817200D01*
X36275600Y-8667200D02*
X36275600Y-6791200D01*
X36275600Y-4711200D02*
X36275600Y-2835200D01*
X36315600Y-8647200D02*
X36315600Y-6791200D01*
X36315600Y-4711200D02*
X36315600Y-2855200D01*
X36355600Y-8627200D02*
X36355600Y-6791200D01*
X36355600Y-4711200D02*
X36355600Y-2875200D01*
X36395600Y-8607200D02*
X36395600Y-6791200D01*
X36395600Y-4711200D02*
X36395600Y-2895200D01*
X36435600Y-8585200D02*
X36435600Y-6791200D01*
X36435600Y-4711200D02*
X36435600Y-2917200D01*
X36475600Y-8563200D02*
X36475600Y-6791200D01*
X36475600Y-4711200D02*
X36475600Y-2939200D01*
X36515600Y-8541200D02*
X36515600Y-6791200D01*
X36515600Y-4711200D02*
X36515600Y-2961200D01*
X36555600Y-8517200D02*
X36555600Y-6791200D01*
X36555600Y-4711200D02*
X36555600Y-2985200D01*
X36595600Y-8493200D02*
X36595600Y-6791200D01*
X36595600Y-4711200D02*
X36595600Y-3009200D01*
X36635600Y-8467200D02*
X36635600Y-6791200D01*
X36635600Y-4711200D02*
X36635600Y-3035200D01*
X36675600Y-8441200D02*
X36675600Y-6791200D01*
X36675600Y-4711200D02*
X36675600Y-3061200D01*
X36715600Y-8415200D02*
X36715600Y-6791200D01*
X36715600Y-4711200D02*
X36715600Y-3087200D01*
X36755600Y-8387200D02*
X36755600Y-6791200D01*
X36755600Y-4711200D02*
X36755600Y-3115200D01*
X36795600Y-8358200D02*
X36795600Y-6791200D01*
X36795600Y-4711200D02*
X36795600Y-3144200D01*
X36835600Y-8329200D02*
X36835600Y-6791200D01*
X36835600Y-4711200D02*
X36835600Y-3173200D01*
X36875600Y-8299200D02*
X36875600Y-6791200D01*
X36875600Y-4711200D02*
X36875600Y-3203200D01*
X36915600Y-8267200D02*
X36915600Y-6791200D01*
X36915600Y-4711200D02*
X36915600Y-3235200D01*
X36955600Y-8235200D02*
X36955600Y-6791200D01*
X36955600Y-4711200D02*
X36955600Y-3267200D01*
X36995600Y-8201200D02*
X36995600Y-6791200D01*
X36995600Y-4711200D02*
X36995600Y-3301200D01*
X37035600Y-8167200D02*
X37035600Y-6791200D01*
X37035600Y-4711200D02*
X37035600Y-3335200D01*
X37075600Y-8131200D02*
X37075600Y-6791200D01*
X37075600Y-4711200D02*
X37075600Y-3371200D01*
X37115600Y-8094200D02*
X37115600Y-6791200D01*
X37115600Y-4711200D02*
X37115600Y-3408200D01*
X37155600Y-8056200D02*
X37155600Y-6791200D01*
X37155600Y-4711200D02*
X37155600Y-3446200D01*
X37195600Y-8016200D02*
X37195600Y-3486200D01*
X37235600Y-7975200D02*
X37235600Y-3527200D01*
X37275600Y-7933200D02*
X37275600Y-3569200D01*
X37315600Y-7888200D02*
X37315600Y-3614200D01*
X37355600Y-7843200D02*
X37355600Y-3659200D01*
X37395600Y-7795200D02*
X37395600Y-3707200D01*
X37435600Y-7746200D02*
X37435600Y-3756200D01*
X37475600Y-7695200D02*
X37475600Y-3807200D01*
X37515600Y-7641200D02*
X37515600Y-3861200D01*
X37555600Y-7585200D02*
X37555600Y-3917200D01*
X37595600Y-7527200D02*
X37595600Y-3975200D01*
X37635600Y-7465200D02*
X37635600Y-4037200D01*
X37675600Y-7401200D02*
X37675600Y-4101200D01*
X37715600Y-7332200D02*
X37715600Y-4170200D01*
X37755600Y-7260200D02*
X37755600Y-4242200D01*
X37795600Y-7183200D02*
X37795600Y-4319200D01*
X37835600Y-7101200D02*
X37835600Y-4401200D01*
X37875600Y-7013200D02*
X37875600Y-4489200D01*
X37915600Y-6916200D02*
X37915600Y-4586200D01*
X37955600Y-6810200D02*
X37955600Y-4692200D01*
X37995600Y-6691200D02*
X37995600Y-4811200D01*
X38035600Y-6553200D02*
X38035600Y-4949200D01*
X38075600Y-6384200D02*
X38075600Y-5118200D01*
X38115600Y-6153200D02*
X38115600Y-5349200D01*
X31374359Y-7590200D02*
X32004359Y-7590200D01*
X31689359Y-7905200D02*
X31689359Y-7275200D01*
X49255359Y-48646800D02*
X49255359Y-48016800D01*
X48940359Y-48331800D02*
X49570359Y-48331800D01*
X55681600Y-46894800D02*
X55681600Y-46090800D01*
X55641600Y-47125800D02*
X55641600Y-45859800D01*
X55601600Y-47294800D02*
X55601600Y-45690800D01*
X55561600Y-47432800D02*
X55561600Y-45552800D01*
X55521600Y-47551800D02*
X55521600Y-45433800D01*
X55481600Y-47657800D02*
X55481600Y-45327800D01*
X55441600Y-47754800D02*
X55441600Y-45230800D01*
X55401600Y-47842800D02*
X55401600Y-45142800D01*
X55361600Y-47924800D02*
X55361600Y-45060800D01*
X55321600Y-48001800D02*
X55321600Y-44983800D01*
X55281600Y-48073800D02*
X55281600Y-44911800D01*
X55241600Y-48142800D02*
X55241600Y-44842800D01*
X55201600Y-48206800D02*
X55201600Y-44778800D01*
X55161600Y-48268800D02*
X55161600Y-44716800D01*
X55121600Y-48326800D02*
X55121600Y-44658800D01*
X55081600Y-48382800D02*
X55081600Y-44602800D01*
X55041600Y-48436800D02*
X55041600Y-44548800D01*
X55001600Y-48487800D02*
X55001600Y-44497800D01*
X54961600Y-48536800D02*
X54961600Y-44448800D01*
X54921600Y-48584800D02*
X54921600Y-44400800D01*
X54881600Y-48629800D02*
X54881600Y-44355800D01*
X54841600Y-48674800D02*
X54841600Y-44310800D01*
X54801600Y-48716800D02*
X54801600Y-44268800D01*
X54761600Y-48757800D02*
X54761600Y-44227800D01*
X54721600Y-45452800D02*
X54721600Y-44187800D01*
X54721600Y-48797800D02*
X54721600Y-47532800D01*
X54681600Y-45452800D02*
X54681600Y-44149800D01*
X54681600Y-48835800D02*
X54681600Y-47532800D01*
X54641600Y-45452800D02*
X54641600Y-44112800D01*
X54641600Y-48872800D02*
X54641600Y-47532800D01*
X54601600Y-45452800D02*
X54601600Y-44076800D01*
X54601600Y-48908800D02*
X54601600Y-47532800D01*
X54561600Y-45452800D02*
X54561600Y-44042800D01*
X54561600Y-48942800D02*
X54561600Y-47532800D01*
X54521600Y-45452800D02*
X54521600Y-44008800D01*
X54521600Y-48976800D02*
X54521600Y-47532800D01*
X54481600Y-45452800D02*
X54481600Y-43976800D01*
X54481600Y-49008800D02*
X54481600Y-47532800D01*
X54441600Y-45452800D02*
X54441600Y-43944800D01*
X54441600Y-49040800D02*
X54441600Y-47532800D01*
X54401600Y-45452800D02*
X54401600Y-43914800D01*
X54401600Y-49070800D02*
X54401600Y-47532800D01*
X54361600Y-45452800D02*
X54361600Y-43885800D01*
X54361600Y-49099800D02*
X54361600Y-47532800D01*
X54321600Y-45452800D02*
X54321600Y-43856800D01*
X54321600Y-49128800D02*
X54321600Y-47532800D01*
X54281600Y-45452800D02*
X54281600Y-43828800D01*
X54281600Y-49156800D02*
X54281600Y-47532800D01*
X54241600Y-45452800D02*
X54241600Y-43802800D01*
X54241600Y-49182800D02*
X54241600Y-47532800D01*
X54201600Y-45452800D02*
X54201600Y-43776800D01*
X54201600Y-49208800D02*
X54201600Y-47532800D01*
X54161600Y-45452800D02*
X54161600Y-43750800D01*
X54161600Y-49234800D02*
X54161600Y-47532800D01*
X54121600Y-45452800D02*
X54121600Y-43726800D01*
X54121600Y-49258800D02*
X54121600Y-47532800D01*
X54081600Y-45452800D02*
X54081600Y-43702800D01*
X54081600Y-49282800D02*
X54081600Y-47532800D01*
X54041600Y-45452800D02*
X54041600Y-43680800D01*
X54041600Y-49304800D02*
X54041600Y-47532800D01*
X54001600Y-45452800D02*
X54001600Y-43658800D01*
X54001600Y-49326800D02*
X54001600Y-47532800D01*
X53961600Y-45452800D02*
X53961600Y-43636800D01*
X53961600Y-49348800D02*
X53961600Y-47532800D01*
X53921600Y-45452800D02*
X53921600Y-43616800D01*
X53921600Y-49368800D02*
X53921600Y-47532800D01*
X53881600Y-45452800D02*
X53881600Y-43596800D01*
X53881600Y-49388800D02*
X53881600Y-47532800D01*
X53841600Y-45452800D02*
X53841600Y-43576800D01*
X53841600Y-49408800D02*
X53841600Y-47532800D01*
X53801600Y-45452800D02*
X53801600Y-43558800D01*
X53801600Y-49426800D02*
X53801600Y-47532800D01*
X53761600Y-45452800D02*
X53761600Y-43540800D01*
X53761600Y-49444800D02*
X53761600Y-47532800D01*
X53721600Y-45452800D02*
X53721600Y-43522800D01*
X53721600Y-49462800D02*
X53721600Y-47532800D01*
X53681600Y-45452800D02*
X53681600Y-43506800D01*
X53681600Y-49478800D02*
X53681600Y-47532800D01*
X53641600Y-45452800D02*
X53641600Y-43490800D01*
X53641600Y-49494800D02*
X53641600Y-47532800D01*
X53601600Y-45452800D02*
X53601600Y-43474800D01*
X53601600Y-49510800D02*
X53601600Y-47532800D01*
X53561600Y-45452800D02*
X53561600Y-43459800D01*
X53561600Y-49525800D02*
X53561600Y-47532800D01*
X53521600Y-45452800D02*
X53521600Y-43445800D01*
X53521600Y-49539800D02*
X53521600Y-47532800D01*
X53481600Y-45452800D02*
X53481600Y-43431800D01*
X53481600Y-49553800D02*
X53481600Y-47532800D01*
X53441600Y-45452800D02*
X53441600Y-43418800D01*
X53441600Y-49566800D02*
X53441600Y-47532800D01*
X53401600Y-45452800D02*
X53401600Y-43406800D01*
X53401600Y-49578800D02*
X53401600Y-47532800D01*
X53361600Y-45452800D02*
X53361600Y-43394800D01*
X53361600Y-49590800D02*
X53361600Y-47532800D01*
X53321600Y-45452800D02*
X53321600Y-43382800D01*
X53321600Y-49602800D02*
X53321600Y-47532800D01*
X53281600Y-45452800D02*
X53281600Y-43371800D01*
X53281600Y-49613800D02*
X53281600Y-47532800D01*
X53241600Y-45452800D02*
X53241600Y-43361800D01*
X53241600Y-49623800D02*
X53241600Y-47532800D01*
X53201600Y-45452800D02*
X53201600Y-43351800D01*
X53201600Y-49633800D02*
X53201600Y-47532800D01*
X53161600Y-45452800D02*
X53161600Y-43342800D01*
X53161600Y-49642800D02*
X53161600Y-47532800D01*
X53120600Y-45452800D02*
X53120600Y-43333800D01*
X53120600Y-49651800D02*
X53120600Y-47532800D01*
X53080600Y-45452800D02*
X53080600Y-43325800D01*
X53080600Y-49659800D02*
X53080600Y-47532800D01*
X53040600Y-45452800D02*
X53040600Y-43317800D01*
X53040600Y-49667800D02*
X53040600Y-47532800D01*
X53000600Y-45452800D02*
X53000600Y-43310800D01*
X53000600Y-49674800D02*
X53000600Y-47532800D01*
X52960600Y-45452800D02*
X52960600Y-43303800D01*
X52960600Y-49681800D02*
X52960600Y-47532800D01*
X52920600Y-45452800D02*
X52920600Y-43297800D01*
X52920600Y-49687800D02*
X52920600Y-47532800D01*
X52880600Y-45452800D02*
X52880600Y-43291800D01*
X52880600Y-49693800D02*
X52880600Y-47532800D01*
X52840600Y-45452800D02*
X52840600Y-43286800D01*
X52840600Y-49698800D02*
X52840600Y-47532800D01*
X52800600Y-45452800D02*
X52800600Y-43281800D01*
X52800600Y-49703800D02*
X52800600Y-47532800D01*
X52760600Y-45452800D02*
X52760600Y-43277800D01*
X52760600Y-49707800D02*
X52760600Y-47532800D01*
X52720600Y-45452800D02*
X52720600Y-43274800D01*
X52720600Y-49710800D02*
X52720600Y-47532800D01*
X52680600Y-45452800D02*
X52680600Y-43270800D01*
X52680600Y-49714800D02*
X52680600Y-47532800D01*
X52640600Y-49716800D02*
X52640600Y-43268800D01*
X52600600Y-49719800D02*
X52600600Y-43265800D01*
X52560600Y-49720800D02*
X52560600Y-43264800D01*
X52520600Y-49722800D02*
X52520600Y-43262800D01*
X52480600Y-49722800D02*
X52480600Y-43262800D01*
X52440600Y-49722800D02*
X52440600Y-43262800D01*
X55710600Y-46492800D02*
G75*
G03X55710600Y-46492800I-3270000J0D01*
G01*
X77110100Y-46619800D02*
G75*
G03X77110100Y-46619800I-3270000J0D01*
G01*
X73840100Y-49849800D02*
X73840100Y-43389800D01*
X73880100Y-49849800D02*
X73880100Y-43389800D01*
X73920100Y-49849800D02*
X73920100Y-43389800D01*
X73960100Y-49847800D02*
X73960100Y-43391800D01*
X74000100Y-49846800D02*
X74000100Y-43392800D01*
X74040100Y-49843800D02*
X74040100Y-43395800D01*
X74080100Y-49841800D02*
X74080100Y-47659800D01*
X74080100Y-45579800D02*
X74080100Y-43397800D01*
X74120100Y-49837800D02*
X74120100Y-47659800D01*
X74120100Y-45579800D02*
X74120100Y-43401800D01*
X74160100Y-49834800D02*
X74160100Y-47659800D01*
X74160100Y-45579800D02*
X74160100Y-43404800D01*
X74200100Y-49830800D02*
X74200100Y-47659800D01*
X74200100Y-45579800D02*
X74200100Y-43408800D01*
X74240100Y-49825800D02*
X74240100Y-47659800D01*
X74240100Y-45579800D02*
X74240100Y-43413800D01*
X74280100Y-49820800D02*
X74280100Y-47659800D01*
X74280100Y-45579800D02*
X74280100Y-43418800D01*
X74320100Y-49814800D02*
X74320100Y-47659800D01*
X74320100Y-45579800D02*
X74320100Y-43424800D01*
X74360100Y-49808800D02*
X74360100Y-47659800D01*
X74360100Y-45579800D02*
X74360100Y-43430800D01*
X74400100Y-49801800D02*
X74400100Y-47659800D01*
X74400100Y-45579800D02*
X74400100Y-43437800D01*
X74440100Y-49794800D02*
X74440100Y-47659800D01*
X74440100Y-45579800D02*
X74440100Y-43444800D01*
X74480100Y-49786800D02*
X74480100Y-47659800D01*
X74480100Y-45579800D02*
X74480100Y-43452800D01*
X74520100Y-49778800D02*
X74520100Y-47659800D01*
X74520100Y-45579800D02*
X74520100Y-43460800D01*
X74561100Y-49769800D02*
X74561100Y-47659800D01*
X74561100Y-45579800D02*
X74561100Y-43469800D01*
X74601100Y-49760800D02*
X74601100Y-47659800D01*
X74601100Y-45579800D02*
X74601100Y-43478800D01*
X74641100Y-49750800D02*
X74641100Y-47659800D01*
X74641100Y-45579800D02*
X74641100Y-43488800D01*
X74681100Y-49740800D02*
X74681100Y-47659800D01*
X74681100Y-45579800D02*
X74681100Y-43498800D01*
X74721100Y-49729800D02*
X74721100Y-47659800D01*
X74721100Y-45579800D02*
X74721100Y-43509800D01*
X74761100Y-49717800D02*
X74761100Y-47659800D01*
X74761100Y-45579800D02*
X74761100Y-43521800D01*
X74801100Y-49705800D02*
X74801100Y-47659800D01*
X74801100Y-45579800D02*
X74801100Y-43533800D01*
X74841100Y-49693800D02*
X74841100Y-47659800D01*
X74841100Y-45579800D02*
X74841100Y-43545800D01*
X74881100Y-49680800D02*
X74881100Y-47659800D01*
X74881100Y-45579800D02*
X74881100Y-43558800D01*
X74921100Y-49666800D02*
X74921100Y-47659800D01*
X74921100Y-45579800D02*
X74921100Y-43572800D01*
X74961100Y-49652800D02*
X74961100Y-47659800D01*
X74961100Y-45579800D02*
X74961100Y-43586800D01*
X75001100Y-49637800D02*
X75001100Y-47659800D01*
X75001100Y-45579800D02*
X75001100Y-43601800D01*
X75041100Y-49621800D02*
X75041100Y-47659800D01*
X75041100Y-45579800D02*
X75041100Y-43617800D01*
X75081100Y-49605800D02*
X75081100Y-47659800D01*
X75081100Y-45579800D02*
X75081100Y-43633800D01*
X75121100Y-49589800D02*
X75121100Y-47659800D01*
X75121100Y-45579800D02*
X75121100Y-43649800D01*
X75161100Y-49571800D02*
X75161100Y-47659800D01*
X75161100Y-45579800D02*
X75161100Y-43667800D01*
X75201100Y-49553800D02*
X75201100Y-47659800D01*
X75201100Y-45579800D02*
X75201100Y-43685800D01*
X75241100Y-49535800D02*
X75241100Y-47659800D01*
X75241100Y-45579800D02*
X75241100Y-43703800D01*
X75281100Y-49515800D02*
X75281100Y-47659800D01*
X75281100Y-45579800D02*
X75281100Y-43723800D01*
X75321100Y-49495800D02*
X75321100Y-47659800D01*
X75321100Y-45579800D02*
X75321100Y-43743800D01*
X75361100Y-49475800D02*
X75361100Y-47659800D01*
X75361100Y-45579800D02*
X75361100Y-43763800D01*
X75401100Y-49453800D02*
X75401100Y-47659800D01*
X75401100Y-45579800D02*
X75401100Y-43785800D01*
X75441100Y-49431800D02*
X75441100Y-47659800D01*
X75441100Y-45579800D02*
X75441100Y-43807800D01*
X75481100Y-49409800D02*
X75481100Y-47659800D01*
X75481100Y-45579800D02*
X75481100Y-43829800D01*
X75521100Y-49385800D02*
X75521100Y-47659800D01*
X75521100Y-45579800D02*
X75521100Y-43853800D01*
X75561100Y-49361800D02*
X75561100Y-47659800D01*
X75561100Y-45579800D02*
X75561100Y-43877800D01*
X75601100Y-49335800D02*
X75601100Y-47659800D01*
X75601100Y-45579800D02*
X75601100Y-43903800D01*
X75641100Y-49309800D02*
X75641100Y-47659800D01*
X75641100Y-45579800D02*
X75641100Y-43929800D01*
X75681100Y-49283800D02*
X75681100Y-47659800D01*
X75681100Y-45579800D02*
X75681100Y-43955800D01*
X75721100Y-49255800D02*
X75721100Y-47659800D01*
X75721100Y-45579800D02*
X75721100Y-43983800D01*
X75761100Y-49226800D02*
X75761100Y-47659800D01*
X75761100Y-45579800D02*
X75761100Y-44012800D01*
X75801100Y-49197800D02*
X75801100Y-47659800D01*
X75801100Y-45579800D02*
X75801100Y-44041800D01*
X75841100Y-49167800D02*
X75841100Y-47659800D01*
X75841100Y-45579800D02*
X75841100Y-44071800D01*
X75881100Y-49135800D02*
X75881100Y-47659800D01*
X75881100Y-45579800D02*
X75881100Y-44103800D01*
X75921100Y-49103800D02*
X75921100Y-47659800D01*
X75921100Y-45579800D02*
X75921100Y-44135800D01*
X75961100Y-49069800D02*
X75961100Y-47659800D01*
X75961100Y-45579800D02*
X75961100Y-44169800D01*
X76001100Y-49035800D02*
X76001100Y-47659800D01*
X76001100Y-45579800D02*
X76001100Y-44203800D01*
X76041100Y-48999800D02*
X76041100Y-47659800D01*
X76041100Y-45579800D02*
X76041100Y-44239800D01*
X76081100Y-48962800D02*
X76081100Y-47659800D01*
X76081100Y-45579800D02*
X76081100Y-44276800D01*
X76121100Y-48924800D02*
X76121100Y-47659800D01*
X76121100Y-45579800D02*
X76121100Y-44314800D01*
X76161100Y-48884800D02*
X76161100Y-44354800D01*
X76201100Y-48843800D02*
X76201100Y-44395800D01*
X76241100Y-48801800D02*
X76241100Y-44437800D01*
X76281100Y-48756800D02*
X76281100Y-44482800D01*
X76321100Y-48711800D02*
X76321100Y-44527800D01*
X76361100Y-48663800D02*
X76361100Y-44575800D01*
X76401100Y-48614800D02*
X76401100Y-44624800D01*
X76441100Y-48563800D02*
X76441100Y-44675800D01*
X76481100Y-48509800D02*
X76481100Y-44729800D01*
X76521100Y-48453800D02*
X76521100Y-44785800D01*
X76561100Y-48395800D02*
X76561100Y-44843800D01*
X76601100Y-48333800D02*
X76601100Y-44905800D01*
X76641100Y-48269800D02*
X76641100Y-44969800D01*
X76681100Y-48200800D02*
X76681100Y-45038800D01*
X76721100Y-48128800D02*
X76721100Y-45110800D01*
X76761100Y-48051800D02*
X76761100Y-45187800D01*
X76801100Y-47969800D02*
X76801100Y-45269800D01*
X76841100Y-47881800D02*
X76841100Y-45357800D01*
X76881100Y-47784800D02*
X76881100Y-45454800D01*
X76921100Y-47678800D02*
X76921100Y-45560800D01*
X76961100Y-47559800D02*
X76961100Y-45679800D01*
X77001100Y-47421800D02*
X77001100Y-45817800D01*
X77041100Y-47252800D02*
X77041100Y-45986800D01*
X77081100Y-47021800D02*
X77081100Y-46217800D01*
X70339859Y-48458800D02*
X70969859Y-48458800D01*
X70654859Y-48773800D02*
X70654859Y-48143800D01*
X113542759Y-48799200D02*
X113542759Y-48169200D01*
X113227759Y-48484200D02*
X113857759Y-48484200D01*
X119969000Y-47047200D02*
X119969000Y-46243200D01*
X119929000Y-47278200D02*
X119929000Y-46012200D01*
X119889000Y-47447200D02*
X119889000Y-45843200D01*
X119849000Y-47585200D02*
X119849000Y-45705200D01*
X119809000Y-47704200D02*
X119809000Y-45586200D01*
X119769000Y-47810200D02*
X119769000Y-45480200D01*
X119729000Y-47907200D02*
X119729000Y-45383200D01*
X119689000Y-47995200D02*
X119689000Y-45295200D01*
X119649000Y-48077200D02*
X119649000Y-45213200D01*
X119609000Y-48154200D02*
X119609000Y-45136200D01*
X119569000Y-48226200D02*
X119569000Y-45064200D01*
X119529000Y-48295200D02*
X119529000Y-44995200D01*
X119489000Y-48359200D02*
X119489000Y-44931200D01*
X119449000Y-48421200D02*
X119449000Y-44869200D01*
X119409000Y-48479200D02*
X119409000Y-44811200D01*
X119369000Y-48535200D02*
X119369000Y-44755200D01*
X119329000Y-48589200D02*
X119329000Y-44701200D01*
X119289000Y-48640200D02*
X119289000Y-44650200D01*
X119249000Y-48689200D02*
X119249000Y-44601200D01*
X119209000Y-48737200D02*
X119209000Y-44553200D01*
X119169000Y-48782200D02*
X119169000Y-44508200D01*
X119129000Y-48827200D02*
X119129000Y-44463200D01*
X119089000Y-48869200D02*
X119089000Y-44421200D01*
X119049000Y-48910200D02*
X119049000Y-44380200D01*
X119009000Y-45605200D02*
X119009000Y-44340200D01*
X119009000Y-48950200D02*
X119009000Y-47685200D01*
X118969000Y-45605200D02*
X118969000Y-44302200D01*
X118969000Y-48988200D02*
X118969000Y-47685200D01*
X118929000Y-45605200D02*
X118929000Y-44265200D01*
X118929000Y-49025200D02*
X118929000Y-47685200D01*
X118889000Y-45605200D02*
X118889000Y-44229200D01*
X118889000Y-49061200D02*
X118889000Y-47685200D01*
X118849000Y-45605200D02*
X118849000Y-44195200D01*
X118849000Y-49095200D02*
X118849000Y-47685200D01*
X118809000Y-45605200D02*
X118809000Y-44161200D01*
X118809000Y-49129200D02*
X118809000Y-47685200D01*
X118769000Y-45605200D02*
X118769000Y-44129200D01*
X118769000Y-49161200D02*
X118769000Y-47685200D01*
X118729000Y-45605200D02*
X118729000Y-44097200D01*
X118729000Y-49193200D02*
X118729000Y-47685200D01*
X118689000Y-45605200D02*
X118689000Y-44067200D01*
X118689000Y-49223200D02*
X118689000Y-47685200D01*
X118649000Y-45605200D02*
X118649000Y-44038200D01*
X118649000Y-49252200D02*
X118649000Y-47685200D01*
X118609000Y-45605200D02*
X118609000Y-44009200D01*
X118609000Y-49281200D02*
X118609000Y-47685200D01*
X118569000Y-45605200D02*
X118569000Y-43981200D01*
X118569000Y-49309200D02*
X118569000Y-47685200D01*
X118529000Y-45605200D02*
X118529000Y-43955200D01*
X118529000Y-49335200D02*
X118529000Y-47685200D01*
X118489000Y-45605200D02*
X118489000Y-43929200D01*
X118489000Y-49361200D02*
X118489000Y-47685200D01*
X118449000Y-45605200D02*
X118449000Y-43903200D01*
X118449000Y-49387200D02*
X118449000Y-47685200D01*
X118409000Y-45605200D02*
X118409000Y-43879200D01*
X118409000Y-49411200D02*
X118409000Y-47685200D01*
X118369000Y-45605200D02*
X118369000Y-43855200D01*
X118369000Y-49435200D02*
X118369000Y-47685200D01*
X118329000Y-45605200D02*
X118329000Y-43833200D01*
X118329000Y-49457200D02*
X118329000Y-47685200D01*
X118289000Y-45605200D02*
X118289000Y-43811200D01*
X118289000Y-49479200D02*
X118289000Y-47685200D01*
X118249000Y-45605200D02*
X118249000Y-43789200D01*
X118249000Y-49501200D02*
X118249000Y-47685200D01*
X118209000Y-45605200D02*
X118209000Y-43769200D01*
X118209000Y-49521200D02*
X118209000Y-47685200D01*
X118169000Y-45605200D02*
X118169000Y-43749200D01*
X118169000Y-49541200D02*
X118169000Y-47685200D01*
X118129000Y-45605200D02*
X118129000Y-43729200D01*
X118129000Y-49561200D02*
X118129000Y-47685200D01*
X118089000Y-45605200D02*
X118089000Y-43711200D01*
X118089000Y-49579200D02*
X118089000Y-47685200D01*
X118049000Y-45605200D02*
X118049000Y-43693200D01*
X118049000Y-49597200D02*
X118049000Y-47685200D01*
X118009000Y-45605200D02*
X118009000Y-43675200D01*
X118009000Y-49615200D02*
X118009000Y-47685200D01*
X117969000Y-45605200D02*
X117969000Y-43659200D01*
X117969000Y-49631200D02*
X117969000Y-47685200D01*
X117929000Y-45605200D02*
X117929000Y-43643200D01*
X117929000Y-49647200D02*
X117929000Y-47685200D01*
X117889000Y-45605200D02*
X117889000Y-43627200D01*
X117889000Y-49663200D02*
X117889000Y-47685200D01*
X117849000Y-45605200D02*
X117849000Y-43612200D01*
X117849000Y-49678200D02*
X117849000Y-47685200D01*
X117809000Y-45605200D02*
X117809000Y-43598200D01*
X117809000Y-49692200D02*
X117809000Y-47685200D01*
X117769000Y-45605200D02*
X117769000Y-43584200D01*
X117769000Y-49706200D02*
X117769000Y-47685200D01*
X117729000Y-45605200D02*
X117729000Y-43571200D01*
X117729000Y-49719200D02*
X117729000Y-47685200D01*
X117689000Y-45605200D02*
X117689000Y-43559200D01*
X117689000Y-49731200D02*
X117689000Y-47685200D01*
X117649000Y-45605200D02*
X117649000Y-43547200D01*
X117649000Y-49743200D02*
X117649000Y-47685200D01*
X117609000Y-45605200D02*
X117609000Y-43535200D01*
X117609000Y-49755200D02*
X117609000Y-47685200D01*
X117569000Y-45605200D02*
X117569000Y-43524200D01*
X117569000Y-49766200D02*
X117569000Y-47685200D01*
X117529000Y-45605200D02*
X117529000Y-43514200D01*
X117529000Y-49776200D02*
X117529000Y-47685200D01*
X117489000Y-45605200D02*
X117489000Y-43504200D01*
X117489000Y-49786200D02*
X117489000Y-47685200D01*
X117449000Y-45605200D02*
X117449000Y-43495200D01*
X117449000Y-49795200D02*
X117449000Y-47685200D01*
X117408000Y-45605200D02*
X117408000Y-43486200D01*
X117408000Y-49804200D02*
X117408000Y-47685200D01*
X117368000Y-45605200D02*
X117368000Y-43478200D01*
X117368000Y-49812200D02*
X117368000Y-47685200D01*
X117328000Y-45605200D02*
X117328000Y-43470200D01*
X117328000Y-49820200D02*
X117328000Y-47685200D01*
X117288000Y-45605200D02*
X117288000Y-43463200D01*
X117288000Y-49827200D02*
X117288000Y-47685200D01*
X117248000Y-45605200D02*
X117248000Y-43456200D01*
X117248000Y-49834200D02*
X117248000Y-47685200D01*
X117208000Y-45605200D02*
X117208000Y-43450200D01*
X117208000Y-49840200D02*
X117208000Y-47685200D01*
X117168000Y-45605200D02*
X117168000Y-43444200D01*
X117168000Y-49846200D02*
X117168000Y-47685200D01*
X117128000Y-45605200D02*
X117128000Y-43439200D01*
X117128000Y-49851200D02*
X117128000Y-47685200D01*
X117088000Y-45605200D02*
X117088000Y-43434200D01*
X117088000Y-49856200D02*
X117088000Y-47685200D01*
X117048000Y-45605200D02*
X117048000Y-43430200D01*
X117048000Y-49860200D02*
X117048000Y-47685200D01*
X117008000Y-45605200D02*
X117008000Y-43427200D01*
X117008000Y-49863200D02*
X117008000Y-47685200D01*
X116968000Y-45605200D02*
X116968000Y-43423200D01*
X116968000Y-49867200D02*
X116968000Y-47685200D01*
X116928000Y-49869200D02*
X116928000Y-43421200D01*
X116888000Y-49872200D02*
X116888000Y-43418200D01*
X116848000Y-49873200D02*
X116848000Y-43417200D01*
X116808000Y-49875200D02*
X116808000Y-43415200D01*
X116768000Y-49875200D02*
X116768000Y-43415200D01*
X116728000Y-49875200D02*
X116728000Y-43415200D01*
X119998000Y-46645200D02*
G75*
G03X119998000Y-46645200I-3270000J0D01*
G01*
X92054359Y-48773800D02*
X92054359Y-48143800D01*
X91739359Y-48458800D02*
X92369359Y-48458800D01*
X98480600Y-47021800D02*
X98480600Y-46217800D01*
X98440600Y-47252800D02*
X98440600Y-45986800D01*
X98400600Y-47421800D02*
X98400600Y-45817800D01*
X98360600Y-47559800D02*
X98360600Y-45679800D01*
X98320600Y-47678800D02*
X98320600Y-45560800D01*
X98280600Y-47784800D02*
X98280600Y-45454800D01*
X98240600Y-47881800D02*
X98240600Y-45357800D01*
X98200600Y-47969800D02*
X98200600Y-45269800D01*
X98160600Y-48051800D02*
X98160600Y-45187800D01*
X98120600Y-48128800D02*
X98120600Y-45110800D01*
X98080600Y-48200800D02*
X98080600Y-45038800D01*
X98040600Y-48269800D02*
X98040600Y-44969800D01*
X98000600Y-48333800D02*
X98000600Y-44905800D01*
X97960600Y-48395800D02*
X97960600Y-44843800D01*
X97920600Y-48453800D02*
X97920600Y-44785800D01*
X97880600Y-48509800D02*
X97880600Y-44729800D01*
X97840600Y-48563800D02*
X97840600Y-44675800D01*
X97800600Y-48614800D02*
X97800600Y-44624800D01*
X97760600Y-48663800D02*
X97760600Y-44575800D01*
X97720600Y-48711800D02*
X97720600Y-44527800D01*
X97680600Y-48756800D02*
X97680600Y-44482800D01*
X97640600Y-48801800D02*
X97640600Y-44437800D01*
X97600600Y-48843800D02*
X97600600Y-44395800D01*
X97560600Y-48884800D02*
X97560600Y-44354800D01*
X97520600Y-45579800D02*
X97520600Y-44314800D01*
X97520600Y-48924800D02*
X97520600Y-47659800D01*
X97480600Y-45579800D02*
X97480600Y-44276800D01*
X97480600Y-48962800D02*
X97480600Y-47659800D01*
X97440600Y-45579800D02*
X97440600Y-44239800D01*
X97440600Y-48999800D02*
X97440600Y-47659800D01*
X97400600Y-45579800D02*
X97400600Y-44203800D01*
X97400600Y-49035800D02*
X97400600Y-47659800D01*
X97360600Y-45579800D02*
X97360600Y-44169800D01*
X97360600Y-49069800D02*
X97360600Y-47659800D01*
X97320600Y-45579800D02*
X97320600Y-44135800D01*
X97320600Y-49103800D02*
X97320600Y-47659800D01*
X97280600Y-45579800D02*
X97280600Y-44103800D01*
X97280600Y-49135800D02*
X97280600Y-47659800D01*
X97240600Y-45579800D02*
X97240600Y-44071800D01*
X97240600Y-49167800D02*
X97240600Y-47659800D01*
X97200600Y-45579800D02*
X97200600Y-44041800D01*
X97200600Y-49197800D02*
X97200600Y-47659800D01*
X97160600Y-45579800D02*
X97160600Y-44012800D01*
X97160600Y-49226800D02*
X97160600Y-47659800D01*
X97120600Y-45579800D02*
X97120600Y-43983800D01*
X97120600Y-49255800D02*
X97120600Y-47659800D01*
X97080600Y-45579800D02*
X97080600Y-43955800D01*
X97080600Y-49283800D02*
X97080600Y-47659800D01*
X97040600Y-45579800D02*
X97040600Y-43929800D01*
X97040600Y-49309800D02*
X97040600Y-47659800D01*
X97000600Y-45579800D02*
X97000600Y-43903800D01*
X97000600Y-49335800D02*
X97000600Y-47659800D01*
X96960600Y-45579800D02*
X96960600Y-43877800D01*
X96960600Y-49361800D02*
X96960600Y-47659800D01*
X96920600Y-45579800D02*
X96920600Y-43853800D01*
X96920600Y-49385800D02*
X96920600Y-47659800D01*
X96880600Y-45579800D02*
X96880600Y-43829800D01*
X96880600Y-49409800D02*
X96880600Y-47659800D01*
X96840600Y-45579800D02*
X96840600Y-43807800D01*
X96840600Y-49431800D02*
X96840600Y-47659800D01*
X96800600Y-45579800D02*
X96800600Y-43785800D01*
X96800600Y-49453800D02*
X96800600Y-47659800D01*
X96760600Y-45579800D02*
X96760600Y-43763800D01*
X96760600Y-49475800D02*
X96760600Y-47659800D01*
X96720600Y-45579800D02*
X96720600Y-43743800D01*
X96720600Y-49495800D02*
X96720600Y-47659800D01*
X96680600Y-45579800D02*
X96680600Y-43723800D01*
X96680600Y-49515800D02*
X96680600Y-47659800D01*
X96640600Y-45579800D02*
X96640600Y-43703800D01*
X96640600Y-49535800D02*
X96640600Y-47659800D01*
X96600600Y-45579800D02*
X96600600Y-43685800D01*
X96600600Y-49553800D02*
X96600600Y-47659800D01*
X96560600Y-45579800D02*
X96560600Y-43667800D01*
X96560600Y-49571800D02*
X96560600Y-47659800D01*
X96520600Y-45579800D02*
X96520600Y-43649800D01*
X96520600Y-49589800D02*
X96520600Y-47659800D01*
X96480600Y-45579800D02*
X96480600Y-43633800D01*
X96480600Y-49605800D02*
X96480600Y-47659800D01*
X96440600Y-45579800D02*
X96440600Y-43617800D01*
X96440600Y-49621800D02*
X96440600Y-47659800D01*
X96400600Y-45579800D02*
X96400600Y-43601800D01*
X96400600Y-49637800D02*
X96400600Y-47659800D01*
X96360600Y-45579800D02*
X96360600Y-43586800D01*
X96360600Y-49652800D02*
X96360600Y-47659800D01*
X96320600Y-45579800D02*
X96320600Y-43572800D01*
X96320600Y-49666800D02*
X96320600Y-47659800D01*
X96280600Y-45579800D02*
X96280600Y-43558800D01*
X96280600Y-49680800D02*
X96280600Y-47659800D01*
X96240600Y-45579800D02*
X96240600Y-43545800D01*
X96240600Y-49693800D02*
X96240600Y-47659800D01*
X96200600Y-45579800D02*
X96200600Y-43533800D01*
X96200600Y-49705800D02*
X96200600Y-47659800D01*
X96160600Y-45579800D02*
X96160600Y-43521800D01*
X96160600Y-49717800D02*
X96160600Y-47659800D01*
X96120600Y-45579800D02*
X96120600Y-43509800D01*
X96120600Y-49729800D02*
X96120600Y-47659800D01*
X96080600Y-45579800D02*
X96080600Y-43498800D01*
X96080600Y-49740800D02*
X96080600Y-47659800D01*
X96040600Y-45579800D02*
X96040600Y-43488800D01*
X96040600Y-49750800D02*
X96040600Y-47659800D01*
X96000600Y-45579800D02*
X96000600Y-43478800D01*
X96000600Y-49760800D02*
X96000600Y-47659800D01*
X95960600Y-45579800D02*
X95960600Y-43469800D01*
X95960600Y-49769800D02*
X95960600Y-47659800D01*
X95919600Y-45579800D02*
X95919600Y-43460800D01*
X95919600Y-49778800D02*
X95919600Y-47659800D01*
X95879600Y-45579800D02*
X95879600Y-43452800D01*
X95879600Y-49786800D02*
X95879600Y-47659800D01*
X95839600Y-45579800D02*
X95839600Y-43444800D01*
X95839600Y-49794800D02*
X95839600Y-47659800D01*
X95799600Y-45579800D02*
X95799600Y-43437800D01*
X95799600Y-49801800D02*
X95799600Y-47659800D01*
X95759600Y-45579800D02*
X95759600Y-43430800D01*
X95759600Y-49808800D02*
X95759600Y-47659800D01*
X95719600Y-45579800D02*
X95719600Y-43424800D01*
X95719600Y-49814800D02*
X95719600Y-47659800D01*
X95679600Y-45579800D02*
X95679600Y-43418800D01*
X95679600Y-49820800D02*
X95679600Y-47659800D01*
X95639600Y-45579800D02*
X95639600Y-43413800D01*
X95639600Y-49825800D02*
X95639600Y-47659800D01*
X95599600Y-45579800D02*
X95599600Y-43408800D01*
X95599600Y-49830800D02*
X95599600Y-47659800D01*
X95559600Y-45579800D02*
X95559600Y-43404800D01*
X95559600Y-49834800D02*
X95559600Y-47659800D01*
X95519600Y-45579800D02*
X95519600Y-43401800D01*
X95519600Y-49837800D02*
X95519600Y-47659800D01*
X95479600Y-45579800D02*
X95479600Y-43397800D01*
X95479600Y-49841800D02*
X95479600Y-47659800D01*
X95439600Y-49843800D02*
X95439600Y-43395800D01*
X95399600Y-49846800D02*
X95399600Y-43392800D01*
X95359600Y-49847800D02*
X95359600Y-43391800D01*
X95319600Y-49849800D02*
X95319600Y-43389800D01*
X95279600Y-49849800D02*
X95279600Y-43389800D01*
X95239600Y-49849800D02*
X95239600Y-43389800D01*
X98509600Y-46619800D02*
G75*
G03X98509600Y-46619800I-3270000J0D01*
G01*
X120175800Y-22019900D02*
G75*
G03X120175800Y-22019900I-3270000J0D01*
G01*
X116905800Y-25249900D02*
X116905800Y-18789900D01*
X116945800Y-25249900D02*
X116945800Y-18789900D01*
X116985800Y-25249900D02*
X116985800Y-18789900D01*
X117025800Y-25247900D02*
X117025800Y-18791900D01*
X117065800Y-25246900D02*
X117065800Y-18792900D01*
X117105800Y-25243900D02*
X117105800Y-18795900D01*
X117145800Y-25241900D02*
X117145800Y-23059900D01*
X117145800Y-20979900D02*
X117145800Y-18797900D01*
X117185800Y-25237900D02*
X117185800Y-23059900D01*
X117185800Y-20979900D02*
X117185800Y-18801900D01*
X117225800Y-25234900D02*
X117225800Y-23059900D01*
X117225800Y-20979900D02*
X117225800Y-18804900D01*
X117265800Y-25230900D02*
X117265800Y-23059900D01*
X117265800Y-20979900D02*
X117265800Y-18808900D01*
X117305800Y-25225900D02*
X117305800Y-23059900D01*
X117305800Y-20979900D02*
X117305800Y-18813900D01*
X117345800Y-25220900D02*
X117345800Y-23059900D01*
X117345800Y-20979900D02*
X117345800Y-18818900D01*
X117385800Y-25214900D02*
X117385800Y-23059900D01*
X117385800Y-20979900D02*
X117385800Y-18824900D01*
X117425800Y-25208900D02*
X117425800Y-23059900D01*
X117425800Y-20979900D02*
X117425800Y-18830900D01*
X117465800Y-25201900D02*
X117465800Y-23059900D01*
X117465800Y-20979900D02*
X117465800Y-18837900D01*
X117505800Y-25194900D02*
X117505800Y-23059900D01*
X117505800Y-20979900D02*
X117505800Y-18844900D01*
X117545800Y-25186900D02*
X117545800Y-23059900D01*
X117545800Y-20979900D02*
X117545800Y-18852900D01*
X117585800Y-25178900D02*
X117585800Y-23059900D01*
X117585800Y-20979900D02*
X117585800Y-18860900D01*
X117626800Y-25169900D02*
X117626800Y-23059900D01*
X117626800Y-20979900D02*
X117626800Y-18869900D01*
X117666800Y-25160900D02*
X117666800Y-23059900D01*
X117666800Y-20979900D02*
X117666800Y-18878900D01*
X117706800Y-25150900D02*
X117706800Y-23059900D01*
X117706800Y-20979900D02*
X117706800Y-18888900D01*
X117746800Y-25140900D02*
X117746800Y-23059900D01*
X117746800Y-20979900D02*
X117746800Y-18898900D01*
X117786800Y-25129900D02*
X117786800Y-23059900D01*
X117786800Y-20979900D02*
X117786800Y-18909900D01*
X117826800Y-25117900D02*
X117826800Y-23059900D01*
X117826800Y-20979900D02*
X117826800Y-18921900D01*
X117866800Y-25105900D02*
X117866800Y-23059900D01*
X117866800Y-20979900D02*
X117866800Y-18933900D01*
X117906800Y-25093900D02*
X117906800Y-23059900D01*
X117906800Y-20979900D02*
X117906800Y-18945900D01*
X117946800Y-25080900D02*
X117946800Y-23059900D01*
X117946800Y-20979900D02*
X117946800Y-18958900D01*
X117986800Y-25066900D02*
X117986800Y-23059900D01*
X117986800Y-20979900D02*
X117986800Y-18972900D01*
X118026800Y-25052900D02*
X118026800Y-23059900D01*
X118026800Y-20979900D02*
X118026800Y-18986900D01*
X118066800Y-25037900D02*
X118066800Y-23059900D01*
X118066800Y-20979900D02*
X118066800Y-19001900D01*
X118106800Y-25021900D02*
X118106800Y-23059900D01*
X118106800Y-20979900D02*
X118106800Y-19017900D01*
X118146800Y-25005900D02*
X118146800Y-23059900D01*
X118146800Y-20979900D02*
X118146800Y-19033900D01*
X118186800Y-24989900D02*
X118186800Y-23059900D01*
X118186800Y-20979900D02*
X118186800Y-19049900D01*
X118226800Y-24971900D02*
X118226800Y-23059900D01*
X118226800Y-20979900D02*
X118226800Y-19067900D01*
X118266800Y-24953900D02*
X118266800Y-23059900D01*
X118266800Y-20979900D02*
X118266800Y-19085900D01*
X118306800Y-24935900D02*
X118306800Y-23059900D01*
X118306800Y-20979900D02*
X118306800Y-19103900D01*
X118346800Y-24915900D02*
X118346800Y-23059900D01*
X118346800Y-20979900D02*
X118346800Y-19123900D01*
X118386800Y-24895900D02*
X118386800Y-23059900D01*
X118386800Y-20979900D02*
X118386800Y-19143900D01*
X118426800Y-24875900D02*
X118426800Y-23059900D01*
X118426800Y-20979900D02*
X118426800Y-19163900D01*
X118466800Y-24853900D02*
X118466800Y-23059900D01*
X118466800Y-20979900D02*
X118466800Y-19185900D01*
X118506800Y-24831900D02*
X118506800Y-23059900D01*
X118506800Y-20979900D02*
X118506800Y-19207900D01*
X118546800Y-24809900D02*
X118546800Y-23059900D01*
X118546800Y-20979900D02*
X118546800Y-19229900D01*
X118586800Y-24785900D02*
X118586800Y-23059900D01*
X118586800Y-20979900D02*
X118586800Y-19253900D01*
X118626800Y-24761900D02*
X118626800Y-23059900D01*
X118626800Y-20979900D02*
X118626800Y-19277900D01*
X118666800Y-24735900D02*
X118666800Y-23059900D01*
X118666800Y-20979900D02*
X118666800Y-19303900D01*
X118706800Y-24709900D02*
X118706800Y-23059900D01*
X118706800Y-20979900D02*
X118706800Y-19329900D01*
X118746800Y-24683900D02*
X118746800Y-23059900D01*
X118746800Y-20979900D02*
X118746800Y-19355900D01*
X118786800Y-24655900D02*
X118786800Y-23059900D01*
X118786800Y-20979900D02*
X118786800Y-19383900D01*
X118826800Y-24626900D02*
X118826800Y-23059900D01*
X118826800Y-20979900D02*
X118826800Y-19412900D01*
X118866800Y-24597900D02*
X118866800Y-23059900D01*
X118866800Y-20979900D02*
X118866800Y-19441900D01*
X118906800Y-24567900D02*
X118906800Y-23059900D01*
X118906800Y-20979900D02*
X118906800Y-19471900D01*
X118946800Y-24535900D02*
X118946800Y-23059900D01*
X118946800Y-20979900D02*
X118946800Y-19503900D01*
X118986800Y-24503900D02*
X118986800Y-23059900D01*
X118986800Y-20979900D02*
X118986800Y-19535900D01*
X119026800Y-24469900D02*
X119026800Y-23059900D01*
X119026800Y-20979900D02*
X119026800Y-19569900D01*
X119066800Y-24435900D02*
X119066800Y-23059900D01*
X119066800Y-20979900D02*
X119066800Y-19603900D01*
X119106800Y-24399900D02*
X119106800Y-23059900D01*
X119106800Y-20979900D02*
X119106800Y-19639900D01*
X119146800Y-24362900D02*
X119146800Y-23059900D01*
X119146800Y-20979900D02*
X119146800Y-19676900D01*
X119186800Y-24324900D02*
X119186800Y-23059900D01*
X119186800Y-20979900D02*
X119186800Y-19714900D01*
X119226800Y-24284900D02*
X119226800Y-19754900D01*
X119266800Y-24243900D02*
X119266800Y-19795900D01*
X119306800Y-24201900D02*
X119306800Y-19837900D01*
X119346800Y-24156900D02*
X119346800Y-19882900D01*
X119386800Y-24111900D02*
X119386800Y-19927900D01*
X119426800Y-24063900D02*
X119426800Y-19975900D01*
X119466800Y-24014900D02*
X119466800Y-20024900D01*
X119506800Y-23963900D02*
X119506800Y-20075900D01*
X119546800Y-23909900D02*
X119546800Y-20129900D01*
X119586800Y-23853900D02*
X119586800Y-20185900D01*
X119626800Y-23795900D02*
X119626800Y-20243900D01*
X119666800Y-23733900D02*
X119666800Y-20305900D01*
X119706800Y-23669900D02*
X119706800Y-20369900D01*
X119746800Y-23600900D02*
X119746800Y-20438900D01*
X119786800Y-23528900D02*
X119786800Y-20510900D01*
X119826800Y-23451900D02*
X119826800Y-20587900D01*
X119866800Y-23369900D02*
X119866800Y-20669900D01*
X119906800Y-23281900D02*
X119906800Y-20757900D01*
X119946800Y-23184900D02*
X119946800Y-20854900D01*
X119986800Y-23078900D02*
X119986800Y-20960900D01*
X120026800Y-22959900D02*
X120026800Y-21079900D01*
X120066800Y-22821900D02*
X120066800Y-21217900D01*
X120106800Y-22652900D02*
X120106800Y-21386900D01*
X120146800Y-22421900D02*
X120146800Y-21617900D01*
X113405559Y-23858900D02*
X114035559Y-23858900D01*
X113720559Y-24173900D02*
X113720559Y-23543900D01*
X23098700Y-3293200D02*
X23098700Y-3043200D01*
X23098700Y-6243200D02*
X23098700Y-4792200D01*
X15798700Y-4493200D02*
X15798700Y-3043200D01*
X15798700Y-6243200D02*
X15798700Y-5993200D01*
X22877700Y-3043200D02*
X23098700Y-3043200D01*
X15798700Y-3043200D02*
X21120700Y-3043200D01*
X17777700Y-6243200D02*
X23098700Y-6243200D01*
X15798700Y-6243200D02*
X16019700Y-6243200D01*
X19791000Y-7136640D02*
X16591000Y-7136640D01*
X19791000Y-17737640D02*
X16591000Y-17737640D01*
X16591000Y-9007640D02*
X16591000Y-7136640D01*
X16591000Y-17737640D02*
X16591000Y-10764640D01*
X19791000Y-14107640D02*
X19791000Y-7136640D01*
X19791000Y-17737640D02*
X19791000Y-15865640D01*
X14600000Y-18235300D02*
X4440000Y-18235300D01*
X14600000Y-10615300D02*
X14600000Y-18235300D01*
X4440000Y-10615300D02*
X14600000Y-10615300D01*
X4440000Y-18235300D02*
X4440000Y-10615300D01*
X4440000Y-16965300D02*
X14600000Y-16965300D01*
X97718000Y-1614500D02*
X96388000Y-1614500D01*
X97718000Y-2944500D02*
X97718000Y-1614500D01*
X97718000Y-4214500D02*
X95058000Y-4214500D01*
X95058000Y-4214500D02*
X95058000Y-9354500D01*
X97718000Y-4214500D02*
X97718000Y-9354500D01*
X97718000Y-9354500D02*
X95058000Y-9354500D01*
X64101100Y-6839900D02*
X61441100Y-6839900D01*
X64101100Y-4239900D02*
X64101100Y-6839900D01*
X61441100Y-4239900D02*
X61441100Y-6839900D01*
X64101100Y-4239900D02*
X61441100Y-4239900D01*
X64101100Y-2969900D02*
X64101100Y-1639900D01*
X64101100Y-1639900D02*
X62771100Y-1639900D01*
X68203200Y-6839900D02*
X65543200Y-6839900D01*
X68203200Y-4239900D02*
X68203200Y-6839900D01*
X65543200Y-4239900D02*
X65543200Y-6839900D01*
X68203200Y-4239900D02*
X65543200Y-4239900D01*
X68203200Y-2969900D02*
X68203200Y-1639900D01*
X68203200Y-1639900D02*
X66873200Y-1639900D01*
X14587300Y-49324900D02*
X4427300Y-49324900D01*
X14587300Y-41704900D02*
X14587300Y-49324900D01*
X4427300Y-41704900D02*
X14587300Y-41704900D01*
X4427300Y-49324900D02*
X4427300Y-41704900D01*
X4427300Y-48054900D02*
X14587300Y-48054900D01*
X101165100Y-12610500D02*
X101165100Y-9950500D01*
X108845100Y-12610500D02*
X101165100Y-12610500D01*
X108845100Y-9950500D02*
X101165100Y-9950500D01*
X108845100Y-12610500D02*
X108845100Y-9950500D01*
X110115100Y-12610500D02*
X111445100Y-12610500D01*
X111445100Y-12610500D02*
X111445100Y-11280500D01*
X14612700Y-9472300D02*
X4452700Y-9472300D01*
X14612700Y-1852300D02*
X14612700Y-9472300D01*
X4452700Y-1852300D02*
X14612700Y-1852300D01*
X4452700Y-9472300D02*
X4452700Y-1852300D01*
X4452700Y-8202300D02*
X14612700Y-8202300D01*
X57948600Y-47822800D02*
X57948600Y-45162800D01*
X65628600Y-47822800D02*
X57948600Y-47822800D01*
X65628600Y-45162800D02*
X57948600Y-45162800D01*
X65628600Y-47822800D02*
X65628600Y-45162800D01*
X66898600Y-47822800D02*
X68228600Y-47822800D01*
X68228600Y-47822800D02*
X68228600Y-46492800D01*
X101177800Y-5028600D02*
X101177800Y-2368600D01*
X108857800Y-5028600D02*
X101177800Y-5028600D01*
X108857800Y-2368600D02*
X101177800Y-2368600D01*
X108857800Y-5028600D02*
X108857800Y-2368600D01*
X110127800Y-5028600D02*
X111457800Y-5028600D01*
X111457800Y-5028600D02*
X111457800Y-3698600D01*
X101177800Y-8825900D02*
X101177800Y-6165900D01*
X108857800Y-8825900D02*
X101177800Y-8825900D01*
X108857800Y-6165900D02*
X101177800Y-6165900D01*
X108857800Y-8825900D02*
X108857800Y-6165900D01*
X110127800Y-8825900D02*
X111457800Y-8825900D01*
X111457800Y-8825900D02*
X111457800Y-7495900D01*
X60024400Y-1614500D02*
X58694400Y-1614500D01*
X60024400Y-2944500D02*
X60024400Y-1614500D01*
X60024400Y-4214500D02*
X57364400Y-4214500D01*
X57364400Y-4214500D02*
X57364400Y-6814500D01*
X60024400Y-4214500D02*
X60024400Y-6814500D01*
X60024400Y-6814500D02*
X57364400Y-6814500D01*
X69772300Y-22823500D02*
X69772300Y-24153500D01*
X71102300Y-22823500D02*
X69772300Y-22823500D01*
X72372300Y-22823500D02*
X72372300Y-25483500D01*
X72372300Y-25483500D02*
X80052300Y-25483500D01*
X72372300Y-22823500D02*
X80052300Y-22823500D01*
X80052300Y-22823500D02*
X80052300Y-25483500D01*
X25737900Y-49324900D02*
X15577900Y-49324900D01*
X25737900Y-41704900D02*
X25737900Y-49324900D01*
X15577900Y-41704900D02*
X25737900Y-41704900D01*
X15577900Y-49324900D02*
X15577900Y-41704900D01*
X15577900Y-48054900D02*
X25737900Y-48054900D01*
X66315360Y-9470000D02*
X66315360Y-10800000D01*
X67645360Y-9470000D02*
X66315360Y-9470000D01*
X68915360Y-9470000D02*
X68915360Y-12130000D01*
X68915360Y-12130000D02*
X74055360Y-12130000D01*
X68915360Y-9470000D02*
X74055360Y-9470000D01*
X74055360Y-9470000D02*
X74055360Y-12130000D01*
X36799600Y-49324900D02*
X26639600Y-49324900D01*
X36799600Y-41704900D02*
X36799600Y-49324900D01*
X26639600Y-41704900D02*
X36799600Y-41704900D01*
X26639600Y-49324900D02*
X26639600Y-41704900D01*
X26639600Y-48054900D02*
X36799600Y-48054900D01*
X89628100Y-47949800D02*
X89628100Y-46619800D01*
X88298100Y-47949800D02*
X89628100Y-47949800D01*
X87028100Y-47949800D02*
X87028100Y-45289800D01*
X87028100Y-45289800D02*
X79348100Y-45289800D01*
X87028100Y-47949800D02*
X79348100Y-47949800D01*
X79348100Y-47949800D02*
X79348100Y-45289800D01*
X132516000Y-47975200D02*
X132516000Y-46645200D01*
X131186000Y-47975200D02*
X132516000Y-47975200D01*
X129916000Y-47975200D02*
X129916000Y-45315200D01*
X129916000Y-45315200D02*
X122236000Y-45315200D01*
X129916000Y-47975200D02*
X122236000Y-47975200D01*
X122236000Y-47975200D02*
X122236000Y-45315200D01*
X64093480Y-21744000D02*
X64093480Y-24404000D01*
X58953480Y-21744000D02*
X64093480Y-21744000D01*
X58953480Y-24404000D02*
X64093480Y-24404000D01*
X58953480Y-21744000D02*
X58953480Y-24404000D01*
X57683480Y-21744000D02*
X56353480Y-21744000D01*
X56353480Y-21744000D02*
X56353480Y-23074000D01*
X47290000Y-1570000D02*
X47290000Y-2900000D01*
X48620000Y-1570000D02*
X47290000Y-1570000D01*
X49890000Y-1570000D02*
X49890000Y-4230000D01*
X49890000Y-4230000D02*
X55030000Y-4230000D01*
X49890000Y-1570000D02*
X55030000Y-1570000D01*
X55030000Y-1570000D02*
X55030000Y-4230000D01*
X55030000Y-5670000D02*
X55030000Y-8330000D01*
X49890000Y-5670000D02*
X55030000Y-5670000D01*
X49890000Y-8330000D02*
X55030000Y-8330000D01*
X49890000Y-5670000D02*
X49890000Y-8330000D01*
X48620000Y-5670000D02*
X47290000Y-5670000D01*
X47290000Y-5670000D02*
X47290000Y-7000000D01*
X56409360Y-17908600D02*
X56409360Y-19238600D01*
X57739360Y-17908600D02*
X56409360Y-17908600D01*
X59009360Y-17908600D02*
X59009360Y-20568600D01*
X59009360Y-20568600D02*
X64149360Y-20568600D01*
X59009360Y-17908600D02*
X64149360Y-17908600D01*
X64149360Y-17908600D02*
X64149360Y-20568600D01*
X47190000Y-9770000D02*
X47190000Y-11100000D01*
X48520000Y-9770000D02*
X47190000Y-9770000D01*
X49790000Y-9770000D02*
X49790000Y-12430000D01*
X49790000Y-12430000D02*
X54930000Y-12430000D01*
X49790000Y-9770000D02*
X54930000Y-9770000D01*
X54930000Y-9770000D02*
X54930000Y-12430000D01*
X47190000Y-13770000D02*
X47190000Y-15100000D01*
X48520000Y-13770000D02*
X47190000Y-13770000D01*
X49790000Y-13770000D02*
X49790000Y-16430000D01*
X49790000Y-16430000D02*
X54930000Y-16430000D01*
X49790000Y-13770000D02*
X54930000Y-13770000D01*
X54930000Y-13770000D02*
X54930000Y-16430000D01*
X64179840Y-14083360D02*
X64179840Y-16743360D01*
X59039840Y-14083360D02*
X64179840Y-14083360D01*
X59039840Y-16743360D02*
X64179840Y-16743360D01*
X59039840Y-14083360D02*
X59039840Y-16743360D01*
X57769840Y-14083360D02*
X56439840Y-14083360D01*
X56439840Y-14083360D02*
X56439840Y-15413360D01*
X111027600Y-47949800D02*
X111027600Y-46619800D01*
X109697600Y-47949800D02*
X111027600Y-47949800D01*
X108427600Y-47949800D02*
X108427600Y-45289800D01*
X108427600Y-45289800D02*
X100747600Y-45289800D01*
X108427600Y-47949800D02*
X100747600Y-47949800D01*
X100747600Y-47949800D02*
X100747600Y-45289800D01*
X122413800Y-23349900D02*
X122413800Y-20689900D01*
X130093800Y-23349900D02*
X122413800Y-23349900D01*
X130093800Y-20689900D02*
X122413800Y-20689900D01*
X130093800Y-23349900D02*
X130093800Y-20689900D01*
X131363800Y-23349900D02*
X132693800Y-23349900D01*
X132693800Y-23349900D02*
X132693800Y-22019900D01*
X54930000Y-17370000D02*
X54930000Y-20030000D01*
X49790000Y-17370000D02*
X54930000Y-17370000D01*
X49790000Y-20030000D02*
X54930000Y-20030000D01*
X49790000Y-17370000D02*
X49790000Y-20030000D01*
X48520000Y-17370000D02*
X47190000Y-17370000D01*
X47190000Y-17370000D02*
X47190000Y-18700000D01*
X54930000Y-21370000D02*
X54930000Y-24030000D01*
X49790000Y-21370000D02*
X54930000Y-21370000D01*
X49790000Y-24030000D02*
X54930000Y-24030000D01*
X49790000Y-21370000D02*
X49790000Y-24030000D01*
X48520000Y-21370000D02*
X47190000Y-21370000D01*
X47190000Y-21370000D02*
X47190000Y-22700000D01*
X64245880Y-10212400D02*
X64245880Y-12872400D01*
X59105880Y-10212400D02*
X64245880Y-10212400D01*
X59105880Y-12872400D02*
X64245880Y-12872400D01*
X59105880Y-10212400D02*
X59105880Y-12872400D01*
X57835880Y-10212400D02*
X56505880Y-10212400D01*
X56505880Y-10212400D02*
X56505880Y-11542400D01*
X32433843Y-15908160D02*
G75*
G02X24945197Y-15908160I-3744323J1460000D01*
G01*
X32433843Y-12988160D02*
G75*
G03X24945197Y-12988160I-3744323J-1460000D01*
G01*
X30487220Y-14448160D02*
G75*
G03X30487220Y-14448160I-1797700J0D01*
G01*
X7618200Y-19499200D02*
X7618200Y-21009200D01*
X11319200Y-19499200D02*
X11319200Y-21009200D01*
X14589200Y-21009200D02*
X4349200Y-21009200D01*
X4349200Y-19499200D02*
X4349200Y-24140200D01*
X14589200Y-19499200D02*
X14589200Y-24140200D01*
X14589200Y-24140200D02*
X4349200Y-24140200D01*
X14589200Y-19499200D02*
X4349200Y-19499200D01*
X7605500Y-35717100D02*
X7605500Y-37227100D01*
X11306500Y-35717100D02*
X11306500Y-37227100D01*
X14576500Y-37227100D02*
X4336500Y-37227100D01*
X4336500Y-35717100D02*
X4336500Y-40358100D01*
X14576500Y-35717100D02*
X14576500Y-40358100D01*
X14576500Y-40358100D02*
X4336500Y-40358100D01*
X14576500Y-35717100D02*
X4336500Y-35717100D01*
X40930300Y-36085400D02*
X40930300Y-37595400D01*
X44631300Y-36085400D02*
X44631300Y-37595400D01*
X47901300Y-37595400D02*
X37661300Y-37595400D01*
X37661300Y-36085400D02*
X37661300Y-40726400D01*
X47901300Y-36085400D02*
X47901300Y-40726400D01*
X47901300Y-40726400D02*
X37661300Y-40726400D01*
X47901300Y-36085400D02*
X37661300Y-36085400D01*
X18806900Y-36148900D02*
X18806900Y-37658900D01*
X22507900Y-36148900D02*
X22507900Y-37658900D01*
X25777900Y-37658900D02*
X15537900Y-37658900D01*
X15537900Y-36148900D02*
X15537900Y-40789900D01*
X25777900Y-36148900D02*
X25777900Y-40789900D01*
X25777900Y-40789900D02*
X15537900Y-40789900D01*
X25777900Y-36148900D02*
X15537900Y-36148900D01*
X58830600Y-33300800D02*
G75*
G03X58830600Y-35300800I0J-1000000D01*
G01*
X58830600Y-35300800D02*
X58830600Y-36950800D01*
X58830600Y-36950800D02*
X51090600Y-36950800D01*
X51090600Y-36950800D02*
X51090600Y-31650800D01*
X51090600Y-31650800D02*
X58830600Y-31650800D01*
X58830600Y-31650800D02*
X58830600Y-33300800D01*
X80230100Y-33427800D02*
G75*
G03X80230100Y-35427800I0J-1000000D01*
G01*
X80230100Y-35427800D02*
X80230100Y-37077800D01*
X80230100Y-37077800D02*
X72490100Y-37077800D01*
X72490100Y-37077800D02*
X72490100Y-31777800D01*
X72490100Y-31777800D02*
X80230100Y-31777800D01*
X80230100Y-31777800D02*
X80230100Y-33427800D01*
X123118000Y-31803200D02*
X123118000Y-33453200D01*
X115378000Y-31803200D02*
X123118000Y-31803200D01*
X115378000Y-37103200D02*
X115378000Y-31803200D01*
X123118000Y-37103200D02*
X115378000Y-37103200D01*
X123118000Y-35453200D02*
X123118000Y-37103200D01*
X123118000Y-33453200D02*
G75*
G03X123118000Y-35453200I0J-1000000D01*
G01*
X101629600Y-33427800D02*
G75*
G03X101629600Y-35427800I0J-1000000D01*
G01*
X101629600Y-35427800D02*
X101629600Y-37077800D01*
X101629600Y-37077800D02*
X93889600Y-37077800D01*
X93889600Y-37077800D02*
X93889600Y-31777800D01*
X93889600Y-31777800D02*
X101629600Y-31777800D01*
X101629600Y-31777800D02*
X101629600Y-33427800D01*
X123295800Y-7177900D02*
X123295800Y-8827900D01*
X115555800Y-7177900D02*
X123295800Y-7177900D01*
X115555800Y-12477900D02*
X115555800Y-7177900D01*
X123295800Y-12477900D02*
X115555800Y-12477900D01*
X123295800Y-10827900D02*
X123295800Y-12477900D01*
X123295800Y-8827900D02*
G75*
G03X123295800Y-10827900I0J-1000000D01*
G01*
X69050600Y-29310800D02*
X48470600Y-29310800D01*
X66380600Y-39470800D02*
X48470600Y-39470800D01*
X69050600Y-40740800D02*
X69050600Y-42140800D01*
X69050600Y-42140800D02*
X67650600Y-42140800D01*
X69050600Y-39470800D02*
X66380600Y-39470800D01*
X66380600Y-39470800D02*
X66380600Y-42140800D01*
X66380600Y-42140800D02*
X48470600Y-42140800D01*
X48470600Y-42140800D02*
X48470600Y-26640800D01*
X48470600Y-26640800D02*
X69050600Y-26640800D01*
X69050600Y-26640800D02*
X69050600Y-39470800D01*
X90460100Y-26677800D02*
X90460100Y-39507800D01*
X69880100Y-26677800D02*
X90460100Y-26677800D01*
X69880100Y-42177800D02*
X69880100Y-26677800D01*
X87790100Y-42177800D02*
X69880100Y-42177800D01*
X87790100Y-39507800D02*
X87790100Y-42177800D01*
X90460100Y-39507800D02*
X87790100Y-39507800D01*
X90460100Y-42177800D02*
X89060100Y-42177800D01*
X90460100Y-40777800D02*
X90460100Y-42177800D01*
X87790100Y-39507800D02*
X69880100Y-39507800D01*
X90460100Y-29347800D02*
X69880100Y-29347800D01*
X133348000Y-29373200D02*
X112768000Y-29373200D01*
X130678000Y-39533200D02*
X112768000Y-39533200D01*
X133348000Y-40803200D02*
X133348000Y-42203200D01*
X133348000Y-42203200D02*
X131948000Y-42203200D01*
X133348000Y-39533200D02*
X130678000Y-39533200D01*
X130678000Y-39533200D02*
X130678000Y-42203200D01*
X130678000Y-42203200D02*
X112768000Y-42203200D01*
X112768000Y-42203200D02*
X112768000Y-26703200D01*
X112768000Y-26703200D02*
X133348000Y-26703200D01*
X133348000Y-26703200D02*
X133348000Y-39533200D01*
X111859600Y-26677800D02*
X111859600Y-39507800D01*
X91279600Y-26677800D02*
X111859600Y-26677800D01*
X91279600Y-42177800D02*
X91279600Y-26677800D01*
X109189600Y-42177800D02*
X91279600Y-42177800D01*
X109189600Y-39507800D02*
X109189600Y-42177800D01*
X111859600Y-39507800D02*
X109189600Y-39507800D01*
X111859600Y-42177800D02*
X110459600Y-42177800D01*
X111859600Y-40777800D02*
X111859600Y-42177800D01*
X109189600Y-39507800D02*
X91279600Y-39507800D01*
X111859600Y-29347800D02*
X91279600Y-29347800D01*
X133525800Y-4747900D02*
X112945800Y-4747900D01*
X130855800Y-14907900D02*
X112945800Y-14907900D01*
X133525800Y-16177900D02*
X133525800Y-17577900D01*
X133525800Y-17577900D02*
X132125800Y-17577900D01*
X133525800Y-14907900D02*
X130855800Y-14907900D01*
X130855800Y-14907900D02*
X130855800Y-17577900D01*
X130855800Y-17577900D02*
X112945800Y-17577900D01*
X112945800Y-17577900D02*
X112945800Y-2077900D01*
X112945800Y-2077900D02*
X133525800Y-2077900D01*
X133525800Y-2077900D02*
X133525800Y-14907900D01*
D10*
X9564438Y-29803719D02*
X9659676Y-29756100D01*
X9754914Y-29660861D01*
X9897771Y-29518004D01*
X9993009Y-29470385D01*
X10088247Y-29470385D01*
X10040628Y-29708480D02*
X10135866Y-29660861D01*
X10231104Y-29565623D01*
X10278723Y-29375147D01*
X10278723Y-29041814D01*
X10231104Y-28851338D01*
X10135866Y-28756100D01*
X10040628Y-28708480D01*
X9850152Y-28708480D01*
X9754914Y-28756100D01*
X9659676Y-28851338D01*
X9612057Y-29041814D01*
X9612057Y-29375147D01*
X9659676Y-29565623D01*
X9754914Y-29660861D01*
X9850152Y-29708480D01*
X10040628Y-29708480D01*
X9278723Y-28708480D02*
X8612057Y-28708480D01*
X9040628Y-29708480D01*
X9564438Y-24431619D02*
X9659676Y-24384000D01*
X9754914Y-24288761D01*
X9897771Y-24145904D01*
X9993009Y-24098285D01*
X10088247Y-24098285D01*
X10040628Y-24336380D02*
X10135866Y-24288761D01*
X10231104Y-24193523D01*
X10278723Y-24003047D01*
X10278723Y-23669714D01*
X10231104Y-23479238D01*
X10135866Y-23384000D01*
X10040628Y-23336380D01*
X9850152Y-23336380D01*
X9754914Y-23384000D01*
X9659676Y-23479238D01*
X9612057Y-23669714D01*
X9612057Y-24003047D01*
X9659676Y-24193523D01*
X9754914Y-24288761D01*
X9850152Y-24336380D01*
X10040628Y-24336380D01*
X8754914Y-23336380D02*
X8945390Y-23336380D01*
X9040628Y-23384000D01*
X9088247Y-23431619D01*
X9183485Y-23574476D01*
X9231104Y-23764952D01*
X9231104Y-24145904D01*
X9183485Y-24241142D01*
X9135866Y-24288761D01*
X9040628Y-24336380D01*
X8850152Y-24336380D01*
X8754914Y-24288761D01*
X8707295Y-24241142D01*
X8659676Y-24145904D01*
X8659676Y-23907809D01*
X8707295Y-23812571D01*
X8754914Y-23764952D01*
X8850152Y-23717333D01*
X9040628Y-23717333D01*
X9135866Y-23764952D01*
X9183485Y-23812571D01*
X9231104Y-23907809D01*
X43114633Y-39823780D02*
X43114633Y-40538066D01*
X43162252Y-40680923D01*
X43257490Y-40776161D01*
X43400347Y-40823780D01*
X43495585Y-40823780D01*
X42590823Y-40823780D02*
X42400347Y-40823780D01*
X42305109Y-40776161D01*
X42257490Y-40728542D01*
X42162252Y-40585685D01*
X42114633Y-40395209D01*
X42114633Y-40014257D01*
X42162252Y-39919019D01*
X42209871Y-39871400D01*
X42305109Y-39823780D01*
X42495585Y-39823780D01*
X42590823Y-39871400D01*
X42638442Y-39919019D01*
X42686061Y-40014257D01*
X42686061Y-40252352D01*
X42638442Y-40347590D01*
X42590823Y-40395209D01*
X42495585Y-40442828D01*
X42305109Y-40442828D01*
X42209871Y-40395209D01*
X42162252Y-40347590D01*
X42114633Y-40252352D01*
X42568015Y-30895704D02*
X41568015Y-30895704D01*
X41568015Y-31133800D01*
X41615635Y-31276657D01*
X41710873Y-31371895D01*
X41806111Y-31419514D01*
X41996587Y-31467133D01*
X42139444Y-31467133D01*
X42329920Y-31419514D01*
X42425158Y-31371895D01*
X42520396Y-31276657D01*
X42568015Y-31133800D01*
X42568015Y-30895704D01*
X41568015Y-31800466D02*
X41568015Y-32467133D01*
X42568015Y-32038561D01*
X39817380Y-34741895D02*
X38817380Y-34741895D01*
X39817380Y-35313323D02*
X39245952Y-34884752D01*
X38817380Y-35313323D02*
X39388809Y-34741895D01*
X31582515Y-30959204D02*
X30582515Y-30959204D01*
X30582515Y-31197300D01*
X30630135Y-31340157D01*
X30725373Y-31435395D01*
X30820611Y-31483014D01*
X31011087Y-31530633D01*
X31153944Y-31530633D01*
X31344420Y-31483014D01*
X31439658Y-31435395D01*
X31534896Y-31340157D01*
X31582515Y-31197300D01*
X31582515Y-30959204D01*
X30582515Y-32387776D02*
X30582515Y-32197300D01*
X30630135Y-32102061D01*
X30677754Y-32054442D01*
X30820611Y-31959204D01*
X31011087Y-31911585D01*
X31392039Y-31911585D01*
X31487277Y-31959204D01*
X31534896Y-32006823D01*
X31582515Y-32102061D01*
X31582515Y-32292538D01*
X31534896Y-32387776D01*
X31487277Y-32435395D01*
X31392039Y-32483014D01*
X31153944Y-32483014D01*
X31058706Y-32435395D01*
X31011087Y-32387776D01*
X30963468Y-32292538D01*
X30963468Y-32102061D01*
X31011087Y-32006823D01*
X31058706Y-31959204D01*
X31153944Y-31911585D01*
X28831880Y-34805395D02*
X27831880Y-34805395D01*
X28831880Y-35376823D02*
X28260452Y-34948252D01*
X27831880Y-35376823D02*
X28403309Y-34805395D01*
X20622415Y-30921104D02*
X19622415Y-30921104D01*
X19622415Y-31159200D01*
X19670035Y-31302057D01*
X19765273Y-31397295D01*
X19860511Y-31444914D01*
X20050987Y-31492533D01*
X20193844Y-31492533D01*
X20384320Y-31444914D01*
X20479558Y-31397295D01*
X20574796Y-31302057D01*
X20622415Y-31159200D01*
X20622415Y-30921104D01*
X19622415Y-32397295D02*
X19622415Y-31921104D01*
X20098606Y-31873485D01*
X20050987Y-31921104D01*
X20003368Y-32016342D01*
X20003368Y-32254438D01*
X20050987Y-32349676D01*
X20098606Y-32397295D01*
X20193844Y-32444914D01*
X20431939Y-32444914D01*
X20527177Y-32397295D01*
X20574796Y-32349676D01*
X20622415Y-32254438D01*
X20622415Y-32016342D01*
X20574796Y-31921104D01*
X20527177Y-31873485D01*
X17871780Y-34767295D02*
X16871780Y-34767295D01*
X17871780Y-35338723D02*
X17300352Y-34910152D01*
X16871780Y-35338723D02*
X17443209Y-34767295D01*
X20025515Y-21993004D02*
X19025515Y-21993004D01*
X19025515Y-22231100D01*
X19073135Y-22373957D01*
X19168373Y-22469195D01*
X19263611Y-22516814D01*
X19454087Y-22564433D01*
X19596944Y-22564433D01*
X19787420Y-22516814D01*
X19882658Y-22469195D01*
X19977896Y-22373957D01*
X20025515Y-22231100D01*
X20025515Y-21993004D01*
X19358849Y-23421576D02*
X20025515Y-23421576D01*
X18977896Y-23183480D02*
X19692182Y-22945385D01*
X19692182Y-23564433D01*
X17274880Y-25839195D02*
X16274880Y-25839195D01*
X17274880Y-26410623D02*
X16703452Y-25982052D01*
X16274880Y-26410623D02*
X16846309Y-25839195D01*
X40411680Y-29735304D02*
X41221204Y-29735304D01*
X41316442Y-29782923D01*
X41364061Y-29830542D01*
X41411680Y-29925780D01*
X41411680Y-30116257D01*
X41364061Y-30211495D01*
X41316442Y-30259114D01*
X41221204Y-30306733D01*
X40411680Y-30306733D01*
X41411680Y-31306733D02*
X41411680Y-30735304D01*
X41411680Y-31021019D02*
X40411680Y-31021019D01*
X40554538Y-30925780D01*
X40649776Y-30830542D01*
X40697395Y-30735304D01*
X40411680Y-32211495D02*
X40411680Y-31735304D01*
X40887871Y-31687685D01*
X40840252Y-31735304D01*
X40792633Y-31830542D01*
X40792633Y-32068638D01*
X40840252Y-32163876D01*
X40887871Y-32211495D01*
X40983109Y-32259114D01*
X41221204Y-32259114D01*
X41316442Y-32211495D01*
X41364061Y-32163876D01*
X41411680Y-32068638D01*
X41411680Y-31830542D01*
X41364061Y-31735304D01*
X41316442Y-31687685D01*
X29349980Y-29798804D02*
X30159504Y-29798804D01*
X30254742Y-29846423D01*
X30302361Y-29894042D01*
X30349980Y-29989280D01*
X30349980Y-30179757D01*
X30302361Y-30274995D01*
X30254742Y-30322614D01*
X30159504Y-30370233D01*
X29349980Y-30370233D01*
X30349980Y-31370233D02*
X30349980Y-30798804D01*
X30349980Y-31084519D02*
X29349980Y-31084519D01*
X29492838Y-30989280D01*
X29588076Y-30894042D01*
X29635695Y-30798804D01*
X29683314Y-32227376D02*
X30349980Y-32227376D01*
X29302361Y-31989280D02*
X30016647Y-31751185D01*
X30016647Y-32370233D01*
X18288280Y-29798804D02*
X19097804Y-29798804D01*
X19193042Y-29846423D01*
X19240661Y-29894042D01*
X19288280Y-29989280D01*
X19288280Y-30179757D01*
X19240661Y-30274995D01*
X19193042Y-30322614D01*
X19097804Y-30370233D01*
X18288280Y-30370233D01*
X19288280Y-31370233D02*
X19288280Y-30798804D01*
X19288280Y-31084519D02*
X18288280Y-31084519D01*
X18431138Y-30989280D01*
X18526376Y-30894042D01*
X18573995Y-30798804D01*
X18288280Y-31703566D02*
X18288280Y-32322614D01*
X18669233Y-31989280D01*
X18669233Y-32132138D01*
X18716852Y-32227376D01*
X18764471Y-32274995D01*
X18859709Y-32322614D01*
X19097804Y-32322614D01*
X19193042Y-32274995D01*
X19240661Y-32227376D01*
X19288280Y-32132138D01*
X19288280Y-31846423D01*
X19240661Y-31751185D01*
X19193042Y-31703566D01*
X25109095Y-18481880D02*
X25109095Y-19291404D01*
X25061476Y-19386642D01*
X25013857Y-19434261D01*
X24918619Y-19481880D01*
X24728142Y-19481880D01*
X24632904Y-19434261D01*
X24585285Y-19386642D01*
X24537666Y-19291404D01*
X24537666Y-18481880D01*
X23537666Y-19481880D02*
X24109095Y-19481880D01*
X23823380Y-19481880D02*
X23823380Y-18481880D01*
X23918619Y-18624738D01*
X24013857Y-18719976D01*
X24109095Y-18767595D01*
X23156714Y-18577119D02*
X23109095Y-18529500D01*
X23013857Y-18481880D01*
X22775761Y-18481880D01*
X22680523Y-18529500D01*
X22632904Y-18577119D01*
X22585285Y-18672357D01*
X22585285Y-18767595D01*
X22632904Y-18910452D01*
X23204333Y-19481880D01*
X22585285Y-19481880D01*
X31814838Y-35696519D02*
X31910076Y-35648900D01*
X32005314Y-35553661D01*
X32148171Y-35410804D01*
X32243409Y-35363185D01*
X32338647Y-35363185D01*
X32291028Y-35601280D02*
X32386266Y-35553661D01*
X32481504Y-35458423D01*
X32529123Y-35267947D01*
X32529123Y-34934614D01*
X32481504Y-34744138D01*
X32386266Y-34648900D01*
X32291028Y-34601280D01*
X32100552Y-34601280D01*
X32005314Y-34648900D01*
X31910076Y-34744138D01*
X31862457Y-34934614D01*
X31862457Y-35267947D01*
X31910076Y-35458423D01*
X32005314Y-35553661D01*
X32100552Y-35601280D01*
X32291028Y-35601280D01*
X30957695Y-34601280D02*
X31433885Y-34601280D01*
X31481504Y-35077471D01*
X31433885Y-35029852D01*
X31338647Y-34982233D01*
X31100552Y-34982233D01*
X31005314Y-35029852D01*
X30957695Y-35077471D01*
X30910076Y-35172709D01*
X30910076Y-35410804D01*
X30957695Y-35506042D01*
X31005314Y-35553661D01*
X31100552Y-35601280D01*
X31338647Y-35601280D01*
X31433885Y-35553661D01*
X31481504Y-35506042D01*
X27461266Y-10508342D02*
X27508885Y-10555961D01*
X27651742Y-10603580D01*
X27746980Y-10603580D01*
X27889838Y-10555961D01*
X27985076Y-10460723D01*
X28032695Y-10365485D01*
X28080314Y-10175009D01*
X28080314Y-10032152D01*
X28032695Y-9841676D01*
X27985076Y-9746438D01*
X27889838Y-9651200D01*
X27746980Y-9603580D01*
X27651742Y-9603580D01*
X27508885Y-9651200D01*
X27461266Y-9698819D01*
X27080314Y-9698819D02*
X27032695Y-9651200D01*
X26937457Y-9603580D01*
X26699361Y-9603580D01*
X26604123Y-9651200D01*
X26556504Y-9698819D01*
X26508885Y-9794057D01*
X26508885Y-9889295D01*
X26556504Y-10032152D01*
X27127933Y-10603580D01*
X26508885Y-10603580D01*
X35517457Y-10508342D02*
X35565076Y-10555961D01*
X35707933Y-10603580D01*
X35803171Y-10603580D01*
X35946028Y-10555961D01*
X36041266Y-10460723D01*
X36088885Y-10365485D01*
X36136504Y-10175009D01*
X36136504Y-10032152D01*
X36088885Y-9841676D01*
X36041266Y-9746438D01*
X35946028Y-9651200D01*
X35803171Y-9603580D01*
X35707933Y-9603580D01*
X35565076Y-9651200D01*
X35517457Y-9698819D01*
X34565076Y-10603580D02*
X35136504Y-10603580D01*
X34850790Y-10603580D02*
X34850790Y-9603580D01*
X34946028Y-9746438D01*
X35041266Y-9841676D01*
X35136504Y-9889295D01*
X33946028Y-9603580D02*
X33850790Y-9603580D01*
X33755552Y-9651200D01*
X33707933Y-9698819D01*
X33660314Y-9794057D01*
X33612695Y-9984533D01*
X33612695Y-10222628D01*
X33660314Y-10413104D01*
X33707933Y-10508342D01*
X33755552Y-10555961D01*
X33850790Y-10603580D01*
X33946028Y-10603580D01*
X34041266Y-10555961D01*
X34088885Y-10508342D01*
X34136504Y-10413104D01*
X34184123Y-10222628D01*
X34184123Y-9984533D01*
X34136504Y-9794057D01*
X34088885Y-9698819D01*
X34041266Y-9651200D01*
X33946028Y-9603580D01*
X53083457Y-51249942D02*
X53131076Y-51297561D01*
X53273933Y-51345180D01*
X53369171Y-51345180D01*
X53512028Y-51297561D01*
X53607266Y-51202323D01*
X53654885Y-51107085D01*
X53702504Y-50916609D01*
X53702504Y-50773752D01*
X53654885Y-50583276D01*
X53607266Y-50488038D01*
X53512028Y-50392800D01*
X53369171Y-50345180D01*
X53273933Y-50345180D01*
X53131076Y-50392800D01*
X53083457Y-50440419D01*
X52131076Y-51345180D02*
X52702504Y-51345180D01*
X52416790Y-51345180D02*
X52416790Y-50345180D01*
X52512028Y-50488038D01*
X52607266Y-50583276D01*
X52702504Y-50630895D01*
X51273933Y-50345180D02*
X51464409Y-50345180D01*
X51559647Y-50392800D01*
X51607266Y-50440419D01*
X51702504Y-50583276D01*
X51750123Y-50773752D01*
X51750123Y-51154704D01*
X51702504Y-51249942D01*
X51654885Y-51297561D01*
X51559647Y-51345180D01*
X51369171Y-51345180D01*
X51273933Y-51297561D01*
X51226314Y-51249942D01*
X51178695Y-51154704D01*
X51178695Y-50916609D01*
X51226314Y-50821371D01*
X51273933Y-50773752D01*
X51369171Y-50726133D01*
X51559647Y-50726133D01*
X51654885Y-50773752D01*
X51702504Y-50821371D01*
X51750123Y-50916609D01*
X74482957Y-51376942D02*
X74530576Y-51424561D01*
X74673433Y-51472180D01*
X74768671Y-51472180D01*
X74911528Y-51424561D01*
X75006766Y-51329323D01*
X75054385Y-51234085D01*
X75102004Y-51043609D01*
X75102004Y-50900752D01*
X75054385Y-50710276D01*
X75006766Y-50615038D01*
X74911528Y-50519800D01*
X74768671Y-50472180D01*
X74673433Y-50472180D01*
X74530576Y-50519800D01*
X74482957Y-50567419D01*
X73530576Y-51472180D02*
X74102004Y-51472180D01*
X73816290Y-51472180D02*
X73816290Y-50472180D01*
X73911528Y-50615038D01*
X74006766Y-50710276D01*
X74102004Y-50757895D01*
X73197242Y-50472180D02*
X72530576Y-50472180D01*
X72959147Y-51472180D01*
X117370857Y-51402342D02*
X117418476Y-51449961D01*
X117561333Y-51497580D01*
X117656571Y-51497580D01*
X117799428Y-51449961D01*
X117894666Y-51354723D01*
X117942285Y-51259485D01*
X117989904Y-51069009D01*
X117989904Y-50926152D01*
X117942285Y-50735676D01*
X117894666Y-50640438D01*
X117799428Y-50545200D01*
X117656571Y-50497580D01*
X117561333Y-50497580D01*
X117418476Y-50545200D01*
X117370857Y-50592819D01*
X116418476Y-51497580D02*
X116989904Y-51497580D01*
X116704190Y-51497580D02*
X116704190Y-50497580D01*
X116799428Y-50640438D01*
X116894666Y-50735676D01*
X116989904Y-50783295D01*
X115847047Y-50926152D02*
X115942285Y-50878533D01*
X115989904Y-50830914D01*
X116037523Y-50735676D01*
X116037523Y-50688057D01*
X115989904Y-50592819D01*
X115942285Y-50545200D01*
X115847047Y-50497580D01*
X115656571Y-50497580D01*
X115561333Y-50545200D01*
X115513714Y-50592819D01*
X115466095Y-50688057D01*
X115466095Y-50735676D01*
X115513714Y-50830914D01*
X115561333Y-50878533D01*
X115656571Y-50926152D01*
X115847047Y-50926152D01*
X115942285Y-50973771D01*
X115989904Y-51021390D01*
X116037523Y-51116628D01*
X116037523Y-51307104D01*
X115989904Y-51402342D01*
X115942285Y-51449961D01*
X115847047Y-51497580D01*
X115656571Y-51497580D01*
X115561333Y-51449961D01*
X115513714Y-51402342D01*
X115466095Y-51307104D01*
X115466095Y-51116628D01*
X115513714Y-51021390D01*
X115561333Y-50973771D01*
X115656571Y-50926152D01*
X95882457Y-51376942D02*
X95930076Y-51424561D01*
X96072933Y-51472180D01*
X96168171Y-51472180D01*
X96311028Y-51424561D01*
X96406266Y-51329323D01*
X96453885Y-51234085D01*
X96501504Y-51043609D01*
X96501504Y-50900752D01*
X96453885Y-50710276D01*
X96406266Y-50615038D01*
X96311028Y-50519800D01*
X96168171Y-50472180D01*
X96072933Y-50472180D01*
X95930076Y-50519800D01*
X95882457Y-50567419D01*
X94930076Y-51472180D02*
X95501504Y-51472180D01*
X95215790Y-51472180D02*
X95215790Y-50472180D01*
X95311028Y-50615038D01*
X95406266Y-50710276D01*
X95501504Y-50757895D01*
X94453885Y-51472180D02*
X94263409Y-51472180D01*
X94168171Y-51424561D01*
X94120552Y-51376942D01*
X94025314Y-51234085D01*
X93977695Y-51043609D01*
X93977695Y-50662657D01*
X94025314Y-50567419D01*
X94072933Y-50519800D01*
X94168171Y-50472180D01*
X94358647Y-50472180D01*
X94453885Y-50519800D01*
X94501504Y-50567419D01*
X94549123Y-50662657D01*
X94549123Y-50900752D01*
X94501504Y-50995990D01*
X94453885Y-51043609D01*
X94358647Y-51091228D01*
X94168171Y-51091228D01*
X94072933Y-51043609D01*
X94025314Y-50995990D01*
X93977695Y-50900752D01*
X117548657Y-26777042D02*
X117596276Y-26824661D01*
X117739133Y-26872280D01*
X117834371Y-26872280D01*
X117977228Y-26824661D01*
X118072466Y-26729423D01*
X118120085Y-26634185D01*
X118167704Y-26443709D01*
X118167704Y-26300852D01*
X118120085Y-26110376D01*
X118072466Y-26015138D01*
X117977228Y-25919900D01*
X117834371Y-25872280D01*
X117739133Y-25872280D01*
X117596276Y-25919900D01*
X117548657Y-25967519D01*
X117167704Y-25967519D02*
X117120085Y-25919900D01*
X117024847Y-25872280D01*
X116786752Y-25872280D01*
X116691514Y-25919900D01*
X116643895Y-25967519D01*
X116596276Y-26062757D01*
X116596276Y-26157995D01*
X116643895Y-26300852D01*
X117215323Y-26872280D01*
X116596276Y-26872280D01*
X115977228Y-25872280D02*
X115881990Y-25872280D01*
X115786752Y-25919900D01*
X115739133Y-25967519D01*
X115691514Y-26062757D01*
X115643895Y-26253233D01*
X115643895Y-26491328D01*
X115691514Y-26681804D01*
X115739133Y-26777042D01*
X115786752Y-26824661D01*
X115881990Y-26872280D01*
X115977228Y-26872280D01*
X116072466Y-26824661D01*
X116120085Y-26777042D01*
X116167704Y-26681804D01*
X116215323Y-26491328D01*
X116215323Y-26253233D01*
X116167704Y-26062757D01*
X116120085Y-25967519D01*
X116072466Y-25919900D01*
X115977228Y-25872280D01*
X19782033Y-7071771D02*
X20115366Y-7071771D01*
X20115366Y-7595580D02*
X20115366Y-6595580D01*
X19639176Y-6595580D01*
X18734414Y-7595580D02*
X19305842Y-7595580D01*
X19020128Y-7595580D02*
X19020128Y-6595580D01*
X19115366Y-6738438D01*
X19210604Y-6833676D01*
X19305842Y-6881295D01*
X20619571Y-12103306D02*
X20619571Y-11769973D01*
X21143380Y-11769973D02*
X20143380Y-11769973D01*
X20143380Y-12246163D01*
X20238619Y-12579497D02*
X20191000Y-12627116D01*
X20143380Y-12722354D01*
X20143380Y-12960449D01*
X20191000Y-13055687D01*
X20238619Y-13103306D01*
X20333857Y-13150925D01*
X20429095Y-13150925D01*
X20571952Y-13103306D01*
X21143380Y-12531878D01*
X21143380Y-13150925D01*
X9853333Y-8797680D02*
X9853333Y-9511966D01*
X9900952Y-9654823D01*
X9996190Y-9750061D01*
X10139047Y-9797680D01*
X10234285Y-9797680D01*
X9424761Y-8892919D02*
X9377142Y-8845300D01*
X9281904Y-8797680D01*
X9043809Y-8797680D01*
X8948571Y-8845300D01*
X8900952Y-8892919D01*
X8853333Y-8988157D01*
X8853333Y-9083395D01*
X8900952Y-9226252D01*
X9472380Y-9797680D01*
X8853333Y-9797680D01*
X96721333Y-66880D02*
X96721333Y-781166D01*
X96768952Y-924023D01*
X96864190Y-1019261D01*
X97007047Y-1066880D01*
X97102285Y-1066880D01*
X96340380Y-66880D02*
X95721333Y-66880D01*
X96054666Y-447833D01*
X95911809Y-447833D01*
X95816571Y-495452D01*
X95768952Y-543071D01*
X95721333Y-638309D01*
X95721333Y-876404D01*
X95768952Y-971642D01*
X95816571Y-1019261D01*
X95911809Y-1066880D01*
X96197523Y-1066880D01*
X96292761Y-1019261D01*
X96340380Y-971642D01*
X61433333Y-2852380D02*
X61433333Y-3566666D01*
X61480952Y-3709523D01*
X61576190Y-3804761D01*
X61719047Y-3852380D01*
X61814285Y-3852380D01*
X60528571Y-3185714D02*
X60528571Y-3852380D01*
X60766666Y-2804761D02*
X61004761Y-3519047D01*
X60385714Y-3519047D01*
X67206533Y-92280D02*
X67206533Y-806566D01*
X67254152Y-949423D01*
X67349390Y-1044661D01*
X67492247Y-1092280D01*
X67587485Y-1092280D01*
X66254152Y-92280D02*
X66730342Y-92280D01*
X66777961Y-568471D01*
X66730342Y-520852D01*
X66635104Y-473233D01*
X66397009Y-473233D01*
X66301771Y-520852D01*
X66254152Y-568471D01*
X66206533Y-663709D01*
X66206533Y-901804D01*
X66254152Y-997042D01*
X66301771Y-1044661D01*
X66397009Y-1092280D01*
X66635104Y-1092280D01*
X66730342Y-1044661D01*
X66777961Y-997042D01*
X9840633Y-39887280D02*
X9840633Y-40601566D01*
X9888252Y-40744423D01*
X9983490Y-40839661D01*
X10126347Y-40887280D01*
X10221585Y-40887280D01*
X8935871Y-39887280D02*
X9126347Y-39887280D01*
X9221585Y-39934900D01*
X9269204Y-39982519D01*
X9364442Y-40125376D01*
X9412061Y-40315852D01*
X9412061Y-40696804D01*
X9364442Y-40792042D01*
X9316823Y-40839661D01*
X9221585Y-40887280D01*
X9031109Y-40887280D01*
X8935871Y-40839661D01*
X8888252Y-40792042D01*
X8840633Y-40696804D01*
X8840633Y-40458709D01*
X8888252Y-40363471D01*
X8935871Y-40315852D01*
X9031109Y-40268233D01*
X9221585Y-40268233D01*
X9316823Y-40315852D01*
X9364442Y-40363471D01*
X9412061Y-40458709D01*
X111897480Y-10947166D02*
X112611766Y-10947166D01*
X112754623Y-10899547D01*
X112849861Y-10804309D01*
X112897480Y-10661452D01*
X112897480Y-10566214D01*
X111897480Y-11328119D02*
X111897480Y-11994785D01*
X112897480Y-11566214D01*
X9573933Y-2282580D02*
X9573933Y-2996866D01*
X9621552Y-3139723D01*
X9716790Y-3234961D01*
X9859647Y-3282580D01*
X9954885Y-3282580D01*
X8954885Y-2711152D02*
X9050123Y-2663533D01*
X9097742Y-2615914D01*
X9145361Y-2520676D01*
X9145361Y-2473057D01*
X9097742Y-2377819D01*
X9050123Y-2330200D01*
X8954885Y-2282580D01*
X8764409Y-2282580D01*
X8669171Y-2330200D01*
X8621552Y-2377819D01*
X8573933Y-2473057D01*
X8573933Y-2520676D01*
X8621552Y-2615914D01*
X8669171Y-2663533D01*
X8764409Y-2711152D01*
X8954885Y-2711152D01*
X9050123Y-2758771D01*
X9097742Y-2806390D01*
X9145361Y-2901628D01*
X9145361Y-3092104D01*
X9097742Y-3187342D01*
X9050123Y-3234961D01*
X8954885Y-3282580D01*
X8764409Y-3282580D01*
X8669171Y-3234961D01*
X8621552Y-3187342D01*
X8573933Y-3092104D01*
X8573933Y-2901628D01*
X8621552Y-2806390D01*
X8669171Y-2758771D01*
X8764409Y-2711152D01*
X68680980Y-45683276D02*
X69395266Y-45683276D01*
X69538123Y-45635657D01*
X69633361Y-45540419D01*
X69680980Y-45397561D01*
X69680980Y-45302323D01*
X69680980Y-46683276D02*
X69680980Y-46111847D01*
X69680980Y-46397561D02*
X68680980Y-46397561D01*
X68823838Y-46302323D01*
X68919076Y-46207085D01*
X68966695Y-46111847D01*
X68680980Y-47302323D02*
X68680980Y-47397561D01*
X68728600Y-47492800D01*
X68776219Y-47540419D01*
X68871457Y-47588038D01*
X69061933Y-47635657D01*
X69300028Y-47635657D01*
X69490504Y-47588038D01*
X69585742Y-47540419D01*
X69633361Y-47492800D01*
X69680980Y-47397561D01*
X69680980Y-47302323D01*
X69633361Y-47207085D01*
X69585742Y-47159466D01*
X69490504Y-47111847D01*
X69300028Y-47064228D01*
X69061933Y-47064228D01*
X68871457Y-47111847D01*
X68776219Y-47159466D01*
X68728600Y-47207085D01*
X68680980Y-47302323D01*
X111910180Y-2889076D02*
X112624466Y-2889076D01*
X112767323Y-2841457D01*
X112862561Y-2746219D01*
X112910180Y-2603361D01*
X112910180Y-2508123D01*
X112910180Y-3889076D02*
X112910180Y-3317647D01*
X112910180Y-3603361D02*
X111910180Y-3603361D01*
X112053038Y-3508123D01*
X112148276Y-3412885D01*
X112195895Y-3317647D01*
X112910180Y-4841457D02*
X112910180Y-4270028D01*
X112910180Y-4555742D02*
X111910180Y-4555742D01*
X112053038Y-4460504D01*
X112148276Y-4365266D01*
X112195895Y-4270028D01*
X111910180Y-6686376D02*
X112624466Y-6686376D01*
X112767323Y-6638757D01*
X112862561Y-6543519D01*
X112910180Y-6400661D01*
X112910180Y-6305423D01*
X112910180Y-7686376D02*
X112910180Y-7114947D01*
X112910180Y-7400661D02*
X111910180Y-7400661D01*
X112053038Y-7305423D01*
X112148276Y-7210185D01*
X112195895Y-7114947D01*
X112005419Y-8067328D02*
X111957800Y-8114947D01*
X111910180Y-8210185D01*
X111910180Y-8448280D01*
X111957800Y-8543519D01*
X112005419Y-8591138D01*
X112100657Y-8638757D01*
X112195895Y-8638757D01*
X112338752Y-8591138D01*
X112910180Y-8019709D01*
X112910180Y-8638757D01*
X59503923Y-66880D02*
X59503923Y-781166D01*
X59551542Y-924023D01*
X59646780Y-1019261D01*
X59789638Y-1066880D01*
X59884876Y-1066880D01*
X58503923Y-1066880D02*
X59075352Y-1066880D01*
X58789638Y-1066880D02*
X58789638Y-66880D01*
X58884876Y-209738D01*
X58980114Y-304976D01*
X59075352Y-352595D01*
X58170590Y-66880D02*
X57551542Y-66880D01*
X57884876Y-447833D01*
X57742019Y-447833D01*
X57646780Y-495452D01*
X57599161Y-543071D01*
X57551542Y-638309D01*
X57551542Y-876404D01*
X57599161Y-971642D01*
X57646780Y-1019261D01*
X57742019Y-1066880D01*
X58027733Y-1066880D01*
X58122971Y-1019261D01*
X58170590Y-971642D01*
X80852380Y-23190476D02*
X81566666Y-23190476D01*
X81709523Y-23142857D01*
X81804761Y-23047619D01*
X81852380Y-22904761D01*
X81852380Y-22809523D01*
X81852380Y-24190476D02*
X81852380Y-23619047D01*
X81852380Y-23904761D02*
X80852380Y-23904761D01*
X80995238Y-23809523D01*
X81090476Y-23714285D01*
X81138095Y-23619047D01*
X81185714Y-25047619D02*
X81852380Y-25047619D01*
X80804761Y-24809523D02*
X81519047Y-24571428D01*
X81519047Y-25190476D01*
X21467423Y-39887280D02*
X21467423Y-40601566D01*
X21515042Y-40744423D01*
X21610280Y-40839661D01*
X21753138Y-40887280D01*
X21848376Y-40887280D01*
X20467423Y-40887280D02*
X21038852Y-40887280D01*
X20753138Y-40887280D02*
X20753138Y-39887280D01*
X20848376Y-40030138D01*
X20943614Y-40125376D01*
X21038852Y-40172995D01*
X19562661Y-39887280D02*
X20038852Y-39887280D01*
X20086471Y-40363471D01*
X20038852Y-40315852D01*
X19943614Y-40268233D01*
X19705519Y-40268233D01*
X19610280Y-40315852D01*
X19562661Y-40363471D01*
X19515042Y-40458709D01*
X19515042Y-40696804D01*
X19562661Y-40792042D01*
X19610280Y-40839661D01*
X19705519Y-40887280D01*
X19943614Y-40887280D01*
X20038852Y-40839661D01*
X20086471Y-40792042D01*
X64767740Y-9990476D02*
X65482026Y-9990476D01*
X65624883Y-9942857D01*
X65720121Y-9847619D01*
X65767740Y-9704761D01*
X65767740Y-9609523D01*
X65767740Y-10990476D02*
X65767740Y-10419047D01*
X65767740Y-10704761D02*
X64767740Y-10704761D01*
X64910598Y-10609523D01*
X65005836Y-10514285D01*
X65053455Y-10419047D01*
X64767740Y-11847619D02*
X64767740Y-11657142D01*
X64815360Y-11561904D01*
X64862979Y-11514285D01*
X65005836Y-11419047D01*
X65196312Y-11371428D01*
X65577264Y-11371428D01*
X65672502Y-11419047D01*
X65720121Y-11466666D01*
X65767740Y-11561904D01*
X65767740Y-11752380D01*
X65720121Y-11847619D01*
X65672502Y-11895238D01*
X65577264Y-11942857D01*
X65339169Y-11942857D01*
X65243931Y-11895238D01*
X65196312Y-11847619D01*
X65148693Y-11752380D01*
X65148693Y-11561904D01*
X65196312Y-11466666D01*
X65243931Y-11419047D01*
X65339169Y-11371428D01*
X32529123Y-39887280D02*
X32529123Y-40601566D01*
X32576742Y-40744423D01*
X32671980Y-40839661D01*
X32814838Y-40887280D01*
X32910076Y-40887280D01*
X31529123Y-40887280D02*
X32100552Y-40887280D01*
X31814838Y-40887280D02*
X31814838Y-39887280D01*
X31910076Y-40030138D01*
X32005314Y-40125376D01*
X32100552Y-40172995D01*
X31195790Y-39887280D02*
X30529123Y-39887280D01*
X30957695Y-40887280D01*
X90080480Y-45810276D02*
X90794766Y-45810276D01*
X90937623Y-45762657D01*
X91032861Y-45667419D01*
X91080480Y-45524561D01*
X91080480Y-45429323D01*
X91080480Y-46810276D02*
X91080480Y-46238847D01*
X91080480Y-46524561D02*
X90080480Y-46524561D01*
X90223338Y-46429323D01*
X90318576Y-46334085D01*
X90366195Y-46238847D01*
X90509052Y-47381704D02*
X90461433Y-47286466D01*
X90413814Y-47238847D01*
X90318576Y-47191228D01*
X90270957Y-47191228D01*
X90175719Y-47238847D01*
X90128100Y-47286466D01*
X90080480Y-47381704D01*
X90080480Y-47572180D01*
X90128100Y-47667419D01*
X90175719Y-47715038D01*
X90270957Y-47762657D01*
X90318576Y-47762657D01*
X90413814Y-47715038D01*
X90461433Y-47667419D01*
X90509052Y-47572180D01*
X90509052Y-47381704D01*
X90556671Y-47286466D01*
X90604290Y-47238847D01*
X90699528Y-47191228D01*
X90890004Y-47191228D01*
X90985242Y-47238847D01*
X91032861Y-47286466D01*
X91080480Y-47381704D01*
X91080480Y-47572180D01*
X91032861Y-47667419D01*
X90985242Y-47715038D01*
X90890004Y-47762657D01*
X90699528Y-47762657D01*
X90604290Y-47715038D01*
X90556671Y-47667419D01*
X90509052Y-47572180D01*
X132968380Y-45835676D02*
X133682666Y-45835676D01*
X133825523Y-45788057D01*
X133920761Y-45692819D01*
X133968380Y-45549961D01*
X133968380Y-45454723D01*
X133968380Y-46835676D02*
X133968380Y-46264247D01*
X133968380Y-46549961D02*
X132968380Y-46549961D01*
X133111238Y-46454723D01*
X133206476Y-46359485D01*
X133254095Y-46264247D01*
X133968380Y-47311866D02*
X133968380Y-47502342D01*
X133920761Y-47597580D01*
X133873142Y-47645200D01*
X133730285Y-47740438D01*
X133539809Y-47788057D01*
X133158857Y-47788057D01*
X133063619Y-47740438D01*
X133016000Y-47692819D01*
X132968380Y-47597580D01*
X132968380Y-47407104D01*
X133016000Y-47311866D01*
X133063619Y-47264247D01*
X133158857Y-47216628D01*
X133396952Y-47216628D01*
X133492190Y-47264247D01*
X133539809Y-47311866D01*
X133587428Y-47407104D01*
X133587428Y-47597580D01*
X133539809Y-47692819D01*
X133492190Y-47740438D01*
X133396952Y-47788057D01*
X54805860Y-22264476D02*
X55520146Y-22264476D01*
X55663003Y-22216857D01*
X55758241Y-22121619D01*
X55805860Y-21978761D01*
X55805860Y-21883523D01*
X54901099Y-22693047D02*
X54853480Y-22740666D01*
X54805860Y-22835904D01*
X54805860Y-23074000D01*
X54853480Y-23169238D01*
X54901099Y-23216857D01*
X54996337Y-23264476D01*
X55091575Y-23264476D01*
X55234432Y-23216857D01*
X55805860Y-22645428D01*
X55805860Y-23264476D01*
X54805860Y-23883523D02*
X54805860Y-23978761D01*
X54853480Y-24074000D01*
X54901099Y-24121619D01*
X54996337Y-24169238D01*
X55186813Y-24216857D01*
X55424908Y-24216857D01*
X55615384Y-24169238D01*
X55710622Y-24121619D01*
X55758241Y-24074000D01*
X55805860Y-23978761D01*
X55805860Y-23883523D01*
X55758241Y-23788285D01*
X55710622Y-23740666D01*
X55615384Y-23693047D01*
X55424908Y-23645428D01*
X55186813Y-23645428D01*
X54996337Y-23693047D01*
X54901099Y-23740666D01*
X54853480Y-23788285D01*
X54805860Y-23883523D01*
X41052380Y-2390476D02*
X41766666Y-2390476D01*
X41909523Y-2342857D01*
X42004761Y-2247619D01*
X42052380Y-2104761D01*
X42052380Y-2009523D01*
X41147619Y-2819047D02*
X41100000Y-2866666D01*
X41052380Y-2961904D01*
X41052380Y-3200000D01*
X41100000Y-3295238D01*
X41147619Y-3342857D01*
X41242857Y-3390476D01*
X41338095Y-3390476D01*
X41480952Y-3342857D01*
X42052380Y-2771428D01*
X42052380Y-3390476D01*
X42052380Y-4342857D02*
X42052380Y-3771428D01*
X42052380Y-4057142D02*
X41052380Y-4057142D01*
X41195238Y-3961904D01*
X41290476Y-3866666D01*
X41338095Y-3771428D01*
X41052380Y-6390476D02*
X41766666Y-6390476D01*
X41909523Y-6342857D01*
X42004761Y-6247619D01*
X42052380Y-6104761D01*
X42052380Y-6009523D01*
X41147619Y-6819047D02*
X41100000Y-6866666D01*
X41052380Y-6961904D01*
X41052380Y-7200000D01*
X41100000Y-7295238D01*
X41147619Y-7342857D01*
X41242857Y-7390476D01*
X41338095Y-7390476D01*
X41480952Y-7342857D01*
X42052380Y-6771428D01*
X42052380Y-7390476D01*
X41147619Y-7771428D02*
X41100000Y-7819047D01*
X41052380Y-7914285D01*
X41052380Y-8152380D01*
X41100000Y-8247619D01*
X41147619Y-8295238D01*
X41242857Y-8342857D01*
X41338095Y-8342857D01*
X41480952Y-8295238D01*
X42052380Y-7723809D01*
X42052380Y-8342857D01*
X54861740Y-18429076D02*
X55576026Y-18429076D01*
X55718883Y-18381457D01*
X55814121Y-18286219D01*
X55861740Y-18143361D01*
X55861740Y-18048123D01*
X54956979Y-18857647D02*
X54909360Y-18905266D01*
X54861740Y-19000504D01*
X54861740Y-19238600D01*
X54909360Y-19333838D01*
X54956979Y-19381457D01*
X55052217Y-19429076D01*
X55147455Y-19429076D01*
X55290312Y-19381457D01*
X55861740Y-18810028D01*
X55861740Y-19429076D01*
X54861740Y-19762409D02*
X54861740Y-20381457D01*
X55242693Y-20048123D01*
X55242693Y-20190980D01*
X55290312Y-20286219D01*
X55337931Y-20333838D01*
X55433169Y-20381457D01*
X55671264Y-20381457D01*
X55766502Y-20333838D01*
X55814121Y-20286219D01*
X55861740Y-20190980D01*
X55861740Y-19905266D01*
X55814121Y-19810028D01*
X55766502Y-19762409D01*
X41152380Y-10390476D02*
X41866666Y-10390476D01*
X42009523Y-10342857D01*
X42104761Y-10247619D01*
X42152380Y-10104761D01*
X42152380Y-10009523D01*
X41247619Y-10819047D02*
X41200000Y-10866666D01*
X41152380Y-10961904D01*
X41152380Y-11200000D01*
X41200000Y-11295238D01*
X41247619Y-11342857D01*
X41342857Y-11390476D01*
X41438095Y-11390476D01*
X41580952Y-11342857D01*
X42152380Y-10771428D01*
X42152380Y-11390476D01*
X41485714Y-12247619D02*
X42152380Y-12247619D01*
X41104761Y-12009523D02*
X41819047Y-11771428D01*
X41819047Y-12390476D01*
X41352380Y-14590476D02*
X42066666Y-14590476D01*
X42209523Y-14542857D01*
X42304761Y-14447619D01*
X42352380Y-14304761D01*
X42352380Y-14209523D01*
X41447619Y-15019047D02*
X41400000Y-15066666D01*
X41352380Y-15161904D01*
X41352380Y-15400000D01*
X41400000Y-15495238D01*
X41447619Y-15542857D01*
X41542857Y-15590476D01*
X41638095Y-15590476D01*
X41780952Y-15542857D01*
X42352380Y-14971428D01*
X42352380Y-15590476D01*
X41352380Y-16495238D02*
X41352380Y-16019047D01*
X41828571Y-15971428D01*
X41780952Y-16019047D01*
X41733333Y-16114285D01*
X41733333Y-16352380D01*
X41780952Y-16447619D01*
X41828571Y-16495238D01*
X41923809Y-16542857D01*
X42161904Y-16542857D01*
X42257142Y-16495238D01*
X42304761Y-16447619D01*
X42352380Y-16352380D01*
X42352380Y-16114285D01*
X42304761Y-16019047D01*
X42257142Y-15971428D01*
X54892220Y-14603836D02*
X55606506Y-14603836D01*
X55749363Y-14556217D01*
X55844601Y-14460979D01*
X55892220Y-14318121D01*
X55892220Y-14222883D01*
X54987459Y-15032407D02*
X54939840Y-15080026D01*
X54892220Y-15175264D01*
X54892220Y-15413360D01*
X54939840Y-15508598D01*
X54987459Y-15556217D01*
X55082697Y-15603836D01*
X55177935Y-15603836D01*
X55320792Y-15556217D01*
X55892220Y-14984788D01*
X55892220Y-15603836D01*
X54892220Y-16460979D02*
X54892220Y-16270502D01*
X54939840Y-16175264D01*
X54987459Y-16127645D01*
X55130316Y-16032407D01*
X55320792Y-15984788D01*
X55701744Y-15984788D01*
X55796982Y-16032407D01*
X55844601Y-16080026D01*
X55892220Y-16175264D01*
X55892220Y-16365740D01*
X55844601Y-16460979D01*
X55796982Y-16508598D01*
X55701744Y-16556217D01*
X55463649Y-16556217D01*
X55368411Y-16508598D01*
X55320792Y-16460979D01*
X55273173Y-16365740D01*
X55273173Y-16175264D01*
X55320792Y-16080026D01*
X55368411Y-16032407D01*
X55463649Y-15984788D01*
X111479980Y-45810276D02*
X112194266Y-45810276D01*
X112337123Y-45762657D01*
X112432361Y-45667419D01*
X112479980Y-45524561D01*
X112479980Y-45429323D01*
X111575219Y-46238847D02*
X111527600Y-46286466D01*
X111479980Y-46381704D01*
X111479980Y-46619800D01*
X111527600Y-46715038D01*
X111575219Y-46762657D01*
X111670457Y-46810276D01*
X111765695Y-46810276D01*
X111908552Y-46762657D01*
X112479980Y-46191228D01*
X112479980Y-46810276D01*
X111479980Y-47143609D02*
X111479980Y-47810276D01*
X112479980Y-47381704D01*
X133146180Y-21210376D02*
X133860466Y-21210376D01*
X134003323Y-21162757D01*
X134098561Y-21067519D01*
X134146180Y-20924661D01*
X134146180Y-20829423D01*
X133241419Y-21638947D02*
X133193800Y-21686566D01*
X133146180Y-21781804D01*
X133146180Y-22019900D01*
X133193800Y-22115138D01*
X133241419Y-22162757D01*
X133336657Y-22210376D01*
X133431895Y-22210376D01*
X133574752Y-22162757D01*
X134146180Y-21591328D01*
X134146180Y-22210376D01*
X133574752Y-22781804D02*
X133527133Y-22686566D01*
X133479514Y-22638947D01*
X133384276Y-22591328D01*
X133336657Y-22591328D01*
X133241419Y-22638947D01*
X133193800Y-22686566D01*
X133146180Y-22781804D01*
X133146180Y-22972280D01*
X133193800Y-23067519D01*
X133241419Y-23115138D01*
X133336657Y-23162757D01*
X133384276Y-23162757D01*
X133479514Y-23115138D01*
X133527133Y-23067519D01*
X133574752Y-22972280D01*
X133574752Y-22781804D01*
X133622371Y-22686566D01*
X133669990Y-22638947D01*
X133765228Y-22591328D01*
X133955704Y-22591328D01*
X134050942Y-22638947D01*
X134098561Y-22686566D01*
X134146180Y-22781804D01*
X134146180Y-22972280D01*
X134098561Y-23067519D01*
X134050942Y-23115138D01*
X133955704Y-23162757D01*
X133765228Y-23162757D01*
X133669990Y-23115138D01*
X133622371Y-23067519D01*
X133574752Y-22972280D01*
X41252380Y-17890476D02*
X41966666Y-17890476D01*
X42109523Y-17842857D01*
X42204761Y-17747619D01*
X42252380Y-17604761D01*
X42252380Y-17509523D01*
X41347619Y-18319047D02*
X41300000Y-18366666D01*
X41252380Y-18461904D01*
X41252380Y-18700000D01*
X41300000Y-18795238D01*
X41347619Y-18842857D01*
X41442857Y-18890476D01*
X41538095Y-18890476D01*
X41680952Y-18842857D01*
X42252380Y-18271428D01*
X42252380Y-18890476D01*
X42252380Y-19366666D02*
X42252380Y-19557142D01*
X42204761Y-19652380D01*
X42157142Y-19700000D01*
X42014285Y-19795238D01*
X41823809Y-19842857D01*
X41442857Y-19842857D01*
X41347619Y-19795238D01*
X41300000Y-19747619D01*
X41252380Y-19652380D01*
X41252380Y-19461904D01*
X41300000Y-19366666D01*
X41347619Y-19319047D01*
X41442857Y-19271428D01*
X41680952Y-19271428D01*
X41776190Y-19319047D01*
X41823809Y-19366666D01*
X41871428Y-19461904D01*
X41871428Y-19652380D01*
X41823809Y-19747619D01*
X41776190Y-19795238D01*
X41680952Y-19842857D01*
X41152380Y-21790476D02*
X41866666Y-21790476D01*
X42009523Y-21742857D01*
X42104761Y-21647619D01*
X42152380Y-21504761D01*
X42152380Y-21409523D01*
X41152380Y-22171428D02*
X41152380Y-22790476D01*
X41533333Y-22457142D01*
X41533333Y-22600000D01*
X41580952Y-22695238D01*
X41628571Y-22742857D01*
X41723809Y-22790476D01*
X41961904Y-22790476D01*
X42057142Y-22742857D01*
X42104761Y-22695238D01*
X42152380Y-22600000D01*
X42152380Y-22314285D01*
X42104761Y-22219047D01*
X42057142Y-22171428D01*
X41152380Y-23409523D02*
X41152380Y-23504761D01*
X41200000Y-23600000D01*
X41247619Y-23647619D01*
X41342857Y-23695238D01*
X41533333Y-23742857D01*
X41771428Y-23742857D01*
X41961904Y-23695238D01*
X42057142Y-23647619D01*
X42104761Y-23600000D01*
X42152380Y-23504761D01*
X42152380Y-23409523D01*
X42104761Y-23314285D01*
X42057142Y-23266666D01*
X41961904Y-23219047D01*
X41771428Y-23171428D01*
X41533333Y-23171428D01*
X41342857Y-23219047D01*
X41247619Y-23266666D01*
X41200000Y-23314285D01*
X41152380Y-23409523D01*
X54958260Y-10732876D02*
X55672546Y-10732876D01*
X55815403Y-10685257D01*
X55910641Y-10590019D01*
X55958260Y-10447161D01*
X55958260Y-10351923D01*
X54958260Y-11113828D02*
X54958260Y-11732876D01*
X55339213Y-11399542D01*
X55339213Y-11542400D01*
X55386832Y-11637638D01*
X55434451Y-11685257D01*
X55529689Y-11732876D01*
X55767784Y-11732876D01*
X55863022Y-11685257D01*
X55910641Y-11637638D01*
X55958260Y-11542400D01*
X55958260Y-11256685D01*
X55910641Y-11161447D01*
X55863022Y-11113828D01*
X55958260Y-12685257D02*
X55958260Y-12113828D01*
X55958260Y-12399542D02*
X54958260Y-12399542D01*
X55101118Y-12304304D01*
X55196356Y-12209066D01*
X55243975Y-12113828D01*
X28856186Y-20049440D02*
X29332377Y-20049440D01*
X29332377Y-19049440D01*
X27999043Y-20049440D02*
X28570472Y-20049440D01*
X28284758Y-20049440D02*
X28284758Y-19049440D01*
X28379996Y-19192298D01*
X28475234Y-19287536D01*
X28570472Y-19335155D01*
X9564438Y-19046819D02*
X9659676Y-18999200D01*
X9754914Y-18903961D01*
X9897771Y-18761104D01*
X9993009Y-18713485D01*
X10088247Y-18713485D01*
X10040628Y-18951580D02*
X10135866Y-18903961D01*
X10231104Y-18808723D01*
X10278723Y-18618247D01*
X10278723Y-18284914D01*
X10231104Y-18094438D01*
X10135866Y-17999200D01*
X10040628Y-17951580D01*
X9850152Y-17951580D01*
X9754914Y-17999200D01*
X9659676Y-18094438D01*
X9612057Y-18284914D01*
X9612057Y-18618247D01*
X9659676Y-18808723D01*
X9754914Y-18903961D01*
X9850152Y-18951580D01*
X10040628Y-18951580D01*
X8659676Y-18951580D02*
X9231104Y-18951580D01*
X8945390Y-18951580D02*
X8945390Y-17951580D01*
X9040628Y-18094438D01*
X9135866Y-18189676D01*
X9231104Y-18237295D01*
X9551738Y-35264719D02*
X9646976Y-35217100D01*
X9742214Y-35121861D01*
X9885071Y-34979004D01*
X9980309Y-34931385D01*
X10075547Y-34931385D01*
X10027928Y-35169480D02*
X10123166Y-35121861D01*
X10218404Y-35026623D01*
X10266023Y-34836147D01*
X10266023Y-34502814D01*
X10218404Y-34312338D01*
X10123166Y-34217100D01*
X10027928Y-34169480D01*
X9837452Y-34169480D01*
X9742214Y-34217100D01*
X9646976Y-34312338D01*
X9599357Y-34502814D01*
X9599357Y-34836147D01*
X9646976Y-35026623D01*
X9742214Y-35121861D01*
X9837452Y-35169480D01*
X10027928Y-35169480D01*
X9218404Y-34264719D02*
X9170785Y-34217100D01*
X9075547Y-34169480D01*
X8837452Y-34169480D01*
X8742214Y-34217100D01*
X8694595Y-34264719D01*
X8646976Y-34359957D01*
X8646976Y-34455195D01*
X8694595Y-34598052D01*
X9266023Y-35169480D01*
X8646976Y-35169480D01*
X42876538Y-35633019D02*
X42971776Y-35585400D01*
X43067014Y-35490161D01*
X43209871Y-35347304D01*
X43305109Y-35299685D01*
X43400347Y-35299685D01*
X43352728Y-35537780D02*
X43447966Y-35490161D01*
X43543204Y-35394923D01*
X43590823Y-35204447D01*
X43590823Y-34871114D01*
X43543204Y-34680638D01*
X43447966Y-34585400D01*
X43352728Y-34537780D01*
X43162252Y-34537780D01*
X43067014Y-34585400D01*
X42971776Y-34680638D01*
X42924157Y-34871114D01*
X42924157Y-35204447D01*
X42971776Y-35394923D01*
X43067014Y-35490161D01*
X43162252Y-35537780D01*
X43352728Y-35537780D01*
X42590823Y-34537780D02*
X41971776Y-34537780D01*
X42305109Y-34918733D01*
X42162252Y-34918733D01*
X42067014Y-34966352D01*
X42019395Y-35013971D01*
X41971776Y-35109209D01*
X41971776Y-35347304D01*
X42019395Y-35442542D01*
X42067014Y-35490161D01*
X42162252Y-35537780D01*
X42447966Y-35537780D01*
X42543204Y-35490161D01*
X42590823Y-35442542D01*
X20753138Y-35696519D02*
X20848376Y-35648900D01*
X20943614Y-35553661D01*
X21086471Y-35410804D01*
X21181709Y-35363185D01*
X21276947Y-35363185D01*
X21229328Y-35601280D02*
X21324566Y-35553661D01*
X21419804Y-35458423D01*
X21467423Y-35267947D01*
X21467423Y-34934614D01*
X21419804Y-34744138D01*
X21324566Y-34648900D01*
X21229328Y-34601280D01*
X21038852Y-34601280D01*
X20943614Y-34648900D01*
X20848376Y-34744138D01*
X20800757Y-34934614D01*
X20800757Y-35267947D01*
X20848376Y-35458423D01*
X20943614Y-35553661D01*
X21038852Y-35601280D01*
X21229328Y-35601280D01*
X19943614Y-34934614D02*
X19943614Y-35601280D01*
X20181709Y-34553661D02*
X20419804Y-35267947D01*
X19800757Y-35267947D01*
X60235361Y-32967466D02*
X60282980Y-33110323D01*
X60282980Y-33348419D01*
X60235361Y-33443657D01*
X60187742Y-33491276D01*
X60092504Y-33538895D01*
X59997266Y-33538895D01*
X59902028Y-33491276D01*
X59854409Y-33443657D01*
X59806790Y-33348419D01*
X59759171Y-33157942D01*
X59711552Y-33062704D01*
X59663933Y-33015085D01*
X59568695Y-32967466D01*
X59473457Y-32967466D01*
X59378219Y-33015085D01*
X59330600Y-33062704D01*
X59282980Y-33157942D01*
X59282980Y-33396038D01*
X59330600Y-33538895D01*
X59282980Y-33872228D02*
X60282980Y-34110323D01*
X59568695Y-34300800D01*
X60282980Y-34491276D01*
X59282980Y-34729371D01*
X60282980Y-35634133D02*
X60282980Y-35062704D01*
X60282980Y-35348419D02*
X59282980Y-35348419D01*
X59425838Y-35253180D01*
X59521076Y-35157942D01*
X59568695Y-35062704D01*
X81634861Y-33094466D02*
X81682480Y-33237323D01*
X81682480Y-33475419D01*
X81634861Y-33570657D01*
X81587242Y-33618276D01*
X81492004Y-33665895D01*
X81396766Y-33665895D01*
X81301528Y-33618276D01*
X81253909Y-33570657D01*
X81206290Y-33475419D01*
X81158671Y-33284942D01*
X81111052Y-33189704D01*
X81063433Y-33142085D01*
X80968195Y-33094466D01*
X80872957Y-33094466D01*
X80777719Y-33142085D01*
X80730100Y-33189704D01*
X80682480Y-33284942D01*
X80682480Y-33523038D01*
X80730100Y-33665895D01*
X80682480Y-33999228D02*
X81682480Y-34237323D01*
X80968195Y-34427800D01*
X81682480Y-34618276D01*
X80682480Y-34856371D01*
X80777719Y-35189704D02*
X80730100Y-35237323D01*
X80682480Y-35332561D01*
X80682480Y-35570657D01*
X80730100Y-35665895D01*
X80777719Y-35713514D01*
X80872957Y-35761133D01*
X80968195Y-35761133D01*
X81111052Y-35713514D01*
X81682480Y-35142085D01*
X81682480Y-35761133D01*
X124522761Y-33119866D02*
X124570380Y-33262723D01*
X124570380Y-33500819D01*
X124522761Y-33596057D01*
X124475142Y-33643676D01*
X124379904Y-33691295D01*
X124284666Y-33691295D01*
X124189428Y-33643676D01*
X124141809Y-33596057D01*
X124094190Y-33500819D01*
X124046571Y-33310342D01*
X123998952Y-33215104D01*
X123951333Y-33167485D01*
X123856095Y-33119866D01*
X123760857Y-33119866D01*
X123665619Y-33167485D01*
X123618000Y-33215104D01*
X123570380Y-33310342D01*
X123570380Y-33548438D01*
X123618000Y-33691295D01*
X123570380Y-34024628D02*
X124570380Y-34262723D01*
X123856095Y-34453200D01*
X124570380Y-34643676D01*
X123570380Y-34881771D01*
X123570380Y-35167485D02*
X123570380Y-35786533D01*
X123951333Y-35453200D01*
X123951333Y-35596057D01*
X123998952Y-35691295D01*
X124046571Y-35738914D01*
X124141809Y-35786533D01*
X124379904Y-35786533D01*
X124475142Y-35738914D01*
X124522761Y-35691295D01*
X124570380Y-35596057D01*
X124570380Y-35310342D01*
X124522761Y-35215104D01*
X124475142Y-35167485D01*
X103034361Y-33094466D02*
X103081980Y-33237323D01*
X103081980Y-33475419D01*
X103034361Y-33570657D01*
X102986742Y-33618276D01*
X102891504Y-33665895D01*
X102796266Y-33665895D01*
X102701028Y-33618276D01*
X102653409Y-33570657D01*
X102605790Y-33475419D01*
X102558171Y-33284942D01*
X102510552Y-33189704D01*
X102462933Y-33142085D01*
X102367695Y-33094466D01*
X102272457Y-33094466D01*
X102177219Y-33142085D01*
X102129600Y-33189704D01*
X102081980Y-33284942D01*
X102081980Y-33523038D01*
X102129600Y-33665895D01*
X102081980Y-33999228D02*
X103081980Y-34237323D01*
X102367695Y-34427800D01*
X103081980Y-34618276D01*
X102081980Y-34856371D01*
X102415314Y-35665895D02*
X103081980Y-35665895D01*
X102034361Y-35427800D02*
X102748647Y-35189704D01*
X102748647Y-35808752D01*
X124700561Y-8494566D02*
X124748180Y-8637423D01*
X124748180Y-8875519D01*
X124700561Y-8970757D01*
X124652942Y-9018376D01*
X124557704Y-9065995D01*
X124462466Y-9065995D01*
X124367228Y-9018376D01*
X124319609Y-8970757D01*
X124271990Y-8875519D01*
X124224371Y-8685042D01*
X124176752Y-8589804D01*
X124129133Y-8542185D01*
X124033895Y-8494566D01*
X123938657Y-8494566D01*
X123843419Y-8542185D01*
X123795800Y-8589804D01*
X123748180Y-8685042D01*
X123748180Y-8923138D01*
X123795800Y-9065995D01*
X123748180Y-9399328D02*
X124748180Y-9637423D01*
X124033895Y-9827900D01*
X124748180Y-10018376D01*
X123748180Y-10256471D01*
X123748180Y-11113614D02*
X123748180Y-10637423D01*
X124224371Y-10589804D01*
X124176752Y-10637423D01*
X124129133Y-10732661D01*
X124129133Y-10970757D01*
X124176752Y-11065995D01*
X124224371Y-11113614D01*
X124319609Y-11161233D01*
X124557704Y-11161233D01*
X124652942Y-11113614D01*
X124700561Y-11065995D01*
X124748180Y-10970757D01*
X124748180Y-10732661D01*
X124700561Y-10637423D01*
X124652942Y-10589804D01*
X69642980Y-33628895D02*
X70452504Y-33628895D01*
X70547742Y-33676514D01*
X70595361Y-33724133D01*
X70642980Y-33819371D01*
X70642980Y-34009847D01*
X70595361Y-34105085D01*
X70547742Y-34152704D01*
X70452504Y-34200323D01*
X69642980Y-34200323D01*
X69642980Y-34581276D02*
X69642980Y-35247942D01*
X70642980Y-34819371D01*
X91052480Y-33665895D02*
X91862004Y-33665895D01*
X91957242Y-33713514D01*
X92004861Y-33761133D01*
X92052480Y-33856371D01*
X92052480Y-34046847D01*
X92004861Y-34142085D01*
X91957242Y-34189704D01*
X91862004Y-34237323D01*
X91052480Y-34237323D01*
X91481052Y-34856371D02*
X91433433Y-34761133D01*
X91385814Y-34713514D01*
X91290576Y-34665895D01*
X91242957Y-34665895D01*
X91147719Y-34713514D01*
X91100100Y-34761133D01*
X91052480Y-34856371D01*
X91052480Y-35046847D01*
X91100100Y-35142085D01*
X91147719Y-35189704D01*
X91242957Y-35237323D01*
X91290576Y-35237323D01*
X91385814Y-35189704D01*
X91433433Y-35142085D01*
X91481052Y-35046847D01*
X91481052Y-34856371D01*
X91528671Y-34761133D01*
X91576290Y-34713514D01*
X91671528Y-34665895D01*
X91862004Y-34665895D01*
X91957242Y-34713514D01*
X92004861Y-34761133D01*
X92052480Y-34856371D01*
X92052480Y-35046847D01*
X92004861Y-35142085D01*
X91957242Y-35189704D01*
X91862004Y-35237323D01*
X91671528Y-35237323D01*
X91576290Y-35189704D01*
X91528671Y-35142085D01*
X91481052Y-35046847D01*
X133940380Y-33691295D02*
X134749904Y-33691295D01*
X134845142Y-33738914D01*
X134892761Y-33786533D01*
X134940380Y-33881771D01*
X134940380Y-34072247D01*
X134892761Y-34167485D01*
X134845142Y-34215104D01*
X134749904Y-34262723D01*
X133940380Y-34262723D01*
X134940380Y-34786533D02*
X134940380Y-34977009D01*
X134892761Y-35072247D01*
X134845142Y-35119866D01*
X134702285Y-35215104D01*
X134511809Y-35262723D01*
X134130857Y-35262723D01*
X134035619Y-35215104D01*
X133988000Y-35167485D01*
X133940380Y-35072247D01*
X133940380Y-34881771D01*
X133988000Y-34786533D01*
X134035619Y-34738914D01*
X134130857Y-34691295D01*
X134368952Y-34691295D01*
X134464190Y-34738914D01*
X134511809Y-34786533D01*
X134559428Y-34881771D01*
X134559428Y-35072247D01*
X134511809Y-35167485D01*
X134464190Y-35215104D01*
X134368952Y-35262723D01*
X112451980Y-33189704D02*
X113261504Y-33189704D01*
X113356742Y-33237323D01*
X113404361Y-33284942D01*
X113451980Y-33380180D01*
X113451980Y-33570657D01*
X113404361Y-33665895D01*
X113356742Y-33713514D01*
X113261504Y-33761133D01*
X112451980Y-33761133D01*
X113451980Y-34761133D02*
X113451980Y-34189704D01*
X113451980Y-34475419D02*
X112451980Y-34475419D01*
X112594838Y-34380180D01*
X112690076Y-34284942D01*
X112737695Y-34189704D01*
X112451980Y-35380180D02*
X112451980Y-35475419D01*
X112499600Y-35570657D01*
X112547219Y-35618276D01*
X112642457Y-35665895D01*
X112832933Y-35713514D01*
X113071028Y-35713514D01*
X113261504Y-35665895D01*
X113356742Y-35618276D01*
X113404361Y-35570657D01*
X113451980Y-35475419D01*
X113451980Y-35380180D01*
X113404361Y-35284942D01*
X113356742Y-35237323D01*
X113261504Y-35189704D01*
X113071028Y-35142085D01*
X112832933Y-35142085D01*
X112642457Y-35189704D01*
X112547219Y-35237323D01*
X112499600Y-35284942D01*
X112451980Y-35380180D01*
X134118180Y-8589804D02*
X134927704Y-8589804D01*
X135022942Y-8637423D01*
X135070561Y-8685042D01*
X135118180Y-8780280D01*
X135118180Y-8970757D01*
X135070561Y-9065995D01*
X135022942Y-9113614D01*
X134927704Y-9161233D01*
X134118180Y-9161233D01*
X135118180Y-10161233D02*
X135118180Y-9589804D01*
X135118180Y-9875519D02*
X134118180Y-9875519D01*
X134261038Y-9780280D01*
X134356276Y-9685042D01*
X134403895Y-9589804D01*
X135118180Y-11113614D02*
X135118180Y-10542185D01*
X135118180Y-10827900D02*
X134118180Y-10827900D01*
X134261038Y-10732661D01*
X134356276Y-10637423D01*
X134403895Y-10542185D01*
M02*
