G04 #@! TF.GenerationSoftware,KiCad,Pcbnew,(5.1.0)-1*
G04 #@! TF.CreationDate,2020-03-21T02:07:01+08:00*
G04 #@! TF.ProjectId,driver,64726976-6572-42e6-9b69-6361645f7063,rev?*
G04 #@! TF.SameCoordinates,Original*
G04 #@! TF.FileFunction,Legend,Bot*
G04 #@! TF.FilePolarity,Positive*
%FSLAX46Y46*%
G04 Gerber Fmt 4.6, Leading zero omitted, Abs format (unit mm)*
G04 Created by KiCad (PCBNEW (5.1.0)-1) date 2020-03-21 02:07:01*
%MOMM*%
%LPD*%
G04 APERTURE LIST*
%ADD10C,0.150000*%
%ADD11C,0.120000*%
G04 APERTURE END LIST*
D10*
X212102380Y-63414285D02*
X211102380Y-63414285D01*
X211816666Y-63747619D01*
X211102380Y-64080952D01*
X212102380Y-64080952D01*
X212054761Y-64509523D02*
X212102380Y-64652380D01*
X212102380Y-64890476D01*
X212054761Y-64985714D01*
X212007142Y-65033333D01*
X211911904Y-65080952D01*
X211816666Y-65080952D01*
X211721428Y-65033333D01*
X211673809Y-64985714D01*
X211626190Y-64890476D01*
X211578571Y-64700000D01*
X211530952Y-64604761D01*
X211483333Y-64557142D01*
X211388095Y-64509523D01*
X211292857Y-64509523D01*
X211197619Y-64557142D01*
X211150000Y-64604761D01*
X211102380Y-64700000D01*
X211102380Y-64938095D01*
X211150000Y-65080952D01*
X212102380Y-66033333D02*
X212102380Y-65461904D01*
X212102380Y-65747619D02*
X211102380Y-65747619D01*
X211245238Y-65652380D01*
X211340476Y-65557142D01*
X211388095Y-65461904D01*
X213752380Y-63414285D02*
X212752380Y-63414285D01*
X213466666Y-63747619D01*
X212752380Y-64080952D01*
X213752380Y-64080952D01*
X213704761Y-64509523D02*
X213752380Y-64652380D01*
X213752380Y-64890476D01*
X213704761Y-64985714D01*
X213657142Y-65033333D01*
X213561904Y-65080952D01*
X213466666Y-65080952D01*
X213371428Y-65033333D01*
X213323809Y-64985714D01*
X213276190Y-64890476D01*
X213228571Y-64700000D01*
X213180952Y-64604761D01*
X213133333Y-64557142D01*
X213038095Y-64509523D01*
X212942857Y-64509523D01*
X212847619Y-64557142D01*
X212800000Y-64604761D01*
X212752380Y-64700000D01*
X212752380Y-64938095D01*
X212800000Y-65080952D01*
X212847619Y-65461904D02*
X212800000Y-65509523D01*
X212752380Y-65604761D01*
X212752380Y-65842857D01*
X212800000Y-65938095D01*
X212847619Y-65985714D01*
X212942857Y-66033333D01*
X213038095Y-66033333D01*
X213180952Y-65985714D01*
X213752380Y-65414285D01*
X213752380Y-66033333D01*
X215402380Y-63414285D02*
X214402380Y-63414285D01*
X215116666Y-63747619D01*
X214402380Y-64080952D01*
X215402380Y-64080952D01*
X215354761Y-64509523D02*
X215402380Y-64652380D01*
X215402380Y-64890476D01*
X215354761Y-64985714D01*
X215307142Y-65033333D01*
X215211904Y-65080952D01*
X215116666Y-65080952D01*
X215021428Y-65033333D01*
X214973809Y-64985714D01*
X214926190Y-64890476D01*
X214878571Y-64700000D01*
X214830952Y-64604761D01*
X214783333Y-64557142D01*
X214688095Y-64509523D01*
X214592857Y-64509523D01*
X214497619Y-64557142D01*
X214450000Y-64604761D01*
X214402380Y-64700000D01*
X214402380Y-64938095D01*
X214450000Y-65080952D01*
X214402380Y-65414285D02*
X214402380Y-66033333D01*
X214783333Y-65700000D01*
X214783333Y-65842857D01*
X214830952Y-65938095D01*
X214878571Y-65985714D01*
X214973809Y-66033333D01*
X215211904Y-66033333D01*
X215307142Y-65985714D01*
X215354761Y-65938095D01*
X215402380Y-65842857D01*
X215402380Y-65557142D01*
X215354761Y-65461904D01*
X215307142Y-65414285D01*
X147402380Y-87614285D02*
X146402380Y-87614285D01*
X147116666Y-87947619D01*
X146402380Y-88280952D01*
X147402380Y-88280952D01*
X147354761Y-88709523D02*
X147402380Y-88852380D01*
X147402380Y-89090476D01*
X147354761Y-89185714D01*
X147307142Y-89233333D01*
X147211904Y-89280952D01*
X147116666Y-89280952D01*
X147021428Y-89233333D01*
X146973809Y-89185714D01*
X146926190Y-89090476D01*
X146878571Y-88900000D01*
X146830952Y-88804761D01*
X146783333Y-88757142D01*
X146688095Y-88709523D01*
X146592857Y-88709523D01*
X146497619Y-88757142D01*
X146450000Y-88804761D01*
X146402380Y-88900000D01*
X146402380Y-89138095D01*
X146450000Y-89280952D01*
X147402380Y-90233333D02*
X147402380Y-89661904D01*
X147402380Y-89947619D02*
X146402380Y-89947619D01*
X146545238Y-89852380D01*
X146640476Y-89757142D01*
X146688095Y-89661904D01*
X149052380Y-87614285D02*
X148052380Y-87614285D01*
X148766666Y-87947619D01*
X148052380Y-88280952D01*
X149052380Y-88280952D01*
X149004761Y-88709523D02*
X149052380Y-88852380D01*
X149052380Y-89090476D01*
X149004761Y-89185714D01*
X148957142Y-89233333D01*
X148861904Y-89280952D01*
X148766666Y-89280952D01*
X148671428Y-89233333D01*
X148623809Y-89185714D01*
X148576190Y-89090476D01*
X148528571Y-88900000D01*
X148480952Y-88804761D01*
X148433333Y-88757142D01*
X148338095Y-88709523D01*
X148242857Y-88709523D01*
X148147619Y-88757142D01*
X148100000Y-88804761D01*
X148052380Y-88900000D01*
X148052380Y-89138095D01*
X148100000Y-89280952D01*
X148147619Y-89661904D02*
X148100000Y-89709523D01*
X148052380Y-89804761D01*
X148052380Y-90042857D01*
X148100000Y-90138095D01*
X148147619Y-90185714D01*
X148242857Y-90233333D01*
X148338095Y-90233333D01*
X148480952Y-90185714D01*
X149052380Y-89614285D01*
X149052380Y-90233333D01*
X150702380Y-87614285D02*
X149702380Y-87614285D01*
X150416666Y-87947619D01*
X149702380Y-88280952D01*
X150702380Y-88280952D01*
X150654761Y-88709523D02*
X150702380Y-88852380D01*
X150702380Y-89090476D01*
X150654761Y-89185714D01*
X150607142Y-89233333D01*
X150511904Y-89280952D01*
X150416666Y-89280952D01*
X150321428Y-89233333D01*
X150273809Y-89185714D01*
X150226190Y-89090476D01*
X150178571Y-88900000D01*
X150130952Y-88804761D01*
X150083333Y-88757142D01*
X149988095Y-88709523D01*
X149892857Y-88709523D01*
X149797619Y-88757142D01*
X149750000Y-88804761D01*
X149702380Y-88900000D01*
X149702380Y-89138095D01*
X149750000Y-89280952D01*
X149702380Y-89614285D02*
X149702380Y-90233333D01*
X150083333Y-89900000D01*
X150083333Y-90042857D01*
X150130952Y-90138095D01*
X150178571Y-90185714D01*
X150273809Y-90233333D01*
X150511904Y-90233333D01*
X150607142Y-90185714D01*
X150654761Y-90138095D01*
X150702380Y-90042857D01*
X150702380Y-89757142D01*
X150654761Y-89661904D01*
X150607142Y-89614285D01*
X169002380Y-88214285D02*
X168002380Y-88214285D01*
X168716666Y-88547619D01*
X168002380Y-88880952D01*
X169002380Y-88880952D01*
X168954761Y-89309523D02*
X169002380Y-89452380D01*
X169002380Y-89690476D01*
X168954761Y-89785714D01*
X168907142Y-89833333D01*
X168811904Y-89880952D01*
X168716666Y-89880952D01*
X168621428Y-89833333D01*
X168573809Y-89785714D01*
X168526190Y-89690476D01*
X168478571Y-89500000D01*
X168430952Y-89404761D01*
X168383333Y-89357142D01*
X168288095Y-89309523D01*
X168192857Y-89309523D01*
X168097619Y-89357142D01*
X168050000Y-89404761D01*
X168002380Y-89500000D01*
X168002380Y-89738095D01*
X168050000Y-89880952D01*
X169002380Y-90833333D02*
X169002380Y-90261904D01*
X169002380Y-90547619D02*
X168002380Y-90547619D01*
X168145238Y-90452380D01*
X168240476Y-90357142D01*
X168288095Y-90261904D01*
X170652380Y-88214285D02*
X169652380Y-88214285D01*
X170366666Y-88547619D01*
X169652380Y-88880952D01*
X170652380Y-88880952D01*
X170604761Y-89309523D02*
X170652380Y-89452380D01*
X170652380Y-89690476D01*
X170604761Y-89785714D01*
X170557142Y-89833333D01*
X170461904Y-89880952D01*
X170366666Y-89880952D01*
X170271428Y-89833333D01*
X170223809Y-89785714D01*
X170176190Y-89690476D01*
X170128571Y-89500000D01*
X170080952Y-89404761D01*
X170033333Y-89357142D01*
X169938095Y-89309523D01*
X169842857Y-89309523D01*
X169747619Y-89357142D01*
X169700000Y-89404761D01*
X169652380Y-89500000D01*
X169652380Y-89738095D01*
X169700000Y-89880952D01*
X169747619Y-90261904D02*
X169700000Y-90309523D01*
X169652380Y-90404761D01*
X169652380Y-90642857D01*
X169700000Y-90738095D01*
X169747619Y-90785714D01*
X169842857Y-90833333D01*
X169938095Y-90833333D01*
X170080952Y-90785714D01*
X170652380Y-90214285D01*
X170652380Y-90833333D01*
X172302380Y-88214285D02*
X171302380Y-88214285D01*
X172016666Y-88547619D01*
X171302380Y-88880952D01*
X172302380Y-88880952D01*
X172254761Y-89309523D02*
X172302380Y-89452380D01*
X172302380Y-89690476D01*
X172254761Y-89785714D01*
X172207142Y-89833333D01*
X172111904Y-89880952D01*
X172016666Y-89880952D01*
X171921428Y-89833333D01*
X171873809Y-89785714D01*
X171826190Y-89690476D01*
X171778571Y-89500000D01*
X171730952Y-89404761D01*
X171683333Y-89357142D01*
X171588095Y-89309523D01*
X171492857Y-89309523D01*
X171397619Y-89357142D01*
X171350000Y-89404761D01*
X171302380Y-89500000D01*
X171302380Y-89738095D01*
X171350000Y-89880952D01*
X171302380Y-90214285D02*
X171302380Y-90833333D01*
X171683333Y-90500000D01*
X171683333Y-90642857D01*
X171730952Y-90738095D01*
X171778571Y-90785714D01*
X171873809Y-90833333D01*
X172111904Y-90833333D01*
X172207142Y-90785714D01*
X172254761Y-90738095D01*
X172302380Y-90642857D01*
X172302380Y-90357142D01*
X172254761Y-90261904D01*
X172207142Y-90214285D01*
X190302380Y-88214285D02*
X189302380Y-88214285D01*
X190016666Y-88547619D01*
X189302380Y-88880952D01*
X190302380Y-88880952D01*
X190254761Y-89309523D02*
X190302380Y-89452380D01*
X190302380Y-89690476D01*
X190254761Y-89785714D01*
X190207142Y-89833333D01*
X190111904Y-89880952D01*
X190016666Y-89880952D01*
X189921428Y-89833333D01*
X189873809Y-89785714D01*
X189826190Y-89690476D01*
X189778571Y-89500000D01*
X189730952Y-89404761D01*
X189683333Y-89357142D01*
X189588095Y-89309523D01*
X189492857Y-89309523D01*
X189397619Y-89357142D01*
X189350000Y-89404761D01*
X189302380Y-89500000D01*
X189302380Y-89738095D01*
X189350000Y-89880952D01*
X190302380Y-90833333D02*
X190302380Y-90261904D01*
X190302380Y-90547619D02*
X189302380Y-90547619D01*
X189445238Y-90452380D01*
X189540476Y-90357142D01*
X189588095Y-90261904D01*
X191952380Y-88214285D02*
X190952380Y-88214285D01*
X191666666Y-88547619D01*
X190952380Y-88880952D01*
X191952380Y-88880952D01*
X191904761Y-89309523D02*
X191952380Y-89452380D01*
X191952380Y-89690476D01*
X191904761Y-89785714D01*
X191857142Y-89833333D01*
X191761904Y-89880952D01*
X191666666Y-89880952D01*
X191571428Y-89833333D01*
X191523809Y-89785714D01*
X191476190Y-89690476D01*
X191428571Y-89500000D01*
X191380952Y-89404761D01*
X191333333Y-89357142D01*
X191238095Y-89309523D01*
X191142857Y-89309523D01*
X191047619Y-89357142D01*
X191000000Y-89404761D01*
X190952380Y-89500000D01*
X190952380Y-89738095D01*
X191000000Y-89880952D01*
X191047619Y-90261904D02*
X191000000Y-90309523D01*
X190952380Y-90404761D01*
X190952380Y-90642857D01*
X191000000Y-90738095D01*
X191047619Y-90785714D01*
X191142857Y-90833333D01*
X191238095Y-90833333D01*
X191380952Y-90785714D01*
X191952380Y-90214285D01*
X191952380Y-90833333D01*
X193602380Y-88214285D02*
X192602380Y-88214285D01*
X193316666Y-88547619D01*
X192602380Y-88880952D01*
X193602380Y-88880952D01*
X193554761Y-89309523D02*
X193602380Y-89452380D01*
X193602380Y-89690476D01*
X193554761Y-89785714D01*
X193507142Y-89833333D01*
X193411904Y-89880952D01*
X193316666Y-89880952D01*
X193221428Y-89833333D01*
X193173809Y-89785714D01*
X193126190Y-89690476D01*
X193078571Y-89500000D01*
X193030952Y-89404761D01*
X192983333Y-89357142D01*
X192888095Y-89309523D01*
X192792857Y-89309523D01*
X192697619Y-89357142D01*
X192650000Y-89404761D01*
X192602380Y-89500000D01*
X192602380Y-89738095D01*
X192650000Y-89880952D01*
X192602380Y-90214285D02*
X192602380Y-90833333D01*
X192983333Y-90500000D01*
X192983333Y-90642857D01*
X193030952Y-90738095D01*
X193078571Y-90785714D01*
X193173809Y-90833333D01*
X193411904Y-90833333D01*
X193507142Y-90785714D01*
X193554761Y-90738095D01*
X193602380Y-90642857D01*
X193602380Y-90357142D01*
X193554761Y-90261904D01*
X193507142Y-90214285D01*
X212102380Y-88214285D02*
X211102380Y-88214285D01*
X211816666Y-88547619D01*
X211102380Y-88880952D01*
X212102380Y-88880952D01*
X212054761Y-89309523D02*
X212102380Y-89452380D01*
X212102380Y-89690476D01*
X212054761Y-89785714D01*
X212007142Y-89833333D01*
X211911904Y-89880952D01*
X211816666Y-89880952D01*
X211721428Y-89833333D01*
X211673809Y-89785714D01*
X211626190Y-89690476D01*
X211578571Y-89500000D01*
X211530952Y-89404761D01*
X211483333Y-89357142D01*
X211388095Y-89309523D01*
X211292857Y-89309523D01*
X211197619Y-89357142D01*
X211150000Y-89404761D01*
X211102380Y-89500000D01*
X211102380Y-89738095D01*
X211150000Y-89880952D01*
X212102380Y-90833333D02*
X212102380Y-90261904D01*
X212102380Y-90547619D02*
X211102380Y-90547619D01*
X211245238Y-90452380D01*
X211340476Y-90357142D01*
X211388095Y-90261904D01*
X213752380Y-88214285D02*
X212752380Y-88214285D01*
X213466666Y-88547619D01*
X212752380Y-88880952D01*
X213752380Y-88880952D01*
X213704761Y-89309523D02*
X213752380Y-89452380D01*
X213752380Y-89690476D01*
X213704761Y-89785714D01*
X213657142Y-89833333D01*
X213561904Y-89880952D01*
X213466666Y-89880952D01*
X213371428Y-89833333D01*
X213323809Y-89785714D01*
X213276190Y-89690476D01*
X213228571Y-89500000D01*
X213180952Y-89404761D01*
X213133333Y-89357142D01*
X213038095Y-89309523D01*
X212942857Y-89309523D01*
X212847619Y-89357142D01*
X212800000Y-89404761D01*
X212752380Y-89500000D01*
X212752380Y-89738095D01*
X212800000Y-89880952D01*
X212847619Y-90261904D02*
X212800000Y-90309523D01*
X212752380Y-90404761D01*
X212752380Y-90642857D01*
X212800000Y-90738095D01*
X212847619Y-90785714D01*
X212942857Y-90833333D01*
X213038095Y-90833333D01*
X213180952Y-90785714D01*
X213752380Y-90214285D01*
X213752380Y-90833333D01*
X215402380Y-88214285D02*
X214402380Y-88214285D01*
X215116666Y-88547619D01*
X214402380Y-88880952D01*
X215402380Y-88880952D01*
X215354761Y-89309523D02*
X215402380Y-89452380D01*
X215402380Y-89690476D01*
X215354761Y-89785714D01*
X215307142Y-89833333D01*
X215211904Y-89880952D01*
X215116666Y-89880952D01*
X215021428Y-89833333D01*
X214973809Y-89785714D01*
X214926190Y-89690476D01*
X214878571Y-89500000D01*
X214830952Y-89404761D01*
X214783333Y-89357142D01*
X214688095Y-89309523D01*
X214592857Y-89309523D01*
X214497619Y-89357142D01*
X214450000Y-89404761D01*
X214402380Y-89500000D01*
X214402380Y-89738095D01*
X214450000Y-89880952D01*
X214402380Y-90214285D02*
X214402380Y-90833333D01*
X214783333Y-90500000D01*
X214783333Y-90642857D01*
X214830952Y-90738095D01*
X214878571Y-90785714D01*
X214973809Y-90833333D01*
X215211904Y-90833333D01*
X215307142Y-90785714D01*
X215354761Y-90738095D01*
X215402380Y-90642857D01*
X215402380Y-90357142D01*
X215354761Y-90261904D01*
X215307142Y-90214285D01*
X97304761Y-73871428D02*
X96542857Y-73871428D01*
X96923809Y-74252380D02*
X96923809Y-73490476D01*
X92257142Y-73871428D02*
X91495238Y-73871428D01*
X97804761Y-56271428D02*
X97042857Y-56271428D01*
X97423809Y-56652380D02*
X97423809Y-55890476D01*
X92757142Y-56271428D02*
X91995238Y-56271428D01*
X88153571Y-63880952D02*
X88153571Y-63119047D01*
X87772619Y-63500000D02*
X88534523Y-63500000D01*
X86503571Y-63880952D02*
X86503571Y-63119047D01*
X87947619Y-62461904D02*
X86947619Y-62128571D01*
X87947619Y-61795238D01*
X86947619Y-61461904D02*
X87947619Y-61461904D01*
X87947619Y-61223809D01*
X87900000Y-61080952D01*
X87804761Y-60985714D01*
X87709523Y-60938095D01*
X87519047Y-60890476D01*
X87376190Y-60890476D01*
X87185714Y-60938095D01*
X87090476Y-60985714D01*
X86995238Y-61080952D01*
X86947619Y-61223809D01*
X86947619Y-61461904D01*
X86947619Y-59890476D02*
X87423809Y-60223809D01*
X86947619Y-60461904D02*
X87947619Y-60461904D01*
X87947619Y-60080952D01*
X87900000Y-59985714D01*
X87852380Y-59938095D01*
X87757142Y-59890476D01*
X87614285Y-59890476D01*
X87519047Y-59938095D01*
X87471428Y-59985714D01*
X87423809Y-60080952D01*
X87423809Y-60461904D01*
X87947619Y-59604761D02*
X86947619Y-59271428D01*
X87947619Y-58938095D01*
X88053571Y-73180952D02*
X88053571Y-72419047D01*
X87672619Y-72800000D02*
X88434523Y-72800000D01*
X86403571Y-73180952D02*
X86403571Y-72419047D01*
X86947619Y-71609523D02*
X87947619Y-71609523D01*
X87947619Y-71228571D01*
X87900000Y-71133333D01*
X87852380Y-71085714D01*
X87757142Y-71038095D01*
X87614285Y-71038095D01*
X87519047Y-71085714D01*
X87471428Y-71133333D01*
X87423809Y-71228571D01*
X87423809Y-71609523D01*
X87947619Y-70419047D02*
X87947619Y-70228571D01*
X87900000Y-70133333D01*
X87804761Y-70038095D01*
X87614285Y-69990476D01*
X87280952Y-69990476D01*
X87090476Y-70038095D01*
X86995238Y-70133333D01*
X86947619Y-70228571D01*
X86947619Y-70419047D01*
X86995238Y-70514285D01*
X87090476Y-70609523D01*
X87280952Y-70657142D01*
X87614285Y-70657142D01*
X87804761Y-70609523D01*
X87900000Y-70514285D01*
X87947619Y-70419047D01*
X87947619Y-69657142D02*
X86947619Y-69419047D01*
X87661904Y-69228571D01*
X86947619Y-69038095D01*
X87947619Y-68800000D01*
X87471428Y-68419047D02*
X87471428Y-68085714D01*
X86947619Y-67942857D02*
X86947619Y-68419047D01*
X87947619Y-68419047D01*
X87947619Y-67942857D01*
X86947619Y-66942857D02*
X87423809Y-67276190D01*
X86947619Y-67514285D02*
X87947619Y-67514285D01*
X87947619Y-67133333D01*
X87900000Y-67038095D01*
X87852380Y-66990476D01*
X87757142Y-66942857D01*
X87614285Y-66942857D01*
X87519047Y-66990476D01*
X87471428Y-67038095D01*
X87423809Y-67133333D01*
X87423809Y-67514285D01*
X125780952Y-105471428D02*
X125019047Y-105471428D01*
X130780952Y-105471428D02*
X130019047Y-105471428D01*
X130400000Y-105852380D02*
X130400000Y-105090476D01*
X113980952Y-105571428D02*
X113219047Y-105571428D01*
X119980952Y-105571428D02*
X119219047Y-105571428D01*
X119600000Y-105952380D02*
X119600000Y-105190476D01*
X103180952Y-105571428D02*
X102419047Y-105571428D01*
X108980952Y-105571428D02*
X108219047Y-105571428D01*
X108600000Y-105952380D02*
X108600000Y-105190476D01*
X92280952Y-105571428D02*
X91519047Y-105571428D01*
X97280952Y-105571428D02*
X96519047Y-105571428D01*
X96900000Y-105952380D02*
X96900000Y-105190476D01*
X95380952Y-105528571D02*
X95238095Y-105576190D01*
X95190476Y-105623809D01*
X95142857Y-105719047D01*
X95142857Y-105861904D01*
X95190476Y-105957142D01*
X95238095Y-106004761D01*
X95333333Y-106052380D01*
X95714285Y-106052380D01*
X95714285Y-105052380D01*
X95380952Y-105052380D01*
X95285714Y-105100000D01*
X95238095Y-105147619D01*
X95190476Y-105242857D01*
X95190476Y-105338095D01*
X95238095Y-105433333D01*
X95285714Y-105480952D01*
X95380952Y-105528571D01*
X95714285Y-105528571D01*
X94714285Y-105528571D02*
X94380952Y-105528571D01*
X94238095Y-106052380D02*
X94714285Y-106052380D01*
X94714285Y-105052380D01*
X94238095Y-105052380D01*
X93809523Y-106052380D02*
X93809523Y-105052380D01*
X93571428Y-105052380D01*
X93428571Y-105100000D01*
X93333333Y-105195238D01*
X93285714Y-105290476D01*
X93238095Y-105480952D01*
X93238095Y-105623809D01*
X93285714Y-105814285D01*
X93333333Y-105909523D01*
X93428571Y-106004761D01*
X93571428Y-106052380D01*
X93809523Y-106052380D01*
X107723809Y-106052380D02*
X107723809Y-105052380D01*
X107723809Y-105528571D02*
X107152380Y-105528571D01*
X107152380Y-106052380D02*
X107152380Y-105052380D01*
X106676190Y-105528571D02*
X106342857Y-105528571D01*
X106200000Y-106052380D02*
X106676190Y-106052380D01*
X106676190Y-105052380D01*
X106200000Y-105052380D01*
X105819047Y-105766666D02*
X105342857Y-105766666D01*
X105914285Y-106052380D02*
X105580952Y-105052380D01*
X105247619Y-106052380D01*
X105057142Y-105052380D02*
X104485714Y-105052380D01*
X104771428Y-106052380D02*
X104771428Y-105052380D01*
X103628571Y-106052380D02*
X104200000Y-106052380D01*
X103914285Y-106052380D02*
X103914285Y-105052380D01*
X104009523Y-105195238D01*
X104104761Y-105290476D01*
X104200000Y-105338095D01*
X118723809Y-106052380D02*
X118723809Y-105052380D01*
X118723809Y-105528571D02*
X118152380Y-105528571D01*
X118152380Y-106052380D02*
X118152380Y-105052380D01*
X117676190Y-105528571D02*
X117342857Y-105528571D01*
X117200000Y-106052380D02*
X117676190Y-106052380D01*
X117676190Y-105052380D01*
X117200000Y-105052380D01*
X116819047Y-105766666D02*
X116342857Y-105766666D01*
X116914285Y-106052380D02*
X116580952Y-105052380D01*
X116247619Y-106052380D01*
X116057142Y-105052380D02*
X115485714Y-105052380D01*
X115771428Y-106052380D02*
X115771428Y-105052380D01*
X115200000Y-105147619D02*
X115152380Y-105100000D01*
X115057142Y-105052380D01*
X114819047Y-105052380D01*
X114723809Y-105100000D01*
X114676190Y-105147619D01*
X114628571Y-105242857D01*
X114628571Y-105338095D01*
X114676190Y-105480952D01*
X115247619Y-106052380D01*
X114628571Y-106052380D01*
X128609523Y-105428571D02*
X128942857Y-105428571D01*
X128942857Y-105952380D02*
X128942857Y-104952380D01*
X128466666Y-104952380D01*
X128133333Y-105666666D02*
X127657142Y-105666666D01*
X128228571Y-105952380D02*
X127895238Y-104952380D01*
X127561904Y-105952380D01*
X127228571Y-105952380D02*
X127228571Y-104952380D01*
X126657142Y-105952380D01*
X126657142Y-104952380D01*
X158247619Y-67652380D02*
X157676190Y-67652380D01*
X157961904Y-68652380D02*
X157961904Y-67652380D01*
X157152380Y-67652380D02*
X156961904Y-67652380D01*
X156866666Y-67700000D01*
X156771428Y-67795238D01*
X156723809Y-67985714D01*
X156723809Y-68319047D01*
X156771428Y-68509523D01*
X156866666Y-68604761D01*
X156961904Y-68652380D01*
X157152380Y-68652380D01*
X157247619Y-68604761D01*
X157342857Y-68509523D01*
X157390476Y-68319047D01*
X157390476Y-67985714D01*
X157342857Y-67795238D01*
X157247619Y-67700000D01*
X157152380Y-67652380D01*
X156104761Y-67652380D02*
X155914285Y-67652380D01*
X155819047Y-67700000D01*
X155723809Y-67795238D01*
X155676190Y-67985714D01*
X155676190Y-68319047D01*
X155723809Y-68509523D01*
X155819047Y-68604761D01*
X155914285Y-68652380D01*
X156104761Y-68652380D01*
X156200000Y-68604761D01*
X156295238Y-68509523D01*
X156342857Y-68319047D01*
X156342857Y-67985714D01*
X156295238Y-67795238D01*
X156200000Y-67700000D01*
X156104761Y-67652380D01*
X154771428Y-68652380D02*
X155247619Y-68652380D01*
X155247619Y-67652380D01*
X154485714Y-68604761D02*
X154342857Y-68652380D01*
X154104761Y-68652380D01*
X154009523Y-68604761D01*
X153961904Y-68557142D01*
X153914285Y-68461904D01*
X153914285Y-68366666D01*
X153961904Y-68271428D01*
X154009523Y-68223809D01*
X154104761Y-68176190D01*
X154295238Y-68128571D01*
X154390476Y-68080952D01*
X154438095Y-68033333D01*
X154485714Y-67938095D01*
X154485714Y-67842857D01*
X154438095Y-67747619D01*
X154390476Y-67700000D01*
X154295238Y-67652380D01*
X154057142Y-67652380D01*
X153914285Y-67700000D01*
X153485714Y-68128571D02*
X153152380Y-68128571D01*
X153009523Y-68652380D02*
X153485714Y-68652380D01*
X153485714Y-67652380D01*
X153009523Y-67652380D01*
X152723809Y-67652380D02*
X152152380Y-67652380D01*
X152438095Y-68652380D02*
X152438095Y-67652380D01*
X161376190Y-77052380D02*
X161376190Y-76052380D01*
X160947619Y-76147619D02*
X160900000Y-76100000D01*
X160804761Y-76052380D01*
X160566666Y-76052380D01*
X160471428Y-76100000D01*
X160423809Y-76147619D01*
X160376190Y-76242857D01*
X160376190Y-76338095D01*
X160423809Y-76480952D01*
X160995238Y-77052380D01*
X160376190Y-77052380D01*
X159376190Y-76957142D02*
X159423809Y-77004761D01*
X159566666Y-77052380D01*
X159661904Y-77052380D01*
X159804761Y-77004761D01*
X159900000Y-76909523D01*
X159947619Y-76814285D01*
X159995238Y-76623809D01*
X159995238Y-76480952D01*
X159947619Y-76290476D01*
X159900000Y-76195238D01*
X159804761Y-76100000D01*
X159661904Y-76052380D01*
X159566666Y-76052380D01*
X159423809Y-76100000D01*
X159376190Y-76147619D01*
X131409523Y-77052380D02*
X130742857Y-77052380D01*
X131409523Y-78052380D01*
X130742857Y-78052380D01*
X130361904Y-78052380D02*
X130361904Y-77052380D01*
X130028571Y-77766666D01*
X129695238Y-77052380D01*
X129695238Y-78052380D01*
X129266666Y-77766666D02*
X128790476Y-77766666D01*
X129361904Y-78052380D02*
X129028571Y-77052380D01*
X128695238Y-78052380D01*
X128457142Y-77052380D02*
X127790476Y-78052380D01*
X127790476Y-77052380D02*
X128457142Y-78052380D01*
X131466666Y-73152380D02*
X130800000Y-73152380D01*
X131466666Y-74152380D01*
X130800000Y-74152380D01*
X130419047Y-74152380D02*
X130419047Y-73152380D01*
X130085714Y-73866666D01*
X129752380Y-73152380D01*
X129752380Y-74152380D01*
X129276190Y-74152380D02*
X129276190Y-73152380D01*
X128800000Y-74152380D02*
X128800000Y-73152380D01*
X128228571Y-74152380D01*
X128228571Y-73152380D01*
X131276190Y-70076190D02*
X131276190Y-70552380D01*
X131609523Y-69552380D02*
X131276190Y-70076190D01*
X130942857Y-69552380D01*
X130609523Y-70552380D02*
X130609523Y-69552380D01*
X130276190Y-70266666D01*
X129942857Y-69552380D01*
X129942857Y-70552380D01*
X129514285Y-70266666D02*
X129038095Y-70266666D01*
X129609523Y-70552380D02*
X129276190Y-69552380D01*
X128942857Y-70552380D01*
X128704761Y-69552380D02*
X128038095Y-70552380D01*
X128038095Y-69552380D02*
X128704761Y-70552380D01*
X131133333Y-66176190D02*
X131133333Y-66652380D01*
X131466666Y-65652380D02*
X131133333Y-66176190D01*
X130800000Y-65652380D01*
X130466666Y-66652380D02*
X130466666Y-65652380D01*
X130133333Y-66366666D01*
X129800000Y-65652380D01*
X129800000Y-66652380D01*
X129323809Y-66652380D02*
X129323809Y-65652380D01*
X128847619Y-66652380D02*
X128847619Y-65652380D01*
X128276190Y-66652380D01*
X128276190Y-65652380D01*
X131409523Y-61452380D02*
X130742857Y-62452380D01*
X130742857Y-61452380D02*
X131409523Y-62452380D01*
X130361904Y-62452380D02*
X130361904Y-61452380D01*
X130028571Y-62166666D01*
X129695238Y-61452380D01*
X129695238Y-62452380D01*
X129266666Y-62166666D02*
X128790476Y-62166666D01*
X129361904Y-62452380D02*
X129028571Y-61452380D01*
X128695238Y-62452380D01*
X128457142Y-61452380D02*
X127790476Y-62452380D01*
X127790476Y-61452380D02*
X128457142Y-62452380D01*
X131266666Y-57452380D02*
X130600000Y-58452380D01*
X130600000Y-57452380D02*
X131266666Y-58452380D01*
X130219047Y-58452380D02*
X130219047Y-57452380D01*
X129885714Y-58166666D01*
X129552380Y-57452380D01*
X129552380Y-58452380D01*
X129076190Y-58452380D02*
X129076190Y-57452380D01*
X128600000Y-58452380D02*
X128600000Y-57452380D01*
X128028571Y-58452380D01*
X128028571Y-57452380D01*
X153314285Y-78366666D02*
X152838095Y-78366666D01*
X153409523Y-78652380D02*
X153076190Y-77652380D01*
X152742857Y-78652380D01*
X152409523Y-77652380D02*
X152409523Y-78461904D01*
X152361904Y-78557142D01*
X152314285Y-78604761D01*
X152219047Y-78652380D01*
X152028571Y-78652380D01*
X151933333Y-78604761D01*
X151885714Y-78557142D01*
X151838095Y-78461904D01*
X151838095Y-77652380D01*
X151457142Y-77652380D02*
X150790476Y-78652380D01*
X150790476Y-77652380D02*
X151457142Y-78652380D01*
X150219047Y-77652380D02*
X150123809Y-77652380D01*
X150028571Y-77700000D01*
X149980952Y-77747619D01*
X149933333Y-77842857D01*
X149885714Y-78033333D01*
X149885714Y-78271428D01*
X149933333Y-78461904D01*
X149980952Y-78557142D01*
X150028571Y-78604761D01*
X150123809Y-78652380D01*
X150219047Y-78652380D01*
X150314285Y-78604761D01*
X150361904Y-78557142D01*
X150409523Y-78461904D01*
X150457142Y-78271428D01*
X150457142Y-78033333D01*
X150409523Y-77842857D01*
X150361904Y-77747619D01*
X150314285Y-77700000D01*
X150219047Y-77652380D01*
X154714285Y-74366666D02*
X154238095Y-74366666D01*
X154809523Y-74652380D02*
X154476190Y-73652380D01*
X154142857Y-74652380D01*
X153809523Y-73652380D02*
X153809523Y-74461904D01*
X153761904Y-74557142D01*
X153714285Y-74604761D01*
X153619047Y-74652380D01*
X153428571Y-74652380D01*
X153333333Y-74604761D01*
X153285714Y-74557142D01*
X153238095Y-74461904D01*
X153238095Y-73652380D01*
X152857142Y-73652380D02*
X152190476Y-74652380D01*
X152190476Y-73652380D02*
X152857142Y-74652380D01*
X151285714Y-74652380D02*
X151857142Y-74652380D01*
X151571428Y-74652380D02*
X151571428Y-73652380D01*
X151666666Y-73795238D01*
X151761904Y-73890476D01*
X151857142Y-73938095D01*
X154714285Y-70766666D02*
X154238095Y-70766666D01*
X154809523Y-71052380D02*
X154476190Y-70052380D01*
X154142857Y-71052380D01*
X153809523Y-70052380D02*
X153809523Y-70861904D01*
X153761904Y-70957142D01*
X153714285Y-71004761D01*
X153619047Y-71052380D01*
X153428571Y-71052380D01*
X153333333Y-71004761D01*
X153285714Y-70957142D01*
X153238095Y-70861904D01*
X153238095Y-70052380D01*
X152857142Y-70052380D02*
X152190476Y-71052380D01*
X152190476Y-70052380D02*
X152857142Y-71052380D01*
X151857142Y-70147619D02*
X151809523Y-70100000D01*
X151714285Y-70052380D01*
X151476190Y-70052380D01*
X151380952Y-70100000D01*
X151333333Y-70147619D01*
X151285714Y-70242857D01*
X151285714Y-70338095D01*
X151333333Y-70480952D01*
X151904761Y-71052380D01*
X151285714Y-71052380D01*
X147514285Y-64766666D02*
X147038095Y-64766666D01*
X147609523Y-65052380D02*
X147276190Y-64052380D01*
X146942857Y-65052380D01*
X146609523Y-64052380D02*
X146609523Y-64861904D01*
X146561904Y-64957142D01*
X146514285Y-65004761D01*
X146419047Y-65052380D01*
X146228571Y-65052380D01*
X146133333Y-65004761D01*
X146085714Y-64957142D01*
X146038095Y-64861904D01*
X146038095Y-64052380D01*
X145657142Y-64052380D02*
X144990476Y-65052380D01*
X144990476Y-64052380D02*
X145657142Y-65052380D01*
X144704761Y-64052380D02*
X144085714Y-64052380D01*
X144419047Y-64433333D01*
X144276190Y-64433333D01*
X144180952Y-64480952D01*
X144133333Y-64528571D01*
X144085714Y-64623809D01*
X144085714Y-64861904D01*
X144133333Y-64957142D01*
X144180952Y-65004761D01*
X144276190Y-65052380D01*
X144561904Y-65052380D01*
X144657142Y-65004761D01*
X144704761Y-64957142D01*
X145785714Y-61952380D02*
X145214285Y-61952380D01*
X145500000Y-62952380D02*
X145500000Y-61952380D01*
X144880952Y-62428571D02*
X144547619Y-62428571D01*
X144404761Y-62952380D02*
X144880952Y-62952380D01*
X144880952Y-61952380D01*
X144404761Y-61952380D01*
X143976190Y-62952380D02*
X143976190Y-61952380D01*
X143642857Y-62666666D01*
X143309523Y-61952380D01*
X143309523Y-62952380D01*
X142833333Y-62952380D02*
X142833333Y-61952380D01*
X142452380Y-61952380D01*
X142357142Y-62000000D01*
X142309523Y-62047619D01*
X142261904Y-62142857D01*
X142261904Y-62285714D01*
X142309523Y-62380952D01*
X142357142Y-62428571D01*
X142452380Y-62476190D01*
X142833333Y-62476190D01*
X141880952Y-62047619D02*
X141833333Y-62000000D01*
X141738095Y-61952380D01*
X141500000Y-61952380D01*
X141404761Y-62000000D01*
X141357142Y-62047619D01*
X141309523Y-62142857D01*
X141309523Y-62238095D01*
X141357142Y-62380952D01*
X141928571Y-62952380D01*
X141309523Y-62952380D01*
X150185714Y-55352380D02*
X149614285Y-55352380D01*
X149900000Y-56352380D02*
X149900000Y-55352380D01*
X149280952Y-55828571D02*
X148947619Y-55828571D01*
X148804761Y-56352380D02*
X149280952Y-56352380D01*
X149280952Y-55352380D01*
X148804761Y-55352380D01*
X148376190Y-56352380D02*
X148376190Y-55352380D01*
X148042857Y-56066666D01*
X147709523Y-55352380D01*
X147709523Y-56352380D01*
X147233333Y-56352380D02*
X147233333Y-55352380D01*
X146852380Y-55352380D01*
X146757142Y-55400000D01*
X146709523Y-55447619D01*
X146661904Y-55542857D01*
X146661904Y-55685714D01*
X146709523Y-55780952D01*
X146757142Y-55828571D01*
X146852380Y-55876190D01*
X147233333Y-55876190D01*
X145709523Y-56352380D02*
X146280952Y-56352380D01*
X145995238Y-56352380D02*
X145995238Y-55352380D01*
X146090476Y-55495238D01*
X146185714Y-55590476D01*
X146280952Y-55638095D01*
X157485714Y-62828571D02*
X157342857Y-62876190D01*
X157295238Y-62923809D01*
X157247619Y-63019047D01*
X157247619Y-63161904D01*
X157295238Y-63257142D01*
X157342857Y-63304761D01*
X157438095Y-63352380D01*
X157819047Y-63352380D01*
X157819047Y-62352380D01*
X157485714Y-62352380D01*
X157390476Y-62400000D01*
X157342857Y-62447619D01*
X157295238Y-62542857D01*
X157295238Y-62638095D01*
X157342857Y-62733333D01*
X157390476Y-62780952D01*
X157485714Y-62828571D01*
X157819047Y-62828571D01*
X156819047Y-62828571D02*
X156485714Y-62828571D01*
X156342857Y-63352380D02*
X156819047Y-63352380D01*
X156819047Y-62352380D01*
X156342857Y-62352380D01*
X155914285Y-63352380D02*
X155914285Y-62352380D01*
X155676190Y-62352380D01*
X155533333Y-62400000D01*
X155438095Y-62495238D01*
X155390476Y-62590476D01*
X155342857Y-62780952D01*
X155342857Y-62923809D01*
X155390476Y-63114285D01*
X155438095Y-63209523D01*
X155533333Y-63304761D01*
X155676190Y-63352380D01*
X155914285Y-63352380D01*
X155057142Y-62352380D02*
X154485714Y-62352380D01*
X154771428Y-63352380D02*
X154771428Y-62352380D01*
X154152380Y-62828571D02*
X153819047Y-62828571D01*
X153676190Y-63352380D02*
X154152380Y-63352380D01*
X154152380Y-62352380D01*
X153676190Y-62352380D01*
X153247619Y-63352380D02*
X153247619Y-62352380D01*
X152914285Y-63066666D01*
X152580952Y-62352380D01*
X152580952Y-63352380D01*
X152104761Y-63352380D02*
X152104761Y-62352380D01*
X151723809Y-62352380D01*
X151628571Y-62400000D01*
X151580952Y-62447619D01*
X151533333Y-62542857D01*
X151533333Y-62685714D01*
X151580952Y-62780952D01*
X151628571Y-62828571D01*
X151723809Y-62876190D01*
X152104761Y-62876190D01*
X182614285Y-65852380D02*
X182614285Y-64852380D01*
X182376190Y-64852380D01*
X182233333Y-64900000D01*
X182138095Y-64995238D01*
X182090476Y-65090476D01*
X182042857Y-65280952D01*
X182042857Y-65423809D01*
X182090476Y-65614285D01*
X182138095Y-65709523D01*
X182233333Y-65804761D01*
X182376190Y-65852380D01*
X182614285Y-65852380D01*
X180900000Y-64804761D02*
X181757142Y-66090476D01*
X180614285Y-65566666D02*
X180138095Y-65566666D01*
X180709523Y-65852380D02*
X180376190Y-64852380D01*
X180042857Y-65852380D01*
X194547619Y-70604761D02*
X194404761Y-70652380D01*
X194166666Y-70652380D01*
X194071428Y-70604761D01*
X194023809Y-70557142D01*
X193976190Y-70461904D01*
X193976190Y-70366666D01*
X194023809Y-70271428D01*
X194071428Y-70223809D01*
X194166666Y-70176190D01*
X194357142Y-70128571D01*
X194452380Y-70080952D01*
X194500000Y-70033333D01*
X194547619Y-69938095D01*
X194547619Y-69842857D01*
X194500000Y-69747619D01*
X194452380Y-69700000D01*
X194357142Y-69652380D01*
X194119047Y-69652380D01*
X193976190Y-69700000D01*
X193690476Y-69652380D02*
X193119047Y-69652380D01*
X193404761Y-70652380D02*
X193404761Y-69652380D01*
X192785714Y-70128571D02*
X192452380Y-70128571D01*
X192309523Y-70652380D02*
X192785714Y-70652380D01*
X192785714Y-69652380D01*
X192309523Y-69652380D01*
X191880952Y-70652380D02*
X191880952Y-69652380D01*
X191500000Y-69652380D01*
X191404761Y-69700000D01*
X191357142Y-69747619D01*
X191309523Y-69842857D01*
X191309523Y-69985714D01*
X191357142Y-70080952D01*
X191404761Y-70128571D01*
X191500000Y-70176190D01*
X191880952Y-70176190D01*
X190880952Y-70652380D02*
X190880952Y-69652380D01*
X190500000Y-69652380D01*
X190404761Y-69700000D01*
X190357142Y-69747619D01*
X190309523Y-69842857D01*
X190309523Y-69985714D01*
X190357142Y-70080952D01*
X190404761Y-70128571D01*
X190500000Y-70176190D01*
X190880952Y-70176190D01*
X189880952Y-70128571D02*
X189547619Y-70128571D01*
X189404761Y-70652380D02*
X189880952Y-70652380D01*
X189880952Y-69652380D01*
X189404761Y-69652380D01*
X188404761Y-70652380D02*
X188738095Y-70176190D01*
X188976190Y-70652380D02*
X188976190Y-69652380D01*
X188595238Y-69652380D01*
X188500000Y-69700000D01*
X188452380Y-69747619D01*
X188404761Y-69842857D01*
X188404761Y-69985714D01*
X188452380Y-70080952D01*
X188500000Y-70128571D01*
X188595238Y-70176190D01*
X188976190Y-70176190D01*
X187500000Y-69652380D02*
X187976190Y-69652380D01*
X188023809Y-70128571D01*
X187976190Y-70080952D01*
X187880952Y-70033333D01*
X187642857Y-70033333D01*
X187547619Y-70080952D01*
X187500000Y-70128571D01*
X187452380Y-70223809D01*
X187452380Y-70461904D01*
X187500000Y-70557142D01*
X187547619Y-70604761D01*
X187642857Y-70652380D01*
X187880952Y-70652380D01*
X187976190Y-70604761D01*
X188023809Y-70557142D01*
X194547619Y-69004761D02*
X194404761Y-69052380D01*
X194166666Y-69052380D01*
X194071428Y-69004761D01*
X194023809Y-68957142D01*
X193976190Y-68861904D01*
X193976190Y-68766666D01*
X194023809Y-68671428D01*
X194071428Y-68623809D01*
X194166666Y-68576190D01*
X194357142Y-68528571D01*
X194452380Y-68480952D01*
X194500000Y-68433333D01*
X194547619Y-68338095D01*
X194547619Y-68242857D01*
X194500000Y-68147619D01*
X194452380Y-68100000D01*
X194357142Y-68052380D01*
X194119047Y-68052380D01*
X193976190Y-68100000D01*
X193690476Y-68052380D02*
X193119047Y-68052380D01*
X193404761Y-69052380D02*
X193404761Y-68052380D01*
X192785714Y-68528571D02*
X192452380Y-68528571D01*
X192309523Y-69052380D02*
X192785714Y-69052380D01*
X192785714Y-68052380D01*
X192309523Y-68052380D01*
X191880952Y-69052380D02*
X191880952Y-68052380D01*
X191500000Y-68052380D01*
X191404761Y-68100000D01*
X191357142Y-68147619D01*
X191309523Y-68242857D01*
X191309523Y-68385714D01*
X191357142Y-68480952D01*
X191404761Y-68528571D01*
X191500000Y-68576190D01*
X191880952Y-68576190D01*
X190880952Y-69052380D02*
X190880952Y-68052380D01*
X190500000Y-68052380D01*
X190404761Y-68100000D01*
X190357142Y-68147619D01*
X190309523Y-68242857D01*
X190309523Y-68385714D01*
X190357142Y-68480952D01*
X190404761Y-68528571D01*
X190500000Y-68576190D01*
X190880952Y-68576190D01*
X189880952Y-68528571D02*
X189547619Y-68528571D01*
X189404761Y-69052380D02*
X189880952Y-69052380D01*
X189880952Y-68052380D01*
X189404761Y-68052380D01*
X188404761Y-69052380D02*
X188738095Y-68576190D01*
X188976190Y-69052380D02*
X188976190Y-68052380D01*
X188595238Y-68052380D01*
X188500000Y-68100000D01*
X188452380Y-68147619D01*
X188404761Y-68242857D01*
X188404761Y-68385714D01*
X188452380Y-68480952D01*
X188500000Y-68528571D01*
X188595238Y-68576190D01*
X188976190Y-68576190D01*
X187547619Y-68052380D02*
X187738095Y-68052380D01*
X187833333Y-68100000D01*
X187880952Y-68147619D01*
X187976190Y-68290476D01*
X188023809Y-68480952D01*
X188023809Y-68861904D01*
X187976190Y-68957142D01*
X187928571Y-69004761D01*
X187833333Y-69052380D01*
X187642857Y-69052380D01*
X187547619Y-69004761D01*
X187500000Y-68957142D01*
X187452380Y-68861904D01*
X187452380Y-68623809D01*
X187500000Y-68528571D01*
X187547619Y-68480952D01*
X187642857Y-68433333D01*
X187833333Y-68433333D01*
X187928571Y-68480952D01*
X187976190Y-68528571D01*
X188023809Y-68623809D01*
X194547619Y-57004761D02*
X194404761Y-57052380D01*
X194166666Y-57052380D01*
X194071428Y-57004761D01*
X194023809Y-56957142D01*
X193976190Y-56861904D01*
X193976190Y-56766666D01*
X194023809Y-56671428D01*
X194071428Y-56623809D01*
X194166666Y-56576190D01*
X194357142Y-56528571D01*
X194452380Y-56480952D01*
X194500000Y-56433333D01*
X194547619Y-56338095D01*
X194547619Y-56242857D01*
X194500000Y-56147619D01*
X194452380Y-56100000D01*
X194357142Y-56052380D01*
X194119047Y-56052380D01*
X193976190Y-56100000D01*
X193690476Y-56052380D02*
X193119047Y-56052380D01*
X193404761Y-57052380D02*
X193404761Y-56052380D01*
X192785714Y-56528571D02*
X192452380Y-56528571D01*
X192309523Y-57052380D02*
X192785714Y-57052380D01*
X192785714Y-56052380D01*
X192309523Y-56052380D01*
X191880952Y-57052380D02*
X191880952Y-56052380D01*
X191500000Y-56052380D01*
X191404761Y-56100000D01*
X191357142Y-56147619D01*
X191309523Y-56242857D01*
X191309523Y-56385714D01*
X191357142Y-56480952D01*
X191404761Y-56528571D01*
X191500000Y-56576190D01*
X191880952Y-56576190D01*
X190880952Y-57052380D02*
X190880952Y-56052380D01*
X190500000Y-56052380D01*
X190404761Y-56100000D01*
X190357142Y-56147619D01*
X190309523Y-56242857D01*
X190309523Y-56385714D01*
X190357142Y-56480952D01*
X190404761Y-56528571D01*
X190500000Y-56576190D01*
X190880952Y-56576190D01*
X189880952Y-56528571D02*
X189547619Y-56528571D01*
X189404761Y-57052380D02*
X189880952Y-57052380D01*
X189880952Y-56052380D01*
X189404761Y-56052380D01*
X188404761Y-57052380D02*
X188738095Y-56576190D01*
X188976190Y-57052380D02*
X188976190Y-56052380D01*
X188595238Y-56052380D01*
X188500000Y-56100000D01*
X188452380Y-56147619D01*
X188404761Y-56242857D01*
X188404761Y-56385714D01*
X188452380Y-56480952D01*
X188500000Y-56528571D01*
X188595238Y-56576190D01*
X188976190Y-56576190D01*
X188071428Y-56052380D02*
X187404761Y-56052380D01*
X187833333Y-57052380D01*
X151747619Y-104804761D02*
X151604761Y-104852380D01*
X151366666Y-104852380D01*
X151271428Y-104804761D01*
X151223809Y-104757142D01*
X151176190Y-104661904D01*
X151176190Y-104566666D01*
X151223809Y-104471428D01*
X151271428Y-104423809D01*
X151366666Y-104376190D01*
X151557142Y-104328571D01*
X151652380Y-104280952D01*
X151700000Y-104233333D01*
X151747619Y-104138095D01*
X151747619Y-104042857D01*
X151700000Y-103947619D01*
X151652380Y-103900000D01*
X151557142Y-103852380D01*
X151319047Y-103852380D01*
X151176190Y-103900000D01*
X150890476Y-103852380D02*
X150319047Y-103852380D01*
X150604761Y-104852380D02*
X150604761Y-103852380D01*
X149985714Y-104328571D02*
X149652380Y-104328571D01*
X149509523Y-104852380D02*
X149985714Y-104852380D01*
X149985714Y-103852380D01*
X149509523Y-103852380D01*
X149080952Y-104852380D02*
X149080952Y-103852380D01*
X148700000Y-103852380D01*
X148604761Y-103900000D01*
X148557142Y-103947619D01*
X148509523Y-104042857D01*
X148509523Y-104185714D01*
X148557142Y-104280952D01*
X148604761Y-104328571D01*
X148700000Y-104376190D01*
X149080952Y-104376190D01*
X148080952Y-104852380D02*
X148080952Y-103852380D01*
X147700000Y-103852380D01*
X147604761Y-103900000D01*
X147557142Y-103947619D01*
X147509523Y-104042857D01*
X147509523Y-104185714D01*
X147557142Y-104280952D01*
X147604761Y-104328571D01*
X147700000Y-104376190D01*
X148080952Y-104376190D01*
X147080952Y-104328571D02*
X146747619Y-104328571D01*
X146604761Y-104852380D02*
X147080952Y-104852380D01*
X147080952Y-103852380D01*
X146604761Y-103852380D01*
X145604761Y-104852380D02*
X145938095Y-104376190D01*
X146176190Y-104852380D02*
X146176190Y-103852380D01*
X145795238Y-103852380D01*
X145700000Y-103900000D01*
X145652380Y-103947619D01*
X145604761Y-104042857D01*
X145604761Y-104185714D01*
X145652380Y-104280952D01*
X145700000Y-104328571D01*
X145795238Y-104376190D01*
X146176190Y-104376190D01*
X144985714Y-103852380D02*
X144890476Y-103852380D01*
X144795238Y-103900000D01*
X144747619Y-103947619D01*
X144700000Y-104042857D01*
X144652380Y-104233333D01*
X144652380Y-104471428D01*
X144700000Y-104661904D01*
X144747619Y-104757142D01*
X144795238Y-104804761D01*
X144890476Y-104852380D01*
X144985714Y-104852380D01*
X145080952Y-104804761D01*
X145128571Y-104757142D01*
X145176190Y-104661904D01*
X145223809Y-104471428D01*
X145223809Y-104233333D01*
X145176190Y-104042857D01*
X145128571Y-103947619D01*
X145080952Y-103900000D01*
X144985714Y-103852380D01*
X172947619Y-104804761D02*
X172804761Y-104852380D01*
X172566666Y-104852380D01*
X172471428Y-104804761D01*
X172423809Y-104757142D01*
X172376190Y-104661904D01*
X172376190Y-104566666D01*
X172423809Y-104471428D01*
X172471428Y-104423809D01*
X172566666Y-104376190D01*
X172757142Y-104328571D01*
X172852380Y-104280952D01*
X172900000Y-104233333D01*
X172947619Y-104138095D01*
X172947619Y-104042857D01*
X172900000Y-103947619D01*
X172852380Y-103900000D01*
X172757142Y-103852380D01*
X172519047Y-103852380D01*
X172376190Y-103900000D01*
X172090476Y-103852380D02*
X171519047Y-103852380D01*
X171804761Y-104852380D02*
X171804761Y-103852380D01*
X171185714Y-104328571D02*
X170852380Y-104328571D01*
X170709523Y-104852380D02*
X171185714Y-104852380D01*
X171185714Y-103852380D01*
X170709523Y-103852380D01*
X170280952Y-104852380D02*
X170280952Y-103852380D01*
X169900000Y-103852380D01*
X169804761Y-103900000D01*
X169757142Y-103947619D01*
X169709523Y-104042857D01*
X169709523Y-104185714D01*
X169757142Y-104280952D01*
X169804761Y-104328571D01*
X169900000Y-104376190D01*
X170280952Y-104376190D01*
X169280952Y-104852380D02*
X169280952Y-103852380D01*
X168900000Y-103852380D01*
X168804761Y-103900000D01*
X168757142Y-103947619D01*
X168709523Y-104042857D01*
X168709523Y-104185714D01*
X168757142Y-104280952D01*
X168804761Y-104328571D01*
X168900000Y-104376190D01*
X169280952Y-104376190D01*
X168280952Y-104328571D02*
X167947619Y-104328571D01*
X167804761Y-104852380D02*
X168280952Y-104852380D01*
X168280952Y-103852380D01*
X167804761Y-103852380D01*
X166804761Y-104852380D02*
X167138095Y-104376190D01*
X167376190Y-104852380D02*
X167376190Y-103852380D01*
X166995238Y-103852380D01*
X166900000Y-103900000D01*
X166852380Y-103947619D01*
X166804761Y-104042857D01*
X166804761Y-104185714D01*
X166852380Y-104280952D01*
X166900000Y-104328571D01*
X166995238Y-104376190D01*
X167376190Y-104376190D01*
X165852380Y-104852380D02*
X166423809Y-104852380D01*
X166138095Y-104852380D02*
X166138095Y-103852380D01*
X166233333Y-103995238D01*
X166328571Y-104090476D01*
X166423809Y-104138095D01*
X194147619Y-104804761D02*
X194004761Y-104852380D01*
X193766666Y-104852380D01*
X193671428Y-104804761D01*
X193623809Y-104757142D01*
X193576190Y-104661904D01*
X193576190Y-104566666D01*
X193623809Y-104471428D01*
X193671428Y-104423809D01*
X193766666Y-104376190D01*
X193957142Y-104328571D01*
X194052380Y-104280952D01*
X194100000Y-104233333D01*
X194147619Y-104138095D01*
X194147619Y-104042857D01*
X194100000Y-103947619D01*
X194052380Y-103900000D01*
X193957142Y-103852380D01*
X193719047Y-103852380D01*
X193576190Y-103900000D01*
X193290476Y-103852380D02*
X192719047Y-103852380D01*
X193004761Y-104852380D02*
X193004761Y-103852380D01*
X192385714Y-104328571D02*
X192052380Y-104328571D01*
X191909523Y-104852380D02*
X192385714Y-104852380D01*
X192385714Y-103852380D01*
X191909523Y-103852380D01*
X191480952Y-104852380D02*
X191480952Y-103852380D01*
X191100000Y-103852380D01*
X191004761Y-103900000D01*
X190957142Y-103947619D01*
X190909523Y-104042857D01*
X190909523Y-104185714D01*
X190957142Y-104280952D01*
X191004761Y-104328571D01*
X191100000Y-104376190D01*
X191480952Y-104376190D01*
X190480952Y-104852380D02*
X190480952Y-103852380D01*
X190100000Y-103852380D01*
X190004761Y-103900000D01*
X189957142Y-103947619D01*
X189909523Y-104042857D01*
X189909523Y-104185714D01*
X189957142Y-104280952D01*
X190004761Y-104328571D01*
X190100000Y-104376190D01*
X190480952Y-104376190D01*
X189480952Y-104328571D02*
X189147619Y-104328571D01*
X189004761Y-104852380D02*
X189480952Y-104852380D01*
X189480952Y-103852380D01*
X189004761Y-103852380D01*
X188004761Y-104852380D02*
X188338095Y-104376190D01*
X188576190Y-104852380D02*
X188576190Y-103852380D01*
X188195238Y-103852380D01*
X188100000Y-103900000D01*
X188052380Y-103947619D01*
X188004761Y-104042857D01*
X188004761Y-104185714D01*
X188052380Y-104280952D01*
X188100000Y-104328571D01*
X188195238Y-104376190D01*
X188576190Y-104376190D01*
X187623809Y-103947619D02*
X187576190Y-103900000D01*
X187480952Y-103852380D01*
X187242857Y-103852380D01*
X187147619Y-103900000D01*
X187100000Y-103947619D01*
X187052380Y-104042857D01*
X187052380Y-104138095D01*
X187100000Y-104280952D01*
X187671428Y-104852380D01*
X187052380Y-104852380D01*
X215947619Y-104804761D02*
X215804761Y-104852380D01*
X215566666Y-104852380D01*
X215471428Y-104804761D01*
X215423809Y-104757142D01*
X215376190Y-104661904D01*
X215376190Y-104566666D01*
X215423809Y-104471428D01*
X215471428Y-104423809D01*
X215566666Y-104376190D01*
X215757142Y-104328571D01*
X215852380Y-104280952D01*
X215900000Y-104233333D01*
X215947619Y-104138095D01*
X215947619Y-104042857D01*
X215900000Y-103947619D01*
X215852380Y-103900000D01*
X215757142Y-103852380D01*
X215519047Y-103852380D01*
X215376190Y-103900000D01*
X215090476Y-103852380D02*
X214519047Y-103852380D01*
X214804761Y-104852380D02*
X214804761Y-103852380D01*
X214185714Y-104328571D02*
X213852380Y-104328571D01*
X213709523Y-104852380D02*
X214185714Y-104852380D01*
X214185714Y-103852380D01*
X213709523Y-103852380D01*
X213280952Y-104852380D02*
X213280952Y-103852380D01*
X212900000Y-103852380D01*
X212804761Y-103900000D01*
X212757142Y-103947619D01*
X212709523Y-104042857D01*
X212709523Y-104185714D01*
X212757142Y-104280952D01*
X212804761Y-104328571D01*
X212900000Y-104376190D01*
X213280952Y-104376190D01*
X212280952Y-104852380D02*
X212280952Y-103852380D01*
X211900000Y-103852380D01*
X211804761Y-103900000D01*
X211757142Y-103947619D01*
X211709523Y-104042857D01*
X211709523Y-104185714D01*
X211757142Y-104280952D01*
X211804761Y-104328571D01*
X211900000Y-104376190D01*
X212280952Y-104376190D01*
X211280952Y-104328571D02*
X210947619Y-104328571D01*
X210804761Y-104852380D02*
X211280952Y-104852380D01*
X211280952Y-103852380D01*
X210804761Y-103852380D01*
X209804761Y-104852380D02*
X210138095Y-104376190D01*
X210376190Y-104852380D02*
X210376190Y-103852380D01*
X209995238Y-103852380D01*
X209900000Y-103900000D01*
X209852380Y-103947619D01*
X209804761Y-104042857D01*
X209804761Y-104185714D01*
X209852380Y-104280952D01*
X209900000Y-104328571D01*
X209995238Y-104376190D01*
X210376190Y-104376190D01*
X209471428Y-103852380D02*
X208852380Y-103852380D01*
X209185714Y-104233333D01*
X209042857Y-104233333D01*
X208947619Y-104280952D01*
X208900000Y-104328571D01*
X208852380Y-104423809D01*
X208852380Y-104661904D01*
X208900000Y-104757142D01*
X208947619Y-104804761D01*
X209042857Y-104852380D01*
X209328571Y-104852380D01*
X209423809Y-104804761D01*
X209471428Y-104757142D01*
X215847619Y-80104761D02*
X215704761Y-80152380D01*
X215466666Y-80152380D01*
X215371428Y-80104761D01*
X215323809Y-80057142D01*
X215276190Y-79961904D01*
X215276190Y-79866666D01*
X215323809Y-79771428D01*
X215371428Y-79723809D01*
X215466666Y-79676190D01*
X215657142Y-79628571D01*
X215752380Y-79580952D01*
X215800000Y-79533333D01*
X215847619Y-79438095D01*
X215847619Y-79342857D01*
X215800000Y-79247619D01*
X215752380Y-79200000D01*
X215657142Y-79152380D01*
X215419047Y-79152380D01*
X215276190Y-79200000D01*
X214990476Y-79152380D02*
X214419047Y-79152380D01*
X214704761Y-80152380D02*
X214704761Y-79152380D01*
X214085714Y-79628571D02*
X213752380Y-79628571D01*
X213609523Y-80152380D02*
X214085714Y-80152380D01*
X214085714Y-79152380D01*
X213609523Y-79152380D01*
X213180952Y-80152380D02*
X213180952Y-79152380D01*
X212800000Y-79152380D01*
X212704761Y-79200000D01*
X212657142Y-79247619D01*
X212609523Y-79342857D01*
X212609523Y-79485714D01*
X212657142Y-79580952D01*
X212704761Y-79628571D01*
X212800000Y-79676190D01*
X213180952Y-79676190D01*
X212180952Y-80152380D02*
X212180952Y-79152380D01*
X211800000Y-79152380D01*
X211704761Y-79200000D01*
X211657142Y-79247619D01*
X211609523Y-79342857D01*
X211609523Y-79485714D01*
X211657142Y-79580952D01*
X211704761Y-79628571D01*
X211800000Y-79676190D01*
X212180952Y-79676190D01*
X211180952Y-79628571D02*
X210847619Y-79628571D01*
X210704761Y-80152380D02*
X211180952Y-80152380D01*
X211180952Y-79152380D01*
X210704761Y-79152380D01*
X209704761Y-80152380D02*
X210038095Y-79676190D01*
X210276190Y-80152380D02*
X210276190Y-79152380D01*
X209895238Y-79152380D01*
X209800000Y-79200000D01*
X209752380Y-79247619D01*
X209704761Y-79342857D01*
X209704761Y-79485714D01*
X209752380Y-79580952D01*
X209800000Y-79628571D01*
X209895238Y-79676190D01*
X210276190Y-79676190D01*
X208847619Y-79485714D02*
X208847619Y-80152380D01*
X209085714Y-79104761D02*
X209323809Y-79819047D01*
X208704761Y-79819047D01*
D11*
X92618200Y-85256100D02*
X92618200Y-86766100D01*
X96319200Y-85256100D02*
X96319200Y-86766100D01*
X99589200Y-86766100D02*
X89349200Y-86766100D01*
X89349200Y-85256100D02*
X89349200Y-89897100D01*
X99589200Y-85256100D02*
X99589200Y-89897100D01*
X99589200Y-89897100D02*
X89349200Y-89897100D01*
X99589200Y-85256100D02*
X89349200Y-85256100D01*
X92618200Y-79884000D02*
X92618200Y-81394000D01*
X96319200Y-79884000D02*
X96319200Y-81394000D01*
X99589200Y-81394000D02*
X89349200Y-81394000D01*
X89349200Y-79884000D02*
X89349200Y-84525000D01*
X99589200Y-79884000D02*
X99589200Y-84525000D01*
X99589200Y-84525000D02*
X89349200Y-84525000D01*
X99589200Y-79884000D02*
X89349200Y-79884000D01*
X132861300Y-104261400D02*
X122701300Y-104261400D01*
X132861300Y-96641400D02*
X132861300Y-104261400D01*
X122701300Y-96641400D02*
X132861300Y-96641400D01*
X122701300Y-104261400D02*
X122701300Y-96641400D01*
X122701300Y-102991400D02*
X132861300Y-102991400D01*
X123197634Y-86615351D02*
G75*
G02X125465000Y-86674953I1167366J1251551D01*
G01*
X112212134Y-86678851D02*
G75*
G02X114479500Y-86738453I1167366J1251551D01*
G01*
X101252034Y-86640751D02*
G75*
G02X103519400Y-86700353I1167366J1251551D01*
G01*
X100655134Y-77712651D02*
G75*
G02X102922500Y-77772253I1167366J1251551D01*
G01*
X126959300Y-88623400D02*
X126959300Y-86973400D01*
X132159300Y-88623400D02*
X126959300Y-88623400D01*
X132159300Y-83323400D02*
X132159300Y-88623400D01*
X126959300Y-83323400D02*
X132159300Y-83323400D01*
X126959300Y-84973400D02*
X126959300Y-83323400D01*
X126959300Y-86973400D02*
G75*
G03X126959300Y-84973400I0J1000000D01*
G01*
X115897600Y-88686900D02*
X115897600Y-87036900D01*
X121097600Y-88686900D02*
X115897600Y-88686900D01*
X121097600Y-83386900D02*
X121097600Y-88686900D01*
X115897600Y-83386900D02*
X121097600Y-83386900D01*
X115897600Y-85036900D02*
X115897600Y-83386900D01*
X115897600Y-87036900D02*
G75*
G03X115897600Y-85036900I0J1000000D01*
G01*
X104835900Y-88686900D02*
X104835900Y-87036900D01*
X110035900Y-88686900D02*
X104835900Y-88686900D01*
X110035900Y-83386900D02*
X110035900Y-88686900D01*
X104835900Y-83386900D02*
X110035900Y-83386900D01*
X104835900Y-85036900D02*
X104835900Y-83386900D01*
X104835900Y-87036900D02*
G75*
G03X104835900Y-85036900I0J1000000D01*
G01*
X107871000Y-75029500D02*
G75*
G03X109871000Y-75029500I1000000J0D01*
G01*
X109871000Y-75029500D02*
X111521000Y-75029500D01*
X111521000Y-75029500D02*
X111521000Y-80229500D01*
X111521000Y-80229500D02*
X106221000Y-80229500D01*
X106221000Y-80229500D02*
X106221000Y-75029500D01*
X106221000Y-75029500D02*
X107871000Y-75029500D01*
X114868600Y-91148900D02*
X114868600Y-92658900D01*
X118569600Y-91148900D02*
X118569600Y-92658900D01*
X121839600Y-92658900D02*
X111599600Y-92658900D01*
X111599600Y-91148900D02*
X111599600Y-95789900D01*
X121839600Y-91148900D02*
X121839600Y-95789900D01*
X121839600Y-95789900D02*
X111599600Y-95789900D01*
X121839600Y-91148900D02*
X111599600Y-91148900D01*
X115564600Y-60751200D02*
G75*
G03X115564600Y-60751200I-3270000J0D01*
G01*
X112294600Y-63981200D02*
X112294600Y-57521200D01*
X112334600Y-63981200D02*
X112334600Y-57521200D01*
X112374600Y-63981200D02*
X112374600Y-57521200D01*
X112414600Y-63979200D02*
X112414600Y-57523200D01*
X112454600Y-63978200D02*
X112454600Y-57524200D01*
X112494600Y-63975200D02*
X112494600Y-57527200D01*
X112534600Y-63973200D02*
X112534600Y-61791200D01*
X112534600Y-59711200D02*
X112534600Y-57529200D01*
X112574600Y-63969200D02*
X112574600Y-61791200D01*
X112574600Y-59711200D02*
X112574600Y-57533200D01*
X112614600Y-63966200D02*
X112614600Y-61791200D01*
X112614600Y-59711200D02*
X112614600Y-57536200D01*
X112654600Y-63962200D02*
X112654600Y-61791200D01*
X112654600Y-59711200D02*
X112654600Y-57540200D01*
X112694600Y-63957200D02*
X112694600Y-61791200D01*
X112694600Y-59711200D02*
X112694600Y-57545200D01*
X112734600Y-63952200D02*
X112734600Y-61791200D01*
X112734600Y-59711200D02*
X112734600Y-57550200D01*
X112774600Y-63946200D02*
X112774600Y-61791200D01*
X112774600Y-59711200D02*
X112774600Y-57556200D01*
X112814600Y-63940200D02*
X112814600Y-61791200D01*
X112814600Y-59711200D02*
X112814600Y-57562200D01*
X112854600Y-63933200D02*
X112854600Y-61791200D01*
X112854600Y-59711200D02*
X112854600Y-57569200D01*
X112894600Y-63926200D02*
X112894600Y-61791200D01*
X112894600Y-59711200D02*
X112894600Y-57576200D01*
X112934600Y-63918200D02*
X112934600Y-61791200D01*
X112934600Y-59711200D02*
X112934600Y-57584200D01*
X112974600Y-63910200D02*
X112974600Y-61791200D01*
X112974600Y-59711200D02*
X112974600Y-57592200D01*
X113015600Y-63901200D02*
X113015600Y-61791200D01*
X113015600Y-59711200D02*
X113015600Y-57601200D01*
X113055600Y-63892200D02*
X113055600Y-61791200D01*
X113055600Y-59711200D02*
X113055600Y-57610200D01*
X113095600Y-63882200D02*
X113095600Y-61791200D01*
X113095600Y-59711200D02*
X113095600Y-57620200D01*
X113135600Y-63872200D02*
X113135600Y-61791200D01*
X113135600Y-59711200D02*
X113135600Y-57630200D01*
X113175600Y-63861200D02*
X113175600Y-61791200D01*
X113175600Y-59711200D02*
X113175600Y-57641200D01*
X113215600Y-63849200D02*
X113215600Y-61791200D01*
X113215600Y-59711200D02*
X113215600Y-57653200D01*
X113255600Y-63837200D02*
X113255600Y-61791200D01*
X113255600Y-59711200D02*
X113255600Y-57665200D01*
X113295600Y-63825200D02*
X113295600Y-61791200D01*
X113295600Y-59711200D02*
X113295600Y-57677200D01*
X113335600Y-63812200D02*
X113335600Y-61791200D01*
X113335600Y-59711200D02*
X113335600Y-57690200D01*
X113375600Y-63798200D02*
X113375600Y-61791200D01*
X113375600Y-59711200D02*
X113375600Y-57704200D01*
X113415600Y-63784200D02*
X113415600Y-61791200D01*
X113415600Y-59711200D02*
X113415600Y-57718200D01*
X113455600Y-63769200D02*
X113455600Y-61791200D01*
X113455600Y-59711200D02*
X113455600Y-57733200D01*
X113495600Y-63753200D02*
X113495600Y-61791200D01*
X113495600Y-59711200D02*
X113495600Y-57749200D01*
X113535600Y-63737200D02*
X113535600Y-61791200D01*
X113535600Y-59711200D02*
X113535600Y-57765200D01*
X113575600Y-63721200D02*
X113575600Y-61791200D01*
X113575600Y-59711200D02*
X113575600Y-57781200D01*
X113615600Y-63703200D02*
X113615600Y-61791200D01*
X113615600Y-59711200D02*
X113615600Y-57799200D01*
X113655600Y-63685200D02*
X113655600Y-61791200D01*
X113655600Y-59711200D02*
X113655600Y-57817200D01*
X113695600Y-63667200D02*
X113695600Y-61791200D01*
X113695600Y-59711200D02*
X113695600Y-57835200D01*
X113735600Y-63647200D02*
X113735600Y-61791200D01*
X113735600Y-59711200D02*
X113735600Y-57855200D01*
X113775600Y-63627200D02*
X113775600Y-61791200D01*
X113775600Y-59711200D02*
X113775600Y-57875200D01*
X113815600Y-63607200D02*
X113815600Y-61791200D01*
X113815600Y-59711200D02*
X113815600Y-57895200D01*
X113855600Y-63585200D02*
X113855600Y-61791200D01*
X113855600Y-59711200D02*
X113855600Y-57917200D01*
X113895600Y-63563200D02*
X113895600Y-61791200D01*
X113895600Y-59711200D02*
X113895600Y-57939200D01*
X113935600Y-63541200D02*
X113935600Y-61791200D01*
X113935600Y-59711200D02*
X113935600Y-57961200D01*
X113975600Y-63517200D02*
X113975600Y-61791200D01*
X113975600Y-59711200D02*
X113975600Y-57985200D01*
X114015600Y-63493200D02*
X114015600Y-61791200D01*
X114015600Y-59711200D02*
X114015600Y-58009200D01*
X114055600Y-63467200D02*
X114055600Y-61791200D01*
X114055600Y-59711200D02*
X114055600Y-58035200D01*
X114095600Y-63441200D02*
X114095600Y-61791200D01*
X114095600Y-59711200D02*
X114095600Y-58061200D01*
X114135600Y-63415200D02*
X114135600Y-61791200D01*
X114135600Y-59711200D02*
X114135600Y-58087200D01*
X114175600Y-63387200D02*
X114175600Y-61791200D01*
X114175600Y-59711200D02*
X114175600Y-58115200D01*
X114215600Y-63358200D02*
X114215600Y-61791200D01*
X114215600Y-59711200D02*
X114215600Y-58144200D01*
X114255600Y-63329200D02*
X114255600Y-61791200D01*
X114255600Y-59711200D02*
X114255600Y-58173200D01*
X114295600Y-63299200D02*
X114295600Y-61791200D01*
X114295600Y-59711200D02*
X114295600Y-58203200D01*
X114335600Y-63267200D02*
X114335600Y-61791200D01*
X114335600Y-59711200D02*
X114335600Y-58235200D01*
X114375600Y-63235200D02*
X114375600Y-61791200D01*
X114375600Y-59711200D02*
X114375600Y-58267200D01*
X114415600Y-63201200D02*
X114415600Y-61791200D01*
X114415600Y-59711200D02*
X114415600Y-58301200D01*
X114455600Y-63167200D02*
X114455600Y-61791200D01*
X114455600Y-59711200D02*
X114455600Y-58335200D01*
X114495600Y-63131200D02*
X114495600Y-61791200D01*
X114495600Y-59711200D02*
X114495600Y-58371200D01*
X114535600Y-63094200D02*
X114535600Y-61791200D01*
X114535600Y-59711200D02*
X114535600Y-58408200D01*
X114575600Y-63056200D02*
X114575600Y-61791200D01*
X114575600Y-59711200D02*
X114575600Y-58446200D01*
X114615600Y-63016200D02*
X114615600Y-58486200D01*
X114655600Y-62975200D02*
X114655600Y-58527200D01*
X114695600Y-62933200D02*
X114695600Y-58569200D01*
X114735600Y-62888200D02*
X114735600Y-58614200D01*
X114775600Y-62843200D02*
X114775600Y-58659200D01*
X114815600Y-62795200D02*
X114815600Y-58707200D01*
X114855600Y-62746200D02*
X114855600Y-58756200D01*
X114895600Y-62695200D02*
X114895600Y-58807200D01*
X114935600Y-62641200D02*
X114935600Y-58861200D01*
X114975600Y-62585200D02*
X114975600Y-58917200D01*
X115015600Y-62527200D02*
X115015600Y-58975200D01*
X115055600Y-62465200D02*
X115055600Y-59037200D01*
X115095600Y-62401200D02*
X115095600Y-59101200D01*
X115135600Y-62332200D02*
X115135600Y-59170200D01*
X115175600Y-62260200D02*
X115175600Y-59242200D01*
X115215600Y-62183200D02*
X115215600Y-59319200D01*
X115255600Y-62101200D02*
X115255600Y-59401200D01*
X115295600Y-62013200D02*
X115295600Y-59489200D01*
X115335600Y-61916200D02*
X115335600Y-59586200D01*
X115375600Y-61810200D02*
X115375600Y-59692200D01*
X115415600Y-61691200D02*
X115415600Y-59811200D01*
X115455600Y-61553200D02*
X115455600Y-59949200D01*
X115495600Y-61384200D02*
X115495600Y-60118200D01*
X115535600Y-61153200D02*
X115535600Y-60349200D01*
X108794359Y-62590200D02*
X109424359Y-62590200D01*
X109109359Y-62905200D02*
X109109359Y-62275200D01*
X123144600Y-60751200D02*
G75*
G03X123144600Y-60751200I-3270000J0D01*
G01*
X119874600Y-63981200D02*
X119874600Y-57521200D01*
X119914600Y-63981200D02*
X119914600Y-57521200D01*
X119954600Y-63981200D02*
X119954600Y-57521200D01*
X119994600Y-63979200D02*
X119994600Y-57523200D01*
X120034600Y-63978200D02*
X120034600Y-57524200D01*
X120074600Y-63975200D02*
X120074600Y-57527200D01*
X120114600Y-63973200D02*
X120114600Y-61791200D01*
X120114600Y-59711200D02*
X120114600Y-57529200D01*
X120154600Y-63969200D02*
X120154600Y-61791200D01*
X120154600Y-59711200D02*
X120154600Y-57533200D01*
X120194600Y-63966200D02*
X120194600Y-61791200D01*
X120194600Y-59711200D02*
X120194600Y-57536200D01*
X120234600Y-63962200D02*
X120234600Y-61791200D01*
X120234600Y-59711200D02*
X120234600Y-57540200D01*
X120274600Y-63957200D02*
X120274600Y-61791200D01*
X120274600Y-59711200D02*
X120274600Y-57545200D01*
X120314600Y-63952200D02*
X120314600Y-61791200D01*
X120314600Y-59711200D02*
X120314600Y-57550200D01*
X120354600Y-63946200D02*
X120354600Y-61791200D01*
X120354600Y-59711200D02*
X120354600Y-57556200D01*
X120394600Y-63940200D02*
X120394600Y-61791200D01*
X120394600Y-59711200D02*
X120394600Y-57562200D01*
X120434600Y-63933200D02*
X120434600Y-61791200D01*
X120434600Y-59711200D02*
X120434600Y-57569200D01*
X120474600Y-63926200D02*
X120474600Y-61791200D01*
X120474600Y-59711200D02*
X120474600Y-57576200D01*
X120514600Y-63918200D02*
X120514600Y-61791200D01*
X120514600Y-59711200D02*
X120514600Y-57584200D01*
X120554600Y-63910200D02*
X120554600Y-61791200D01*
X120554600Y-59711200D02*
X120554600Y-57592200D01*
X120595600Y-63901200D02*
X120595600Y-61791200D01*
X120595600Y-59711200D02*
X120595600Y-57601200D01*
X120635600Y-63892200D02*
X120635600Y-61791200D01*
X120635600Y-59711200D02*
X120635600Y-57610200D01*
X120675600Y-63882200D02*
X120675600Y-61791200D01*
X120675600Y-59711200D02*
X120675600Y-57620200D01*
X120715600Y-63872200D02*
X120715600Y-61791200D01*
X120715600Y-59711200D02*
X120715600Y-57630200D01*
X120755600Y-63861200D02*
X120755600Y-61791200D01*
X120755600Y-59711200D02*
X120755600Y-57641200D01*
X120795600Y-63849200D02*
X120795600Y-61791200D01*
X120795600Y-59711200D02*
X120795600Y-57653200D01*
X120835600Y-63837200D02*
X120835600Y-61791200D01*
X120835600Y-59711200D02*
X120835600Y-57665200D01*
X120875600Y-63825200D02*
X120875600Y-61791200D01*
X120875600Y-59711200D02*
X120875600Y-57677200D01*
X120915600Y-63812200D02*
X120915600Y-61791200D01*
X120915600Y-59711200D02*
X120915600Y-57690200D01*
X120955600Y-63798200D02*
X120955600Y-61791200D01*
X120955600Y-59711200D02*
X120955600Y-57704200D01*
X120995600Y-63784200D02*
X120995600Y-61791200D01*
X120995600Y-59711200D02*
X120995600Y-57718200D01*
X121035600Y-63769200D02*
X121035600Y-61791200D01*
X121035600Y-59711200D02*
X121035600Y-57733200D01*
X121075600Y-63753200D02*
X121075600Y-61791200D01*
X121075600Y-59711200D02*
X121075600Y-57749200D01*
X121115600Y-63737200D02*
X121115600Y-61791200D01*
X121115600Y-59711200D02*
X121115600Y-57765200D01*
X121155600Y-63721200D02*
X121155600Y-61791200D01*
X121155600Y-59711200D02*
X121155600Y-57781200D01*
X121195600Y-63703200D02*
X121195600Y-61791200D01*
X121195600Y-59711200D02*
X121195600Y-57799200D01*
X121235600Y-63685200D02*
X121235600Y-61791200D01*
X121235600Y-59711200D02*
X121235600Y-57817200D01*
X121275600Y-63667200D02*
X121275600Y-61791200D01*
X121275600Y-59711200D02*
X121275600Y-57835200D01*
X121315600Y-63647200D02*
X121315600Y-61791200D01*
X121315600Y-59711200D02*
X121315600Y-57855200D01*
X121355600Y-63627200D02*
X121355600Y-61791200D01*
X121355600Y-59711200D02*
X121355600Y-57875200D01*
X121395600Y-63607200D02*
X121395600Y-61791200D01*
X121395600Y-59711200D02*
X121395600Y-57895200D01*
X121435600Y-63585200D02*
X121435600Y-61791200D01*
X121435600Y-59711200D02*
X121435600Y-57917200D01*
X121475600Y-63563200D02*
X121475600Y-61791200D01*
X121475600Y-59711200D02*
X121475600Y-57939200D01*
X121515600Y-63541200D02*
X121515600Y-61791200D01*
X121515600Y-59711200D02*
X121515600Y-57961200D01*
X121555600Y-63517200D02*
X121555600Y-61791200D01*
X121555600Y-59711200D02*
X121555600Y-57985200D01*
X121595600Y-63493200D02*
X121595600Y-61791200D01*
X121595600Y-59711200D02*
X121595600Y-58009200D01*
X121635600Y-63467200D02*
X121635600Y-61791200D01*
X121635600Y-59711200D02*
X121635600Y-58035200D01*
X121675600Y-63441200D02*
X121675600Y-61791200D01*
X121675600Y-59711200D02*
X121675600Y-58061200D01*
X121715600Y-63415200D02*
X121715600Y-61791200D01*
X121715600Y-59711200D02*
X121715600Y-58087200D01*
X121755600Y-63387200D02*
X121755600Y-61791200D01*
X121755600Y-59711200D02*
X121755600Y-58115200D01*
X121795600Y-63358200D02*
X121795600Y-61791200D01*
X121795600Y-59711200D02*
X121795600Y-58144200D01*
X121835600Y-63329200D02*
X121835600Y-61791200D01*
X121835600Y-59711200D02*
X121835600Y-58173200D01*
X121875600Y-63299200D02*
X121875600Y-61791200D01*
X121875600Y-59711200D02*
X121875600Y-58203200D01*
X121915600Y-63267200D02*
X121915600Y-61791200D01*
X121915600Y-59711200D02*
X121915600Y-58235200D01*
X121955600Y-63235200D02*
X121955600Y-61791200D01*
X121955600Y-59711200D02*
X121955600Y-58267200D01*
X121995600Y-63201200D02*
X121995600Y-61791200D01*
X121995600Y-59711200D02*
X121995600Y-58301200D01*
X122035600Y-63167200D02*
X122035600Y-61791200D01*
X122035600Y-59711200D02*
X122035600Y-58335200D01*
X122075600Y-63131200D02*
X122075600Y-61791200D01*
X122075600Y-59711200D02*
X122075600Y-58371200D01*
X122115600Y-63094200D02*
X122115600Y-61791200D01*
X122115600Y-59711200D02*
X122115600Y-58408200D01*
X122155600Y-63056200D02*
X122155600Y-61791200D01*
X122155600Y-59711200D02*
X122155600Y-58446200D01*
X122195600Y-63016200D02*
X122195600Y-58486200D01*
X122235600Y-62975200D02*
X122235600Y-58527200D01*
X122275600Y-62933200D02*
X122275600Y-58569200D01*
X122315600Y-62888200D02*
X122315600Y-58614200D01*
X122355600Y-62843200D02*
X122355600Y-58659200D01*
X122395600Y-62795200D02*
X122395600Y-58707200D01*
X122435600Y-62746200D02*
X122435600Y-58756200D01*
X122475600Y-62695200D02*
X122475600Y-58807200D01*
X122515600Y-62641200D02*
X122515600Y-58861200D01*
X122555600Y-62585200D02*
X122555600Y-58917200D01*
X122595600Y-62527200D02*
X122595600Y-58975200D01*
X122635600Y-62465200D02*
X122635600Y-59037200D01*
X122675600Y-62401200D02*
X122675600Y-59101200D01*
X122715600Y-62332200D02*
X122715600Y-59170200D01*
X122755600Y-62260200D02*
X122755600Y-59242200D01*
X122795600Y-62183200D02*
X122795600Y-59319200D01*
X122835600Y-62101200D02*
X122835600Y-59401200D01*
X122875600Y-62013200D02*
X122875600Y-59489200D01*
X122915600Y-61916200D02*
X122915600Y-59586200D01*
X122955600Y-61810200D02*
X122955600Y-59692200D01*
X122995600Y-61691200D02*
X122995600Y-59811200D01*
X123035600Y-61553200D02*
X123035600Y-59949200D01*
X123075600Y-61384200D02*
X123075600Y-60118200D01*
X123115600Y-61153200D02*
X123115600Y-60349200D01*
X116374359Y-62590200D02*
X117004359Y-62590200D01*
X116689359Y-62905200D02*
X116689359Y-62275200D01*
X134255359Y-103646800D02*
X134255359Y-103016800D01*
X133940359Y-103331800D02*
X134570359Y-103331800D01*
X140681600Y-101894800D02*
X140681600Y-101090800D01*
X140641600Y-102125800D02*
X140641600Y-100859800D01*
X140601600Y-102294800D02*
X140601600Y-100690800D01*
X140561600Y-102432800D02*
X140561600Y-100552800D01*
X140521600Y-102551800D02*
X140521600Y-100433800D01*
X140481600Y-102657800D02*
X140481600Y-100327800D01*
X140441600Y-102754800D02*
X140441600Y-100230800D01*
X140401600Y-102842800D02*
X140401600Y-100142800D01*
X140361600Y-102924800D02*
X140361600Y-100060800D01*
X140321600Y-103001800D02*
X140321600Y-99983800D01*
X140281600Y-103073800D02*
X140281600Y-99911800D01*
X140241600Y-103142800D02*
X140241600Y-99842800D01*
X140201600Y-103206800D02*
X140201600Y-99778800D01*
X140161600Y-103268800D02*
X140161600Y-99716800D01*
X140121600Y-103326800D02*
X140121600Y-99658800D01*
X140081600Y-103382800D02*
X140081600Y-99602800D01*
X140041600Y-103436800D02*
X140041600Y-99548800D01*
X140001600Y-103487800D02*
X140001600Y-99497800D01*
X139961600Y-103536800D02*
X139961600Y-99448800D01*
X139921600Y-103584800D02*
X139921600Y-99400800D01*
X139881600Y-103629800D02*
X139881600Y-99355800D01*
X139841600Y-103674800D02*
X139841600Y-99310800D01*
X139801600Y-103716800D02*
X139801600Y-99268800D01*
X139761600Y-103757800D02*
X139761600Y-99227800D01*
X139721600Y-100452800D02*
X139721600Y-99187800D01*
X139721600Y-103797800D02*
X139721600Y-102532800D01*
X139681600Y-100452800D02*
X139681600Y-99149800D01*
X139681600Y-103835800D02*
X139681600Y-102532800D01*
X139641600Y-100452800D02*
X139641600Y-99112800D01*
X139641600Y-103872800D02*
X139641600Y-102532800D01*
X139601600Y-100452800D02*
X139601600Y-99076800D01*
X139601600Y-103908800D02*
X139601600Y-102532800D01*
X139561600Y-100452800D02*
X139561600Y-99042800D01*
X139561600Y-103942800D02*
X139561600Y-102532800D01*
X139521600Y-100452800D02*
X139521600Y-99008800D01*
X139521600Y-103976800D02*
X139521600Y-102532800D01*
X139481600Y-100452800D02*
X139481600Y-98976800D01*
X139481600Y-104008800D02*
X139481600Y-102532800D01*
X139441600Y-100452800D02*
X139441600Y-98944800D01*
X139441600Y-104040800D02*
X139441600Y-102532800D01*
X139401600Y-100452800D02*
X139401600Y-98914800D01*
X139401600Y-104070800D02*
X139401600Y-102532800D01*
X139361600Y-100452800D02*
X139361600Y-98885800D01*
X139361600Y-104099800D02*
X139361600Y-102532800D01*
X139321600Y-100452800D02*
X139321600Y-98856800D01*
X139321600Y-104128800D02*
X139321600Y-102532800D01*
X139281600Y-100452800D02*
X139281600Y-98828800D01*
X139281600Y-104156800D02*
X139281600Y-102532800D01*
X139241600Y-100452800D02*
X139241600Y-98802800D01*
X139241600Y-104182800D02*
X139241600Y-102532800D01*
X139201600Y-100452800D02*
X139201600Y-98776800D01*
X139201600Y-104208800D02*
X139201600Y-102532800D01*
X139161600Y-100452800D02*
X139161600Y-98750800D01*
X139161600Y-104234800D02*
X139161600Y-102532800D01*
X139121600Y-100452800D02*
X139121600Y-98726800D01*
X139121600Y-104258800D02*
X139121600Y-102532800D01*
X139081600Y-100452800D02*
X139081600Y-98702800D01*
X139081600Y-104282800D02*
X139081600Y-102532800D01*
X139041600Y-100452800D02*
X139041600Y-98680800D01*
X139041600Y-104304800D02*
X139041600Y-102532800D01*
X139001600Y-100452800D02*
X139001600Y-98658800D01*
X139001600Y-104326800D02*
X139001600Y-102532800D01*
X138961600Y-100452800D02*
X138961600Y-98636800D01*
X138961600Y-104348800D02*
X138961600Y-102532800D01*
X138921600Y-100452800D02*
X138921600Y-98616800D01*
X138921600Y-104368800D02*
X138921600Y-102532800D01*
X138881600Y-100452800D02*
X138881600Y-98596800D01*
X138881600Y-104388800D02*
X138881600Y-102532800D01*
X138841600Y-100452800D02*
X138841600Y-98576800D01*
X138841600Y-104408800D02*
X138841600Y-102532800D01*
X138801600Y-100452800D02*
X138801600Y-98558800D01*
X138801600Y-104426800D02*
X138801600Y-102532800D01*
X138761600Y-100452800D02*
X138761600Y-98540800D01*
X138761600Y-104444800D02*
X138761600Y-102532800D01*
X138721600Y-100452800D02*
X138721600Y-98522800D01*
X138721600Y-104462800D02*
X138721600Y-102532800D01*
X138681600Y-100452800D02*
X138681600Y-98506800D01*
X138681600Y-104478800D02*
X138681600Y-102532800D01*
X138641600Y-100452800D02*
X138641600Y-98490800D01*
X138641600Y-104494800D02*
X138641600Y-102532800D01*
X138601600Y-100452800D02*
X138601600Y-98474800D01*
X138601600Y-104510800D02*
X138601600Y-102532800D01*
X138561600Y-100452800D02*
X138561600Y-98459800D01*
X138561600Y-104525800D02*
X138561600Y-102532800D01*
X138521600Y-100452800D02*
X138521600Y-98445800D01*
X138521600Y-104539800D02*
X138521600Y-102532800D01*
X138481600Y-100452800D02*
X138481600Y-98431800D01*
X138481600Y-104553800D02*
X138481600Y-102532800D01*
X138441600Y-100452800D02*
X138441600Y-98418800D01*
X138441600Y-104566800D02*
X138441600Y-102532800D01*
X138401600Y-100452800D02*
X138401600Y-98406800D01*
X138401600Y-104578800D02*
X138401600Y-102532800D01*
X138361600Y-100452800D02*
X138361600Y-98394800D01*
X138361600Y-104590800D02*
X138361600Y-102532800D01*
X138321600Y-100452800D02*
X138321600Y-98382800D01*
X138321600Y-104602800D02*
X138321600Y-102532800D01*
X138281600Y-100452800D02*
X138281600Y-98371800D01*
X138281600Y-104613800D02*
X138281600Y-102532800D01*
X138241600Y-100452800D02*
X138241600Y-98361800D01*
X138241600Y-104623800D02*
X138241600Y-102532800D01*
X138201600Y-100452800D02*
X138201600Y-98351800D01*
X138201600Y-104633800D02*
X138201600Y-102532800D01*
X138161600Y-100452800D02*
X138161600Y-98342800D01*
X138161600Y-104642800D02*
X138161600Y-102532800D01*
X138120600Y-100452800D02*
X138120600Y-98333800D01*
X138120600Y-104651800D02*
X138120600Y-102532800D01*
X138080600Y-100452800D02*
X138080600Y-98325800D01*
X138080600Y-104659800D02*
X138080600Y-102532800D01*
X138040600Y-100452800D02*
X138040600Y-98317800D01*
X138040600Y-104667800D02*
X138040600Y-102532800D01*
X138000600Y-100452800D02*
X138000600Y-98310800D01*
X138000600Y-104674800D02*
X138000600Y-102532800D01*
X137960600Y-100452800D02*
X137960600Y-98303800D01*
X137960600Y-104681800D02*
X137960600Y-102532800D01*
X137920600Y-100452800D02*
X137920600Y-98297800D01*
X137920600Y-104687800D02*
X137920600Y-102532800D01*
X137880600Y-100452800D02*
X137880600Y-98291800D01*
X137880600Y-104693800D02*
X137880600Y-102532800D01*
X137840600Y-100452800D02*
X137840600Y-98286800D01*
X137840600Y-104698800D02*
X137840600Y-102532800D01*
X137800600Y-100452800D02*
X137800600Y-98281800D01*
X137800600Y-104703800D02*
X137800600Y-102532800D01*
X137760600Y-100452800D02*
X137760600Y-98277800D01*
X137760600Y-104707800D02*
X137760600Y-102532800D01*
X137720600Y-100452800D02*
X137720600Y-98274800D01*
X137720600Y-104710800D02*
X137720600Y-102532800D01*
X137680600Y-100452800D02*
X137680600Y-98270800D01*
X137680600Y-104714800D02*
X137680600Y-102532800D01*
X137640600Y-104716800D02*
X137640600Y-98268800D01*
X137600600Y-104719800D02*
X137600600Y-98265800D01*
X137560600Y-104720800D02*
X137560600Y-98264800D01*
X137520600Y-104722800D02*
X137520600Y-98262800D01*
X137480600Y-104722800D02*
X137480600Y-98262800D01*
X137440600Y-104722800D02*
X137440600Y-98262800D01*
X140710600Y-101492800D02*
G75*
G03X140710600Y-101492800I-3270000J0D01*
G01*
X162110100Y-101619800D02*
G75*
G03X162110100Y-101619800I-3270000J0D01*
G01*
X158840100Y-104849800D02*
X158840100Y-98389800D01*
X158880100Y-104849800D02*
X158880100Y-98389800D01*
X158920100Y-104849800D02*
X158920100Y-98389800D01*
X158960100Y-104847800D02*
X158960100Y-98391800D01*
X159000100Y-104846800D02*
X159000100Y-98392800D01*
X159040100Y-104843800D02*
X159040100Y-98395800D01*
X159080100Y-104841800D02*
X159080100Y-102659800D01*
X159080100Y-100579800D02*
X159080100Y-98397800D01*
X159120100Y-104837800D02*
X159120100Y-102659800D01*
X159120100Y-100579800D02*
X159120100Y-98401800D01*
X159160100Y-104834800D02*
X159160100Y-102659800D01*
X159160100Y-100579800D02*
X159160100Y-98404800D01*
X159200100Y-104830800D02*
X159200100Y-102659800D01*
X159200100Y-100579800D02*
X159200100Y-98408800D01*
X159240100Y-104825800D02*
X159240100Y-102659800D01*
X159240100Y-100579800D02*
X159240100Y-98413800D01*
X159280100Y-104820800D02*
X159280100Y-102659800D01*
X159280100Y-100579800D02*
X159280100Y-98418800D01*
X159320100Y-104814800D02*
X159320100Y-102659800D01*
X159320100Y-100579800D02*
X159320100Y-98424800D01*
X159360100Y-104808800D02*
X159360100Y-102659800D01*
X159360100Y-100579800D02*
X159360100Y-98430800D01*
X159400100Y-104801800D02*
X159400100Y-102659800D01*
X159400100Y-100579800D02*
X159400100Y-98437800D01*
X159440100Y-104794800D02*
X159440100Y-102659800D01*
X159440100Y-100579800D02*
X159440100Y-98444800D01*
X159480100Y-104786800D02*
X159480100Y-102659800D01*
X159480100Y-100579800D02*
X159480100Y-98452800D01*
X159520100Y-104778800D02*
X159520100Y-102659800D01*
X159520100Y-100579800D02*
X159520100Y-98460800D01*
X159561100Y-104769800D02*
X159561100Y-102659800D01*
X159561100Y-100579800D02*
X159561100Y-98469800D01*
X159601100Y-104760800D02*
X159601100Y-102659800D01*
X159601100Y-100579800D02*
X159601100Y-98478800D01*
X159641100Y-104750800D02*
X159641100Y-102659800D01*
X159641100Y-100579800D02*
X159641100Y-98488800D01*
X159681100Y-104740800D02*
X159681100Y-102659800D01*
X159681100Y-100579800D02*
X159681100Y-98498800D01*
X159721100Y-104729800D02*
X159721100Y-102659800D01*
X159721100Y-100579800D02*
X159721100Y-98509800D01*
X159761100Y-104717800D02*
X159761100Y-102659800D01*
X159761100Y-100579800D02*
X159761100Y-98521800D01*
X159801100Y-104705800D02*
X159801100Y-102659800D01*
X159801100Y-100579800D02*
X159801100Y-98533800D01*
X159841100Y-104693800D02*
X159841100Y-102659800D01*
X159841100Y-100579800D02*
X159841100Y-98545800D01*
X159881100Y-104680800D02*
X159881100Y-102659800D01*
X159881100Y-100579800D02*
X159881100Y-98558800D01*
X159921100Y-104666800D02*
X159921100Y-102659800D01*
X159921100Y-100579800D02*
X159921100Y-98572800D01*
X159961100Y-104652800D02*
X159961100Y-102659800D01*
X159961100Y-100579800D02*
X159961100Y-98586800D01*
X160001100Y-104637800D02*
X160001100Y-102659800D01*
X160001100Y-100579800D02*
X160001100Y-98601800D01*
X160041100Y-104621800D02*
X160041100Y-102659800D01*
X160041100Y-100579800D02*
X160041100Y-98617800D01*
X160081100Y-104605800D02*
X160081100Y-102659800D01*
X160081100Y-100579800D02*
X160081100Y-98633800D01*
X160121100Y-104589800D02*
X160121100Y-102659800D01*
X160121100Y-100579800D02*
X160121100Y-98649800D01*
X160161100Y-104571800D02*
X160161100Y-102659800D01*
X160161100Y-100579800D02*
X160161100Y-98667800D01*
X160201100Y-104553800D02*
X160201100Y-102659800D01*
X160201100Y-100579800D02*
X160201100Y-98685800D01*
X160241100Y-104535800D02*
X160241100Y-102659800D01*
X160241100Y-100579800D02*
X160241100Y-98703800D01*
X160281100Y-104515800D02*
X160281100Y-102659800D01*
X160281100Y-100579800D02*
X160281100Y-98723800D01*
X160321100Y-104495800D02*
X160321100Y-102659800D01*
X160321100Y-100579800D02*
X160321100Y-98743800D01*
X160361100Y-104475800D02*
X160361100Y-102659800D01*
X160361100Y-100579800D02*
X160361100Y-98763800D01*
X160401100Y-104453800D02*
X160401100Y-102659800D01*
X160401100Y-100579800D02*
X160401100Y-98785800D01*
X160441100Y-104431800D02*
X160441100Y-102659800D01*
X160441100Y-100579800D02*
X160441100Y-98807800D01*
X160481100Y-104409800D02*
X160481100Y-102659800D01*
X160481100Y-100579800D02*
X160481100Y-98829800D01*
X160521100Y-104385800D02*
X160521100Y-102659800D01*
X160521100Y-100579800D02*
X160521100Y-98853800D01*
X160561100Y-104361800D02*
X160561100Y-102659800D01*
X160561100Y-100579800D02*
X160561100Y-98877800D01*
X160601100Y-104335800D02*
X160601100Y-102659800D01*
X160601100Y-100579800D02*
X160601100Y-98903800D01*
X160641100Y-104309800D02*
X160641100Y-102659800D01*
X160641100Y-100579800D02*
X160641100Y-98929800D01*
X160681100Y-104283800D02*
X160681100Y-102659800D01*
X160681100Y-100579800D02*
X160681100Y-98955800D01*
X160721100Y-104255800D02*
X160721100Y-102659800D01*
X160721100Y-100579800D02*
X160721100Y-98983800D01*
X160761100Y-104226800D02*
X160761100Y-102659800D01*
X160761100Y-100579800D02*
X160761100Y-99012800D01*
X160801100Y-104197800D02*
X160801100Y-102659800D01*
X160801100Y-100579800D02*
X160801100Y-99041800D01*
X160841100Y-104167800D02*
X160841100Y-102659800D01*
X160841100Y-100579800D02*
X160841100Y-99071800D01*
X160881100Y-104135800D02*
X160881100Y-102659800D01*
X160881100Y-100579800D02*
X160881100Y-99103800D01*
X160921100Y-104103800D02*
X160921100Y-102659800D01*
X160921100Y-100579800D02*
X160921100Y-99135800D01*
X160961100Y-104069800D02*
X160961100Y-102659800D01*
X160961100Y-100579800D02*
X160961100Y-99169800D01*
X161001100Y-104035800D02*
X161001100Y-102659800D01*
X161001100Y-100579800D02*
X161001100Y-99203800D01*
X161041100Y-103999800D02*
X161041100Y-102659800D01*
X161041100Y-100579800D02*
X161041100Y-99239800D01*
X161081100Y-103962800D02*
X161081100Y-102659800D01*
X161081100Y-100579800D02*
X161081100Y-99276800D01*
X161121100Y-103924800D02*
X161121100Y-102659800D01*
X161121100Y-100579800D02*
X161121100Y-99314800D01*
X161161100Y-103884800D02*
X161161100Y-99354800D01*
X161201100Y-103843800D02*
X161201100Y-99395800D01*
X161241100Y-103801800D02*
X161241100Y-99437800D01*
X161281100Y-103756800D02*
X161281100Y-99482800D01*
X161321100Y-103711800D02*
X161321100Y-99527800D01*
X161361100Y-103663800D02*
X161361100Y-99575800D01*
X161401100Y-103614800D02*
X161401100Y-99624800D01*
X161441100Y-103563800D02*
X161441100Y-99675800D01*
X161481100Y-103509800D02*
X161481100Y-99729800D01*
X161521100Y-103453800D02*
X161521100Y-99785800D01*
X161561100Y-103395800D02*
X161561100Y-99843800D01*
X161601100Y-103333800D02*
X161601100Y-99905800D01*
X161641100Y-103269800D02*
X161641100Y-99969800D01*
X161681100Y-103200800D02*
X161681100Y-100038800D01*
X161721100Y-103128800D02*
X161721100Y-100110800D01*
X161761100Y-103051800D02*
X161761100Y-100187800D01*
X161801100Y-102969800D02*
X161801100Y-100269800D01*
X161841100Y-102881800D02*
X161841100Y-100357800D01*
X161881100Y-102784800D02*
X161881100Y-100454800D01*
X161921100Y-102678800D02*
X161921100Y-100560800D01*
X161961100Y-102559800D02*
X161961100Y-100679800D01*
X162001100Y-102421800D02*
X162001100Y-100817800D01*
X162041100Y-102252800D02*
X162041100Y-100986800D01*
X162081100Y-102021800D02*
X162081100Y-101217800D01*
X155339859Y-103458800D02*
X155969859Y-103458800D01*
X155654859Y-103773800D02*
X155654859Y-103143800D01*
X198542759Y-103799200D02*
X198542759Y-103169200D01*
X198227759Y-103484200D02*
X198857759Y-103484200D01*
X204969000Y-102047200D02*
X204969000Y-101243200D01*
X204929000Y-102278200D02*
X204929000Y-101012200D01*
X204889000Y-102447200D02*
X204889000Y-100843200D01*
X204849000Y-102585200D02*
X204849000Y-100705200D01*
X204809000Y-102704200D02*
X204809000Y-100586200D01*
X204769000Y-102810200D02*
X204769000Y-100480200D01*
X204729000Y-102907200D02*
X204729000Y-100383200D01*
X204689000Y-102995200D02*
X204689000Y-100295200D01*
X204649000Y-103077200D02*
X204649000Y-100213200D01*
X204609000Y-103154200D02*
X204609000Y-100136200D01*
X204569000Y-103226200D02*
X204569000Y-100064200D01*
X204529000Y-103295200D02*
X204529000Y-99995200D01*
X204489000Y-103359200D02*
X204489000Y-99931200D01*
X204449000Y-103421200D02*
X204449000Y-99869200D01*
X204409000Y-103479200D02*
X204409000Y-99811200D01*
X204369000Y-103535200D02*
X204369000Y-99755200D01*
X204329000Y-103589200D02*
X204329000Y-99701200D01*
X204289000Y-103640200D02*
X204289000Y-99650200D01*
X204249000Y-103689200D02*
X204249000Y-99601200D01*
X204209000Y-103737200D02*
X204209000Y-99553200D01*
X204169000Y-103782200D02*
X204169000Y-99508200D01*
X204129000Y-103827200D02*
X204129000Y-99463200D01*
X204089000Y-103869200D02*
X204089000Y-99421200D01*
X204049000Y-103910200D02*
X204049000Y-99380200D01*
X204009000Y-100605200D02*
X204009000Y-99340200D01*
X204009000Y-103950200D02*
X204009000Y-102685200D01*
X203969000Y-100605200D02*
X203969000Y-99302200D01*
X203969000Y-103988200D02*
X203969000Y-102685200D01*
X203929000Y-100605200D02*
X203929000Y-99265200D01*
X203929000Y-104025200D02*
X203929000Y-102685200D01*
X203889000Y-100605200D02*
X203889000Y-99229200D01*
X203889000Y-104061200D02*
X203889000Y-102685200D01*
X203849000Y-100605200D02*
X203849000Y-99195200D01*
X203849000Y-104095200D02*
X203849000Y-102685200D01*
X203809000Y-100605200D02*
X203809000Y-99161200D01*
X203809000Y-104129200D02*
X203809000Y-102685200D01*
X203769000Y-100605200D02*
X203769000Y-99129200D01*
X203769000Y-104161200D02*
X203769000Y-102685200D01*
X203729000Y-100605200D02*
X203729000Y-99097200D01*
X203729000Y-104193200D02*
X203729000Y-102685200D01*
X203689000Y-100605200D02*
X203689000Y-99067200D01*
X203689000Y-104223200D02*
X203689000Y-102685200D01*
X203649000Y-100605200D02*
X203649000Y-99038200D01*
X203649000Y-104252200D02*
X203649000Y-102685200D01*
X203609000Y-100605200D02*
X203609000Y-99009200D01*
X203609000Y-104281200D02*
X203609000Y-102685200D01*
X203569000Y-100605200D02*
X203569000Y-98981200D01*
X203569000Y-104309200D02*
X203569000Y-102685200D01*
X203529000Y-100605200D02*
X203529000Y-98955200D01*
X203529000Y-104335200D02*
X203529000Y-102685200D01*
X203489000Y-100605200D02*
X203489000Y-98929200D01*
X203489000Y-104361200D02*
X203489000Y-102685200D01*
X203449000Y-100605200D02*
X203449000Y-98903200D01*
X203449000Y-104387200D02*
X203449000Y-102685200D01*
X203409000Y-100605200D02*
X203409000Y-98879200D01*
X203409000Y-104411200D02*
X203409000Y-102685200D01*
X203369000Y-100605200D02*
X203369000Y-98855200D01*
X203369000Y-104435200D02*
X203369000Y-102685200D01*
X203329000Y-100605200D02*
X203329000Y-98833200D01*
X203329000Y-104457200D02*
X203329000Y-102685200D01*
X203289000Y-100605200D02*
X203289000Y-98811200D01*
X203289000Y-104479200D02*
X203289000Y-102685200D01*
X203249000Y-100605200D02*
X203249000Y-98789200D01*
X203249000Y-104501200D02*
X203249000Y-102685200D01*
X203209000Y-100605200D02*
X203209000Y-98769200D01*
X203209000Y-104521200D02*
X203209000Y-102685200D01*
X203169000Y-100605200D02*
X203169000Y-98749200D01*
X203169000Y-104541200D02*
X203169000Y-102685200D01*
X203129000Y-100605200D02*
X203129000Y-98729200D01*
X203129000Y-104561200D02*
X203129000Y-102685200D01*
X203089000Y-100605200D02*
X203089000Y-98711200D01*
X203089000Y-104579200D02*
X203089000Y-102685200D01*
X203049000Y-100605200D02*
X203049000Y-98693200D01*
X203049000Y-104597200D02*
X203049000Y-102685200D01*
X203009000Y-100605200D02*
X203009000Y-98675200D01*
X203009000Y-104615200D02*
X203009000Y-102685200D01*
X202969000Y-100605200D02*
X202969000Y-98659200D01*
X202969000Y-104631200D02*
X202969000Y-102685200D01*
X202929000Y-100605200D02*
X202929000Y-98643200D01*
X202929000Y-104647200D02*
X202929000Y-102685200D01*
X202889000Y-100605200D02*
X202889000Y-98627200D01*
X202889000Y-104663200D02*
X202889000Y-102685200D01*
X202849000Y-100605200D02*
X202849000Y-98612200D01*
X202849000Y-104678200D02*
X202849000Y-102685200D01*
X202809000Y-100605200D02*
X202809000Y-98598200D01*
X202809000Y-104692200D02*
X202809000Y-102685200D01*
X202769000Y-100605200D02*
X202769000Y-98584200D01*
X202769000Y-104706200D02*
X202769000Y-102685200D01*
X202729000Y-100605200D02*
X202729000Y-98571200D01*
X202729000Y-104719200D02*
X202729000Y-102685200D01*
X202689000Y-100605200D02*
X202689000Y-98559200D01*
X202689000Y-104731200D02*
X202689000Y-102685200D01*
X202649000Y-100605200D02*
X202649000Y-98547200D01*
X202649000Y-104743200D02*
X202649000Y-102685200D01*
X202609000Y-100605200D02*
X202609000Y-98535200D01*
X202609000Y-104755200D02*
X202609000Y-102685200D01*
X202569000Y-100605200D02*
X202569000Y-98524200D01*
X202569000Y-104766200D02*
X202569000Y-102685200D01*
X202529000Y-100605200D02*
X202529000Y-98514200D01*
X202529000Y-104776200D02*
X202529000Y-102685200D01*
X202489000Y-100605200D02*
X202489000Y-98504200D01*
X202489000Y-104786200D02*
X202489000Y-102685200D01*
X202449000Y-100605200D02*
X202449000Y-98495200D01*
X202449000Y-104795200D02*
X202449000Y-102685200D01*
X202408000Y-100605200D02*
X202408000Y-98486200D01*
X202408000Y-104804200D02*
X202408000Y-102685200D01*
X202368000Y-100605200D02*
X202368000Y-98478200D01*
X202368000Y-104812200D02*
X202368000Y-102685200D01*
X202328000Y-100605200D02*
X202328000Y-98470200D01*
X202328000Y-104820200D02*
X202328000Y-102685200D01*
X202288000Y-100605200D02*
X202288000Y-98463200D01*
X202288000Y-104827200D02*
X202288000Y-102685200D01*
X202248000Y-100605200D02*
X202248000Y-98456200D01*
X202248000Y-104834200D02*
X202248000Y-102685200D01*
X202208000Y-100605200D02*
X202208000Y-98450200D01*
X202208000Y-104840200D02*
X202208000Y-102685200D01*
X202168000Y-100605200D02*
X202168000Y-98444200D01*
X202168000Y-104846200D02*
X202168000Y-102685200D01*
X202128000Y-100605200D02*
X202128000Y-98439200D01*
X202128000Y-104851200D02*
X202128000Y-102685200D01*
X202088000Y-100605200D02*
X202088000Y-98434200D01*
X202088000Y-104856200D02*
X202088000Y-102685200D01*
X202048000Y-100605200D02*
X202048000Y-98430200D01*
X202048000Y-104860200D02*
X202048000Y-102685200D01*
X202008000Y-100605200D02*
X202008000Y-98427200D01*
X202008000Y-104863200D02*
X202008000Y-102685200D01*
X201968000Y-100605200D02*
X201968000Y-98423200D01*
X201968000Y-104867200D02*
X201968000Y-102685200D01*
X201928000Y-104869200D02*
X201928000Y-98421200D01*
X201888000Y-104872200D02*
X201888000Y-98418200D01*
X201848000Y-104873200D02*
X201848000Y-98417200D01*
X201808000Y-104875200D02*
X201808000Y-98415200D01*
X201768000Y-104875200D02*
X201768000Y-98415200D01*
X201728000Y-104875200D02*
X201728000Y-98415200D01*
X204998000Y-101645200D02*
G75*
G03X204998000Y-101645200I-3270000J0D01*
G01*
X177054359Y-103773800D02*
X177054359Y-103143800D01*
X176739359Y-103458800D02*
X177369359Y-103458800D01*
X183480600Y-102021800D02*
X183480600Y-101217800D01*
X183440600Y-102252800D02*
X183440600Y-100986800D01*
X183400600Y-102421800D02*
X183400600Y-100817800D01*
X183360600Y-102559800D02*
X183360600Y-100679800D01*
X183320600Y-102678800D02*
X183320600Y-100560800D01*
X183280600Y-102784800D02*
X183280600Y-100454800D01*
X183240600Y-102881800D02*
X183240600Y-100357800D01*
X183200600Y-102969800D02*
X183200600Y-100269800D01*
X183160600Y-103051800D02*
X183160600Y-100187800D01*
X183120600Y-103128800D02*
X183120600Y-100110800D01*
X183080600Y-103200800D02*
X183080600Y-100038800D01*
X183040600Y-103269800D02*
X183040600Y-99969800D01*
X183000600Y-103333800D02*
X183000600Y-99905800D01*
X182960600Y-103395800D02*
X182960600Y-99843800D01*
X182920600Y-103453800D02*
X182920600Y-99785800D01*
X182880600Y-103509800D02*
X182880600Y-99729800D01*
X182840600Y-103563800D02*
X182840600Y-99675800D01*
X182800600Y-103614800D02*
X182800600Y-99624800D01*
X182760600Y-103663800D02*
X182760600Y-99575800D01*
X182720600Y-103711800D02*
X182720600Y-99527800D01*
X182680600Y-103756800D02*
X182680600Y-99482800D01*
X182640600Y-103801800D02*
X182640600Y-99437800D01*
X182600600Y-103843800D02*
X182600600Y-99395800D01*
X182560600Y-103884800D02*
X182560600Y-99354800D01*
X182520600Y-100579800D02*
X182520600Y-99314800D01*
X182520600Y-103924800D02*
X182520600Y-102659800D01*
X182480600Y-100579800D02*
X182480600Y-99276800D01*
X182480600Y-103962800D02*
X182480600Y-102659800D01*
X182440600Y-100579800D02*
X182440600Y-99239800D01*
X182440600Y-103999800D02*
X182440600Y-102659800D01*
X182400600Y-100579800D02*
X182400600Y-99203800D01*
X182400600Y-104035800D02*
X182400600Y-102659800D01*
X182360600Y-100579800D02*
X182360600Y-99169800D01*
X182360600Y-104069800D02*
X182360600Y-102659800D01*
X182320600Y-100579800D02*
X182320600Y-99135800D01*
X182320600Y-104103800D02*
X182320600Y-102659800D01*
X182280600Y-100579800D02*
X182280600Y-99103800D01*
X182280600Y-104135800D02*
X182280600Y-102659800D01*
X182240600Y-100579800D02*
X182240600Y-99071800D01*
X182240600Y-104167800D02*
X182240600Y-102659800D01*
X182200600Y-100579800D02*
X182200600Y-99041800D01*
X182200600Y-104197800D02*
X182200600Y-102659800D01*
X182160600Y-100579800D02*
X182160600Y-99012800D01*
X182160600Y-104226800D02*
X182160600Y-102659800D01*
X182120600Y-100579800D02*
X182120600Y-98983800D01*
X182120600Y-104255800D02*
X182120600Y-102659800D01*
X182080600Y-100579800D02*
X182080600Y-98955800D01*
X182080600Y-104283800D02*
X182080600Y-102659800D01*
X182040600Y-100579800D02*
X182040600Y-98929800D01*
X182040600Y-104309800D02*
X182040600Y-102659800D01*
X182000600Y-100579800D02*
X182000600Y-98903800D01*
X182000600Y-104335800D02*
X182000600Y-102659800D01*
X181960600Y-100579800D02*
X181960600Y-98877800D01*
X181960600Y-104361800D02*
X181960600Y-102659800D01*
X181920600Y-100579800D02*
X181920600Y-98853800D01*
X181920600Y-104385800D02*
X181920600Y-102659800D01*
X181880600Y-100579800D02*
X181880600Y-98829800D01*
X181880600Y-104409800D02*
X181880600Y-102659800D01*
X181840600Y-100579800D02*
X181840600Y-98807800D01*
X181840600Y-104431800D02*
X181840600Y-102659800D01*
X181800600Y-100579800D02*
X181800600Y-98785800D01*
X181800600Y-104453800D02*
X181800600Y-102659800D01*
X181760600Y-100579800D02*
X181760600Y-98763800D01*
X181760600Y-104475800D02*
X181760600Y-102659800D01*
X181720600Y-100579800D02*
X181720600Y-98743800D01*
X181720600Y-104495800D02*
X181720600Y-102659800D01*
X181680600Y-100579800D02*
X181680600Y-98723800D01*
X181680600Y-104515800D02*
X181680600Y-102659800D01*
X181640600Y-100579800D02*
X181640600Y-98703800D01*
X181640600Y-104535800D02*
X181640600Y-102659800D01*
X181600600Y-100579800D02*
X181600600Y-98685800D01*
X181600600Y-104553800D02*
X181600600Y-102659800D01*
X181560600Y-100579800D02*
X181560600Y-98667800D01*
X181560600Y-104571800D02*
X181560600Y-102659800D01*
X181520600Y-100579800D02*
X181520600Y-98649800D01*
X181520600Y-104589800D02*
X181520600Y-102659800D01*
X181480600Y-100579800D02*
X181480600Y-98633800D01*
X181480600Y-104605800D02*
X181480600Y-102659800D01*
X181440600Y-100579800D02*
X181440600Y-98617800D01*
X181440600Y-104621800D02*
X181440600Y-102659800D01*
X181400600Y-100579800D02*
X181400600Y-98601800D01*
X181400600Y-104637800D02*
X181400600Y-102659800D01*
X181360600Y-100579800D02*
X181360600Y-98586800D01*
X181360600Y-104652800D02*
X181360600Y-102659800D01*
X181320600Y-100579800D02*
X181320600Y-98572800D01*
X181320600Y-104666800D02*
X181320600Y-102659800D01*
X181280600Y-100579800D02*
X181280600Y-98558800D01*
X181280600Y-104680800D02*
X181280600Y-102659800D01*
X181240600Y-100579800D02*
X181240600Y-98545800D01*
X181240600Y-104693800D02*
X181240600Y-102659800D01*
X181200600Y-100579800D02*
X181200600Y-98533800D01*
X181200600Y-104705800D02*
X181200600Y-102659800D01*
X181160600Y-100579800D02*
X181160600Y-98521800D01*
X181160600Y-104717800D02*
X181160600Y-102659800D01*
X181120600Y-100579800D02*
X181120600Y-98509800D01*
X181120600Y-104729800D02*
X181120600Y-102659800D01*
X181080600Y-100579800D02*
X181080600Y-98498800D01*
X181080600Y-104740800D02*
X181080600Y-102659800D01*
X181040600Y-100579800D02*
X181040600Y-98488800D01*
X181040600Y-104750800D02*
X181040600Y-102659800D01*
X181000600Y-100579800D02*
X181000600Y-98478800D01*
X181000600Y-104760800D02*
X181000600Y-102659800D01*
X180960600Y-100579800D02*
X180960600Y-98469800D01*
X180960600Y-104769800D02*
X180960600Y-102659800D01*
X180919600Y-100579800D02*
X180919600Y-98460800D01*
X180919600Y-104778800D02*
X180919600Y-102659800D01*
X180879600Y-100579800D02*
X180879600Y-98452800D01*
X180879600Y-104786800D02*
X180879600Y-102659800D01*
X180839600Y-100579800D02*
X180839600Y-98444800D01*
X180839600Y-104794800D02*
X180839600Y-102659800D01*
X180799600Y-100579800D02*
X180799600Y-98437800D01*
X180799600Y-104801800D02*
X180799600Y-102659800D01*
X180759600Y-100579800D02*
X180759600Y-98430800D01*
X180759600Y-104808800D02*
X180759600Y-102659800D01*
X180719600Y-100579800D02*
X180719600Y-98424800D01*
X180719600Y-104814800D02*
X180719600Y-102659800D01*
X180679600Y-100579800D02*
X180679600Y-98418800D01*
X180679600Y-104820800D02*
X180679600Y-102659800D01*
X180639600Y-100579800D02*
X180639600Y-98413800D01*
X180639600Y-104825800D02*
X180639600Y-102659800D01*
X180599600Y-100579800D02*
X180599600Y-98408800D01*
X180599600Y-104830800D02*
X180599600Y-102659800D01*
X180559600Y-100579800D02*
X180559600Y-98404800D01*
X180559600Y-104834800D02*
X180559600Y-102659800D01*
X180519600Y-100579800D02*
X180519600Y-98401800D01*
X180519600Y-104837800D02*
X180519600Y-102659800D01*
X180479600Y-100579800D02*
X180479600Y-98397800D01*
X180479600Y-104841800D02*
X180479600Y-102659800D01*
X180439600Y-104843800D02*
X180439600Y-98395800D01*
X180399600Y-104846800D02*
X180399600Y-98392800D01*
X180359600Y-104847800D02*
X180359600Y-98391800D01*
X180319600Y-104849800D02*
X180319600Y-98389800D01*
X180279600Y-104849800D02*
X180279600Y-98389800D01*
X180239600Y-104849800D02*
X180239600Y-98389800D01*
X183509600Y-101619800D02*
G75*
G03X183509600Y-101619800I-3270000J0D01*
G01*
X205175800Y-77019900D02*
G75*
G03X205175800Y-77019900I-3270000J0D01*
G01*
X201905800Y-80249900D02*
X201905800Y-73789900D01*
X201945800Y-80249900D02*
X201945800Y-73789900D01*
X201985800Y-80249900D02*
X201985800Y-73789900D01*
X202025800Y-80247900D02*
X202025800Y-73791900D01*
X202065800Y-80246900D02*
X202065800Y-73792900D01*
X202105800Y-80243900D02*
X202105800Y-73795900D01*
X202145800Y-80241900D02*
X202145800Y-78059900D01*
X202145800Y-75979900D02*
X202145800Y-73797900D01*
X202185800Y-80237900D02*
X202185800Y-78059900D01*
X202185800Y-75979900D02*
X202185800Y-73801900D01*
X202225800Y-80234900D02*
X202225800Y-78059900D01*
X202225800Y-75979900D02*
X202225800Y-73804900D01*
X202265800Y-80230900D02*
X202265800Y-78059900D01*
X202265800Y-75979900D02*
X202265800Y-73808900D01*
X202305800Y-80225900D02*
X202305800Y-78059900D01*
X202305800Y-75979900D02*
X202305800Y-73813900D01*
X202345800Y-80220900D02*
X202345800Y-78059900D01*
X202345800Y-75979900D02*
X202345800Y-73818900D01*
X202385800Y-80214900D02*
X202385800Y-78059900D01*
X202385800Y-75979900D02*
X202385800Y-73824900D01*
X202425800Y-80208900D02*
X202425800Y-78059900D01*
X202425800Y-75979900D02*
X202425800Y-73830900D01*
X202465800Y-80201900D02*
X202465800Y-78059900D01*
X202465800Y-75979900D02*
X202465800Y-73837900D01*
X202505800Y-80194900D02*
X202505800Y-78059900D01*
X202505800Y-75979900D02*
X202505800Y-73844900D01*
X202545800Y-80186900D02*
X202545800Y-78059900D01*
X202545800Y-75979900D02*
X202545800Y-73852900D01*
X202585800Y-80178900D02*
X202585800Y-78059900D01*
X202585800Y-75979900D02*
X202585800Y-73860900D01*
X202626800Y-80169900D02*
X202626800Y-78059900D01*
X202626800Y-75979900D02*
X202626800Y-73869900D01*
X202666800Y-80160900D02*
X202666800Y-78059900D01*
X202666800Y-75979900D02*
X202666800Y-73878900D01*
X202706800Y-80150900D02*
X202706800Y-78059900D01*
X202706800Y-75979900D02*
X202706800Y-73888900D01*
X202746800Y-80140900D02*
X202746800Y-78059900D01*
X202746800Y-75979900D02*
X202746800Y-73898900D01*
X202786800Y-80129900D02*
X202786800Y-78059900D01*
X202786800Y-75979900D02*
X202786800Y-73909900D01*
X202826800Y-80117900D02*
X202826800Y-78059900D01*
X202826800Y-75979900D02*
X202826800Y-73921900D01*
X202866800Y-80105900D02*
X202866800Y-78059900D01*
X202866800Y-75979900D02*
X202866800Y-73933900D01*
X202906800Y-80093900D02*
X202906800Y-78059900D01*
X202906800Y-75979900D02*
X202906800Y-73945900D01*
X202946800Y-80080900D02*
X202946800Y-78059900D01*
X202946800Y-75979900D02*
X202946800Y-73958900D01*
X202986800Y-80066900D02*
X202986800Y-78059900D01*
X202986800Y-75979900D02*
X202986800Y-73972900D01*
X203026800Y-80052900D02*
X203026800Y-78059900D01*
X203026800Y-75979900D02*
X203026800Y-73986900D01*
X203066800Y-80037900D02*
X203066800Y-78059900D01*
X203066800Y-75979900D02*
X203066800Y-74001900D01*
X203106800Y-80021900D02*
X203106800Y-78059900D01*
X203106800Y-75979900D02*
X203106800Y-74017900D01*
X203146800Y-80005900D02*
X203146800Y-78059900D01*
X203146800Y-75979900D02*
X203146800Y-74033900D01*
X203186800Y-79989900D02*
X203186800Y-78059900D01*
X203186800Y-75979900D02*
X203186800Y-74049900D01*
X203226800Y-79971900D02*
X203226800Y-78059900D01*
X203226800Y-75979900D02*
X203226800Y-74067900D01*
X203266800Y-79953900D02*
X203266800Y-78059900D01*
X203266800Y-75979900D02*
X203266800Y-74085900D01*
X203306800Y-79935900D02*
X203306800Y-78059900D01*
X203306800Y-75979900D02*
X203306800Y-74103900D01*
X203346800Y-79915900D02*
X203346800Y-78059900D01*
X203346800Y-75979900D02*
X203346800Y-74123900D01*
X203386800Y-79895900D02*
X203386800Y-78059900D01*
X203386800Y-75979900D02*
X203386800Y-74143900D01*
X203426800Y-79875900D02*
X203426800Y-78059900D01*
X203426800Y-75979900D02*
X203426800Y-74163900D01*
X203466800Y-79853900D02*
X203466800Y-78059900D01*
X203466800Y-75979900D02*
X203466800Y-74185900D01*
X203506800Y-79831900D02*
X203506800Y-78059900D01*
X203506800Y-75979900D02*
X203506800Y-74207900D01*
X203546800Y-79809900D02*
X203546800Y-78059900D01*
X203546800Y-75979900D02*
X203546800Y-74229900D01*
X203586800Y-79785900D02*
X203586800Y-78059900D01*
X203586800Y-75979900D02*
X203586800Y-74253900D01*
X203626800Y-79761900D02*
X203626800Y-78059900D01*
X203626800Y-75979900D02*
X203626800Y-74277900D01*
X203666800Y-79735900D02*
X203666800Y-78059900D01*
X203666800Y-75979900D02*
X203666800Y-74303900D01*
X203706800Y-79709900D02*
X203706800Y-78059900D01*
X203706800Y-75979900D02*
X203706800Y-74329900D01*
X203746800Y-79683900D02*
X203746800Y-78059900D01*
X203746800Y-75979900D02*
X203746800Y-74355900D01*
X203786800Y-79655900D02*
X203786800Y-78059900D01*
X203786800Y-75979900D02*
X203786800Y-74383900D01*
X203826800Y-79626900D02*
X203826800Y-78059900D01*
X203826800Y-75979900D02*
X203826800Y-74412900D01*
X203866800Y-79597900D02*
X203866800Y-78059900D01*
X203866800Y-75979900D02*
X203866800Y-74441900D01*
X203906800Y-79567900D02*
X203906800Y-78059900D01*
X203906800Y-75979900D02*
X203906800Y-74471900D01*
X203946800Y-79535900D02*
X203946800Y-78059900D01*
X203946800Y-75979900D02*
X203946800Y-74503900D01*
X203986800Y-79503900D02*
X203986800Y-78059900D01*
X203986800Y-75979900D02*
X203986800Y-74535900D01*
X204026800Y-79469900D02*
X204026800Y-78059900D01*
X204026800Y-75979900D02*
X204026800Y-74569900D01*
X204066800Y-79435900D02*
X204066800Y-78059900D01*
X204066800Y-75979900D02*
X204066800Y-74603900D01*
X204106800Y-79399900D02*
X204106800Y-78059900D01*
X204106800Y-75979900D02*
X204106800Y-74639900D01*
X204146800Y-79362900D02*
X204146800Y-78059900D01*
X204146800Y-75979900D02*
X204146800Y-74676900D01*
X204186800Y-79324900D02*
X204186800Y-78059900D01*
X204186800Y-75979900D02*
X204186800Y-74714900D01*
X204226800Y-79284900D02*
X204226800Y-74754900D01*
X204266800Y-79243900D02*
X204266800Y-74795900D01*
X204306800Y-79201900D02*
X204306800Y-74837900D01*
X204346800Y-79156900D02*
X204346800Y-74882900D01*
X204386800Y-79111900D02*
X204386800Y-74927900D01*
X204426800Y-79063900D02*
X204426800Y-74975900D01*
X204466800Y-79014900D02*
X204466800Y-75024900D01*
X204506800Y-78963900D02*
X204506800Y-75075900D01*
X204546800Y-78909900D02*
X204546800Y-75129900D01*
X204586800Y-78853900D02*
X204586800Y-75185900D01*
X204626800Y-78795900D02*
X204626800Y-75243900D01*
X204666800Y-78733900D02*
X204666800Y-75305900D01*
X204706800Y-78669900D02*
X204706800Y-75369900D01*
X204746800Y-78600900D02*
X204746800Y-75438900D01*
X204786800Y-78528900D02*
X204786800Y-75510900D01*
X204826800Y-78451900D02*
X204826800Y-75587900D01*
X204866800Y-78369900D02*
X204866800Y-75669900D01*
X204906800Y-78281900D02*
X204906800Y-75757900D01*
X204946800Y-78184900D02*
X204946800Y-75854900D01*
X204986800Y-78078900D02*
X204986800Y-75960900D01*
X205026800Y-77959900D02*
X205026800Y-76079900D01*
X205066800Y-77821900D02*
X205066800Y-76217900D01*
X205106800Y-77652900D02*
X205106800Y-76386900D01*
X205146800Y-77421900D02*
X205146800Y-76617900D01*
X198405559Y-78858900D02*
X199035559Y-78858900D01*
X198720559Y-79173900D02*
X198720559Y-78543900D01*
X108098700Y-58293200D02*
X108098700Y-58043200D01*
X108098700Y-61243200D02*
X108098700Y-59792200D01*
X100798700Y-59493200D02*
X100798700Y-58043200D01*
X100798700Y-61243200D02*
X100798700Y-60993200D01*
X107877700Y-58043200D02*
X108098700Y-58043200D01*
X100798700Y-58043200D02*
X106120700Y-58043200D01*
X102777700Y-61243200D02*
X108098700Y-61243200D01*
X100798700Y-61243200D02*
X101019700Y-61243200D01*
X104791000Y-62136640D02*
X101591000Y-62136640D01*
X104791000Y-72737640D02*
X101591000Y-72737640D01*
X101591000Y-64007640D02*
X101591000Y-62136640D01*
X101591000Y-72737640D02*
X101591000Y-65764640D01*
X104791000Y-69107640D02*
X104791000Y-62136640D01*
X104791000Y-72737640D02*
X104791000Y-70865640D01*
X99600000Y-73235300D02*
X89440000Y-73235300D01*
X99600000Y-65615300D02*
X99600000Y-73235300D01*
X89440000Y-65615300D02*
X99600000Y-65615300D01*
X89440000Y-73235300D02*
X89440000Y-65615300D01*
X89440000Y-71965300D02*
X99600000Y-71965300D01*
X182718000Y-56614500D02*
X181388000Y-56614500D01*
X182718000Y-57944500D02*
X182718000Y-56614500D01*
X182718000Y-59214500D02*
X180058000Y-59214500D01*
X180058000Y-59214500D02*
X180058000Y-64354500D01*
X182718000Y-59214500D02*
X182718000Y-64354500D01*
X182718000Y-64354500D02*
X180058000Y-64354500D01*
X149101100Y-61839900D02*
X146441100Y-61839900D01*
X149101100Y-59239900D02*
X149101100Y-61839900D01*
X146441100Y-59239900D02*
X146441100Y-61839900D01*
X149101100Y-59239900D02*
X146441100Y-59239900D01*
X149101100Y-57969900D02*
X149101100Y-56639900D01*
X149101100Y-56639900D02*
X147771100Y-56639900D01*
X153203200Y-61839900D02*
X150543200Y-61839900D01*
X153203200Y-59239900D02*
X153203200Y-61839900D01*
X150543200Y-59239900D02*
X150543200Y-61839900D01*
X153203200Y-59239900D02*
X150543200Y-59239900D01*
X153203200Y-57969900D02*
X153203200Y-56639900D01*
X153203200Y-56639900D02*
X151873200Y-56639900D01*
X99587300Y-104324900D02*
X89427300Y-104324900D01*
X99587300Y-96704900D02*
X99587300Y-104324900D01*
X89427300Y-96704900D02*
X99587300Y-96704900D01*
X89427300Y-104324900D02*
X89427300Y-96704900D01*
X89427300Y-103054900D02*
X99587300Y-103054900D01*
X186165100Y-67610500D02*
X186165100Y-64950500D01*
X193845100Y-67610500D02*
X186165100Y-67610500D01*
X193845100Y-64950500D02*
X186165100Y-64950500D01*
X193845100Y-67610500D02*
X193845100Y-64950500D01*
X195115100Y-67610500D02*
X196445100Y-67610500D01*
X196445100Y-67610500D02*
X196445100Y-66280500D01*
X99612700Y-64472300D02*
X89452700Y-64472300D01*
X99612700Y-56852300D02*
X99612700Y-64472300D01*
X89452700Y-56852300D02*
X99612700Y-56852300D01*
X89452700Y-64472300D02*
X89452700Y-56852300D01*
X89452700Y-63202300D02*
X99612700Y-63202300D01*
X142948600Y-102822800D02*
X142948600Y-100162800D01*
X150628600Y-102822800D02*
X142948600Y-102822800D01*
X150628600Y-100162800D02*
X142948600Y-100162800D01*
X150628600Y-102822800D02*
X150628600Y-100162800D01*
X151898600Y-102822800D02*
X153228600Y-102822800D01*
X153228600Y-102822800D02*
X153228600Y-101492800D01*
X186177800Y-60028600D02*
X186177800Y-57368600D01*
X193857800Y-60028600D02*
X186177800Y-60028600D01*
X193857800Y-57368600D02*
X186177800Y-57368600D01*
X193857800Y-60028600D02*
X193857800Y-57368600D01*
X195127800Y-60028600D02*
X196457800Y-60028600D01*
X196457800Y-60028600D02*
X196457800Y-58698600D01*
X186177800Y-63825900D02*
X186177800Y-61165900D01*
X193857800Y-63825900D02*
X186177800Y-63825900D01*
X193857800Y-61165900D02*
X186177800Y-61165900D01*
X193857800Y-63825900D02*
X193857800Y-61165900D01*
X195127800Y-63825900D02*
X196457800Y-63825900D01*
X196457800Y-63825900D02*
X196457800Y-62495900D01*
X145024400Y-56614500D02*
X143694400Y-56614500D01*
X145024400Y-57944500D02*
X145024400Y-56614500D01*
X145024400Y-59214500D02*
X142364400Y-59214500D01*
X142364400Y-59214500D02*
X142364400Y-61814500D01*
X145024400Y-59214500D02*
X145024400Y-61814500D01*
X145024400Y-61814500D02*
X142364400Y-61814500D01*
X154772300Y-77823500D02*
X154772300Y-79153500D01*
X156102300Y-77823500D02*
X154772300Y-77823500D01*
X157372300Y-77823500D02*
X157372300Y-80483500D01*
X157372300Y-80483500D02*
X165052300Y-80483500D01*
X157372300Y-77823500D02*
X165052300Y-77823500D01*
X165052300Y-77823500D02*
X165052300Y-80483500D01*
X110737900Y-104324900D02*
X100577900Y-104324900D01*
X110737900Y-96704900D02*
X110737900Y-104324900D01*
X100577900Y-96704900D02*
X110737900Y-96704900D01*
X100577900Y-104324900D02*
X100577900Y-96704900D01*
X100577900Y-103054900D02*
X110737900Y-103054900D01*
X151315360Y-64470000D02*
X151315360Y-65800000D01*
X152645360Y-64470000D02*
X151315360Y-64470000D01*
X153915360Y-64470000D02*
X153915360Y-67130000D01*
X153915360Y-67130000D02*
X159055360Y-67130000D01*
X153915360Y-64470000D02*
X159055360Y-64470000D01*
X159055360Y-64470000D02*
X159055360Y-67130000D01*
X121799600Y-104324900D02*
X111639600Y-104324900D01*
X121799600Y-96704900D02*
X121799600Y-104324900D01*
X111639600Y-96704900D02*
X121799600Y-96704900D01*
X111639600Y-104324900D02*
X111639600Y-96704900D01*
X111639600Y-103054900D02*
X121799600Y-103054900D01*
X174628100Y-102949800D02*
X174628100Y-101619800D01*
X173298100Y-102949800D02*
X174628100Y-102949800D01*
X172028100Y-102949800D02*
X172028100Y-100289800D01*
X172028100Y-100289800D02*
X164348100Y-100289800D01*
X172028100Y-102949800D02*
X164348100Y-102949800D01*
X164348100Y-102949800D02*
X164348100Y-100289800D01*
X217516000Y-102975200D02*
X217516000Y-101645200D01*
X216186000Y-102975200D02*
X217516000Y-102975200D01*
X214916000Y-102975200D02*
X214916000Y-100315200D01*
X214916000Y-100315200D02*
X207236000Y-100315200D01*
X214916000Y-102975200D02*
X207236000Y-102975200D01*
X207236000Y-102975200D02*
X207236000Y-100315200D01*
X149093480Y-76744000D02*
X149093480Y-79404000D01*
X143953480Y-76744000D02*
X149093480Y-76744000D01*
X143953480Y-79404000D02*
X149093480Y-79404000D01*
X143953480Y-76744000D02*
X143953480Y-79404000D01*
X142683480Y-76744000D02*
X141353480Y-76744000D01*
X141353480Y-76744000D02*
X141353480Y-78074000D01*
X132290000Y-56570000D02*
X132290000Y-57900000D01*
X133620000Y-56570000D02*
X132290000Y-56570000D01*
X134890000Y-56570000D02*
X134890000Y-59230000D01*
X134890000Y-59230000D02*
X140030000Y-59230000D01*
X134890000Y-56570000D02*
X140030000Y-56570000D01*
X140030000Y-56570000D02*
X140030000Y-59230000D01*
X140030000Y-60670000D02*
X140030000Y-63330000D01*
X134890000Y-60670000D02*
X140030000Y-60670000D01*
X134890000Y-63330000D02*
X140030000Y-63330000D01*
X134890000Y-60670000D02*
X134890000Y-63330000D01*
X133620000Y-60670000D02*
X132290000Y-60670000D01*
X132290000Y-60670000D02*
X132290000Y-62000000D01*
X141409360Y-72908600D02*
X141409360Y-74238600D01*
X142739360Y-72908600D02*
X141409360Y-72908600D01*
X144009360Y-72908600D02*
X144009360Y-75568600D01*
X144009360Y-75568600D02*
X149149360Y-75568600D01*
X144009360Y-72908600D02*
X149149360Y-72908600D01*
X149149360Y-72908600D02*
X149149360Y-75568600D01*
X132190000Y-64770000D02*
X132190000Y-66100000D01*
X133520000Y-64770000D02*
X132190000Y-64770000D01*
X134790000Y-64770000D02*
X134790000Y-67430000D01*
X134790000Y-67430000D02*
X139930000Y-67430000D01*
X134790000Y-64770000D02*
X139930000Y-64770000D01*
X139930000Y-64770000D02*
X139930000Y-67430000D01*
X132190000Y-68770000D02*
X132190000Y-70100000D01*
X133520000Y-68770000D02*
X132190000Y-68770000D01*
X134790000Y-68770000D02*
X134790000Y-71430000D01*
X134790000Y-71430000D02*
X139930000Y-71430000D01*
X134790000Y-68770000D02*
X139930000Y-68770000D01*
X139930000Y-68770000D02*
X139930000Y-71430000D01*
X149179840Y-69083360D02*
X149179840Y-71743360D01*
X144039840Y-69083360D02*
X149179840Y-69083360D01*
X144039840Y-71743360D02*
X149179840Y-71743360D01*
X144039840Y-69083360D02*
X144039840Y-71743360D01*
X142769840Y-69083360D02*
X141439840Y-69083360D01*
X141439840Y-69083360D02*
X141439840Y-70413360D01*
X196027600Y-102949800D02*
X196027600Y-101619800D01*
X194697600Y-102949800D02*
X196027600Y-102949800D01*
X193427600Y-102949800D02*
X193427600Y-100289800D01*
X193427600Y-100289800D02*
X185747600Y-100289800D01*
X193427600Y-102949800D02*
X185747600Y-102949800D01*
X185747600Y-102949800D02*
X185747600Y-100289800D01*
X207413800Y-78349900D02*
X207413800Y-75689900D01*
X215093800Y-78349900D02*
X207413800Y-78349900D01*
X215093800Y-75689900D02*
X207413800Y-75689900D01*
X215093800Y-78349900D02*
X215093800Y-75689900D01*
X216363800Y-78349900D02*
X217693800Y-78349900D01*
X217693800Y-78349900D02*
X217693800Y-77019900D01*
X139930000Y-72370000D02*
X139930000Y-75030000D01*
X134790000Y-72370000D02*
X139930000Y-72370000D01*
X134790000Y-75030000D02*
X139930000Y-75030000D01*
X134790000Y-72370000D02*
X134790000Y-75030000D01*
X133520000Y-72370000D02*
X132190000Y-72370000D01*
X132190000Y-72370000D02*
X132190000Y-73700000D01*
X139930000Y-76370000D02*
X139930000Y-79030000D01*
X134790000Y-76370000D02*
X139930000Y-76370000D01*
X134790000Y-79030000D02*
X139930000Y-79030000D01*
X134790000Y-76370000D02*
X134790000Y-79030000D01*
X133520000Y-76370000D02*
X132190000Y-76370000D01*
X132190000Y-76370000D02*
X132190000Y-77700000D01*
X149245880Y-65212400D02*
X149245880Y-67872400D01*
X144105880Y-65212400D02*
X149245880Y-65212400D01*
X144105880Y-67872400D02*
X149245880Y-67872400D01*
X144105880Y-65212400D02*
X144105880Y-67872400D01*
X142835880Y-65212400D02*
X141505880Y-65212400D01*
X141505880Y-65212400D02*
X141505880Y-66542400D01*
X117433843Y-70908160D02*
G75*
G02X109945197Y-70908160I-3744323J1460000D01*
G01*
X117433843Y-67988160D02*
G75*
G03X109945197Y-67988160I-3744323J-1460000D01*
G01*
X115487220Y-69448160D02*
G75*
G03X115487220Y-69448160I-1797700J0D01*
G01*
X92618200Y-74499200D02*
X92618200Y-76009200D01*
X96319200Y-74499200D02*
X96319200Y-76009200D01*
X99589200Y-76009200D02*
X89349200Y-76009200D01*
X89349200Y-74499200D02*
X89349200Y-79140200D01*
X99589200Y-74499200D02*
X99589200Y-79140200D01*
X99589200Y-79140200D02*
X89349200Y-79140200D01*
X99589200Y-74499200D02*
X89349200Y-74499200D01*
X92605500Y-90717100D02*
X92605500Y-92227100D01*
X96306500Y-90717100D02*
X96306500Y-92227100D01*
X99576500Y-92227100D02*
X89336500Y-92227100D01*
X89336500Y-90717100D02*
X89336500Y-95358100D01*
X99576500Y-90717100D02*
X99576500Y-95358100D01*
X99576500Y-95358100D02*
X89336500Y-95358100D01*
X99576500Y-90717100D02*
X89336500Y-90717100D01*
X125930300Y-91085400D02*
X125930300Y-92595400D01*
X129631300Y-91085400D02*
X129631300Y-92595400D01*
X132901300Y-92595400D02*
X122661300Y-92595400D01*
X122661300Y-91085400D02*
X122661300Y-95726400D01*
X132901300Y-91085400D02*
X132901300Y-95726400D01*
X132901300Y-95726400D02*
X122661300Y-95726400D01*
X132901300Y-91085400D02*
X122661300Y-91085400D01*
X103806900Y-91148900D02*
X103806900Y-92658900D01*
X107507900Y-91148900D02*
X107507900Y-92658900D01*
X110777900Y-92658900D02*
X100537900Y-92658900D01*
X100537900Y-91148900D02*
X100537900Y-95789900D01*
X110777900Y-91148900D02*
X110777900Y-95789900D01*
X110777900Y-95789900D02*
X100537900Y-95789900D01*
X110777900Y-91148900D02*
X100537900Y-91148900D01*
X143830600Y-88300800D02*
G75*
G03X143830600Y-90300800I0J-1000000D01*
G01*
X143830600Y-90300800D02*
X143830600Y-91950800D01*
X143830600Y-91950800D02*
X136090600Y-91950800D01*
X136090600Y-91950800D02*
X136090600Y-86650800D01*
X136090600Y-86650800D02*
X143830600Y-86650800D01*
X143830600Y-86650800D02*
X143830600Y-88300800D01*
X165230100Y-88427800D02*
G75*
G03X165230100Y-90427800I0J-1000000D01*
G01*
X165230100Y-90427800D02*
X165230100Y-92077800D01*
X165230100Y-92077800D02*
X157490100Y-92077800D01*
X157490100Y-92077800D02*
X157490100Y-86777800D01*
X157490100Y-86777800D02*
X165230100Y-86777800D01*
X165230100Y-86777800D02*
X165230100Y-88427800D01*
X208118000Y-86803200D02*
X208118000Y-88453200D01*
X200378000Y-86803200D02*
X208118000Y-86803200D01*
X200378000Y-92103200D02*
X200378000Y-86803200D01*
X208118000Y-92103200D02*
X200378000Y-92103200D01*
X208118000Y-90453200D02*
X208118000Y-92103200D01*
X208118000Y-88453200D02*
G75*
G03X208118000Y-90453200I0J-1000000D01*
G01*
X186629600Y-88427800D02*
G75*
G03X186629600Y-90427800I0J-1000000D01*
G01*
X186629600Y-90427800D02*
X186629600Y-92077800D01*
X186629600Y-92077800D02*
X178889600Y-92077800D01*
X178889600Y-92077800D02*
X178889600Y-86777800D01*
X178889600Y-86777800D02*
X186629600Y-86777800D01*
X186629600Y-86777800D02*
X186629600Y-88427800D01*
X208295800Y-62177900D02*
X208295800Y-63827900D01*
X200555800Y-62177900D02*
X208295800Y-62177900D01*
X200555800Y-67477900D02*
X200555800Y-62177900D01*
X208295800Y-67477900D02*
X200555800Y-67477900D01*
X208295800Y-65827900D02*
X208295800Y-67477900D01*
X208295800Y-63827900D02*
G75*
G03X208295800Y-65827900I0J-1000000D01*
G01*
X154050600Y-84310800D02*
X133470600Y-84310800D01*
X151380600Y-94470800D02*
X133470600Y-94470800D01*
X154050600Y-95740800D02*
X154050600Y-97140800D01*
X154050600Y-97140800D02*
X152650600Y-97140800D01*
X154050600Y-94470800D02*
X151380600Y-94470800D01*
X151380600Y-94470800D02*
X151380600Y-97140800D01*
X151380600Y-97140800D02*
X133470600Y-97140800D01*
X133470600Y-97140800D02*
X133470600Y-81640800D01*
X133470600Y-81640800D02*
X154050600Y-81640800D01*
X154050600Y-81640800D02*
X154050600Y-94470800D01*
X175460100Y-81677800D02*
X175460100Y-94507800D01*
X154880100Y-81677800D02*
X175460100Y-81677800D01*
X154880100Y-97177800D02*
X154880100Y-81677800D01*
X172790100Y-97177800D02*
X154880100Y-97177800D01*
X172790100Y-94507800D02*
X172790100Y-97177800D01*
X175460100Y-94507800D02*
X172790100Y-94507800D01*
X175460100Y-97177800D02*
X174060100Y-97177800D01*
X175460100Y-95777800D02*
X175460100Y-97177800D01*
X172790100Y-94507800D02*
X154880100Y-94507800D01*
X175460100Y-84347800D02*
X154880100Y-84347800D01*
X218348000Y-84373200D02*
X197768000Y-84373200D01*
X215678000Y-94533200D02*
X197768000Y-94533200D01*
X218348000Y-95803200D02*
X218348000Y-97203200D01*
X218348000Y-97203200D02*
X216948000Y-97203200D01*
X218348000Y-94533200D02*
X215678000Y-94533200D01*
X215678000Y-94533200D02*
X215678000Y-97203200D01*
X215678000Y-97203200D02*
X197768000Y-97203200D01*
X197768000Y-97203200D02*
X197768000Y-81703200D01*
X197768000Y-81703200D02*
X218348000Y-81703200D01*
X218348000Y-81703200D02*
X218348000Y-94533200D01*
X196859600Y-81677800D02*
X196859600Y-94507800D01*
X176279600Y-81677800D02*
X196859600Y-81677800D01*
X176279600Y-97177800D02*
X176279600Y-81677800D01*
X194189600Y-97177800D02*
X176279600Y-97177800D01*
X194189600Y-94507800D02*
X194189600Y-97177800D01*
X196859600Y-94507800D02*
X194189600Y-94507800D01*
X196859600Y-97177800D02*
X195459600Y-97177800D01*
X196859600Y-95777800D02*
X196859600Y-97177800D01*
X194189600Y-94507800D02*
X176279600Y-94507800D01*
X196859600Y-84347800D02*
X176279600Y-84347800D01*
X218525800Y-59747900D02*
X197945800Y-59747900D01*
X215855800Y-69907900D02*
X197945800Y-69907900D01*
X218525800Y-71177900D02*
X218525800Y-72577900D01*
X218525800Y-72577900D02*
X217125800Y-72577900D01*
X218525800Y-69907900D02*
X215855800Y-69907900D01*
X215855800Y-69907900D02*
X215855800Y-72577900D01*
X215855800Y-72577900D02*
X197945800Y-72577900D01*
X197945800Y-72577900D02*
X197945800Y-57077900D01*
X197945800Y-57077900D02*
X218525800Y-57077900D01*
X218525800Y-57077900D02*
X218525800Y-69907900D01*
D10*
X94564438Y-84803719D02*
X94659676Y-84756100D01*
X94754914Y-84660861D01*
X94897771Y-84518004D01*
X94993009Y-84470385D01*
X95088247Y-84470385D01*
X95040628Y-84708480D02*
X95135866Y-84660861D01*
X95231104Y-84565623D01*
X95278723Y-84375147D01*
X95278723Y-84041814D01*
X95231104Y-83851338D01*
X95135866Y-83756100D01*
X95040628Y-83708480D01*
X94850152Y-83708480D01*
X94754914Y-83756100D01*
X94659676Y-83851338D01*
X94612057Y-84041814D01*
X94612057Y-84375147D01*
X94659676Y-84565623D01*
X94754914Y-84660861D01*
X94850152Y-84708480D01*
X95040628Y-84708480D01*
X94278723Y-83708480D02*
X93612057Y-83708480D01*
X94040628Y-84708480D01*
X94564438Y-79431619D02*
X94659676Y-79384000D01*
X94754914Y-79288761D01*
X94897771Y-79145904D01*
X94993009Y-79098285D01*
X95088247Y-79098285D01*
X95040628Y-79336380D02*
X95135866Y-79288761D01*
X95231104Y-79193523D01*
X95278723Y-79003047D01*
X95278723Y-78669714D01*
X95231104Y-78479238D01*
X95135866Y-78384000D01*
X95040628Y-78336380D01*
X94850152Y-78336380D01*
X94754914Y-78384000D01*
X94659676Y-78479238D01*
X94612057Y-78669714D01*
X94612057Y-79003047D01*
X94659676Y-79193523D01*
X94754914Y-79288761D01*
X94850152Y-79336380D01*
X95040628Y-79336380D01*
X93754914Y-78336380D02*
X93945390Y-78336380D01*
X94040628Y-78384000D01*
X94088247Y-78431619D01*
X94183485Y-78574476D01*
X94231104Y-78764952D01*
X94231104Y-79145904D01*
X94183485Y-79241142D01*
X94135866Y-79288761D01*
X94040628Y-79336380D01*
X93850152Y-79336380D01*
X93754914Y-79288761D01*
X93707295Y-79241142D01*
X93659676Y-79145904D01*
X93659676Y-78907809D01*
X93707295Y-78812571D01*
X93754914Y-78764952D01*
X93850152Y-78717333D01*
X94040628Y-78717333D01*
X94135866Y-78764952D01*
X94183485Y-78812571D01*
X94231104Y-78907809D01*
X128114633Y-94823780D02*
X128114633Y-95538066D01*
X128162252Y-95680923D01*
X128257490Y-95776161D01*
X128400347Y-95823780D01*
X128495585Y-95823780D01*
X127590823Y-95823780D02*
X127400347Y-95823780D01*
X127305109Y-95776161D01*
X127257490Y-95728542D01*
X127162252Y-95585685D01*
X127114633Y-95395209D01*
X127114633Y-95014257D01*
X127162252Y-94919019D01*
X127209871Y-94871400D01*
X127305109Y-94823780D01*
X127495585Y-94823780D01*
X127590823Y-94871400D01*
X127638442Y-94919019D01*
X127686061Y-95014257D01*
X127686061Y-95252352D01*
X127638442Y-95347590D01*
X127590823Y-95395209D01*
X127495585Y-95442828D01*
X127305109Y-95442828D01*
X127209871Y-95395209D01*
X127162252Y-95347590D01*
X127114633Y-95252352D01*
X127568015Y-85895704D02*
X126568015Y-85895704D01*
X126568015Y-86133800D01*
X126615635Y-86276657D01*
X126710873Y-86371895D01*
X126806111Y-86419514D01*
X126996587Y-86467133D01*
X127139444Y-86467133D01*
X127329920Y-86419514D01*
X127425158Y-86371895D01*
X127520396Y-86276657D01*
X127568015Y-86133800D01*
X127568015Y-85895704D01*
X126568015Y-86800466D02*
X126568015Y-87467133D01*
X127568015Y-87038561D01*
X124817380Y-89741895D02*
X123817380Y-89741895D01*
X124817380Y-90313323D02*
X124245952Y-89884752D01*
X123817380Y-90313323D02*
X124388809Y-89741895D01*
X116582515Y-85959204D02*
X115582515Y-85959204D01*
X115582515Y-86197300D01*
X115630135Y-86340157D01*
X115725373Y-86435395D01*
X115820611Y-86483014D01*
X116011087Y-86530633D01*
X116153944Y-86530633D01*
X116344420Y-86483014D01*
X116439658Y-86435395D01*
X116534896Y-86340157D01*
X116582515Y-86197300D01*
X116582515Y-85959204D01*
X115582515Y-87387776D02*
X115582515Y-87197300D01*
X115630135Y-87102061D01*
X115677754Y-87054442D01*
X115820611Y-86959204D01*
X116011087Y-86911585D01*
X116392039Y-86911585D01*
X116487277Y-86959204D01*
X116534896Y-87006823D01*
X116582515Y-87102061D01*
X116582515Y-87292538D01*
X116534896Y-87387776D01*
X116487277Y-87435395D01*
X116392039Y-87483014D01*
X116153944Y-87483014D01*
X116058706Y-87435395D01*
X116011087Y-87387776D01*
X115963468Y-87292538D01*
X115963468Y-87102061D01*
X116011087Y-87006823D01*
X116058706Y-86959204D01*
X116153944Y-86911585D01*
X113831880Y-89805395D02*
X112831880Y-89805395D01*
X113831880Y-90376823D02*
X113260452Y-89948252D01*
X112831880Y-90376823D02*
X113403309Y-89805395D01*
X105622415Y-85921104D02*
X104622415Y-85921104D01*
X104622415Y-86159200D01*
X104670035Y-86302057D01*
X104765273Y-86397295D01*
X104860511Y-86444914D01*
X105050987Y-86492533D01*
X105193844Y-86492533D01*
X105384320Y-86444914D01*
X105479558Y-86397295D01*
X105574796Y-86302057D01*
X105622415Y-86159200D01*
X105622415Y-85921104D01*
X104622415Y-87397295D02*
X104622415Y-86921104D01*
X105098606Y-86873485D01*
X105050987Y-86921104D01*
X105003368Y-87016342D01*
X105003368Y-87254438D01*
X105050987Y-87349676D01*
X105098606Y-87397295D01*
X105193844Y-87444914D01*
X105431939Y-87444914D01*
X105527177Y-87397295D01*
X105574796Y-87349676D01*
X105622415Y-87254438D01*
X105622415Y-87016342D01*
X105574796Y-86921104D01*
X105527177Y-86873485D01*
X102871780Y-89767295D02*
X101871780Y-89767295D01*
X102871780Y-90338723D02*
X102300352Y-89910152D01*
X101871780Y-90338723D02*
X102443209Y-89767295D01*
X105025515Y-76993004D02*
X104025515Y-76993004D01*
X104025515Y-77231100D01*
X104073135Y-77373957D01*
X104168373Y-77469195D01*
X104263611Y-77516814D01*
X104454087Y-77564433D01*
X104596944Y-77564433D01*
X104787420Y-77516814D01*
X104882658Y-77469195D01*
X104977896Y-77373957D01*
X105025515Y-77231100D01*
X105025515Y-76993004D01*
X104358849Y-78421576D02*
X105025515Y-78421576D01*
X103977896Y-78183480D02*
X104692182Y-77945385D01*
X104692182Y-78564433D01*
X102274880Y-80839195D02*
X101274880Y-80839195D01*
X102274880Y-81410623D02*
X101703452Y-80982052D01*
X101274880Y-81410623D02*
X101846309Y-80839195D01*
X125411680Y-84735304D02*
X126221204Y-84735304D01*
X126316442Y-84782923D01*
X126364061Y-84830542D01*
X126411680Y-84925780D01*
X126411680Y-85116257D01*
X126364061Y-85211495D01*
X126316442Y-85259114D01*
X126221204Y-85306733D01*
X125411680Y-85306733D01*
X126411680Y-86306733D02*
X126411680Y-85735304D01*
X126411680Y-86021019D02*
X125411680Y-86021019D01*
X125554538Y-85925780D01*
X125649776Y-85830542D01*
X125697395Y-85735304D01*
X125411680Y-87211495D02*
X125411680Y-86735304D01*
X125887871Y-86687685D01*
X125840252Y-86735304D01*
X125792633Y-86830542D01*
X125792633Y-87068638D01*
X125840252Y-87163876D01*
X125887871Y-87211495D01*
X125983109Y-87259114D01*
X126221204Y-87259114D01*
X126316442Y-87211495D01*
X126364061Y-87163876D01*
X126411680Y-87068638D01*
X126411680Y-86830542D01*
X126364061Y-86735304D01*
X126316442Y-86687685D01*
X114349980Y-84798804D02*
X115159504Y-84798804D01*
X115254742Y-84846423D01*
X115302361Y-84894042D01*
X115349980Y-84989280D01*
X115349980Y-85179757D01*
X115302361Y-85274995D01*
X115254742Y-85322614D01*
X115159504Y-85370233D01*
X114349980Y-85370233D01*
X115349980Y-86370233D02*
X115349980Y-85798804D01*
X115349980Y-86084519D02*
X114349980Y-86084519D01*
X114492838Y-85989280D01*
X114588076Y-85894042D01*
X114635695Y-85798804D01*
X114683314Y-87227376D02*
X115349980Y-87227376D01*
X114302361Y-86989280D02*
X115016647Y-86751185D01*
X115016647Y-87370233D01*
X103288280Y-84798804D02*
X104097804Y-84798804D01*
X104193042Y-84846423D01*
X104240661Y-84894042D01*
X104288280Y-84989280D01*
X104288280Y-85179757D01*
X104240661Y-85274995D01*
X104193042Y-85322614D01*
X104097804Y-85370233D01*
X103288280Y-85370233D01*
X104288280Y-86370233D02*
X104288280Y-85798804D01*
X104288280Y-86084519D02*
X103288280Y-86084519D01*
X103431138Y-85989280D01*
X103526376Y-85894042D01*
X103573995Y-85798804D01*
X103288280Y-86703566D02*
X103288280Y-87322614D01*
X103669233Y-86989280D01*
X103669233Y-87132138D01*
X103716852Y-87227376D01*
X103764471Y-87274995D01*
X103859709Y-87322614D01*
X104097804Y-87322614D01*
X104193042Y-87274995D01*
X104240661Y-87227376D01*
X104288280Y-87132138D01*
X104288280Y-86846423D01*
X104240661Y-86751185D01*
X104193042Y-86703566D01*
X110109095Y-73481880D02*
X110109095Y-74291404D01*
X110061476Y-74386642D01*
X110013857Y-74434261D01*
X109918619Y-74481880D01*
X109728142Y-74481880D01*
X109632904Y-74434261D01*
X109585285Y-74386642D01*
X109537666Y-74291404D01*
X109537666Y-73481880D01*
X108537666Y-74481880D02*
X109109095Y-74481880D01*
X108823380Y-74481880D02*
X108823380Y-73481880D01*
X108918619Y-73624738D01*
X109013857Y-73719976D01*
X109109095Y-73767595D01*
X108156714Y-73577119D02*
X108109095Y-73529500D01*
X108013857Y-73481880D01*
X107775761Y-73481880D01*
X107680523Y-73529500D01*
X107632904Y-73577119D01*
X107585285Y-73672357D01*
X107585285Y-73767595D01*
X107632904Y-73910452D01*
X108204333Y-74481880D01*
X107585285Y-74481880D01*
X116814838Y-90696519D02*
X116910076Y-90648900D01*
X117005314Y-90553661D01*
X117148171Y-90410804D01*
X117243409Y-90363185D01*
X117338647Y-90363185D01*
X117291028Y-90601280D02*
X117386266Y-90553661D01*
X117481504Y-90458423D01*
X117529123Y-90267947D01*
X117529123Y-89934614D01*
X117481504Y-89744138D01*
X117386266Y-89648900D01*
X117291028Y-89601280D01*
X117100552Y-89601280D01*
X117005314Y-89648900D01*
X116910076Y-89744138D01*
X116862457Y-89934614D01*
X116862457Y-90267947D01*
X116910076Y-90458423D01*
X117005314Y-90553661D01*
X117100552Y-90601280D01*
X117291028Y-90601280D01*
X115957695Y-89601280D02*
X116433885Y-89601280D01*
X116481504Y-90077471D01*
X116433885Y-90029852D01*
X116338647Y-89982233D01*
X116100552Y-89982233D01*
X116005314Y-90029852D01*
X115957695Y-90077471D01*
X115910076Y-90172709D01*
X115910076Y-90410804D01*
X115957695Y-90506042D01*
X116005314Y-90553661D01*
X116100552Y-90601280D01*
X116338647Y-90601280D01*
X116433885Y-90553661D01*
X116481504Y-90506042D01*
X112461266Y-65508342D02*
X112508885Y-65555961D01*
X112651742Y-65603580D01*
X112746980Y-65603580D01*
X112889838Y-65555961D01*
X112985076Y-65460723D01*
X113032695Y-65365485D01*
X113080314Y-65175009D01*
X113080314Y-65032152D01*
X113032695Y-64841676D01*
X112985076Y-64746438D01*
X112889838Y-64651200D01*
X112746980Y-64603580D01*
X112651742Y-64603580D01*
X112508885Y-64651200D01*
X112461266Y-64698819D01*
X112080314Y-64698819D02*
X112032695Y-64651200D01*
X111937457Y-64603580D01*
X111699361Y-64603580D01*
X111604123Y-64651200D01*
X111556504Y-64698819D01*
X111508885Y-64794057D01*
X111508885Y-64889295D01*
X111556504Y-65032152D01*
X112127933Y-65603580D01*
X111508885Y-65603580D01*
X120517457Y-65508342D02*
X120565076Y-65555961D01*
X120707933Y-65603580D01*
X120803171Y-65603580D01*
X120946028Y-65555961D01*
X121041266Y-65460723D01*
X121088885Y-65365485D01*
X121136504Y-65175009D01*
X121136504Y-65032152D01*
X121088885Y-64841676D01*
X121041266Y-64746438D01*
X120946028Y-64651200D01*
X120803171Y-64603580D01*
X120707933Y-64603580D01*
X120565076Y-64651200D01*
X120517457Y-64698819D01*
X119565076Y-65603580D02*
X120136504Y-65603580D01*
X119850790Y-65603580D02*
X119850790Y-64603580D01*
X119946028Y-64746438D01*
X120041266Y-64841676D01*
X120136504Y-64889295D01*
X118946028Y-64603580D02*
X118850790Y-64603580D01*
X118755552Y-64651200D01*
X118707933Y-64698819D01*
X118660314Y-64794057D01*
X118612695Y-64984533D01*
X118612695Y-65222628D01*
X118660314Y-65413104D01*
X118707933Y-65508342D01*
X118755552Y-65555961D01*
X118850790Y-65603580D01*
X118946028Y-65603580D01*
X119041266Y-65555961D01*
X119088885Y-65508342D01*
X119136504Y-65413104D01*
X119184123Y-65222628D01*
X119184123Y-64984533D01*
X119136504Y-64794057D01*
X119088885Y-64698819D01*
X119041266Y-64651200D01*
X118946028Y-64603580D01*
X138083457Y-106249942D02*
X138131076Y-106297561D01*
X138273933Y-106345180D01*
X138369171Y-106345180D01*
X138512028Y-106297561D01*
X138607266Y-106202323D01*
X138654885Y-106107085D01*
X138702504Y-105916609D01*
X138702504Y-105773752D01*
X138654885Y-105583276D01*
X138607266Y-105488038D01*
X138512028Y-105392800D01*
X138369171Y-105345180D01*
X138273933Y-105345180D01*
X138131076Y-105392800D01*
X138083457Y-105440419D01*
X137131076Y-106345180D02*
X137702504Y-106345180D01*
X137416790Y-106345180D02*
X137416790Y-105345180D01*
X137512028Y-105488038D01*
X137607266Y-105583276D01*
X137702504Y-105630895D01*
X136273933Y-105345180D02*
X136464409Y-105345180D01*
X136559647Y-105392800D01*
X136607266Y-105440419D01*
X136702504Y-105583276D01*
X136750123Y-105773752D01*
X136750123Y-106154704D01*
X136702504Y-106249942D01*
X136654885Y-106297561D01*
X136559647Y-106345180D01*
X136369171Y-106345180D01*
X136273933Y-106297561D01*
X136226314Y-106249942D01*
X136178695Y-106154704D01*
X136178695Y-105916609D01*
X136226314Y-105821371D01*
X136273933Y-105773752D01*
X136369171Y-105726133D01*
X136559647Y-105726133D01*
X136654885Y-105773752D01*
X136702504Y-105821371D01*
X136750123Y-105916609D01*
X159482957Y-106376942D02*
X159530576Y-106424561D01*
X159673433Y-106472180D01*
X159768671Y-106472180D01*
X159911528Y-106424561D01*
X160006766Y-106329323D01*
X160054385Y-106234085D01*
X160102004Y-106043609D01*
X160102004Y-105900752D01*
X160054385Y-105710276D01*
X160006766Y-105615038D01*
X159911528Y-105519800D01*
X159768671Y-105472180D01*
X159673433Y-105472180D01*
X159530576Y-105519800D01*
X159482957Y-105567419D01*
X158530576Y-106472180D02*
X159102004Y-106472180D01*
X158816290Y-106472180D02*
X158816290Y-105472180D01*
X158911528Y-105615038D01*
X159006766Y-105710276D01*
X159102004Y-105757895D01*
X158197242Y-105472180D02*
X157530576Y-105472180D01*
X157959147Y-106472180D01*
X202370857Y-106402342D02*
X202418476Y-106449961D01*
X202561333Y-106497580D01*
X202656571Y-106497580D01*
X202799428Y-106449961D01*
X202894666Y-106354723D01*
X202942285Y-106259485D01*
X202989904Y-106069009D01*
X202989904Y-105926152D01*
X202942285Y-105735676D01*
X202894666Y-105640438D01*
X202799428Y-105545200D01*
X202656571Y-105497580D01*
X202561333Y-105497580D01*
X202418476Y-105545200D01*
X202370857Y-105592819D01*
X201418476Y-106497580D02*
X201989904Y-106497580D01*
X201704190Y-106497580D02*
X201704190Y-105497580D01*
X201799428Y-105640438D01*
X201894666Y-105735676D01*
X201989904Y-105783295D01*
X200847047Y-105926152D02*
X200942285Y-105878533D01*
X200989904Y-105830914D01*
X201037523Y-105735676D01*
X201037523Y-105688057D01*
X200989904Y-105592819D01*
X200942285Y-105545200D01*
X200847047Y-105497580D01*
X200656571Y-105497580D01*
X200561333Y-105545200D01*
X200513714Y-105592819D01*
X200466095Y-105688057D01*
X200466095Y-105735676D01*
X200513714Y-105830914D01*
X200561333Y-105878533D01*
X200656571Y-105926152D01*
X200847047Y-105926152D01*
X200942285Y-105973771D01*
X200989904Y-106021390D01*
X201037523Y-106116628D01*
X201037523Y-106307104D01*
X200989904Y-106402342D01*
X200942285Y-106449961D01*
X200847047Y-106497580D01*
X200656571Y-106497580D01*
X200561333Y-106449961D01*
X200513714Y-106402342D01*
X200466095Y-106307104D01*
X200466095Y-106116628D01*
X200513714Y-106021390D01*
X200561333Y-105973771D01*
X200656571Y-105926152D01*
X180882457Y-106376942D02*
X180930076Y-106424561D01*
X181072933Y-106472180D01*
X181168171Y-106472180D01*
X181311028Y-106424561D01*
X181406266Y-106329323D01*
X181453885Y-106234085D01*
X181501504Y-106043609D01*
X181501504Y-105900752D01*
X181453885Y-105710276D01*
X181406266Y-105615038D01*
X181311028Y-105519800D01*
X181168171Y-105472180D01*
X181072933Y-105472180D01*
X180930076Y-105519800D01*
X180882457Y-105567419D01*
X179930076Y-106472180D02*
X180501504Y-106472180D01*
X180215790Y-106472180D02*
X180215790Y-105472180D01*
X180311028Y-105615038D01*
X180406266Y-105710276D01*
X180501504Y-105757895D01*
X179453885Y-106472180D02*
X179263409Y-106472180D01*
X179168171Y-106424561D01*
X179120552Y-106376942D01*
X179025314Y-106234085D01*
X178977695Y-106043609D01*
X178977695Y-105662657D01*
X179025314Y-105567419D01*
X179072933Y-105519800D01*
X179168171Y-105472180D01*
X179358647Y-105472180D01*
X179453885Y-105519800D01*
X179501504Y-105567419D01*
X179549123Y-105662657D01*
X179549123Y-105900752D01*
X179501504Y-105995990D01*
X179453885Y-106043609D01*
X179358647Y-106091228D01*
X179168171Y-106091228D01*
X179072933Y-106043609D01*
X179025314Y-105995990D01*
X178977695Y-105900752D01*
X202548657Y-81777042D02*
X202596276Y-81824661D01*
X202739133Y-81872280D01*
X202834371Y-81872280D01*
X202977228Y-81824661D01*
X203072466Y-81729423D01*
X203120085Y-81634185D01*
X203167704Y-81443709D01*
X203167704Y-81300852D01*
X203120085Y-81110376D01*
X203072466Y-81015138D01*
X202977228Y-80919900D01*
X202834371Y-80872280D01*
X202739133Y-80872280D01*
X202596276Y-80919900D01*
X202548657Y-80967519D01*
X202167704Y-80967519D02*
X202120085Y-80919900D01*
X202024847Y-80872280D01*
X201786752Y-80872280D01*
X201691514Y-80919900D01*
X201643895Y-80967519D01*
X201596276Y-81062757D01*
X201596276Y-81157995D01*
X201643895Y-81300852D01*
X202215323Y-81872280D01*
X201596276Y-81872280D01*
X200977228Y-80872280D02*
X200881990Y-80872280D01*
X200786752Y-80919900D01*
X200739133Y-80967519D01*
X200691514Y-81062757D01*
X200643895Y-81253233D01*
X200643895Y-81491328D01*
X200691514Y-81681804D01*
X200739133Y-81777042D01*
X200786752Y-81824661D01*
X200881990Y-81872280D01*
X200977228Y-81872280D01*
X201072466Y-81824661D01*
X201120085Y-81777042D01*
X201167704Y-81681804D01*
X201215323Y-81491328D01*
X201215323Y-81253233D01*
X201167704Y-81062757D01*
X201120085Y-80967519D01*
X201072466Y-80919900D01*
X200977228Y-80872280D01*
X104782033Y-62071771D02*
X105115366Y-62071771D01*
X105115366Y-62595580D02*
X105115366Y-61595580D01*
X104639176Y-61595580D01*
X103734414Y-62595580D02*
X104305842Y-62595580D01*
X104020128Y-62595580D02*
X104020128Y-61595580D01*
X104115366Y-61738438D01*
X104210604Y-61833676D01*
X104305842Y-61881295D01*
X105619571Y-67103306D02*
X105619571Y-66769973D01*
X106143380Y-66769973D02*
X105143380Y-66769973D01*
X105143380Y-67246163D01*
X105238619Y-67579497D02*
X105191000Y-67627116D01*
X105143380Y-67722354D01*
X105143380Y-67960449D01*
X105191000Y-68055687D01*
X105238619Y-68103306D01*
X105333857Y-68150925D01*
X105429095Y-68150925D01*
X105571952Y-68103306D01*
X106143380Y-67531878D01*
X106143380Y-68150925D01*
X94853333Y-63797680D02*
X94853333Y-64511966D01*
X94900952Y-64654823D01*
X94996190Y-64750061D01*
X95139047Y-64797680D01*
X95234285Y-64797680D01*
X94424761Y-63892919D02*
X94377142Y-63845300D01*
X94281904Y-63797680D01*
X94043809Y-63797680D01*
X93948571Y-63845300D01*
X93900952Y-63892919D01*
X93853333Y-63988157D01*
X93853333Y-64083395D01*
X93900952Y-64226252D01*
X94472380Y-64797680D01*
X93853333Y-64797680D01*
X181721333Y-55066880D02*
X181721333Y-55781166D01*
X181768952Y-55924023D01*
X181864190Y-56019261D01*
X182007047Y-56066880D01*
X182102285Y-56066880D01*
X181340380Y-55066880D02*
X180721333Y-55066880D01*
X181054666Y-55447833D01*
X180911809Y-55447833D01*
X180816571Y-55495452D01*
X180768952Y-55543071D01*
X180721333Y-55638309D01*
X180721333Y-55876404D01*
X180768952Y-55971642D01*
X180816571Y-56019261D01*
X180911809Y-56066880D01*
X181197523Y-56066880D01*
X181292761Y-56019261D01*
X181340380Y-55971642D01*
X146433333Y-57852380D02*
X146433333Y-58566666D01*
X146480952Y-58709523D01*
X146576190Y-58804761D01*
X146719047Y-58852380D01*
X146814285Y-58852380D01*
X145528571Y-58185714D02*
X145528571Y-58852380D01*
X145766666Y-57804761D02*
X146004761Y-58519047D01*
X145385714Y-58519047D01*
X152206533Y-55092280D02*
X152206533Y-55806566D01*
X152254152Y-55949423D01*
X152349390Y-56044661D01*
X152492247Y-56092280D01*
X152587485Y-56092280D01*
X151254152Y-55092280D02*
X151730342Y-55092280D01*
X151777961Y-55568471D01*
X151730342Y-55520852D01*
X151635104Y-55473233D01*
X151397009Y-55473233D01*
X151301771Y-55520852D01*
X151254152Y-55568471D01*
X151206533Y-55663709D01*
X151206533Y-55901804D01*
X151254152Y-55997042D01*
X151301771Y-56044661D01*
X151397009Y-56092280D01*
X151635104Y-56092280D01*
X151730342Y-56044661D01*
X151777961Y-55997042D01*
X94840633Y-94887280D02*
X94840633Y-95601566D01*
X94888252Y-95744423D01*
X94983490Y-95839661D01*
X95126347Y-95887280D01*
X95221585Y-95887280D01*
X93935871Y-94887280D02*
X94126347Y-94887280D01*
X94221585Y-94934900D01*
X94269204Y-94982519D01*
X94364442Y-95125376D01*
X94412061Y-95315852D01*
X94412061Y-95696804D01*
X94364442Y-95792042D01*
X94316823Y-95839661D01*
X94221585Y-95887280D01*
X94031109Y-95887280D01*
X93935871Y-95839661D01*
X93888252Y-95792042D01*
X93840633Y-95696804D01*
X93840633Y-95458709D01*
X93888252Y-95363471D01*
X93935871Y-95315852D01*
X94031109Y-95268233D01*
X94221585Y-95268233D01*
X94316823Y-95315852D01*
X94364442Y-95363471D01*
X94412061Y-95458709D01*
X196897480Y-65947166D02*
X197611766Y-65947166D01*
X197754623Y-65899547D01*
X197849861Y-65804309D01*
X197897480Y-65661452D01*
X197897480Y-65566214D01*
X196897480Y-66328119D02*
X196897480Y-66994785D01*
X197897480Y-66566214D01*
X94573933Y-57282580D02*
X94573933Y-57996866D01*
X94621552Y-58139723D01*
X94716790Y-58234961D01*
X94859647Y-58282580D01*
X94954885Y-58282580D01*
X93954885Y-57711152D02*
X94050123Y-57663533D01*
X94097742Y-57615914D01*
X94145361Y-57520676D01*
X94145361Y-57473057D01*
X94097742Y-57377819D01*
X94050123Y-57330200D01*
X93954885Y-57282580D01*
X93764409Y-57282580D01*
X93669171Y-57330200D01*
X93621552Y-57377819D01*
X93573933Y-57473057D01*
X93573933Y-57520676D01*
X93621552Y-57615914D01*
X93669171Y-57663533D01*
X93764409Y-57711152D01*
X93954885Y-57711152D01*
X94050123Y-57758771D01*
X94097742Y-57806390D01*
X94145361Y-57901628D01*
X94145361Y-58092104D01*
X94097742Y-58187342D01*
X94050123Y-58234961D01*
X93954885Y-58282580D01*
X93764409Y-58282580D01*
X93669171Y-58234961D01*
X93621552Y-58187342D01*
X93573933Y-58092104D01*
X93573933Y-57901628D01*
X93621552Y-57806390D01*
X93669171Y-57758771D01*
X93764409Y-57711152D01*
X153680980Y-100683276D02*
X154395266Y-100683276D01*
X154538123Y-100635657D01*
X154633361Y-100540419D01*
X154680980Y-100397561D01*
X154680980Y-100302323D01*
X154680980Y-101683276D02*
X154680980Y-101111847D01*
X154680980Y-101397561D02*
X153680980Y-101397561D01*
X153823838Y-101302323D01*
X153919076Y-101207085D01*
X153966695Y-101111847D01*
X153680980Y-102302323D02*
X153680980Y-102397561D01*
X153728600Y-102492800D01*
X153776219Y-102540419D01*
X153871457Y-102588038D01*
X154061933Y-102635657D01*
X154300028Y-102635657D01*
X154490504Y-102588038D01*
X154585742Y-102540419D01*
X154633361Y-102492800D01*
X154680980Y-102397561D01*
X154680980Y-102302323D01*
X154633361Y-102207085D01*
X154585742Y-102159466D01*
X154490504Y-102111847D01*
X154300028Y-102064228D01*
X154061933Y-102064228D01*
X153871457Y-102111847D01*
X153776219Y-102159466D01*
X153728600Y-102207085D01*
X153680980Y-102302323D01*
X196910180Y-57889076D02*
X197624466Y-57889076D01*
X197767323Y-57841457D01*
X197862561Y-57746219D01*
X197910180Y-57603361D01*
X197910180Y-57508123D01*
X197910180Y-58889076D02*
X197910180Y-58317647D01*
X197910180Y-58603361D02*
X196910180Y-58603361D01*
X197053038Y-58508123D01*
X197148276Y-58412885D01*
X197195895Y-58317647D01*
X197910180Y-59841457D02*
X197910180Y-59270028D01*
X197910180Y-59555742D02*
X196910180Y-59555742D01*
X197053038Y-59460504D01*
X197148276Y-59365266D01*
X197195895Y-59270028D01*
X196910180Y-61686376D02*
X197624466Y-61686376D01*
X197767323Y-61638757D01*
X197862561Y-61543519D01*
X197910180Y-61400661D01*
X197910180Y-61305423D01*
X197910180Y-62686376D02*
X197910180Y-62114947D01*
X197910180Y-62400661D02*
X196910180Y-62400661D01*
X197053038Y-62305423D01*
X197148276Y-62210185D01*
X197195895Y-62114947D01*
X197005419Y-63067328D02*
X196957800Y-63114947D01*
X196910180Y-63210185D01*
X196910180Y-63448280D01*
X196957800Y-63543519D01*
X197005419Y-63591138D01*
X197100657Y-63638757D01*
X197195895Y-63638757D01*
X197338752Y-63591138D01*
X197910180Y-63019709D01*
X197910180Y-63638757D01*
X144503923Y-55066880D02*
X144503923Y-55781166D01*
X144551542Y-55924023D01*
X144646780Y-56019261D01*
X144789638Y-56066880D01*
X144884876Y-56066880D01*
X143503923Y-56066880D02*
X144075352Y-56066880D01*
X143789638Y-56066880D02*
X143789638Y-55066880D01*
X143884876Y-55209738D01*
X143980114Y-55304976D01*
X144075352Y-55352595D01*
X143170590Y-55066880D02*
X142551542Y-55066880D01*
X142884876Y-55447833D01*
X142742019Y-55447833D01*
X142646780Y-55495452D01*
X142599161Y-55543071D01*
X142551542Y-55638309D01*
X142551542Y-55876404D01*
X142599161Y-55971642D01*
X142646780Y-56019261D01*
X142742019Y-56066880D01*
X143027733Y-56066880D01*
X143122971Y-56019261D01*
X143170590Y-55971642D01*
X165852380Y-78190476D02*
X166566666Y-78190476D01*
X166709523Y-78142857D01*
X166804761Y-78047619D01*
X166852380Y-77904761D01*
X166852380Y-77809523D01*
X166852380Y-79190476D02*
X166852380Y-78619047D01*
X166852380Y-78904761D02*
X165852380Y-78904761D01*
X165995238Y-78809523D01*
X166090476Y-78714285D01*
X166138095Y-78619047D01*
X166185714Y-80047619D02*
X166852380Y-80047619D01*
X165804761Y-79809523D02*
X166519047Y-79571428D01*
X166519047Y-80190476D01*
X106467423Y-94887280D02*
X106467423Y-95601566D01*
X106515042Y-95744423D01*
X106610280Y-95839661D01*
X106753138Y-95887280D01*
X106848376Y-95887280D01*
X105467423Y-95887280D02*
X106038852Y-95887280D01*
X105753138Y-95887280D02*
X105753138Y-94887280D01*
X105848376Y-95030138D01*
X105943614Y-95125376D01*
X106038852Y-95172995D01*
X104562661Y-94887280D02*
X105038852Y-94887280D01*
X105086471Y-95363471D01*
X105038852Y-95315852D01*
X104943614Y-95268233D01*
X104705519Y-95268233D01*
X104610280Y-95315852D01*
X104562661Y-95363471D01*
X104515042Y-95458709D01*
X104515042Y-95696804D01*
X104562661Y-95792042D01*
X104610280Y-95839661D01*
X104705519Y-95887280D01*
X104943614Y-95887280D01*
X105038852Y-95839661D01*
X105086471Y-95792042D01*
X149767740Y-64990476D02*
X150482026Y-64990476D01*
X150624883Y-64942857D01*
X150720121Y-64847619D01*
X150767740Y-64704761D01*
X150767740Y-64609523D01*
X150767740Y-65990476D02*
X150767740Y-65419047D01*
X150767740Y-65704761D02*
X149767740Y-65704761D01*
X149910598Y-65609523D01*
X150005836Y-65514285D01*
X150053455Y-65419047D01*
X149767740Y-66847619D02*
X149767740Y-66657142D01*
X149815360Y-66561904D01*
X149862979Y-66514285D01*
X150005836Y-66419047D01*
X150196312Y-66371428D01*
X150577264Y-66371428D01*
X150672502Y-66419047D01*
X150720121Y-66466666D01*
X150767740Y-66561904D01*
X150767740Y-66752380D01*
X150720121Y-66847619D01*
X150672502Y-66895238D01*
X150577264Y-66942857D01*
X150339169Y-66942857D01*
X150243931Y-66895238D01*
X150196312Y-66847619D01*
X150148693Y-66752380D01*
X150148693Y-66561904D01*
X150196312Y-66466666D01*
X150243931Y-66419047D01*
X150339169Y-66371428D01*
X117529123Y-94887280D02*
X117529123Y-95601566D01*
X117576742Y-95744423D01*
X117671980Y-95839661D01*
X117814838Y-95887280D01*
X117910076Y-95887280D01*
X116529123Y-95887280D02*
X117100552Y-95887280D01*
X116814838Y-95887280D02*
X116814838Y-94887280D01*
X116910076Y-95030138D01*
X117005314Y-95125376D01*
X117100552Y-95172995D01*
X116195790Y-94887280D02*
X115529123Y-94887280D01*
X115957695Y-95887280D01*
X175080480Y-100810276D02*
X175794766Y-100810276D01*
X175937623Y-100762657D01*
X176032861Y-100667419D01*
X176080480Y-100524561D01*
X176080480Y-100429323D01*
X176080480Y-101810276D02*
X176080480Y-101238847D01*
X176080480Y-101524561D02*
X175080480Y-101524561D01*
X175223338Y-101429323D01*
X175318576Y-101334085D01*
X175366195Y-101238847D01*
X175509052Y-102381704D02*
X175461433Y-102286466D01*
X175413814Y-102238847D01*
X175318576Y-102191228D01*
X175270957Y-102191228D01*
X175175719Y-102238847D01*
X175128100Y-102286466D01*
X175080480Y-102381704D01*
X175080480Y-102572180D01*
X175128100Y-102667419D01*
X175175719Y-102715038D01*
X175270957Y-102762657D01*
X175318576Y-102762657D01*
X175413814Y-102715038D01*
X175461433Y-102667419D01*
X175509052Y-102572180D01*
X175509052Y-102381704D01*
X175556671Y-102286466D01*
X175604290Y-102238847D01*
X175699528Y-102191228D01*
X175890004Y-102191228D01*
X175985242Y-102238847D01*
X176032861Y-102286466D01*
X176080480Y-102381704D01*
X176080480Y-102572180D01*
X176032861Y-102667419D01*
X175985242Y-102715038D01*
X175890004Y-102762657D01*
X175699528Y-102762657D01*
X175604290Y-102715038D01*
X175556671Y-102667419D01*
X175509052Y-102572180D01*
X217968380Y-100835676D02*
X218682666Y-100835676D01*
X218825523Y-100788057D01*
X218920761Y-100692819D01*
X218968380Y-100549961D01*
X218968380Y-100454723D01*
X218968380Y-101835676D02*
X218968380Y-101264247D01*
X218968380Y-101549961D02*
X217968380Y-101549961D01*
X218111238Y-101454723D01*
X218206476Y-101359485D01*
X218254095Y-101264247D01*
X218968380Y-102311866D02*
X218968380Y-102502342D01*
X218920761Y-102597580D01*
X218873142Y-102645200D01*
X218730285Y-102740438D01*
X218539809Y-102788057D01*
X218158857Y-102788057D01*
X218063619Y-102740438D01*
X218016000Y-102692819D01*
X217968380Y-102597580D01*
X217968380Y-102407104D01*
X218016000Y-102311866D01*
X218063619Y-102264247D01*
X218158857Y-102216628D01*
X218396952Y-102216628D01*
X218492190Y-102264247D01*
X218539809Y-102311866D01*
X218587428Y-102407104D01*
X218587428Y-102597580D01*
X218539809Y-102692819D01*
X218492190Y-102740438D01*
X218396952Y-102788057D01*
X139805860Y-77264476D02*
X140520146Y-77264476D01*
X140663003Y-77216857D01*
X140758241Y-77121619D01*
X140805860Y-76978761D01*
X140805860Y-76883523D01*
X139901099Y-77693047D02*
X139853480Y-77740666D01*
X139805860Y-77835904D01*
X139805860Y-78074000D01*
X139853480Y-78169238D01*
X139901099Y-78216857D01*
X139996337Y-78264476D01*
X140091575Y-78264476D01*
X140234432Y-78216857D01*
X140805860Y-77645428D01*
X140805860Y-78264476D01*
X139805860Y-78883523D02*
X139805860Y-78978761D01*
X139853480Y-79074000D01*
X139901099Y-79121619D01*
X139996337Y-79169238D01*
X140186813Y-79216857D01*
X140424908Y-79216857D01*
X140615384Y-79169238D01*
X140710622Y-79121619D01*
X140758241Y-79074000D01*
X140805860Y-78978761D01*
X140805860Y-78883523D01*
X140758241Y-78788285D01*
X140710622Y-78740666D01*
X140615384Y-78693047D01*
X140424908Y-78645428D01*
X140186813Y-78645428D01*
X139996337Y-78693047D01*
X139901099Y-78740666D01*
X139853480Y-78788285D01*
X139805860Y-78883523D01*
X126052380Y-57390476D02*
X126766666Y-57390476D01*
X126909523Y-57342857D01*
X127004761Y-57247619D01*
X127052380Y-57104761D01*
X127052380Y-57009523D01*
X126147619Y-57819047D02*
X126100000Y-57866666D01*
X126052380Y-57961904D01*
X126052380Y-58200000D01*
X126100000Y-58295238D01*
X126147619Y-58342857D01*
X126242857Y-58390476D01*
X126338095Y-58390476D01*
X126480952Y-58342857D01*
X127052380Y-57771428D01*
X127052380Y-58390476D01*
X127052380Y-59342857D02*
X127052380Y-58771428D01*
X127052380Y-59057142D02*
X126052380Y-59057142D01*
X126195238Y-58961904D01*
X126290476Y-58866666D01*
X126338095Y-58771428D01*
X126052380Y-61390476D02*
X126766666Y-61390476D01*
X126909523Y-61342857D01*
X127004761Y-61247619D01*
X127052380Y-61104761D01*
X127052380Y-61009523D01*
X126147619Y-61819047D02*
X126100000Y-61866666D01*
X126052380Y-61961904D01*
X126052380Y-62200000D01*
X126100000Y-62295238D01*
X126147619Y-62342857D01*
X126242857Y-62390476D01*
X126338095Y-62390476D01*
X126480952Y-62342857D01*
X127052380Y-61771428D01*
X127052380Y-62390476D01*
X126147619Y-62771428D02*
X126100000Y-62819047D01*
X126052380Y-62914285D01*
X126052380Y-63152380D01*
X126100000Y-63247619D01*
X126147619Y-63295238D01*
X126242857Y-63342857D01*
X126338095Y-63342857D01*
X126480952Y-63295238D01*
X127052380Y-62723809D01*
X127052380Y-63342857D01*
X139861740Y-73429076D02*
X140576026Y-73429076D01*
X140718883Y-73381457D01*
X140814121Y-73286219D01*
X140861740Y-73143361D01*
X140861740Y-73048123D01*
X139956979Y-73857647D02*
X139909360Y-73905266D01*
X139861740Y-74000504D01*
X139861740Y-74238600D01*
X139909360Y-74333838D01*
X139956979Y-74381457D01*
X140052217Y-74429076D01*
X140147455Y-74429076D01*
X140290312Y-74381457D01*
X140861740Y-73810028D01*
X140861740Y-74429076D01*
X139861740Y-74762409D02*
X139861740Y-75381457D01*
X140242693Y-75048123D01*
X140242693Y-75190980D01*
X140290312Y-75286219D01*
X140337931Y-75333838D01*
X140433169Y-75381457D01*
X140671264Y-75381457D01*
X140766502Y-75333838D01*
X140814121Y-75286219D01*
X140861740Y-75190980D01*
X140861740Y-74905266D01*
X140814121Y-74810028D01*
X140766502Y-74762409D01*
X126152380Y-65390476D02*
X126866666Y-65390476D01*
X127009523Y-65342857D01*
X127104761Y-65247619D01*
X127152380Y-65104761D01*
X127152380Y-65009523D01*
X126247619Y-65819047D02*
X126200000Y-65866666D01*
X126152380Y-65961904D01*
X126152380Y-66200000D01*
X126200000Y-66295238D01*
X126247619Y-66342857D01*
X126342857Y-66390476D01*
X126438095Y-66390476D01*
X126580952Y-66342857D01*
X127152380Y-65771428D01*
X127152380Y-66390476D01*
X126485714Y-67247619D02*
X127152380Y-67247619D01*
X126104761Y-67009523D02*
X126819047Y-66771428D01*
X126819047Y-67390476D01*
X126352380Y-69590476D02*
X127066666Y-69590476D01*
X127209523Y-69542857D01*
X127304761Y-69447619D01*
X127352380Y-69304761D01*
X127352380Y-69209523D01*
X126447619Y-70019047D02*
X126400000Y-70066666D01*
X126352380Y-70161904D01*
X126352380Y-70400000D01*
X126400000Y-70495238D01*
X126447619Y-70542857D01*
X126542857Y-70590476D01*
X126638095Y-70590476D01*
X126780952Y-70542857D01*
X127352380Y-69971428D01*
X127352380Y-70590476D01*
X126352380Y-71495238D02*
X126352380Y-71019047D01*
X126828571Y-70971428D01*
X126780952Y-71019047D01*
X126733333Y-71114285D01*
X126733333Y-71352380D01*
X126780952Y-71447619D01*
X126828571Y-71495238D01*
X126923809Y-71542857D01*
X127161904Y-71542857D01*
X127257142Y-71495238D01*
X127304761Y-71447619D01*
X127352380Y-71352380D01*
X127352380Y-71114285D01*
X127304761Y-71019047D01*
X127257142Y-70971428D01*
X139892220Y-69603836D02*
X140606506Y-69603836D01*
X140749363Y-69556217D01*
X140844601Y-69460979D01*
X140892220Y-69318121D01*
X140892220Y-69222883D01*
X139987459Y-70032407D02*
X139939840Y-70080026D01*
X139892220Y-70175264D01*
X139892220Y-70413360D01*
X139939840Y-70508598D01*
X139987459Y-70556217D01*
X140082697Y-70603836D01*
X140177935Y-70603836D01*
X140320792Y-70556217D01*
X140892220Y-69984788D01*
X140892220Y-70603836D01*
X139892220Y-71460979D02*
X139892220Y-71270502D01*
X139939840Y-71175264D01*
X139987459Y-71127645D01*
X140130316Y-71032407D01*
X140320792Y-70984788D01*
X140701744Y-70984788D01*
X140796982Y-71032407D01*
X140844601Y-71080026D01*
X140892220Y-71175264D01*
X140892220Y-71365740D01*
X140844601Y-71460979D01*
X140796982Y-71508598D01*
X140701744Y-71556217D01*
X140463649Y-71556217D01*
X140368411Y-71508598D01*
X140320792Y-71460979D01*
X140273173Y-71365740D01*
X140273173Y-71175264D01*
X140320792Y-71080026D01*
X140368411Y-71032407D01*
X140463649Y-70984788D01*
X196479980Y-100810276D02*
X197194266Y-100810276D01*
X197337123Y-100762657D01*
X197432361Y-100667419D01*
X197479980Y-100524561D01*
X197479980Y-100429323D01*
X196575219Y-101238847D02*
X196527600Y-101286466D01*
X196479980Y-101381704D01*
X196479980Y-101619800D01*
X196527600Y-101715038D01*
X196575219Y-101762657D01*
X196670457Y-101810276D01*
X196765695Y-101810276D01*
X196908552Y-101762657D01*
X197479980Y-101191228D01*
X197479980Y-101810276D01*
X196479980Y-102143609D02*
X196479980Y-102810276D01*
X197479980Y-102381704D01*
X218146180Y-76210376D02*
X218860466Y-76210376D01*
X219003323Y-76162757D01*
X219098561Y-76067519D01*
X219146180Y-75924661D01*
X219146180Y-75829423D01*
X218241419Y-76638947D02*
X218193800Y-76686566D01*
X218146180Y-76781804D01*
X218146180Y-77019900D01*
X218193800Y-77115138D01*
X218241419Y-77162757D01*
X218336657Y-77210376D01*
X218431895Y-77210376D01*
X218574752Y-77162757D01*
X219146180Y-76591328D01*
X219146180Y-77210376D01*
X218574752Y-77781804D02*
X218527133Y-77686566D01*
X218479514Y-77638947D01*
X218384276Y-77591328D01*
X218336657Y-77591328D01*
X218241419Y-77638947D01*
X218193800Y-77686566D01*
X218146180Y-77781804D01*
X218146180Y-77972280D01*
X218193800Y-78067519D01*
X218241419Y-78115138D01*
X218336657Y-78162757D01*
X218384276Y-78162757D01*
X218479514Y-78115138D01*
X218527133Y-78067519D01*
X218574752Y-77972280D01*
X218574752Y-77781804D01*
X218622371Y-77686566D01*
X218669990Y-77638947D01*
X218765228Y-77591328D01*
X218955704Y-77591328D01*
X219050942Y-77638947D01*
X219098561Y-77686566D01*
X219146180Y-77781804D01*
X219146180Y-77972280D01*
X219098561Y-78067519D01*
X219050942Y-78115138D01*
X218955704Y-78162757D01*
X218765228Y-78162757D01*
X218669990Y-78115138D01*
X218622371Y-78067519D01*
X218574752Y-77972280D01*
X126252380Y-72890476D02*
X126966666Y-72890476D01*
X127109523Y-72842857D01*
X127204761Y-72747619D01*
X127252380Y-72604761D01*
X127252380Y-72509523D01*
X126347619Y-73319047D02*
X126300000Y-73366666D01*
X126252380Y-73461904D01*
X126252380Y-73700000D01*
X126300000Y-73795238D01*
X126347619Y-73842857D01*
X126442857Y-73890476D01*
X126538095Y-73890476D01*
X126680952Y-73842857D01*
X127252380Y-73271428D01*
X127252380Y-73890476D01*
X127252380Y-74366666D02*
X127252380Y-74557142D01*
X127204761Y-74652380D01*
X127157142Y-74700000D01*
X127014285Y-74795238D01*
X126823809Y-74842857D01*
X126442857Y-74842857D01*
X126347619Y-74795238D01*
X126300000Y-74747619D01*
X126252380Y-74652380D01*
X126252380Y-74461904D01*
X126300000Y-74366666D01*
X126347619Y-74319047D01*
X126442857Y-74271428D01*
X126680952Y-74271428D01*
X126776190Y-74319047D01*
X126823809Y-74366666D01*
X126871428Y-74461904D01*
X126871428Y-74652380D01*
X126823809Y-74747619D01*
X126776190Y-74795238D01*
X126680952Y-74842857D01*
X126152380Y-76790476D02*
X126866666Y-76790476D01*
X127009523Y-76742857D01*
X127104761Y-76647619D01*
X127152380Y-76504761D01*
X127152380Y-76409523D01*
X126152380Y-77171428D02*
X126152380Y-77790476D01*
X126533333Y-77457142D01*
X126533333Y-77600000D01*
X126580952Y-77695238D01*
X126628571Y-77742857D01*
X126723809Y-77790476D01*
X126961904Y-77790476D01*
X127057142Y-77742857D01*
X127104761Y-77695238D01*
X127152380Y-77600000D01*
X127152380Y-77314285D01*
X127104761Y-77219047D01*
X127057142Y-77171428D01*
X126152380Y-78409523D02*
X126152380Y-78504761D01*
X126200000Y-78600000D01*
X126247619Y-78647619D01*
X126342857Y-78695238D01*
X126533333Y-78742857D01*
X126771428Y-78742857D01*
X126961904Y-78695238D01*
X127057142Y-78647619D01*
X127104761Y-78600000D01*
X127152380Y-78504761D01*
X127152380Y-78409523D01*
X127104761Y-78314285D01*
X127057142Y-78266666D01*
X126961904Y-78219047D01*
X126771428Y-78171428D01*
X126533333Y-78171428D01*
X126342857Y-78219047D01*
X126247619Y-78266666D01*
X126200000Y-78314285D01*
X126152380Y-78409523D01*
X139958260Y-65732876D02*
X140672546Y-65732876D01*
X140815403Y-65685257D01*
X140910641Y-65590019D01*
X140958260Y-65447161D01*
X140958260Y-65351923D01*
X139958260Y-66113828D02*
X139958260Y-66732876D01*
X140339213Y-66399542D01*
X140339213Y-66542400D01*
X140386832Y-66637638D01*
X140434451Y-66685257D01*
X140529689Y-66732876D01*
X140767784Y-66732876D01*
X140863022Y-66685257D01*
X140910641Y-66637638D01*
X140958260Y-66542400D01*
X140958260Y-66256685D01*
X140910641Y-66161447D01*
X140863022Y-66113828D01*
X140958260Y-67685257D02*
X140958260Y-67113828D01*
X140958260Y-67399542D02*
X139958260Y-67399542D01*
X140101118Y-67304304D01*
X140196356Y-67209066D01*
X140243975Y-67113828D01*
X113856186Y-75049440D02*
X114332377Y-75049440D01*
X114332377Y-74049440D01*
X112999043Y-75049440D02*
X113570472Y-75049440D01*
X113284758Y-75049440D02*
X113284758Y-74049440D01*
X113379996Y-74192298D01*
X113475234Y-74287536D01*
X113570472Y-74335155D01*
X94564438Y-74046819D02*
X94659676Y-73999200D01*
X94754914Y-73903961D01*
X94897771Y-73761104D01*
X94993009Y-73713485D01*
X95088247Y-73713485D01*
X95040628Y-73951580D02*
X95135866Y-73903961D01*
X95231104Y-73808723D01*
X95278723Y-73618247D01*
X95278723Y-73284914D01*
X95231104Y-73094438D01*
X95135866Y-72999200D01*
X95040628Y-72951580D01*
X94850152Y-72951580D01*
X94754914Y-72999200D01*
X94659676Y-73094438D01*
X94612057Y-73284914D01*
X94612057Y-73618247D01*
X94659676Y-73808723D01*
X94754914Y-73903961D01*
X94850152Y-73951580D01*
X95040628Y-73951580D01*
X93659676Y-73951580D02*
X94231104Y-73951580D01*
X93945390Y-73951580D02*
X93945390Y-72951580D01*
X94040628Y-73094438D01*
X94135866Y-73189676D01*
X94231104Y-73237295D01*
X94551738Y-90264719D02*
X94646976Y-90217100D01*
X94742214Y-90121861D01*
X94885071Y-89979004D01*
X94980309Y-89931385D01*
X95075547Y-89931385D01*
X95027928Y-90169480D02*
X95123166Y-90121861D01*
X95218404Y-90026623D01*
X95266023Y-89836147D01*
X95266023Y-89502814D01*
X95218404Y-89312338D01*
X95123166Y-89217100D01*
X95027928Y-89169480D01*
X94837452Y-89169480D01*
X94742214Y-89217100D01*
X94646976Y-89312338D01*
X94599357Y-89502814D01*
X94599357Y-89836147D01*
X94646976Y-90026623D01*
X94742214Y-90121861D01*
X94837452Y-90169480D01*
X95027928Y-90169480D01*
X94218404Y-89264719D02*
X94170785Y-89217100D01*
X94075547Y-89169480D01*
X93837452Y-89169480D01*
X93742214Y-89217100D01*
X93694595Y-89264719D01*
X93646976Y-89359957D01*
X93646976Y-89455195D01*
X93694595Y-89598052D01*
X94266023Y-90169480D01*
X93646976Y-90169480D01*
X127876538Y-90633019D02*
X127971776Y-90585400D01*
X128067014Y-90490161D01*
X128209871Y-90347304D01*
X128305109Y-90299685D01*
X128400347Y-90299685D01*
X128352728Y-90537780D02*
X128447966Y-90490161D01*
X128543204Y-90394923D01*
X128590823Y-90204447D01*
X128590823Y-89871114D01*
X128543204Y-89680638D01*
X128447966Y-89585400D01*
X128352728Y-89537780D01*
X128162252Y-89537780D01*
X128067014Y-89585400D01*
X127971776Y-89680638D01*
X127924157Y-89871114D01*
X127924157Y-90204447D01*
X127971776Y-90394923D01*
X128067014Y-90490161D01*
X128162252Y-90537780D01*
X128352728Y-90537780D01*
X127590823Y-89537780D02*
X126971776Y-89537780D01*
X127305109Y-89918733D01*
X127162252Y-89918733D01*
X127067014Y-89966352D01*
X127019395Y-90013971D01*
X126971776Y-90109209D01*
X126971776Y-90347304D01*
X127019395Y-90442542D01*
X127067014Y-90490161D01*
X127162252Y-90537780D01*
X127447966Y-90537780D01*
X127543204Y-90490161D01*
X127590823Y-90442542D01*
X105753138Y-90696519D02*
X105848376Y-90648900D01*
X105943614Y-90553661D01*
X106086471Y-90410804D01*
X106181709Y-90363185D01*
X106276947Y-90363185D01*
X106229328Y-90601280D02*
X106324566Y-90553661D01*
X106419804Y-90458423D01*
X106467423Y-90267947D01*
X106467423Y-89934614D01*
X106419804Y-89744138D01*
X106324566Y-89648900D01*
X106229328Y-89601280D01*
X106038852Y-89601280D01*
X105943614Y-89648900D01*
X105848376Y-89744138D01*
X105800757Y-89934614D01*
X105800757Y-90267947D01*
X105848376Y-90458423D01*
X105943614Y-90553661D01*
X106038852Y-90601280D01*
X106229328Y-90601280D01*
X104943614Y-89934614D02*
X104943614Y-90601280D01*
X105181709Y-89553661D02*
X105419804Y-90267947D01*
X104800757Y-90267947D01*
X145235361Y-87967466D02*
X145282980Y-88110323D01*
X145282980Y-88348419D01*
X145235361Y-88443657D01*
X145187742Y-88491276D01*
X145092504Y-88538895D01*
X144997266Y-88538895D01*
X144902028Y-88491276D01*
X144854409Y-88443657D01*
X144806790Y-88348419D01*
X144759171Y-88157942D01*
X144711552Y-88062704D01*
X144663933Y-88015085D01*
X144568695Y-87967466D01*
X144473457Y-87967466D01*
X144378219Y-88015085D01*
X144330600Y-88062704D01*
X144282980Y-88157942D01*
X144282980Y-88396038D01*
X144330600Y-88538895D01*
X144282980Y-88872228D02*
X145282980Y-89110323D01*
X144568695Y-89300800D01*
X145282980Y-89491276D01*
X144282980Y-89729371D01*
X145282980Y-90634133D02*
X145282980Y-90062704D01*
X145282980Y-90348419D02*
X144282980Y-90348419D01*
X144425838Y-90253180D01*
X144521076Y-90157942D01*
X144568695Y-90062704D01*
X166634861Y-88094466D02*
X166682480Y-88237323D01*
X166682480Y-88475419D01*
X166634861Y-88570657D01*
X166587242Y-88618276D01*
X166492004Y-88665895D01*
X166396766Y-88665895D01*
X166301528Y-88618276D01*
X166253909Y-88570657D01*
X166206290Y-88475419D01*
X166158671Y-88284942D01*
X166111052Y-88189704D01*
X166063433Y-88142085D01*
X165968195Y-88094466D01*
X165872957Y-88094466D01*
X165777719Y-88142085D01*
X165730100Y-88189704D01*
X165682480Y-88284942D01*
X165682480Y-88523038D01*
X165730100Y-88665895D01*
X165682480Y-88999228D02*
X166682480Y-89237323D01*
X165968195Y-89427800D01*
X166682480Y-89618276D01*
X165682480Y-89856371D01*
X165777719Y-90189704D02*
X165730100Y-90237323D01*
X165682480Y-90332561D01*
X165682480Y-90570657D01*
X165730100Y-90665895D01*
X165777719Y-90713514D01*
X165872957Y-90761133D01*
X165968195Y-90761133D01*
X166111052Y-90713514D01*
X166682480Y-90142085D01*
X166682480Y-90761133D01*
X209522761Y-88119866D02*
X209570380Y-88262723D01*
X209570380Y-88500819D01*
X209522761Y-88596057D01*
X209475142Y-88643676D01*
X209379904Y-88691295D01*
X209284666Y-88691295D01*
X209189428Y-88643676D01*
X209141809Y-88596057D01*
X209094190Y-88500819D01*
X209046571Y-88310342D01*
X208998952Y-88215104D01*
X208951333Y-88167485D01*
X208856095Y-88119866D01*
X208760857Y-88119866D01*
X208665619Y-88167485D01*
X208618000Y-88215104D01*
X208570380Y-88310342D01*
X208570380Y-88548438D01*
X208618000Y-88691295D01*
X208570380Y-89024628D02*
X209570380Y-89262723D01*
X208856095Y-89453200D01*
X209570380Y-89643676D01*
X208570380Y-89881771D01*
X208570380Y-90167485D02*
X208570380Y-90786533D01*
X208951333Y-90453200D01*
X208951333Y-90596057D01*
X208998952Y-90691295D01*
X209046571Y-90738914D01*
X209141809Y-90786533D01*
X209379904Y-90786533D01*
X209475142Y-90738914D01*
X209522761Y-90691295D01*
X209570380Y-90596057D01*
X209570380Y-90310342D01*
X209522761Y-90215104D01*
X209475142Y-90167485D01*
X188034361Y-88094466D02*
X188081980Y-88237323D01*
X188081980Y-88475419D01*
X188034361Y-88570657D01*
X187986742Y-88618276D01*
X187891504Y-88665895D01*
X187796266Y-88665895D01*
X187701028Y-88618276D01*
X187653409Y-88570657D01*
X187605790Y-88475419D01*
X187558171Y-88284942D01*
X187510552Y-88189704D01*
X187462933Y-88142085D01*
X187367695Y-88094466D01*
X187272457Y-88094466D01*
X187177219Y-88142085D01*
X187129600Y-88189704D01*
X187081980Y-88284942D01*
X187081980Y-88523038D01*
X187129600Y-88665895D01*
X187081980Y-88999228D02*
X188081980Y-89237323D01*
X187367695Y-89427800D01*
X188081980Y-89618276D01*
X187081980Y-89856371D01*
X187415314Y-90665895D02*
X188081980Y-90665895D01*
X187034361Y-90427800D02*
X187748647Y-90189704D01*
X187748647Y-90808752D01*
X209700561Y-63494566D02*
X209748180Y-63637423D01*
X209748180Y-63875519D01*
X209700561Y-63970757D01*
X209652942Y-64018376D01*
X209557704Y-64065995D01*
X209462466Y-64065995D01*
X209367228Y-64018376D01*
X209319609Y-63970757D01*
X209271990Y-63875519D01*
X209224371Y-63685042D01*
X209176752Y-63589804D01*
X209129133Y-63542185D01*
X209033895Y-63494566D01*
X208938657Y-63494566D01*
X208843419Y-63542185D01*
X208795800Y-63589804D01*
X208748180Y-63685042D01*
X208748180Y-63923138D01*
X208795800Y-64065995D01*
X208748180Y-64399328D02*
X209748180Y-64637423D01*
X209033895Y-64827900D01*
X209748180Y-65018376D01*
X208748180Y-65256471D01*
X208748180Y-66113614D02*
X208748180Y-65637423D01*
X209224371Y-65589804D01*
X209176752Y-65637423D01*
X209129133Y-65732661D01*
X209129133Y-65970757D01*
X209176752Y-66065995D01*
X209224371Y-66113614D01*
X209319609Y-66161233D01*
X209557704Y-66161233D01*
X209652942Y-66113614D01*
X209700561Y-66065995D01*
X209748180Y-65970757D01*
X209748180Y-65732661D01*
X209700561Y-65637423D01*
X209652942Y-65589804D01*
X154642980Y-88628895D02*
X155452504Y-88628895D01*
X155547742Y-88676514D01*
X155595361Y-88724133D01*
X155642980Y-88819371D01*
X155642980Y-89009847D01*
X155595361Y-89105085D01*
X155547742Y-89152704D01*
X155452504Y-89200323D01*
X154642980Y-89200323D01*
X154642980Y-89581276D02*
X154642980Y-90247942D01*
X155642980Y-89819371D01*
X176052480Y-88665895D02*
X176862004Y-88665895D01*
X176957242Y-88713514D01*
X177004861Y-88761133D01*
X177052480Y-88856371D01*
X177052480Y-89046847D01*
X177004861Y-89142085D01*
X176957242Y-89189704D01*
X176862004Y-89237323D01*
X176052480Y-89237323D01*
X176481052Y-89856371D02*
X176433433Y-89761133D01*
X176385814Y-89713514D01*
X176290576Y-89665895D01*
X176242957Y-89665895D01*
X176147719Y-89713514D01*
X176100100Y-89761133D01*
X176052480Y-89856371D01*
X176052480Y-90046847D01*
X176100100Y-90142085D01*
X176147719Y-90189704D01*
X176242957Y-90237323D01*
X176290576Y-90237323D01*
X176385814Y-90189704D01*
X176433433Y-90142085D01*
X176481052Y-90046847D01*
X176481052Y-89856371D01*
X176528671Y-89761133D01*
X176576290Y-89713514D01*
X176671528Y-89665895D01*
X176862004Y-89665895D01*
X176957242Y-89713514D01*
X177004861Y-89761133D01*
X177052480Y-89856371D01*
X177052480Y-90046847D01*
X177004861Y-90142085D01*
X176957242Y-90189704D01*
X176862004Y-90237323D01*
X176671528Y-90237323D01*
X176576290Y-90189704D01*
X176528671Y-90142085D01*
X176481052Y-90046847D01*
X218940380Y-88691295D02*
X219749904Y-88691295D01*
X219845142Y-88738914D01*
X219892761Y-88786533D01*
X219940380Y-88881771D01*
X219940380Y-89072247D01*
X219892761Y-89167485D01*
X219845142Y-89215104D01*
X219749904Y-89262723D01*
X218940380Y-89262723D01*
X219940380Y-89786533D02*
X219940380Y-89977009D01*
X219892761Y-90072247D01*
X219845142Y-90119866D01*
X219702285Y-90215104D01*
X219511809Y-90262723D01*
X219130857Y-90262723D01*
X219035619Y-90215104D01*
X218988000Y-90167485D01*
X218940380Y-90072247D01*
X218940380Y-89881771D01*
X218988000Y-89786533D01*
X219035619Y-89738914D01*
X219130857Y-89691295D01*
X219368952Y-89691295D01*
X219464190Y-89738914D01*
X219511809Y-89786533D01*
X219559428Y-89881771D01*
X219559428Y-90072247D01*
X219511809Y-90167485D01*
X219464190Y-90215104D01*
X219368952Y-90262723D01*
X197451980Y-88189704D02*
X198261504Y-88189704D01*
X198356742Y-88237323D01*
X198404361Y-88284942D01*
X198451980Y-88380180D01*
X198451980Y-88570657D01*
X198404361Y-88665895D01*
X198356742Y-88713514D01*
X198261504Y-88761133D01*
X197451980Y-88761133D01*
X198451980Y-89761133D02*
X198451980Y-89189704D01*
X198451980Y-89475419D02*
X197451980Y-89475419D01*
X197594838Y-89380180D01*
X197690076Y-89284942D01*
X197737695Y-89189704D01*
X197451980Y-90380180D02*
X197451980Y-90475419D01*
X197499600Y-90570657D01*
X197547219Y-90618276D01*
X197642457Y-90665895D01*
X197832933Y-90713514D01*
X198071028Y-90713514D01*
X198261504Y-90665895D01*
X198356742Y-90618276D01*
X198404361Y-90570657D01*
X198451980Y-90475419D01*
X198451980Y-90380180D01*
X198404361Y-90284942D01*
X198356742Y-90237323D01*
X198261504Y-90189704D01*
X198071028Y-90142085D01*
X197832933Y-90142085D01*
X197642457Y-90189704D01*
X197547219Y-90237323D01*
X197499600Y-90284942D01*
X197451980Y-90380180D01*
X219118180Y-63589804D02*
X219927704Y-63589804D01*
X220022942Y-63637423D01*
X220070561Y-63685042D01*
X220118180Y-63780280D01*
X220118180Y-63970757D01*
X220070561Y-64065995D01*
X220022942Y-64113614D01*
X219927704Y-64161233D01*
X219118180Y-64161233D01*
X220118180Y-65161233D02*
X220118180Y-64589804D01*
X220118180Y-64875519D02*
X219118180Y-64875519D01*
X219261038Y-64780280D01*
X219356276Y-64685042D01*
X219403895Y-64589804D01*
X220118180Y-66113614D02*
X220118180Y-65542185D01*
X220118180Y-65827900D02*
X219118180Y-65827900D01*
X219261038Y-65732661D01*
X219356276Y-65637423D01*
X219403895Y-65542185D01*
M02*
