G04 #@! TF.GenerationSoftware,KiCad,Pcbnew,(5.1.0)-1*
G04 #@! TF.CreationDate,2020-03-21T02:07:01+08:00*
G04 #@! TF.ProjectId,driver,64726976-6572-42e6-9b69-6361645f7063,rev?*
G04 #@! TF.SameCoordinates,Original*
G04 #@! TF.FileFunction,Legend,Top*
G04 #@! TF.FilePolarity,Positive*
%FSLAX46Y46*%
G04 Gerber Fmt 4.6, Leading zero omitted, Abs format (unit mm)*
G04 Created by KiCad (PCBNEW (5.1.0)-1) date 2020-03-21 02:07:01*
%MOMM*%
%LPD*%
G04 APERTURE LIST*
%ADD10C,0.150000*%
%ADD11C,0.120000*%
G04 APERTURE END LIST*
D10*
X148952380Y-113752380D02*
X148380952Y-113752380D01*
X148666666Y-113752380D02*
X148666666Y-112752380D01*
X148571428Y-112895238D01*
X148476190Y-112990476D01*
X148380952Y-113038095D01*
X149285714Y-112752380D02*
X149904761Y-112752380D01*
X149571428Y-113133333D01*
X149714285Y-113133333D01*
X149809523Y-113180952D01*
X149857142Y-113228571D01*
X149904761Y-113323809D01*
X149904761Y-113561904D01*
X149857142Y-113657142D01*
X149809523Y-113704761D01*
X149714285Y-113752380D01*
X149428571Y-113752380D01*
X149333333Y-113704761D01*
X149285714Y-113657142D01*
X150761904Y-112752380D02*
X150571428Y-112752380D01*
X150476190Y-112800000D01*
X150428571Y-112847619D01*
X150333333Y-112990476D01*
X150285714Y-113180952D01*
X150285714Y-113561904D01*
X150333333Y-113657142D01*
X150380952Y-113704761D01*
X150476190Y-113752380D01*
X150666666Y-113752380D01*
X150761904Y-113704761D01*
X150809523Y-113657142D01*
X150857142Y-113561904D01*
X150857142Y-113323809D01*
X150809523Y-113228571D01*
X150761904Y-113180952D01*
X150666666Y-113133333D01*
X150476190Y-113133333D01*
X150380952Y-113180952D01*
X150333333Y-113228571D01*
X150285714Y-113323809D01*
X151285714Y-113657142D02*
X151333333Y-113704761D01*
X151285714Y-113752380D01*
X151238095Y-113704761D01*
X151285714Y-113657142D01*
X151285714Y-113752380D01*
X151952380Y-112752380D02*
X152047619Y-112752380D01*
X152142857Y-112800000D01*
X152190476Y-112847619D01*
X152238095Y-112942857D01*
X152285714Y-113133333D01*
X152285714Y-113371428D01*
X152238095Y-113561904D01*
X152190476Y-113657142D01*
X152142857Y-113704761D01*
X152047619Y-113752380D01*
X151952380Y-113752380D01*
X151857142Y-113704761D01*
X151809523Y-113657142D01*
X151761904Y-113561904D01*
X151714285Y-113371428D01*
X151714285Y-113133333D01*
X151761904Y-112942857D01*
X151809523Y-112847619D01*
X151857142Y-112800000D01*
X151952380Y-112752380D01*
X152904761Y-112752380D02*
X153000000Y-112752380D01*
X153095238Y-112800000D01*
X153142857Y-112847619D01*
X153190476Y-112942857D01*
X153238095Y-113133333D01*
X153238095Y-113371428D01*
X153190476Y-113561904D01*
X153142857Y-113657142D01*
X153095238Y-113704761D01*
X153000000Y-113752380D01*
X152904761Y-113752380D01*
X152809523Y-113704761D01*
X152761904Y-113657142D01*
X152714285Y-113561904D01*
X152666666Y-113371428D01*
X152666666Y-113133333D01*
X152714285Y-112942857D01*
X152761904Y-112847619D01*
X152809523Y-112800000D01*
X152904761Y-112752380D01*
X153857142Y-112752380D02*
X153952380Y-112752380D01*
X154047619Y-112800000D01*
X154095238Y-112847619D01*
X154142857Y-112942857D01*
X154190476Y-113133333D01*
X154190476Y-113371428D01*
X154142857Y-113561904D01*
X154095238Y-113657142D01*
X154047619Y-113704761D01*
X153952380Y-113752380D01*
X153857142Y-113752380D01*
X153761904Y-113704761D01*
X153714285Y-113657142D01*
X153666666Y-113561904D01*
X153619047Y-113371428D01*
X153619047Y-113133333D01*
X153666666Y-112942857D01*
X153714285Y-112847619D01*
X153761904Y-112800000D01*
X153857142Y-112752380D01*
X155380952Y-113752380D02*
X155380952Y-113085714D01*
X155380952Y-113180952D02*
X155428571Y-113133333D01*
X155523809Y-113085714D01*
X155666666Y-113085714D01*
X155761904Y-113133333D01*
X155809523Y-113228571D01*
X155809523Y-113752380D01*
X155809523Y-113228571D02*
X155857142Y-113133333D01*
X155952380Y-113085714D01*
X156095238Y-113085714D01*
X156190476Y-113133333D01*
X156238095Y-113228571D01*
X156238095Y-113752380D01*
X156714285Y-113752380D02*
X156714285Y-113085714D01*
X156714285Y-113180952D02*
X156761904Y-113133333D01*
X156857142Y-113085714D01*
X157000000Y-113085714D01*
X157095238Y-113133333D01*
X157142857Y-113228571D01*
X157142857Y-113752380D01*
X157142857Y-113228571D02*
X157190476Y-113133333D01*
X157285714Y-113085714D01*
X157428571Y-113085714D01*
X157523809Y-113133333D01*
X157571428Y-113228571D01*
X157571428Y-113752380D01*
X85000000Y-112000000D02*
X221000000Y-112000000D01*
X85000000Y-107000000D02*
X85000000Y-112586421D01*
X221000000Y-107000000D02*
X221000000Y-112586421D01*
X221000000Y-112000000D02*
X219873496Y-112586421D01*
X221000000Y-112000000D02*
X219873496Y-111413579D01*
X85000000Y-112000000D02*
X86126504Y-112586421D01*
X85000000Y-112000000D02*
X86126504Y-111413579D01*
D11*
X216104933Y-74050100D02*
X216447467Y-74050100D01*
X216104933Y-73030100D02*
X216447467Y-73030100D01*
X194426033Y-98700800D02*
X194768567Y-98700800D01*
X194426033Y-97680800D02*
X194768567Y-97680800D01*
X215927133Y-98700800D02*
X216269667Y-98700800D01*
X215927133Y-97680800D02*
X216269667Y-97680800D01*
X173013833Y-98700800D02*
X173356367Y-98700800D01*
X173013833Y-97680800D02*
X173356367Y-97680800D01*
X151614333Y-98700800D02*
X151956867Y-98700800D01*
X151614333Y-97680800D02*
X151956867Y-97680800D01*
X125070033Y-91817400D02*
X125412567Y-91817400D01*
X125070033Y-90797400D02*
X125412567Y-90797400D01*
X129529033Y-85721400D02*
X129871567Y-85721400D01*
X129529033Y-84701400D02*
X129871567Y-84701400D01*
X113867333Y-91880900D02*
X114209867Y-91880900D01*
X113867333Y-90860900D02*
X114209867Y-90860900D01*
X118467333Y-85784900D02*
X118809867Y-85784900D01*
X118467333Y-84764900D02*
X118809867Y-84764900D01*
X102946633Y-91880900D02*
X103289167Y-91880900D01*
X102946633Y-90860900D02*
X103289167Y-90860900D01*
X107377633Y-85784900D02*
X107720167Y-85784900D01*
X107377633Y-84764900D02*
X107720167Y-84764900D01*
X116319480Y-77064092D02*
X116319480Y-76541588D01*
X117739480Y-77064092D02*
X117739480Y-76541588D01*
X170980533Y-78173600D02*
X171323067Y-78173600D01*
X170980533Y-79193600D02*
X171323067Y-79193600D01*
X111937148Y-58946600D02*
X112459652Y-58946600D01*
X111937148Y-57526600D02*
X112459652Y-57526600D01*
X116209852Y-63239200D02*
X115687348Y-63239200D01*
X116209852Y-61819200D02*
X115687348Y-61819200D01*
X122413600Y-68644004D02*
X122413600Y-67439876D01*
X124233600Y-68644004D02*
X124233600Y-67439876D01*
X166993667Y-78173600D02*
X166651133Y-78173600D01*
X166993667Y-79193600D02*
X166651133Y-79193600D01*
X153871267Y-80210000D02*
X153528733Y-80210000D01*
X153871267Y-79190000D02*
X153528733Y-79190000D01*
X198274133Y-65270400D02*
X198616667Y-65270400D01*
X198274133Y-66290400D02*
X198616667Y-66290400D01*
X120853520Y-65890412D02*
X120853520Y-65367908D01*
X119433520Y-65890412D02*
X119433520Y-65367908D01*
X183430700Y-66077733D02*
X183430700Y-66420267D01*
X184450700Y-66077733D02*
X184450700Y-66420267D01*
X148626400Y-59751464D02*
X148626400Y-58547336D01*
X150446400Y-59751464D02*
X150446400Y-58547336D01*
X154510400Y-59714964D02*
X154510400Y-58510836D01*
X152690400Y-59714964D02*
X152690400Y-58510836D01*
X146382400Y-59678464D02*
X146382400Y-58474336D01*
X144562400Y-59678464D02*
X144562400Y-58474336D01*
X99099700Y-67341500D02*
X99099700Y-64041500D01*
X99099700Y-64041500D02*
X92199700Y-64041500D01*
X99099700Y-67341500D02*
X92199700Y-67341500D01*
X112166920Y-63548920D02*
X108866920Y-63548920D01*
X108866920Y-63548920D02*
X108866920Y-70448920D01*
X112166920Y-63548920D02*
X112166920Y-70448920D01*
X99669760Y-71704680D02*
X106569760Y-71704680D01*
X99669760Y-75004680D02*
X106569760Y-75004680D01*
X99669760Y-71704680D02*
X99669760Y-75004680D01*
X175098600Y-62250100D02*
X175098600Y-61660100D01*
X175098600Y-61660100D02*
X177078600Y-61660100D01*
X177078600Y-61660100D02*
X177078600Y-62010100D01*
X177078600Y-62010100D02*
X177848600Y-62010100D01*
X177848600Y-62010100D02*
X177848600Y-59960100D01*
X177848600Y-58140100D02*
X177848600Y-57840100D01*
X177848600Y-57840100D02*
X177048600Y-57840100D01*
X177048600Y-57840100D02*
X177048600Y-56540100D01*
X177048600Y-56540100D02*
X157228600Y-56540100D01*
X157228600Y-56540100D02*
X157228600Y-57840100D01*
X157228600Y-57840100D02*
X156428600Y-57840100D01*
X156428600Y-57840100D02*
X156428600Y-58140100D01*
X156428600Y-59960100D02*
X156428600Y-62010100D01*
X156428600Y-62010100D02*
X157198600Y-62010100D01*
X157198600Y-62010100D02*
X157198600Y-61660100D01*
X157198600Y-61660100D02*
X159178600Y-61660100D01*
X198223333Y-63378100D02*
X198565867Y-63378100D01*
X198223333Y-64398100D02*
X198565867Y-64398100D01*
X216622667Y-68576400D02*
X216280133Y-68576400D01*
X216622667Y-67556400D02*
X216280133Y-67556400D01*
X109275400Y-77218233D02*
X109275400Y-77560767D01*
X110295400Y-77218233D02*
X110295400Y-77560767D01*
X98734400Y-80050333D02*
X98734400Y-80392867D01*
X99754400Y-80050333D02*
X99754400Y-80392867D01*
X148832667Y-63178900D02*
X148490133Y-63178900D01*
X148832667Y-62158900D02*
X148490133Y-62158900D01*
X153122667Y-62158900D02*
X152780133Y-62158900D01*
X153122667Y-63178900D02*
X152780133Y-63178900D01*
X144260667Y-62158900D02*
X143918133Y-62158900D01*
X144260667Y-63178900D02*
X143918133Y-63178900D01*
X163628533Y-63695600D02*
X163971067Y-63695600D01*
X163628533Y-64715600D02*
X163971067Y-64715600D01*
X166968633Y-64702900D02*
X167311167Y-64702900D01*
X166968633Y-63682900D02*
X167311167Y-63682900D01*
X170397633Y-63682900D02*
X170740167Y-63682900D01*
X170397633Y-64702900D02*
X170740167Y-64702900D01*
X173744600Y-64781967D02*
X173744600Y-64439433D01*
X172724600Y-64781967D02*
X172724600Y-64439433D01*
X175217800Y-64781967D02*
X175217800Y-64439433D01*
X174197800Y-64781967D02*
X174197800Y-64439433D01*
X175671000Y-64781967D02*
X175671000Y-64439433D01*
X176691000Y-64781967D02*
X176691000Y-64439433D01*
X178215000Y-64781967D02*
X178215000Y-64439433D01*
X177195000Y-64781967D02*
X177195000Y-64439433D01*
X177185500Y-68026100D02*
X174800500Y-68026100D01*
X174800500Y-68026100D02*
X174800500Y-68281100D01*
X177185500Y-68026100D02*
X179570500Y-68026100D01*
X179570500Y-68026100D02*
X179570500Y-68281100D01*
X177185500Y-78546100D02*
X174800500Y-78546100D01*
X174800500Y-78546100D02*
X174800500Y-78291100D01*
X177185500Y-78546100D02*
X179570500Y-78546100D01*
X179570500Y-78546100D02*
X179570500Y-78291100D01*
X179570500Y-78291100D02*
X181235500Y-78291100D01*
X119378960Y-77251360D02*
X120638960Y-77251360D01*
X126198960Y-77251360D02*
X124938960Y-77251360D01*
X119378960Y-73491360D02*
X119378960Y-77251360D01*
X126198960Y-71241360D02*
X126198960Y-77251360D01*
X112719520Y-69150160D02*
X112719520Y-71900160D01*
X112719520Y-71900160D02*
X112979520Y-71900160D01*
X112719520Y-69150160D02*
X112719520Y-66400160D01*
X112719520Y-66400160D02*
X112979520Y-66400160D01*
X118169520Y-69150160D02*
X118169520Y-71900160D01*
X118169520Y-71900160D02*
X117909520Y-71900160D01*
X118169520Y-69150160D02*
X118169520Y-66400160D01*
X118169520Y-66400160D02*
X117909520Y-66400160D01*
X117909520Y-66400160D02*
X117909520Y-64750160D01*
X169829600Y-77033800D02*
X171494600Y-77033800D01*
X169829600Y-77288800D02*
X169829600Y-77033800D01*
X167444600Y-77288800D02*
X169829600Y-77288800D01*
X165059600Y-77288800D02*
X165059600Y-77033800D01*
X167444600Y-77288800D02*
X165059600Y-77288800D01*
X169829600Y-66768800D02*
X169829600Y-67023800D01*
X167444600Y-66768800D02*
X169829600Y-66768800D01*
X165059600Y-66768800D02*
X165059600Y-67023800D01*
X167444600Y-66768800D02*
X165059600Y-66768800D01*
D10*
X150844900Y-75176400D02*
X151419900Y-75176400D01*
X150844900Y-69426400D02*
X151494900Y-69426400D01*
X161494900Y-69426400D02*
X160844900Y-69426400D01*
X161494900Y-75176400D02*
X160844900Y-75176400D01*
X150844900Y-75176400D02*
X150844900Y-69426400D01*
X161494900Y-75176400D02*
X161494900Y-69426400D01*
X151419900Y-75176400D02*
X151419900Y-76776400D01*
D11*
X196140300Y-74173300D02*
X196140300Y-70313300D01*
X196140300Y-70313300D02*
X195905300Y-70313300D01*
X196140300Y-74173300D02*
X196140300Y-78033300D01*
X196140300Y-78033300D02*
X195905300Y-78033300D01*
X183120300Y-74173300D02*
X183120300Y-70313300D01*
X183120300Y-70313300D02*
X183355300Y-70313300D01*
X183120300Y-74173300D02*
X183120300Y-78033300D01*
X183120300Y-78033300D02*
X183355300Y-78033300D01*
X183355300Y-78033300D02*
X183355300Y-79848300D01*
D10*
X215633342Y-72467242D02*
X215585723Y-72514861D01*
X215442866Y-72562480D01*
X215347628Y-72562480D01*
X215204771Y-72514861D01*
X215109533Y-72419623D01*
X215061914Y-72324385D01*
X215014295Y-72133909D01*
X215014295Y-71991052D01*
X215061914Y-71800576D01*
X215109533Y-71705338D01*
X215204771Y-71610100D01*
X215347628Y-71562480D01*
X215442866Y-71562480D01*
X215585723Y-71610100D01*
X215633342Y-71657719D01*
X216014295Y-71657719D02*
X216061914Y-71610100D01*
X216157152Y-71562480D01*
X216395247Y-71562480D01*
X216490485Y-71610100D01*
X216538104Y-71657719D01*
X216585723Y-71752957D01*
X216585723Y-71848195D01*
X216538104Y-71991052D01*
X215966676Y-72562480D01*
X216585723Y-72562480D01*
X217490485Y-71562480D02*
X217014295Y-71562480D01*
X216966676Y-72038671D01*
X217014295Y-71991052D01*
X217109533Y-71943433D01*
X217347628Y-71943433D01*
X217442866Y-71991052D01*
X217490485Y-72038671D01*
X217538104Y-72133909D01*
X217538104Y-72372004D01*
X217490485Y-72467242D01*
X217442866Y-72514861D01*
X217347628Y-72562480D01*
X217109533Y-72562480D01*
X217014295Y-72514861D01*
X216966676Y-72467242D01*
X193954442Y-97117942D02*
X193906823Y-97165561D01*
X193763966Y-97213180D01*
X193668728Y-97213180D01*
X193525871Y-97165561D01*
X193430633Y-97070323D01*
X193383014Y-96975085D01*
X193335395Y-96784609D01*
X193335395Y-96641752D01*
X193383014Y-96451276D01*
X193430633Y-96356038D01*
X193525871Y-96260800D01*
X193668728Y-96213180D01*
X193763966Y-96213180D01*
X193906823Y-96260800D01*
X193954442Y-96308419D01*
X194335395Y-96308419D02*
X194383014Y-96260800D01*
X194478252Y-96213180D01*
X194716347Y-96213180D01*
X194811585Y-96260800D01*
X194859204Y-96308419D01*
X194906823Y-96403657D01*
X194906823Y-96498895D01*
X194859204Y-96641752D01*
X194287776Y-97213180D01*
X194906823Y-97213180D01*
X195763966Y-96546514D02*
X195763966Y-97213180D01*
X195525871Y-96165561D02*
X195287776Y-96879847D01*
X195906823Y-96879847D01*
X215455542Y-97117942D02*
X215407923Y-97165561D01*
X215265066Y-97213180D01*
X215169828Y-97213180D01*
X215026971Y-97165561D01*
X214931733Y-97070323D01*
X214884114Y-96975085D01*
X214836495Y-96784609D01*
X214836495Y-96641752D01*
X214884114Y-96451276D01*
X214931733Y-96356038D01*
X215026971Y-96260800D01*
X215169828Y-96213180D01*
X215265066Y-96213180D01*
X215407923Y-96260800D01*
X215455542Y-96308419D01*
X215836495Y-96308419D02*
X215884114Y-96260800D01*
X215979352Y-96213180D01*
X216217447Y-96213180D01*
X216312685Y-96260800D01*
X216360304Y-96308419D01*
X216407923Y-96403657D01*
X216407923Y-96498895D01*
X216360304Y-96641752D01*
X215788876Y-97213180D01*
X216407923Y-97213180D01*
X216741257Y-96213180D02*
X217360304Y-96213180D01*
X217026971Y-96594133D01*
X217169828Y-96594133D01*
X217265066Y-96641752D01*
X217312685Y-96689371D01*
X217360304Y-96784609D01*
X217360304Y-97022704D01*
X217312685Y-97117942D01*
X217265066Y-97165561D01*
X217169828Y-97213180D01*
X216884114Y-97213180D01*
X216788876Y-97165561D01*
X216741257Y-97117942D01*
X172542242Y-97117942D02*
X172494623Y-97165561D01*
X172351766Y-97213180D01*
X172256528Y-97213180D01*
X172113671Y-97165561D01*
X172018433Y-97070323D01*
X171970814Y-96975085D01*
X171923195Y-96784609D01*
X171923195Y-96641752D01*
X171970814Y-96451276D01*
X172018433Y-96356038D01*
X172113671Y-96260800D01*
X172256528Y-96213180D01*
X172351766Y-96213180D01*
X172494623Y-96260800D01*
X172542242Y-96308419D01*
X172923195Y-96308419D02*
X172970814Y-96260800D01*
X173066052Y-96213180D01*
X173304147Y-96213180D01*
X173399385Y-96260800D01*
X173447004Y-96308419D01*
X173494623Y-96403657D01*
X173494623Y-96498895D01*
X173447004Y-96641752D01*
X172875576Y-97213180D01*
X173494623Y-97213180D01*
X173875576Y-96308419D02*
X173923195Y-96260800D01*
X174018433Y-96213180D01*
X174256528Y-96213180D01*
X174351766Y-96260800D01*
X174399385Y-96308419D01*
X174447004Y-96403657D01*
X174447004Y-96498895D01*
X174399385Y-96641752D01*
X173827957Y-97213180D01*
X174447004Y-97213180D01*
X151142742Y-97117942D02*
X151095123Y-97165561D01*
X150952266Y-97213180D01*
X150857028Y-97213180D01*
X150714171Y-97165561D01*
X150618933Y-97070323D01*
X150571314Y-96975085D01*
X150523695Y-96784609D01*
X150523695Y-96641752D01*
X150571314Y-96451276D01*
X150618933Y-96356038D01*
X150714171Y-96260800D01*
X150857028Y-96213180D01*
X150952266Y-96213180D01*
X151095123Y-96260800D01*
X151142742Y-96308419D01*
X151523695Y-96308419D02*
X151571314Y-96260800D01*
X151666552Y-96213180D01*
X151904647Y-96213180D01*
X151999885Y-96260800D01*
X152047504Y-96308419D01*
X152095123Y-96403657D01*
X152095123Y-96498895D01*
X152047504Y-96641752D01*
X151476076Y-97213180D01*
X152095123Y-97213180D01*
X153047504Y-97213180D02*
X152476076Y-97213180D01*
X152761790Y-97213180D02*
X152761790Y-96213180D01*
X152666552Y-96356038D01*
X152571314Y-96451276D01*
X152476076Y-96498895D01*
X124598442Y-90329780D02*
X124265109Y-89853590D01*
X124027014Y-90329780D02*
X124027014Y-89329780D01*
X124407966Y-89329780D01*
X124503204Y-89377400D01*
X124550823Y-89425019D01*
X124598442Y-89520257D01*
X124598442Y-89663114D01*
X124550823Y-89758352D01*
X124503204Y-89805971D01*
X124407966Y-89853590D01*
X124027014Y-89853590D01*
X125550823Y-90329780D02*
X124979395Y-90329780D01*
X125265109Y-90329780D02*
X125265109Y-89329780D01*
X125169871Y-89472638D01*
X125074633Y-89567876D01*
X124979395Y-89615495D01*
X125884157Y-89329780D02*
X126503204Y-89329780D01*
X126169871Y-89710733D01*
X126312728Y-89710733D01*
X126407966Y-89758352D01*
X126455585Y-89805971D01*
X126503204Y-89901209D01*
X126503204Y-90139304D01*
X126455585Y-90234542D01*
X126407966Y-90282161D01*
X126312728Y-90329780D01*
X126027014Y-90329780D01*
X125931776Y-90282161D01*
X125884157Y-90234542D01*
X129057442Y-84233780D02*
X128724109Y-83757590D01*
X128486014Y-84233780D02*
X128486014Y-83233780D01*
X128866966Y-83233780D01*
X128962204Y-83281400D01*
X129009823Y-83329019D01*
X129057442Y-83424257D01*
X129057442Y-83567114D01*
X129009823Y-83662352D01*
X128962204Y-83709971D01*
X128866966Y-83757590D01*
X128486014Y-83757590D01*
X130009823Y-84233780D02*
X129438395Y-84233780D01*
X129724109Y-84233780D02*
X129724109Y-83233780D01*
X129628871Y-83376638D01*
X129533633Y-83471876D01*
X129438395Y-83519495D01*
X130390776Y-83329019D02*
X130438395Y-83281400D01*
X130533633Y-83233780D01*
X130771728Y-83233780D01*
X130866966Y-83281400D01*
X130914585Y-83329019D01*
X130962204Y-83424257D01*
X130962204Y-83519495D01*
X130914585Y-83662352D01*
X130343157Y-84233780D01*
X130962204Y-84233780D01*
X113395742Y-90393280D02*
X113062409Y-89917090D01*
X112824314Y-90393280D02*
X112824314Y-89393280D01*
X113205266Y-89393280D01*
X113300504Y-89440900D01*
X113348123Y-89488519D01*
X113395742Y-89583757D01*
X113395742Y-89726614D01*
X113348123Y-89821852D01*
X113300504Y-89869471D01*
X113205266Y-89917090D01*
X112824314Y-89917090D01*
X114348123Y-90393280D02*
X113776695Y-90393280D01*
X114062409Y-90393280D02*
X114062409Y-89393280D01*
X113967171Y-89536138D01*
X113871933Y-89631376D01*
X113776695Y-89678995D01*
X115300504Y-90393280D02*
X114729076Y-90393280D01*
X115014790Y-90393280D02*
X115014790Y-89393280D01*
X114919552Y-89536138D01*
X114824314Y-89631376D01*
X114729076Y-89678995D01*
X117995742Y-84297280D02*
X117662409Y-83821090D01*
X117424314Y-84297280D02*
X117424314Y-83297280D01*
X117805266Y-83297280D01*
X117900504Y-83344900D01*
X117948123Y-83392519D01*
X117995742Y-83487757D01*
X117995742Y-83630614D01*
X117948123Y-83725852D01*
X117900504Y-83773471D01*
X117805266Y-83821090D01*
X117424314Y-83821090D01*
X118948123Y-84297280D02*
X118376695Y-84297280D01*
X118662409Y-84297280D02*
X118662409Y-83297280D01*
X118567171Y-83440138D01*
X118471933Y-83535376D01*
X118376695Y-83582995D01*
X119567171Y-83297280D02*
X119662409Y-83297280D01*
X119757647Y-83344900D01*
X119805266Y-83392519D01*
X119852885Y-83487757D01*
X119900504Y-83678233D01*
X119900504Y-83916328D01*
X119852885Y-84106804D01*
X119805266Y-84202042D01*
X119757647Y-84249661D01*
X119662409Y-84297280D01*
X119567171Y-84297280D01*
X119471933Y-84249661D01*
X119424314Y-84202042D01*
X119376695Y-84106804D01*
X119329076Y-83916328D01*
X119329076Y-83678233D01*
X119376695Y-83487757D01*
X119424314Y-83392519D01*
X119471933Y-83344900D01*
X119567171Y-83297280D01*
X102951233Y-90393280D02*
X102617900Y-89917090D01*
X102379804Y-90393280D02*
X102379804Y-89393280D01*
X102760757Y-89393280D01*
X102855995Y-89440900D01*
X102903614Y-89488519D01*
X102951233Y-89583757D01*
X102951233Y-89726614D01*
X102903614Y-89821852D01*
X102855995Y-89869471D01*
X102760757Y-89917090D01*
X102379804Y-89917090D01*
X103522661Y-89821852D02*
X103427423Y-89774233D01*
X103379804Y-89726614D01*
X103332185Y-89631376D01*
X103332185Y-89583757D01*
X103379804Y-89488519D01*
X103427423Y-89440900D01*
X103522661Y-89393280D01*
X103713138Y-89393280D01*
X103808376Y-89440900D01*
X103855995Y-89488519D01*
X103903614Y-89583757D01*
X103903614Y-89631376D01*
X103855995Y-89726614D01*
X103808376Y-89774233D01*
X103713138Y-89821852D01*
X103522661Y-89821852D01*
X103427423Y-89869471D01*
X103379804Y-89917090D01*
X103332185Y-90012328D01*
X103332185Y-90202804D01*
X103379804Y-90298042D01*
X103427423Y-90345661D01*
X103522661Y-90393280D01*
X103713138Y-90393280D01*
X103808376Y-90345661D01*
X103855995Y-90298042D01*
X103903614Y-90202804D01*
X103903614Y-90012328D01*
X103855995Y-89917090D01*
X103808376Y-89869471D01*
X103713138Y-89821852D01*
X107382233Y-84297280D02*
X107048900Y-83821090D01*
X106810804Y-84297280D02*
X106810804Y-83297280D01*
X107191757Y-83297280D01*
X107286995Y-83344900D01*
X107334614Y-83392519D01*
X107382233Y-83487757D01*
X107382233Y-83630614D01*
X107334614Y-83725852D01*
X107286995Y-83773471D01*
X107191757Y-83821090D01*
X106810804Y-83821090D01*
X107715566Y-83297280D02*
X108382233Y-83297280D01*
X107953661Y-84297280D01*
X115736622Y-76969506D02*
X115784241Y-77017125D01*
X115831860Y-77159982D01*
X115831860Y-77255220D01*
X115784241Y-77398078D01*
X115689003Y-77493316D01*
X115593765Y-77540935D01*
X115403289Y-77588554D01*
X115260432Y-77588554D01*
X115069956Y-77540935D01*
X114974718Y-77493316D01*
X114879480Y-77398078D01*
X114831860Y-77255220D01*
X114831860Y-77159982D01*
X114879480Y-77017125D01*
X114927099Y-76969506D01*
X115831860Y-76017125D02*
X115831860Y-76588554D01*
X115831860Y-76302840D02*
X114831860Y-76302840D01*
X114974718Y-76398078D01*
X115069956Y-76493316D01*
X115117575Y-76588554D01*
X170985133Y-77610742D02*
X170937514Y-77658361D01*
X170794657Y-77705980D01*
X170699419Y-77705980D01*
X170556561Y-77658361D01*
X170461323Y-77563123D01*
X170413704Y-77467885D01*
X170366085Y-77277409D01*
X170366085Y-77134552D01*
X170413704Y-76944076D01*
X170461323Y-76848838D01*
X170556561Y-76753600D01*
X170699419Y-76705980D01*
X170794657Y-76705980D01*
X170937514Y-76753600D01*
X170985133Y-76801219D01*
X171318466Y-76705980D02*
X171937514Y-76705980D01*
X171604180Y-77086933D01*
X171747038Y-77086933D01*
X171842276Y-77134552D01*
X171889895Y-77182171D01*
X171937514Y-77277409D01*
X171937514Y-77515504D01*
X171889895Y-77610742D01*
X171842276Y-77658361D01*
X171747038Y-77705980D01*
X171461323Y-77705980D01*
X171366085Y-77658361D01*
X171318466Y-77610742D01*
X112031733Y-56943742D02*
X111984114Y-56991361D01*
X111841257Y-57038980D01*
X111746019Y-57038980D01*
X111603161Y-56991361D01*
X111507923Y-56896123D01*
X111460304Y-56800885D01*
X111412685Y-56610409D01*
X111412685Y-56467552D01*
X111460304Y-56277076D01*
X111507923Y-56181838D01*
X111603161Y-56086600D01*
X111746019Y-56038980D01*
X111841257Y-56038980D01*
X111984114Y-56086600D01*
X112031733Y-56134219D01*
X112888876Y-56372314D02*
X112888876Y-57038980D01*
X112650780Y-55991361D02*
X112412685Y-56705647D01*
X113031733Y-56705647D01*
X115781933Y-64536342D02*
X115734314Y-64583961D01*
X115591457Y-64631580D01*
X115496219Y-64631580D01*
X115353361Y-64583961D01*
X115258123Y-64488723D01*
X115210504Y-64393485D01*
X115162885Y-64203009D01*
X115162885Y-64060152D01*
X115210504Y-63869676D01*
X115258123Y-63774438D01*
X115353361Y-63679200D01*
X115496219Y-63631580D01*
X115591457Y-63631580D01*
X115734314Y-63679200D01*
X115781933Y-63726819D01*
X116686695Y-63631580D02*
X116210504Y-63631580D01*
X116162885Y-64107771D01*
X116210504Y-64060152D01*
X116305742Y-64012533D01*
X116543838Y-64012533D01*
X116639076Y-64060152D01*
X116686695Y-64107771D01*
X116734314Y-64203009D01*
X116734314Y-64441104D01*
X116686695Y-64536342D01*
X116639076Y-64583961D01*
X116543838Y-64631580D01*
X116305742Y-64631580D01*
X116210504Y-64583961D01*
X116162885Y-64536342D01*
X121860742Y-68208606D02*
X121908361Y-68256225D01*
X121955980Y-68399082D01*
X121955980Y-68494320D01*
X121908361Y-68637178D01*
X121813123Y-68732416D01*
X121717885Y-68780035D01*
X121527409Y-68827654D01*
X121384552Y-68827654D01*
X121194076Y-68780035D01*
X121098838Y-68732416D01*
X121003600Y-68637178D01*
X120955980Y-68494320D01*
X120955980Y-68399082D01*
X121003600Y-68256225D01*
X121051219Y-68208606D01*
X120955980Y-67351463D02*
X120955980Y-67541940D01*
X121003600Y-67637178D01*
X121051219Y-67684797D01*
X121194076Y-67780035D01*
X121384552Y-67827654D01*
X121765504Y-67827654D01*
X121860742Y-67780035D01*
X121908361Y-67732416D01*
X121955980Y-67637178D01*
X121955980Y-67446701D01*
X121908361Y-67351463D01*
X121860742Y-67303844D01*
X121765504Y-67256225D01*
X121527409Y-67256225D01*
X121432171Y-67303844D01*
X121384552Y-67351463D01*
X121336933Y-67446701D01*
X121336933Y-67637178D01*
X121384552Y-67732416D01*
X121432171Y-67780035D01*
X121527409Y-67827654D01*
X166655733Y-80470742D02*
X166608114Y-80518361D01*
X166465257Y-80565980D01*
X166370019Y-80565980D01*
X166227161Y-80518361D01*
X166131923Y-80423123D01*
X166084304Y-80327885D01*
X166036685Y-80137409D01*
X166036685Y-79994552D01*
X166084304Y-79804076D01*
X166131923Y-79708838D01*
X166227161Y-79613600D01*
X166370019Y-79565980D01*
X166465257Y-79565980D01*
X166608114Y-79613600D01*
X166655733Y-79661219D01*
X166989066Y-79565980D02*
X167655733Y-79565980D01*
X167227161Y-80565980D01*
X153533333Y-81487142D02*
X153485714Y-81534761D01*
X153342857Y-81582380D01*
X153247619Y-81582380D01*
X153104761Y-81534761D01*
X153009523Y-81439523D01*
X152961904Y-81344285D01*
X152914285Y-81153809D01*
X152914285Y-81010952D01*
X152961904Y-80820476D01*
X153009523Y-80725238D01*
X153104761Y-80630000D01*
X153247619Y-80582380D01*
X153342857Y-80582380D01*
X153485714Y-80630000D01*
X153533333Y-80677619D01*
X154104761Y-81010952D02*
X154009523Y-80963333D01*
X153961904Y-80915714D01*
X153914285Y-80820476D01*
X153914285Y-80772857D01*
X153961904Y-80677619D01*
X154009523Y-80630000D01*
X154104761Y-80582380D01*
X154295238Y-80582380D01*
X154390476Y-80630000D01*
X154438095Y-80677619D01*
X154485714Y-80772857D01*
X154485714Y-80820476D01*
X154438095Y-80915714D01*
X154390476Y-80963333D01*
X154295238Y-81010952D01*
X154104761Y-81010952D01*
X154009523Y-81058571D01*
X153961904Y-81106190D01*
X153914285Y-81201428D01*
X153914285Y-81391904D01*
X153961904Y-81487142D01*
X154009523Y-81534761D01*
X154104761Y-81582380D01*
X154295238Y-81582380D01*
X154390476Y-81534761D01*
X154438095Y-81487142D01*
X154485714Y-81391904D01*
X154485714Y-81201428D01*
X154438095Y-81106190D01*
X154390476Y-81058571D01*
X154295238Y-81010952D01*
X198278733Y-64707542D02*
X198231114Y-64755161D01*
X198088257Y-64802780D01*
X197993019Y-64802780D01*
X197850161Y-64755161D01*
X197754923Y-64659923D01*
X197707304Y-64564685D01*
X197659685Y-64374209D01*
X197659685Y-64231352D01*
X197707304Y-64040876D01*
X197754923Y-63945638D01*
X197850161Y-63850400D01*
X197993019Y-63802780D01*
X198088257Y-63802780D01*
X198231114Y-63850400D01*
X198278733Y-63898019D01*
X198754923Y-64802780D02*
X198945400Y-64802780D01*
X199040638Y-64755161D01*
X199088257Y-64707542D01*
X199183495Y-64564685D01*
X199231114Y-64374209D01*
X199231114Y-63993257D01*
X199183495Y-63898019D01*
X199135876Y-63850400D01*
X199040638Y-63802780D01*
X198850161Y-63802780D01*
X198754923Y-63850400D01*
X198707304Y-63898019D01*
X198659685Y-63993257D01*
X198659685Y-64231352D01*
X198707304Y-64326590D01*
X198754923Y-64374209D01*
X198850161Y-64421828D01*
X199040638Y-64421828D01*
X199135876Y-64374209D01*
X199183495Y-64326590D01*
X199231114Y-64231352D01*
X118850662Y-66272017D02*
X118898281Y-66319636D01*
X118945900Y-66462493D01*
X118945900Y-66557731D01*
X118898281Y-66700588D01*
X118803043Y-66795826D01*
X118707805Y-66843445D01*
X118517329Y-66891064D01*
X118374472Y-66891064D01*
X118183996Y-66843445D01*
X118088758Y-66795826D01*
X117993520Y-66700588D01*
X117945900Y-66557731D01*
X117945900Y-66462493D01*
X117993520Y-66319636D01*
X118041139Y-66272017D01*
X118945900Y-65319636D02*
X118945900Y-65891064D01*
X118945900Y-65605350D02*
X117945900Y-65605350D01*
X118088758Y-65700588D01*
X118183996Y-65795826D01*
X118231615Y-65891064D01*
X118945900Y-64367255D02*
X118945900Y-64938683D01*
X118945900Y-64652969D02*
X117945900Y-64652969D01*
X118088758Y-64748207D01*
X118183996Y-64843445D01*
X118231615Y-64938683D01*
X185727842Y-66891857D02*
X185775461Y-66939476D01*
X185823080Y-67082333D01*
X185823080Y-67177571D01*
X185775461Y-67320428D01*
X185680223Y-67415666D01*
X185584985Y-67463285D01*
X185394509Y-67510904D01*
X185251652Y-67510904D01*
X185061176Y-67463285D01*
X184965938Y-67415666D01*
X184870700Y-67320428D01*
X184823080Y-67177571D01*
X184823080Y-67082333D01*
X184870700Y-66939476D01*
X184918319Y-66891857D01*
X185823080Y-65939476D02*
X185823080Y-66510904D01*
X185823080Y-66225190D02*
X184823080Y-66225190D01*
X184965938Y-66320428D01*
X185061176Y-66415666D01*
X185108795Y-66510904D01*
X184918319Y-65558523D02*
X184870700Y-65510904D01*
X184823080Y-65415666D01*
X184823080Y-65177571D01*
X184870700Y-65082333D01*
X184918319Y-65034714D01*
X185013557Y-64987095D01*
X185108795Y-64987095D01*
X185251652Y-65034714D01*
X185823080Y-65606142D01*
X185823080Y-64987095D01*
X148073542Y-59792257D02*
X148121161Y-59839876D01*
X148168780Y-59982733D01*
X148168780Y-60077971D01*
X148121161Y-60220828D01*
X148025923Y-60316066D01*
X147930685Y-60363685D01*
X147740209Y-60411304D01*
X147597352Y-60411304D01*
X147406876Y-60363685D01*
X147311638Y-60316066D01*
X147216400Y-60220828D01*
X147168780Y-60077971D01*
X147168780Y-59982733D01*
X147216400Y-59839876D01*
X147264019Y-59792257D01*
X148168780Y-58839876D02*
X148168780Y-59411304D01*
X148168780Y-59125590D02*
X147168780Y-59125590D01*
X147311638Y-59220828D01*
X147406876Y-59316066D01*
X147454495Y-59411304D01*
X147168780Y-58506542D02*
X147168780Y-57887495D01*
X147549733Y-58220828D01*
X147549733Y-58077971D01*
X147597352Y-57982733D01*
X147644971Y-57935114D01*
X147740209Y-57887495D01*
X147978304Y-57887495D01*
X148073542Y-57935114D01*
X148121161Y-57982733D01*
X148168780Y-58077971D01*
X148168780Y-58363685D01*
X148121161Y-58458923D01*
X148073542Y-58506542D01*
X152137542Y-59755757D02*
X152185161Y-59803376D01*
X152232780Y-59946233D01*
X152232780Y-60041471D01*
X152185161Y-60184328D01*
X152089923Y-60279566D01*
X151994685Y-60327185D01*
X151804209Y-60374804D01*
X151661352Y-60374804D01*
X151470876Y-60327185D01*
X151375638Y-60279566D01*
X151280400Y-60184328D01*
X151232780Y-60041471D01*
X151232780Y-59946233D01*
X151280400Y-59803376D01*
X151328019Y-59755757D01*
X152232780Y-58803376D02*
X152232780Y-59374804D01*
X152232780Y-59089090D02*
X151232780Y-59089090D01*
X151375638Y-59184328D01*
X151470876Y-59279566D01*
X151518495Y-59374804D01*
X151566114Y-57946233D02*
X152232780Y-57946233D01*
X151185161Y-58184328D02*
X151899447Y-58422423D01*
X151899447Y-57803376D01*
X144009542Y-59719257D02*
X144057161Y-59766876D01*
X144104780Y-59909733D01*
X144104780Y-60004971D01*
X144057161Y-60147828D01*
X143961923Y-60243066D01*
X143866685Y-60290685D01*
X143676209Y-60338304D01*
X143533352Y-60338304D01*
X143342876Y-60290685D01*
X143247638Y-60243066D01*
X143152400Y-60147828D01*
X143104780Y-60004971D01*
X143104780Y-59909733D01*
X143152400Y-59766876D01*
X143200019Y-59719257D01*
X144104780Y-58766876D02*
X144104780Y-59338304D01*
X144104780Y-59052590D02*
X143104780Y-59052590D01*
X143247638Y-59147828D01*
X143342876Y-59243066D01*
X143390495Y-59338304D01*
X143104780Y-57862114D02*
X143104780Y-58338304D01*
X143580971Y-58385923D01*
X143533352Y-58338304D01*
X143485733Y-58243066D01*
X143485733Y-58004971D01*
X143533352Y-57909733D01*
X143580971Y-57862114D01*
X143676209Y-57814495D01*
X143914304Y-57814495D01*
X144009542Y-57862114D01*
X144057161Y-57909733D01*
X144104780Y-58004971D01*
X144104780Y-58243066D01*
X144057161Y-58338304D01*
X144009542Y-58385923D01*
X93961604Y-68643880D02*
X93961604Y-67643880D01*
X94199700Y-67643880D01*
X94342557Y-67691500D01*
X94437795Y-67786738D01*
X94485414Y-67881976D01*
X94533033Y-68072452D01*
X94533033Y-68215309D01*
X94485414Y-68405785D01*
X94437795Y-68501023D01*
X94342557Y-68596261D01*
X94199700Y-68643880D01*
X93961604Y-68643880D01*
X95485414Y-68643880D02*
X94913985Y-68643880D01*
X95199700Y-68643880D02*
X95199700Y-67643880D01*
X95104461Y-67786738D01*
X95009223Y-67881976D01*
X94913985Y-67929595D01*
X113469300Y-68687015D02*
X112469300Y-68687015D01*
X112469300Y-68448920D01*
X112516920Y-68306062D01*
X112612158Y-68210824D01*
X112707396Y-68163205D01*
X112897872Y-68115586D01*
X113040729Y-68115586D01*
X113231205Y-68163205D01*
X113326443Y-68210824D01*
X113421681Y-68306062D01*
X113469300Y-68448920D01*
X113469300Y-68687015D01*
X112564539Y-67734634D02*
X112516920Y-67687015D01*
X112469300Y-67591777D01*
X112469300Y-67353681D01*
X112516920Y-67258443D01*
X112564539Y-67210824D01*
X112659777Y-67163205D01*
X112755015Y-67163205D01*
X112897872Y-67210824D01*
X113469300Y-67782253D01*
X113469300Y-67163205D01*
X103331664Y-71307060D02*
X103331664Y-70307060D01*
X103569760Y-70307060D01*
X103712617Y-70354680D01*
X103807855Y-70449918D01*
X103855474Y-70545156D01*
X103903093Y-70735632D01*
X103903093Y-70878489D01*
X103855474Y-71068965D01*
X103807855Y-71164203D01*
X103712617Y-71259441D01*
X103569760Y-71307060D01*
X103331664Y-71307060D01*
X104236426Y-70307060D02*
X104855474Y-70307060D01*
X104522140Y-70688013D01*
X104664998Y-70688013D01*
X104760236Y-70735632D01*
X104807855Y-70783251D01*
X104855474Y-70878489D01*
X104855474Y-71116584D01*
X104807855Y-71211822D01*
X104760236Y-71259441D01*
X104664998Y-71307060D01*
X104379283Y-71307060D01*
X104284045Y-71259441D01*
X104236426Y-71211822D01*
X166805266Y-62902480D02*
X166805266Y-63616766D01*
X166757647Y-63759623D01*
X166662409Y-63854861D01*
X166519552Y-63902480D01*
X166424314Y-63902480D01*
X167805266Y-63902480D02*
X167233838Y-63902480D01*
X167519552Y-63902480D02*
X167519552Y-62902480D01*
X167424314Y-63045338D01*
X167329076Y-63140576D01*
X167233838Y-63188195D01*
X198227933Y-62910480D02*
X197894600Y-62434290D01*
X197656504Y-62910480D02*
X197656504Y-61910480D01*
X198037457Y-61910480D01*
X198132695Y-61958100D01*
X198180314Y-62005719D01*
X198227933Y-62100957D01*
X198227933Y-62243814D01*
X198180314Y-62339052D01*
X198132695Y-62386671D01*
X198037457Y-62434290D01*
X197656504Y-62434290D01*
X199180314Y-62910480D02*
X198608885Y-62910480D01*
X198894600Y-62910480D02*
X198894600Y-61910480D01*
X198799361Y-62053338D01*
X198704123Y-62148576D01*
X198608885Y-62196195D01*
X216542234Y-66248281D02*
X216208901Y-65772091D01*
X215970805Y-66248281D02*
X215970805Y-65248281D01*
X216351758Y-65248281D01*
X216446996Y-65295901D01*
X216494615Y-65343520D01*
X216542234Y-65438758D01*
X216542234Y-65581615D01*
X216494615Y-65676853D01*
X216446996Y-65724472D01*
X216351758Y-65772091D01*
X215970805Y-65772091D01*
X216923186Y-65343520D02*
X216970805Y-65295901D01*
X217066043Y-65248281D01*
X217304139Y-65248281D01*
X217399377Y-65295901D01*
X217446996Y-65343520D01*
X217494615Y-65438758D01*
X217494615Y-65533996D01*
X217446996Y-65676853D01*
X216875567Y-66248281D01*
X217494615Y-66248281D01*
X111667780Y-77556166D02*
X111191590Y-77889500D01*
X111667780Y-78127595D02*
X110667780Y-78127595D01*
X110667780Y-77746642D01*
X110715400Y-77651404D01*
X110763019Y-77603785D01*
X110858257Y-77556166D01*
X111001114Y-77556166D01*
X111096352Y-77603785D01*
X111143971Y-77651404D01*
X111191590Y-77746642D01*
X111191590Y-78127595D01*
X110667780Y-77222833D02*
X110667780Y-76603785D01*
X111048733Y-76937119D01*
X111048733Y-76794261D01*
X111096352Y-76699023D01*
X111143971Y-76651404D01*
X111239209Y-76603785D01*
X111477304Y-76603785D01*
X111572542Y-76651404D01*
X111620161Y-76699023D01*
X111667780Y-76794261D01*
X111667780Y-77079976D01*
X111620161Y-77175214D01*
X111572542Y-77222833D01*
X101126780Y-80388266D02*
X100650590Y-80721600D01*
X101126780Y-80959695D02*
X100126780Y-80959695D01*
X100126780Y-80578742D01*
X100174400Y-80483504D01*
X100222019Y-80435885D01*
X100317257Y-80388266D01*
X100460114Y-80388266D01*
X100555352Y-80435885D01*
X100602971Y-80483504D01*
X100650590Y-80578742D01*
X100650590Y-80959695D01*
X100460114Y-79531123D02*
X101126780Y-79531123D01*
X100079161Y-79769219D02*
X100793447Y-80007314D01*
X100793447Y-79388266D01*
X148494733Y-64551280D02*
X148161400Y-64075090D01*
X147923304Y-64551280D02*
X147923304Y-63551280D01*
X148304257Y-63551280D01*
X148399495Y-63598900D01*
X148447114Y-63646519D01*
X148494733Y-63741757D01*
X148494733Y-63884614D01*
X148447114Y-63979852D01*
X148399495Y-64027471D01*
X148304257Y-64075090D01*
X147923304Y-64075090D01*
X149399495Y-63551280D02*
X148923304Y-63551280D01*
X148875685Y-64027471D01*
X148923304Y-63979852D01*
X149018542Y-63932233D01*
X149256638Y-63932233D01*
X149351876Y-63979852D01*
X149399495Y-64027471D01*
X149447114Y-64122709D01*
X149447114Y-64360804D01*
X149399495Y-64456042D01*
X149351876Y-64503661D01*
X149256638Y-64551280D01*
X149018542Y-64551280D01*
X148923304Y-64503661D01*
X148875685Y-64456042D01*
X152784733Y-64551280D02*
X152451400Y-64075090D01*
X152213304Y-64551280D02*
X152213304Y-63551280D01*
X152594257Y-63551280D01*
X152689495Y-63598900D01*
X152737114Y-63646519D01*
X152784733Y-63741757D01*
X152784733Y-63884614D01*
X152737114Y-63979852D01*
X152689495Y-64027471D01*
X152594257Y-64075090D01*
X152213304Y-64075090D01*
X153641876Y-63551280D02*
X153451400Y-63551280D01*
X153356161Y-63598900D01*
X153308542Y-63646519D01*
X153213304Y-63789376D01*
X153165685Y-63979852D01*
X153165685Y-64360804D01*
X153213304Y-64456042D01*
X153260923Y-64503661D01*
X153356161Y-64551280D01*
X153546638Y-64551280D01*
X153641876Y-64503661D01*
X153689495Y-64456042D01*
X153737114Y-64360804D01*
X153737114Y-64122709D01*
X153689495Y-64027471D01*
X153641876Y-63979852D01*
X153546638Y-63932233D01*
X153356161Y-63932233D01*
X153260923Y-63979852D01*
X153213304Y-64027471D01*
X153165685Y-64122709D01*
X143922733Y-64551280D02*
X143589400Y-64075090D01*
X143351304Y-64551280D02*
X143351304Y-63551280D01*
X143732257Y-63551280D01*
X143827495Y-63598900D01*
X143875114Y-63646519D01*
X143922733Y-63741757D01*
X143922733Y-63884614D01*
X143875114Y-63979852D01*
X143827495Y-64027471D01*
X143732257Y-64075090D01*
X143351304Y-64075090D01*
X144398923Y-64551280D02*
X144589400Y-64551280D01*
X144684638Y-64503661D01*
X144732257Y-64456042D01*
X144827495Y-64313185D01*
X144875114Y-64122709D01*
X144875114Y-63741757D01*
X144827495Y-63646519D01*
X144779876Y-63598900D01*
X144684638Y-63551280D01*
X144494161Y-63551280D01*
X144398923Y-63598900D01*
X144351304Y-63646519D01*
X144303685Y-63741757D01*
X144303685Y-63979852D01*
X144351304Y-64075090D01*
X144398923Y-64122709D01*
X144494161Y-64170328D01*
X144684638Y-64170328D01*
X144779876Y-64122709D01*
X144827495Y-64075090D01*
X144875114Y-63979852D01*
X163156942Y-63227980D02*
X162823609Y-62751790D01*
X162585514Y-63227980D02*
X162585514Y-62227980D01*
X162966466Y-62227980D01*
X163061704Y-62275600D01*
X163109323Y-62323219D01*
X163156942Y-62418457D01*
X163156942Y-62561314D01*
X163109323Y-62656552D01*
X163061704Y-62704171D01*
X162966466Y-62751790D01*
X162585514Y-62751790D01*
X164109323Y-63227980D02*
X163537895Y-63227980D01*
X163823609Y-63227980D02*
X163823609Y-62227980D01*
X163728371Y-62370838D01*
X163633133Y-62466076D01*
X163537895Y-62513695D01*
X164966466Y-62561314D02*
X164966466Y-63227980D01*
X164728371Y-62180361D02*
X164490276Y-62894647D01*
X165109323Y-62894647D01*
X166497042Y-63215280D02*
X166163709Y-62739090D01*
X165925614Y-63215280D02*
X165925614Y-62215280D01*
X166306566Y-62215280D01*
X166401804Y-62262900D01*
X166449423Y-62310519D01*
X166497042Y-62405757D01*
X166497042Y-62548614D01*
X166449423Y-62643852D01*
X166401804Y-62691471D01*
X166306566Y-62739090D01*
X165925614Y-62739090D01*
X167449423Y-63215280D02*
X166877995Y-63215280D01*
X167163709Y-63215280D02*
X167163709Y-62215280D01*
X167068471Y-62358138D01*
X166973233Y-62453376D01*
X166877995Y-62500995D01*
X168354185Y-62215280D02*
X167877995Y-62215280D01*
X167830376Y-62691471D01*
X167877995Y-62643852D01*
X167973233Y-62596233D01*
X168211328Y-62596233D01*
X168306566Y-62643852D01*
X168354185Y-62691471D01*
X168401804Y-62786709D01*
X168401804Y-63024804D01*
X168354185Y-63120042D01*
X168306566Y-63167661D01*
X168211328Y-63215280D01*
X167973233Y-63215280D01*
X167877995Y-63167661D01*
X167830376Y-63120042D01*
X169926042Y-63215280D02*
X169592709Y-62739090D01*
X169354614Y-63215280D02*
X169354614Y-62215280D01*
X169735566Y-62215280D01*
X169830804Y-62262900D01*
X169878423Y-62310519D01*
X169926042Y-62405757D01*
X169926042Y-62548614D01*
X169878423Y-62643852D01*
X169830804Y-62691471D01*
X169735566Y-62739090D01*
X169354614Y-62739090D01*
X170878423Y-63215280D02*
X170306995Y-63215280D01*
X170592709Y-63215280D02*
X170592709Y-62215280D01*
X170497471Y-62358138D01*
X170402233Y-62453376D01*
X170306995Y-62500995D01*
X171735566Y-62215280D02*
X171545090Y-62215280D01*
X171449852Y-62262900D01*
X171402233Y-62310519D01*
X171306995Y-62453376D01*
X171259376Y-62643852D01*
X171259376Y-63024804D01*
X171306995Y-63120042D01*
X171354614Y-63167661D01*
X171449852Y-63215280D01*
X171640328Y-63215280D01*
X171735566Y-63167661D01*
X171783185Y-63120042D01*
X171830804Y-63024804D01*
X171830804Y-62786709D01*
X171783185Y-62691471D01*
X171735566Y-62643852D01*
X171640328Y-62596233D01*
X171449852Y-62596233D01*
X171354614Y-62643852D01*
X171306995Y-62691471D01*
X171259376Y-62786709D01*
X172256980Y-65253557D02*
X171780790Y-65586890D01*
X172256980Y-65824985D02*
X171256980Y-65824985D01*
X171256980Y-65444033D01*
X171304600Y-65348795D01*
X171352219Y-65301176D01*
X171447457Y-65253557D01*
X171590314Y-65253557D01*
X171685552Y-65301176D01*
X171733171Y-65348795D01*
X171780790Y-65444033D01*
X171780790Y-65824985D01*
X172256980Y-64301176D02*
X172256980Y-64872604D01*
X172256980Y-64586890D02*
X171256980Y-64586890D01*
X171399838Y-64682128D01*
X171495076Y-64777366D01*
X171542695Y-64872604D01*
X171256980Y-63967842D02*
X171256980Y-63301176D01*
X172256980Y-63729747D01*
X173730180Y-65253557D02*
X173253990Y-65586890D01*
X173730180Y-65824985D02*
X172730180Y-65824985D01*
X172730180Y-65444033D01*
X172777800Y-65348795D01*
X172825419Y-65301176D01*
X172920657Y-65253557D01*
X173063514Y-65253557D01*
X173158752Y-65301176D01*
X173206371Y-65348795D01*
X173253990Y-65444033D01*
X173253990Y-65824985D01*
X173730180Y-64301176D02*
X173730180Y-64872604D01*
X173730180Y-64586890D02*
X172730180Y-64586890D01*
X172873038Y-64682128D01*
X172968276Y-64777366D01*
X173015895Y-64872604D01*
X173158752Y-63729747D02*
X173111133Y-63824985D01*
X173063514Y-63872604D01*
X172968276Y-63920223D01*
X172920657Y-63920223D01*
X172825419Y-63872604D01*
X172777800Y-63824985D01*
X172730180Y-63729747D01*
X172730180Y-63539271D01*
X172777800Y-63444033D01*
X172825419Y-63396414D01*
X172920657Y-63348795D01*
X172968276Y-63348795D01*
X173063514Y-63396414D01*
X173111133Y-63444033D01*
X173158752Y-63539271D01*
X173158752Y-63729747D01*
X173206371Y-63824985D01*
X173253990Y-63872604D01*
X173349228Y-63920223D01*
X173539704Y-63920223D01*
X173634942Y-63872604D01*
X173682561Y-63824985D01*
X173730180Y-63729747D01*
X173730180Y-63539271D01*
X173682561Y-63444033D01*
X173634942Y-63396414D01*
X173539704Y-63348795D01*
X173349228Y-63348795D01*
X173253990Y-63396414D01*
X173206371Y-63444033D01*
X173158752Y-63539271D01*
X175203380Y-65253557D02*
X174727190Y-65586890D01*
X175203380Y-65824985D02*
X174203380Y-65824985D01*
X174203380Y-65444033D01*
X174251000Y-65348795D01*
X174298619Y-65301176D01*
X174393857Y-65253557D01*
X174536714Y-65253557D01*
X174631952Y-65301176D01*
X174679571Y-65348795D01*
X174727190Y-65444033D01*
X174727190Y-65824985D01*
X175203380Y-64301176D02*
X175203380Y-64872604D01*
X175203380Y-64586890D02*
X174203380Y-64586890D01*
X174346238Y-64682128D01*
X174441476Y-64777366D01*
X174489095Y-64872604D01*
X175203380Y-63824985D02*
X175203380Y-63634509D01*
X175155761Y-63539271D01*
X175108142Y-63491652D01*
X174965285Y-63396414D01*
X174774809Y-63348795D01*
X174393857Y-63348795D01*
X174298619Y-63396414D01*
X174251000Y-63444033D01*
X174203380Y-63539271D01*
X174203380Y-63729747D01*
X174251000Y-63824985D01*
X174298619Y-63872604D01*
X174393857Y-63920223D01*
X174631952Y-63920223D01*
X174727190Y-63872604D01*
X174774809Y-63824985D01*
X174822428Y-63729747D01*
X174822428Y-63539271D01*
X174774809Y-63444033D01*
X174727190Y-63396414D01*
X174631952Y-63348795D01*
X176727380Y-65253557D02*
X176251190Y-65586890D01*
X176727380Y-65824985D02*
X175727380Y-65824985D01*
X175727380Y-65444033D01*
X175775000Y-65348795D01*
X175822619Y-65301176D01*
X175917857Y-65253557D01*
X176060714Y-65253557D01*
X176155952Y-65301176D01*
X176203571Y-65348795D01*
X176251190Y-65444033D01*
X176251190Y-65824985D01*
X175822619Y-64872604D02*
X175775000Y-64824985D01*
X175727380Y-64729747D01*
X175727380Y-64491652D01*
X175775000Y-64396414D01*
X175822619Y-64348795D01*
X175917857Y-64301176D01*
X176013095Y-64301176D01*
X176155952Y-64348795D01*
X176727380Y-64920223D01*
X176727380Y-64301176D01*
X175727380Y-63682128D02*
X175727380Y-63586890D01*
X175775000Y-63491652D01*
X175822619Y-63444033D01*
X175917857Y-63396414D01*
X176108333Y-63348795D01*
X176346428Y-63348795D01*
X176536904Y-63396414D01*
X176632142Y-63444033D01*
X176679761Y-63491652D01*
X176727380Y-63586890D01*
X176727380Y-63682128D01*
X176679761Y-63777366D01*
X176632142Y-63824985D01*
X176536904Y-63872604D01*
X176346428Y-63920223D01*
X176108333Y-63920223D01*
X175917857Y-63872604D01*
X175822619Y-63824985D01*
X175775000Y-63777366D01*
X175727380Y-63682128D01*
X176423595Y-78838480D02*
X176423595Y-79648004D01*
X176471214Y-79743242D01*
X176518833Y-79790861D01*
X176614071Y-79838480D01*
X176804547Y-79838480D01*
X176899785Y-79790861D01*
X176947404Y-79743242D01*
X176995023Y-79648004D01*
X176995023Y-78838480D01*
X177995023Y-79838480D02*
X177423595Y-79838480D01*
X177709309Y-79838480D02*
X177709309Y-78838480D01*
X177614071Y-78981338D01*
X177518833Y-79076576D01*
X177423595Y-79124195D01*
X126741340Y-76103264D02*
X127550864Y-76103264D01*
X127646102Y-76055645D01*
X127693721Y-76008026D01*
X127741340Y-75912788D01*
X127741340Y-75722312D01*
X127693721Y-75627074D01*
X127646102Y-75579455D01*
X127550864Y-75531836D01*
X126741340Y-75531836D01*
X126836579Y-75103264D02*
X126788960Y-75055645D01*
X126741340Y-74960407D01*
X126741340Y-74722312D01*
X126788960Y-74627074D01*
X126836579Y-74579455D01*
X126931817Y-74531836D01*
X127027055Y-74531836D01*
X127169912Y-74579455D01*
X127741340Y-75150883D01*
X127741340Y-74531836D01*
X118456900Y-69912064D02*
X119266424Y-69912064D01*
X119361662Y-69864445D01*
X119409281Y-69816826D01*
X119456900Y-69721588D01*
X119456900Y-69531112D01*
X119409281Y-69435874D01*
X119361662Y-69388255D01*
X119266424Y-69340636D01*
X118456900Y-69340636D01*
X118456900Y-68959683D02*
X118456900Y-68340636D01*
X118837853Y-68673969D01*
X118837853Y-68531112D01*
X118885472Y-68435874D01*
X118933091Y-68388255D01*
X119028329Y-68340636D01*
X119266424Y-68340636D01*
X119361662Y-68388255D01*
X119409281Y-68435874D01*
X119456900Y-68531112D01*
X119456900Y-68816826D01*
X119409281Y-68912064D01*
X119361662Y-68959683D01*
X166682695Y-77581180D02*
X166682695Y-78390704D01*
X166730314Y-78485942D01*
X166777933Y-78533561D01*
X166873171Y-78581180D01*
X167063647Y-78581180D01*
X167158885Y-78533561D01*
X167206504Y-78485942D01*
X167254123Y-78390704D01*
X167254123Y-77581180D01*
X168158885Y-77914514D02*
X168158885Y-78581180D01*
X167920790Y-77533561D02*
X167682695Y-78247847D01*
X168301742Y-78247847D01*
X149372280Y-73063304D02*
X150181804Y-73063304D01*
X150277042Y-73015685D01*
X150324661Y-72968066D01*
X150372280Y-72872828D01*
X150372280Y-72682352D01*
X150324661Y-72587114D01*
X150277042Y-72539495D01*
X150181804Y-72491876D01*
X149372280Y-72491876D01*
X149372280Y-71539495D02*
X149372280Y-72015685D01*
X149848471Y-72063304D01*
X149800852Y-72015685D01*
X149753233Y-71920447D01*
X149753233Y-71682352D01*
X149800852Y-71587114D01*
X149848471Y-71539495D01*
X149943709Y-71491876D01*
X150181804Y-71491876D01*
X150277042Y-71539495D01*
X150324661Y-71587114D01*
X150372280Y-71682352D01*
X150372280Y-71920447D01*
X150324661Y-72015685D01*
X150277042Y-72063304D01*
X181732680Y-74935204D02*
X182542204Y-74935204D01*
X182637442Y-74887585D01*
X182685061Y-74839966D01*
X182732680Y-74744728D01*
X182732680Y-74554252D01*
X182685061Y-74459014D01*
X182637442Y-74411395D01*
X182542204Y-74363776D01*
X181732680Y-74363776D01*
X181732680Y-73459014D02*
X181732680Y-73649490D01*
X181780300Y-73744728D01*
X181827919Y-73792347D01*
X181970776Y-73887585D01*
X182161252Y-73935204D01*
X182542204Y-73935204D01*
X182637442Y-73887585D01*
X182685061Y-73839966D01*
X182732680Y-73744728D01*
X182732680Y-73554252D01*
X182685061Y-73459014D01*
X182637442Y-73411395D01*
X182542204Y-73363776D01*
X182304109Y-73363776D01*
X182208871Y-73411395D01*
X182161252Y-73459014D01*
X182113633Y-73554252D01*
X182113633Y-73744728D01*
X182161252Y-73839966D01*
X182208871Y-73887585D01*
X182304109Y-73935204D01*
M02*
