G04 #@! TF.GenerationSoftware,KiCad,Pcbnew,(5.1.0)-1*
G04 #@! TF.CreationDate,2020-03-21T07:41:18+08:00*
G04 #@! TF.ProjectId,driver,64726976-6572-42e6-9b69-6361645f7063,rev?*
G04 #@! TF.SameCoordinates,PX510ff40PY3473bc0*
G04 #@! TF.FileFunction,Legend,Top*
G04 #@! TF.FilePolarity,Positive*
%FSLAX46Y46*%
G04 Gerber Fmt 4.6, Leading zero omitted, Abs format (unit mm)*
G04 Created by KiCad (PCBNEW (5.1.0)-1) date 2020-03-21 07:41:18*
%MOMM*%
%LPD*%
G04 APERTURE LIST*
%ADD10C,0.150000*%
%ADD11C,0.120000*%
G04 APERTURE END LIST*
D10*
X63952380Y-58752380D02*
X63380952Y-58752380D01*
X63666666Y-58752380D02*
X63666666Y-57752380D01*
X63571428Y-57895238D01*
X63476190Y-57990476D01*
X63380952Y-58038095D01*
X64285714Y-57752380D02*
X64904761Y-57752380D01*
X64571428Y-58133333D01*
X64714285Y-58133333D01*
X64809523Y-58180952D01*
X64857142Y-58228571D01*
X64904761Y-58323809D01*
X64904761Y-58561904D01*
X64857142Y-58657142D01*
X64809523Y-58704761D01*
X64714285Y-58752380D01*
X64428571Y-58752380D01*
X64333333Y-58704761D01*
X64285714Y-58657142D01*
X65761904Y-57752380D02*
X65571428Y-57752380D01*
X65476190Y-57800000D01*
X65428571Y-57847619D01*
X65333333Y-57990476D01*
X65285714Y-58180952D01*
X65285714Y-58561904D01*
X65333333Y-58657142D01*
X65380952Y-58704761D01*
X65476190Y-58752380D01*
X65666666Y-58752380D01*
X65761904Y-58704761D01*
X65809523Y-58657142D01*
X65857142Y-58561904D01*
X65857142Y-58323809D01*
X65809523Y-58228571D01*
X65761904Y-58180952D01*
X65666666Y-58133333D01*
X65476190Y-58133333D01*
X65380952Y-58180952D01*
X65333333Y-58228571D01*
X65285714Y-58323809D01*
X66285714Y-58657142D02*
X66333333Y-58704761D01*
X66285714Y-58752380D01*
X66238095Y-58704761D01*
X66285714Y-58657142D01*
X66285714Y-58752380D01*
X66952380Y-57752380D02*
X67047619Y-57752380D01*
X67142857Y-57800000D01*
X67190476Y-57847619D01*
X67238095Y-57942857D01*
X67285714Y-58133333D01*
X67285714Y-58371428D01*
X67238095Y-58561904D01*
X67190476Y-58657142D01*
X67142857Y-58704761D01*
X67047619Y-58752380D01*
X66952380Y-58752380D01*
X66857142Y-58704761D01*
X66809523Y-58657142D01*
X66761904Y-58561904D01*
X66714285Y-58371428D01*
X66714285Y-58133333D01*
X66761904Y-57942857D01*
X66809523Y-57847619D01*
X66857142Y-57800000D01*
X66952380Y-57752380D01*
X67904761Y-57752380D02*
X68000000Y-57752380D01*
X68095238Y-57800000D01*
X68142857Y-57847619D01*
X68190476Y-57942857D01*
X68238095Y-58133333D01*
X68238095Y-58371428D01*
X68190476Y-58561904D01*
X68142857Y-58657142D01*
X68095238Y-58704761D01*
X68000000Y-58752380D01*
X67904761Y-58752380D01*
X67809523Y-58704761D01*
X67761904Y-58657142D01*
X67714285Y-58561904D01*
X67666666Y-58371428D01*
X67666666Y-58133333D01*
X67714285Y-57942857D01*
X67761904Y-57847619D01*
X67809523Y-57800000D01*
X67904761Y-57752380D01*
X68857142Y-57752380D02*
X68952380Y-57752380D01*
X69047619Y-57800000D01*
X69095238Y-57847619D01*
X69142857Y-57942857D01*
X69190476Y-58133333D01*
X69190476Y-58371428D01*
X69142857Y-58561904D01*
X69095238Y-58657142D01*
X69047619Y-58704761D01*
X68952380Y-58752380D01*
X68857142Y-58752380D01*
X68761904Y-58704761D01*
X68714285Y-58657142D01*
X68666666Y-58561904D01*
X68619047Y-58371428D01*
X68619047Y-58133333D01*
X68666666Y-57942857D01*
X68714285Y-57847619D01*
X68761904Y-57800000D01*
X68857142Y-57752380D01*
X70380952Y-58752380D02*
X70380952Y-58085714D01*
X70380952Y-58180952D02*
X70428571Y-58133333D01*
X70523809Y-58085714D01*
X70666666Y-58085714D01*
X70761904Y-58133333D01*
X70809523Y-58228571D01*
X70809523Y-58752380D01*
X70809523Y-58228571D02*
X70857142Y-58133333D01*
X70952380Y-58085714D01*
X71095238Y-58085714D01*
X71190476Y-58133333D01*
X71238095Y-58228571D01*
X71238095Y-58752380D01*
X71714285Y-58752380D02*
X71714285Y-58085714D01*
X71714285Y-58180952D02*
X71761904Y-58133333D01*
X71857142Y-58085714D01*
X72000000Y-58085714D01*
X72095238Y-58133333D01*
X72142857Y-58228571D01*
X72142857Y-58752380D01*
X72142857Y-58228571D02*
X72190476Y-58133333D01*
X72285714Y-58085714D01*
X72428571Y-58085714D01*
X72523809Y-58133333D01*
X72571428Y-58228571D01*
X72571428Y-58752380D01*
X0Y-57000000D02*
X136000000Y-57000000D01*
X0Y-52000000D02*
X0Y-57586421D01*
X136000000Y-52000000D02*
X136000000Y-57586421D01*
X136000000Y-57000000D02*
X134873496Y-57586421D01*
X136000000Y-57000000D02*
X134873496Y-56413579D01*
X0Y-57000000D02*
X1126504Y-57586421D01*
X0Y-57000000D02*
X1126504Y-56413579D01*
D11*
X131104933Y-19050100D02*
X131447467Y-19050100D01*
X131104933Y-18030100D02*
X131447467Y-18030100D01*
X109426033Y-43700800D02*
X109768567Y-43700800D01*
X109426033Y-42680800D02*
X109768567Y-42680800D01*
X130927133Y-43700800D02*
X131269667Y-43700800D01*
X130927133Y-42680800D02*
X131269667Y-42680800D01*
X88013833Y-43700800D02*
X88356367Y-43700800D01*
X88013833Y-42680800D02*
X88356367Y-42680800D01*
X66614333Y-43700800D02*
X66956867Y-43700800D01*
X66614333Y-42680800D02*
X66956867Y-42680800D01*
X40070033Y-36817400D02*
X40412567Y-36817400D01*
X40070033Y-35797400D02*
X40412567Y-35797400D01*
X44529033Y-30721400D02*
X44871567Y-30721400D01*
X44529033Y-29701400D02*
X44871567Y-29701400D01*
X28867333Y-36880900D02*
X29209867Y-36880900D01*
X28867333Y-35860900D02*
X29209867Y-35860900D01*
X33467333Y-30784900D02*
X33809867Y-30784900D01*
X33467333Y-29764900D02*
X33809867Y-29764900D01*
X17946633Y-36880900D02*
X18289167Y-36880900D01*
X17946633Y-35860900D02*
X18289167Y-35860900D01*
X22377633Y-30784900D02*
X22720167Y-30784900D01*
X22377633Y-29764900D02*
X22720167Y-29764900D01*
X31319480Y-22064092D02*
X31319480Y-21541588D01*
X32739480Y-22064092D02*
X32739480Y-21541588D01*
X85980533Y-23173600D02*
X86323067Y-23173600D01*
X85980533Y-24193600D02*
X86323067Y-24193600D01*
X26937148Y-3946600D02*
X27459652Y-3946600D01*
X26937148Y-2526600D02*
X27459652Y-2526600D01*
X31209852Y-8239200D02*
X30687348Y-8239200D01*
X31209852Y-6819200D02*
X30687348Y-6819200D01*
X37413600Y-13644004D02*
X37413600Y-12439876D01*
X39233600Y-13644004D02*
X39233600Y-12439876D01*
X81993667Y-23173600D02*
X81651133Y-23173600D01*
X81993667Y-24193600D02*
X81651133Y-24193600D01*
X68871267Y-25210000D02*
X68528733Y-25210000D01*
X68871267Y-24190000D02*
X68528733Y-24190000D01*
X113274133Y-10270400D02*
X113616667Y-10270400D01*
X113274133Y-11290400D02*
X113616667Y-11290400D01*
X35853520Y-10890412D02*
X35853520Y-10367908D01*
X34433520Y-10890412D02*
X34433520Y-10367908D01*
X98430700Y-11077733D02*
X98430700Y-11420267D01*
X99450700Y-11077733D02*
X99450700Y-11420267D01*
X63626400Y-4751464D02*
X63626400Y-3547336D01*
X65446400Y-4751464D02*
X65446400Y-3547336D01*
X69510400Y-4714964D02*
X69510400Y-3510836D01*
X67690400Y-4714964D02*
X67690400Y-3510836D01*
X61382400Y-4678464D02*
X61382400Y-3474336D01*
X59562400Y-4678464D02*
X59562400Y-3474336D01*
X14099700Y-12341500D02*
X14099700Y-9041500D01*
X14099700Y-9041500D02*
X7199700Y-9041500D01*
X14099700Y-12341500D02*
X7199700Y-12341500D01*
X27166920Y-8548920D02*
X23866920Y-8548920D01*
X23866920Y-8548920D02*
X23866920Y-15448920D01*
X27166920Y-8548920D02*
X27166920Y-15448920D01*
X14669760Y-16704680D02*
X21569760Y-16704680D01*
X14669760Y-20004680D02*
X21569760Y-20004680D01*
X14669760Y-16704680D02*
X14669760Y-20004680D01*
X90098600Y-7250100D02*
X90098600Y-6660100D01*
X90098600Y-6660100D02*
X92078600Y-6660100D01*
X92078600Y-6660100D02*
X92078600Y-7010100D01*
X92078600Y-7010100D02*
X92848600Y-7010100D01*
X92848600Y-7010100D02*
X92848600Y-4960100D01*
X92848600Y-3140100D02*
X92848600Y-2840100D01*
X92848600Y-2840100D02*
X92048600Y-2840100D01*
X92048600Y-2840100D02*
X92048600Y-1540100D01*
X92048600Y-1540100D02*
X72228600Y-1540100D01*
X72228600Y-1540100D02*
X72228600Y-2840100D01*
X72228600Y-2840100D02*
X71428600Y-2840100D01*
X71428600Y-2840100D02*
X71428600Y-3140100D01*
X71428600Y-4960100D02*
X71428600Y-7010100D01*
X71428600Y-7010100D02*
X72198600Y-7010100D01*
X72198600Y-7010100D02*
X72198600Y-6660100D01*
X72198600Y-6660100D02*
X74178600Y-6660100D01*
X113223333Y-8378100D02*
X113565867Y-8378100D01*
X113223333Y-9398100D02*
X113565867Y-9398100D01*
X131622667Y-13576400D02*
X131280133Y-13576400D01*
X131622667Y-12556400D02*
X131280133Y-12556400D01*
X24275400Y-22218233D02*
X24275400Y-22560767D01*
X25295400Y-22218233D02*
X25295400Y-22560767D01*
X13734400Y-25050333D02*
X13734400Y-25392867D01*
X14754400Y-25050333D02*
X14754400Y-25392867D01*
X63832667Y-8178900D02*
X63490133Y-8178900D01*
X63832667Y-7158900D02*
X63490133Y-7158900D01*
X68122667Y-7158900D02*
X67780133Y-7158900D01*
X68122667Y-8178900D02*
X67780133Y-8178900D01*
X59260667Y-7158900D02*
X58918133Y-7158900D01*
X59260667Y-8178900D02*
X58918133Y-8178900D01*
X78628533Y-8695600D02*
X78971067Y-8695600D01*
X78628533Y-9715600D02*
X78971067Y-9715600D01*
X81968633Y-9702900D02*
X82311167Y-9702900D01*
X81968633Y-8682900D02*
X82311167Y-8682900D01*
X85397633Y-8682900D02*
X85740167Y-8682900D01*
X85397633Y-9702900D02*
X85740167Y-9702900D01*
X88744600Y-9781967D02*
X88744600Y-9439433D01*
X87724600Y-9781967D02*
X87724600Y-9439433D01*
X90217800Y-9781967D02*
X90217800Y-9439433D01*
X89197800Y-9781967D02*
X89197800Y-9439433D01*
X90671000Y-9781967D02*
X90671000Y-9439433D01*
X91691000Y-9781967D02*
X91691000Y-9439433D01*
X93215000Y-9781967D02*
X93215000Y-9439433D01*
X92195000Y-9781967D02*
X92195000Y-9439433D01*
X92185500Y-13026100D02*
X89800500Y-13026100D01*
X89800500Y-13026100D02*
X89800500Y-13281100D01*
X92185500Y-13026100D02*
X94570500Y-13026100D01*
X94570500Y-13026100D02*
X94570500Y-13281100D01*
X92185500Y-23546100D02*
X89800500Y-23546100D01*
X89800500Y-23546100D02*
X89800500Y-23291100D01*
X92185500Y-23546100D02*
X94570500Y-23546100D01*
X94570500Y-23546100D02*
X94570500Y-23291100D01*
X94570500Y-23291100D02*
X96235500Y-23291100D01*
X34378960Y-22251360D02*
X35638960Y-22251360D01*
X41198960Y-22251360D02*
X39938960Y-22251360D01*
X34378960Y-18491360D02*
X34378960Y-22251360D01*
X41198960Y-16241360D02*
X41198960Y-22251360D01*
X27719520Y-14150160D02*
X27719520Y-16900160D01*
X27719520Y-16900160D02*
X27979520Y-16900160D01*
X27719520Y-14150160D02*
X27719520Y-11400160D01*
X27719520Y-11400160D02*
X27979520Y-11400160D01*
X33169520Y-14150160D02*
X33169520Y-16900160D01*
X33169520Y-16900160D02*
X32909520Y-16900160D01*
X33169520Y-14150160D02*
X33169520Y-11400160D01*
X33169520Y-11400160D02*
X32909520Y-11400160D01*
X32909520Y-11400160D02*
X32909520Y-9750160D01*
X84829600Y-22033800D02*
X86494600Y-22033800D01*
X84829600Y-22288800D02*
X84829600Y-22033800D01*
X82444600Y-22288800D02*
X84829600Y-22288800D01*
X80059600Y-22288800D02*
X80059600Y-22033800D01*
X82444600Y-22288800D02*
X80059600Y-22288800D01*
X84829600Y-11768800D02*
X84829600Y-12023800D01*
X82444600Y-11768800D02*
X84829600Y-11768800D01*
X80059600Y-11768800D02*
X80059600Y-12023800D01*
X82444600Y-11768800D02*
X80059600Y-11768800D01*
D10*
X65844900Y-20176400D02*
X66419900Y-20176400D01*
X65844900Y-14426400D02*
X66494900Y-14426400D01*
X76494900Y-14426400D02*
X75844900Y-14426400D01*
X76494900Y-20176400D02*
X75844900Y-20176400D01*
X65844900Y-20176400D02*
X65844900Y-14426400D01*
X76494900Y-20176400D02*
X76494900Y-14426400D01*
X66419900Y-20176400D02*
X66419900Y-21776400D01*
D11*
X111140300Y-19173300D02*
X111140300Y-15313300D01*
X111140300Y-15313300D02*
X110905300Y-15313300D01*
X111140300Y-19173300D02*
X111140300Y-23033300D01*
X111140300Y-23033300D02*
X110905300Y-23033300D01*
X98120300Y-19173300D02*
X98120300Y-15313300D01*
X98120300Y-15313300D02*
X98355300Y-15313300D01*
X98120300Y-19173300D02*
X98120300Y-23033300D01*
X98120300Y-23033300D02*
X98355300Y-23033300D01*
X98355300Y-23033300D02*
X98355300Y-24848300D01*
D10*
X130633342Y-17467242D02*
X130585723Y-17514861D01*
X130442866Y-17562480D01*
X130347628Y-17562480D01*
X130204771Y-17514861D01*
X130109533Y-17419623D01*
X130061914Y-17324385D01*
X130014295Y-17133909D01*
X130014295Y-16991052D01*
X130061914Y-16800576D01*
X130109533Y-16705338D01*
X130204771Y-16610100D01*
X130347628Y-16562480D01*
X130442866Y-16562480D01*
X130585723Y-16610100D01*
X130633342Y-16657719D01*
X131014295Y-16657719D02*
X131061914Y-16610100D01*
X131157152Y-16562480D01*
X131395247Y-16562480D01*
X131490485Y-16610100D01*
X131538104Y-16657719D01*
X131585723Y-16752957D01*
X131585723Y-16848195D01*
X131538104Y-16991052D01*
X130966676Y-17562480D01*
X131585723Y-17562480D01*
X132490485Y-16562480D02*
X132014295Y-16562480D01*
X131966676Y-17038671D01*
X132014295Y-16991052D01*
X132109533Y-16943433D01*
X132347628Y-16943433D01*
X132442866Y-16991052D01*
X132490485Y-17038671D01*
X132538104Y-17133909D01*
X132538104Y-17372004D01*
X132490485Y-17467242D01*
X132442866Y-17514861D01*
X132347628Y-17562480D01*
X132109533Y-17562480D01*
X132014295Y-17514861D01*
X131966676Y-17467242D01*
X108954442Y-42117942D02*
X108906823Y-42165561D01*
X108763966Y-42213180D01*
X108668728Y-42213180D01*
X108525871Y-42165561D01*
X108430633Y-42070323D01*
X108383014Y-41975085D01*
X108335395Y-41784609D01*
X108335395Y-41641752D01*
X108383014Y-41451276D01*
X108430633Y-41356038D01*
X108525871Y-41260800D01*
X108668728Y-41213180D01*
X108763966Y-41213180D01*
X108906823Y-41260800D01*
X108954442Y-41308419D01*
X109335395Y-41308419D02*
X109383014Y-41260800D01*
X109478252Y-41213180D01*
X109716347Y-41213180D01*
X109811585Y-41260800D01*
X109859204Y-41308419D01*
X109906823Y-41403657D01*
X109906823Y-41498895D01*
X109859204Y-41641752D01*
X109287776Y-42213180D01*
X109906823Y-42213180D01*
X110763966Y-41546514D02*
X110763966Y-42213180D01*
X110525871Y-41165561D02*
X110287776Y-41879847D01*
X110906823Y-41879847D01*
X130455542Y-42117942D02*
X130407923Y-42165561D01*
X130265066Y-42213180D01*
X130169828Y-42213180D01*
X130026971Y-42165561D01*
X129931733Y-42070323D01*
X129884114Y-41975085D01*
X129836495Y-41784609D01*
X129836495Y-41641752D01*
X129884114Y-41451276D01*
X129931733Y-41356038D01*
X130026971Y-41260800D01*
X130169828Y-41213180D01*
X130265066Y-41213180D01*
X130407923Y-41260800D01*
X130455542Y-41308419D01*
X130836495Y-41308419D02*
X130884114Y-41260800D01*
X130979352Y-41213180D01*
X131217447Y-41213180D01*
X131312685Y-41260800D01*
X131360304Y-41308419D01*
X131407923Y-41403657D01*
X131407923Y-41498895D01*
X131360304Y-41641752D01*
X130788876Y-42213180D01*
X131407923Y-42213180D01*
X131741257Y-41213180D02*
X132360304Y-41213180D01*
X132026971Y-41594133D01*
X132169828Y-41594133D01*
X132265066Y-41641752D01*
X132312685Y-41689371D01*
X132360304Y-41784609D01*
X132360304Y-42022704D01*
X132312685Y-42117942D01*
X132265066Y-42165561D01*
X132169828Y-42213180D01*
X131884114Y-42213180D01*
X131788876Y-42165561D01*
X131741257Y-42117942D01*
X87542242Y-42117942D02*
X87494623Y-42165561D01*
X87351766Y-42213180D01*
X87256528Y-42213180D01*
X87113671Y-42165561D01*
X87018433Y-42070323D01*
X86970814Y-41975085D01*
X86923195Y-41784609D01*
X86923195Y-41641752D01*
X86970814Y-41451276D01*
X87018433Y-41356038D01*
X87113671Y-41260800D01*
X87256528Y-41213180D01*
X87351766Y-41213180D01*
X87494623Y-41260800D01*
X87542242Y-41308419D01*
X87923195Y-41308419D02*
X87970814Y-41260800D01*
X88066052Y-41213180D01*
X88304147Y-41213180D01*
X88399385Y-41260800D01*
X88447004Y-41308419D01*
X88494623Y-41403657D01*
X88494623Y-41498895D01*
X88447004Y-41641752D01*
X87875576Y-42213180D01*
X88494623Y-42213180D01*
X88875576Y-41308419D02*
X88923195Y-41260800D01*
X89018433Y-41213180D01*
X89256528Y-41213180D01*
X89351766Y-41260800D01*
X89399385Y-41308419D01*
X89447004Y-41403657D01*
X89447004Y-41498895D01*
X89399385Y-41641752D01*
X88827957Y-42213180D01*
X89447004Y-42213180D01*
X66142742Y-42117942D02*
X66095123Y-42165561D01*
X65952266Y-42213180D01*
X65857028Y-42213180D01*
X65714171Y-42165561D01*
X65618933Y-42070323D01*
X65571314Y-41975085D01*
X65523695Y-41784609D01*
X65523695Y-41641752D01*
X65571314Y-41451276D01*
X65618933Y-41356038D01*
X65714171Y-41260800D01*
X65857028Y-41213180D01*
X65952266Y-41213180D01*
X66095123Y-41260800D01*
X66142742Y-41308419D01*
X66523695Y-41308419D02*
X66571314Y-41260800D01*
X66666552Y-41213180D01*
X66904647Y-41213180D01*
X66999885Y-41260800D01*
X67047504Y-41308419D01*
X67095123Y-41403657D01*
X67095123Y-41498895D01*
X67047504Y-41641752D01*
X66476076Y-42213180D01*
X67095123Y-42213180D01*
X68047504Y-42213180D02*
X67476076Y-42213180D01*
X67761790Y-42213180D02*
X67761790Y-41213180D01*
X67666552Y-41356038D01*
X67571314Y-41451276D01*
X67476076Y-41498895D01*
X39598442Y-35329780D02*
X39265109Y-34853590D01*
X39027014Y-35329780D02*
X39027014Y-34329780D01*
X39407966Y-34329780D01*
X39503204Y-34377400D01*
X39550823Y-34425019D01*
X39598442Y-34520257D01*
X39598442Y-34663114D01*
X39550823Y-34758352D01*
X39503204Y-34805971D01*
X39407966Y-34853590D01*
X39027014Y-34853590D01*
X40550823Y-35329780D02*
X39979395Y-35329780D01*
X40265109Y-35329780D02*
X40265109Y-34329780D01*
X40169871Y-34472638D01*
X40074633Y-34567876D01*
X39979395Y-34615495D01*
X40884157Y-34329780D02*
X41503204Y-34329780D01*
X41169871Y-34710733D01*
X41312728Y-34710733D01*
X41407966Y-34758352D01*
X41455585Y-34805971D01*
X41503204Y-34901209D01*
X41503204Y-35139304D01*
X41455585Y-35234542D01*
X41407966Y-35282161D01*
X41312728Y-35329780D01*
X41027014Y-35329780D01*
X40931776Y-35282161D01*
X40884157Y-35234542D01*
X44057442Y-29233780D02*
X43724109Y-28757590D01*
X43486014Y-29233780D02*
X43486014Y-28233780D01*
X43866966Y-28233780D01*
X43962204Y-28281400D01*
X44009823Y-28329019D01*
X44057442Y-28424257D01*
X44057442Y-28567114D01*
X44009823Y-28662352D01*
X43962204Y-28709971D01*
X43866966Y-28757590D01*
X43486014Y-28757590D01*
X45009823Y-29233780D02*
X44438395Y-29233780D01*
X44724109Y-29233780D02*
X44724109Y-28233780D01*
X44628871Y-28376638D01*
X44533633Y-28471876D01*
X44438395Y-28519495D01*
X45390776Y-28329019D02*
X45438395Y-28281400D01*
X45533633Y-28233780D01*
X45771728Y-28233780D01*
X45866966Y-28281400D01*
X45914585Y-28329019D01*
X45962204Y-28424257D01*
X45962204Y-28519495D01*
X45914585Y-28662352D01*
X45343157Y-29233780D01*
X45962204Y-29233780D01*
X28395742Y-35393280D02*
X28062409Y-34917090D01*
X27824314Y-35393280D02*
X27824314Y-34393280D01*
X28205266Y-34393280D01*
X28300504Y-34440900D01*
X28348123Y-34488519D01*
X28395742Y-34583757D01*
X28395742Y-34726614D01*
X28348123Y-34821852D01*
X28300504Y-34869471D01*
X28205266Y-34917090D01*
X27824314Y-34917090D01*
X29348123Y-35393280D02*
X28776695Y-35393280D01*
X29062409Y-35393280D02*
X29062409Y-34393280D01*
X28967171Y-34536138D01*
X28871933Y-34631376D01*
X28776695Y-34678995D01*
X30300504Y-35393280D02*
X29729076Y-35393280D01*
X30014790Y-35393280D02*
X30014790Y-34393280D01*
X29919552Y-34536138D01*
X29824314Y-34631376D01*
X29729076Y-34678995D01*
X32995742Y-29297280D02*
X32662409Y-28821090D01*
X32424314Y-29297280D02*
X32424314Y-28297280D01*
X32805266Y-28297280D01*
X32900504Y-28344900D01*
X32948123Y-28392519D01*
X32995742Y-28487757D01*
X32995742Y-28630614D01*
X32948123Y-28725852D01*
X32900504Y-28773471D01*
X32805266Y-28821090D01*
X32424314Y-28821090D01*
X33948123Y-29297280D02*
X33376695Y-29297280D01*
X33662409Y-29297280D02*
X33662409Y-28297280D01*
X33567171Y-28440138D01*
X33471933Y-28535376D01*
X33376695Y-28582995D01*
X34567171Y-28297280D02*
X34662409Y-28297280D01*
X34757647Y-28344900D01*
X34805266Y-28392519D01*
X34852885Y-28487757D01*
X34900504Y-28678233D01*
X34900504Y-28916328D01*
X34852885Y-29106804D01*
X34805266Y-29202042D01*
X34757647Y-29249661D01*
X34662409Y-29297280D01*
X34567171Y-29297280D01*
X34471933Y-29249661D01*
X34424314Y-29202042D01*
X34376695Y-29106804D01*
X34329076Y-28916328D01*
X34329076Y-28678233D01*
X34376695Y-28487757D01*
X34424314Y-28392519D01*
X34471933Y-28344900D01*
X34567171Y-28297280D01*
X17951233Y-35393280D02*
X17617900Y-34917090D01*
X17379804Y-35393280D02*
X17379804Y-34393280D01*
X17760757Y-34393280D01*
X17855995Y-34440900D01*
X17903614Y-34488519D01*
X17951233Y-34583757D01*
X17951233Y-34726614D01*
X17903614Y-34821852D01*
X17855995Y-34869471D01*
X17760757Y-34917090D01*
X17379804Y-34917090D01*
X18522661Y-34821852D02*
X18427423Y-34774233D01*
X18379804Y-34726614D01*
X18332185Y-34631376D01*
X18332185Y-34583757D01*
X18379804Y-34488519D01*
X18427423Y-34440900D01*
X18522661Y-34393280D01*
X18713138Y-34393280D01*
X18808376Y-34440900D01*
X18855995Y-34488519D01*
X18903614Y-34583757D01*
X18903614Y-34631376D01*
X18855995Y-34726614D01*
X18808376Y-34774233D01*
X18713138Y-34821852D01*
X18522661Y-34821852D01*
X18427423Y-34869471D01*
X18379804Y-34917090D01*
X18332185Y-35012328D01*
X18332185Y-35202804D01*
X18379804Y-35298042D01*
X18427423Y-35345661D01*
X18522661Y-35393280D01*
X18713138Y-35393280D01*
X18808376Y-35345661D01*
X18855995Y-35298042D01*
X18903614Y-35202804D01*
X18903614Y-35012328D01*
X18855995Y-34917090D01*
X18808376Y-34869471D01*
X18713138Y-34821852D01*
X22382233Y-29297280D02*
X22048900Y-28821090D01*
X21810804Y-29297280D02*
X21810804Y-28297280D01*
X22191757Y-28297280D01*
X22286995Y-28344900D01*
X22334614Y-28392519D01*
X22382233Y-28487757D01*
X22382233Y-28630614D01*
X22334614Y-28725852D01*
X22286995Y-28773471D01*
X22191757Y-28821090D01*
X21810804Y-28821090D01*
X22715566Y-28297280D02*
X23382233Y-28297280D01*
X22953661Y-29297280D01*
X30736622Y-21969506D02*
X30784241Y-22017125D01*
X30831860Y-22159982D01*
X30831860Y-22255220D01*
X30784241Y-22398078D01*
X30689003Y-22493316D01*
X30593765Y-22540935D01*
X30403289Y-22588554D01*
X30260432Y-22588554D01*
X30069956Y-22540935D01*
X29974718Y-22493316D01*
X29879480Y-22398078D01*
X29831860Y-22255220D01*
X29831860Y-22159982D01*
X29879480Y-22017125D01*
X29927099Y-21969506D01*
X30831860Y-21017125D02*
X30831860Y-21588554D01*
X30831860Y-21302840D02*
X29831860Y-21302840D01*
X29974718Y-21398078D01*
X30069956Y-21493316D01*
X30117575Y-21588554D01*
X85985133Y-22610742D02*
X85937514Y-22658361D01*
X85794657Y-22705980D01*
X85699419Y-22705980D01*
X85556561Y-22658361D01*
X85461323Y-22563123D01*
X85413704Y-22467885D01*
X85366085Y-22277409D01*
X85366085Y-22134552D01*
X85413704Y-21944076D01*
X85461323Y-21848838D01*
X85556561Y-21753600D01*
X85699419Y-21705980D01*
X85794657Y-21705980D01*
X85937514Y-21753600D01*
X85985133Y-21801219D01*
X86318466Y-21705980D02*
X86937514Y-21705980D01*
X86604180Y-22086933D01*
X86747038Y-22086933D01*
X86842276Y-22134552D01*
X86889895Y-22182171D01*
X86937514Y-22277409D01*
X86937514Y-22515504D01*
X86889895Y-22610742D01*
X86842276Y-22658361D01*
X86747038Y-22705980D01*
X86461323Y-22705980D01*
X86366085Y-22658361D01*
X86318466Y-22610742D01*
X27031733Y-1943742D02*
X26984114Y-1991361D01*
X26841257Y-2038980D01*
X26746019Y-2038980D01*
X26603161Y-1991361D01*
X26507923Y-1896123D01*
X26460304Y-1800885D01*
X26412685Y-1610409D01*
X26412685Y-1467552D01*
X26460304Y-1277076D01*
X26507923Y-1181838D01*
X26603161Y-1086600D01*
X26746019Y-1038980D01*
X26841257Y-1038980D01*
X26984114Y-1086600D01*
X27031733Y-1134219D01*
X27888876Y-1372314D02*
X27888876Y-2038980D01*
X27650780Y-991361D02*
X27412685Y-1705647D01*
X28031733Y-1705647D01*
X30781933Y-9536342D02*
X30734314Y-9583961D01*
X30591457Y-9631580D01*
X30496219Y-9631580D01*
X30353361Y-9583961D01*
X30258123Y-9488723D01*
X30210504Y-9393485D01*
X30162885Y-9203009D01*
X30162885Y-9060152D01*
X30210504Y-8869676D01*
X30258123Y-8774438D01*
X30353361Y-8679200D01*
X30496219Y-8631580D01*
X30591457Y-8631580D01*
X30734314Y-8679200D01*
X30781933Y-8726819D01*
X31686695Y-8631580D02*
X31210504Y-8631580D01*
X31162885Y-9107771D01*
X31210504Y-9060152D01*
X31305742Y-9012533D01*
X31543838Y-9012533D01*
X31639076Y-9060152D01*
X31686695Y-9107771D01*
X31734314Y-9203009D01*
X31734314Y-9441104D01*
X31686695Y-9536342D01*
X31639076Y-9583961D01*
X31543838Y-9631580D01*
X31305742Y-9631580D01*
X31210504Y-9583961D01*
X31162885Y-9536342D01*
X36860742Y-13208606D02*
X36908361Y-13256225D01*
X36955980Y-13399082D01*
X36955980Y-13494320D01*
X36908361Y-13637178D01*
X36813123Y-13732416D01*
X36717885Y-13780035D01*
X36527409Y-13827654D01*
X36384552Y-13827654D01*
X36194076Y-13780035D01*
X36098838Y-13732416D01*
X36003600Y-13637178D01*
X35955980Y-13494320D01*
X35955980Y-13399082D01*
X36003600Y-13256225D01*
X36051219Y-13208606D01*
X35955980Y-12351463D02*
X35955980Y-12541940D01*
X36003600Y-12637178D01*
X36051219Y-12684797D01*
X36194076Y-12780035D01*
X36384552Y-12827654D01*
X36765504Y-12827654D01*
X36860742Y-12780035D01*
X36908361Y-12732416D01*
X36955980Y-12637178D01*
X36955980Y-12446701D01*
X36908361Y-12351463D01*
X36860742Y-12303844D01*
X36765504Y-12256225D01*
X36527409Y-12256225D01*
X36432171Y-12303844D01*
X36384552Y-12351463D01*
X36336933Y-12446701D01*
X36336933Y-12637178D01*
X36384552Y-12732416D01*
X36432171Y-12780035D01*
X36527409Y-12827654D01*
X81655733Y-25470742D02*
X81608114Y-25518361D01*
X81465257Y-25565980D01*
X81370019Y-25565980D01*
X81227161Y-25518361D01*
X81131923Y-25423123D01*
X81084304Y-25327885D01*
X81036685Y-25137409D01*
X81036685Y-24994552D01*
X81084304Y-24804076D01*
X81131923Y-24708838D01*
X81227161Y-24613600D01*
X81370019Y-24565980D01*
X81465257Y-24565980D01*
X81608114Y-24613600D01*
X81655733Y-24661219D01*
X81989066Y-24565980D02*
X82655733Y-24565980D01*
X82227161Y-25565980D01*
X68533333Y-26487142D02*
X68485714Y-26534761D01*
X68342857Y-26582380D01*
X68247619Y-26582380D01*
X68104761Y-26534761D01*
X68009523Y-26439523D01*
X67961904Y-26344285D01*
X67914285Y-26153809D01*
X67914285Y-26010952D01*
X67961904Y-25820476D01*
X68009523Y-25725238D01*
X68104761Y-25630000D01*
X68247619Y-25582380D01*
X68342857Y-25582380D01*
X68485714Y-25630000D01*
X68533333Y-25677619D01*
X69104761Y-26010952D02*
X69009523Y-25963333D01*
X68961904Y-25915714D01*
X68914285Y-25820476D01*
X68914285Y-25772857D01*
X68961904Y-25677619D01*
X69009523Y-25630000D01*
X69104761Y-25582380D01*
X69295238Y-25582380D01*
X69390476Y-25630000D01*
X69438095Y-25677619D01*
X69485714Y-25772857D01*
X69485714Y-25820476D01*
X69438095Y-25915714D01*
X69390476Y-25963333D01*
X69295238Y-26010952D01*
X69104761Y-26010952D01*
X69009523Y-26058571D01*
X68961904Y-26106190D01*
X68914285Y-26201428D01*
X68914285Y-26391904D01*
X68961904Y-26487142D01*
X69009523Y-26534761D01*
X69104761Y-26582380D01*
X69295238Y-26582380D01*
X69390476Y-26534761D01*
X69438095Y-26487142D01*
X69485714Y-26391904D01*
X69485714Y-26201428D01*
X69438095Y-26106190D01*
X69390476Y-26058571D01*
X69295238Y-26010952D01*
X113278733Y-9707542D02*
X113231114Y-9755161D01*
X113088257Y-9802780D01*
X112993019Y-9802780D01*
X112850161Y-9755161D01*
X112754923Y-9659923D01*
X112707304Y-9564685D01*
X112659685Y-9374209D01*
X112659685Y-9231352D01*
X112707304Y-9040876D01*
X112754923Y-8945638D01*
X112850161Y-8850400D01*
X112993019Y-8802780D01*
X113088257Y-8802780D01*
X113231114Y-8850400D01*
X113278733Y-8898019D01*
X113754923Y-9802780D02*
X113945400Y-9802780D01*
X114040638Y-9755161D01*
X114088257Y-9707542D01*
X114183495Y-9564685D01*
X114231114Y-9374209D01*
X114231114Y-8993257D01*
X114183495Y-8898019D01*
X114135876Y-8850400D01*
X114040638Y-8802780D01*
X113850161Y-8802780D01*
X113754923Y-8850400D01*
X113707304Y-8898019D01*
X113659685Y-8993257D01*
X113659685Y-9231352D01*
X113707304Y-9326590D01*
X113754923Y-9374209D01*
X113850161Y-9421828D01*
X114040638Y-9421828D01*
X114135876Y-9374209D01*
X114183495Y-9326590D01*
X114231114Y-9231352D01*
X33850662Y-11272017D02*
X33898281Y-11319636D01*
X33945900Y-11462493D01*
X33945900Y-11557731D01*
X33898281Y-11700588D01*
X33803043Y-11795826D01*
X33707805Y-11843445D01*
X33517329Y-11891064D01*
X33374472Y-11891064D01*
X33183996Y-11843445D01*
X33088758Y-11795826D01*
X32993520Y-11700588D01*
X32945900Y-11557731D01*
X32945900Y-11462493D01*
X32993520Y-11319636D01*
X33041139Y-11272017D01*
X33945900Y-10319636D02*
X33945900Y-10891064D01*
X33945900Y-10605350D02*
X32945900Y-10605350D01*
X33088758Y-10700588D01*
X33183996Y-10795826D01*
X33231615Y-10891064D01*
X33945900Y-9367255D02*
X33945900Y-9938683D01*
X33945900Y-9652969D02*
X32945900Y-9652969D01*
X33088758Y-9748207D01*
X33183996Y-9843445D01*
X33231615Y-9938683D01*
X100727842Y-11891857D02*
X100775461Y-11939476D01*
X100823080Y-12082333D01*
X100823080Y-12177571D01*
X100775461Y-12320428D01*
X100680223Y-12415666D01*
X100584985Y-12463285D01*
X100394509Y-12510904D01*
X100251652Y-12510904D01*
X100061176Y-12463285D01*
X99965938Y-12415666D01*
X99870700Y-12320428D01*
X99823080Y-12177571D01*
X99823080Y-12082333D01*
X99870700Y-11939476D01*
X99918319Y-11891857D01*
X100823080Y-10939476D02*
X100823080Y-11510904D01*
X100823080Y-11225190D02*
X99823080Y-11225190D01*
X99965938Y-11320428D01*
X100061176Y-11415666D01*
X100108795Y-11510904D01*
X99918319Y-10558523D02*
X99870700Y-10510904D01*
X99823080Y-10415666D01*
X99823080Y-10177571D01*
X99870700Y-10082333D01*
X99918319Y-10034714D01*
X100013557Y-9987095D01*
X100108795Y-9987095D01*
X100251652Y-10034714D01*
X100823080Y-10606142D01*
X100823080Y-9987095D01*
X63073542Y-4792257D02*
X63121161Y-4839876D01*
X63168780Y-4982733D01*
X63168780Y-5077971D01*
X63121161Y-5220828D01*
X63025923Y-5316066D01*
X62930685Y-5363685D01*
X62740209Y-5411304D01*
X62597352Y-5411304D01*
X62406876Y-5363685D01*
X62311638Y-5316066D01*
X62216400Y-5220828D01*
X62168780Y-5077971D01*
X62168780Y-4982733D01*
X62216400Y-4839876D01*
X62264019Y-4792257D01*
X63168780Y-3839876D02*
X63168780Y-4411304D01*
X63168780Y-4125590D02*
X62168780Y-4125590D01*
X62311638Y-4220828D01*
X62406876Y-4316066D01*
X62454495Y-4411304D01*
X62168780Y-3506542D02*
X62168780Y-2887495D01*
X62549733Y-3220828D01*
X62549733Y-3077971D01*
X62597352Y-2982733D01*
X62644971Y-2935114D01*
X62740209Y-2887495D01*
X62978304Y-2887495D01*
X63073542Y-2935114D01*
X63121161Y-2982733D01*
X63168780Y-3077971D01*
X63168780Y-3363685D01*
X63121161Y-3458923D01*
X63073542Y-3506542D01*
X67137542Y-4755757D02*
X67185161Y-4803376D01*
X67232780Y-4946233D01*
X67232780Y-5041471D01*
X67185161Y-5184328D01*
X67089923Y-5279566D01*
X66994685Y-5327185D01*
X66804209Y-5374804D01*
X66661352Y-5374804D01*
X66470876Y-5327185D01*
X66375638Y-5279566D01*
X66280400Y-5184328D01*
X66232780Y-5041471D01*
X66232780Y-4946233D01*
X66280400Y-4803376D01*
X66328019Y-4755757D01*
X67232780Y-3803376D02*
X67232780Y-4374804D01*
X67232780Y-4089090D02*
X66232780Y-4089090D01*
X66375638Y-4184328D01*
X66470876Y-4279566D01*
X66518495Y-4374804D01*
X66566114Y-2946233D02*
X67232780Y-2946233D01*
X66185161Y-3184328D02*
X66899447Y-3422423D01*
X66899447Y-2803376D01*
X59009542Y-4719257D02*
X59057161Y-4766876D01*
X59104780Y-4909733D01*
X59104780Y-5004971D01*
X59057161Y-5147828D01*
X58961923Y-5243066D01*
X58866685Y-5290685D01*
X58676209Y-5338304D01*
X58533352Y-5338304D01*
X58342876Y-5290685D01*
X58247638Y-5243066D01*
X58152400Y-5147828D01*
X58104780Y-5004971D01*
X58104780Y-4909733D01*
X58152400Y-4766876D01*
X58200019Y-4719257D01*
X59104780Y-3766876D02*
X59104780Y-4338304D01*
X59104780Y-4052590D02*
X58104780Y-4052590D01*
X58247638Y-4147828D01*
X58342876Y-4243066D01*
X58390495Y-4338304D01*
X58104780Y-2862114D02*
X58104780Y-3338304D01*
X58580971Y-3385923D01*
X58533352Y-3338304D01*
X58485733Y-3243066D01*
X58485733Y-3004971D01*
X58533352Y-2909733D01*
X58580971Y-2862114D01*
X58676209Y-2814495D01*
X58914304Y-2814495D01*
X59009542Y-2862114D01*
X59057161Y-2909733D01*
X59104780Y-3004971D01*
X59104780Y-3243066D01*
X59057161Y-3338304D01*
X59009542Y-3385923D01*
X8961604Y-13643880D02*
X8961604Y-12643880D01*
X9199700Y-12643880D01*
X9342557Y-12691500D01*
X9437795Y-12786738D01*
X9485414Y-12881976D01*
X9533033Y-13072452D01*
X9533033Y-13215309D01*
X9485414Y-13405785D01*
X9437795Y-13501023D01*
X9342557Y-13596261D01*
X9199700Y-13643880D01*
X8961604Y-13643880D01*
X10485414Y-13643880D02*
X9913985Y-13643880D01*
X10199700Y-13643880D02*
X10199700Y-12643880D01*
X10104461Y-12786738D01*
X10009223Y-12881976D01*
X9913985Y-12929595D01*
X28469300Y-13687015D02*
X27469300Y-13687015D01*
X27469300Y-13448920D01*
X27516920Y-13306062D01*
X27612158Y-13210824D01*
X27707396Y-13163205D01*
X27897872Y-13115586D01*
X28040729Y-13115586D01*
X28231205Y-13163205D01*
X28326443Y-13210824D01*
X28421681Y-13306062D01*
X28469300Y-13448920D01*
X28469300Y-13687015D01*
X27564539Y-12734634D02*
X27516920Y-12687015D01*
X27469300Y-12591777D01*
X27469300Y-12353681D01*
X27516920Y-12258443D01*
X27564539Y-12210824D01*
X27659777Y-12163205D01*
X27755015Y-12163205D01*
X27897872Y-12210824D01*
X28469300Y-12782253D01*
X28469300Y-12163205D01*
X18331664Y-16307060D02*
X18331664Y-15307060D01*
X18569760Y-15307060D01*
X18712617Y-15354680D01*
X18807855Y-15449918D01*
X18855474Y-15545156D01*
X18903093Y-15735632D01*
X18903093Y-15878489D01*
X18855474Y-16068965D01*
X18807855Y-16164203D01*
X18712617Y-16259441D01*
X18569760Y-16307060D01*
X18331664Y-16307060D01*
X19236426Y-15307060D02*
X19855474Y-15307060D01*
X19522140Y-15688013D01*
X19664998Y-15688013D01*
X19760236Y-15735632D01*
X19807855Y-15783251D01*
X19855474Y-15878489D01*
X19855474Y-16116584D01*
X19807855Y-16211822D01*
X19760236Y-16259441D01*
X19664998Y-16307060D01*
X19379283Y-16307060D01*
X19284045Y-16259441D01*
X19236426Y-16211822D01*
X81805266Y-7902480D02*
X81805266Y-8616766D01*
X81757647Y-8759623D01*
X81662409Y-8854861D01*
X81519552Y-8902480D01*
X81424314Y-8902480D01*
X82805266Y-8902480D02*
X82233838Y-8902480D01*
X82519552Y-8902480D02*
X82519552Y-7902480D01*
X82424314Y-8045338D01*
X82329076Y-8140576D01*
X82233838Y-8188195D01*
X113227933Y-7910480D02*
X112894600Y-7434290D01*
X112656504Y-7910480D02*
X112656504Y-6910480D01*
X113037457Y-6910480D01*
X113132695Y-6958100D01*
X113180314Y-7005719D01*
X113227933Y-7100957D01*
X113227933Y-7243814D01*
X113180314Y-7339052D01*
X113132695Y-7386671D01*
X113037457Y-7434290D01*
X112656504Y-7434290D01*
X114180314Y-7910480D02*
X113608885Y-7910480D01*
X113894600Y-7910480D02*
X113894600Y-6910480D01*
X113799361Y-7053338D01*
X113704123Y-7148576D01*
X113608885Y-7196195D01*
X131542234Y-11248281D02*
X131208901Y-10772091D01*
X130970805Y-11248281D02*
X130970805Y-10248281D01*
X131351758Y-10248281D01*
X131446996Y-10295901D01*
X131494615Y-10343520D01*
X131542234Y-10438758D01*
X131542234Y-10581615D01*
X131494615Y-10676853D01*
X131446996Y-10724472D01*
X131351758Y-10772091D01*
X130970805Y-10772091D01*
X131923186Y-10343520D02*
X131970805Y-10295901D01*
X132066043Y-10248281D01*
X132304139Y-10248281D01*
X132399377Y-10295901D01*
X132446996Y-10343520D01*
X132494615Y-10438758D01*
X132494615Y-10533996D01*
X132446996Y-10676853D01*
X131875567Y-11248281D01*
X132494615Y-11248281D01*
X26667780Y-22556166D02*
X26191590Y-22889500D01*
X26667780Y-23127595D02*
X25667780Y-23127595D01*
X25667780Y-22746642D01*
X25715400Y-22651404D01*
X25763019Y-22603785D01*
X25858257Y-22556166D01*
X26001114Y-22556166D01*
X26096352Y-22603785D01*
X26143971Y-22651404D01*
X26191590Y-22746642D01*
X26191590Y-23127595D01*
X25667780Y-22222833D02*
X25667780Y-21603785D01*
X26048733Y-21937119D01*
X26048733Y-21794261D01*
X26096352Y-21699023D01*
X26143971Y-21651404D01*
X26239209Y-21603785D01*
X26477304Y-21603785D01*
X26572542Y-21651404D01*
X26620161Y-21699023D01*
X26667780Y-21794261D01*
X26667780Y-22079976D01*
X26620161Y-22175214D01*
X26572542Y-22222833D01*
X16126780Y-25388266D02*
X15650590Y-25721600D01*
X16126780Y-25959695D02*
X15126780Y-25959695D01*
X15126780Y-25578742D01*
X15174400Y-25483504D01*
X15222019Y-25435885D01*
X15317257Y-25388266D01*
X15460114Y-25388266D01*
X15555352Y-25435885D01*
X15602971Y-25483504D01*
X15650590Y-25578742D01*
X15650590Y-25959695D01*
X15460114Y-24531123D02*
X16126780Y-24531123D01*
X15079161Y-24769219D02*
X15793447Y-25007314D01*
X15793447Y-24388266D01*
X63494733Y-9551280D02*
X63161400Y-9075090D01*
X62923304Y-9551280D02*
X62923304Y-8551280D01*
X63304257Y-8551280D01*
X63399495Y-8598900D01*
X63447114Y-8646519D01*
X63494733Y-8741757D01*
X63494733Y-8884614D01*
X63447114Y-8979852D01*
X63399495Y-9027471D01*
X63304257Y-9075090D01*
X62923304Y-9075090D01*
X64399495Y-8551280D02*
X63923304Y-8551280D01*
X63875685Y-9027471D01*
X63923304Y-8979852D01*
X64018542Y-8932233D01*
X64256638Y-8932233D01*
X64351876Y-8979852D01*
X64399495Y-9027471D01*
X64447114Y-9122709D01*
X64447114Y-9360804D01*
X64399495Y-9456042D01*
X64351876Y-9503661D01*
X64256638Y-9551280D01*
X64018542Y-9551280D01*
X63923304Y-9503661D01*
X63875685Y-9456042D01*
X67784733Y-9551280D02*
X67451400Y-9075090D01*
X67213304Y-9551280D02*
X67213304Y-8551280D01*
X67594257Y-8551280D01*
X67689495Y-8598900D01*
X67737114Y-8646519D01*
X67784733Y-8741757D01*
X67784733Y-8884614D01*
X67737114Y-8979852D01*
X67689495Y-9027471D01*
X67594257Y-9075090D01*
X67213304Y-9075090D01*
X68641876Y-8551280D02*
X68451400Y-8551280D01*
X68356161Y-8598900D01*
X68308542Y-8646519D01*
X68213304Y-8789376D01*
X68165685Y-8979852D01*
X68165685Y-9360804D01*
X68213304Y-9456042D01*
X68260923Y-9503661D01*
X68356161Y-9551280D01*
X68546638Y-9551280D01*
X68641876Y-9503661D01*
X68689495Y-9456042D01*
X68737114Y-9360804D01*
X68737114Y-9122709D01*
X68689495Y-9027471D01*
X68641876Y-8979852D01*
X68546638Y-8932233D01*
X68356161Y-8932233D01*
X68260923Y-8979852D01*
X68213304Y-9027471D01*
X68165685Y-9122709D01*
X58922733Y-9551280D02*
X58589400Y-9075090D01*
X58351304Y-9551280D02*
X58351304Y-8551280D01*
X58732257Y-8551280D01*
X58827495Y-8598900D01*
X58875114Y-8646519D01*
X58922733Y-8741757D01*
X58922733Y-8884614D01*
X58875114Y-8979852D01*
X58827495Y-9027471D01*
X58732257Y-9075090D01*
X58351304Y-9075090D01*
X59398923Y-9551280D02*
X59589400Y-9551280D01*
X59684638Y-9503661D01*
X59732257Y-9456042D01*
X59827495Y-9313185D01*
X59875114Y-9122709D01*
X59875114Y-8741757D01*
X59827495Y-8646519D01*
X59779876Y-8598900D01*
X59684638Y-8551280D01*
X59494161Y-8551280D01*
X59398923Y-8598900D01*
X59351304Y-8646519D01*
X59303685Y-8741757D01*
X59303685Y-8979852D01*
X59351304Y-9075090D01*
X59398923Y-9122709D01*
X59494161Y-9170328D01*
X59684638Y-9170328D01*
X59779876Y-9122709D01*
X59827495Y-9075090D01*
X59875114Y-8979852D01*
X78156942Y-8227980D02*
X77823609Y-7751790D01*
X77585514Y-8227980D02*
X77585514Y-7227980D01*
X77966466Y-7227980D01*
X78061704Y-7275600D01*
X78109323Y-7323219D01*
X78156942Y-7418457D01*
X78156942Y-7561314D01*
X78109323Y-7656552D01*
X78061704Y-7704171D01*
X77966466Y-7751790D01*
X77585514Y-7751790D01*
X79109323Y-8227980D02*
X78537895Y-8227980D01*
X78823609Y-8227980D02*
X78823609Y-7227980D01*
X78728371Y-7370838D01*
X78633133Y-7466076D01*
X78537895Y-7513695D01*
X79966466Y-7561314D02*
X79966466Y-8227980D01*
X79728371Y-7180361D02*
X79490276Y-7894647D01*
X80109323Y-7894647D01*
X81497042Y-8215280D02*
X81163709Y-7739090D01*
X80925614Y-8215280D02*
X80925614Y-7215280D01*
X81306566Y-7215280D01*
X81401804Y-7262900D01*
X81449423Y-7310519D01*
X81497042Y-7405757D01*
X81497042Y-7548614D01*
X81449423Y-7643852D01*
X81401804Y-7691471D01*
X81306566Y-7739090D01*
X80925614Y-7739090D01*
X82449423Y-8215280D02*
X81877995Y-8215280D01*
X82163709Y-8215280D02*
X82163709Y-7215280D01*
X82068471Y-7358138D01*
X81973233Y-7453376D01*
X81877995Y-7500995D01*
X83354185Y-7215280D02*
X82877995Y-7215280D01*
X82830376Y-7691471D01*
X82877995Y-7643852D01*
X82973233Y-7596233D01*
X83211328Y-7596233D01*
X83306566Y-7643852D01*
X83354185Y-7691471D01*
X83401804Y-7786709D01*
X83401804Y-8024804D01*
X83354185Y-8120042D01*
X83306566Y-8167661D01*
X83211328Y-8215280D01*
X82973233Y-8215280D01*
X82877995Y-8167661D01*
X82830376Y-8120042D01*
X84926042Y-8215280D02*
X84592709Y-7739090D01*
X84354614Y-8215280D02*
X84354614Y-7215280D01*
X84735566Y-7215280D01*
X84830804Y-7262900D01*
X84878423Y-7310519D01*
X84926042Y-7405757D01*
X84926042Y-7548614D01*
X84878423Y-7643852D01*
X84830804Y-7691471D01*
X84735566Y-7739090D01*
X84354614Y-7739090D01*
X85878423Y-8215280D02*
X85306995Y-8215280D01*
X85592709Y-8215280D02*
X85592709Y-7215280D01*
X85497471Y-7358138D01*
X85402233Y-7453376D01*
X85306995Y-7500995D01*
X86735566Y-7215280D02*
X86545090Y-7215280D01*
X86449852Y-7262900D01*
X86402233Y-7310519D01*
X86306995Y-7453376D01*
X86259376Y-7643852D01*
X86259376Y-8024804D01*
X86306995Y-8120042D01*
X86354614Y-8167661D01*
X86449852Y-8215280D01*
X86640328Y-8215280D01*
X86735566Y-8167661D01*
X86783185Y-8120042D01*
X86830804Y-8024804D01*
X86830804Y-7786709D01*
X86783185Y-7691471D01*
X86735566Y-7643852D01*
X86640328Y-7596233D01*
X86449852Y-7596233D01*
X86354614Y-7643852D01*
X86306995Y-7691471D01*
X86259376Y-7786709D01*
X87256980Y-10253557D02*
X86780790Y-10586890D01*
X87256980Y-10824985D02*
X86256980Y-10824985D01*
X86256980Y-10444033D01*
X86304600Y-10348795D01*
X86352219Y-10301176D01*
X86447457Y-10253557D01*
X86590314Y-10253557D01*
X86685552Y-10301176D01*
X86733171Y-10348795D01*
X86780790Y-10444033D01*
X86780790Y-10824985D01*
X87256980Y-9301176D02*
X87256980Y-9872604D01*
X87256980Y-9586890D02*
X86256980Y-9586890D01*
X86399838Y-9682128D01*
X86495076Y-9777366D01*
X86542695Y-9872604D01*
X86256980Y-8967842D02*
X86256980Y-8301176D01*
X87256980Y-8729747D01*
X88730180Y-10253557D02*
X88253990Y-10586890D01*
X88730180Y-10824985D02*
X87730180Y-10824985D01*
X87730180Y-10444033D01*
X87777800Y-10348795D01*
X87825419Y-10301176D01*
X87920657Y-10253557D01*
X88063514Y-10253557D01*
X88158752Y-10301176D01*
X88206371Y-10348795D01*
X88253990Y-10444033D01*
X88253990Y-10824985D01*
X88730180Y-9301176D02*
X88730180Y-9872604D01*
X88730180Y-9586890D02*
X87730180Y-9586890D01*
X87873038Y-9682128D01*
X87968276Y-9777366D01*
X88015895Y-9872604D01*
X88158752Y-8729747D02*
X88111133Y-8824985D01*
X88063514Y-8872604D01*
X87968276Y-8920223D01*
X87920657Y-8920223D01*
X87825419Y-8872604D01*
X87777800Y-8824985D01*
X87730180Y-8729747D01*
X87730180Y-8539271D01*
X87777800Y-8444033D01*
X87825419Y-8396414D01*
X87920657Y-8348795D01*
X87968276Y-8348795D01*
X88063514Y-8396414D01*
X88111133Y-8444033D01*
X88158752Y-8539271D01*
X88158752Y-8729747D01*
X88206371Y-8824985D01*
X88253990Y-8872604D01*
X88349228Y-8920223D01*
X88539704Y-8920223D01*
X88634942Y-8872604D01*
X88682561Y-8824985D01*
X88730180Y-8729747D01*
X88730180Y-8539271D01*
X88682561Y-8444033D01*
X88634942Y-8396414D01*
X88539704Y-8348795D01*
X88349228Y-8348795D01*
X88253990Y-8396414D01*
X88206371Y-8444033D01*
X88158752Y-8539271D01*
X90203380Y-10253557D02*
X89727190Y-10586890D01*
X90203380Y-10824985D02*
X89203380Y-10824985D01*
X89203380Y-10444033D01*
X89251000Y-10348795D01*
X89298619Y-10301176D01*
X89393857Y-10253557D01*
X89536714Y-10253557D01*
X89631952Y-10301176D01*
X89679571Y-10348795D01*
X89727190Y-10444033D01*
X89727190Y-10824985D01*
X90203380Y-9301176D02*
X90203380Y-9872604D01*
X90203380Y-9586890D02*
X89203380Y-9586890D01*
X89346238Y-9682128D01*
X89441476Y-9777366D01*
X89489095Y-9872604D01*
X90203380Y-8824985D02*
X90203380Y-8634509D01*
X90155761Y-8539271D01*
X90108142Y-8491652D01*
X89965285Y-8396414D01*
X89774809Y-8348795D01*
X89393857Y-8348795D01*
X89298619Y-8396414D01*
X89251000Y-8444033D01*
X89203380Y-8539271D01*
X89203380Y-8729747D01*
X89251000Y-8824985D01*
X89298619Y-8872604D01*
X89393857Y-8920223D01*
X89631952Y-8920223D01*
X89727190Y-8872604D01*
X89774809Y-8824985D01*
X89822428Y-8729747D01*
X89822428Y-8539271D01*
X89774809Y-8444033D01*
X89727190Y-8396414D01*
X89631952Y-8348795D01*
X91727380Y-10253557D02*
X91251190Y-10586890D01*
X91727380Y-10824985D02*
X90727380Y-10824985D01*
X90727380Y-10444033D01*
X90775000Y-10348795D01*
X90822619Y-10301176D01*
X90917857Y-10253557D01*
X91060714Y-10253557D01*
X91155952Y-10301176D01*
X91203571Y-10348795D01*
X91251190Y-10444033D01*
X91251190Y-10824985D01*
X90822619Y-9872604D02*
X90775000Y-9824985D01*
X90727380Y-9729747D01*
X90727380Y-9491652D01*
X90775000Y-9396414D01*
X90822619Y-9348795D01*
X90917857Y-9301176D01*
X91013095Y-9301176D01*
X91155952Y-9348795D01*
X91727380Y-9920223D01*
X91727380Y-9301176D01*
X90727380Y-8682128D02*
X90727380Y-8586890D01*
X90775000Y-8491652D01*
X90822619Y-8444033D01*
X90917857Y-8396414D01*
X91108333Y-8348795D01*
X91346428Y-8348795D01*
X91536904Y-8396414D01*
X91632142Y-8444033D01*
X91679761Y-8491652D01*
X91727380Y-8586890D01*
X91727380Y-8682128D01*
X91679761Y-8777366D01*
X91632142Y-8824985D01*
X91536904Y-8872604D01*
X91346428Y-8920223D01*
X91108333Y-8920223D01*
X90917857Y-8872604D01*
X90822619Y-8824985D01*
X90775000Y-8777366D01*
X90727380Y-8682128D01*
X91423595Y-23838480D02*
X91423595Y-24648004D01*
X91471214Y-24743242D01*
X91518833Y-24790861D01*
X91614071Y-24838480D01*
X91804547Y-24838480D01*
X91899785Y-24790861D01*
X91947404Y-24743242D01*
X91995023Y-24648004D01*
X91995023Y-23838480D01*
X92995023Y-24838480D02*
X92423595Y-24838480D01*
X92709309Y-24838480D02*
X92709309Y-23838480D01*
X92614071Y-23981338D01*
X92518833Y-24076576D01*
X92423595Y-24124195D01*
X41741340Y-21103264D02*
X42550864Y-21103264D01*
X42646102Y-21055645D01*
X42693721Y-21008026D01*
X42741340Y-20912788D01*
X42741340Y-20722312D01*
X42693721Y-20627074D01*
X42646102Y-20579455D01*
X42550864Y-20531836D01*
X41741340Y-20531836D01*
X41836579Y-20103264D02*
X41788960Y-20055645D01*
X41741340Y-19960407D01*
X41741340Y-19722312D01*
X41788960Y-19627074D01*
X41836579Y-19579455D01*
X41931817Y-19531836D01*
X42027055Y-19531836D01*
X42169912Y-19579455D01*
X42741340Y-20150883D01*
X42741340Y-19531836D01*
X33456900Y-14912064D02*
X34266424Y-14912064D01*
X34361662Y-14864445D01*
X34409281Y-14816826D01*
X34456900Y-14721588D01*
X34456900Y-14531112D01*
X34409281Y-14435874D01*
X34361662Y-14388255D01*
X34266424Y-14340636D01*
X33456900Y-14340636D01*
X33456900Y-13959683D02*
X33456900Y-13340636D01*
X33837853Y-13673969D01*
X33837853Y-13531112D01*
X33885472Y-13435874D01*
X33933091Y-13388255D01*
X34028329Y-13340636D01*
X34266424Y-13340636D01*
X34361662Y-13388255D01*
X34409281Y-13435874D01*
X34456900Y-13531112D01*
X34456900Y-13816826D01*
X34409281Y-13912064D01*
X34361662Y-13959683D01*
X81682695Y-22581180D02*
X81682695Y-23390704D01*
X81730314Y-23485942D01*
X81777933Y-23533561D01*
X81873171Y-23581180D01*
X82063647Y-23581180D01*
X82158885Y-23533561D01*
X82206504Y-23485942D01*
X82254123Y-23390704D01*
X82254123Y-22581180D01*
X83158885Y-22914514D02*
X83158885Y-23581180D01*
X82920790Y-22533561D02*
X82682695Y-23247847D01*
X83301742Y-23247847D01*
X64372280Y-18063304D02*
X65181804Y-18063304D01*
X65277042Y-18015685D01*
X65324661Y-17968066D01*
X65372280Y-17872828D01*
X65372280Y-17682352D01*
X65324661Y-17587114D01*
X65277042Y-17539495D01*
X65181804Y-17491876D01*
X64372280Y-17491876D01*
X64372280Y-16539495D02*
X64372280Y-17015685D01*
X64848471Y-17063304D01*
X64800852Y-17015685D01*
X64753233Y-16920447D01*
X64753233Y-16682352D01*
X64800852Y-16587114D01*
X64848471Y-16539495D01*
X64943709Y-16491876D01*
X65181804Y-16491876D01*
X65277042Y-16539495D01*
X65324661Y-16587114D01*
X65372280Y-16682352D01*
X65372280Y-16920447D01*
X65324661Y-17015685D01*
X65277042Y-17063304D01*
X96732680Y-19935204D02*
X97542204Y-19935204D01*
X97637442Y-19887585D01*
X97685061Y-19839966D01*
X97732680Y-19744728D01*
X97732680Y-19554252D01*
X97685061Y-19459014D01*
X97637442Y-19411395D01*
X97542204Y-19363776D01*
X96732680Y-19363776D01*
X96732680Y-18459014D02*
X96732680Y-18649490D01*
X96780300Y-18744728D01*
X96827919Y-18792347D01*
X96970776Y-18887585D01*
X97161252Y-18935204D01*
X97542204Y-18935204D01*
X97637442Y-18887585D01*
X97685061Y-18839966D01*
X97732680Y-18744728D01*
X97732680Y-18554252D01*
X97685061Y-18459014D01*
X97637442Y-18411395D01*
X97542204Y-18363776D01*
X97304109Y-18363776D01*
X97208871Y-18411395D01*
X97161252Y-18459014D01*
X97113633Y-18554252D01*
X97113633Y-18744728D01*
X97161252Y-18839966D01*
X97208871Y-18887585D01*
X97304109Y-18935204D01*
M02*
