M48
; DRILL file {KiCad (5.1.0)-1} date 2020/3/21 7:41:26
; FORMAT={-:-/ absolute / metric / decimal}
; #@! TF.CreationDate,2020-03-21T07:41:26+08:00
; #@! TF.GenerationSoftware,Kicad,Pcbnew,(5.1.0)-1
; #@! TF.FileFunction,Plated,1,2,PTH
FMAT,2
METRIC
T1C0.400
T2C0.800
T3C1.000
T4C1.010
T5C1.100
T6C1.200
T7C1.520
%
G90
G05
T1
X5.493Y-10.507
X21.608Y-18.392
X24.874Y-17.774
X25.604Y-17.696
X37.789Y-15.611
X40.089Y-12.84
X40.249Y-23.551
X55.7Y-34.3
X58.5Y-8.6
X61.8Y-7.7
X62.7Y-34.3
X65.0Y-15.9
X65.0Y-18.9
X66.0Y-7.7
X73.4Y-15.7
X73.7Y-5.6
X74.5Y-5.6
X74.65Y-17.05
X75.05Y-9.65
X76.7Y-34.3
X77.7Y-17.7
X80.6Y-25.0
X80.639Y-5.961
X81.0Y-12.9
X81.0Y-18.7
X81.1Y-5.3
X83.531Y-15.769
X83.8Y-13.0
X84.016Y-23.684
X84.7Y-34.3
X86.65Y-10.85
X87.05Y-3.05
X88.177Y-23.577
X91.3Y-24.5
X93.18Y-13.82
X97.7Y-11.9
X99.4Y-9.915
X104.4Y-1.6
X104.7Y-34.3
X110.4Y-21.7
X112.4Y-7.6
X117.0Y-9.0
X119.3Y-34.3
X129.972Y-36.028
X130.0Y-9.0
T2
X73.82Y-30.618
X73.82Y-38.238
X76.36Y-30.618
X76.36Y-38.238
X78.9Y-30.618
X78.9Y-38.238
X20.061Y-21.36
X20.061Y-23.899
X27.681Y-21.36
X27.681Y-23.899
X71.28Y-28.078
X71.28Y-40.778
X73.82Y-28.078
X73.82Y-40.778
X76.36Y-28.078
X76.36Y-40.778
X78.9Y-28.078
X78.9Y-40.778
X81.44Y-28.078
X81.44Y-40.778
X83.98Y-28.078
X83.98Y-40.778
X86.52Y-28.078
X86.52Y-40.778
X89.06Y-28.078
X89.06Y-40.778
X116.708Y-30.643
X116.708Y-38.263
X119.248Y-30.643
X119.248Y-38.263
X121.788Y-30.643
X121.788Y-38.263
X21.166Y-27.227
X21.166Y-34.847
X23.706Y-27.227
X23.706Y-34.847
X95.22Y-30.618
X95.22Y-38.238
X97.76Y-30.618
X97.76Y-38.238
X100.3Y-30.618
X100.3Y-38.238
X115.656Y-22.02
X118.156Y-22.02
X51.191Y-46.493
X53.691Y-46.493
X114.168Y-28.103
X114.168Y-40.803
X116.708Y-28.103
X116.708Y-40.803
X119.248Y-28.103
X119.248Y-40.803
X121.788Y-28.103
X121.788Y-40.803
X124.328Y-28.103
X124.328Y-40.803
X126.868Y-28.103
X126.868Y-40.803
X129.408Y-28.103
X129.408Y-40.803
X131.948Y-28.103
X131.948Y-40.803
X114.346Y-3.478
X114.346Y-16.178
X116.886Y-3.478
X116.886Y-16.178
X119.426Y-3.478
X119.426Y-16.178
X121.966Y-3.478
X121.966Y-16.178
X124.506Y-3.478
X124.506Y-16.178
X127.046Y-3.478
X127.046Y-16.178
X129.586Y-3.478
X129.586Y-16.178
X132.126Y-3.478
X132.126Y-16.178
X116.886Y-6.018
X116.886Y-13.638
X119.426Y-6.018
X119.426Y-13.638
X121.966Y-6.018
X121.966Y-13.638
X32.228Y-27.227
X32.228Y-34.847
X34.768Y-27.227
X34.768Y-34.847
X43.289Y-27.163
X43.289Y-34.783
X45.829Y-27.163
X45.829Y-34.783
X33.625Y-5.751
X36.125Y-5.751
X49.871Y-28.041
X49.871Y-40.741
X52.411Y-28.041
X52.411Y-40.741
X54.951Y-28.041
X54.951Y-40.741
X57.491Y-28.041
X57.491Y-40.741
X60.031Y-28.041
X60.031Y-40.741
X62.571Y-28.041
X62.571Y-40.741
X65.111Y-28.041
X65.111Y-40.741
X67.651Y-28.041
X67.651Y-40.741
X26.045Y-5.751
X28.545Y-5.751
X92.68Y-28.078
X92.68Y-40.778
X95.22Y-28.078
X95.22Y-40.778
X97.76Y-28.078
X97.76Y-40.778
X100.3Y-28.078
X100.3Y-40.778
X102.84Y-28.078
X102.84Y-40.778
X105.38Y-28.078
X105.38Y-40.778
X107.92Y-28.078
X107.92Y-40.778
X110.46Y-28.078
X110.46Y-40.778
X72.59Y-46.62
X75.09Y-46.62
X52.421Y-30.491
X52.421Y-38.111
X54.961Y-30.491
X54.961Y-38.111
X57.501Y-30.491
X57.501Y-38.111
X93.99Y-46.62
X96.49Y-46.62
X115.478Y-46.645
X117.978Y-46.645
T3
X48.62Y-7.0
X51.16Y-7.0
X53.7Y-7.0
X48.52Y-15.1
X51.06Y-15.1
X53.6Y-15.1
X123.744Y-22.02
X126.284Y-22.02
X128.824Y-22.02
X131.364Y-22.02
X48.52Y-11.1
X51.06Y-11.1
X53.6Y-11.1
X102.495Y-11.28
X105.035Y-11.28
X107.575Y-11.28
X110.115Y-11.28
X57.683Y-23.074
X60.223Y-23.074
X62.763Y-23.074
X58.694Y-2.944
X58.694Y-5.484
X66.873Y-2.97
X66.873Y-5.51
X57.836Y-11.542
X60.376Y-11.542
X62.916Y-11.542
X59.279Y-46.493
X61.819Y-46.493
X64.359Y-46.493
X66.899Y-46.493
X67.645Y-10.8
X70.185Y-10.8
X72.725Y-10.8
X57.77Y-15.413
X60.31Y-15.413
X62.85Y-15.413
X71.102Y-24.153
X73.642Y-24.153
X76.182Y-24.153
X78.722Y-24.153
X57.739Y-19.239
X60.279Y-19.239
X62.819Y-19.239
X102.508Y-7.496
X105.048Y-7.496
X107.588Y-7.496
X110.128Y-7.496
X48.52Y-18.7
X51.06Y-18.7
X53.6Y-18.7
X123.566Y-46.645
X126.106Y-46.645
X128.646Y-46.645
X131.186Y-46.645
X96.388Y-2.944
X96.388Y-5.484
X96.388Y-8.024
X102.078Y-46.62
X104.618Y-46.62
X107.158Y-46.62
X109.698Y-46.62
X80.678Y-46.62
X83.218Y-46.62
X85.758Y-46.62
X88.298Y-46.62
X62.771Y-2.97
X62.771Y-5.51
X48.52Y-22.7
X51.06Y-22.7
X53.6Y-22.7
X102.508Y-3.699
X105.048Y-3.699
X107.588Y-3.699
X110.128Y-3.699
X48.62Y-2.9
X51.16Y-2.9
X53.7Y-2.9
T4
X16.899Y-5.243
X21.999Y-4.043
X17.591Y-9.887
X18.791Y-14.987
T5
X6.929Y-22.769
X9.469Y-22.769
X12.009Y-22.769
X16.822Y-21.461
X16.822Y-24.001
X6.917Y-38.987
X9.457Y-38.987
X11.996Y-38.987
X6.929Y-33.526
X9.469Y-33.526
X12.009Y-33.526
X28.38Y-30.427
X28.38Y-32.967
X40.241Y-39.355
X42.781Y-39.355
X45.321Y-39.355
X18.118Y-39.419
X20.658Y-39.419
X23.198Y-39.419
X17.419Y-30.389
X17.419Y-32.929
X6.929Y-28.154
X9.469Y-28.154
X12.009Y-28.154
X29.18Y-39.419
X31.72Y-39.419
X34.26Y-39.419
X39.365Y-30.364
X39.365Y-32.904
T6
X22.19Y-14.448
X35.19Y-14.448
T7
X6.98Y-14.425
X12.06Y-14.425
X40.241Y-45.451
X45.321Y-45.451
X29.18Y-45.515
X34.26Y-45.515
X18.118Y-45.515
X23.198Y-45.515
X6.967Y-45.515
X12.047Y-45.515
X6.993Y-5.662
X12.073Y-5.662
T0
M30
