G04 #@! TF.GenerationSoftware,KiCad,Pcbnew,(5.1.0)-1*
G04 #@! TF.CreationDate,2020-03-20T23:31:12+08:00*
G04 #@! TF.ProjectId,driver,64726976-6572-42e6-9b69-6361645f7063,rev?*
G04 #@! TF.SameCoordinates,Original*
G04 #@! TF.FileFunction,Soldermask,Bot*
G04 #@! TF.FilePolarity,Negative*
%FSLAX46Y46*%
G04 Gerber Fmt 4.6, Leading zero omitted, Abs format (unit mm)*
G04 Created by KiCad (PCBNEW (5.1.0)-1) date 2020-03-20 23:31:12*
%MOMM*%
%LPD*%
G04 APERTURE LIST*
%ADD10C,1.000000*%
%ADD11C,1.500000*%
%ADD12O,1.905000X2.000000*%
%ADD13R,1.905000X2.000000*%
%ADD14C,3.000000*%
%ADD15R,3.000000X3.000000*%
%ADD16O,2.200000X2.200000*%
%ADD17R,2.200000X2.200000*%
%ADD18O,1.600000X1.600000*%
%ADD19R,1.600000X1.600000*%
%ADD20C,1.600000*%
%ADD21C,2.010000*%
%ADD22O,1.700000X1.700000*%
%ADD23R,1.700000X1.700000*%
%ADD24C,2.400000*%
G04 APERTURE END LIST*
D10*
X100000000Y-99000000D02*
X100000000Y-103800000D01*
X103000000Y-96200000D02*
X100000000Y-99000000D01*
X103000000Y-94400000D02*
X103000000Y-96200000D01*
X111200000Y-97600000D02*
X111200000Y-103600000D01*
X114200000Y-94600000D02*
X111200000Y-97600000D01*
X122200000Y-97400000D02*
X125000000Y-94600000D01*
X122200000Y-103800000D02*
X122200000Y-97400000D01*
X90400000Y-103800000D02*
X122200000Y-103800000D01*
X88600000Y-102200000D02*
X90400000Y-103800000D01*
X88600000Y-97400000D02*
X88600000Y-102200000D01*
X92000000Y-94000000D02*
X88600000Y-97400000D01*
D11*
X92000000Y-60800000D02*
X92000000Y-94000000D01*
D12*
X91929200Y-88526100D03*
X94469200Y-88526100D03*
D13*
X97009200Y-88526100D03*
D12*
X91929200Y-83154000D03*
X94469200Y-83154000D03*
D13*
X97009200Y-83154000D03*
D14*
X125241300Y-100451400D03*
D15*
X130321300Y-100451400D03*
D16*
X124365000Y-85363800D03*
D17*
X124365000Y-87903800D03*
D16*
X113379500Y-85427300D03*
D17*
X113379500Y-87967300D03*
D16*
X102419400Y-85389200D03*
D17*
X102419400Y-87929200D03*
X101822500Y-79001100D03*
D16*
X101822500Y-76461100D03*
D18*
X128289300Y-89783400D03*
X130829300Y-82163400D03*
X130829300Y-89783400D03*
D19*
X128289300Y-82163400D03*
D18*
X117227600Y-89846900D03*
X119767600Y-82226900D03*
X119767600Y-89846900D03*
D19*
X117227600Y-82226900D03*
D18*
X106165900Y-89846900D03*
X108705900Y-82226900D03*
X108705900Y-89846900D03*
D19*
X106165900Y-82226900D03*
X112681000Y-76359500D03*
D18*
X105061000Y-78899500D03*
X112681000Y-78899500D03*
X105061000Y-76359500D03*
D12*
X114179600Y-94418900D03*
X116719600Y-94418900D03*
D13*
X119259600Y-94418900D03*
D19*
X111044600Y-60751200D03*
D20*
X113544600Y-60751200D03*
D19*
X118624600Y-60751200D03*
D20*
X121124600Y-60751200D03*
X138690600Y-101492800D03*
D19*
X136190600Y-101492800D03*
X157590100Y-101619800D03*
D20*
X160090100Y-101619800D03*
X202978000Y-101645200D03*
D19*
X200478000Y-101645200D03*
D20*
X181489600Y-101619800D03*
D19*
X178989600Y-101619800D03*
X200655800Y-77019900D03*
D20*
X203155800Y-77019900D03*
D21*
X106998700Y-59043200D03*
X101898700Y-60243200D03*
X102591000Y-64886640D03*
X103791000Y-69986640D03*
D14*
X91980000Y-69425300D03*
D15*
X97060000Y-69425300D03*
D22*
X181388000Y-63024500D03*
X181388000Y-60484500D03*
D23*
X181388000Y-57944500D03*
X147771100Y-57969900D03*
D22*
X147771100Y-60509900D03*
D23*
X151873200Y-57969900D03*
D22*
X151873200Y-60509900D03*
D14*
X91967300Y-100514900D03*
D15*
X97047300Y-100514900D03*
D23*
X195115100Y-66280500D03*
D22*
X192575100Y-66280500D03*
X190035100Y-66280500D03*
X187495100Y-66280500D03*
D14*
X91992700Y-60662300D03*
D15*
X97072700Y-60662300D03*
D23*
X151898600Y-101492800D03*
D22*
X149358600Y-101492800D03*
X146818600Y-101492800D03*
X144278600Y-101492800D03*
D23*
X195127800Y-58698600D03*
D22*
X192587800Y-58698600D03*
X190047800Y-58698600D03*
X187507800Y-58698600D03*
D23*
X195127800Y-62495900D03*
D22*
X192587800Y-62495900D03*
X190047800Y-62495900D03*
X187507800Y-62495900D03*
X143694400Y-60484500D03*
D23*
X143694400Y-57944500D03*
D22*
X163722300Y-79153500D03*
X161182300Y-79153500D03*
X158642300Y-79153500D03*
D23*
X156102300Y-79153500D03*
D14*
X103117900Y-100514900D03*
D15*
X108197900Y-100514900D03*
D22*
X157725360Y-65800000D03*
X155185360Y-65800000D03*
D23*
X152645360Y-65800000D03*
D14*
X114179600Y-100514900D03*
D15*
X119259600Y-100514900D03*
D22*
X165678100Y-101619800D03*
X168218100Y-101619800D03*
X170758100Y-101619800D03*
D23*
X173298100Y-101619800D03*
D22*
X208566000Y-101645200D03*
X211106000Y-101645200D03*
X213646000Y-101645200D03*
D23*
X216186000Y-101645200D03*
X142683480Y-78074000D03*
D22*
X145223480Y-78074000D03*
X147763480Y-78074000D03*
X138700000Y-57900000D03*
X136160000Y-57900000D03*
D23*
X133620000Y-57900000D03*
X133620000Y-62000000D03*
D22*
X136160000Y-62000000D03*
X138700000Y-62000000D03*
X147819360Y-74238600D03*
X145279360Y-74238600D03*
D23*
X142739360Y-74238600D03*
D22*
X138600000Y-66100000D03*
X136060000Y-66100000D03*
D23*
X133520000Y-66100000D03*
D22*
X138600000Y-70100000D03*
X136060000Y-70100000D03*
D23*
X133520000Y-70100000D03*
X142769840Y-70413360D03*
D22*
X145309840Y-70413360D03*
X147849840Y-70413360D03*
X187077600Y-101619800D03*
X189617600Y-101619800D03*
X192157600Y-101619800D03*
D23*
X194697600Y-101619800D03*
X216363800Y-77019900D03*
D22*
X213823800Y-77019900D03*
X211283800Y-77019900D03*
X208743800Y-77019900D03*
D23*
X133520000Y-73700000D03*
D22*
X136060000Y-73700000D03*
X138600000Y-73700000D03*
D23*
X133520000Y-77700000D03*
D22*
X136060000Y-77700000D03*
X138600000Y-77700000D03*
D23*
X142835880Y-66542400D03*
D22*
X145375880Y-66542400D03*
X147915880Y-66542400D03*
D24*
X107189520Y-69448160D03*
X120189520Y-69448160D03*
D12*
X91929200Y-77769200D03*
X94469200Y-77769200D03*
D13*
X97009200Y-77769200D03*
D12*
X91916500Y-93987100D03*
X94456500Y-93987100D03*
D13*
X96996500Y-93987100D03*
D12*
X125241300Y-94355400D03*
X127781300Y-94355400D03*
D13*
X130321300Y-94355400D03*
D12*
X103117900Y-94418900D03*
X105657900Y-94418900D03*
D13*
X108197900Y-94418900D03*
D19*
X142500600Y-93110800D03*
D18*
X137420600Y-85490800D03*
X139960600Y-93110800D03*
X139960600Y-85490800D03*
X137420600Y-93110800D03*
X142500600Y-85490800D03*
D19*
X163900100Y-93237800D03*
D18*
X158820100Y-85617800D03*
X161360100Y-93237800D03*
X161360100Y-85617800D03*
X158820100Y-93237800D03*
X163900100Y-85617800D03*
X206788000Y-85643200D03*
X201708000Y-93263200D03*
X204248000Y-85643200D03*
X204248000Y-93263200D03*
X201708000Y-85643200D03*
D19*
X206788000Y-93263200D03*
X185299600Y-93237800D03*
D18*
X180219600Y-85617800D03*
X182759600Y-93237800D03*
X182759600Y-85617800D03*
X180219600Y-93237800D03*
X185299600Y-85617800D03*
X206965800Y-61017900D03*
X201885800Y-68637900D03*
X204425800Y-61017900D03*
X204425800Y-68637900D03*
X201885800Y-61017900D03*
D19*
X206965800Y-68637900D03*
X152650600Y-95740800D03*
D18*
X134870600Y-83040800D03*
X150110600Y-95740800D03*
X137410600Y-83040800D03*
X147570600Y-95740800D03*
X139950600Y-83040800D03*
X145030600Y-95740800D03*
X142490600Y-83040800D03*
X142490600Y-95740800D03*
X145030600Y-83040800D03*
X139950600Y-95740800D03*
X147570600Y-83040800D03*
X137410600Y-95740800D03*
X150110600Y-83040800D03*
X134870600Y-95740800D03*
X152650600Y-83040800D03*
X174060100Y-83077800D03*
X156280100Y-95777800D03*
X171520100Y-83077800D03*
X158820100Y-95777800D03*
X168980100Y-83077800D03*
X161360100Y-95777800D03*
X166440100Y-83077800D03*
X163900100Y-95777800D03*
X163900100Y-83077800D03*
X166440100Y-95777800D03*
X161360100Y-83077800D03*
X168980100Y-95777800D03*
X158820100Y-83077800D03*
X171520100Y-95777800D03*
X156280100Y-83077800D03*
D19*
X174060100Y-95777800D03*
X216948000Y-95803200D03*
D18*
X199168000Y-83103200D03*
X214408000Y-95803200D03*
X201708000Y-83103200D03*
X211868000Y-95803200D03*
X204248000Y-83103200D03*
X209328000Y-95803200D03*
X206788000Y-83103200D03*
X206788000Y-95803200D03*
X209328000Y-83103200D03*
X204248000Y-95803200D03*
X211868000Y-83103200D03*
X201708000Y-95803200D03*
X214408000Y-83103200D03*
X199168000Y-95803200D03*
X216948000Y-83103200D03*
X195459600Y-83077800D03*
X177679600Y-95777800D03*
X192919600Y-83077800D03*
X180219600Y-95777800D03*
X190379600Y-83077800D03*
X182759600Y-95777800D03*
X187839600Y-83077800D03*
X185299600Y-95777800D03*
X185299600Y-83077800D03*
X187839600Y-95777800D03*
X182759600Y-83077800D03*
X190379600Y-95777800D03*
X180219600Y-83077800D03*
X192919600Y-95777800D03*
X177679600Y-83077800D03*
D19*
X195459600Y-95777800D03*
X217125800Y-71177900D03*
D18*
X199345800Y-58477900D03*
X214585800Y-71177900D03*
X201885800Y-58477900D03*
X212045800Y-71177900D03*
X204425800Y-58477900D03*
X209505800Y-71177900D03*
X206965800Y-58477900D03*
X206965800Y-71177900D03*
X209505800Y-58477900D03*
X204425800Y-71177900D03*
X212045800Y-58477900D03*
X201885800Y-71177900D03*
X214585800Y-58477900D03*
X199345800Y-71177900D03*
X217125800Y-58477900D03*
M02*
