M48
; DRILL file {KiCad (5.1.0)-1} date 2020/3/21 2:07:05
; FORMAT={-:-/ absolute / metric / decimal}
; #@! TF.CreationDate,2020-03-21T02:07:05+08:00
; #@! TF.GenerationSoftware,Kicad,Pcbnew,(5.1.0)-1
; #@! TF.FileFunction,Plated,1,2,PTH
FMAT,2
METRIC
T1C0.400
T2C0.800
T3C1.000
T4C1.010
T5C1.100
T6C1.200
T7C1.520
%
G90
G05
T1
X90.493Y-65.507
X106.608Y-73.392
X109.874Y-72.774
X110.604Y-72.696
X122.789Y-70.611
X125.089Y-67.84
X125.249Y-78.551
X140.7Y-89.3
X143.5Y-63.6
X146.8Y-62.7
X147.7Y-89.3
X150.0Y-70.9
X150.0Y-73.9
X151.0Y-62.7
X158.4Y-70.7
X158.7Y-60.6
X159.5Y-60.6
X159.65Y-72.05
X160.05Y-64.65
X161.7Y-89.3
X162.7Y-72.7
X165.6Y-80.0
X165.639Y-60.961
X166.0Y-67.9
X166.0Y-73.7
X166.1Y-60.3
X168.531Y-70.769
X168.8Y-68.0
X169.016Y-78.684
X169.7Y-89.3
X171.65Y-65.85
X172.05Y-58.05
X173.177Y-78.577
X176.3Y-79.5
X178.18Y-68.82
X182.7Y-66.9
X184.4Y-64.915
X189.4Y-56.6
X189.7Y-89.3
X195.4Y-76.7
X197.4Y-62.6
X202.0Y-64.0
X204.3Y-89.3
X214.972Y-91.028
X215.0Y-64.0
X225.0Y-106.0
X225.0Y-106.0
X225.0Y-106.0
X225.0Y-106.0
X225.0Y-106.0
X225.0Y-106.0
X225.0Y-106.0
X225.0Y-106.0
X225.0Y-106.0
X225.0Y-106.0
X225.0Y-106.0
X225.0Y-106.0
X225.0Y-106.0
X225.0Y-106.0
T2
X117.228Y-82.227
X117.228Y-89.847
X119.768Y-82.227
X119.768Y-89.847
X111.045Y-60.751
X113.545Y-60.751
X157.59Y-101.62
X160.09Y-101.62
X199.168Y-83.103
X199.168Y-95.803
X201.708Y-83.103
X201.708Y-95.803
X204.248Y-83.103
X204.248Y-95.803
X206.788Y-83.103
X206.788Y-95.803
X209.328Y-83.103
X209.328Y-95.803
X211.868Y-83.103
X211.868Y-95.803
X214.408Y-83.103
X214.408Y-95.803
X216.948Y-83.103
X216.948Y-95.803
X118.625Y-60.751
X121.125Y-60.751
X201.886Y-61.018
X201.886Y-68.638
X204.426Y-61.018
X204.426Y-68.638
X206.966Y-61.018
X206.966Y-68.638
X105.061Y-76.359
X105.061Y-78.9
X112.681Y-76.359
X112.681Y-78.9
X128.289Y-82.163
X128.289Y-89.783
X130.829Y-82.163
X130.829Y-89.783
X106.166Y-82.227
X106.166Y-89.847
X108.706Y-82.227
X108.706Y-89.847
X200.478Y-101.645
X202.978Y-101.645
X199.346Y-58.478
X199.346Y-71.178
X201.886Y-58.478
X201.886Y-71.178
X204.426Y-58.478
X204.426Y-71.178
X206.966Y-58.478
X206.966Y-71.178
X209.506Y-58.478
X209.506Y-71.178
X212.046Y-58.478
X212.046Y-71.178
X214.586Y-58.478
X214.586Y-71.178
X217.126Y-58.478
X217.126Y-71.178
X137.421Y-85.491
X137.421Y-93.111
X139.961Y-85.491
X139.961Y-93.111
X142.501Y-85.491
X142.501Y-93.111
X136.191Y-101.493
X138.691Y-101.493
X134.871Y-83.041
X134.871Y-95.741
X137.411Y-83.041
X137.411Y-95.741
X139.951Y-83.041
X139.951Y-95.741
X142.491Y-83.041
X142.491Y-95.741
X145.031Y-83.041
X145.031Y-95.741
X147.571Y-83.041
X147.571Y-95.741
X150.111Y-83.041
X150.111Y-95.741
X152.651Y-83.041
X152.651Y-95.741
X158.82Y-85.618
X158.82Y-93.238
X161.36Y-85.618
X161.36Y-93.238
X163.9Y-85.618
X163.9Y-93.238
X200.656Y-77.02
X203.156Y-77.02
X156.28Y-83.078
X156.28Y-95.778
X158.82Y-83.078
X158.82Y-95.778
X161.36Y-83.078
X161.36Y-95.778
X163.9Y-83.078
X163.9Y-95.778
X166.44Y-83.078
X166.44Y-95.778
X168.98Y-83.078
X168.98Y-95.778
X171.52Y-83.078
X171.52Y-95.778
X174.06Y-83.078
X174.06Y-95.778
X180.22Y-85.618
X180.22Y-93.238
X182.76Y-85.618
X182.76Y-93.238
X185.3Y-85.618
X185.3Y-93.238
X178.99Y-101.62
X181.49Y-101.62
X177.68Y-83.078
X177.68Y-95.778
X180.22Y-83.078
X180.22Y-95.778
X182.76Y-83.078
X182.76Y-95.778
X185.3Y-83.078
X185.3Y-95.778
X187.84Y-83.078
X187.84Y-95.778
X190.38Y-83.078
X190.38Y-95.778
X192.92Y-83.078
X192.92Y-95.778
X195.46Y-83.078
X195.46Y-95.778
X201.708Y-85.643
X201.708Y-93.263
X204.248Y-85.643
X204.248Y-93.263
X206.788Y-85.643
X206.788Y-93.263
T3
X208.744Y-77.02
X211.284Y-77.02
X213.824Y-77.02
X216.364Y-77.02
X144.279Y-101.493
X146.819Y-101.493
X149.359Y-101.493
X151.899Y-101.493
X133.52Y-73.7
X136.06Y-73.7
X138.6Y-73.7
X187.508Y-62.496
X190.048Y-62.496
X192.588Y-62.496
X195.128Y-62.496
X181.388Y-57.944
X181.388Y-60.484
X181.388Y-63.024
X133.52Y-66.1
X136.06Y-66.1
X138.6Y-66.1
X152.645Y-65.8
X155.185Y-65.8
X157.725Y-65.8
X208.566Y-101.645
X211.106Y-101.645
X213.646Y-101.645
X216.186Y-101.645
X187.078Y-101.62
X189.618Y-101.62
X192.158Y-101.62
X194.698Y-101.62
X151.873Y-57.97
X151.873Y-60.51
X133.52Y-77.7
X136.06Y-77.7
X138.6Y-77.7
X187.508Y-58.699
X190.048Y-58.699
X192.588Y-58.699
X195.128Y-58.699
X143.694Y-57.944
X143.694Y-60.484
X187.495Y-66.281
X190.035Y-66.281
X192.575Y-66.281
X195.115Y-66.281
X133.62Y-62.0
X136.16Y-62.0
X138.7Y-62.0
X165.678Y-101.62
X168.218Y-101.62
X170.758Y-101.62
X173.298Y-101.62
X142.836Y-66.542
X145.376Y-66.542
X147.916Y-66.542
X142.77Y-70.413
X145.31Y-70.413
X147.85Y-70.413
X142.683Y-78.074
X145.223Y-78.074
X147.763Y-78.074
X142.739Y-74.239
X145.279Y-74.239
X147.819Y-74.239
X156.102Y-79.153
X158.642Y-79.153
X161.182Y-79.153
X163.722Y-79.153
X133.62Y-57.9
X136.16Y-57.9
X138.7Y-57.9
X133.52Y-70.1
X136.06Y-70.1
X138.6Y-70.1
X147.771Y-57.97
X147.771Y-60.51
T4
X101.899Y-60.243
X106.999Y-59.043
X102.591Y-64.887
X103.791Y-69.987
T5
X124.365Y-85.364
X124.365Y-87.904
X113.379Y-85.427
X113.379Y-87.967
X91.929Y-77.769
X94.469Y-77.769
X97.009Y-77.769
X101.822Y-76.461
X101.822Y-79.001
X91.929Y-88.526
X94.469Y-88.526
X97.009Y-88.526
X103.118Y-94.419
X105.658Y-94.419
X108.198Y-94.419
X102.419Y-85.389
X102.419Y-87.929
X114.18Y-94.419
X116.72Y-94.419
X119.26Y-94.419
X91.929Y-83.154
X94.469Y-83.154
X97.009Y-83.154
X91.916Y-93.987
X94.456Y-93.987
X96.996Y-93.987
X125.241Y-94.355
X127.781Y-94.355
X130.321Y-94.355
T6
X107.19Y-69.448
X120.19Y-69.448
T7
X91.967Y-100.515
X97.047Y-100.515
X91.993Y-60.662
X97.073Y-60.662
X103.118Y-100.515
X108.198Y-100.515
X114.18Y-100.515
X119.26Y-100.515
X91.98Y-69.425
X97.06Y-69.425
X125.241Y-100.451
X130.321Y-100.451
T0
M30
