G04 #@! TF.GenerationSoftware,KiCad,Pcbnew,(5.1.0)-1*
G04 #@! TF.CreationDate,2020-03-21T07:42:55+08:00*
G04 #@! TF.ProjectId,espcnc,65737063-6e63-42e6-9b69-6361645f7063,rev?*
G04 #@! TF.SameCoordinates,PX9d5b340PY2625a00*
G04 #@! TF.FileFunction,Paste,Top*
G04 #@! TF.FilePolarity,Positive*
%FSLAX46Y46*%
G04 Gerber Fmt 4.6, Leading zero omitted, Abs format (unit mm)*
G04 Created by KiCad (PCBNEW (5.1.0)-1) date 2020-03-21 07:42:55*
%MOMM*%
%LPD*%
G04 APERTURE LIST*
%ADD10C,0.100000*%
%ADD11C,0.950000*%
%ADD12O,2.500000X0.900000*%
%ADD13R,6.000000X6.000000*%
%ADD14O,0.900000X2.500000*%
%ADD15R,0.900000X0.800000*%
%ADD16C,0.800000*%
%ADD17C,1.800000*%
%ADD18C,0.700000*%
%ADD19C,1.700000*%
%ADD20C,1.425000*%
%ADD21C,1.150000*%
%ADD22R,1.800000X3.500000*%
%ADD23R,3.500000X1.800000*%
%ADD24R,2.000000X1.300000*%
%ADD25R,0.400000X1.000000*%
%ADD26R,1.900000X1.500000*%
%ADD27R,1.350000X0.400000*%
%ADD28R,0.800000X0.900000*%
%ADD29R,1.300000X0.800000*%
%ADD30R,2.000000X3.800000*%
%ADD31R,2.000000X1.500000*%
G04 APERTURE END LIST*
D10*
G36*
X50810779Y-32976144D02*
G01*
X50833834Y-32979563D01*
X50856443Y-32985227D01*
X50878387Y-32993079D01*
X50899457Y-33003044D01*
X50919448Y-33015026D01*
X50938168Y-33028910D01*
X50955438Y-33044562D01*
X50971090Y-33061832D01*
X50984974Y-33080552D01*
X50996956Y-33100543D01*
X51006921Y-33121613D01*
X51014773Y-33143557D01*
X51020437Y-33166166D01*
X51023856Y-33189221D01*
X51025000Y-33212500D01*
X51025000Y-33787500D01*
X51023856Y-33810779D01*
X51020437Y-33833834D01*
X51014773Y-33856443D01*
X51006921Y-33878387D01*
X50996956Y-33899457D01*
X50984974Y-33919448D01*
X50971090Y-33938168D01*
X50955438Y-33955438D01*
X50938168Y-33971090D01*
X50919448Y-33984974D01*
X50899457Y-33996956D01*
X50878387Y-34006921D01*
X50856443Y-34014773D01*
X50833834Y-34020437D01*
X50810779Y-34023856D01*
X50787500Y-34025000D01*
X50312500Y-34025000D01*
X50289221Y-34023856D01*
X50266166Y-34020437D01*
X50243557Y-34014773D01*
X50221613Y-34006921D01*
X50200543Y-33996956D01*
X50180552Y-33984974D01*
X50161832Y-33971090D01*
X50144562Y-33955438D01*
X50128910Y-33938168D01*
X50115026Y-33919448D01*
X50103044Y-33899457D01*
X50093079Y-33878387D01*
X50085227Y-33856443D01*
X50079563Y-33833834D01*
X50076144Y-33810779D01*
X50075000Y-33787500D01*
X50075000Y-33212500D01*
X50076144Y-33189221D01*
X50079563Y-33166166D01*
X50085227Y-33143557D01*
X50093079Y-33121613D01*
X50103044Y-33100543D01*
X50115026Y-33080552D01*
X50128910Y-33061832D01*
X50144562Y-33044562D01*
X50161832Y-33028910D01*
X50180552Y-33015026D01*
X50200543Y-33003044D01*
X50221613Y-32993079D01*
X50243557Y-32985227D01*
X50266166Y-32979563D01*
X50289221Y-32976144D01*
X50312500Y-32975000D01*
X50787500Y-32975000D01*
X50810779Y-32976144D01*
X50810779Y-32976144D01*
G37*
D11*
X50550000Y-33500000D03*
D10*
G36*
X50810779Y-34726144D02*
G01*
X50833834Y-34729563D01*
X50856443Y-34735227D01*
X50878387Y-34743079D01*
X50899457Y-34753044D01*
X50919448Y-34765026D01*
X50938168Y-34778910D01*
X50955438Y-34794562D01*
X50971090Y-34811832D01*
X50984974Y-34830552D01*
X50996956Y-34850543D01*
X51006921Y-34871613D01*
X51014773Y-34893557D01*
X51020437Y-34916166D01*
X51023856Y-34939221D01*
X51025000Y-34962500D01*
X51025000Y-35537500D01*
X51023856Y-35560779D01*
X51020437Y-35583834D01*
X51014773Y-35606443D01*
X51006921Y-35628387D01*
X50996956Y-35649457D01*
X50984974Y-35669448D01*
X50971090Y-35688168D01*
X50955438Y-35705438D01*
X50938168Y-35721090D01*
X50919448Y-35734974D01*
X50899457Y-35746956D01*
X50878387Y-35756921D01*
X50856443Y-35764773D01*
X50833834Y-35770437D01*
X50810779Y-35773856D01*
X50787500Y-35775000D01*
X50312500Y-35775000D01*
X50289221Y-35773856D01*
X50266166Y-35770437D01*
X50243557Y-35764773D01*
X50221613Y-35756921D01*
X50200543Y-35746956D01*
X50180552Y-35734974D01*
X50161832Y-35721090D01*
X50144562Y-35705438D01*
X50128910Y-35688168D01*
X50115026Y-35669448D01*
X50103044Y-35649457D01*
X50093079Y-35628387D01*
X50085227Y-35606443D01*
X50079563Y-35583834D01*
X50076144Y-35560779D01*
X50075000Y-35537500D01*
X50075000Y-34962500D01*
X50076144Y-34939221D01*
X50079563Y-34916166D01*
X50085227Y-34893557D01*
X50093079Y-34871613D01*
X50103044Y-34850543D01*
X50115026Y-34830552D01*
X50128910Y-34811832D01*
X50144562Y-34794562D01*
X50161832Y-34778910D01*
X50180552Y-34765026D01*
X50200543Y-34753044D01*
X50221613Y-34743079D01*
X50243557Y-34735227D01*
X50266166Y-34729563D01*
X50289221Y-34726144D01*
X50312500Y-34725000D01*
X50787500Y-34725000D01*
X50810779Y-34726144D01*
X50810779Y-34726144D01*
G37*
D11*
X50550000Y-35250000D03*
D10*
G36*
X49310779Y-32976144D02*
G01*
X49333834Y-32979563D01*
X49356443Y-32985227D01*
X49378387Y-32993079D01*
X49399457Y-33003044D01*
X49419448Y-33015026D01*
X49438168Y-33028910D01*
X49455438Y-33044562D01*
X49471090Y-33061832D01*
X49484974Y-33080552D01*
X49496956Y-33100543D01*
X49506921Y-33121613D01*
X49514773Y-33143557D01*
X49520437Y-33166166D01*
X49523856Y-33189221D01*
X49525000Y-33212500D01*
X49525000Y-33787500D01*
X49523856Y-33810779D01*
X49520437Y-33833834D01*
X49514773Y-33856443D01*
X49506921Y-33878387D01*
X49496956Y-33899457D01*
X49484974Y-33919448D01*
X49471090Y-33938168D01*
X49455438Y-33955438D01*
X49438168Y-33971090D01*
X49419448Y-33984974D01*
X49399457Y-33996956D01*
X49378387Y-34006921D01*
X49356443Y-34014773D01*
X49333834Y-34020437D01*
X49310779Y-34023856D01*
X49287500Y-34025000D01*
X48812500Y-34025000D01*
X48789221Y-34023856D01*
X48766166Y-34020437D01*
X48743557Y-34014773D01*
X48721613Y-34006921D01*
X48700543Y-33996956D01*
X48680552Y-33984974D01*
X48661832Y-33971090D01*
X48644562Y-33955438D01*
X48628910Y-33938168D01*
X48615026Y-33919448D01*
X48603044Y-33899457D01*
X48593079Y-33878387D01*
X48585227Y-33856443D01*
X48579563Y-33833834D01*
X48576144Y-33810779D01*
X48575000Y-33787500D01*
X48575000Y-33212500D01*
X48576144Y-33189221D01*
X48579563Y-33166166D01*
X48585227Y-33143557D01*
X48593079Y-33121613D01*
X48603044Y-33100543D01*
X48615026Y-33080552D01*
X48628910Y-33061832D01*
X48644562Y-33044562D01*
X48661832Y-33028910D01*
X48680552Y-33015026D01*
X48700543Y-33003044D01*
X48721613Y-32993079D01*
X48743557Y-32985227D01*
X48766166Y-32979563D01*
X48789221Y-32976144D01*
X48812500Y-32975000D01*
X49287500Y-32975000D01*
X49310779Y-32976144D01*
X49310779Y-32976144D01*
G37*
D11*
X49050000Y-33500000D03*
D10*
G36*
X49310779Y-34726144D02*
G01*
X49333834Y-34729563D01*
X49356443Y-34735227D01*
X49378387Y-34743079D01*
X49399457Y-34753044D01*
X49419448Y-34765026D01*
X49438168Y-34778910D01*
X49455438Y-34794562D01*
X49471090Y-34811832D01*
X49484974Y-34830552D01*
X49496956Y-34850543D01*
X49506921Y-34871613D01*
X49514773Y-34893557D01*
X49520437Y-34916166D01*
X49523856Y-34939221D01*
X49525000Y-34962500D01*
X49525000Y-35537500D01*
X49523856Y-35560779D01*
X49520437Y-35583834D01*
X49514773Y-35606443D01*
X49506921Y-35628387D01*
X49496956Y-35649457D01*
X49484974Y-35669448D01*
X49471090Y-35688168D01*
X49455438Y-35705438D01*
X49438168Y-35721090D01*
X49419448Y-35734974D01*
X49399457Y-35746956D01*
X49378387Y-35756921D01*
X49356443Y-35764773D01*
X49333834Y-35770437D01*
X49310779Y-35773856D01*
X49287500Y-35775000D01*
X48812500Y-35775000D01*
X48789221Y-35773856D01*
X48766166Y-35770437D01*
X48743557Y-35764773D01*
X48721613Y-35756921D01*
X48700543Y-35746956D01*
X48680552Y-35734974D01*
X48661832Y-35721090D01*
X48644562Y-35705438D01*
X48628910Y-35688168D01*
X48615026Y-35669448D01*
X48603044Y-35649457D01*
X48593079Y-35628387D01*
X48585227Y-35606443D01*
X48579563Y-35583834D01*
X48576144Y-35560779D01*
X48575000Y-35537500D01*
X48575000Y-34962500D01*
X48576144Y-34939221D01*
X48579563Y-34916166D01*
X48585227Y-34893557D01*
X48593079Y-34871613D01*
X48603044Y-34850543D01*
X48615026Y-34830552D01*
X48628910Y-34811832D01*
X48644562Y-34794562D01*
X48661832Y-34778910D01*
X48680552Y-34765026D01*
X48700543Y-34753044D01*
X48721613Y-34743079D01*
X48743557Y-34735227D01*
X48766166Y-34729563D01*
X48789221Y-34726144D01*
X48812500Y-34725000D01*
X49287500Y-34725000D01*
X49310779Y-34726144D01*
X49310779Y-34726144D01*
G37*
D11*
X49050000Y-35250000D03*
D10*
G36*
X47834979Y-32968644D02*
G01*
X47858034Y-32972063D01*
X47880643Y-32977727D01*
X47902587Y-32985579D01*
X47923657Y-32995544D01*
X47943648Y-33007526D01*
X47962368Y-33021410D01*
X47979638Y-33037062D01*
X47995290Y-33054332D01*
X48009174Y-33073052D01*
X48021156Y-33093043D01*
X48031121Y-33114113D01*
X48038973Y-33136057D01*
X48044637Y-33158666D01*
X48048056Y-33181721D01*
X48049200Y-33205000D01*
X48049200Y-33780000D01*
X48048056Y-33803279D01*
X48044637Y-33826334D01*
X48038973Y-33848943D01*
X48031121Y-33870887D01*
X48021156Y-33891957D01*
X48009174Y-33911948D01*
X47995290Y-33930668D01*
X47979638Y-33947938D01*
X47962368Y-33963590D01*
X47943648Y-33977474D01*
X47923657Y-33989456D01*
X47902587Y-33999421D01*
X47880643Y-34007273D01*
X47858034Y-34012937D01*
X47834979Y-34016356D01*
X47811700Y-34017500D01*
X47336700Y-34017500D01*
X47313421Y-34016356D01*
X47290366Y-34012937D01*
X47267757Y-34007273D01*
X47245813Y-33999421D01*
X47224743Y-33989456D01*
X47204752Y-33977474D01*
X47186032Y-33963590D01*
X47168762Y-33947938D01*
X47153110Y-33930668D01*
X47139226Y-33911948D01*
X47127244Y-33891957D01*
X47117279Y-33870887D01*
X47109427Y-33848943D01*
X47103763Y-33826334D01*
X47100344Y-33803279D01*
X47099200Y-33780000D01*
X47099200Y-33205000D01*
X47100344Y-33181721D01*
X47103763Y-33158666D01*
X47109427Y-33136057D01*
X47117279Y-33114113D01*
X47127244Y-33093043D01*
X47139226Y-33073052D01*
X47153110Y-33054332D01*
X47168762Y-33037062D01*
X47186032Y-33021410D01*
X47204752Y-33007526D01*
X47224743Y-32995544D01*
X47245813Y-32985579D01*
X47267757Y-32977727D01*
X47290366Y-32972063D01*
X47313421Y-32968644D01*
X47336700Y-32967500D01*
X47811700Y-32967500D01*
X47834979Y-32968644D01*
X47834979Y-32968644D01*
G37*
D11*
X47574200Y-33492500D03*
D10*
G36*
X47834979Y-34718644D02*
G01*
X47858034Y-34722063D01*
X47880643Y-34727727D01*
X47902587Y-34735579D01*
X47923657Y-34745544D01*
X47943648Y-34757526D01*
X47962368Y-34771410D01*
X47979638Y-34787062D01*
X47995290Y-34804332D01*
X48009174Y-34823052D01*
X48021156Y-34843043D01*
X48031121Y-34864113D01*
X48038973Y-34886057D01*
X48044637Y-34908666D01*
X48048056Y-34931721D01*
X48049200Y-34955000D01*
X48049200Y-35530000D01*
X48048056Y-35553279D01*
X48044637Y-35576334D01*
X48038973Y-35598943D01*
X48031121Y-35620887D01*
X48021156Y-35641957D01*
X48009174Y-35661948D01*
X47995290Y-35680668D01*
X47979638Y-35697938D01*
X47962368Y-35713590D01*
X47943648Y-35727474D01*
X47923657Y-35739456D01*
X47902587Y-35749421D01*
X47880643Y-35757273D01*
X47858034Y-35762937D01*
X47834979Y-35766356D01*
X47811700Y-35767500D01*
X47336700Y-35767500D01*
X47313421Y-35766356D01*
X47290366Y-35762937D01*
X47267757Y-35757273D01*
X47245813Y-35749421D01*
X47224743Y-35739456D01*
X47204752Y-35727474D01*
X47186032Y-35713590D01*
X47168762Y-35697938D01*
X47153110Y-35680668D01*
X47139226Y-35661948D01*
X47127244Y-35641957D01*
X47117279Y-35620887D01*
X47109427Y-35598943D01*
X47103763Y-35576334D01*
X47100344Y-35553279D01*
X47099200Y-35530000D01*
X47099200Y-34955000D01*
X47100344Y-34931721D01*
X47103763Y-34908666D01*
X47109427Y-34886057D01*
X47117279Y-34864113D01*
X47127244Y-34843043D01*
X47139226Y-34823052D01*
X47153110Y-34804332D01*
X47168762Y-34787062D01*
X47186032Y-34771410D01*
X47204752Y-34757526D01*
X47224743Y-34745544D01*
X47245813Y-34735579D01*
X47267757Y-34727727D01*
X47290366Y-34722063D01*
X47313421Y-34718644D01*
X47336700Y-34717500D01*
X47811700Y-34717500D01*
X47834979Y-34718644D01*
X47834979Y-34718644D01*
G37*
D11*
X47574200Y-35242500D03*
D10*
G36*
X46361779Y-32968644D02*
G01*
X46384834Y-32972063D01*
X46407443Y-32977727D01*
X46429387Y-32985579D01*
X46450457Y-32995544D01*
X46470448Y-33007526D01*
X46489168Y-33021410D01*
X46506438Y-33037062D01*
X46522090Y-33054332D01*
X46535974Y-33073052D01*
X46547956Y-33093043D01*
X46557921Y-33114113D01*
X46565773Y-33136057D01*
X46571437Y-33158666D01*
X46574856Y-33181721D01*
X46576000Y-33205000D01*
X46576000Y-33780000D01*
X46574856Y-33803279D01*
X46571437Y-33826334D01*
X46565773Y-33848943D01*
X46557921Y-33870887D01*
X46547956Y-33891957D01*
X46535974Y-33911948D01*
X46522090Y-33930668D01*
X46506438Y-33947938D01*
X46489168Y-33963590D01*
X46470448Y-33977474D01*
X46450457Y-33989456D01*
X46429387Y-33999421D01*
X46407443Y-34007273D01*
X46384834Y-34012937D01*
X46361779Y-34016356D01*
X46338500Y-34017500D01*
X45863500Y-34017500D01*
X45840221Y-34016356D01*
X45817166Y-34012937D01*
X45794557Y-34007273D01*
X45772613Y-33999421D01*
X45751543Y-33989456D01*
X45731552Y-33977474D01*
X45712832Y-33963590D01*
X45695562Y-33947938D01*
X45679910Y-33930668D01*
X45666026Y-33911948D01*
X45654044Y-33891957D01*
X45644079Y-33870887D01*
X45636227Y-33848943D01*
X45630563Y-33826334D01*
X45627144Y-33803279D01*
X45626000Y-33780000D01*
X45626000Y-33205000D01*
X45627144Y-33181721D01*
X45630563Y-33158666D01*
X45636227Y-33136057D01*
X45644079Y-33114113D01*
X45654044Y-33093043D01*
X45666026Y-33073052D01*
X45679910Y-33054332D01*
X45695562Y-33037062D01*
X45712832Y-33021410D01*
X45731552Y-33007526D01*
X45751543Y-32995544D01*
X45772613Y-32985579D01*
X45794557Y-32977727D01*
X45817166Y-32972063D01*
X45840221Y-32968644D01*
X45863500Y-32967500D01*
X46338500Y-32967500D01*
X46361779Y-32968644D01*
X46361779Y-32968644D01*
G37*
D11*
X46101000Y-33492500D03*
D10*
G36*
X46361779Y-34718644D02*
G01*
X46384834Y-34722063D01*
X46407443Y-34727727D01*
X46429387Y-34735579D01*
X46450457Y-34745544D01*
X46470448Y-34757526D01*
X46489168Y-34771410D01*
X46506438Y-34787062D01*
X46522090Y-34804332D01*
X46535974Y-34823052D01*
X46547956Y-34843043D01*
X46557921Y-34864113D01*
X46565773Y-34886057D01*
X46571437Y-34908666D01*
X46574856Y-34931721D01*
X46576000Y-34955000D01*
X46576000Y-35530000D01*
X46574856Y-35553279D01*
X46571437Y-35576334D01*
X46565773Y-35598943D01*
X46557921Y-35620887D01*
X46547956Y-35641957D01*
X46535974Y-35661948D01*
X46522090Y-35680668D01*
X46506438Y-35697938D01*
X46489168Y-35713590D01*
X46470448Y-35727474D01*
X46450457Y-35739456D01*
X46429387Y-35749421D01*
X46407443Y-35757273D01*
X46384834Y-35762937D01*
X46361779Y-35766356D01*
X46338500Y-35767500D01*
X45863500Y-35767500D01*
X45840221Y-35766356D01*
X45817166Y-35762937D01*
X45794557Y-35757273D01*
X45772613Y-35749421D01*
X45751543Y-35739456D01*
X45731552Y-35727474D01*
X45712832Y-35713590D01*
X45695562Y-35697938D01*
X45679910Y-35680668D01*
X45666026Y-35661948D01*
X45654044Y-35641957D01*
X45644079Y-35620887D01*
X45636227Y-35598943D01*
X45630563Y-35576334D01*
X45627144Y-35553279D01*
X45626000Y-35530000D01*
X45626000Y-34955000D01*
X45627144Y-34931721D01*
X45630563Y-34908666D01*
X45636227Y-34886057D01*
X45644079Y-34864113D01*
X45654044Y-34843043D01*
X45666026Y-34823052D01*
X45679910Y-34804332D01*
X45695562Y-34787062D01*
X45712832Y-34771410D01*
X45731552Y-34757526D01*
X45751543Y-34745544D01*
X45772613Y-34735579D01*
X45794557Y-34727727D01*
X45817166Y-34722063D01*
X45840221Y-34718644D01*
X45863500Y-34717500D01*
X46338500Y-34717500D01*
X46361779Y-34718644D01*
X46361779Y-34718644D01*
G37*
D11*
X46101000Y-35242500D03*
D10*
G36*
X42310779Y-32376144D02*
G01*
X42333834Y-32379563D01*
X42356443Y-32385227D01*
X42378387Y-32393079D01*
X42399457Y-32403044D01*
X42419448Y-32415026D01*
X42438168Y-32428910D01*
X42455438Y-32444562D01*
X42471090Y-32461832D01*
X42484974Y-32480552D01*
X42496956Y-32500543D01*
X42506921Y-32521613D01*
X42514773Y-32543557D01*
X42520437Y-32566166D01*
X42523856Y-32589221D01*
X42525000Y-32612500D01*
X42525000Y-33087500D01*
X42523856Y-33110779D01*
X42520437Y-33133834D01*
X42514773Y-33156443D01*
X42506921Y-33178387D01*
X42496956Y-33199457D01*
X42484974Y-33219448D01*
X42471090Y-33238168D01*
X42455438Y-33255438D01*
X42438168Y-33271090D01*
X42419448Y-33284974D01*
X42399457Y-33296956D01*
X42378387Y-33306921D01*
X42356443Y-33314773D01*
X42333834Y-33320437D01*
X42310779Y-33323856D01*
X42287500Y-33325000D01*
X41712500Y-33325000D01*
X41689221Y-33323856D01*
X41666166Y-33320437D01*
X41643557Y-33314773D01*
X41621613Y-33306921D01*
X41600543Y-33296956D01*
X41580552Y-33284974D01*
X41561832Y-33271090D01*
X41544562Y-33255438D01*
X41528910Y-33238168D01*
X41515026Y-33219448D01*
X41503044Y-33199457D01*
X41493079Y-33178387D01*
X41485227Y-33156443D01*
X41479563Y-33133834D01*
X41476144Y-33110779D01*
X41475000Y-33087500D01*
X41475000Y-32612500D01*
X41476144Y-32589221D01*
X41479563Y-32566166D01*
X41485227Y-32543557D01*
X41493079Y-32521613D01*
X41503044Y-32500543D01*
X41515026Y-32480552D01*
X41528910Y-32461832D01*
X41544562Y-32444562D01*
X41561832Y-32428910D01*
X41580552Y-32415026D01*
X41600543Y-32403044D01*
X41621613Y-32393079D01*
X41643557Y-32385227D01*
X41666166Y-32379563D01*
X41689221Y-32376144D01*
X41712500Y-32375000D01*
X42287500Y-32375000D01*
X42310779Y-32376144D01*
X42310779Y-32376144D01*
G37*
D11*
X42000000Y-32850000D03*
D10*
G36*
X44060779Y-32376144D02*
G01*
X44083834Y-32379563D01*
X44106443Y-32385227D01*
X44128387Y-32393079D01*
X44149457Y-32403044D01*
X44169448Y-32415026D01*
X44188168Y-32428910D01*
X44205438Y-32444562D01*
X44221090Y-32461832D01*
X44234974Y-32480552D01*
X44246956Y-32500543D01*
X44256921Y-32521613D01*
X44264773Y-32543557D01*
X44270437Y-32566166D01*
X44273856Y-32589221D01*
X44275000Y-32612500D01*
X44275000Y-33087500D01*
X44273856Y-33110779D01*
X44270437Y-33133834D01*
X44264773Y-33156443D01*
X44256921Y-33178387D01*
X44246956Y-33199457D01*
X44234974Y-33219448D01*
X44221090Y-33238168D01*
X44205438Y-33255438D01*
X44188168Y-33271090D01*
X44169448Y-33284974D01*
X44149457Y-33296956D01*
X44128387Y-33306921D01*
X44106443Y-33314773D01*
X44083834Y-33320437D01*
X44060779Y-33323856D01*
X44037500Y-33325000D01*
X43462500Y-33325000D01*
X43439221Y-33323856D01*
X43416166Y-33320437D01*
X43393557Y-33314773D01*
X43371613Y-33306921D01*
X43350543Y-33296956D01*
X43330552Y-33284974D01*
X43311832Y-33271090D01*
X43294562Y-33255438D01*
X43278910Y-33238168D01*
X43265026Y-33219448D01*
X43253044Y-33199457D01*
X43243079Y-33178387D01*
X43235227Y-33156443D01*
X43229563Y-33133834D01*
X43226144Y-33110779D01*
X43225000Y-33087500D01*
X43225000Y-32612500D01*
X43226144Y-32589221D01*
X43229563Y-32566166D01*
X43235227Y-32543557D01*
X43243079Y-32521613D01*
X43253044Y-32500543D01*
X43265026Y-32480552D01*
X43278910Y-32461832D01*
X43294562Y-32444562D01*
X43311832Y-32428910D01*
X43330552Y-32415026D01*
X43350543Y-32403044D01*
X43371613Y-32393079D01*
X43393557Y-32385227D01*
X43416166Y-32379563D01*
X43439221Y-32376144D01*
X43462500Y-32375000D01*
X44037500Y-32375000D01*
X44060779Y-32376144D01*
X44060779Y-32376144D01*
G37*
D11*
X43750000Y-32850000D03*
D10*
G36*
X38860779Y-32376144D02*
G01*
X38883834Y-32379563D01*
X38906443Y-32385227D01*
X38928387Y-32393079D01*
X38949457Y-32403044D01*
X38969448Y-32415026D01*
X38988168Y-32428910D01*
X39005438Y-32444562D01*
X39021090Y-32461832D01*
X39034974Y-32480552D01*
X39046956Y-32500543D01*
X39056921Y-32521613D01*
X39064773Y-32543557D01*
X39070437Y-32566166D01*
X39073856Y-32589221D01*
X39075000Y-32612500D01*
X39075000Y-33087500D01*
X39073856Y-33110779D01*
X39070437Y-33133834D01*
X39064773Y-33156443D01*
X39056921Y-33178387D01*
X39046956Y-33199457D01*
X39034974Y-33219448D01*
X39021090Y-33238168D01*
X39005438Y-33255438D01*
X38988168Y-33271090D01*
X38969448Y-33284974D01*
X38949457Y-33296956D01*
X38928387Y-33306921D01*
X38906443Y-33314773D01*
X38883834Y-33320437D01*
X38860779Y-33323856D01*
X38837500Y-33325000D01*
X38262500Y-33325000D01*
X38239221Y-33323856D01*
X38216166Y-33320437D01*
X38193557Y-33314773D01*
X38171613Y-33306921D01*
X38150543Y-33296956D01*
X38130552Y-33284974D01*
X38111832Y-33271090D01*
X38094562Y-33255438D01*
X38078910Y-33238168D01*
X38065026Y-33219448D01*
X38053044Y-33199457D01*
X38043079Y-33178387D01*
X38035227Y-33156443D01*
X38029563Y-33133834D01*
X38026144Y-33110779D01*
X38025000Y-33087500D01*
X38025000Y-32612500D01*
X38026144Y-32589221D01*
X38029563Y-32566166D01*
X38035227Y-32543557D01*
X38043079Y-32521613D01*
X38053044Y-32500543D01*
X38065026Y-32480552D01*
X38078910Y-32461832D01*
X38094562Y-32444562D01*
X38111832Y-32428910D01*
X38130552Y-32415026D01*
X38150543Y-32403044D01*
X38171613Y-32393079D01*
X38193557Y-32385227D01*
X38216166Y-32379563D01*
X38239221Y-32376144D01*
X38262500Y-32375000D01*
X38837500Y-32375000D01*
X38860779Y-32376144D01*
X38860779Y-32376144D01*
G37*
D11*
X38550000Y-32850000D03*
D10*
G36*
X40610779Y-32376144D02*
G01*
X40633834Y-32379563D01*
X40656443Y-32385227D01*
X40678387Y-32393079D01*
X40699457Y-32403044D01*
X40719448Y-32415026D01*
X40738168Y-32428910D01*
X40755438Y-32444562D01*
X40771090Y-32461832D01*
X40784974Y-32480552D01*
X40796956Y-32500543D01*
X40806921Y-32521613D01*
X40814773Y-32543557D01*
X40820437Y-32566166D01*
X40823856Y-32589221D01*
X40825000Y-32612500D01*
X40825000Y-33087500D01*
X40823856Y-33110779D01*
X40820437Y-33133834D01*
X40814773Y-33156443D01*
X40806921Y-33178387D01*
X40796956Y-33199457D01*
X40784974Y-33219448D01*
X40771090Y-33238168D01*
X40755438Y-33255438D01*
X40738168Y-33271090D01*
X40719448Y-33284974D01*
X40699457Y-33296956D01*
X40678387Y-33306921D01*
X40656443Y-33314773D01*
X40633834Y-33320437D01*
X40610779Y-33323856D01*
X40587500Y-33325000D01*
X40012500Y-33325000D01*
X39989221Y-33323856D01*
X39966166Y-33320437D01*
X39943557Y-33314773D01*
X39921613Y-33306921D01*
X39900543Y-33296956D01*
X39880552Y-33284974D01*
X39861832Y-33271090D01*
X39844562Y-33255438D01*
X39828910Y-33238168D01*
X39815026Y-33219448D01*
X39803044Y-33199457D01*
X39793079Y-33178387D01*
X39785227Y-33156443D01*
X39779563Y-33133834D01*
X39776144Y-33110779D01*
X39775000Y-33087500D01*
X39775000Y-32612500D01*
X39776144Y-32589221D01*
X39779563Y-32566166D01*
X39785227Y-32543557D01*
X39793079Y-32521613D01*
X39803044Y-32500543D01*
X39815026Y-32480552D01*
X39828910Y-32461832D01*
X39844562Y-32444562D01*
X39861832Y-32428910D01*
X39880552Y-32415026D01*
X39900543Y-32403044D01*
X39921613Y-32393079D01*
X39943557Y-32385227D01*
X39966166Y-32379563D01*
X39989221Y-32376144D01*
X40012500Y-32375000D01*
X40587500Y-32375000D01*
X40610779Y-32376144D01*
X40610779Y-32376144D01*
G37*
D11*
X40300000Y-32850000D03*
D10*
G36*
X31710779Y-32326144D02*
G01*
X31733834Y-32329563D01*
X31756443Y-32335227D01*
X31778387Y-32343079D01*
X31799457Y-32353044D01*
X31819448Y-32365026D01*
X31838168Y-32378910D01*
X31855438Y-32394562D01*
X31871090Y-32411832D01*
X31884974Y-32430552D01*
X31896956Y-32450543D01*
X31906921Y-32471613D01*
X31914773Y-32493557D01*
X31920437Y-32516166D01*
X31923856Y-32539221D01*
X31925000Y-32562500D01*
X31925000Y-33037500D01*
X31923856Y-33060779D01*
X31920437Y-33083834D01*
X31914773Y-33106443D01*
X31906921Y-33128387D01*
X31896956Y-33149457D01*
X31884974Y-33169448D01*
X31871090Y-33188168D01*
X31855438Y-33205438D01*
X31838168Y-33221090D01*
X31819448Y-33234974D01*
X31799457Y-33246956D01*
X31778387Y-33256921D01*
X31756443Y-33264773D01*
X31733834Y-33270437D01*
X31710779Y-33273856D01*
X31687500Y-33275000D01*
X31112500Y-33275000D01*
X31089221Y-33273856D01*
X31066166Y-33270437D01*
X31043557Y-33264773D01*
X31021613Y-33256921D01*
X31000543Y-33246956D01*
X30980552Y-33234974D01*
X30961832Y-33221090D01*
X30944562Y-33205438D01*
X30928910Y-33188168D01*
X30915026Y-33169448D01*
X30903044Y-33149457D01*
X30893079Y-33128387D01*
X30885227Y-33106443D01*
X30879563Y-33083834D01*
X30876144Y-33060779D01*
X30875000Y-33037500D01*
X30875000Y-32562500D01*
X30876144Y-32539221D01*
X30879563Y-32516166D01*
X30885227Y-32493557D01*
X30893079Y-32471613D01*
X30903044Y-32450543D01*
X30915026Y-32430552D01*
X30928910Y-32411832D01*
X30944562Y-32394562D01*
X30961832Y-32378910D01*
X30980552Y-32365026D01*
X31000543Y-32353044D01*
X31021613Y-32343079D01*
X31043557Y-32335227D01*
X31066166Y-32329563D01*
X31089221Y-32326144D01*
X31112500Y-32325000D01*
X31687500Y-32325000D01*
X31710779Y-32326144D01*
X31710779Y-32326144D01*
G37*
D11*
X31400000Y-32800000D03*
D10*
G36*
X33460779Y-32326144D02*
G01*
X33483834Y-32329563D01*
X33506443Y-32335227D01*
X33528387Y-32343079D01*
X33549457Y-32353044D01*
X33569448Y-32365026D01*
X33588168Y-32378910D01*
X33605438Y-32394562D01*
X33621090Y-32411832D01*
X33634974Y-32430552D01*
X33646956Y-32450543D01*
X33656921Y-32471613D01*
X33664773Y-32493557D01*
X33670437Y-32516166D01*
X33673856Y-32539221D01*
X33675000Y-32562500D01*
X33675000Y-33037500D01*
X33673856Y-33060779D01*
X33670437Y-33083834D01*
X33664773Y-33106443D01*
X33656921Y-33128387D01*
X33646956Y-33149457D01*
X33634974Y-33169448D01*
X33621090Y-33188168D01*
X33605438Y-33205438D01*
X33588168Y-33221090D01*
X33569448Y-33234974D01*
X33549457Y-33246956D01*
X33528387Y-33256921D01*
X33506443Y-33264773D01*
X33483834Y-33270437D01*
X33460779Y-33273856D01*
X33437500Y-33275000D01*
X32862500Y-33275000D01*
X32839221Y-33273856D01*
X32816166Y-33270437D01*
X32793557Y-33264773D01*
X32771613Y-33256921D01*
X32750543Y-33246956D01*
X32730552Y-33234974D01*
X32711832Y-33221090D01*
X32694562Y-33205438D01*
X32678910Y-33188168D01*
X32665026Y-33169448D01*
X32653044Y-33149457D01*
X32643079Y-33128387D01*
X32635227Y-33106443D01*
X32629563Y-33083834D01*
X32626144Y-33060779D01*
X32625000Y-33037500D01*
X32625000Y-32562500D01*
X32626144Y-32539221D01*
X32629563Y-32516166D01*
X32635227Y-32493557D01*
X32643079Y-32471613D01*
X32653044Y-32450543D01*
X32665026Y-32430552D01*
X32678910Y-32411832D01*
X32694562Y-32394562D01*
X32711832Y-32378910D01*
X32730552Y-32365026D01*
X32750543Y-32353044D01*
X32771613Y-32343079D01*
X32793557Y-32335227D01*
X32816166Y-32329563D01*
X32839221Y-32326144D01*
X32862500Y-32325000D01*
X33437500Y-32325000D01*
X33460779Y-32326144D01*
X33460779Y-32326144D01*
G37*
D11*
X33150000Y-32800000D03*
D12*
X30500000Y-13850000D03*
X30500000Y-16390000D03*
X48500000Y-22740000D03*
X30500000Y-8770000D03*
X30500000Y-10040000D03*
X48500000Y-17660000D03*
X48500000Y-8770000D03*
X48500000Y-7500000D03*
X48500000Y-13850000D03*
X48500000Y-18930000D03*
X48500000Y-10040000D03*
X48500000Y-11310000D03*
X48500000Y-12580000D03*
X30500000Y-20200000D03*
X48500000Y-15120000D03*
X30500000Y-24010000D03*
X30500000Y-7500000D03*
X30500000Y-21470000D03*
X30500000Y-18930000D03*
X48500000Y-24010000D03*
X48500000Y-16390000D03*
X30500000Y-22740000D03*
X30500000Y-17660000D03*
X30500000Y-11310000D03*
D13*
X39200000Y-15200000D03*
D12*
X48500000Y-20200000D03*
X48500000Y-21470000D03*
X48500000Y-26550000D03*
X30500000Y-26550000D03*
X48500000Y-30360000D03*
X30500000Y-30360000D03*
X30500000Y-25280000D03*
X48500000Y-29090000D03*
X30500000Y-27820000D03*
X30500000Y-12580000D03*
X30500000Y-29090000D03*
X48500000Y-25280000D03*
X48500000Y-27820000D03*
X30500000Y-15120000D03*
D14*
X38865000Y-25500000D03*
X41405000Y-25500000D03*
X35055000Y-25500000D03*
X37595000Y-25500000D03*
X42675000Y-25500000D03*
X43945000Y-25500000D03*
X36325000Y-25500000D03*
X45215000Y-25500000D03*
X40135000Y-25500000D03*
X33785000Y-25500000D03*
D15*
X59350000Y-4375000D03*
X61350000Y-3425000D03*
X61350000Y-5325000D03*
D10*
G36*
X81935779Y-8276144D02*
G01*
X81958834Y-8279563D01*
X81981443Y-8285227D01*
X82003387Y-8293079D01*
X82024457Y-8303044D01*
X82044448Y-8315026D01*
X82063168Y-8328910D01*
X82080438Y-8344562D01*
X82096090Y-8361832D01*
X82109974Y-8380552D01*
X82121956Y-8400543D01*
X82131921Y-8421613D01*
X82139773Y-8443557D01*
X82145437Y-8466166D01*
X82148856Y-8489221D01*
X82150000Y-8512500D01*
X82150000Y-9087500D01*
X82148856Y-9110779D01*
X82145437Y-9133834D01*
X82139773Y-9156443D01*
X82131921Y-9178387D01*
X82121956Y-9199457D01*
X82109974Y-9219448D01*
X82096090Y-9238168D01*
X82080438Y-9255438D01*
X82063168Y-9271090D01*
X82044448Y-9284974D01*
X82024457Y-9296956D01*
X82003387Y-9306921D01*
X81981443Y-9314773D01*
X81958834Y-9320437D01*
X81935779Y-9323856D01*
X81912500Y-9325000D01*
X81437500Y-9325000D01*
X81414221Y-9323856D01*
X81391166Y-9320437D01*
X81368557Y-9314773D01*
X81346613Y-9306921D01*
X81325543Y-9296956D01*
X81305552Y-9284974D01*
X81286832Y-9271090D01*
X81269562Y-9255438D01*
X81253910Y-9238168D01*
X81240026Y-9219448D01*
X81228044Y-9199457D01*
X81218079Y-9178387D01*
X81210227Y-9156443D01*
X81204563Y-9133834D01*
X81201144Y-9110779D01*
X81200000Y-9087500D01*
X81200000Y-8512500D01*
X81201144Y-8489221D01*
X81204563Y-8466166D01*
X81210227Y-8443557D01*
X81218079Y-8421613D01*
X81228044Y-8400543D01*
X81240026Y-8380552D01*
X81253910Y-8361832D01*
X81269562Y-8344562D01*
X81286832Y-8328910D01*
X81305552Y-8315026D01*
X81325543Y-8303044D01*
X81346613Y-8293079D01*
X81368557Y-8285227D01*
X81391166Y-8279563D01*
X81414221Y-8276144D01*
X81437500Y-8275000D01*
X81912500Y-8275000D01*
X81935779Y-8276144D01*
X81935779Y-8276144D01*
G37*
D11*
X81675000Y-8800000D03*
D10*
G36*
X81935779Y-6526144D02*
G01*
X81958834Y-6529563D01*
X81981443Y-6535227D01*
X82003387Y-6543079D01*
X82024457Y-6553044D01*
X82044448Y-6565026D01*
X82063168Y-6578910D01*
X82080438Y-6594562D01*
X82096090Y-6611832D01*
X82109974Y-6630552D01*
X82121956Y-6650543D01*
X82131921Y-6671613D01*
X82139773Y-6693557D01*
X82145437Y-6716166D01*
X82148856Y-6739221D01*
X82150000Y-6762500D01*
X82150000Y-7337500D01*
X82148856Y-7360779D01*
X82145437Y-7383834D01*
X82139773Y-7406443D01*
X82131921Y-7428387D01*
X82121956Y-7449457D01*
X82109974Y-7469448D01*
X82096090Y-7488168D01*
X82080438Y-7505438D01*
X82063168Y-7521090D01*
X82044448Y-7534974D01*
X82024457Y-7546956D01*
X82003387Y-7556921D01*
X81981443Y-7564773D01*
X81958834Y-7570437D01*
X81935779Y-7573856D01*
X81912500Y-7575000D01*
X81437500Y-7575000D01*
X81414221Y-7573856D01*
X81391166Y-7570437D01*
X81368557Y-7564773D01*
X81346613Y-7556921D01*
X81325543Y-7546956D01*
X81305552Y-7534974D01*
X81286832Y-7521090D01*
X81269562Y-7505438D01*
X81253910Y-7488168D01*
X81240026Y-7469448D01*
X81228044Y-7449457D01*
X81218079Y-7428387D01*
X81210227Y-7406443D01*
X81204563Y-7383834D01*
X81201144Y-7360779D01*
X81200000Y-7337500D01*
X81200000Y-6762500D01*
X81201144Y-6739221D01*
X81204563Y-6716166D01*
X81210227Y-6693557D01*
X81218079Y-6671613D01*
X81228044Y-6650543D01*
X81240026Y-6630552D01*
X81253910Y-6611832D01*
X81269562Y-6594562D01*
X81286832Y-6578910D01*
X81305552Y-6565026D01*
X81325543Y-6553044D01*
X81346613Y-6543079D01*
X81368557Y-6535227D01*
X81391166Y-6529563D01*
X81414221Y-6526144D01*
X81437500Y-6525000D01*
X81912500Y-6525000D01*
X81935779Y-6526144D01*
X81935779Y-6526144D01*
G37*
D11*
X81675000Y-7050000D03*
D10*
G36*
X60301143Y-38081206D02*
G01*
X60325451Y-38084811D01*
X60349287Y-38090782D01*
X60372424Y-38099061D01*
X60394638Y-38109567D01*
X60415715Y-38122200D01*
X60435452Y-38136838D01*
X60453660Y-38153340D01*
X60470162Y-38171548D01*
X60484800Y-38191285D01*
X60497433Y-38212362D01*
X60507939Y-38234576D01*
X60516218Y-38257713D01*
X60522189Y-38281549D01*
X60525794Y-38305857D01*
X60527000Y-38330400D01*
X60527000Y-38629600D01*
X60525794Y-38654143D01*
X60522189Y-38678451D01*
X60516218Y-38702287D01*
X60507939Y-38725424D01*
X60497433Y-38747638D01*
X60484800Y-38768715D01*
X60470162Y-38788452D01*
X60453660Y-38806660D01*
X60435452Y-38823162D01*
X60415715Y-38837800D01*
X60394638Y-38850433D01*
X60372424Y-38860939D01*
X60349287Y-38869218D01*
X60325451Y-38875189D01*
X60301143Y-38878794D01*
X60276600Y-38880000D01*
X58777400Y-38880000D01*
X58752857Y-38878794D01*
X58728549Y-38875189D01*
X58704713Y-38869218D01*
X58681576Y-38860939D01*
X58659362Y-38850433D01*
X58638285Y-38837800D01*
X58618548Y-38823162D01*
X58600340Y-38806660D01*
X58583838Y-38788452D01*
X58569200Y-38768715D01*
X58556567Y-38747638D01*
X58546061Y-38725424D01*
X58537782Y-38702287D01*
X58531811Y-38678451D01*
X58528206Y-38654143D01*
X58527000Y-38629600D01*
X58527000Y-38330400D01*
X58528206Y-38305857D01*
X58531811Y-38281549D01*
X58537782Y-38257713D01*
X58546061Y-38234576D01*
X58556567Y-38212362D01*
X58569200Y-38191285D01*
X58583838Y-38171548D01*
X58600340Y-38153340D01*
X58618548Y-38136838D01*
X58638285Y-38122200D01*
X58659362Y-38109567D01*
X58681576Y-38099061D01*
X58704713Y-38090782D01*
X58728549Y-38084811D01*
X58752857Y-38081206D01*
X58777400Y-38080000D01*
X60276600Y-38080000D01*
X60301143Y-38081206D01*
X60301143Y-38081206D01*
G37*
D16*
X59527000Y-38480000D03*
D10*
G36*
X60301143Y-25651206D02*
G01*
X60325451Y-25654811D01*
X60349287Y-25660782D01*
X60372424Y-25669061D01*
X60394638Y-25679567D01*
X60415715Y-25692200D01*
X60435452Y-25706838D01*
X60453660Y-25723340D01*
X60470162Y-25741548D01*
X60484800Y-25761285D01*
X60497433Y-25782362D01*
X60507939Y-25804576D01*
X60516218Y-25827713D01*
X60522189Y-25851549D01*
X60525794Y-25875857D01*
X60527000Y-25900400D01*
X60527000Y-26199600D01*
X60525794Y-26224143D01*
X60522189Y-26248451D01*
X60516218Y-26272287D01*
X60507939Y-26295424D01*
X60497433Y-26317638D01*
X60484800Y-26338715D01*
X60470162Y-26358452D01*
X60453660Y-26376660D01*
X60435452Y-26393162D01*
X60415715Y-26407800D01*
X60394638Y-26420433D01*
X60372424Y-26430939D01*
X60349287Y-26439218D01*
X60325451Y-26445189D01*
X60301143Y-26448794D01*
X60276600Y-26450000D01*
X58777400Y-26450000D01*
X58752857Y-26448794D01*
X58728549Y-26445189D01*
X58704713Y-26439218D01*
X58681576Y-26430939D01*
X58659362Y-26420433D01*
X58638285Y-26407800D01*
X58618548Y-26393162D01*
X58600340Y-26376660D01*
X58583838Y-26358452D01*
X58569200Y-26338715D01*
X58556567Y-26317638D01*
X58546061Y-26295424D01*
X58537782Y-26272287D01*
X58531811Y-26248451D01*
X58528206Y-26224143D01*
X58527000Y-26199600D01*
X58527000Y-25900400D01*
X58528206Y-25875857D01*
X58531811Y-25851549D01*
X58537782Y-25827713D01*
X58546061Y-25804576D01*
X58556567Y-25782362D01*
X58569200Y-25761285D01*
X58583838Y-25741548D01*
X58600340Y-25723340D01*
X58618548Y-25706838D01*
X58638285Y-25692200D01*
X58659362Y-25679567D01*
X58681576Y-25669061D01*
X58704713Y-25660782D01*
X58728549Y-25654811D01*
X58752857Y-25651206D01*
X58777400Y-25650000D01*
X60276600Y-25650000D01*
X60301143Y-25651206D01*
X60301143Y-25651206D01*
G37*
D16*
X59527000Y-26050000D03*
D10*
G36*
X60301143Y-33151206D02*
G01*
X60325451Y-33154811D01*
X60349287Y-33160782D01*
X60372424Y-33169061D01*
X60394638Y-33179567D01*
X60415715Y-33192200D01*
X60435452Y-33206838D01*
X60453660Y-33223340D01*
X60470162Y-33241548D01*
X60484800Y-33261285D01*
X60497433Y-33282362D01*
X60507939Y-33304576D01*
X60516218Y-33327713D01*
X60522189Y-33351549D01*
X60525794Y-33375857D01*
X60527000Y-33400400D01*
X60527000Y-33699600D01*
X60525794Y-33724143D01*
X60522189Y-33748451D01*
X60516218Y-33772287D01*
X60507939Y-33795424D01*
X60497433Y-33817638D01*
X60484800Y-33838715D01*
X60470162Y-33858452D01*
X60453660Y-33876660D01*
X60435452Y-33893162D01*
X60415715Y-33907800D01*
X60394638Y-33920433D01*
X60372424Y-33930939D01*
X60349287Y-33939218D01*
X60325451Y-33945189D01*
X60301143Y-33948794D01*
X60276600Y-33950000D01*
X58777400Y-33950000D01*
X58752857Y-33948794D01*
X58728549Y-33945189D01*
X58704713Y-33939218D01*
X58681576Y-33930939D01*
X58659362Y-33920433D01*
X58638285Y-33907800D01*
X58618548Y-33893162D01*
X58600340Y-33876660D01*
X58583838Y-33858452D01*
X58569200Y-33838715D01*
X58556567Y-33817638D01*
X58546061Y-33795424D01*
X58537782Y-33772287D01*
X58531811Y-33748451D01*
X58528206Y-33724143D01*
X58527000Y-33699600D01*
X58527000Y-33400400D01*
X58528206Y-33375857D01*
X58531811Y-33351549D01*
X58537782Y-33327713D01*
X58546061Y-33304576D01*
X58556567Y-33282362D01*
X58569200Y-33261285D01*
X58583838Y-33241548D01*
X58600340Y-33223340D01*
X58618548Y-33206838D01*
X58638285Y-33192200D01*
X58659362Y-33179567D01*
X58681576Y-33169061D01*
X58704713Y-33160782D01*
X58728549Y-33154811D01*
X58752857Y-33151206D01*
X58777400Y-33150000D01*
X60276600Y-33150000D01*
X60301143Y-33151206D01*
X60301143Y-33151206D01*
G37*
D16*
X59527000Y-33550000D03*
D10*
G36*
X81701324Y-15431205D02*
G01*
X81725612Y-15434808D01*
X81749429Y-15440774D01*
X81772547Y-15449045D01*
X81794743Y-15459543D01*
X81815804Y-15472166D01*
X81835525Y-15486793D01*
X81853718Y-15503282D01*
X81870207Y-15521475D01*
X81884834Y-15541196D01*
X81897457Y-15562257D01*
X81907955Y-15584453D01*
X81916226Y-15607571D01*
X81922192Y-15631388D01*
X81925795Y-15655676D01*
X81927000Y-15680200D01*
X81927000Y-16979800D01*
X81925795Y-17004324D01*
X81922192Y-17028612D01*
X81916226Y-17052429D01*
X81907955Y-17075547D01*
X81897457Y-17097743D01*
X81884834Y-17118804D01*
X81870207Y-17138525D01*
X81853718Y-17156718D01*
X81835525Y-17173207D01*
X81815804Y-17187834D01*
X81794743Y-17200457D01*
X81772547Y-17210955D01*
X81749429Y-17219226D01*
X81725612Y-17225192D01*
X81701324Y-17228795D01*
X81676800Y-17230000D01*
X79777200Y-17230000D01*
X79752676Y-17228795D01*
X79728388Y-17225192D01*
X79704571Y-17219226D01*
X79681453Y-17210955D01*
X79659257Y-17200457D01*
X79638196Y-17187834D01*
X79618475Y-17173207D01*
X79600282Y-17156718D01*
X79583793Y-17138525D01*
X79569166Y-17118804D01*
X79556543Y-17097743D01*
X79546045Y-17075547D01*
X79537774Y-17052429D01*
X79531808Y-17028612D01*
X79528205Y-17004324D01*
X79527000Y-16979800D01*
X79527000Y-15680200D01*
X79528205Y-15655676D01*
X79531808Y-15631388D01*
X79537774Y-15607571D01*
X79546045Y-15584453D01*
X79556543Y-15562257D01*
X79569166Y-15541196D01*
X79583793Y-15521475D01*
X79600282Y-15503282D01*
X79618475Y-15486793D01*
X79638196Y-15472166D01*
X79659257Y-15459543D01*
X79681453Y-15449045D01*
X79704571Y-15440774D01*
X79728388Y-15434808D01*
X79752676Y-15431205D01*
X79777200Y-15430000D01*
X81676800Y-15430000D01*
X81701324Y-15431205D01*
X81701324Y-15431205D01*
G37*
D17*
X80727000Y-16330000D03*
D10*
G36*
X60301143Y-27351206D02*
G01*
X60325451Y-27354811D01*
X60349287Y-27360782D01*
X60372424Y-27369061D01*
X60394638Y-27379567D01*
X60415715Y-27392200D01*
X60435452Y-27406838D01*
X60453660Y-27423340D01*
X60470162Y-27441548D01*
X60484800Y-27461285D01*
X60497433Y-27482362D01*
X60507939Y-27504576D01*
X60516218Y-27527713D01*
X60522189Y-27551549D01*
X60525794Y-27575857D01*
X60527000Y-27600400D01*
X60527000Y-27899600D01*
X60525794Y-27924143D01*
X60522189Y-27948451D01*
X60516218Y-27972287D01*
X60507939Y-27995424D01*
X60497433Y-28017638D01*
X60484800Y-28038715D01*
X60470162Y-28058452D01*
X60453660Y-28076660D01*
X60435452Y-28093162D01*
X60415715Y-28107800D01*
X60394638Y-28120433D01*
X60372424Y-28130939D01*
X60349287Y-28139218D01*
X60325451Y-28145189D01*
X60301143Y-28148794D01*
X60276600Y-28150000D01*
X58777400Y-28150000D01*
X58752857Y-28148794D01*
X58728549Y-28145189D01*
X58704713Y-28139218D01*
X58681576Y-28130939D01*
X58659362Y-28120433D01*
X58638285Y-28107800D01*
X58618548Y-28093162D01*
X58600340Y-28076660D01*
X58583838Y-28058452D01*
X58569200Y-28038715D01*
X58556567Y-28017638D01*
X58546061Y-27995424D01*
X58537782Y-27972287D01*
X58531811Y-27948451D01*
X58528206Y-27924143D01*
X58527000Y-27899600D01*
X58527000Y-27600400D01*
X58528206Y-27575857D01*
X58531811Y-27551549D01*
X58537782Y-27527713D01*
X58546061Y-27504576D01*
X58556567Y-27482362D01*
X58569200Y-27461285D01*
X58583838Y-27441548D01*
X58600340Y-27423340D01*
X58618548Y-27406838D01*
X58638285Y-27392200D01*
X58659362Y-27379567D01*
X58681576Y-27369061D01*
X58704713Y-27360782D01*
X58728549Y-27354811D01*
X58752857Y-27351206D01*
X58777400Y-27350000D01*
X60276600Y-27350000D01*
X60301143Y-27351206D01*
X60301143Y-27351206D01*
G37*
D16*
X59527000Y-27750000D03*
D10*
G36*
X60301143Y-30651206D02*
G01*
X60325451Y-30654811D01*
X60349287Y-30660782D01*
X60372424Y-30669061D01*
X60394638Y-30679567D01*
X60415715Y-30692200D01*
X60435452Y-30706838D01*
X60453660Y-30723340D01*
X60470162Y-30741548D01*
X60484800Y-30761285D01*
X60497433Y-30782362D01*
X60507939Y-30804576D01*
X60516218Y-30827713D01*
X60522189Y-30851549D01*
X60525794Y-30875857D01*
X60527000Y-30900400D01*
X60527000Y-31199600D01*
X60525794Y-31224143D01*
X60522189Y-31248451D01*
X60516218Y-31272287D01*
X60507939Y-31295424D01*
X60497433Y-31317638D01*
X60484800Y-31338715D01*
X60470162Y-31358452D01*
X60453660Y-31376660D01*
X60435452Y-31393162D01*
X60415715Y-31407800D01*
X60394638Y-31420433D01*
X60372424Y-31430939D01*
X60349287Y-31439218D01*
X60325451Y-31445189D01*
X60301143Y-31448794D01*
X60276600Y-31450000D01*
X58777400Y-31450000D01*
X58752857Y-31448794D01*
X58728549Y-31445189D01*
X58704713Y-31439218D01*
X58681576Y-31430939D01*
X58659362Y-31420433D01*
X58638285Y-31407800D01*
X58618548Y-31393162D01*
X58600340Y-31376660D01*
X58583838Y-31358452D01*
X58569200Y-31338715D01*
X58556567Y-31317638D01*
X58546061Y-31295424D01*
X58537782Y-31272287D01*
X58531811Y-31248451D01*
X58528206Y-31224143D01*
X58527000Y-31199600D01*
X58527000Y-30900400D01*
X58528206Y-30875857D01*
X58531811Y-30851549D01*
X58537782Y-30827713D01*
X58546061Y-30804576D01*
X58556567Y-30782362D01*
X58569200Y-30761285D01*
X58583838Y-30741548D01*
X58600340Y-30723340D01*
X58618548Y-30706838D01*
X58638285Y-30692200D01*
X58659362Y-30679567D01*
X58681576Y-30669061D01*
X58704713Y-30660782D01*
X58728549Y-30654811D01*
X58752857Y-30651206D01*
X58777400Y-30650000D01*
X60276600Y-30650000D01*
X60301143Y-30651206D01*
X60301143Y-30651206D01*
G37*
D16*
X59527000Y-31050000D03*
D10*
G36*
X60301143Y-20651206D02*
G01*
X60325451Y-20654811D01*
X60349287Y-20660782D01*
X60372424Y-20669061D01*
X60394638Y-20679567D01*
X60415715Y-20692200D01*
X60435452Y-20706838D01*
X60453660Y-20723340D01*
X60470162Y-20741548D01*
X60484800Y-20761285D01*
X60497433Y-20782362D01*
X60507939Y-20804576D01*
X60516218Y-20827713D01*
X60522189Y-20851549D01*
X60525794Y-20875857D01*
X60527000Y-20900400D01*
X60527000Y-21199600D01*
X60525794Y-21224143D01*
X60522189Y-21248451D01*
X60516218Y-21272287D01*
X60507939Y-21295424D01*
X60497433Y-21317638D01*
X60484800Y-21338715D01*
X60470162Y-21358452D01*
X60453660Y-21376660D01*
X60435452Y-21393162D01*
X60415715Y-21407800D01*
X60394638Y-21420433D01*
X60372424Y-21430939D01*
X60349287Y-21439218D01*
X60325451Y-21445189D01*
X60301143Y-21448794D01*
X60276600Y-21450000D01*
X58777400Y-21450000D01*
X58752857Y-21448794D01*
X58728549Y-21445189D01*
X58704713Y-21439218D01*
X58681576Y-21430939D01*
X58659362Y-21420433D01*
X58638285Y-21407800D01*
X58618548Y-21393162D01*
X58600340Y-21376660D01*
X58583838Y-21358452D01*
X58569200Y-21338715D01*
X58556567Y-21317638D01*
X58546061Y-21295424D01*
X58537782Y-21272287D01*
X58531811Y-21248451D01*
X58528206Y-21224143D01*
X58527000Y-21199600D01*
X58527000Y-20900400D01*
X58528206Y-20875857D01*
X58531811Y-20851549D01*
X58537782Y-20827713D01*
X58546061Y-20804576D01*
X58556567Y-20782362D01*
X58569200Y-20761285D01*
X58583838Y-20741548D01*
X58600340Y-20723340D01*
X58618548Y-20706838D01*
X58638285Y-20692200D01*
X58659362Y-20679567D01*
X58681576Y-20669061D01*
X58704713Y-20660782D01*
X58728549Y-20654811D01*
X58752857Y-20651206D01*
X58777400Y-20650000D01*
X60276600Y-20650000D01*
X60301143Y-20651206D01*
X60301143Y-20651206D01*
G37*
D16*
X59527000Y-21050000D03*
D10*
G36*
X60301143Y-39781206D02*
G01*
X60325451Y-39784811D01*
X60349287Y-39790782D01*
X60372424Y-39799061D01*
X60394638Y-39809567D01*
X60415715Y-39822200D01*
X60435452Y-39836838D01*
X60453660Y-39853340D01*
X60470162Y-39871548D01*
X60484800Y-39891285D01*
X60497433Y-39912362D01*
X60507939Y-39934576D01*
X60516218Y-39957713D01*
X60522189Y-39981549D01*
X60525794Y-40005857D01*
X60527000Y-40030400D01*
X60527000Y-40329600D01*
X60525794Y-40354143D01*
X60522189Y-40378451D01*
X60516218Y-40402287D01*
X60507939Y-40425424D01*
X60497433Y-40447638D01*
X60484800Y-40468715D01*
X60470162Y-40488452D01*
X60453660Y-40506660D01*
X60435452Y-40523162D01*
X60415715Y-40537800D01*
X60394638Y-40550433D01*
X60372424Y-40560939D01*
X60349287Y-40569218D01*
X60325451Y-40575189D01*
X60301143Y-40578794D01*
X60276600Y-40580000D01*
X58777400Y-40580000D01*
X58752857Y-40578794D01*
X58728549Y-40575189D01*
X58704713Y-40569218D01*
X58681576Y-40560939D01*
X58659362Y-40550433D01*
X58638285Y-40537800D01*
X58618548Y-40523162D01*
X58600340Y-40506660D01*
X58583838Y-40488452D01*
X58569200Y-40468715D01*
X58556567Y-40447638D01*
X58546061Y-40425424D01*
X58537782Y-40402287D01*
X58531811Y-40378451D01*
X58528206Y-40354143D01*
X58527000Y-40329600D01*
X58527000Y-40030400D01*
X58528206Y-40005857D01*
X58531811Y-39981549D01*
X58537782Y-39957713D01*
X58546061Y-39934576D01*
X58556567Y-39912362D01*
X58569200Y-39891285D01*
X58583838Y-39871548D01*
X58600340Y-39853340D01*
X58618548Y-39836838D01*
X58638285Y-39822200D01*
X58659362Y-39809567D01*
X58681576Y-39799061D01*
X58704713Y-39790782D01*
X58728549Y-39784811D01*
X58752857Y-39781206D01*
X58777400Y-39780000D01*
X60276600Y-39780000D01*
X60301143Y-39781206D01*
X60301143Y-39781206D01*
G37*
D16*
X59527000Y-40180000D03*
D10*
G36*
X60301594Y-43321203D02*
G01*
X60325853Y-43324802D01*
X60349642Y-43330761D01*
X60372733Y-43339023D01*
X60394902Y-43349508D01*
X60415937Y-43362116D01*
X60435635Y-43376725D01*
X60453806Y-43393194D01*
X60470275Y-43411365D01*
X60484884Y-43431063D01*
X60497492Y-43452098D01*
X60507977Y-43474267D01*
X60516239Y-43497358D01*
X60522198Y-43521147D01*
X60525797Y-43545406D01*
X60527000Y-43569900D01*
X60527000Y-43770100D01*
X60525797Y-43794594D01*
X60522198Y-43818853D01*
X60516239Y-43842642D01*
X60507977Y-43865733D01*
X60497492Y-43887902D01*
X60484884Y-43908937D01*
X60470275Y-43928635D01*
X60453806Y-43946806D01*
X60435635Y-43963275D01*
X60415937Y-43977884D01*
X60394902Y-43990492D01*
X60372733Y-44000977D01*
X60349642Y-44009239D01*
X60325853Y-44015198D01*
X60301594Y-44018797D01*
X60277100Y-44020000D01*
X58776900Y-44020000D01*
X58752406Y-44018797D01*
X58728147Y-44015198D01*
X58704358Y-44009239D01*
X58681267Y-44000977D01*
X58659098Y-43990492D01*
X58638063Y-43977884D01*
X58618365Y-43963275D01*
X58600194Y-43946806D01*
X58583725Y-43928635D01*
X58569116Y-43908937D01*
X58556508Y-43887902D01*
X58546023Y-43865733D01*
X58537761Y-43842642D01*
X58531802Y-43818853D01*
X58528203Y-43794594D01*
X58527000Y-43770100D01*
X58527000Y-43569900D01*
X58528203Y-43545406D01*
X58531802Y-43521147D01*
X58537761Y-43497358D01*
X58546023Y-43474267D01*
X58556508Y-43452098D01*
X58569116Y-43431063D01*
X58583725Y-43411365D01*
X58600194Y-43393194D01*
X58618365Y-43376725D01*
X58638063Y-43362116D01*
X58659098Y-43349508D01*
X58681267Y-43339023D01*
X58704358Y-43330761D01*
X58728147Y-43324802D01*
X58752406Y-43321203D01*
X58776900Y-43320000D01*
X60277100Y-43320000D01*
X60301594Y-43321203D01*
X60301594Y-43321203D01*
G37*
D18*
X59527000Y-43670000D03*
D10*
G36*
X82901594Y-42831203D02*
G01*
X82925853Y-42834802D01*
X82949642Y-42840761D01*
X82972733Y-42849023D01*
X82994902Y-42859508D01*
X83015937Y-42872116D01*
X83035635Y-42886725D01*
X83053806Y-42903194D01*
X83070275Y-42921365D01*
X83084884Y-42941063D01*
X83097492Y-42962098D01*
X83107977Y-42984267D01*
X83116239Y-43007358D01*
X83122198Y-43031147D01*
X83125797Y-43055406D01*
X83127000Y-43079900D01*
X83127000Y-44280100D01*
X83125797Y-44304594D01*
X83122198Y-44328853D01*
X83116239Y-44352642D01*
X83107977Y-44375733D01*
X83097492Y-44397902D01*
X83084884Y-44418937D01*
X83070275Y-44438635D01*
X83053806Y-44456806D01*
X83035635Y-44473275D01*
X83015937Y-44487884D01*
X82994902Y-44500492D01*
X82972733Y-44510977D01*
X82949642Y-44519239D01*
X82925853Y-44525198D01*
X82901594Y-44528797D01*
X82877100Y-44530000D01*
X80976900Y-44530000D01*
X80952406Y-44528797D01*
X80928147Y-44525198D01*
X80904358Y-44519239D01*
X80881267Y-44510977D01*
X80859098Y-44500492D01*
X80838063Y-44487884D01*
X80818365Y-44473275D01*
X80800194Y-44456806D01*
X80783725Y-44438635D01*
X80769116Y-44418937D01*
X80756508Y-44397902D01*
X80746023Y-44375733D01*
X80737761Y-44352642D01*
X80731802Y-44328853D01*
X80728203Y-44304594D01*
X80727000Y-44280100D01*
X80727000Y-43079900D01*
X80728203Y-43055406D01*
X80731802Y-43031147D01*
X80737761Y-43007358D01*
X80746023Y-42984267D01*
X80756508Y-42962098D01*
X80769116Y-42941063D01*
X80783725Y-42921365D01*
X80800194Y-42903194D01*
X80818365Y-42886725D01*
X80838063Y-42872116D01*
X80859098Y-42859508D01*
X80881267Y-42849023D01*
X80904358Y-42840761D01*
X80928147Y-42834802D01*
X80952406Y-42831203D01*
X80976900Y-42830000D01*
X82877100Y-42830000D01*
X82901594Y-42831203D01*
X82901594Y-42831203D01*
G37*
D19*
X81927000Y-43680000D03*
D10*
G36*
X60301143Y-28951206D02*
G01*
X60325451Y-28954811D01*
X60349287Y-28960782D01*
X60372424Y-28969061D01*
X60394638Y-28979567D01*
X60415715Y-28992200D01*
X60435452Y-29006838D01*
X60453660Y-29023340D01*
X60470162Y-29041548D01*
X60484800Y-29061285D01*
X60497433Y-29082362D01*
X60507939Y-29104576D01*
X60516218Y-29127713D01*
X60522189Y-29151549D01*
X60525794Y-29175857D01*
X60527000Y-29200400D01*
X60527000Y-29499600D01*
X60525794Y-29524143D01*
X60522189Y-29548451D01*
X60516218Y-29572287D01*
X60507939Y-29595424D01*
X60497433Y-29617638D01*
X60484800Y-29638715D01*
X60470162Y-29658452D01*
X60453660Y-29676660D01*
X60435452Y-29693162D01*
X60415715Y-29707800D01*
X60394638Y-29720433D01*
X60372424Y-29730939D01*
X60349287Y-29739218D01*
X60325451Y-29745189D01*
X60301143Y-29748794D01*
X60276600Y-29750000D01*
X58777400Y-29750000D01*
X58752857Y-29748794D01*
X58728549Y-29745189D01*
X58704713Y-29739218D01*
X58681576Y-29730939D01*
X58659362Y-29720433D01*
X58638285Y-29707800D01*
X58618548Y-29693162D01*
X58600340Y-29676660D01*
X58583838Y-29658452D01*
X58569200Y-29638715D01*
X58556567Y-29617638D01*
X58546061Y-29595424D01*
X58537782Y-29572287D01*
X58531811Y-29548451D01*
X58528206Y-29524143D01*
X58527000Y-29499600D01*
X58527000Y-29200400D01*
X58528206Y-29175857D01*
X58531811Y-29151549D01*
X58537782Y-29127713D01*
X58546061Y-29104576D01*
X58556567Y-29082362D01*
X58569200Y-29061285D01*
X58583838Y-29041548D01*
X58600340Y-29023340D01*
X58618548Y-29006838D01*
X58638285Y-28992200D01*
X58659362Y-28979567D01*
X58681576Y-28969061D01*
X58704713Y-28960782D01*
X58728549Y-28954811D01*
X58752857Y-28951206D01*
X58777400Y-28950000D01*
X60276600Y-28950000D01*
X60301143Y-28951206D01*
X60301143Y-28951206D01*
G37*
D16*
X59527000Y-29350000D03*
D10*
G36*
X60301143Y-23151206D02*
G01*
X60325451Y-23154811D01*
X60349287Y-23160782D01*
X60372424Y-23169061D01*
X60394638Y-23179567D01*
X60415715Y-23192200D01*
X60435452Y-23206838D01*
X60453660Y-23223340D01*
X60470162Y-23241548D01*
X60484800Y-23261285D01*
X60497433Y-23282362D01*
X60507939Y-23304576D01*
X60516218Y-23327713D01*
X60522189Y-23351549D01*
X60525794Y-23375857D01*
X60527000Y-23400400D01*
X60527000Y-23699600D01*
X60525794Y-23724143D01*
X60522189Y-23748451D01*
X60516218Y-23772287D01*
X60507939Y-23795424D01*
X60497433Y-23817638D01*
X60484800Y-23838715D01*
X60470162Y-23858452D01*
X60453660Y-23876660D01*
X60435452Y-23893162D01*
X60415715Y-23907800D01*
X60394638Y-23920433D01*
X60372424Y-23930939D01*
X60349287Y-23939218D01*
X60325451Y-23945189D01*
X60301143Y-23948794D01*
X60276600Y-23950000D01*
X58777400Y-23950000D01*
X58752857Y-23948794D01*
X58728549Y-23945189D01*
X58704713Y-23939218D01*
X58681576Y-23930939D01*
X58659362Y-23920433D01*
X58638285Y-23907800D01*
X58618548Y-23893162D01*
X58600340Y-23876660D01*
X58583838Y-23858452D01*
X58569200Y-23838715D01*
X58556567Y-23817638D01*
X58546061Y-23795424D01*
X58537782Y-23772287D01*
X58531811Y-23748451D01*
X58528206Y-23724143D01*
X58527000Y-23699600D01*
X58527000Y-23400400D01*
X58528206Y-23375857D01*
X58531811Y-23351549D01*
X58537782Y-23327713D01*
X58546061Y-23304576D01*
X58556567Y-23282362D01*
X58569200Y-23261285D01*
X58583838Y-23241548D01*
X58600340Y-23223340D01*
X58618548Y-23206838D01*
X58638285Y-23192200D01*
X58659362Y-23179567D01*
X58681576Y-23169061D01*
X58704713Y-23160782D01*
X58728549Y-23154811D01*
X58752857Y-23151206D01*
X58777400Y-23150000D01*
X60276600Y-23150000D01*
X60301143Y-23151206D01*
X60301143Y-23151206D01*
G37*
D16*
X59527000Y-23550000D03*
D10*
G36*
X60301143Y-35651206D02*
G01*
X60325451Y-35654811D01*
X60349287Y-35660782D01*
X60372424Y-35669061D01*
X60394638Y-35679567D01*
X60415715Y-35692200D01*
X60435452Y-35706838D01*
X60453660Y-35723340D01*
X60470162Y-35741548D01*
X60484800Y-35761285D01*
X60497433Y-35782362D01*
X60507939Y-35804576D01*
X60516218Y-35827713D01*
X60522189Y-35851549D01*
X60525794Y-35875857D01*
X60527000Y-35900400D01*
X60527000Y-36199600D01*
X60525794Y-36224143D01*
X60522189Y-36248451D01*
X60516218Y-36272287D01*
X60507939Y-36295424D01*
X60497433Y-36317638D01*
X60484800Y-36338715D01*
X60470162Y-36358452D01*
X60453660Y-36376660D01*
X60435452Y-36393162D01*
X60415715Y-36407800D01*
X60394638Y-36420433D01*
X60372424Y-36430939D01*
X60349287Y-36439218D01*
X60325451Y-36445189D01*
X60301143Y-36448794D01*
X60276600Y-36450000D01*
X58777400Y-36450000D01*
X58752857Y-36448794D01*
X58728549Y-36445189D01*
X58704713Y-36439218D01*
X58681576Y-36430939D01*
X58659362Y-36420433D01*
X58638285Y-36407800D01*
X58618548Y-36393162D01*
X58600340Y-36376660D01*
X58583838Y-36358452D01*
X58569200Y-36338715D01*
X58556567Y-36317638D01*
X58546061Y-36295424D01*
X58537782Y-36272287D01*
X58531811Y-36248451D01*
X58528206Y-36224143D01*
X58527000Y-36199600D01*
X58527000Y-35900400D01*
X58528206Y-35875857D01*
X58531811Y-35851549D01*
X58537782Y-35827713D01*
X58546061Y-35804576D01*
X58556567Y-35782362D01*
X58569200Y-35761285D01*
X58583838Y-35741548D01*
X58600340Y-35723340D01*
X58618548Y-35706838D01*
X58638285Y-35692200D01*
X58659362Y-35679567D01*
X58681576Y-35669061D01*
X58704713Y-35660782D01*
X58728549Y-35654811D01*
X58752857Y-35651206D01*
X58777400Y-35650000D01*
X60276600Y-35650000D01*
X60301143Y-35651206D01*
X60301143Y-35651206D01*
G37*
D16*
X59527000Y-36050000D03*
D10*
G36*
X26510779Y-15726144D02*
G01*
X26533834Y-15729563D01*
X26556443Y-15735227D01*
X26578387Y-15743079D01*
X26599457Y-15753044D01*
X26619448Y-15765026D01*
X26638168Y-15778910D01*
X26655438Y-15794562D01*
X26671090Y-15811832D01*
X26684974Y-15830552D01*
X26696956Y-15850543D01*
X26706921Y-15871613D01*
X26714773Y-15893557D01*
X26720437Y-15916166D01*
X26723856Y-15939221D01*
X26725000Y-15962500D01*
X26725000Y-16437500D01*
X26723856Y-16460779D01*
X26720437Y-16483834D01*
X26714773Y-16506443D01*
X26706921Y-16528387D01*
X26696956Y-16549457D01*
X26684974Y-16569448D01*
X26671090Y-16588168D01*
X26655438Y-16605438D01*
X26638168Y-16621090D01*
X26619448Y-16634974D01*
X26599457Y-16646956D01*
X26578387Y-16656921D01*
X26556443Y-16664773D01*
X26533834Y-16670437D01*
X26510779Y-16673856D01*
X26487500Y-16675000D01*
X25912500Y-16675000D01*
X25889221Y-16673856D01*
X25866166Y-16670437D01*
X25843557Y-16664773D01*
X25821613Y-16656921D01*
X25800543Y-16646956D01*
X25780552Y-16634974D01*
X25761832Y-16621090D01*
X25744562Y-16605438D01*
X25728910Y-16588168D01*
X25715026Y-16569448D01*
X25703044Y-16549457D01*
X25693079Y-16528387D01*
X25685227Y-16506443D01*
X25679563Y-16483834D01*
X25676144Y-16460779D01*
X25675000Y-16437500D01*
X25675000Y-15962500D01*
X25676144Y-15939221D01*
X25679563Y-15916166D01*
X25685227Y-15893557D01*
X25693079Y-15871613D01*
X25703044Y-15850543D01*
X25715026Y-15830552D01*
X25728910Y-15811832D01*
X25744562Y-15794562D01*
X25761832Y-15778910D01*
X25780552Y-15765026D01*
X25800543Y-15753044D01*
X25821613Y-15743079D01*
X25843557Y-15735227D01*
X25866166Y-15729563D01*
X25889221Y-15726144D01*
X25912500Y-15725000D01*
X26487500Y-15725000D01*
X26510779Y-15726144D01*
X26510779Y-15726144D01*
G37*
D11*
X26200000Y-16200000D03*
D10*
G36*
X24760779Y-15726144D02*
G01*
X24783834Y-15729563D01*
X24806443Y-15735227D01*
X24828387Y-15743079D01*
X24849457Y-15753044D01*
X24869448Y-15765026D01*
X24888168Y-15778910D01*
X24905438Y-15794562D01*
X24921090Y-15811832D01*
X24934974Y-15830552D01*
X24946956Y-15850543D01*
X24956921Y-15871613D01*
X24964773Y-15893557D01*
X24970437Y-15916166D01*
X24973856Y-15939221D01*
X24975000Y-15962500D01*
X24975000Y-16437500D01*
X24973856Y-16460779D01*
X24970437Y-16483834D01*
X24964773Y-16506443D01*
X24956921Y-16528387D01*
X24946956Y-16549457D01*
X24934974Y-16569448D01*
X24921090Y-16588168D01*
X24905438Y-16605438D01*
X24888168Y-16621090D01*
X24869448Y-16634974D01*
X24849457Y-16646956D01*
X24828387Y-16656921D01*
X24806443Y-16664773D01*
X24783834Y-16670437D01*
X24760779Y-16673856D01*
X24737500Y-16675000D01*
X24162500Y-16675000D01*
X24139221Y-16673856D01*
X24116166Y-16670437D01*
X24093557Y-16664773D01*
X24071613Y-16656921D01*
X24050543Y-16646956D01*
X24030552Y-16634974D01*
X24011832Y-16621090D01*
X23994562Y-16605438D01*
X23978910Y-16588168D01*
X23965026Y-16569448D01*
X23953044Y-16549457D01*
X23943079Y-16528387D01*
X23935227Y-16506443D01*
X23929563Y-16483834D01*
X23926144Y-16460779D01*
X23925000Y-16437500D01*
X23925000Y-15962500D01*
X23926144Y-15939221D01*
X23929563Y-15916166D01*
X23935227Y-15893557D01*
X23943079Y-15871613D01*
X23953044Y-15850543D01*
X23965026Y-15830552D01*
X23978910Y-15811832D01*
X23994562Y-15794562D01*
X24011832Y-15778910D01*
X24030552Y-15765026D01*
X24050543Y-15753044D01*
X24071613Y-15743079D01*
X24093557Y-15735227D01*
X24116166Y-15729563D01*
X24139221Y-15726144D01*
X24162500Y-15725000D01*
X24737500Y-15725000D01*
X24760779Y-15726144D01*
X24760779Y-15726144D01*
G37*
D11*
X24450000Y-16200000D03*
D10*
G36*
X24760779Y-19126144D02*
G01*
X24783834Y-19129563D01*
X24806443Y-19135227D01*
X24828387Y-19143079D01*
X24849457Y-19153044D01*
X24869448Y-19165026D01*
X24888168Y-19178910D01*
X24905438Y-19194562D01*
X24921090Y-19211832D01*
X24934974Y-19230552D01*
X24946956Y-19250543D01*
X24956921Y-19271613D01*
X24964773Y-19293557D01*
X24970437Y-19316166D01*
X24973856Y-19339221D01*
X24975000Y-19362500D01*
X24975000Y-19837500D01*
X24973856Y-19860779D01*
X24970437Y-19883834D01*
X24964773Y-19906443D01*
X24956921Y-19928387D01*
X24946956Y-19949457D01*
X24934974Y-19969448D01*
X24921090Y-19988168D01*
X24905438Y-20005438D01*
X24888168Y-20021090D01*
X24869448Y-20034974D01*
X24849457Y-20046956D01*
X24828387Y-20056921D01*
X24806443Y-20064773D01*
X24783834Y-20070437D01*
X24760779Y-20073856D01*
X24737500Y-20075000D01*
X24162500Y-20075000D01*
X24139221Y-20073856D01*
X24116166Y-20070437D01*
X24093557Y-20064773D01*
X24071613Y-20056921D01*
X24050543Y-20046956D01*
X24030552Y-20034974D01*
X24011832Y-20021090D01*
X23994562Y-20005438D01*
X23978910Y-19988168D01*
X23965026Y-19969448D01*
X23953044Y-19949457D01*
X23943079Y-19928387D01*
X23935227Y-19906443D01*
X23929563Y-19883834D01*
X23926144Y-19860779D01*
X23925000Y-19837500D01*
X23925000Y-19362500D01*
X23926144Y-19339221D01*
X23929563Y-19316166D01*
X23935227Y-19293557D01*
X23943079Y-19271613D01*
X23953044Y-19250543D01*
X23965026Y-19230552D01*
X23978910Y-19211832D01*
X23994562Y-19194562D01*
X24011832Y-19178910D01*
X24030552Y-19165026D01*
X24050543Y-19153044D01*
X24071613Y-19143079D01*
X24093557Y-19135227D01*
X24116166Y-19129563D01*
X24139221Y-19126144D01*
X24162500Y-19125000D01*
X24737500Y-19125000D01*
X24760779Y-19126144D01*
X24760779Y-19126144D01*
G37*
D11*
X24450000Y-19600000D03*
D10*
G36*
X26510779Y-19126144D02*
G01*
X26533834Y-19129563D01*
X26556443Y-19135227D01*
X26578387Y-19143079D01*
X26599457Y-19153044D01*
X26619448Y-19165026D01*
X26638168Y-19178910D01*
X26655438Y-19194562D01*
X26671090Y-19211832D01*
X26684974Y-19230552D01*
X26696956Y-19250543D01*
X26706921Y-19271613D01*
X26714773Y-19293557D01*
X26720437Y-19316166D01*
X26723856Y-19339221D01*
X26725000Y-19362500D01*
X26725000Y-19837500D01*
X26723856Y-19860779D01*
X26720437Y-19883834D01*
X26714773Y-19906443D01*
X26706921Y-19928387D01*
X26696956Y-19949457D01*
X26684974Y-19969448D01*
X26671090Y-19988168D01*
X26655438Y-20005438D01*
X26638168Y-20021090D01*
X26619448Y-20034974D01*
X26599457Y-20046956D01*
X26578387Y-20056921D01*
X26556443Y-20064773D01*
X26533834Y-20070437D01*
X26510779Y-20073856D01*
X26487500Y-20075000D01*
X25912500Y-20075000D01*
X25889221Y-20073856D01*
X25866166Y-20070437D01*
X25843557Y-20064773D01*
X25821613Y-20056921D01*
X25800543Y-20046956D01*
X25780552Y-20034974D01*
X25761832Y-20021090D01*
X25744562Y-20005438D01*
X25728910Y-19988168D01*
X25715026Y-19969448D01*
X25703044Y-19949457D01*
X25693079Y-19928387D01*
X25685227Y-19906443D01*
X25679563Y-19883834D01*
X25676144Y-19860779D01*
X25675000Y-19837500D01*
X25675000Y-19362500D01*
X25676144Y-19339221D01*
X25679563Y-19316166D01*
X25685227Y-19293557D01*
X25693079Y-19271613D01*
X25703044Y-19250543D01*
X25715026Y-19230552D01*
X25728910Y-19211832D01*
X25744562Y-19194562D01*
X25761832Y-19178910D01*
X25780552Y-19165026D01*
X25800543Y-19153044D01*
X25821613Y-19143079D01*
X25843557Y-19135227D01*
X25866166Y-19129563D01*
X25889221Y-19126144D01*
X25912500Y-19125000D01*
X26487500Y-19125000D01*
X26510779Y-19126144D01*
X26510779Y-19126144D01*
G37*
D11*
X26200000Y-19600000D03*
D10*
G36*
X25887004Y-9276204D02*
G01*
X25911273Y-9279804D01*
X25935071Y-9285765D01*
X25958171Y-9294030D01*
X25980349Y-9304520D01*
X26001393Y-9317133D01*
X26021098Y-9331747D01*
X26039277Y-9348223D01*
X26055753Y-9366402D01*
X26070367Y-9386107D01*
X26082980Y-9407151D01*
X26093470Y-9429329D01*
X26101735Y-9452429D01*
X26107696Y-9476227D01*
X26111296Y-9500496D01*
X26112500Y-9525000D01*
X26112500Y-10775000D01*
X26111296Y-10799504D01*
X26107696Y-10823773D01*
X26101735Y-10847571D01*
X26093470Y-10870671D01*
X26082980Y-10892849D01*
X26070367Y-10913893D01*
X26055753Y-10933598D01*
X26039277Y-10951777D01*
X26021098Y-10968253D01*
X26001393Y-10982867D01*
X25980349Y-10995480D01*
X25958171Y-11005970D01*
X25935071Y-11014235D01*
X25911273Y-11020196D01*
X25887004Y-11023796D01*
X25862500Y-11025000D01*
X24937500Y-11025000D01*
X24912996Y-11023796D01*
X24888727Y-11020196D01*
X24864929Y-11014235D01*
X24841829Y-11005970D01*
X24819651Y-10995480D01*
X24798607Y-10982867D01*
X24778902Y-10968253D01*
X24760723Y-10951777D01*
X24744247Y-10933598D01*
X24729633Y-10913893D01*
X24717020Y-10892849D01*
X24706530Y-10870671D01*
X24698265Y-10847571D01*
X24692304Y-10823773D01*
X24688704Y-10799504D01*
X24687500Y-10775000D01*
X24687500Y-9525000D01*
X24688704Y-9500496D01*
X24692304Y-9476227D01*
X24698265Y-9452429D01*
X24706530Y-9429329D01*
X24717020Y-9407151D01*
X24729633Y-9386107D01*
X24744247Y-9366402D01*
X24760723Y-9348223D01*
X24778902Y-9331747D01*
X24798607Y-9317133D01*
X24819651Y-9304520D01*
X24841829Y-9294030D01*
X24864929Y-9285765D01*
X24888727Y-9279804D01*
X24912996Y-9276204D01*
X24937500Y-9275000D01*
X25862500Y-9275000D01*
X25887004Y-9276204D01*
X25887004Y-9276204D01*
G37*
D20*
X25400000Y-10150000D03*
D10*
G36*
X22912004Y-9276204D02*
G01*
X22936273Y-9279804D01*
X22960071Y-9285765D01*
X22983171Y-9294030D01*
X23005349Y-9304520D01*
X23026393Y-9317133D01*
X23046098Y-9331747D01*
X23064277Y-9348223D01*
X23080753Y-9366402D01*
X23095367Y-9386107D01*
X23107980Y-9407151D01*
X23118470Y-9429329D01*
X23126735Y-9452429D01*
X23132696Y-9476227D01*
X23136296Y-9500496D01*
X23137500Y-9525000D01*
X23137500Y-10775000D01*
X23136296Y-10799504D01*
X23132696Y-10823773D01*
X23126735Y-10847571D01*
X23118470Y-10870671D01*
X23107980Y-10892849D01*
X23095367Y-10913893D01*
X23080753Y-10933598D01*
X23064277Y-10951777D01*
X23046098Y-10968253D01*
X23026393Y-10982867D01*
X23005349Y-10995480D01*
X22983171Y-11005970D01*
X22960071Y-11014235D01*
X22936273Y-11020196D01*
X22912004Y-11023796D01*
X22887500Y-11025000D01*
X21962500Y-11025000D01*
X21937996Y-11023796D01*
X21913727Y-11020196D01*
X21889929Y-11014235D01*
X21866829Y-11005970D01*
X21844651Y-10995480D01*
X21823607Y-10982867D01*
X21803902Y-10968253D01*
X21785723Y-10951777D01*
X21769247Y-10933598D01*
X21754633Y-10913893D01*
X21742020Y-10892849D01*
X21731530Y-10870671D01*
X21723265Y-10847571D01*
X21717304Y-10823773D01*
X21713704Y-10799504D01*
X21712500Y-10775000D01*
X21712500Y-9525000D01*
X21713704Y-9500496D01*
X21717304Y-9476227D01*
X21723265Y-9452429D01*
X21731530Y-9429329D01*
X21742020Y-9407151D01*
X21754633Y-9386107D01*
X21769247Y-9366402D01*
X21785723Y-9348223D01*
X21803902Y-9331747D01*
X21823607Y-9317133D01*
X21844651Y-9304520D01*
X21866829Y-9294030D01*
X21889929Y-9285765D01*
X21913727Y-9279804D01*
X21937996Y-9276204D01*
X21962500Y-9275000D01*
X22887500Y-9275000D01*
X22912004Y-9276204D01*
X22912004Y-9276204D01*
G37*
D20*
X22425000Y-10150000D03*
D10*
G36*
X13674505Y-5526204D02*
G01*
X13698773Y-5529804D01*
X13722572Y-5535765D01*
X13745671Y-5544030D01*
X13767850Y-5554520D01*
X13788893Y-5567132D01*
X13808599Y-5581747D01*
X13826777Y-5598223D01*
X13843253Y-5616401D01*
X13857868Y-5636107D01*
X13870480Y-5657150D01*
X13880970Y-5679329D01*
X13889235Y-5702428D01*
X13895196Y-5726227D01*
X13898796Y-5750495D01*
X13900000Y-5774999D01*
X13900000Y-6425001D01*
X13898796Y-6449505D01*
X13895196Y-6473773D01*
X13889235Y-6497572D01*
X13880970Y-6520671D01*
X13870480Y-6542850D01*
X13857868Y-6563893D01*
X13843253Y-6583599D01*
X13826777Y-6601777D01*
X13808599Y-6618253D01*
X13788893Y-6632868D01*
X13767850Y-6645480D01*
X13745671Y-6655970D01*
X13722572Y-6664235D01*
X13698773Y-6670196D01*
X13674505Y-6673796D01*
X13650001Y-6675000D01*
X12749999Y-6675000D01*
X12725495Y-6673796D01*
X12701227Y-6670196D01*
X12677428Y-6664235D01*
X12654329Y-6655970D01*
X12632150Y-6645480D01*
X12611107Y-6632868D01*
X12591401Y-6618253D01*
X12573223Y-6601777D01*
X12556747Y-6583599D01*
X12542132Y-6563893D01*
X12529520Y-6542850D01*
X12519030Y-6520671D01*
X12510765Y-6497572D01*
X12504804Y-6473773D01*
X12501204Y-6449505D01*
X12500000Y-6425001D01*
X12500000Y-5774999D01*
X12501204Y-5750495D01*
X12504804Y-5726227D01*
X12510765Y-5702428D01*
X12519030Y-5679329D01*
X12529520Y-5657150D01*
X12542132Y-5636107D01*
X12556747Y-5616401D01*
X12573223Y-5598223D01*
X12591401Y-5581747D01*
X12611107Y-5567132D01*
X12632150Y-5554520D01*
X12654329Y-5544030D01*
X12677428Y-5535765D01*
X12701227Y-5529804D01*
X12725495Y-5526204D01*
X12749999Y-5525000D01*
X13650001Y-5525000D01*
X13674505Y-5526204D01*
X13674505Y-5526204D01*
G37*
D21*
X13200000Y-6100000D03*
D10*
G36*
X13674505Y-7576204D02*
G01*
X13698773Y-7579804D01*
X13722572Y-7585765D01*
X13745671Y-7594030D01*
X13767850Y-7604520D01*
X13788893Y-7617132D01*
X13808599Y-7631747D01*
X13826777Y-7648223D01*
X13843253Y-7666401D01*
X13857868Y-7686107D01*
X13870480Y-7707150D01*
X13880970Y-7729329D01*
X13889235Y-7752428D01*
X13895196Y-7776227D01*
X13898796Y-7800495D01*
X13900000Y-7824999D01*
X13900000Y-8475001D01*
X13898796Y-8499505D01*
X13895196Y-8523773D01*
X13889235Y-8547572D01*
X13880970Y-8570671D01*
X13870480Y-8592850D01*
X13857868Y-8613893D01*
X13843253Y-8633599D01*
X13826777Y-8651777D01*
X13808599Y-8668253D01*
X13788893Y-8682868D01*
X13767850Y-8695480D01*
X13745671Y-8705970D01*
X13722572Y-8714235D01*
X13698773Y-8720196D01*
X13674505Y-8723796D01*
X13650001Y-8725000D01*
X12749999Y-8725000D01*
X12725495Y-8723796D01*
X12701227Y-8720196D01*
X12677428Y-8714235D01*
X12654329Y-8705970D01*
X12632150Y-8695480D01*
X12611107Y-8682868D01*
X12591401Y-8668253D01*
X12573223Y-8651777D01*
X12556747Y-8633599D01*
X12542132Y-8613893D01*
X12529520Y-8592850D01*
X12519030Y-8570671D01*
X12510765Y-8547572D01*
X12504804Y-8523773D01*
X12501204Y-8499505D01*
X12500000Y-8475001D01*
X12500000Y-7824999D01*
X12501204Y-7800495D01*
X12504804Y-7776227D01*
X12510765Y-7752428D01*
X12519030Y-7729329D01*
X12529520Y-7707150D01*
X12542132Y-7686107D01*
X12556747Y-7666401D01*
X12573223Y-7648223D01*
X12591401Y-7631747D01*
X12611107Y-7617132D01*
X12632150Y-7604520D01*
X12654329Y-7594030D01*
X12677428Y-7585765D01*
X12701227Y-7579804D01*
X12725495Y-7576204D01*
X12749999Y-7575000D01*
X13650001Y-7575000D01*
X13674505Y-7576204D01*
X13674505Y-7576204D01*
G37*
D21*
X13200000Y-8150000D03*
D10*
G36*
X23410779Y-11976144D02*
G01*
X23433834Y-11979563D01*
X23456443Y-11985227D01*
X23478387Y-11993079D01*
X23499457Y-12003044D01*
X23519448Y-12015026D01*
X23538168Y-12028910D01*
X23555438Y-12044562D01*
X23571090Y-12061832D01*
X23584974Y-12080552D01*
X23596956Y-12100543D01*
X23606921Y-12121613D01*
X23614773Y-12143557D01*
X23620437Y-12166166D01*
X23623856Y-12189221D01*
X23625000Y-12212500D01*
X23625000Y-12687500D01*
X23623856Y-12710779D01*
X23620437Y-12733834D01*
X23614773Y-12756443D01*
X23606921Y-12778387D01*
X23596956Y-12799457D01*
X23584974Y-12819448D01*
X23571090Y-12838168D01*
X23555438Y-12855438D01*
X23538168Y-12871090D01*
X23519448Y-12884974D01*
X23499457Y-12896956D01*
X23478387Y-12906921D01*
X23456443Y-12914773D01*
X23433834Y-12920437D01*
X23410779Y-12923856D01*
X23387500Y-12925000D01*
X22812500Y-12925000D01*
X22789221Y-12923856D01*
X22766166Y-12920437D01*
X22743557Y-12914773D01*
X22721613Y-12906921D01*
X22700543Y-12896956D01*
X22680552Y-12884974D01*
X22661832Y-12871090D01*
X22644562Y-12855438D01*
X22628910Y-12838168D01*
X22615026Y-12819448D01*
X22603044Y-12799457D01*
X22593079Y-12778387D01*
X22585227Y-12756443D01*
X22579563Y-12733834D01*
X22576144Y-12710779D01*
X22575000Y-12687500D01*
X22575000Y-12212500D01*
X22576144Y-12189221D01*
X22579563Y-12166166D01*
X22585227Y-12143557D01*
X22593079Y-12121613D01*
X22603044Y-12100543D01*
X22615026Y-12080552D01*
X22628910Y-12061832D01*
X22644562Y-12044562D01*
X22661832Y-12028910D01*
X22680552Y-12015026D01*
X22700543Y-12003044D01*
X22721613Y-11993079D01*
X22743557Y-11985227D01*
X22766166Y-11979563D01*
X22789221Y-11976144D01*
X22812500Y-11975000D01*
X23387500Y-11975000D01*
X23410779Y-11976144D01*
X23410779Y-11976144D01*
G37*
D11*
X23100000Y-12450000D03*
D10*
G36*
X25160779Y-11976144D02*
G01*
X25183834Y-11979563D01*
X25206443Y-11985227D01*
X25228387Y-11993079D01*
X25249457Y-12003044D01*
X25269448Y-12015026D01*
X25288168Y-12028910D01*
X25305438Y-12044562D01*
X25321090Y-12061832D01*
X25334974Y-12080552D01*
X25346956Y-12100543D01*
X25356921Y-12121613D01*
X25364773Y-12143557D01*
X25370437Y-12166166D01*
X25373856Y-12189221D01*
X25375000Y-12212500D01*
X25375000Y-12687500D01*
X25373856Y-12710779D01*
X25370437Y-12733834D01*
X25364773Y-12756443D01*
X25356921Y-12778387D01*
X25346956Y-12799457D01*
X25334974Y-12819448D01*
X25321090Y-12838168D01*
X25305438Y-12855438D01*
X25288168Y-12871090D01*
X25269448Y-12884974D01*
X25249457Y-12896956D01*
X25228387Y-12906921D01*
X25206443Y-12914773D01*
X25183834Y-12920437D01*
X25160779Y-12923856D01*
X25137500Y-12925000D01*
X24562500Y-12925000D01*
X24539221Y-12923856D01*
X24516166Y-12920437D01*
X24493557Y-12914773D01*
X24471613Y-12906921D01*
X24450543Y-12896956D01*
X24430552Y-12884974D01*
X24411832Y-12871090D01*
X24394562Y-12855438D01*
X24378910Y-12838168D01*
X24365026Y-12819448D01*
X24353044Y-12799457D01*
X24343079Y-12778387D01*
X24335227Y-12756443D01*
X24329563Y-12733834D01*
X24326144Y-12710779D01*
X24325000Y-12687500D01*
X24325000Y-12212500D01*
X24326144Y-12189221D01*
X24329563Y-12166166D01*
X24335227Y-12143557D01*
X24343079Y-12121613D01*
X24353044Y-12100543D01*
X24365026Y-12080552D01*
X24378910Y-12061832D01*
X24394562Y-12044562D01*
X24411832Y-12028910D01*
X24430552Y-12015026D01*
X24450543Y-12003044D01*
X24471613Y-11993079D01*
X24493557Y-11985227D01*
X24516166Y-11979563D01*
X24539221Y-11976144D01*
X24562500Y-11975000D01*
X25137500Y-11975000D01*
X25160779Y-11976144D01*
X25160779Y-11976144D01*
G37*
D11*
X24850000Y-12450000D03*
D10*
G36*
X26560779Y-22526144D02*
G01*
X26583834Y-22529563D01*
X26606443Y-22535227D01*
X26628387Y-22543079D01*
X26649457Y-22553044D01*
X26669448Y-22565026D01*
X26688168Y-22578910D01*
X26705438Y-22594562D01*
X26721090Y-22611832D01*
X26734974Y-22630552D01*
X26746956Y-22650543D01*
X26756921Y-22671613D01*
X26764773Y-22693557D01*
X26770437Y-22716166D01*
X26773856Y-22739221D01*
X26775000Y-22762500D01*
X26775000Y-23237500D01*
X26773856Y-23260779D01*
X26770437Y-23283834D01*
X26764773Y-23306443D01*
X26756921Y-23328387D01*
X26746956Y-23349457D01*
X26734974Y-23369448D01*
X26721090Y-23388168D01*
X26705438Y-23405438D01*
X26688168Y-23421090D01*
X26669448Y-23434974D01*
X26649457Y-23446956D01*
X26628387Y-23456921D01*
X26606443Y-23464773D01*
X26583834Y-23470437D01*
X26560779Y-23473856D01*
X26537500Y-23475000D01*
X25962500Y-23475000D01*
X25939221Y-23473856D01*
X25916166Y-23470437D01*
X25893557Y-23464773D01*
X25871613Y-23456921D01*
X25850543Y-23446956D01*
X25830552Y-23434974D01*
X25811832Y-23421090D01*
X25794562Y-23405438D01*
X25778910Y-23388168D01*
X25765026Y-23369448D01*
X25753044Y-23349457D01*
X25743079Y-23328387D01*
X25735227Y-23306443D01*
X25729563Y-23283834D01*
X25726144Y-23260779D01*
X25725000Y-23237500D01*
X25725000Y-22762500D01*
X25726144Y-22739221D01*
X25729563Y-22716166D01*
X25735227Y-22693557D01*
X25743079Y-22671613D01*
X25753044Y-22650543D01*
X25765026Y-22630552D01*
X25778910Y-22611832D01*
X25794562Y-22594562D01*
X25811832Y-22578910D01*
X25830552Y-22565026D01*
X25850543Y-22553044D01*
X25871613Y-22543079D01*
X25893557Y-22535227D01*
X25916166Y-22529563D01*
X25939221Y-22526144D01*
X25962500Y-22525000D01*
X26537500Y-22525000D01*
X26560779Y-22526144D01*
X26560779Y-22526144D01*
G37*
D11*
X26250000Y-23000000D03*
D10*
G36*
X24810779Y-22526144D02*
G01*
X24833834Y-22529563D01*
X24856443Y-22535227D01*
X24878387Y-22543079D01*
X24899457Y-22553044D01*
X24919448Y-22565026D01*
X24938168Y-22578910D01*
X24955438Y-22594562D01*
X24971090Y-22611832D01*
X24984974Y-22630552D01*
X24996956Y-22650543D01*
X25006921Y-22671613D01*
X25014773Y-22693557D01*
X25020437Y-22716166D01*
X25023856Y-22739221D01*
X25025000Y-22762500D01*
X25025000Y-23237500D01*
X25023856Y-23260779D01*
X25020437Y-23283834D01*
X25014773Y-23306443D01*
X25006921Y-23328387D01*
X24996956Y-23349457D01*
X24984974Y-23369448D01*
X24971090Y-23388168D01*
X24955438Y-23405438D01*
X24938168Y-23421090D01*
X24919448Y-23434974D01*
X24899457Y-23446956D01*
X24878387Y-23456921D01*
X24856443Y-23464773D01*
X24833834Y-23470437D01*
X24810779Y-23473856D01*
X24787500Y-23475000D01*
X24212500Y-23475000D01*
X24189221Y-23473856D01*
X24166166Y-23470437D01*
X24143557Y-23464773D01*
X24121613Y-23456921D01*
X24100543Y-23446956D01*
X24080552Y-23434974D01*
X24061832Y-23421090D01*
X24044562Y-23405438D01*
X24028910Y-23388168D01*
X24015026Y-23369448D01*
X24003044Y-23349457D01*
X23993079Y-23328387D01*
X23985227Y-23306443D01*
X23979563Y-23283834D01*
X23976144Y-23260779D01*
X23975000Y-23237500D01*
X23975000Y-22762500D01*
X23976144Y-22739221D01*
X23979563Y-22716166D01*
X23985227Y-22693557D01*
X23993079Y-22671613D01*
X24003044Y-22650543D01*
X24015026Y-22630552D01*
X24028910Y-22611832D01*
X24044562Y-22594562D01*
X24061832Y-22578910D01*
X24080552Y-22565026D01*
X24100543Y-22553044D01*
X24121613Y-22543079D01*
X24143557Y-22535227D01*
X24166166Y-22529563D01*
X24189221Y-22526144D01*
X24212500Y-22525000D01*
X24787500Y-22525000D01*
X24810779Y-22526144D01*
X24810779Y-22526144D01*
G37*
D11*
X24500000Y-23000000D03*
D10*
G36*
X55485779Y-28126144D02*
G01*
X55508834Y-28129563D01*
X55531443Y-28135227D01*
X55553387Y-28143079D01*
X55574457Y-28153044D01*
X55594448Y-28165026D01*
X55613168Y-28178910D01*
X55630438Y-28194562D01*
X55646090Y-28211832D01*
X55659974Y-28230552D01*
X55671956Y-28250543D01*
X55681921Y-28271613D01*
X55689773Y-28293557D01*
X55695437Y-28316166D01*
X55698856Y-28339221D01*
X55700000Y-28362500D01*
X55700000Y-28837500D01*
X55698856Y-28860779D01*
X55695437Y-28883834D01*
X55689773Y-28906443D01*
X55681921Y-28928387D01*
X55671956Y-28949457D01*
X55659974Y-28969448D01*
X55646090Y-28988168D01*
X55630438Y-29005438D01*
X55613168Y-29021090D01*
X55594448Y-29034974D01*
X55574457Y-29046956D01*
X55553387Y-29056921D01*
X55531443Y-29064773D01*
X55508834Y-29070437D01*
X55485779Y-29073856D01*
X55462500Y-29075000D01*
X54887500Y-29075000D01*
X54864221Y-29073856D01*
X54841166Y-29070437D01*
X54818557Y-29064773D01*
X54796613Y-29056921D01*
X54775543Y-29046956D01*
X54755552Y-29034974D01*
X54736832Y-29021090D01*
X54719562Y-29005438D01*
X54703910Y-28988168D01*
X54690026Y-28969448D01*
X54678044Y-28949457D01*
X54668079Y-28928387D01*
X54660227Y-28906443D01*
X54654563Y-28883834D01*
X54651144Y-28860779D01*
X54650000Y-28837500D01*
X54650000Y-28362500D01*
X54651144Y-28339221D01*
X54654563Y-28316166D01*
X54660227Y-28293557D01*
X54668079Y-28271613D01*
X54678044Y-28250543D01*
X54690026Y-28230552D01*
X54703910Y-28211832D01*
X54719562Y-28194562D01*
X54736832Y-28178910D01*
X54755552Y-28165026D01*
X54775543Y-28153044D01*
X54796613Y-28143079D01*
X54818557Y-28135227D01*
X54841166Y-28129563D01*
X54864221Y-28126144D01*
X54887500Y-28125000D01*
X55462500Y-28125000D01*
X55485779Y-28126144D01*
X55485779Y-28126144D01*
G37*
D11*
X55175000Y-28600000D03*
D10*
G36*
X53735779Y-28126144D02*
G01*
X53758834Y-28129563D01*
X53781443Y-28135227D01*
X53803387Y-28143079D01*
X53824457Y-28153044D01*
X53844448Y-28165026D01*
X53863168Y-28178910D01*
X53880438Y-28194562D01*
X53896090Y-28211832D01*
X53909974Y-28230552D01*
X53921956Y-28250543D01*
X53931921Y-28271613D01*
X53939773Y-28293557D01*
X53945437Y-28316166D01*
X53948856Y-28339221D01*
X53950000Y-28362500D01*
X53950000Y-28837500D01*
X53948856Y-28860779D01*
X53945437Y-28883834D01*
X53939773Y-28906443D01*
X53931921Y-28928387D01*
X53921956Y-28949457D01*
X53909974Y-28969448D01*
X53896090Y-28988168D01*
X53880438Y-29005438D01*
X53863168Y-29021090D01*
X53844448Y-29034974D01*
X53824457Y-29046956D01*
X53803387Y-29056921D01*
X53781443Y-29064773D01*
X53758834Y-29070437D01*
X53735779Y-29073856D01*
X53712500Y-29075000D01*
X53137500Y-29075000D01*
X53114221Y-29073856D01*
X53091166Y-29070437D01*
X53068557Y-29064773D01*
X53046613Y-29056921D01*
X53025543Y-29046956D01*
X53005552Y-29034974D01*
X52986832Y-29021090D01*
X52969562Y-29005438D01*
X52953910Y-28988168D01*
X52940026Y-28969448D01*
X52928044Y-28949457D01*
X52918079Y-28928387D01*
X52910227Y-28906443D01*
X52904563Y-28883834D01*
X52901144Y-28860779D01*
X52900000Y-28837500D01*
X52900000Y-28362500D01*
X52901144Y-28339221D01*
X52904563Y-28316166D01*
X52910227Y-28293557D01*
X52918079Y-28271613D01*
X52928044Y-28250543D01*
X52940026Y-28230552D01*
X52953910Y-28211832D01*
X52969562Y-28194562D01*
X52986832Y-28178910D01*
X53005552Y-28165026D01*
X53025543Y-28153044D01*
X53046613Y-28143079D01*
X53068557Y-28135227D01*
X53091166Y-28129563D01*
X53114221Y-28126144D01*
X53137500Y-28125000D01*
X53712500Y-28125000D01*
X53735779Y-28126144D01*
X53735779Y-28126144D01*
G37*
D11*
X53425000Y-28600000D03*
D10*
G36*
X35210779Y-32376144D02*
G01*
X35233834Y-32379563D01*
X35256443Y-32385227D01*
X35278387Y-32393079D01*
X35299457Y-32403044D01*
X35319448Y-32415026D01*
X35338168Y-32428910D01*
X35355438Y-32444562D01*
X35371090Y-32461832D01*
X35384974Y-32480552D01*
X35396956Y-32500543D01*
X35406921Y-32521613D01*
X35414773Y-32543557D01*
X35420437Y-32566166D01*
X35423856Y-32589221D01*
X35425000Y-32612500D01*
X35425000Y-33087500D01*
X35423856Y-33110779D01*
X35420437Y-33133834D01*
X35414773Y-33156443D01*
X35406921Y-33178387D01*
X35396956Y-33199457D01*
X35384974Y-33219448D01*
X35371090Y-33238168D01*
X35355438Y-33255438D01*
X35338168Y-33271090D01*
X35319448Y-33284974D01*
X35299457Y-33296956D01*
X35278387Y-33306921D01*
X35256443Y-33314773D01*
X35233834Y-33320437D01*
X35210779Y-33323856D01*
X35187500Y-33325000D01*
X34612500Y-33325000D01*
X34589221Y-33323856D01*
X34566166Y-33320437D01*
X34543557Y-33314773D01*
X34521613Y-33306921D01*
X34500543Y-33296956D01*
X34480552Y-33284974D01*
X34461832Y-33271090D01*
X34444562Y-33255438D01*
X34428910Y-33238168D01*
X34415026Y-33219448D01*
X34403044Y-33199457D01*
X34393079Y-33178387D01*
X34385227Y-33156443D01*
X34379563Y-33133834D01*
X34376144Y-33110779D01*
X34375000Y-33087500D01*
X34375000Y-32612500D01*
X34376144Y-32589221D01*
X34379563Y-32566166D01*
X34385227Y-32543557D01*
X34393079Y-32521613D01*
X34403044Y-32500543D01*
X34415026Y-32480552D01*
X34428910Y-32461832D01*
X34444562Y-32444562D01*
X34461832Y-32428910D01*
X34480552Y-32415026D01*
X34500543Y-32403044D01*
X34521613Y-32393079D01*
X34543557Y-32385227D01*
X34566166Y-32379563D01*
X34589221Y-32376144D01*
X34612500Y-32375000D01*
X35187500Y-32375000D01*
X35210779Y-32376144D01*
X35210779Y-32376144D01*
G37*
D11*
X34900000Y-32850000D03*
D10*
G36*
X36960779Y-32376144D02*
G01*
X36983834Y-32379563D01*
X37006443Y-32385227D01*
X37028387Y-32393079D01*
X37049457Y-32403044D01*
X37069448Y-32415026D01*
X37088168Y-32428910D01*
X37105438Y-32444562D01*
X37121090Y-32461832D01*
X37134974Y-32480552D01*
X37146956Y-32500543D01*
X37156921Y-32521613D01*
X37164773Y-32543557D01*
X37170437Y-32566166D01*
X37173856Y-32589221D01*
X37175000Y-32612500D01*
X37175000Y-33087500D01*
X37173856Y-33110779D01*
X37170437Y-33133834D01*
X37164773Y-33156443D01*
X37156921Y-33178387D01*
X37146956Y-33199457D01*
X37134974Y-33219448D01*
X37121090Y-33238168D01*
X37105438Y-33255438D01*
X37088168Y-33271090D01*
X37069448Y-33284974D01*
X37049457Y-33296956D01*
X37028387Y-33306921D01*
X37006443Y-33314773D01*
X36983834Y-33320437D01*
X36960779Y-33323856D01*
X36937500Y-33325000D01*
X36362500Y-33325000D01*
X36339221Y-33323856D01*
X36316166Y-33320437D01*
X36293557Y-33314773D01*
X36271613Y-33306921D01*
X36250543Y-33296956D01*
X36230552Y-33284974D01*
X36211832Y-33271090D01*
X36194562Y-33255438D01*
X36178910Y-33238168D01*
X36165026Y-33219448D01*
X36153044Y-33199457D01*
X36143079Y-33178387D01*
X36135227Y-33156443D01*
X36129563Y-33133834D01*
X36126144Y-33110779D01*
X36125000Y-33087500D01*
X36125000Y-32612500D01*
X36126144Y-32589221D01*
X36129563Y-32566166D01*
X36135227Y-32543557D01*
X36143079Y-32521613D01*
X36153044Y-32500543D01*
X36165026Y-32480552D01*
X36178910Y-32461832D01*
X36194562Y-32444562D01*
X36211832Y-32428910D01*
X36230552Y-32415026D01*
X36250543Y-32403044D01*
X36271613Y-32393079D01*
X36293557Y-32385227D01*
X36316166Y-32379563D01*
X36339221Y-32376144D01*
X36362500Y-32375000D01*
X36937500Y-32375000D01*
X36960779Y-32376144D01*
X36960779Y-32376144D01*
G37*
D11*
X36650000Y-32850000D03*
D10*
G36*
X15025304Y-15344104D02*
G01*
X15049573Y-15347704D01*
X15073371Y-15353665D01*
X15096471Y-15361930D01*
X15118649Y-15372420D01*
X15139693Y-15385033D01*
X15159398Y-15399647D01*
X15177577Y-15416123D01*
X15194053Y-15434302D01*
X15208667Y-15454007D01*
X15221280Y-15475051D01*
X15231770Y-15497229D01*
X15240035Y-15520329D01*
X15245996Y-15544127D01*
X15249596Y-15568396D01*
X15250800Y-15592900D01*
X15250800Y-16842900D01*
X15249596Y-16867404D01*
X15245996Y-16891673D01*
X15240035Y-16915471D01*
X15231770Y-16938571D01*
X15221280Y-16960749D01*
X15208667Y-16981793D01*
X15194053Y-17001498D01*
X15177577Y-17019677D01*
X15159398Y-17036153D01*
X15139693Y-17050767D01*
X15118649Y-17063380D01*
X15096471Y-17073870D01*
X15073371Y-17082135D01*
X15049573Y-17088096D01*
X15025304Y-17091696D01*
X15000800Y-17092900D01*
X14075800Y-17092900D01*
X14051296Y-17091696D01*
X14027027Y-17088096D01*
X14003229Y-17082135D01*
X13980129Y-17073870D01*
X13957951Y-17063380D01*
X13936907Y-17050767D01*
X13917202Y-17036153D01*
X13899023Y-17019677D01*
X13882547Y-17001498D01*
X13867933Y-16981793D01*
X13855320Y-16960749D01*
X13844830Y-16938571D01*
X13836565Y-16915471D01*
X13830604Y-16891673D01*
X13827004Y-16867404D01*
X13825800Y-16842900D01*
X13825800Y-15592900D01*
X13827004Y-15568396D01*
X13830604Y-15544127D01*
X13836565Y-15520329D01*
X13844830Y-15497229D01*
X13855320Y-15475051D01*
X13867933Y-15454007D01*
X13882547Y-15434302D01*
X13899023Y-15416123D01*
X13917202Y-15399647D01*
X13936907Y-15385033D01*
X13957951Y-15372420D01*
X13980129Y-15361930D01*
X14003229Y-15353665D01*
X14027027Y-15347704D01*
X14051296Y-15344104D01*
X14075800Y-15342900D01*
X15000800Y-15342900D01*
X15025304Y-15344104D01*
X15025304Y-15344104D01*
G37*
D20*
X14538300Y-16217900D03*
D10*
G36*
X18000304Y-15344104D02*
G01*
X18024573Y-15347704D01*
X18048371Y-15353665D01*
X18071471Y-15361930D01*
X18093649Y-15372420D01*
X18114693Y-15385033D01*
X18134398Y-15399647D01*
X18152577Y-15416123D01*
X18169053Y-15434302D01*
X18183667Y-15454007D01*
X18196280Y-15475051D01*
X18206770Y-15497229D01*
X18215035Y-15520329D01*
X18220996Y-15544127D01*
X18224596Y-15568396D01*
X18225800Y-15592900D01*
X18225800Y-16842900D01*
X18224596Y-16867404D01*
X18220996Y-16891673D01*
X18215035Y-16915471D01*
X18206770Y-16938571D01*
X18196280Y-16960749D01*
X18183667Y-16981793D01*
X18169053Y-17001498D01*
X18152577Y-17019677D01*
X18134398Y-17036153D01*
X18114693Y-17050767D01*
X18093649Y-17063380D01*
X18071471Y-17073870D01*
X18048371Y-17082135D01*
X18024573Y-17088096D01*
X18000304Y-17091696D01*
X17975800Y-17092900D01*
X17050800Y-17092900D01*
X17026296Y-17091696D01*
X17002027Y-17088096D01*
X16978229Y-17082135D01*
X16955129Y-17073870D01*
X16932951Y-17063380D01*
X16911907Y-17050767D01*
X16892202Y-17036153D01*
X16874023Y-17019677D01*
X16857547Y-17001498D01*
X16842933Y-16981793D01*
X16830320Y-16960749D01*
X16819830Y-16938571D01*
X16811565Y-16915471D01*
X16805604Y-16891673D01*
X16802004Y-16867404D01*
X16800800Y-16842900D01*
X16800800Y-15592900D01*
X16802004Y-15568396D01*
X16805604Y-15544127D01*
X16811565Y-15520329D01*
X16819830Y-15497229D01*
X16830320Y-15475051D01*
X16842933Y-15454007D01*
X16857547Y-15434302D01*
X16874023Y-15416123D01*
X16892202Y-15399647D01*
X16911907Y-15385033D01*
X16932951Y-15372420D01*
X16955129Y-15361930D01*
X16978229Y-15353665D01*
X17002027Y-15347704D01*
X17026296Y-15344104D01*
X17050800Y-15342900D01*
X17975800Y-15342900D01*
X18000304Y-15344104D01*
X18000304Y-15344104D01*
G37*
D20*
X17513300Y-16217900D03*
D10*
G36*
X73060779Y-12826144D02*
G01*
X73083834Y-12829563D01*
X73106443Y-12835227D01*
X73128387Y-12843079D01*
X73149457Y-12853044D01*
X73169448Y-12865026D01*
X73188168Y-12878910D01*
X73205438Y-12894562D01*
X73221090Y-12911832D01*
X73234974Y-12930552D01*
X73246956Y-12950543D01*
X73256921Y-12971613D01*
X73264773Y-12993557D01*
X73270437Y-13016166D01*
X73273856Y-13039221D01*
X73275000Y-13062500D01*
X73275000Y-13637500D01*
X73273856Y-13660779D01*
X73270437Y-13683834D01*
X73264773Y-13706443D01*
X73256921Y-13728387D01*
X73246956Y-13749457D01*
X73234974Y-13769448D01*
X73221090Y-13788168D01*
X73205438Y-13805438D01*
X73188168Y-13821090D01*
X73169448Y-13834974D01*
X73149457Y-13846956D01*
X73128387Y-13856921D01*
X73106443Y-13864773D01*
X73083834Y-13870437D01*
X73060779Y-13873856D01*
X73037500Y-13875000D01*
X72562500Y-13875000D01*
X72539221Y-13873856D01*
X72516166Y-13870437D01*
X72493557Y-13864773D01*
X72471613Y-13856921D01*
X72450543Y-13846956D01*
X72430552Y-13834974D01*
X72411832Y-13821090D01*
X72394562Y-13805438D01*
X72378910Y-13788168D01*
X72365026Y-13769448D01*
X72353044Y-13749457D01*
X72343079Y-13728387D01*
X72335227Y-13706443D01*
X72329563Y-13683834D01*
X72326144Y-13660779D01*
X72325000Y-13637500D01*
X72325000Y-13062500D01*
X72326144Y-13039221D01*
X72329563Y-13016166D01*
X72335227Y-12993557D01*
X72343079Y-12971613D01*
X72353044Y-12950543D01*
X72365026Y-12930552D01*
X72378910Y-12911832D01*
X72394562Y-12894562D01*
X72411832Y-12878910D01*
X72430552Y-12865026D01*
X72450543Y-12853044D01*
X72471613Y-12843079D01*
X72493557Y-12835227D01*
X72516166Y-12829563D01*
X72539221Y-12826144D01*
X72562500Y-12825000D01*
X73037500Y-12825000D01*
X73060779Y-12826144D01*
X73060779Y-12826144D01*
G37*
D11*
X72800000Y-13350000D03*
D10*
G36*
X73060779Y-11076144D02*
G01*
X73083834Y-11079563D01*
X73106443Y-11085227D01*
X73128387Y-11093079D01*
X73149457Y-11103044D01*
X73169448Y-11115026D01*
X73188168Y-11128910D01*
X73205438Y-11144562D01*
X73221090Y-11161832D01*
X73234974Y-11180552D01*
X73246956Y-11200543D01*
X73256921Y-11221613D01*
X73264773Y-11243557D01*
X73270437Y-11266166D01*
X73273856Y-11289221D01*
X73275000Y-11312500D01*
X73275000Y-11887500D01*
X73273856Y-11910779D01*
X73270437Y-11933834D01*
X73264773Y-11956443D01*
X73256921Y-11978387D01*
X73246956Y-11999457D01*
X73234974Y-12019448D01*
X73221090Y-12038168D01*
X73205438Y-12055438D01*
X73188168Y-12071090D01*
X73169448Y-12084974D01*
X73149457Y-12096956D01*
X73128387Y-12106921D01*
X73106443Y-12114773D01*
X73083834Y-12120437D01*
X73060779Y-12123856D01*
X73037500Y-12125000D01*
X72562500Y-12125000D01*
X72539221Y-12123856D01*
X72516166Y-12120437D01*
X72493557Y-12114773D01*
X72471613Y-12106921D01*
X72450543Y-12096956D01*
X72430552Y-12084974D01*
X72411832Y-12071090D01*
X72394562Y-12055438D01*
X72378910Y-12038168D01*
X72365026Y-12019448D01*
X72353044Y-11999457D01*
X72343079Y-11978387D01*
X72335227Y-11956443D01*
X72329563Y-11933834D01*
X72326144Y-11910779D01*
X72325000Y-11887500D01*
X72325000Y-11312500D01*
X72326144Y-11289221D01*
X72329563Y-11266166D01*
X72335227Y-11243557D01*
X72343079Y-11221613D01*
X72353044Y-11200543D01*
X72365026Y-11180552D01*
X72378910Y-11161832D01*
X72394562Y-11144562D01*
X72411832Y-11128910D01*
X72430552Y-11115026D01*
X72450543Y-11103044D01*
X72471613Y-11093079D01*
X72493557Y-11085227D01*
X72516166Y-11079563D01*
X72539221Y-11076144D01*
X72562500Y-11075000D01*
X73037500Y-11075000D01*
X73060779Y-11076144D01*
X73060779Y-11076144D01*
G37*
D11*
X72800000Y-11600000D03*
D10*
G36*
X7237004Y-28376204D02*
G01*
X7261273Y-28379804D01*
X7285071Y-28385765D01*
X7308171Y-28394030D01*
X7330349Y-28404520D01*
X7351393Y-28417133D01*
X7371098Y-28431747D01*
X7389277Y-28448223D01*
X7405753Y-28466402D01*
X7420367Y-28486107D01*
X7432980Y-28507151D01*
X7443470Y-28529329D01*
X7451735Y-28552429D01*
X7457696Y-28576227D01*
X7461296Y-28600496D01*
X7462500Y-28625000D01*
X7462500Y-29875000D01*
X7461296Y-29899504D01*
X7457696Y-29923773D01*
X7451735Y-29947571D01*
X7443470Y-29970671D01*
X7432980Y-29992849D01*
X7420367Y-30013893D01*
X7405753Y-30033598D01*
X7389277Y-30051777D01*
X7371098Y-30068253D01*
X7351393Y-30082867D01*
X7330349Y-30095480D01*
X7308171Y-30105970D01*
X7285071Y-30114235D01*
X7261273Y-30120196D01*
X7237004Y-30123796D01*
X7212500Y-30125000D01*
X6287500Y-30125000D01*
X6262996Y-30123796D01*
X6238727Y-30120196D01*
X6214929Y-30114235D01*
X6191829Y-30105970D01*
X6169651Y-30095480D01*
X6148607Y-30082867D01*
X6128902Y-30068253D01*
X6110723Y-30051777D01*
X6094247Y-30033598D01*
X6079633Y-30013893D01*
X6067020Y-29992849D01*
X6056530Y-29970671D01*
X6048265Y-29947571D01*
X6042304Y-29923773D01*
X6038704Y-29899504D01*
X6037500Y-29875000D01*
X6037500Y-28625000D01*
X6038704Y-28600496D01*
X6042304Y-28576227D01*
X6048265Y-28552429D01*
X6056530Y-28529329D01*
X6067020Y-28507151D01*
X6079633Y-28486107D01*
X6094247Y-28466402D01*
X6110723Y-28448223D01*
X6128902Y-28431747D01*
X6148607Y-28417133D01*
X6169651Y-28404520D01*
X6191829Y-28394030D01*
X6214929Y-28385765D01*
X6238727Y-28379804D01*
X6262996Y-28376204D01*
X6287500Y-28375000D01*
X7212500Y-28375000D01*
X7237004Y-28376204D01*
X7237004Y-28376204D01*
G37*
D20*
X6750000Y-29250000D03*
D10*
G36*
X4262004Y-28376204D02*
G01*
X4286273Y-28379804D01*
X4310071Y-28385765D01*
X4333171Y-28394030D01*
X4355349Y-28404520D01*
X4376393Y-28417133D01*
X4396098Y-28431747D01*
X4414277Y-28448223D01*
X4430753Y-28466402D01*
X4445367Y-28486107D01*
X4457980Y-28507151D01*
X4468470Y-28529329D01*
X4476735Y-28552429D01*
X4482696Y-28576227D01*
X4486296Y-28600496D01*
X4487500Y-28625000D01*
X4487500Y-29875000D01*
X4486296Y-29899504D01*
X4482696Y-29923773D01*
X4476735Y-29947571D01*
X4468470Y-29970671D01*
X4457980Y-29992849D01*
X4445367Y-30013893D01*
X4430753Y-30033598D01*
X4414277Y-30051777D01*
X4396098Y-30068253D01*
X4376393Y-30082867D01*
X4355349Y-30095480D01*
X4333171Y-30105970D01*
X4310071Y-30114235D01*
X4286273Y-30120196D01*
X4262004Y-30123796D01*
X4237500Y-30125000D01*
X3312500Y-30125000D01*
X3287996Y-30123796D01*
X3263727Y-30120196D01*
X3239929Y-30114235D01*
X3216829Y-30105970D01*
X3194651Y-30095480D01*
X3173607Y-30082867D01*
X3153902Y-30068253D01*
X3135723Y-30051777D01*
X3119247Y-30033598D01*
X3104633Y-30013893D01*
X3092020Y-29992849D01*
X3081530Y-29970671D01*
X3073265Y-29947571D01*
X3067304Y-29923773D01*
X3063704Y-29899504D01*
X3062500Y-29875000D01*
X3062500Y-28625000D01*
X3063704Y-28600496D01*
X3067304Y-28576227D01*
X3073265Y-28552429D01*
X3081530Y-28529329D01*
X3092020Y-28507151D01*
X3104633Y-28486107D01*
X3119247Y-28466402D01*
X3135723Y-28448223D01*
X3153902Y-28431747D01*
X3173607Y-28417133D01*
X3194651Y-28404520D01*
X3216829Y-28394030D01*
X3239929Y-28385765D01*
X3263727Y-28379804D01*
X3287996Y-28376204D01*
X3312500Y-28375000D01*
X4237500Y-28375000D01*
X4262004Y-28376204D01*
X4262004Y-28376204D01*
G37*
D20*
X3775000Y-29250000D03*
D22*
X12000000Y-41750000D03*
X12000000Y-36750000D03*
X15500000Y-36750000D03*
X15500000Y-41750000D03*
D23*
X8500000Y-32500000D03*
X3500000Y-32500000D03*
D22*
X8500000Y-36750000D03*
X8500000Y-41750000D03*
X19000000Y-41750000D03*
X19000000Y-36750000D03*
D23*
X17750000Y-32500000D03*
X12750000Y-32500000D03*
D24*
X29036000Y-41952000D03*
X49636000Y-41952000D03*
D25*
X31836000Y-39252000D03*
X32836000Y-39252000D03*
X33836000Y-39252000D03*
X34836000Y-39252000D03*
X35836000Y-39252000D03*
X36836000Y-39252000D03*
X37836000Y-39252000D03*
X38836000Y-39252000D03*
X39836000Y-39252000D03*
X40836000Y-39252000D03*
X41836000Y-39252000D03*
X42836000Y-39252000D03*
X43836000Y-39252000D03*
X44836000Y-39252000D03*
X45836000Y-39252000D03*
X46836000Y-39252000D03*
D26*
X2462500Y-38500000D03*
D27*
X5162500Y-39500000D03*
X5162500Y-40150000D03*
X5162500Y-40800000D03*
X5162500Y-38200000D03*
X5162500Y-38850000D03*
D26*
X2462500Y-40500000D03*
D28*
X86950000Y-9300000D03*
X86000000Y-7300000D03*
X87900000Y-7300000D03*
X79600000Y-7300000D03*
X77700000Y-7300000D03*
X78650000Y-9300000D03*
D15*
X61300000Y-12475000D03*
X61300000Y-10575000D03*
X59300000Y-11525000D03*
D10*
G36*
X53410779Y-10776144D02*
G01*
X53433834Y-10779563D01*
X53456443Y-10785227D01*
X53478387Y-10793079D01*
X53499457Y-10803044D01*
X53519448Y-10815026D01*
X53538168Y-10828910D01*
X53555438Y-10844562D01*
X53571090Y-10861832D01*
X53584974Y-10880552D01*
X53596956Y-10900543D01*
X53606921Y-10921613D01*
X53614773Y-10943557D01*
X53620437Y-10966166D01*
X53623856Y-10989221D01*
X53625000Y-11012500D01*
X53625000Y-11487500D01*
X53623856Y-11510779D01*
X53620437Y-11533834D01*
X53614773Y-11556443D01*
X53606921Y-11578387D01*
X53596956Y-11599457D01*
X53584974Y-11619448D01*
X53571090Y-11638168D01*
X53555438Y-11655438D01*
X53538168Y-11671090D01*
X53519448Y-11684974D01*
X53499457Y-11696956D01*
X53478387Y-11706921D01*
X53456443Y-11714773D01*
X53433834Y-11720437D01*
X53410779Y-11723856D01*
X53387500Y-11725000D01*
X52812500Y-11725000D01*
X52789221Y-11723856D01*
X52766166Y-11720437D01*
X52743557Y-11714773D01*
X52721613Y-11706921D01*
X52700543Y-11696956D01*
X52680552Y-11684974D01*
X52661832Y-11671090D01*
X52644562Y-11655438D01*
X52628910Y-11638168D01*
X52615026Y-11619448D01*
X52603044Y-11599457D01*
X52593079Y-11578387D01*
X52585227Y-11556443D01*
X52579563Y-11533834D01*
X52576144Y-11510779D01*
X52575000Y-11487500D01*
X52575000Y-11012500D01*
X52576144Y-10989221D01*
X52579563Y-10966166D01*
X52585227Y-10943557D01*
X52593079Y-10921613D01*
X52603044Y-10900543D01*
X52615026Y-10880552D01*
X52628910Y-10861832D01*
X52644562Y-10844562D01*
X52661832Y-10828910D01*
X52680552Y-10815026D01*
X52700543Y-10803044D01*
X52721613Y-10793079D01*
X52743557Y-10785227D01*
X52766166Y-10779563D01*
X52789221Y-10776144D01*
X52812500Y-10775000D01*
X53387500Y-10775000D01*
X53410779Y-10776144D01*
X53410779Y-10776144D01*
G37*
D11*
X53100000Y-11250000D03*
D10*
G36*
X55160779Y-10776144D02*
G01*
X55183834Y-10779563D01*
X55206443Y-10785227D01*
X55228387Y-10793079D01*
X55249457Y-10803044D01*
X55269448Y-10815026D01*
X55288168Y-10828910D01*
X55305438Y-10844562D01*
X55321090Y-10861832D01*
X55334974Y-10880552D01*
X55346956Y-10900543D01*
X55356921Y-10921613D01*
X55364773Y-10943557D01*
X55370437Y-10966166D01*
X55373856Y-10989221D01*
X55375000Y-11012500D01*
X55375000Y-11487500D01*
X55373856Y-11510779D01*
X55370437Y-11533834D01*
X55364773Y-11556443D01*
X55356921Y-11578387D01*
X55346956Y-11599457D01*
X55334974Y-11619448D01*
X55321090Y-11638168D01*
X55305438Y-11655438D01*
X55288168Y-11671090D01*
X55269448Y-11684974D01*
X55249457Y-11696956D01*
X55228387Y-11706921D01*
X55206443Y-11714773D01*
X55183834Y-11720437D01*
X55160779Y-11723856D01*
X55137500Y-11725000D01*
X54562500Y-11725000D01*
X54539221Y-11723856D01*
X54516166Y-11720437D01*
X54493557Y-11714773D01*
X54471613Y-11706921D01*
X54450543Y-11696956D01*
X54430552Y-11684974D01*
X54411832Y-11671090D01*
X54394562Y-11655438D01*
X54378910Y-11638168D01*
X54365026Y-11619448D01*
X54353044Y-11599457D01*
X54343079Y-11578387D01*
X54335227Y-11556443D01*
X54329563Y-11533834D01*
X54326144Y-11510779D01*
X54325000Y-11487500D01*
X54325000Y-11012500D01*
X54326144Y-10989221D01*
X54329563Y-10966166D01*
X54335227Y-10943557D01*
X54343079Y-10921613D01*
X54353044Y-10900543D01*
X54365026Y-10880552D01*
X54378910Y-10861832D01*
X54394562Y-10844562D01*
X54411832Y-10828910D01*
X54430552Y-10815026D01*
X54450543Y-10803044D01*
X54471613Y-10793079D01*
X54493557Y-10785227D01*
X54516166Y-10779563D01*
X54539221Y-10776144D01*
X54562500Y-10775000D01*
X55137500Y-10775000D01*
X55160779Y-10776144D01*
X55160779Y-10776144D01*
G37*
D11*
X54850000Y-11250000D03*
D10*
G36*
X55210779Y-15376144D02*
G01*
X55233834Y-15379563D01*
X55256443Y-15385227D01*
X55278387Y-15393079D01*
X55299457Y-15403044D01*
X55319448Y-15415026D01*
X55338168Y-15428910D01*
X55355438Y-15444562D01*
X55371090Y-15461832D01*
X55384974Y-15480552D01*
X55396956Y-15500543D01*
X55406921Y-15521613D01*
X55414773Y-15543557D01*
X55420437Y-15566166D01*
X55423856Y-15589221D01*
X55425000Y-15612500D01*
X55425000Y-16087500D01*
X55423856Y-16110779D01*
X55420437Y-16133834D01*
X55414773Y-16156443D01*
X55406921Y-16178387D01*
X55396956Y-16199457D01*
X55384974Y-16219448D01*
X55371090Y-16238168D01*
X55355438Y-16255438D01*
X55338168Y-16271090D01*
X55319448Y-16284974D01*
X55299457Y-16296956D01*
X55278387Y-16306921D01*
X55256443Y-16314773D01*
X55233834Y-16320437D01*
X55210779Y-16323856D01*
X55187500Y-16325000D01*
X54612500Y-16325000D01*
X54589221Y-16323856D01*
X54566166Y-16320437D01*
X54543557Y-16314773D01*
X54521613Y-16306921D01*
X54500543Y-16296956D01*
X54480552Y-16284974D01*
X54461832Y-16271090D01*
X54444562Y-16255438D01*
X54428910Y-16238168D01*
X54415026Y-16219448D01*
X54403044Y-16199457D01*
X54393079Y-16178387D01*
X54385227Y-16156443D01*
X54379563Y-16133834D01*
X54376144Y-16110779D01*
X54375000Y-16087500D01*
X54375000Y-15612500D01*
X54376144Y-15589221D01*
X54379563Y-15566166D01*
X54385227Y-15543557D01*
X54393079Y-15521613D01*
X54403044Y-15500543D01*
X54415026Y-15480552D01*
X54428910Y-15461832D01*
X54444562Y-15444562D01*
X54461832Y-15428910D01*
X54480552Y-15415026D01*
X54500543Y-15403044D01*
X54521613Y-15393079D01*
X54543557Y-15385227D01*
X54566166Y-15379563D01*
X54589221Y-15376144D01*
X54612500Y-15375000D01*
X55187500Y-15375000D01*
X55210779Y-15376144D01*
X55210779Y-15376144D01*
G37*
D11*
X54900000Y-15850000D03*
D10*
G36*
X53460779Y-15376144D02*
G01*
X53483834Y-15379563D01*
X53506443Y-15385227D01*
X53528387Y-15393079D01*
X53549457Y-15403044D01*
X53569448Y-15415026D01*
X53588168Y-15428910D01*
X53605438Y-15444562D01*
X53621090Y-15461832D01*
X53634974Y-15480552D01*
X53646956Y-15500543D01*
X53656921Y-15521613D01*
X53664773Y-15543557D01*
X53670437Y-15566166D01*
X53673856Y-15589221D01*
X53675000Y-15612500D01*
X53675000Y-16087500D01*
X53673856Y-16110779D01*
X53670437Y-16133834D01*
X53664773Y-16156443D01*
X53656921Y-16178387D01*
X53646956Y-16199457D01*
X53634974Y-16219448D01*
X53621090Y-16238168D01*
X53605438Y-16255438D01*
X53588168Y-16271090D01*
X53569448Y-16284974D01*
X53549457Y-16296956D01*
X53528387Y-16306921D01*
X53506443Y-16314773D01*
X53483834Y-16320437D01*
X53460779Y-16323856D01*
X53437500Y-16325000D01*
X52862500Y-16325000D01*
X52839221Y-16323856D01*
X52816166Y-16320437D01*
X52793557Y-16314773D01*
X52771613Y-16306921D01*
X52750543Y-16296956D01*
X52730552Y-16284974D01*
X52711832Y-16271090D01*
X52694562Y-16255438D01*
X52678910Y-16238168D01*
X52665026Y-16219448D01*
X52653044Y-16199457D01*
X52643079Y-16178387D01*
X52635227Y-16156443D01*
X52629563Y-16133834D01*
X52626144Y-16110779D01*
X52625000Y-16087500D01*
X52625000Y-15612500D01*
X52626144Y-15589221D01*
X52629563Y-15566166D01*
X52635227Y-15543557D01*
X52643079Y-15521613D01*
X52653044Y-15500543D01*
X52665026Y-15480552D01*
X52678910Y-15461832D01*
X52694562Y-15444562D01*
X52711832Y-15428910D01*
X52730552Y-15415026D01*
X52750543Y-15403044D01*
X52771613Y-15393079D01*
X52793557Y-15385227D01*
X52816166Y-15379563D01*
X52839221Y-15376144D01*
X52862500Y-15375000D01*
X53437500Y-15375000D01*
X53460779Y-15376144D01*
X53460779Y-15376144D01*
G37*
D11*
X53150000Y-15850000D03*
D10*
G36*
X78010779Y-3026144D02*
G01*
X78033834Y-3029563D01*
X78056443Y-3035227D01*
X78078387Y-3043079D01*
X78099457Y-3053044D01*
X78119448Y-3065026D01*
X78138168Y-3078910D01*
X78155438Y-3094562D01*
X78171090Y-3111832D01*
X78184974Y-3130552D01*
X78196956Y-3150543D01*
X78206921Y-3171613D01*
X78214773Y-3193557D01*
X78220437Y-3216166D01*
X78223856Y-3239221D01*
X78225000Y-3262500D01*
X78225000Y-3737500D01*
X78223856Y-3760779D01*
X78220437Y-3783834D01*
X78214773Y-3806443D01*
X78206921Y-3828387D01*
X78196956Y-3849457D01*
X78184974Y-3869448D01*
X78171090Y-3888168D01*
X78155438Y-3905438D01*
X78138168Y-3921090D01*
X78119448Y-3934974D01*
X78099457Y-3946956D01*
X78078387Y-3956921D01*
X78056443Y-3964773D01*
X78033834Y-3970437D01*
X78010779Y-3973856D01*
X77987500Y-3975000D01*
X77412500Y-3975000D01*
X77389221Y-3973856D01*
X77366166Y-3970437D01*
X77343557Y-3964773D01*
X77321613Y-3956921D01*
X77300543Y-3946956D01*
X77280552Y-3934974D01*
X77261832Y-3921090D01*
X77244562Y-3905438D01*
X77228910Y-3888168D01*
X77215026Y-3869448D01*
X77203044Y-3849457D01*
X77193079Y-3828387D01*
X77185227Y-3806443D01*
X77179563Y-3783834D01*
X77176144Y-3760779D01*
X77175000Y-3737500D01*
X77175000Y-3262500D01*
X77176144Y-3239221D01*
X77179563Y-3216166D01*
X77185227Y-3193557D01*
X77193079Y-3171613D01*
X77203044Y-3150543D01*
X77215026Y-3130552D01*
X77228910Y-3111832D01*
X77244562Y-3094562D01*
X77261832Y-3078910D01*
X77280552Y-3065026D01*
X77300543Y-3053044D01*
X77321613Y-3043079D01*
X77343557Y-3035227D01*
X77366166Y-3029563D01*
X77389221Y-3026144D01*
X77412500Y-3025000D01*
X77987500Y-3025000D01*
X78010779Y-3026144D01*
X78010779Y-3026144D01*
G37*
D11*
X77700000Y-3500000D03*
D10*
G36*
X79760779Y-3026144D02*
G01*
X79783834Y-3029563D01*
X79806443Y-3035227D01*
X79828387Y-3043079D01*
X79849457Y-3053044D01*
X79869448Y-3065026D01*
X79888168Y-3078910D01*
X79905438Y-3094562D01*
X79921090Y-3111832D01*
X79934974Y-3130552D01*
X79946956Y-3150543D01*
X79956921Y-3171613D01*
X79964773Y-3193557D01*
X79970437Y-3216166D01*
X79973856Y-3239221D01*
X79975000Y-3262500D01*
X79975000Y-3737500D01*
X79973856Y-3760779D01*
X79970437Y-3783834D01*
X79964773Y-3806443D01*
X79956921Y-3828387D01*
X79946956Y-3849457D01*
X79934974Y-3869448D01*
X79921090Y-3888168D01*
X79905438Y-3905438D01*
X79888168Y-3921090D01*
X79869448Y-3934974D01*
X79849457Y-3946956D01*
X79828387Y-3956921D01*
X79806443Y-3964773D01*
X79783834Y-3970437D01*
X79760779Y-3973856D01*
X79737500Y-3975000D01*
X79162500Y-3975000D01*
X79139221Y-3973856D01*
X79116166Y-3970437D01*
X79093557Y-3964773D01*
X79071613Y-3956921D01*
X79050543Y-3946956D01*
X79030552Y-3934974D01*
X79011832Y-3921090D01*
X78994562Y-3905438D01*
X78978910Y-3888168D01*
X78965026Y-3869448D01*
X78953044Y-3849457D01*
X78943079Y-3828387D01*
X78935227Y-3806443D01*
X78929563Y-3783834D01*
X78926144Y-3760779D01*
X78925000Y-3737500D01*
X78925000Y-3262500D01*
X78926144Y-3239221D01*
X78929563Y-3216166D01*
X78935227Y-3193557D01*
X78943079Y-3171613D01*
X78953044Y-3150543D01*
X78965026Y-3130552D01*
X78978910Y-3111832D01*
X78994562Y-3094562D01*
X79011832Y-3078910D01*
X79030552Y-3065026D01*
X79050543Y-3053044D01*
X79071613Y-3043079D01*
X79093557Y-3035227D01*
X79116166Y-3029563D01*
X79139221Y-3026144D01*
X79162500Y-3025000D01*
X79737500Y-3025000D01*
X79760779Y-3026144D01*
X79760779Y-3026144D01*
G37*
D11*
X79450000Y-3500000D03*
D10*
G36*
X24860779Y-27076144D02*
G01*
X24883834Y-27079563D01*
X24906443Y-27085227D01*
X24928387Y-27093079D01*
X24949457Y-27103044D01*
X24969448Y-27115026D01*
X24988168Y-27128910D01*
X25005438Y-27144562D01*
X25021090Y-27161832D01*
X25034974Y-27180552D01*
X25046956Y-27200543D01*
X25056921Y-27221613D01*
X25064773Y-27243557D01*
X25070437Y-27266166D01*
X25073856Y-27289221D01*
X25075000Y-27312500D01*
X25075000Y-27787500D01*
X25073856Y-27810779D01*
X25070437Y-27833834D01*
X25064773Y-27856443D01*
X25056921Y-27878387D01*
X25046956Y-27899457D01*
X25034974Y-27919448D01*
X25021090Y-27938168D01*
X25005438Y-27955438D01*
X24988168Y-27971090D01*
X24969448Y-27984974D01*
X24949457Y-27996956D01*
X24928387Y-28006921D01*
X24906443Y-28014773D01*
X24883834Y-28020437D01*
X24860779Y-28023856D01*
X24837500Y-28025000D01*
X24262500Y-28025000D01*
X24239221Y-28023856D01*
X24216166Y-28020437D01*
X24193557Y-28014773D01*
X24171613Y-28006921D01*
X24150543Y-27996956D01*
X24130552Y-27984974D01*
X24111832Y-27971090D01*
X24094562Y-27955438D01*
X24078910Y-27938168D01*
X24065026Y-27919448D01*
X24053044Y-27899457D01*
X24043079Y-27878387D01*
X24035227Y-27856443D01*
X24029563Y-27833834D01*
X24026144Y-27810779D01*
X24025000Y-27787500D01*
X24025000Y-27312500D01*
X24026144Y-27289221D01*
X24029563Y-27266166D01*
X24035227Y-27243557D01*
X24043079Y-27221613D01*
X24053044Y-27200543D01*
X24065026Y-27180552D01*
X24078910Y-27161832D01*
X24094562Y-27144562D01*
X24111832Y-27128910D01*
X24130552Y-27115026D01*
X24150543Y-27103044D01*
X24171613Y-27093079D01*
X24193557Y-27085227D01*
X24216166Y-27079563D01*
X24239221Y-27076144D01*
X24262500Y-27075000D01*
X24837500Y-27075000D01*
X24860779Y-27076144D01*
X24860779Y-27076144D01*
G37*
D11*
X24550000Y-27550000D03*
D10*
G36*
X26610779Y-27076144D02*
G01*
X26633834Y-27079563D01*
X26656443Y-27085227D01*
X26678387Y-27093079D01*
X26699457Y-27103044D01*
X26719448Y-27115026D01*
X26738168Y-27128910D01*
X26755438Y-27144562D01*
X26771090Y-27161832D01*
X26784974Y-27180552D01*
X26796956Y-27200543D01*
X26806921Y-27221613D01*
X26814773Y-27243557D01*
X26820437Y-27266166D01*
X26823856Y-27289221D01*
X26825000Y-27312500D01*
X26825000Y-27787500D01*
X26823856Y-27810779D01*
X26820437Y-27833834D01*
X26814773Y-27856443D01*
X26806921Y-27878387D01*
X26796956Y-27899457D01*
X26784974Y-27919448D01*
X26771090Y-27938168D01*
X26755438Y-27955438D01*
X26738168Y-27971090D01*
X26719448Y-27984974D01*
X26699457Y-27996956D01*
X26678387Y-28006921D01*
X26656443Y-28014773D01*
X26633834Y-28020437D01*
X26610779Y-28023856D01*
X26587500Y-28025000D01*
X26012500Y-28025000D01*
X25989221Y-28023856D01*
X25966166Y-28020437D01*
X25943557Y-28014773D01*
X25921613Y-28006921D01*
X25900543Y-27996956D01*
X25880552Y-27984974D01*
X25861832Y-27971090D01*
X25844562Y-27955438D01*
X25828910Y-27938168D01*
X25815026Y-27919448D01*
X25803044Y-27899457D01*
X25793079Y-27878387D01*
X25785227Y-27856443D01*
X25779563Y-27833834D01*
X25776144Y-27810779D01*
X25775000Y-27787500D01*
X25775000Y-27312500D01*
X25776144Y-27289221D01*
X25779563Y-27266166D01*
X25785227Y-27243557D01*
X25793079Y-27221613D01*
X25803044Y-27200543D01*
X25815026Y-27180552D01*
X25828910Y-27161832D01*
X25844562Y-27144562D01*
X25861832Y-27128910D01*
X25880552Y-27115026D01*
X25900543Y-27103044D01*
X25921613Y-27093079D01*
X25943557Y-27085227D01*
X25966166Y-27079563D01*
X25989221Y-27076144D01*
X26012500Y-27075000D01*
X26587500Y-27075000D01*
X26610779Y-27076144D01*
X26610779Y-27076144D01*
G37*
D11*
X26300000Y-27550000D03*
D10*
G36*
X26510779Y-17426144D02*
G01*
X26533834Y-17429563D01*
X26556443Y-17435227D01*
X26578387Y-17443079D01*
X26599457Y-17453044D01*
X26619448Y-17465026D01*
X26638168Y-17478910D01*
X26655438Y-17494562D01*
X26671090Y-17511832D01*
X26684974Y-17530552D01*
X26696956Y-17550543D01*
X26706921Y-17571613D01*
X26714773Y-17593557D01*
X26720437Y-17616166D01*
X26723856Y-17639221D01*
X26725000Y-17662500D01*
X26725000Y-18137500D01*
X26723856Y-18160779D01*
X26720437Y-18183834D01*
X26714773Y-18206443D01*
X26706921Y-18228387D01*
X26696956Y-18249457D01*
X26684974Y-18269448D01*
X26671090Y-18288168D01*
X26655438Y-18305438D01*
X26638168Y-18321090D01*
X26619448Y-18334974D01*
X26599457Y-18346956D01*
X26578387Y-18356921D01*
X26556443Y-18364773D01*
X26533834Y-18370437D01*
X26510779Y-18373856D01*
X26487500Y-18375000D01*
X25912500Y-18375000D01*
X25889221Y-18373856D01*
X25866166Y-18370437D01*
X25843557Y-18364773D01*
X25821613Y-18356921D01*
X25800543Y-18346956D01*
X25780552Y-18334974D01*
X25761832Y-18321090D01*
X25744562Y-18305438D01*
X25728910Y-18288168D01*
X25715026Y-18269448D01*
X25703044Y-18249457D01*
X25693079Y-18228387D01*
X25685227Y-18206443D01*
X25679563Y-18183834D01*
X25676144Y-18160779D01*
X25675000Y-18137500D01*
X25675000Y-17662500D01*
X25676144Y-17639221D01*
X25679563Y-17616166D01*
X25685227Y-17593557D01*
X25693079Y-17571613D01*
X25703044Y-17550543D01*
X25715026Y-17530552D01*
X25728910Y-17511832D01*
X25744562Y-17494562D01*
X25761832Y-17478910D01*
X25780552Y-17465026D01*
X25800543Y-17453044D01*
X25821613Y-17443079D01*
X25843557Y-17435227D01*
X25866166Y-17429563D01*
X25889221Y-17426144D01*
X25912500Y-17425000D01*
X26487500Y-17425000D01*
X26510779Y-17426144D01*
X26510779Y-17426144D01*
G37*
D11*
X26200000Y-17900000D03*
D10*
G36*
X24760779Y-17426144D02*
G01*
X24783834Y-17429563D01*
X24806443Y-17435227D01*
X24828387Y-17443079D01*
X24849457Y-17453044D01*
X24869448Y-17465026D01*
X24888168Y-17478910D01*
X24905438Y-17494562D01*
X24921090Y-17511832D01*
X24934974Y-17530552D01*
X24946956Y-17550543D01*
X24956921Y-17571613D01*
X24964773Y-17593557D01*
X24970437Y-17616166D01*
X24973856Y-17639221D01*
X24975000Y-17662500D01*
X24975000Y-18137500D01*
X24973856Y-18160779D01*
X24970437Y-18183834D01*
X24964773Y-18206443D01*
X24956921Y-18228387D01*
X24946956Y-18249457D01*
X24934974Y-18269448D01*
X24921090Y-18288168D01*
X24905438Y-18305438D01*
X24888168Y-18321090D01*
X24869448Y-18334974D01*
X24849457Y-18346956D01*
X24828387Y-18356921D01*
X24806443Y-18364773D01*
X24783834Y-18370437D01*
X24760779Y-18373856D01*
X24737500Y-18375000D01*
X24162500Y-18375000D01*
X24139221Y-18373856D01*
X24116166Y-18370437D01*
X24093557Y-18364773D01*
X24071613Y-18356921D01*
X24050543Y-18346956D01*
X24030552Y-18334974D01*
X24011832Y-18321090D01*
X23994562Y-18305438D01*
X23978910Y-18288168D01*
X23965026Y-18269448D01*
X23953044Y-18249457D01*
X23943079Y-18228387D01*
X23935227Y-18206443D01*
X23929563Y-18183834D01*
X23926144Y-18160779D01*
X23925000Y-18137500D01*
X23925000Y-17662500D01*
X23926144Y-17639221D01*
X23929563Y-17616166D01*
X23935227Y-17593557D01*
X23943079Y-17571613D01*
X23953044Y-17550543D01*
X23965026Y-17530552D01*
X23978910Y-17511832D01*
X23994562Y-17494562D01*
X24011832Y-17478910D01*
X24030552Y-17465026D01*
X24050543Y-17453044D01*
X24071613Y-17443079D01*
X24093557Y-17435227D01*
X24116166Y-17429563D01*
X24139221Y-17426144D01*
X24162500Y-17425000D01*
X24737500Y-17425000D01*
X24760779Y-17426144D01*
X24760779Y-17426144D01*
G37*
D11*
X24450000Y-17900000D03*
D10*
G36*
X79460779Y-11126144D02*
G01*
X79483834Y-11129563D01*
X79506443Y-11135227D01*
X79528387Y-11143079D01*
X79549457Y-11153044D01*
X79569448Y-11165026D01*
X79588168Y-11178910D01*
X79605438Y-11194562D01*
X79621090Y-11211832D01*
X79634974Y-11230552D01*
X79646956Y-11250543D01*
X79656921Y-11271613D01*
X79664773Y-11293557D01*
X79670437Y-11316166D01*
X79673856Y-11339221D01*
X79675000Y-11362500D01*
X79675000Y-11937500D01*
X79673856Y-11960779D01*
X79670437Y-11983834D01*
X79664773Y-12006443D01*
X79656921Y-12028387D01*
X79646956Y-12049457D01*
X79634974Y-12069448D01*
X79621090Y-12088168D01*
X79605438Y-12105438D01*
X79588168Y-12121090D01*
X79569448Y-12134974D01*
X79549457Y-12146956D01*
X79528387Y-12156921D01*
X79506443Y-12164773D01*
X79483834Y-12170437D01*
X79460779Y-12173856D01*
X79437500Y-12175000D01*
X78962500Y-12175000D01*
X78939221Y-12173856D01*
X78916166Y-12170437D01*
X78893557Y-12164773D01*
X78871613Y-12156921D01*
X78850543Y-12146956D01*
X78830552Y-12134974D01*
X78811832Y-12121090D01*
X78794562Y-12105438D01*
X78778910Y-12088168D01*
X78765026Y-12069448D01*
X78753044Y-12049457D01*
X78743079Y-12028387D01*
X78735227Y-12006443D01*
X78729563Y-11983834D01*
X78726144Y-11960779D01*
X78725000Y-11937500D01*
X78725000Y-11362500D01*
X78726144Y-11339221D01*
X78729563Y-11316166D01*
X78735227Y-11293557D01*
X78743079Y-11271613D01*
X78753044Y-11250543D01*
X78765026Y-11230552D01*
X78778910Y-11211832D01*
X78794562Y-11194562D01*
X78811832Y-11178910D01*
X78830552Y-11165026D01*
X78850543Y-11153044D01*
X78871613Y-11143079D01*
X78893557Y-11135227D01*
X78916166Y-11129563D01*
X78939221Y-11126144D01*
X78962500Y-11125000D01*
X79437500Y-11125000D01*
X79460779Y-11126144D01*
X79460779Y-11126144D01*
G37*
D11*
X79200000Y-11650000D03*
D10*
G36*
X79460779Y-12876144D02*
G01*
X79483834Y-12879563D01*
X79506443Y-12885227D01*
X79528387Y-12893079D01*
X79549457Y-12903044D01*
X79569448Y-12915026D01*
X79588168Y-12928910D01*
X79605438Y-12944562D01*
X79621090Y-12961832D01*
X79634974Y-12980552D01*
X79646956Y-13000543D01*
X79656921Y-13021613D01*
X79664773Y-13043557D01*
X79670437Y-13066166D01*
X79673856Y-13089221D01*
X79675000Y-13112500D01*
X79675000Y-13687500D01*
X79673856Y-13710779D01*
X79670437Y-13733834D01*
X79664773Y-13756443D01*
X79656921Y-13778387D01*
X79646956Y-13799457D01*
X79634974Y-13819448D01*
X79621090Y-13838168D01*
X79605438Y-13855438D01*
X79588168Y-13871090D01*
X79569448Y-13884974D01*
X79549457Y-13896956D01*
X79528387Y-13906921D01*
X79506443Y-13914773D01*
X79483834Y-13920437D01*
X79460779Y-13923856D01*
X79437500Y-13925000D01*
X78962500Y-13925000D01*
X78939221Y-13923856D01*
X78916166Y-13920437D01*
X78893557Y-13914773D01*
X78871613Y-13906921D01*
X78850543Y-13896956D01*
X78830552Y-13884974D01*
X78811832Y-13871090D01*
X78794562Y-13855438D01*
X78778910Y-13838168D01*
X78765026Y-13819448D01*
X78753044Y-13799457D01*
X78743079Y-13778387D01*
X78735227Y-13756443D01*
X78729563Y-13733834D01*
X78726144Y-13710779D01*
X78725000Y-13687500D01*
X78725000Y-13112500D01*
X78726144Y-13089221D01*
X78729563Y-13066166D01*
X78735227Y-13043557D01*
X78743079Y-13021613D01*
X78753044Y-13000543D01*
X78765026Y-12980552D01*
X78778910Y-12961832D01*
X78794562Y-12944562D01*
X78811832Y-12928910D01*
X78830552Y-12915026D01*
X78850543Y-12903044D01*
X78871613Y-12893079D01*
X78893557Y-12885227D01*
X78916166Y-12879563D01*
X78939221Y-12876144D01*
X78962500Y-12875000D01*
X79437500Y-12875000D01*
X79460779Y-12876144D01*
X79460779Y-12876144D01*
G37*
D11*
X79200000Y-13400000D03*
D10*
G36*
X88110779Y-12901144D02*
G01*
X88133834Y-12904563D01*
X88156443Y-12910227D01*
X88178387Y-12918079D01*
X88199457Y-12928044D01*
X88219448Y-12940026D01*
X88238168Y-12953910D01*
X88255438Y-12969562D01*
X88271090Y-12986832D01*
X88284974Y-13005552D01*
X88296956Y-13025543D01*
X88306921Y-13046613D01*
X88314773Y-13068557D01*
X88320437Y-13091166D01*
X88323856Y-13114221D01*
X88325000Y-13137500D01*
X88325000Y-13712500D01*
X88323856Y-13735779D01*
X88320437Y-13758834D01*
X88314773Y-13781443D01*
X88306921Y-13803387D01*
X88296956Y-13824457D01*
X88284974Y-13844448D01*
X88271090Y-13863168D01*
X88255438Y-13880438D01*
X88238168Y-13896090D01*
X88219448Y-13909974D01*
X88199457Y-13921956D01*
X88178387Y-13931921D01*
X88156443Y-13939773D01*
X88133834Y-13945437D01*
X88110779Y-13948856D01*
X88087500Y-13950000D01*
X87612500Y-13950000D01*
X87589221Y-13948856D01*
X87566166Y-13945437D01*
X87543557Y-13939773D01*
X87521613Y-13931921D01*
X87500543Y-13921956D01*
X87480552Y-13909974D01*
X87461832Y-13896090D01*
X87444562Y-13880438D01*
X87428910Y-13863168D01*
X87415026Y-13844448D01*
X87403044Y-13824457D01*
X87393079Y-13803387D01*
X87385227Y-13781443D01*
X87379563Y-13758834D01*
X87376144Y-13735779D01*
X87375000Y-13712500D01*
X87375000Y-13137500D01*
X87376144Y-13114221D01*
X87379563Y-13091166D01*
X87385227Y-13068557D01*
X87393079Y-13046613D01*
X87403044Y-13025543D01*
X87415026Y-13005552D01*
X87428910Y-12986832D01*
X87444562Y-12969562D01*
X87461832Y-12953910D01*
X87480552Y-12940026D01*
X87500543Y-12928044D01*
X87521613Y-12918079D01*
X87543557Y-12910227D01*
X87566166Y-12904563D01*
X87589221Y-12901144D01*
X87612500Y-12900000D01*
X88087500Y-12900000D01*
X88110779Y-12901144D01*
X88110779Y-12901144D01*
G37*
D11*
X87850000Y-13425000D03*
D10*
G36*
X88110779Y-11151144D02*
G01*
X88133834Y-11154563D01*
X88156443Y-11160227D01*
X88178387Y-11168079D01*
X88199457Y-11178044D01*
X88219448Y-11190026D01*
X88238168Y-11203910D01*
X88255438Y-11219562D01*
X88271090Y-11236832D01*
X88284974Y-11255552D01*
X88296956Y-11275543D01*
X88306921Y-11296613D01*
X88314773Y-11318557D01*
X88320437Y-11341166D01*
X88323856Y-11364221D01*
X88325000Y-11387500D01*
X88325000Y-11962500D01*
X88323856Y-11985779D01*
X88320437Y-12008834D01*
X88314773Y-12031443D01*
X88306921Y-12053387D01*
X88296956Y-12074457D01*
X88284974Y-12094448D01*
X88271090Y-12113168D01*
X88255438Y-12130438D01*
X88238168Y-12146090D01*
X88219448Y-12159974D01*
X88199457Y-12171956D01*
X88178387Y-12181921D01*
X88156443Y-12189773D01*
X88133834Y-12195437D01*
X88110779Y-12198856D01*
X88087500Y-12200000D01*
X87612500Y-12200000D01*
X87589221Y-12198856D01*
X87566166Y-12195437D01*
X87543557Y-12189773D01*
X87521613Y-12181921D01*
X87500543Y-12171956D01*
X87480552Y-12159974D01*
X87461832Y-12146090D01*
X87444562Y-12130438D01*
X87428910Y-12113168D01*
X87415026Y-12094448D01*
X87403044Y-12074457D01*
X87393079Y-12053387D01*
X87385227Y-12031443D01*
X87379563Y-12008834D01*
X87376144Y-11985779D01*
X87375000Y-11962500D01*
X87375000Y-11387500D01*
X87376144Y-11364221D01*
X87379563Y-11341166D01*
X87385227Y-11318557D01*
X87393079Y-11296613D01*
X87403044Y-11275543D01*
X87415026Y-11255552D01*
X87428910Y-11236832D01*
X87444562Y-11219562D01*
X87461832Y-11203910D01*
X87480552Y-11190026D01*
X87500543Y-11178044D01*
X87521613Y-11168079D01*
X87543557Y-11160227D01*
X87566166Y-11154563D01*
X87589221Y-11151144D01*
X87612500Y-11150000D01*
X88087500Y-11150000D01*
X88110779Y-11151144D01*
X88110779Y-11151144D01*
G37*
D11*
X87850000Y-11675000D03*
D10*
G36*
X77410779Y-11126144D02*
G01*
X77433834Y-11129563D01*
X77456443Y-11135227D01*
X77478387Y-11143079D01*
X77499457Y-11153044D01*
X77519448Y-11165026D01*
X77538168Y-11178910D01*
X77555438Y-11194562D01*
X77571090Y-11211832D01*
X77584974Y-11230552D01*
X77596956Y-11250543D01*
X77606921Y-11271613D01*
X77614773Y-11293557D01*
X77620437Y-11316166D01*
X77623856Y-11339221D01*
X77625000Y-11362500D01*
X77625000Y-11937500D01*
X77623856Y-11960779D01*
X77620437Y-11983834D01*
X77614773Y-12006443D01*
X77606921Y-12028387D01*
X77596956Y-12049457D01*
X77584974Y-12069448D01*
X77571090Y-12088168D01*
X77555438Y-12105438D01*
X77538168Y-12121090D01*
X77519448Y-12134974D01*
X77499457Y-12146956D01*
X77478387Y-12156921D01*
X77456443Y-12164773D01*
X77433834Y-12170437D01*
X77410779Y-12173856D01*
X77387500Y-12175000D01*
X76912500Y-12175000D01*
X76889221Y-12173856D01*
X76866166Y-12170437D01*
X76843557Y-12164773D01*
X76821613Y-12156921D01*
X76800543Y-12146956D01*
X76780552Y-12134974D01*
X76761832Y-12121090D01*
X76744562Y-12105438D01*
X76728910Y-12088168D01*
X76715026Y-12069448D01*
X76703044Y-12049457D01*
X76693079Y-12028387D01*
X76685227Y-12006443D01*
X76679563Y-11983834D01*
X76676144Y-11960779D01*
X76675000Y-11937500D01*
X76675000Y-11362500D01*
X76676144Y-11339221D01*
X76679563Y-11316166D01*
X76685227Y-11293557D01*
X76693079Y-11271613D01*
X76703044Y-11250543D01*
X76715026Y-11230552D01*
X76728910Y-11211832D01*
X76744562Y-11194562D01*
X76761832Y-11178910D01*
X76780552Y-11165026D01*
X76800543Y-11153044D01*
X76821613Y-11143079D01*
X76843557Y-11135227D01*
X76866166Y-11129563D01*
X76889221Y-11126144D01*
X76912500Y-11125000D01*
X77387500Y-11125000D01*
X77410779Y-11126144D01*
X77410779Y-11126144D01*
G37*
D11*
X77150000Y-11650000D03*
D10*
G36*
X77410779Y-12876144D02*
G01*
X77433834Y-12879563D01*
X77456443Y-12885227D01*
X77478387Y-12893079D01*
X77499457Y-12903044D01*
X77519448Y-12915026D01*
X77538168Y-12928910D01*
X77555438Y-12944562D01*
X77571090Y-12961832D01*
X77584974Y-12980552D01*
X77596956Y-13000543D01*
X77606921Y-13021613D01*
X77614773Y-13043557D01*
X77620437Y-13066166D01*
X77623856Y-13089221D01*
X77625000Y-13112500D01*
X77625000Y-13687500D01*
X77623856Y-13710779D01*
X77620437Y-13733834D01*
X77614773Y-13756443D01*
X77606921Y-13778387D01*
X77596956Y-13799457D01*
X77584974Y-13819448D01*
X77571090Y-13838168D01*
X77555438Y-13855438D01*
X77538168Y-13871090D01*
X77519448Y-13884974D01*
X77499457Y-13896956D01*
X77478387Y-13906921D01*
X77456443Y-13914773D01*
X77433834Y-13920437D01*
X77410779Y-13923856D01*
X77387500Y-13925000D01*
X76912500Y-13925000D01*
X76889221Y-13923856D01*
X76866166Y-13920437D01*
X76843557Y-13914773D01*
X76821613Y-13906921D01*
X76800543Y-13896956D01*
X76780552Y-13884974D01*
X76761832Y-13871090D01*
X76744562Y-13855438D01*
X76728910Y-13838168D01*
X76715026Y-13819448D01*
X76703044Y-13799457D01*
X76693079Y-13778387D01*
X76685227Y-13756443D01*
X76679563Y-13733834D01*
X76676144Y-13710779D01*
X76675000Y-13687500D01*
X76675000Y-13112500D01*
X76676144Y-13089221D01*
X76679563Y-13066166D01*
X76685227Y-13043557D01*
X76693079Y-13021613D01*
X76703044Y-13000543D01*
X76715026Y-12980552D01*
X76728910Y-12961832D01*
X76744562Y-12944562D01*
X76761832Y-12928910D01*
X76780552Y-12915026D01*
X76800543Y-12903044D01*
X76821613Y-12893079D01*
X76843557Y-12885227D01*
X76866166Y-12879563D01*
X76889221Y-12876144D01*
X76912500Y-12875000D01*
X77387500Y-12875000D01*
X77410779Y-12876144D01*
X77410779Y-12876144D01*
G37*
D11*
X77150000Y-13400000D03*
D10*
G36*
X10810779Y-5551144D02*
G01*
X10833834Y-5554563D01*
X10856443Y-5560227D01*
X10878387Y-5568079D01*
X10899457Y-5578044D01*
X10919448Y-5590026D01*
X10938168Y-5603910D01*
X10955438Y-5619562D01*
X10971090Y-5636832D01*
X10984974Y-5655552D01*
X10996956Y-5675543D01*
X11006921Y-5696613D01*
X11014773Y-5718557D01*
X11020437Y-5741166D01*
X11023856Y-5764221D01*
X11025000Y-5787500D01*
X11025000Y-6362500D01*
X11023856Y-6385779D01*
X11020437Y-6408834D01*
X11014773Y-6431443D01*
X11006921Y-6453387D01*
X10996956Y-6474457D01*
X10984974Y-6494448D01*
X10971090Y-6513168D01*
X10955438Y-6530438D01*
X10938168Y-6546090D01*
X10919448Y-6559974D01*
X10899457Y-6571956D01*
X10878387Y-6581921D01*
X10856443Y-6589773D01*
X10833834Y-6595437D01*
X10810779Y-6598856D01*
X10787500Y-6600000D01*
X10312500Y-6600000D01*
X10289221Y-6598856D01*
X10266166Y-6595437D01*
X10243557Y-6589773D01*
X10221613Y-6581921D01*
X10200543Y-6571956D01*
X10180552Y-6559974D01*
X10161832Y-6546090D01*
X10144562Y-6530438D01*
X10128910Y-6513168D01*
X10115026Y-6494448D01*
X10103044Y-6474457D01*
X10093079Y-6453387D01*
X10085227Y-6431443D01*
X10079563Y-6408834D01*
X10076144Y-6385779D01*
X10075000Y-6362500D01*
X10075000Y-5787500D01*
X10076144Y-5764221D01*
X10079563Y-5741166D01*
X10085227Y-5718557D01*
X10093079Y-5696613D01*
X10103044Y-5675543D01*
X10115026Y-5655552D01*
X10128910Y-5636832D01*
X10144562Y-5619562D01*
X10161832Y-5603910D01*
X10180552Y-5590026D01*
X10200543Y-5578044D01*
X10221613Y-5568079D01*
X10243557Y-5560227D01*
X10266166Y-5554563D01*
X10289221Y-5551144D01*
X10312500Y-5550000D01*
X10787500Y-5550000D01*
X10810779Y-5551144D01*
X10810779Y-5551144D01*
G37*
D11*
X10550000Y-6075000D03*
D10*
G36*
X10810779Y-3801144D02*
G01*
X10833834Y-3804563D01*
X10856443Y-3810227D01*
X10878387Y-3818079D01*
X10899457Y-3828044D01*
X10919448Y-3840026D01*
X10938168Y-3853910D01*
X10955438Y-3869562D01*
X10971090Y-3886832D01*
X10984974Y-3905552D01*
X10996956Y-3925543D01*
X11006921Y-3946613D01*
X11014773Y-3968557D01*
X11020437Y-3991166D01*
X11023856Y-4014221D01*
X11025000Y-4037500D01*
X11025000Y-4612500D01*
X11023856Y-4635779D01*
X11020437Y-4658834D01*
X11014773Y-4681443D01*
X11006921Y-4703387D01*
X10996956Y-4724457D01*
X10984974Y-4744448D01*
X10971090Y-4763168D01*
X10955438Y-4780438D01*
X10938168Y-4796090D01*
X10919448Y-4809974D01*
X10899457Y-4821956D01*
X10878387Y-4831921D01*
X10856443Y-4839773D01*
X10833834Y-4845437D01*
X10810779Y-4848856D01*
X10787500Y-4850000D01*
X10312500Y-4850000D01*
X10289221Y-4848856D01*
X10266166Y-4845437D01*
X10243557Y-4839773D01*
X10221613Y-4831921D01*
X10200543Y-4821956D01*
X10180552Y-4809974D01*
X10161832Y-4796090D01*
X10144562Y-4780438D01*
X10128910Y-4763168D01*
X10115026Y-4744448D01*
X10103044Y-4724457D01*
X10093079Y-4703387D01*
X10085227Y-4681443D01*
X10079563Y-4658834D01*
X10076144Y-4635779D01*
X10075000Y-4612500D01*
X10075000Y-4037500D01*
X10076144Y-4014221D01*
X10079563Y-3991166D01*
X10085227Y-3968557D01*
X10093079Y-3946613D01*
X10103044Y-3925543D01*
X10115026Y-3905552D01*
X10128910Y-3886832D01*
X10144562Y-3869562D01*
X10161832Y-3853910D01*
X10180552Y-3840026D01*
X10200543Y-3828044D01*
X10221613Y-3818079D01*
X10243557Y-3810227D01*
X10266166Y-3804563D01*
X10289221Y-3801144D01*
X10312500Y-3800000D01*
X10787500Y-3800000D01*
X10810779Y-3801144D01*
X10810779Y-3801144D01*
G37*
D11*
X10550000Y-4325000D03*
D10*
G36*
X26535779Y-20826144D02*
G01*
X26558834Y-20829563D01*
X26581443Y-20835227D01*
X26603387Y-20843079D01*
X26624457Y-20853044D01*
X26644448Y-20865026D01*
X26663168Y-20878910D01*
X26680438Y-20894562D01*
X26696090Y-20911832D01*
X26709974Y-20930552D01*
X26721956Y-20950543D01*
X26731921Y-20971613D01*
X26739773Y-20993557D01*
X26745437Y-21016166D01*
X26748856Y-21039221D01*
X26750000Y-21062500D01*
X26750000Y-21537500D01*
X26748856Y-21560779D01*
X26745437Y-21583834D01*
X26739773Y-21606443D01*
X26731921Y-21628387D01*
X26721956Y-21649457D01*
X26709974Y-21669448D01*
X26696090Y-21688168D01*
X26680438Y-21705438D01*
X26663168Y-21721090D01*
X26644448Y-21734974D01*
X26624457Y-21746956D01*
X26603387Y-21756921D01*
X26581443Y-21764773D01*
X26558834Y-21770437D01*
X26535779Y-21773856D01*
X26512500Y-21775000D01*
X25937500Y-21775000D01*
X25914221Y-21773856D01*
X25891166Y-21770437D01*
X25868557Y-21764773D01*
X25846613Y-21756921D01*
X25825543Y-21746956D01*
X25805552Y-21734974D01*
X25786832Y-21721090D01*
X25769562Y-21705438D01*
X25753910Y-21688168D01*
X25740026Y-21669448D01*
X25728044Y-21649457D01*
X25718079Y-21628387D01*
X25710227Y-21606443D01*
X25704563Y-21583834D01*
X25701144Y-21560779D01*
X25700000Y-21537500D01*
X25700000Y-21062500D01*
X25701144Y-21039221D01*
X25704563Y-21016166D01*
X25710227Y-20993557D01*
X25718079Y-20971613D01*
X25728044Y-20950543D01*
X25740026Y-20930552D01*
X25753910Y-20911832D01*
X25769562Y-20894562D01*
X25786832Y-20878910D01*
X25805552Y-20865026D01*
X25825543Y-20853044D01*
X25846613Y-20843079D01*
X25868557Y-20835227D01*
X25891166Y-20829563D01*
X25914221Y-20826144D01*
X25937500Y-20825000D01*
X26512500Y-20825000D01*
X26535779Y-20826144D01*
X26535779Y-20826144D01*
G37*
D11*
X26225000Y-21300000D03*
D10*
G36*
X24785779Y-20826144D02*
G01*
X24808834Y-20829563D01*
X24831443Y-20835227D01*
X24853387Y-20843079D01*
X24874457Y-20853044D01*
X24894448Y-20865026D01*
X24913168Y-20878910D01*
X24930438Y-20894562D01*
X24946090Y-20911832D01*
X24959974Y-20930552D01*
X24971956Y-20950543D01*
X24981921Y-20971613D01*
X24989773Y-20993557D01*
X24995437Y-21016166D01*
X24998856Y-21039221D01*
X25000000Y-21062500D01*
X25000000Y-21537500D01*
X24998856Y-21560779D01*
X24995437Y-21583834D01*
X24989773Y-21606443D01*
X24981921Y-21628387D01*
X24971956Y-21649457D01*
X24959974Y-21669448D01*
X24946090Y-21688168D01*
X24930438Y-21705438D01*
X24913168Y-21721090D01*
X24894448Y-21734974D01*
X24874457Y-21746956D01*
X24853387Y-21756921D01*
X24831443Y-21764773D01*
X24808834Y-21770437D01*
X24785779Y-21773856D01*
X24762500Y-21775000D01*
X24187500Y-21775000D01*
X24164221Y-21773856D01*
X24141166Y-21770437D01*
X24118557Y-21764773D01*
X24096613Y-21756921D01*
X24075543Y-21746956D01*
X24055552Y-21734974D01*
X24036832Y-21721090D01*
X24019562Y-21705438D01*
X24003910Y-21688168D01*
X23990026Y-21669448D01*
X23978044Y-21649457D01*
X23968079Y-21628387D01*
X23960227Y-21606443D01*
X23954563Y-21583834D01*
X23951144Y-21560779D01*
X23950000Y-21537500D01*
X23950000Y-21062500D01*
X23951144Y-21039221D01*
X23954563Y-21016166D01*
X23960227Y-20993557D01*
X23968079Y-20971613D01*
X23978044Y-20950543D01*
X23990026Y-20930552D01*
X24003910Y-20911832D01*
X24019562Y-20894562D01*
X24036832Y-20878910D01*
X24055552Y-20865026D01*
X24075543Y-20853044D01*
X24096613Y-20843079D01*
X24118557Y-20835227D01*
X24141166Y-20829563D01*
X24164221Y-20826144D01*
X24187500Y-20825000D01*
X24762500Y-20825000D01*
X24785779Y-20826144D01*
X24785779Y-20826144D01*
G37*
D11*
X24475000Y-21300000D03*
D10*
G36*
X84135779Y-6526144D02*
G01*
X84158834Y-6529563D01*
X84181443Y-6535227D01*
X84203387Y-6543079D01*
X84224457Y-6553044D01*
X84244448Y-6565026D01*
X84263168Y-6578910D01*
X84280438Y-6594562D01*
X84296090Y-6611832D01*
X84309974Y-6630552D01*
X84321956Y-6650543D01*
X84331921Y-6671613D01*
X84339773Y-6693557D01*
X84345437Y-6716166D01*
X84348856Y-6739221D01*
X84350000Y-6762500D01*
X84350000Y-7337500D01*
X84348856Y-7360779D01*
X84345437Y-7383834D01*
X84339773Y-7406443D01*
X84331921Y-7428387D01*
X84321956Y-7449457D01*
X84309974Y-7469448D01*
X84296090Y-7488168D01*
X84280438Y-7505438D01*
X84263168Y-7521090D01*
X84244448Y-7534974D01*
X84224457Y-7546956D01*
X84203387Y-7556921D01*
X84181443Y-7564773D01*
X84158834Y-7570437D01*
X84135779Y-7573856D01*
X84112500Y-7575000D01*
X83637500Y-7575000D01*
X83614221Y-7573856D01*
X83591166Y-7570437D01*
X83568557Y-7564773D01*
X83546613Y-7556921D01*
X83525543Y-7546956D01*
X83505552Y-7534974D01*
X83486832Y-7521090D01*
X83469562Y-7505438D01*
X83453910Y-7488168D01*
X83440026Y-7469448D01*
X83428044Y-7449457D01*
X83418079Y-7428387D01*
X83410227Y-7406443D01*
X83404563Y-7383834D01*
X83401144Y-7360779D01*
X83400000Y-7337500D01*
X83400000Y-6762500D01*
X83401144Y-6739221D01*
X83404563Y-6716166D01*
X83410227Y-6693557D01*
X83418079Y-6671613D01*
X83428044Y-6650543D01*
X83440026Y-6630552D01*
X83453910Y-6611832D01*
X83469562Y-6594562D01*
X83486832Y-6578910D01*
X83505552Y-6565026D01*
X83525543Y-6553044D01*
X83546613Y-6543079D01*
X83568557Y-6535227D01*
X83591166Y-6529563D01*
X83614221Y-6526144D01*
X83637500Y-6525000D01*
X84112500Y-6525000D01*
X84135779Y-6526144D01*
X84135779Y-6526144D01*
G37*
D11*
X83875000Y-7050000D03*
D10*
G36*
X84135779Y-8276144D02*
G01*
X84158834Y-8279563D01*
X84181443Y-8285227D01*
X84203387Y-8293079D01*
X84224457Y-8303044D01*
X84244448Y-8315026D01*
X84263168Y-8328910D01*
X84280438Y-8344562D01*
X84296090Y-8361832D01*
X84309974Y-8380552D01*
X84321956Y-8400543D01*
X84331921Y-8421613D01*
X84339773Y-8443557D01*
X84345437Y-8466166D01*
X84348856Y-8489221D01*
X84350000Y-8512500D01*
X84350000Y-9087500D01*
X84348856Y-9110779D01*
X84345437Y-9133834D01*
X84339773Y-9156443D01*
X84331921Y-9178387D01*
X84321956Y-9199457D01*
X84309974Y-9219448D01*
X84296090Y-9238168D01*
X84280438Y-9255438D01*
X84263168Y-9271090D01*
X84244448Y-9284974D01*
X84224457Y-9296956D01*
X84203387Y-9306921D01*
X84181443Y-9314773D01*
X84158834Y-9320437D01*
X84135779Y-9323856D01*
X84112500Y-9325000D01*
X83637500Y-9325000D01*
X83614221Y-9323856D01*
X83591166Y-9320437D01*
X83568557Y-9314773D01*
X83546613Y-9306921D01*
X83525543Y-9296956D01*
X83505552Y-9284974D01*
X83486832Y-9271090D01*
X83469562Y-9255438D01*
X83453910Y-9238168D01*
X83440026Y-9219448D01*
X83428044Y-9199457D01*
X83418079Y-9178387D01*
X83410227Y-9156443D01*
X83404563Y-9133834D01*
X83401144Y-9110779D01*
X83400000Y-9087500D01*
X83400000Y-8512500D01*
X83401144Y-8489221D01*
X83404563Y-8466166D01*
X83410227Y-8443557D01*
X83418079Y-8421613D01*
X83428044Y-8400543D01*
X83440026Y-8380552D01*
X83453910Y-8361832D01*
X83469562Y-8344562D01*
X83486832Y-8328910D01*
X83505552Y-8315026D01*
X83525543Y-8303044D01*
X83546613Y-8293079D01*
X83568557Y-8285227D01*
X83591166Y-8279563D01*
X83614221Y-8276144D01*
X83637500Y-8275000D01*
X84112500Y-8275000D01*
X84135779Y-8276144D01*
X84135779Y-8276144D01*
G37*
D11*
X83875000Y-8800000D03*
D10*
G36*
X86210779Y-12876144D02*
G01*
X86233834Y-12879563D01*
X86256443Y-12885227D01*
X86278387Y-12893079D01*
X86299457Y-12903044D01*
X86319448Y-12915026D01*
X86338168Y-12928910D01*
X86355438Y-12944562D01*
X86371090Y-12961832D01*
X86384974Y-12980552D01*
X86396956Y-13000543D01*
X86406921Y-13021613D01*
X86414773Y-13043557D01*
X86420437Y-13066166D01*
X86423856Y-13089221D01*
X86425000Y-13112500D01*
X86425000Y-13687500D01*
X86423856Y-13710779D01*
X86420437Y-13733834D01*
X86414773Y-13756443D01*
X86406921Y-13778387D01*
X86396956Y-13799457D01*
X86384974Y-13819448D01*
X86371090Y-13838168D01*
X86355438Y-13855438D01*
X86338168Y-13871090D01*
X86319448Y-13884974D01*
X86299457Y-13896956D01*
X86278387Y-13906921D01*
X86256443Y-13914773D01*
X86233834Y-13920437D01*
X86210779Y-13923856D01*
X86187500Y-13925000D01*
X85712500Y-13925000D01*
X85689221Y-13923856D01*
X85666166Y-13920437D01*
X85643557Y-13914773D01*
X85621613Y-13906921D01*
X85600543Y-13896956D01*
X85580552Y-13884974D01*
X85561832Y-13871090D01*
X85544562Y-13855438D01*
X85528910Y-13838168D01*
X85515026Y-13819448D01*
X85503044Y-13799457D01*
X85493079Y-13778387D01*
X85485227Y-13756443D01*
X85479563Y-13733834D01*
X85476144Y-13710779D01*
X85475000Y-13687500D01*
X85475000Y-13112500D01*
X85476144Y-13089221D01*
X85479563Y-13066166D01*
X85485227Y-13043557D01*
X85493079Y-13021613D01*
X85503044Y-13000543D01*
X85515026Y-12980552D01*
X85528910Y-12961832D01*
X85544562Y-12944562D01*
X85561832Y-12928910D01*
X85580552Y-12915026D01*
X85600543Y-12903044D01*
X85621613Y-12893079D01*
X85643557Y-12885227D01*
X85666166Y-12879563D01*
X85689221Y-12876144D01*
X85712500Y-12875000D01*
X86187500Y-12875000D01*
X86210779Y-12876144D01*
X86210779Y-12876144D01*
G37*
D11*
X85950000Y-13400000D03*
D10*
G36*
X86210779Y-11126144D02*
G01*
X86233834Y-11129563D01*
X86256443Y-11135227D01*
X86278387Y-11143079D01*
X86299457Y-11153044D01*
X86319448Y-11165026D01*
X86338168Y-11178910D01*
X86355438Y-11194562D01*
X86371090Y-11211832D01*
X86384974Y-11230552D01*
X86396956Y-11250543D01*
X86406921Y-11271613D01*
X86414773Y-11293557D01*
X86420437Y-11316166D01*
X86423856Y-11339221D01*
X86425000Y-11362500D01*
X86425000Y-11937500D01*
X86423856Y-11960779D01*
X86420437Y-11983834D01*
X86414773Y-12006443D01*
X86406921Y-12028387D01*
X86396956Y-12049457D01*
X86384974Y-12069448D01*
X86371090Y-12088168D01*
X86355438Y-12105438D01*
X86338168Y-12121090D01*
X86319448Y-12134974D01*
X86299457Y-12146956D01*
X86278387Y-12156921D01*
X86256443Y-12164773D01*
X86233834Y-12170437D01*
X86210779Y-12173856D01*
X86187500Y-12175000D01*
X85712500Y-12175000D01*
X85689221Y-12173856D01*
X85666166Y-12170437D01*
X85643557Y-12164773D01*
X85621613Y-12156921D01*
X85600543Y-12146956D01*
X85580552Y-12134974D01*
X85561832Y-12121090D01*
X85544562Y-12105438D01*
X85528910Y-12088168D01*
X85515026Y-12069448D01*
X85503044Y-12049457D01*
X85493079Y-12028387D01*
X85485227Y-12006443D01*
X85479563Y-11983834D01*
X85476144Y-11960779D01*
X85475000Y-11937500D01*
X85475000Y-11362500D01*
X85476144Y-11339221D01*
X85479563Y-11316166D01*
X85485227Y-11293557D01*
X85493079Y-11271613D01*
X85503044Y-11250543D01*
X85515026Y-11230552D01*
X85528910Y-11211832D01*
X85544562Y-11194562D01*
X85561832Y-11178910D01*
X85580552Y-11165026D01*
X85600543Y-11153044D01*
X85621613Y-11143079D01*
X85643557Y-11135227D01*
X85666166Y-11129563D01*
X85689221Y-11126144D01*
X85712500Y-11125000D01*
X86187500Y-11125000D01*
X86210779Y-11126144D01*
X86210779Y-11126144D01*
G37*
D11*
X85950000Y-11650000D03*
D10*
G36*
X75410779Y-11101144D02*
G01*
X75433834Y-11104563D01*
X75456443Y-11110227D01*
X75478387Y-11118079D01*
X75499457Y-11128044D01*
X75519448Y-11140026D01*
X75538168Y-11153910D01*
X75555438Y-11169562D01*
X75571090Y-11186832D01*
X75584974Y-11205552D01*
X75596956Y-11225543D01*
X75606921Y-11246613D01*
X75614773Y-11268557D01*
X75620437Y-11291166D01*
X75623856Y-11314221D01*
X75625000Y-11337500D01*
X75625000Y-11912500D01*
X75623856Y-11935779D01*
X75620437Y-11958834D01*
X75614773Y-11981443D01*
X75606921Y-12003387D01*
X75596956Y-12024457D01*
X75584974Y-12044448D01*
X75571090Y-12063168D01*
X75555438Y-12080438D01*
X75538168Y-12096090D01*
X75519448Y-12109974D01*
X75499457Y-12121956D01*
X75478387Y-12131921D01*
X75456443Y-12139773D01*
X75433834Y-12145437D01*
X75410779Y-12148856D01*
X75387500Y-12150000D01*
X74912500Y-12150000D01*
X74889221Y-12148856D01*
X74866166Y-12145437D01*
X74843557Y-12139773D01*
X74821613Y-12131921D01*
X74800543Y-12121956D01*
X74780552Y-12109974D01*
X74761832Y-12096090D01*
X74744562Y-12080438D01*
X74728910Y-12063168D01*
X74715026Y-12044448D01*
X74703044Y-12024457D01*
X74693079Y-12003387D01*
X74685227Y-11981443D01*
X74679563Y-11958834D01*
X74676144Y-11935779D01*
X74675000Y-11912500D01*
X74675000Y-11337500D01*
X74676144Y-11314221D01*
X74679563Y-11291166D01*
X74685227Y-11268557D01*
X74693079Y-11246613D01*
X74703044Y-11225543D01*
X74715026Y-11205552D01*
X74728910Y-11186832D01*
X74744562Y-11169562D01*
X74761832Y-11153910D01*
X74780552Y-11140026D01*
X74800543Y-11128044D01*
X74821613Y-11118079D01*
X74843557Y-11110227D01*
X74866166Y-11104563D01*
X74889221Y-11101144D01*
X74912500Y-11100000D01*
X75387500Y-11100000D01*
X75410779Y-11101144D01*
X75410779Y-11101144D01*
G37*
D11*
X75150000Y-11625000D03*
D10*
G36*
X75410779Y-12851144D02*
G01*
X75433834Y-12854563D01*
X75456443Y-12860227D01*
X75478387Y-12868079D01*
X75499457Y-12878044D01*
X75519448Y-12890026D01*
X75538168Y-12903910D01*
X75555438Y-12919562D01*
X75571090Y-12936832D01*
X75584974Y-12955552D01*
X75596956Y-12975543D01*
X75606921Y-12996613D01*
X75614773Y-13018557D01*
X75620437Y-13041166D01*
X75623856Y-13064221D01*
X75625000Y-13087500D01*
X75625000Y-13662500D01*
X75623856Y-13685779D01*
X75620437Y-13708834D01*
X75614773Y-13731443D01*
X75606921Y-13753387D01*
X75596956Y-13774457D01*
X75584974Y-13794448D01*
X75571090Y-13813168D01*
X75555438Y-13830438D01*
X75538168Y-13846090D01*
X75519448Y-13859974D01*
X75499457Y-13871956D01*
X75478387Y-13881921D01*
X75456443Y-13889773D01*
X75433834Y-13895437D01*
X75410779Y-13898856D01*
X75387500Y-13900000D01*
X74912500Y-13900000D01*
X74889221Y-13898856D01*
X74866166Y-13895437D01*
X74843557Y-13889773D01*
X74821613Y-13881921D01*
X74800543Y-13871956D01*
X74780552Y-13859974D01*
X74761832Y-13846090D01*
X74744562Y-13830438D01*
X74728910Y-13813168D01*
X74715026Y-13794448D01*
X74703044Y-13774457D01*
X74693079Y-13753387D01*
X74685227Y-13731443D01*
X74679563Y-13708834D01*
X74676144Y-13685779D01*
X74675000Y-13662500D01*
X74675000Y-13087500D01*
X74676144Y-13064221D01*
X74679563Y-13041166D01*
X74685227Y-13018557D01*
X74693079Y-12996613D01*
X74703044Y-12975543D01*
X74715026Y-12955552D01*
X74728910Y-12936832D01*
X74744562Y-12919562D01*
X74761832Y-12903910D01*
X74780552Y-12890026D01*
X74800543Y-12878044D01*
X74821613Y-12868079D01*
X74843557Y-12860227D01*
X74866166Y-12854563D01*
X74889221Y-12851144D01*
X74912500Y-12850000D01*
X75387500Y-12850000D01*
X75410779Y-12851144D01*
X75410779Y-12851144D01*
G37*
D11*
X75150000Y-13375000D03*
D10*
G36*
X24810779Y-24276144D02*
G01*
X24833834Y-24279563D01*
X24856443Y-24285227D01*
X24878387Y-24293079D01*
X24899457Y-24303044D01*
X24919448Y-24315026D01*
X24938168Y-24328910D01*
X24955438Y-24344562D01*
X24971090Y-24361832D01*
X24984974Y-24380552D01*
X24996956Y-24400543D01*
X25006921Y-24421613D01*
X25014773Y-24443557D01*
X25020437Y-24466166D01*
X25023856Y-24489221D01*
X25025000Y-24512500D01*
X25025000Y-24987500D01*
X25023856Y-25010779D01*
X25020437Y-25033834D01*
X25014773Y-25056443D01*
X25006921Y-25078387D01*
X24996956Y-25099457D01*
X24984974Y-25119448D01*
X24971090Y-25138168D01*
X24955438Y-25155438D01*
X24938168Y-25171090D01*
X24919448Y-25184974D01*
X24899457Y-25196956D01*
X24878387Y-25206921D01*
X24856443Y-25214773D01*
X24833834Y-25220437D01*
X24810779Y-25223856D01*
X24787500Y-25225000D01*
X24212500Y-25225000D01*
X24189221Y-25223856D01*
X24166166Y-25220437D01*
X24143557Y-25214773D01*
X24121613Y-25206921D01*
X24100543Y-25196956D01*
X24080552Y-25184974D01*
X24061832Y-25171090D01*
X24044562Y-25155438D01*
X24028910Y-25138168D01*
X24015026Y-25119448D01*
X24003044Y-25099457D01*
X23993079Y-25078387D01*
X23985227Y-25056443D01*
X23979563Y-25033834D01*
X23976144Y-25010779D01*
X23975000Y-24987500D01*
X23975000Y-24512500D01*
X23976144Y-24489221D01*
X23979563Y-24466166D01*
X23985227Y-24443557D01*
X23993079Y-24421613D01*
X24003044Y-24400543D01*
X24015026Y-24380552D01*
X24028910Y-24361832D01*
X24044562Y-24344562D01*
X24061832Y-24328910D01*
X24080552Y-24315026D01*
X24100543Y-24303044D01*
X24121613Y-24293079D01*
X24143557Y-24285227D01*
X24166166Y-24279563D01*
X24189221Y-24276144D01*
X24212500Y-24275000D01*
X24787500Y-24275000D01*
X24810779Y-24276144D01*
X24810779Y-24276144D01*
G37*
D11*
X24500000Y-24750000D03*
D10*
G36*
X26560779Y-24276144D02*
G01*
X26583834Y-24279563D01*
X26606443Y-24285227D01*
X26628387Y-24293079D01*
X26649457Y-24303044D01*
X26669448Y-24315026D01*
X26688168Y-24328910D01*
X26705438Y-24344562D01*
X26721090Y-24361832D01*
X26734974Y-24380552D01*
X26746956Y-24400543D01*
X26756921Y-24421613D01*
X26764773Y-24443557D01*
X26770437Y-24466166D01*
X26773856Y-24489221D01*
X26775000Y-24512500D01*
X26775000Y-24987500D01*
X26773856Y-25010779D01*
X26770437Y-25033834D01*
X26764773Y-25056443D01*
X26756921Y-25078387D01*
X26746956Y-25099457D01*
X26734974Y-25119448D01*
X26721090Y-25138168D01*
X26705438Y-25155438D01*
X26688168Y-25171090D01*
X26669448Y-25184974D01*
X26649457Y-25196956D01*
X26628387Y-25206921D01*
X26606443Y-25214773D01*
X26583834Y-25220437D01*
X26560779Y-25223856D01*
X26537500Y-25225000D01*
X25962500Y-25225000D01*
X25939221Y-25223856D01*
X25916166Y-25220437D01*
X25893557Y-25214773D01*
X25871613Y-25206921D01*
X25850543Y-25196956D01*
X25830552Y-25184974D01*
X25811832Y-25171090D01*
X25794562Y-25155438D01*
X25778910Y-25138168D01*
X25765026Y-25119448D01*
X25753044Y-25099457D01*
X25743079Y-25078387D01*
X25735227Y-25056443D01*
X25729563Y-25033834D01*
X25726144Y-25010779D01*
X25725000Y-24987500D01*
X25725000Y-24512500D01*
X25726144Y-24489221D01*
X25729563Y-24466166D01*
X25735227Y-24443557D01*
X25743079Y-24421613D01*
X25753044Y-24400543D01*
X25765026Y-24380552D01*
X25778910Y-24361832D01*
X25794562Y-24344562D01*
X25811832Y-24328910D01*
X25830552Y-24315026D01*
X25850543Y-24303044D01*
X25871613Y-24293079D01*
X25893557Y-24285227D01*
X25916166Y-24279563D01*
X25939221Y-24276144D01*
X25962500Y-24275000D01*
X26537500Y-24275000D01*
X26560779Y-24276144D01*
X26560779Y-24276144D01*
G37*
D11*
X26250000Y-24750000D03*
D10*
G36*
X78010779Y-4826144D02*
G01*
X78033834Y-4829563D01*
X78056443Y-4835227D01*
X78078387Y-4843079D01*
X78099457Y-4853044D01*
X78119448Y-4865026D01*
X78138168Y-4878910D01*
X78155438Y-4894562D01*
X78171090Y-4911832D01*
X78184974Y-4930552D01*
X78196956Y-4950543D01*
X78206921Y-4971613D01*
X78214773Y-4993557D01*
X78220437Y-5016166D01*
X78223856Y-5039221D01*
X78225000Y-5062500D01*
X78225000Y-5537500D01*
X78223856Y-5560779D01*
X78220437Y-5583834D01*
X78214773Y-5606443D01*
X78206921Y-5628387D01*
X78196956Y-5649457D01*
X78184974Y-5669448D01*
X78171090Y-5688168D01*
X78155438Y-5705438D01*
X78138168Y-5721090D01*
X78119448Y-5734974D01*
X78099457Y-5746956D01*
X78078387Y-5756921D01*
X78056443Y-5764773D01*
X78033834Y-5770437D01*
X78010779Y-5773856D01*
X77987500Y-5775000D01*
X77412500Y-5775000D01*
X77389221Y-5773856D01*
X77366166Y-5770437D01*
X77343557Y-5764773D01*
X77321613Y-5756921D01*
X77300543Y-5746956D01*
X77280552Y-5734974D01*
X77261832Y-5721090D01*
X77244562Y-5705438D01*
X77228910Y-5688168D01*
X77215026Y-5669448D01*
X77203044Y-5649457D01*
X77193079Y-5628387D01*
X77185227Y-5606443D01*
X77179563Y-5583834D01*
X77176144Y-5560779D01*
X77175000Y-5537500D01*
X77175000Y-5062500D01*
X77176144Y-5039221D01*
X77179563Y-5016166D01*
X77185227Y-4993557D01*
X77193079Y-4971613D01*
X77203044Y-4950543D01*
X77215026Y-4930552D01*
X77228910Y-4911832D01*
X77244562Y-4894562D01*
X77261832Y-4878910D01*
X77280552Y-4865026D01*
X77300543Y-4853044D01*
X77321613Y-4843079D01*
X77343557Y-4835227D01*
X77366166Y-4829563D01*
X77389221Y-4826144D01*
X77412500Y-4825000D01*
X77987500Y-4825000D01*
X78010779Y-4826144D01*
X78010779Y-4826144D01*
G37*
D11*
X77700000Y-5300000D03*
D10*
G36*
X79760779Y-4826144D02*
G01*
X79783834Y-4829563D01*
X79806443Y-4835227D01*
X79828387Y-4843079D01*
X79849457Y-4853044D01*
X79869448Y-4865026D01*
X79888168Y-4878910D01*
X79905438Y-4894562D01*
X79921090Y-4911832D01*
X79934974Y-4930552D01*
X79946956Y-4950543D01*
X79956921Y-4971613D01*
X79964773Y-4993557D01*
X79970437Y-5016166D01*
X79973856Y-5039221D01*
X79975000Y-5062500D01*
X79975000Y-5537500D01*
X79973856Y-5560779D01*
X79970437Y-5583834D01*
X79964773Y-5606443D01*
X79956921Y-5628387D01*
X79946956Y-5649457D01*
X79934974Y-5669448D01*
X79921090Y-5688168D01*
X79905438Y-5705438D01*
X79888168Y-5721090D01*
X79869448Y-5734974D01*
X79849457Y-5746956D01*
X79828387Y-5756921D01*
X79806443Y-5764773D01*
X79783834Y-5770437D01*
X79760779Y-5773856D01*
X79737500Y-5775000D01*
X79162500Y-5775000D01*
X79139221Y-5773856D01*
X79116166Y-5770437D01*
X79093557Y-5764773D01*
X79071613Y-5756921D01*
X79050543Y-5746956D01*
X79030552Y-5734974D01*
X79011832Y-5721090D01*
X78994562Y-5705438D01*
X78978910Y-5688168D01*
X78965026Y-5669448D01*
X78953044Y-5649457D01*
X78943079Y-5628387D01*
X78935227Y-5606443D01*
X78929563Y-5583834D01*
X78926144Y-5560779D01*
X78925000Y-5537500D01*
X78925000Y-5062500D01*
X78926144Y-5039221D01*
X78929563Y-5016166D01*
X78935227Y-4993557D01*
X78943079Y-4971613D01*
X78953044Y-4950543D01*
X78965026Y-4930552D01*
X78978910Y-4911832D01*
X78994562Y-4894562D01*
X79011832Y-4878910D01*
X79030552Y-4865026D01*
X79050543Y-4853044D01*
X79071613Y-4843079D01*
X79093557Y-4835227D01*
X79116166Y-4829563D01*
X79139221Y-4826144D01*
X79162500Y-4825000D01*
X79737500Y-4825000D01*
X79760779Y-4826144D01*
X79760779Y-4826144D01*
G37*
D11*
X79450000Y-5300000D03*
D10*
G36*
X86460779Y-4876144D02*
G01*
X86483834Y-4879563D01*
X86506443Y-4885227D01*
X86528387Y-4893079D01*
X86549457Y-4903044D01*
X86569448Y-4915026D01*
X86588168Y-4928910D01*
X86605438Y-4944562D01*
X86621090Y-4961832D01*
X86634974Y-4980552D01*
X86646956Y-5000543D01*
X86656921Y-5021613D01*
X86664773Y-5043557D01*
X86670437Y-5066166D01*
X86673856Y-5089221D01*
X86675000Y-5112500D01*
X86675000Y-5587500D01*
X86673856Y-5610779D01*
X86670437Y-5633834D01*
X86664773Y-5656443D01*
X86656921Y-5678387D01*
X86646956Y-5699457D01*
X86634974Y-5719448D01*
X86621090Y-5738168D01*
X86605438Y-5755438D01*
X86588168Y-5771090D01*
X86569448Y-5784974D01*
X86549457Y-5796956D01*
X86528387Y-5806921D01*
X86506443Y-5814773D01*
X86483834Y-5820437D01*
X86460779Y-5823856D01*
X86437500Y-5825000D01*
X85862500Y-5825000D01*
X85839221Y-5823856D01*
X85816166Y-5820437D01*
X85793557Y-5814773D01*
X85771613Y-5806921D01*
X85750543Y-5796956D01*
X85730552Y-5784974D01*
X85711832Y-5771090D01*
X85694562Y-5755438D01*
X85678910Y-5738168D01*
X85665026Y-5719448D01*
X85653044Y-5699457D01*
X85643079Y-5678387D01*
X85635227Y-5656443D01*
X85629563Y-5633834D01*
X85626144Y-5610779D01*
X85625000Y-5587500D01*
X85625000Y-5112500D01*
X85626144Y-5089221D01*
X85629563Y-5066166D01*
X85635227Y-5043557D01*
X85643079Y-5021613D01*
X85653044Y-5000543D01*
X85665026Y-4980552D01*
X85678910Y-4961832D01*
X85694562Y-4944562D01*
X85711832Y-4928910D01*
X85730552Y-4915026D01*
X85750543Y-4903044D01*
X85771613Y-4893079D01*
X85793557Y-4885227D01*
X85816166Y-4879563D01*
X85839221Y-4876144D01*
X85862500Y-4875000D01*
X86437500Y-4875000D01*
X86460779Y-4876144D01*
X86460779Y-4876144D01*
G37*
D11*
X86150000Y-5350000D03*
D10*
G36*
X88210779Y-4876144D02*
G01*
X88233834Y-4879563D01*
X88256443Y-4885227D01*
X88278387Y-4893079D01*
X88299457Y-4903044D01*
X88319448Y-4915026D01*
X88338168Y-4928910D01*
X88355438Y-4944562D01*
X88371090Y-4961832D01*
X88384974Y-4980552D01*
X88396956Y-5000543D01*
X88406921Y-5021613D01*
X88414773Y-5043557D01*
X88420437Y-5066166D01*
X88423856Y-5089221D01*
X88425000Y-5112500D01*
X88425000Y-5587500D01*
X88423856Y-5610779D01*
X88420437Y-5633834D01*
X88414773Y-5656443D01*
X88406921Y-5678387D01*
X88396956Y-5699457D01*
X88384974Y-5719448D01*
X88371090Y-5738168D01*
X88355438Y-5755438D01*
X88338168Y-5771090D01*
X88319448Y-5784974D01*
X88299457Y-5796956D01*
X88278387Y-5806921D01*
X88256443Y-5814773D01*
X88233834Y-5820437D01*
X88210779Y-5823856D01*
X88187500Y-5825000D01*
X87612500Y-5825000D01*
X87589221Y-5823856D01*
X87566166Y-5820437D01*
X87543557Y-5814773D01*
X87521613Y-5806921D01*
X87500543Y-5796956D01*
X87480552Y-5784974D01*
X87461832Y-5771090D01*
X87444562Y-5755438D01*
X87428910Y-5738168D01*
X87415026Y-5719448D01*
X87403044Y-5699457D01*
X87393079Y-5678387D01*
X87385227Y-5656443D01*
X87379563Y-5633834D01*
X87376144Y-5610779D01*
X87375000Y-5587500D01*
X87375000Y-5112500D01*
X87376144Y-5089221D01*
X87379563Y-5066166D01*
X87385227Y-5043557D01*
X87393079Y-5021613D01*
X87403044Y-5000543D01*
X87415026Y-4980552D01*
X87428910Y-4961832D01*
X87444562Y-4944562D01*
X87461832Y-4928910D01*
X87480552Y-4915026D01*
X87500543Y-4903044D01*
X87521613Y-4893079D01*
X87543557Y-4885227D01*
X87566166Y-4879563D01*
X87589221Y-4876144D01*
X87612500Y-4875000D01*
X88187500Y-4875000D01*
X88210779Y-4876144D01*
X88210779Y-4876144D01*
G37*
D11*
X87900000Y-5350000D03*
D10*
G36*
X86460779Y-3076144D02*
G01*
X86483834Y-3079563D01*
X86506443Y-3085227D01*
X86528387Y-3093079D01*
X86549457Y-3103044D01*
X86569448Y-3115026D01*
X86588168Y-3128910D01*
X86605438Y-3144562D01*
X86621090Y-3161832D01*
X86634974Y-3180552D01*
X86646956Y-3200543D01*
X86656921Y-3221613D01*
X86664773Y-3243557D01*
X86670437Y-3266166D01*
X86673856Y-3289221D01*
X86675000Y-3312500D01*
X86675000Y-3787500D01*
X86673856Y-3810779D01*
X86670437Y-3833834D01*
X86664773Y-3856443D01*
X86656921Y-3878387D01*
X86646956Y-3899457D01*
X86634974Y-3919448D01*
X86621090Y-3938168D01*
X86605438Y-3955438D01*
X86588168Y-3971090D01*
X86569448Y-3984974D01*
X86549457Y-3996956D01*
X86528387Y-4006921D01*
X86506443Y-4014773D01*
X86483834Y-4020437D01*
X86460779Y-4023856D01*
X86437500Y-4025000D01*
X85862500Y-4025000D01*
X85839221Y-4023856D01*
X85816166Y-4020437D01*
X85793557Y-4014773D01*
X85771613Y-4006921D01*
X85750543Y-3996956D01*
X85730552Y-3984974D01*
X85711832Y-3971090D01*
X85694562Y-3955438D01*
X85678910Y-3938168D01*
X85665026Y-3919448D01*
X85653044Y-3899457D01*
X85643079Y-3878387D01*
X85635227Y-3856443D01*
X85629563Y-3833834D01*
X85626144Y-3810779D01*
X85625000Y-3787500D01*
X85625000Y-3312500D01*
X85626144Y-3289221D01*
X85629563Y-3266166D01*
X85635227Y-3243557D01*
X85643079Y-3221613D01*
X85653044Y-3200543D01*
X85665026Y-3180552D01*
X85678910Y-3161832D01*
X85694562Y-3144562D01*
X85711832Y-3128910D01*
X85730552Y-3115026D01*
X85750543Y-3103044D01*
X85771613Y-3093079D01*
X85793557Y-3085227D01*
X85816166Y-3079563D01*
X85839221Y-3076144D01*
X85862500Y-3075000D01*
X86437500Y-3075000D01*
X86460779Y-3076144D01*
X86460779Y-3076144D01*
G37*
D11*
X86150000Y-3550000D03*
D10*
G36*
X88210779Y-3076144D02*
G01*
X88233834Y-3079563D01*
X88256443Y-3085227D01*
X88278387Y-3093079D01*
X88299457Y-3103044D01*
X88319448Y-3115026D01*
X88338168Y-3128910D01*
X88355438Y-3144562D01*
X88371090Y-3161832D01*
X88384974Y-3180552D01*
X88396956Y-3200543D01*
X88406921Y-3221613D01*
X88414773Y-3243557D01*
X88420437Y-3266166D01*
X88423856Y-3289221D01*
X88425000Y-3312500D01*
X88425000Y-3787500D01*
X88423856Y-3810779D01*
X88420437Y-3833834D01*
X88414773Y-3856443D01*
X88406921Y-3878387D01*
X88396956Y-3899457D01*
X88384974Y-3919448D01*
X88371090Y-3938168D01*
X88355438Y-3955438D01*
X88338168Y-3971090D01*
X88319448Y-3984974D01*
X88299457Y-3996956D01*
X88278387Y-4006921D01*
X88256443Y-4014773D01*
X88233834Y-4020437D01*
X88210779Y-4023856D01*
X88187500Y-4025000D01*
X87612500Y-4025000D01*
X87589221Y-4023856D01*
X87566166Y-4020437D01*
X87543557Y-4014773D01*
X87521613Y-4006921D01*
X87500543Y-3996956D01*
X87480552Y-3984974D01*
X87461832Y-3971090D01*
X87444562Y-3955438D01*
X87428910Y-3938168D01*
X87415026Y-3919448D01*
X87403044Y-3899457D01*
X87393079Y-3878387D01*
X87385227Y-3856443D01*
X87379563Y-3833834D01*
X87376144Y-3810779D01*
X87375000Y-3787500D01*
X87375000Y-3312500D01*
X87376144Y-3289221D01*
X87379563Y-3266166D01*
X87385227Y-3243557D01*
X87393079Y-3221613D01*
X87403044Y-3200543D01*
X87415026Y-3180552D01*
X87428910Y-3161832D01*
X87444562Y-3144562D01*
X87461832Y-3128910D01*
X87480552Y-3115026D01*
X87500543Y-3103044D01*
X87521613Y-3093079D01*
X87543557Y-3085227D01*
X87566166Y-3079563D01*
X87589221Y-3076144D01*
X87612500Y-3075000D01*
X88187500Y-3075000D01*
X88210779Y-3076144D01*
X88210779Y-3076144D01*
G37*
D11*
X87900000Y-3550000D03*
D10*
G36*
X55160779Y-12426144D02*
G01*
X55183834Y-12429563D01*
X55206443Y-12435227D01*
X55228387Y-12443079D01*
X55249457Y-12453044D01*
X55269448Y-12465026D01*
X55288168Y-12478910D01*
X55305438Y-12494562D01*
X55321090Y-12511832D01*
X55334974Y-12530552D01*
X55346956Y-12550543D01*
X55356921Y-12571613D01*
X55364773Y-12593557D01*
X55370437Y-12616166D01*
X55373856Y-12639221D01*
X55375000Y-12662500D01*
X55375000Y-13137500D01*
X55373856Y-13160779D01*
X55370437Y-13183834D01*
X55364773Y-13206443D01*
X55356921Y-13228387D01*
X55346956Y-13249457D01*
X55334974Y-13269448D01*
X55321090Y-13288168D01*
X55305438Y-13305438D01*
X55288168Y-13321090D01*
X55269448Y-13334974D01*
X55249457Y-13346956D01*
X55228387Y-13356921D01*
X55206443Y-13364773D01*
X55183834Y-13370437D01*
X55160779Y-13373856D01*
X55137500Y-13375000D01*
X54562500Y-13375000D01*
X54539221Y-13373856D01*
X54516166Y-13370437D01*
X54493557Y-13364773D01*
X54471613Y-13356921D01*
X54450543Y-13346956D01*
X54430552Y-13334974D01*
X54411832Y-13321090D01*
X54394562Y-13305438D01*
X54378910Y-13288168D01*
X54365026Y-13269448D01*
X54353044Y-13249457D01*
X54343079Y-13228387D01*
X54335227Y-13206443D01*
X54329563Y-13183834D01*
X54326144Y-13160779D01*
X54325000Y-13137500D01*
X54325000Y-12662500D01*
X54326144Y-12639221D01*
X54329563Y-12616166D01*
X54335227Y-12593557D01*
X54343079Y-12571613D01*
X54353044Y-12550543D01*
X54365026Y-12530552D01*
X54378910Y-12511832D01*
X54394562Y-12494562D01*
X54411832Y-12478910D01*
X54430552Y-12465026D01*
X54450543Y-12453044D01*
X54471613Y-12443079D01*
X54493557Y-12435227D01*
X54516166Y-12429563D01*
X54539221Y-12426144D01*
X54562500Y-12425000D01*
X55137500Y-12425000D01*
X55160779Y-12426144D01*
X55160779Y-12426144D01*
G37*
D11*
X54850000Y-12900000D03*
D10*
G36*
X53410779Y-12426144D02*
G01*
X53433834Y-12429563D01*
X53456443Y-12435227D01*
X53478387Y-12443079D01*
X53499457Y-12453044D01*
X53519448Y-12465026D01*
X53538168Y-12478910D01*
X53555438Y-12494562D01*
X53571090Y-12511832D01*
X53584974Y-12530552D01*
X53596956Y-12550543D01*
X53606921Y-12571613D01*
X53614773Y-12593557D01*
X53620437Y-12616166D01*
X53623856Y-12639221D01*
X53625000Y-12662500D01*
X53625000Y-13137500D01*
X53623856Y-13160779D01*
X53620437Y-13183834D01*
X53614773Y-13206443D01*
X53606921Y-13228387D01*
X53596956Y-13249457D01*
X53584974Y-13269448D01*
X53571090Y-13288168D01*
X53555438Y-13305438D01*
X53538168Y-13321090D01*
X53519448Y-13334974D01*
X53499457Y-13346956D01*
X53478387Y-13356921D01*
X53456443Y-13364773D01*
X53433834Y-13370437D01*
X53410779Y-13373856D01*
X53387500Y-13375000D01*
X52812500Y-13375000D01*
X52789221Y-13373856D01*
X52766166Y-13370437D01*
X52743557Y-13364773D01*
X52721613Y-13356921D01*
X52700543Y-13346956D01*
X52680552Y-13334974D01*
X52661832Y-13321090D01*
X52644562Y-13305438D01*
X52628910Y-13288168D01*
X52615026Y-13269448D01*
X52603044Y-13249457D01*
X52593079Y-13228387D01*
X52585227Y-13206443D01*
X52579563Y-13183834D01*
X52576144Y-13160779D01*
X52575000Y-13137500D01*
X52575000Y-12662500D01*
X52576144Y-12639221D01*
X52579563Y-12616166D01*
X52585227Y-12593557D01*
X52593079Y-12571613D01*
X52603044Y-12550543D01*
X52615026Y-12530552D01*
X52628910Y-12511832D01*
X52644562Y-12494562D01*
X52661832Y-12478910D01*
X52680552Y-12465026D01*
X52700543Y-12453044D01*
X52721613Y-12443079D01*
X52743557Y-12435227D01*
X52766166Y-12429563D01*
X52789221Y-12426144D01*
X52812500Y-12425000D01*
X53387500Y-12425000D01*
X53410779Y-12426144D01*
X53410779Y-12426144D01*
G37*
D11*
X53100000Y-12900000D03*
D10*
G36*
X73035779Y-3401144D02*
G01*
X73058834Y-3404563D01*
X73081443Y-3410227D01*
X73103387Y-3418079D01*
X73124457Y-3428044D01*
X73144448Y-3440026D01*
X73163168Y-3453910D01*
X73180438Y-3469562D01*
X73196090Y-3486832D01*
X73209974Y-3505552D01*
X73221956Y-3525543D01*
X73231921Y-3546613D01*
X73239773Y-3568557D01*
X73245437Y-3591166D01*
X73248856Y-3614221D01*
X73250000Y-3637500D01*
X73250000Y-4112500D01*
X73248856Y-4135779D01*
X73245437Y-4158834D01*
X73239773Y-4181443D01*
X73231921Y-4203387D01*
X73221956Y-4224457D01*
X73209974Y-4244448D01*
X73196090Y-4263168D01*
X73180438Y-4280438D01*
X73163168Y-4296090D01*
X73144448Y-4309974D01*
X73124457Y-4321956D01*
X73103387Y-4331921D01*
X73081443Y-4339773D01*
X73058834Y-4345437D01*
X73035779Y-4348856D01*
X73012500Y-4350000D01*
X72437500Y-4350000D01*
X72414221Y-4348856D01*
X72391166Y-4345437D01*
X72368557Y-4339773D01*
X72346613Y-4331921D01*
X72325543Y-4321956D01*
X72305552Y-4309974D01*
X72286832Y-4296090D01*
X72269562Y-4280438D01*
X72253910Y-4263168D01*
X72240026Y-4244448D01*
X72228044Y-4224457D01*
X72218079Y-4203387D01*
X72210227Y-4181443D01*
X72204563Y-4158834D01*
X72201144Y-4135779D01*
X72200000Y-4112500D01*
X72200000Y-3637500D01*
X72201144Y-3614221D01*
X72204563Y-3591166D01*
X72210227Y-3568557D01*
X72218079Y-3546613D01*
X72228044Y-3525543D01*
X72240026Y-3505552D01*
X72253910Y-3486832D01*
X72269562Y-3469562D01*
X72286832Y-3453910D01*
X72305552Y-3440026D01*
X72325543Y-3428044D01*
X72346613Y-3418079D01*
X72368557Y-3410227D01*
X72391166Y-3404563D01*
X72414221Y-3401144D01*
X72437500Y-3400000D01*
X73012500Y-3400000D01*
X73035779Y-3401144D01*
X73035779Y-3401144D01*
G37*
D11*
X72725000Y-3875000D03*
D10*
G36*
X74785779Y-3401144D02*
G01*
X74808834Y-3404563D01*
X74831443Y-3410227D01*
X74853387Y-3418079D01*
X74874457Y-3428044D01*
X74894448Y-3440026D01*
X74913168Y-3453910D01*
X74930438Y-3469562D01*
X74946090Y-3486832D01*
X74959974Y-3505552D01*
X74971956Y-3525543D01*
X74981921Y-3546613D01*
X74989773Y-3568557D01*
X74995437Y-3591166D01*
X74998856Y-3614221D01*
X75000000Y-3637500D01*
X75000000Y-4112500D01*
X74998856Y-4135779D01*
X74995437Y-4158834D01*
X74989773Y-4181443D01*
X74981921Y-4203387D01*
X74971956Y-4224457D01*
X74959974Y-4244448D01*
X74946090Y-4263168D01*
X74930438Y-4280438D01*
X74913168Y-4296090D01*
X74894448Y-4309974D01*
X74874457Y-4321956D01*
X74853387Y-4331921D01*
X74831443Y-4339773D01*
X74808834Y-4345437D01*
X74785779Y-4348856D01*
X74762500Y-4350000D01*
X74187500Y-4350000D01*
X74164221Y-4348856D01*
X74141166Y-4345437D01*
X74118557Y-4339773D01*
X74096613Y-4331921D01*
X74075543Y-4321956D01*
X74055552Y-4309974D01*
X74036832Y-4296090D01*
X74019562Y-4280438D01*
X74003910Y-4263168D01*
X73990026Y-4244448D01*
X73978044Y-4224457D01*
X73968079Y-4203387D01*
X73960227Y-4181443D01*
X73954563Y-4158834D01*
X73951144Y-4135779D01*
X73950000Y-4112500D01*
X73950000Y-3637500D01*
X73951144Y-3614221D01*
X73954563Y-3591166D01*
X73960227Y-3568557D01*
X73968079Y-3546613D01*
X73978044Y-3525543D01*
X73990026Y-3505552D01*
X74003910Y-3486832D01*
X74019562Y-3469562D01*
X74036832Y-3453910D01*
X74055552Y-3440026D01*
X74075543Y-3428044D01*
X74096613Y-3418079D01*
X74118557Y-3410227D01*
X74141166Y-3404563D01*
X74164221Y-3401144D01*
X74187500Y-3400000D01*
X74762500Y-3400000D01*
X74785779Y-3401144D01*
X74785779Y-3401144D01*
G37*
D11*
X74475000Y-3875000D03*
D10*
G36*
X61485779Y-8251144D02*
G01*
X61508834Y-8254563D01*
X61531443Y-8260227D01*
X61553387Y-8268079D01*
X61574457Y-8278044D01*
X61594448Y-8290026D01*
X61613168Y-8303910D01*
X61630438Y-8319562D01*
X61646090Y-8336832D01*
X61659974Y-8355552D01*
X61671956Y-8375543D01*
X61681921Y-8396613D01*
X61689773Y-8418557D01*
X61695437Y-8441166D01*
X61698856Y-8464221D01*
X61700000Y-8487500D01*
X61700000Y-8962500D01*
X61698856Y-8985779D01*
X61695437Y-9008834D01*
X61689773Y-9031443D01*
X61681921Y-9053387D01*
X61671956Y-9074457D01*
X61659974Y-9094448D01*
X61646090Y-9113168D01*
X61630438Y-9130438D01*
X61613168Y-9146090D01*
X61594448Y-9159974D01*
X61574457Y-9171956D01*
X61553387Y-9181921D01*
X61531443Y-9189773D01*
X61508834Y-9195437D01*
X61485779Y-9198856D01*
X61462500Y-9200000D01*
X60887500Y-9200000D01*
X60864221Y-9198856D01*
X60841166Y-9195437D01*
X60818557Y-9189773D01*
X60796613Y-9181921D01*
X60775543Y-9171956D01*
X60755552Y-9159974D01*
X60736832Y-9146090D01*
X60719562Y-9130438D01*
X60703910Y-9113168D01*
X60690026Y-9094448D01*
X60678044Y-9074457D01*
X60668079Y-9053387D01*
X60660227Y-9031443D01*
X60654563Y-9008834D01*
X60651144Y-8985779D01*
X60650000Y-8962500D01*
X60650000Y-8487500D01*
X60651144Y-8464221D01*
X60654563Y-8441166D01*
X60660227Y-8418557D01*
X60668079Y-8396613D01*
X60678044Y-8375543D01*
X60690026Y-8355552D01*
X60703910Y-8336832D01*
X60719562Y-8319562D01*
X60736832Y-8303910D01*
X60755552Y-8290026D01*
X60775543Y-8278044D01*
X60796613Y-8268079D01*
X60818557Y-8260227D01*
X60841166Y-8254563D01*
X60864221Y-8251144D01*
X60887500Y-8250000D01*
X61462500Y-8250000D01*
X61485779Y-8251144D01*
X61485779Y-8251144D01*
G37*
D11*
X61175000Y-8725000D03*
D10*
G36*
X59735779Y-8251144D02*
G01*
X59758834Y-8254563D01*
X59781443Y-8260227D01*
X59803387Y-8268079D01*
X59824457Y-8278044D01*
X59844448Y-8290026D01*
X59863168Y-8303910D01*
X59880438Y-8319562D01*
X59896090Y-8336832D01*
X59909974Y-8355552D01*
X59921956Y-8375543D01*
X59931921Y-8396613D01*
X59939773Y-8418557D01*
X59945437Y-8441166D01*
X59948856Y-8464221D01*
X59950000Y-8487500D01*
X59950000Y-8962500D01*
X59948856Y-8985779D01*
X59945437Y-9008834D01*
X59939773Y-9031443D01*
X59931921Y-9053387D01*
X59921956Y-9074457D01*
X59909974Y-9094448D01*
X59896090Y-9113168D01*
X59880438Y-9130438D01*
X59863168Y-9146090D01*
X59844448Y-9159974D01*
X59824457Y-9171956D01*
X59803387Y-9181921D01*
X59781443Y-9189773D01*
X59758834Y-9195437D01*
X59735779Y-9198856D01*
X59712500Y-9200000D01*
X59137500Y-9200000D01*
X59114221Y-9198856D01*
X59091166Y-9195437D01*
X59068557Y-9189773D01*
X59046613Y-9181921D01*
X59025543Y-9171956D01*
X59005552Y-9159974D01*
X58986832Y-9146090D01*
X58969562Y-9130438D01*
X58953910Y-9113168D01*
X58940026Y-9094448D01*
X58928044Y-9074457D01*
X58918079Y-9053387D01*
X58910227Y-9031443D01*
X58904563Y-9008834D01*
X58901144Y-8985779D01*
X58900000Y-8962500D01*
X58900000Y-8487500D01*
X58901144Y-8464221D01*
X58904563Y-8441166D01*
X58910227Y-8418557D01*
X58918079Y-8396613D01*
X58928044Y-8375543D01*
X58940026Y-8355552D01*
X58953910Y-8336832D01*
X58969562Y-8319562D01*
X58986832Y-8303910D01*
X59005552Y-8290026D01*
X59025543Y-8278044D01*
X59046613Y-8268079D01*
X59068557Y-8260227D01*
X59091166Y-8254563D01*
X59114221Y-8251144D01*
X59137500Y-8250000D01*
X59712500Y-8250000D01*
X59735779Y-8251144D01*
X59735779Y-8251144D01*
G37*
D11*
X59425000Y-8725000D03*
D10*
G36*
X61460779Y-6626144D02*
G01*
X61483834Y-6629563D01*
X61506443Y-6635227D01*
X61528387Y-6643079D01*
X61549457Y-6653044D01*
X61569448Y-6665026D01*
X61588168Y-6678910D01*
X61605438Y-6694562D01*
X61621090Y-6711832D01*
X61634974Y-6730552D01*
X61646956Y-6750543D01*
X61656921Y-6771613D01*
X61664773Y-6793557D01*
X61670437Y-6816166D01*
X61673856Y-6839221D01*
X61675000Y-6862500D01*
X61675000Y-7337500D01*
X61673856Y-7360779D01*
X61670437Y-7383834D01*
X61664773Y-7406443D01*
X61656921Y-7428387D01*
X61646956Y-7449457D01*
X61634974Y-7469448D01*
X61621090Y-7488168D01*
X61605438Y-7505438D01*
X61588168Y-7521090D01*
X61569448Y-7534974D01*
X61549457Y-7546956D01*
X61528387Y-7556921D01*
X61506443Y-7564773D01*
X61483834Y-7570437D01*
X61460779Y-7573856D01*
X61437500Y-7575000D01*
X60862500Y-7575000D01*
X60839221Y-7573856D01*
X60816166Y-7570437D01*
X60793557Y-7564773D01*
X60771613Y-7556921D01*
X60750543Y-7546956D01*
X60730552Y-7534974D01*
X60711832Y-7521090D01*
X60694562Y-7505438D01*
X60678910Y-7488168D01*
X60665026Y-7469448D01*
X60653044Y-7449457D01*
X60643079Y-7428387D01*
X60635227Y-7406443D01*
X60629563Y-7383834D01*
X60626144Y-7360779D01*
X60625000Y-7337500D01*
X60625000Y-6862500D01*
X60626144Y-6839221D01*
X60629563Y-6816166D01*
X60635227Y-6793557D01*
X60643079Y-6771613D01*
X60653044Y-6750543D01*
X60665026Y-6730552D01*
X60678910Y-6711832D01*
X60694562Y-6694562D01*
X60711832Y-6678910D01*
X60730552Y-6665026D01*
X60750543Y-6653044D01*
X60771613Y-6643079D01*
X60793557Y-6635227D01*
X60816166Y-6629563D01*
X60839221Y-6626144D01*
X60862500Y-6625000D01*
X61437500Y-6625000D01*
X61460779Y-6626144D01*
X61460779Y-6626144D01*
G37*
D11*
X61150000Y-7100000D03*
D10*
G36*
X59710779Y-6626144D02*
G01*
X59733834Y-6629563D01*
X59756443Y-6635227D01*
X59778387Y-6643079D01*
X59799457Y-6653044D01*
X59819448Y-6665026D01*
X59838168Y-6678910D01*
X59855438Y-6694562D01*
X59871090Y-6711832D01*
X59884974Y-6730552D01*
X59896956Y-6750543D01*
X59906921Y-6771613D01*
X59914773Y-6793557D01*
X59920437Y-6816166D01*
X59923856Y-6839221D01*
X59925000Y-6862500D01*
X59925000Y-7337500D01*
X59923856Y-7360779D01*
X59920437Y-7383834D01*
X59914773Y-7406443D01*
X59906921Y-7428387D01*
X59896956Y-7449457D01*
X59884974Y-7469448D01*
X59871090Y-7488168D01*
X59855438Y-7505438D01*
X59838168Y-7521090D01*
X59819448Y-7534974D01*
X59799457Y-7546956D01*
X59778387Y-7556921D01*
X59756443Y-7564773D01*
X59733834Y-7570437D01*
X59710779Y-7573856D01*
X59687500Y-7575000D01*
X59112500Y-7575000D01*
X59089221Y-7573856D01*
X59066166Y-7570437D01*
X59043557Y-7564773D01*
X59021613Y-7556921D01*
X59000543Y-7546956D01*
X58980552Y-7534974D01*
X58961832Y-7521090D01*
X58944562Y-7505438D01*
X58928910Y-7488168D01*
X58915026Y-7469448D01*
X58903044Y-7449457D01*
X58893079Y-7428387D01*
X58885227Y-7406443D01*
X58879563Y-7383834D01*
X58876144Y-7360779D01*
X58875000Y-7337500D01*
X58875000Y-6862500D01*
X58876144Y-6839221D01*
X58879563Y-6816166D01*
X58885227Y-6793557D01*
X58893079Y-6771613D01*
X58903044Y-6750543D01*
X58915026Y-6730552D01*
X58928910Y-6711832D01*
X58944562Y-6694562D01*
X58961832Y-6678910D01*
X58980552Y-6665026D01*
X59000543Y-6653044D01*
X59021613Y-6643079D01*
X59043557Y-6635227D01*
X59066166Y-6629563D01*
X59089221Y-6626144D01*
X59112500Y-6625000D01*
X59687500Y-6625000D01*
X59710779Y-6626144D01*
X59710779Y-6626144D01*
G37*
D11*
X59400000Y-7100000D03*
D29*
X69950000Y-13100000D03*
X69950000Y-11820000D03*
X69950000Y-10560000D03*
X69950000Y-9290000D03*
X69950000Y-8010000D03*
X69950000Y-6740000D03*
X69950000Y-5480000D03*
X69950000Y-4200000D03*
X63650000Y-4200000D03*
X63650000Y-5480000D03*
X63650000Y-6740000D03*
X63650000Y-8010000D03*
X63650000Y-9290000D03*
X63650000Y-10560000D03*
X63650000Y-11820000D03*
X63650000Y-13100000D03*
D30*
X14000000Y-23250000D03*
D31*
X7700000Y-23250000D03*
X7700000Y-25550000D03*
X7700000Y-20950000D03*
M02*
