G04 #@! TF.GenerationSoftware,KiCad,Pcbnew,(5.1.0)-1*
G04 #@! TF.CreationDate,2020-03-21T07:42:55+08:00*
G04 #@! TF.ProjectId,espcnc,65737063-6e63-42e6-9b69-6361645f7063,rev?*
G04 #@! TF.SameCoordinates,PX9d5b340PY2625a00*
G04 #@! TF.FileFunction,Legend,Bot*
G04 #@! TF.FilePolarity,Positive*
%FSLAX46Y46*%
G04 Gerber Fmt 4.6, Leading zero omitted, Abs format (unit mm)*
G04 Created by KiCad (PCBNEW (5.1.0)-1) date 2020-03-21 07:42:55*
%MOMM*%
%LPD*%
G04 APERTURE LIST*
%ADD10C,0.120000*%
%ADD11C,0.150000*%
%ADD12R,2.102000X2.102000*%
%ADD13C,2.102000*%
%ADD14C,3.302000*%
%ADD15C,1.626000*%
%ADD16O,3.150000X1.952000*%
%ADD17C,1.602000*%
%ADD18R,1.902000X1.902000*%
%ADD19C,1.902000*%
%ADD20O,2.002000X1.302000*%
%ADD21C,1.552000*%
G04 APERTURE END LIST*
D10*
X13800000Y-22700000D02*
G75*
G03X13800000Y-22700000I-3000000J0D01*
G01*
X12800000Y-28600000D02*
X16900000Y-28600000D01*
X16900000Y-16800000D02*
X12800000Y-16800000D01*
X8800000Y-16800000D02*
X4700000Y-16800000D01*
X8800000Y-28600000D02*
X4700000Y-28600000D01*
X4700000Y-28600000D02*
X4700000Y-16800000D01*
X3300000Y-26500000D02*
X3000000Y-26800000D01*
X3000000Y-26800000D02*
X3600000Y-26800000D01*
X3600000Y-26800000D02*
X3300000Y-26500000D01*
X16900000Y-28600000D02*
X16900000Y-26200000D01*
X16900000Y-24000000D02*
X16900000Y-21400000D01*
X16900000Y-19200000D02*
X16900000Y-16800000D01*
X10800000Y-23200000D02*
X10800000Y-22200000D01*
X10300000Y-22700000D02*
X11300000Y-22700000D01*
X24500000Y-12650000D02*
X24500000Y-27350000D01*
X54000000Y-12650000D02*
X24500000Y-12650000D01*
X54000000Y-27350000D02*
X54000000Y-12650000D01*
X24500000Y-27350000D02*
X54000000Y-27350000D01*
X56112452Y-5150000D02*
G75*
G03X56112452Y-5150000I-1612452J0D01*
G01*
X25612452Y-5150000D02*
G75*
G03X25612452Y-5150000I-1612452J0D01*
G01*
X56112452Y-33750000D02*
G75*
G03X56112452Y-33750000I-1612452J0D01*
G01*
X25612452Y-33750000D02*
G75*
G03X25612452Y-33750000I-1612452J0D01*
G01*
X21500000Y-3150000D02*
X21500000Y-36750000D01*
X57000000Y-3150000D02*
X21500000Y-3150000D01*
X57000000Y-36750000D02*
X57000000Y-3150000D01*
X21500000Y-36750000D02*
X57000000Y-36750000D01*
X16900000Y-2450000D02*
X4600000Y-2450000D01*
X4600000Y-7030000D02*
X4600000Y-10170000D01*
X4600000Y-14750000D02*
X16900000Y-14750000D01*
X16900000Y-5170000D02*
X16900000Y-2450000D01*
X15229050Y-8640000D02*
G75*
G03X15229050Y-8640000I-4579050J0D01*
G01*
X16900000Y-14750000D02*
X16900000Y-12030000D01*
X16900000Y-10170000D02*
X16900000Y-7030000D01*
X4600000Y-12030000D02*
X4600000Y-14750000D01*
X4600000Y-2450000D02*
X4600000Y-5170000D01*
X88600000Y-7950000D02*
G75*
G03X88600000Y-7950000I-6100000J0D01*
G01*
X74710000Y-9240000D02*
X74710000Y-5820000D01*
X72190000Y-9240000D02*
X72190000Y-5820000D01*
X74710000Y-9240000D02*
X74530000Y-9240000D01*
X72370000Y-9240000D02*
X72190000Y-9240000D01*
X74710000Y-5820000D02*
X74545000Y-5820000D01*
X72355000Y-5820000D02*
X72190000Y-5820000D01*
X74710000Y-9120000D02*
X74530000Y-9120000D01*
X72370000Y-9120000D02*
X72190000Y-9120000D01*
X74710000Y-9000000D02*
X74530000Y-9000000D01*
X72370000Y-9000000D02*
X72190000Y-9000000D01*
D11*
X7433333Y-30304761D02*
X7290476Y-30352380D01*
X7052380Y-30352380D01*
X6957142Y-30304761D01*
X6909523Y-30257142D01*
X6861904Y-30161904D01*
X6861904Y-30066666D01*
X6909523Y-29971428D01*
X6957142Y-29923809D01*
X7052380Y-29876190D01*
X7242857Y-29828571D01*
X7338095Y-29780952D01*
X7385714Y-29733333D01*
X7433333Y-29638095D01*
X7433333Y-29542857D01*
X7385714Y-29447619D01*
X7338095Y-29400000D01*
X7242857Y-29352380D01*
X7004761Y-29352380D01*
X6861904Y-29400000D01*
X6528571Y-29352380D02*
X6290476Y-30352380D01*
X6100000Y-29638095D01*
X5909523Y-30352380D01*
X5671428Y-29352380D01*
X5338095Y-29447619D02*
X5290476Y-29400000D01*
X5195238Y-29352380D01*
X4957142Y-29352380D01*
X4861904Y-29400000D01*
X4814285Y-29447619D01*
X4766666Y-29542857D01*
X4766666Y-29638095D01*
X4814285Y-29780952D01*
X5385714Y-30352380D01*
X4766666Y-30352380D01*
X32961904Y-36152380D02*
X32961904Y-36961904D01*
X32914285Y-37057142D01*
X32866666Y-37104761D01*
X32771428Y-37152380D01*
X32580952Y-37152380D01*
X32485714Y-37104761D01*
X32438095Y-37057142D01*
X32390476Y-36961904D01*
X32390476Y-36152380D01*
X31961904Y-36247619D02*
X31914285Y-36200000D01*
X31819047Y-36152380D01*
X31580952Y-36152380D01*
X31485714Y-36200000D01*
X31438095Y-36247619D01*
X31390476Y-36342857D01*
X31390476Y-36438095D01*
X31438095Y-36580952D01*
X32009523Y-37152380D01*
X31390476Y-37152380D01*
X12253333Y-1844761D02*
X12110476Y-1892380D01*
X11872380Y-1892380D01*
X11777142Y-1844761D01*
X11729523Y-1797142D01*
X11681904Y-1701904D01*
X11681904Y-1606666D01*
X11729523Y-1511428D01*
X11777142Y-1463809D01*
X11872380Y-1416190D01*
X12062857Y-1368571D01*
X12158095Y-1320952D01*
X12205714Y-1273333D01*
X12253333Y-1178095D01*
X12253333Y-1082857D01*
X12205714Y-987619D01*
X12158095Y-940000D01*
X12062857Y-892380D01*
X11824761Y-892380D01*
X11681904Y-940000D01*
X11348571Y-892380D02*
X11110476Y-1892380D01*
X10920000Y-1178095D01*
X10729523Y-1892380D01*
X10491428Y-892380D01*
X9586666Y-1892380D02*
X10158095Y-1892380D01*
X9872380Y-1892380D02*
X9872380Y-892380D01*
X9967619Y-1035238D01*
X10062857Y-1130476D01*
X10158095Y-1178095D01*
X76028571Y-10619047D02*
X76076190Y-10761904D01*
X76123809Y-10809523D01*
X76219047Y-10857142D01*
X76361904Y-10857142D01*
X76457142Y-10809523D01*
X76504761Y-10761904D01*
X76552380Y-10666666D01*
X76552380Y-10285714D01*
X75552380Y-10285714D01*
X75552380Y-10619047D01*
X75600000Y-10714285D01*
X75647619Y-10761904D01*
X75742857Y-10809523D01*
X75838095Y-10809523D01*
X75933333Y-10761904D01*
X75980952Y-10714285D01*
X76028571Y-10619047D01*
X76028571Y-10285714D01*
X75552380Y-11190476D02*
X75552380Y-11857142D01*
X76552380Y-11190476D01*
X76552380Y-11857142D01*
X76552380Y-12761904D02*
X76552380Y-12190476D01*
X76552380Y-12476190D02*
X75552380Y-12476190D01*
X75695238Y-12380952D01*
X75790476Y-12285714D01*
X75838095Y-12190476D01*
X85111428Y-11379047D02*
X85111428Y-12140952D01*
X85492380Y-11760000D02*
X84730476Y-11760000D01*
X72052380Y-7061904D02*
X71052380Y-7061904D01*
X71052380Y-7300000D01*
X71100000Y-7442857D01*
X71195238Y-7538095D01*
X71290476Y-7585714D01*
X71480952Y-7633333D01*
X71623809Y-7633333D01*
X71814285Y-7585714D01*
X71909523Y-7538095D01*
X72004761Y-7442857D01*
X72052380Y-7300000D01*
X72052380Y-7061904D01*
X72052380Y-8585714D02*
X72052380Y-8014285D01*
X72052380Y-8300000D02*
X71052380Y-8300000D01*
X71195238Y-8204761D01*
X71290476Y-8109523D01*
X71338095Y-8014285D01*
%LPC*%
D12*
X3300000Y-25200000D03*
D13*
X3300000Y-22700000D03*
X3300000Y-20200000D03*
D14*
X10800000Y-28300000D03*
X10800000Y-17100000D03*
D13*
X17800000Y-25200000D03*
X17800000Y-20200000D03*
D15*
X43060000Y-35250000D03*
X40520000Y-35250000D03*
X37980000Y-35250000D03*
X35440000Y-35250000D03*
D16*
X4500000Y-6100000D03*
X4500000Y-11100000D03*
X17000000Y-6100000D03*
X17000000Y-11100000D03*
D17*
X84027000Y-18330000D03*
X84027000Y-42530000D03*
D12*
X82500000Y-11750000D03*
D13*
X82500000Y-4150000D03*
D18*
X73450000Y-8800000D03*
D19*
X73450000Y-6260000D03*
D20*
X2462500Y-43000000D03*
X2462500Y-36000000D03*
D21*
X5162500Y-42000000D03*
X5162500Y-37000000D03*
M02*
