G04 #@! TF.GenerationSoftware,KiCad,Pcbnew,(5.1.0)-1*
G04 #@! TF.CreationDate,2020-03-21T00:26:54+08:00*
G04 #@! TF.ProjectId,espcnc,65737063-6e63-42e6-9b69-6361645f7063,rev?*
G04 #@! TF.SameCoordinates,Original*
G04 #@! TF.FileFunction,Copper,L2,Bot*
G04 #@! TF.FilePolarity,Positive*
%FSLAX46Y46*%
G04 Gerber Fmt 4.6, Leading zero omitted, Abs format (unit mm)*
G04 Created by KiCad (PCBNEW (5.1.0)-1) date 2020-03-21 00:26:54*
%MOMM*%
%LPD*%
G04 APERTURE LIST*
%ADD10C,0.300000*%
%ADD11R,2.000000X2.000000*%
%ADD12C,2.000000*%
%ADD13C,3.200000*%
%ADD14C,1.524000*%
%ADD15O,3.048000X1.850000*%
%ADD16R,1.800000X1.800000*%
%ADD17C,1.800000*%
%ADD18O,1.900000X1.200000*%
%ADD19C,1.450000*%
%ADD20C,0.800000*%
%ADD21C,0.500000*%
%ADD22C,0.250000*%
%ADD23C,0.254000*%
G04 APERTURE END LIST*
D10*
X253542857Y-75800000D02*
X253542857Y-75133333D01*
X252495238Y-74847619D02*
X252495238Y-75800000D01*
X254495238Y-75800000D01*
X254495238Y-74847619D01*
X252590476Y-74085714D02*
X252495238Y-73800000D01*
X252495238Y-73323809D01*
X252590476Y-73133333D01*
X252685714Y-73038095D01*
X252876190Y-72942857D01*
X253066666Y-72942857D01*
X253257142Y-73038095D01*
X253352380Y-73133333D01*
X253447619Y-73323809D01*
X253542857Y-73704761D01*
X253638095Y-73895238D01*
X253733333Y-73990476D01*
X253923809Y-74085714D01*
X254114285Y-74085714D01*
X254304761Y-73990476D01*
X254400000Y-73895238D01*
X254495238Y-73704761D01*
X254495238Y-73228571D01*
X254400000Y-72942857D01*
X252495238Y-72085714D02*
X254495238Y-72085714D01*
X254495238Y-71323809D01*
X254400000Y-71133333D01*
X254304761Y-71038095D01*
X254114285Y-70942857D01*
X253828571Y-70942857D01*
X253638095Y-71038095D01*
X253542857Y-71133333D01*
X253447619Y-71323809D01*
X253447619Y-72085714D01*
X252685714Y-68942857D02*
X252590476Y-69038095D01*
X252495238Y-69323809D01*
X252495238Y-69514285D01*
X252590476Y-69800000D01*
X252780952Y-69990476D01*
X252971428Y-70085714D01*
X253352380Y-70180952D01*
X253638095Y-70180952D01*
X254019047Y-70085714D01*
X254209523Y-69990476D01*
X254400000Y-69800000D01*
X254495238Y-69514285D01*
X254495238Y-69323809D01*
X254400000Y-69038095D01*
X254304761Y-68942857D01*
X252495238Y-68085714D02*
X254495238Y-68085714D01*
X252495238Y-66942857D01*
X254495238Y-66942857D01*
X252685714Y-64847619D02*
X252590476Y-64942857D01*
X252495238Y-65228571D01*
X252495238Y-65419047D01*
X252590476Y-65704761D01*
X252780952Y-65895238D01*
X252971428Y-65990476D01*
X253352380Y-66085714D01*
X253638095Y-66085714D01*
X254019047Y-65990476D01*
X254209523Y-65895238D01*
X254400000Y-65704761D01*
X254495238Y-65419047D01*
X254495238Y-65228571D01*
X254400000Y-64942857D01*
X254304761Y-64847619D01*
X254495238Y-62752380D02*
X252495238Y-62085714D01*
X254495238Y-61419047D01*
X252495238Y-59704761D02*
X252495238Y-60847619D01*
X252495238Y-60276190D02*
X254495238Y-60276190D01*
X254209523Y-60466666D01*
X254019047Y-60657142D01*
X253923809Y-60847619D01*
D11*
X168300000Y-65200000D03*
D12*
X168300000Y-62700000D03*
X168300000Y-60200000D03*
D13*
X175800000Y-68300000D03*
X175800000Y-57100000D03*
D12*
X182800000Y-65200000D03*
X182800000Y-60200000D03*
D14*
X208060000Y-75250000D03*
X205520000Y-75250000D03*
X202980000Y-75250000D03*
X200440000Y-75250000D03*
D15*
X169500000Y-46100000D03*
X169500000Y-51100000D03*
X182000000Y-46100000D03*
X182000000Y-51100000D03*
D11*
X247500000Y-51750000D03*
D12*
X247500000Y-44150000D03*
D16*
X238450000Y-48800000D03*
D17*
X238450000Y-46260000D03*
D18*
X167462500Y-83000000D03*
X167462500Y-76000000D03*
D19*
X170162500Y-82000000D03*
X170162500Y-77000000D03*
D20*
X228650000Y-53100000D03*
X219900000Y-55950000D03*
X224400000Y-71100000D03*
X182700000Y-56200000D03*
X204300000Y-55300000D03*
X202300000Y-55300000D03*
X206000000Y-55300000D03*
X206000000Y-57200000D03*
X202300000Y-57200000D03*
X204300000Y-57200000D03*
X204300000Y-53300000D03*
X206000000Y-53300000D03*
X202300000Y-53300000D03*
X198575000Y-80875000D03*
X199600000Y-80900000D03*
X194036000Y-81952000D03*
X214636000Y-81952000D03*
X189450000Y-57900000D03*
X189450000Y-59600000D03*
X189500000Y-63000000D03*
X246775000Y-47000000D03*
X234900000Y-53100000D03*
X247000000Y-62000000D03*
X247000000Y-67000000D03*
X247800000Y-77200000D03*
X250800000Y-79300000D03*
X239000000Y-62000000D03*
X239000000Y-73000000D03*
X216000000Y-43000000D03*
X232000000Y-47000000D03*
X229000000Y-59000000D03*
X199000000Y-53000000D03*
X200000000Y-48000000D03*
X221000000Y-81000000D03*
X174000000Y-53000000D03*
X184000000Y-69000000D03*
X191000000Y-80000000D03*
X168000000Y-43000000D03*
X173000000Y-48000000D03*
X186000000Y-45000000D03*
X205000000Y-60000000D03*
X222700000Y-74600000D03*
X209800000Y-70300000D03*
X201000000Y-62900000D03*
X205800000Y-67600000D03*
X198785000Y-65500000D03*
X195700000Y-65300000D03*
X224200000Y-51500000D03*
X195500000Y-50000000D03*
X235000000Y-46750000D03*
X180500000Y-76800000D03*
X235000000Y-48000000D03*
X183900000Y-76700000D03*
X224527000Y-63550000D03*
X200100000Y-65950000D03*
X214000000Y-62750000D03*
X224575000Y-80175000D03*
X195000000Y-64000000D03*
X224527000Y-61050000D03*
X224550000Y-73450000D03*
X195000000Y-62750000D03*
X224527000Y-66050000D03*
X214050000Y-66550000D03*
X224500000Y-78450000D03*
X214000000Y-65250000D03*
X203850000Y-79150000D03*
X195000000Y-58950000D03*
X204850000Y-79150000D03*
X194987340Y-60187340D03*
X209850000Y-51450000D03*
X224300000Y-44400000D03*
X213800000Y-50040000D03*
X213800000Y-53850000D03*
X213750000Y-48800000D03*
X215850000Y-55800000D03*
X196100000Y-56350000D03*
X196100000Y-57650000D03*
D21*
X220465685Y-55950000D02*
X219900000Y-55950000D01*
X227500000Y-53100000D02*
X224650000Y-55950000D01*
X228650000Y-53100000D02*
X227500000Y-53100000D01*
X200350000Y-75250000D02*
X202500000Y-77400000D01*
X200440000Y-75250000D02*
X200350000Y-75250000D01*
X202500000Y-77400000D02*
X205900000Y-77400000D01*
X206200000Y-77700000D02*
X205900000Y-77400000D01*
X206200000Y-79550000D02*
X206200000Y-77700000D01*
X205650000Y-80100000D02*
X206200000Y-79550000D01*
X185350000Y-76200000D02*
X185600000Y-76450000D01*
X185350000Y-75450000D02*
X185350000Y-76200000D01*
X200550000Y-80150000D02*
X205600000Y-80150000D01*
X198000000Y-77600000D02*
X200550000Y-80150000D01*
X185500000Y-76350000D02*
X186750000Y-77600000D01*
X186750000Y-77600000D02*
X198000000Y-77600000D01*
X178950000Y-68950000D02*
X185350000Y-75350000D01*
X178950000Y-60515685D02*
X178950000Y-68950000D01*
X182700000Y-56200000D02*
X182700000Y-56765685D01*
X182700000Y-56765685D02*
X178950000Y-60515685D01*
X224650000Y-55950000D02*
X220465685Y-55950000D01*
X222750000Y-77400000D02*
X226250000Y-73900000D01*
X205900000Y-77400000D02*
X222750000Y-77400000D01*
X226250000Y-73900000D02*
X226250000Y-72100000D01*
X226250000Y-72100000D02*
X225250000Y-71100000D01*
X225250000Y-71100000D02*
X224400000Y-71100000D01*
X197498000Y-81952000D02*
X198575000Y-80875000D01*
X194036000Y-81952000D02*
X197498000Y-81952000D01*
X199575000Y-80875000D02*
X199600000Y-80900000D01*
X198575000Y-80875000D02*
X199575000Y-80875000D01*
X200652000Y-81952000D02*
X199600000Y-80900000D01*
X214636000Y-81952000D02*
X200652000Y-81952000D01*
X202980000Y-75250000D02*
X202980000Y-74830000D01*
X189450000Y-62950000D02*
X189500000Y-63000000D01*
X189450000Y-57900000D02*
X189450000Y-62950000D01*
X169500000Y-51100000D02*
X169550000Y-51050000D01*
X169550000Y-51050000D02*
X169650000Y-51150000D01*
X169650000Y-51150000D02*
X181900000Y-51150000D01*
X240300000Y-47050000D02*
X238600000Y-48750000D01*
X246775000Y-47000000D02*
X246725000Y-47050000D01*
X246725000Y-47050000D02*
X240300000Y-47050000D01*
X246775000Y-47025000D02*
X246775000Y-47000000D01*
X241099999Y-52700001D02*
X246775000Y-47025000D01*
X234900000Y-53100000D02*
X235299999Y-52700001D01*
X235299999Y-52700001D02*
X241099999Y-52700001D01*
X202980000Y-74830000D02*
X199400000Y-71250000D01*
X199400000Y-71250000D02*
X195750000Y-71250000D01*
X195750000Y-71250000D02*
X191750000Y-67250000D01*
X191750000Y-67250000D02*
X191750000Y-62186814D01*
X191750000Y-62186814D02*
X192893407Y-61043407D01*
X191750000Y-62186814D02*
X192024992Y-61911822D01*
X202300000Y-53300000D02*
X204300000Y-53300000D01*
X204300000Y-53300000D02*
X206000000Y-53300000D01*
X202300000Y-53300000D02*
X202300000Y-57200000D01*
X202300000Y-57200000D02*
X206000000Y-57200000D01*
X206000000Y-57200000D02*
X206000000Y-53300000D01*
X206000000Y-55300000D02*
X202300000Y-55300000D01*
X196450000Y-55300000D02*
X202300000Y-55300000D01*
X182000000Y-51100000D02*
X192250000Y-51100000D01*
X192250000Y-51100000D02*
X196450000Y-55300000D01*
D22*
X222500000Y-49800000D02*
X224200000Y-51500000D01*
X218300000Y-49800000D02*
X222500000Y-49800000D01*
X215350000Y-46850000D02*
X218300000Y-49800000D01*
X211150000Y-46850000D02*
X215350000Y-46850000D01*
X195500000Y-50000000D02*
X208000000Y-50000000D01*
X208000000Y-50000000D02*
X211150000Y-46850000D01*
X194250000Y-48750000D02*
X195500000Y-50000000D01*
X182000000Y-46100000D02*
X184650000Y-48750000D01*
X184650000Y-48750000D02*
X194250000Y-48750000D01*
X169500000Y-46100000D02*
X182050000Y-46100000D01*
X235250000Y-46750000D02*
X235000000Y-46750000D01*
X235850000Y-47350000D02*
X235250000Y-46750000D01*
X235850000Y-48300000D02*
X235850000Y-47350000D01*
X233050000Y-51100000D02*
X235850000Y-48300000D01*
X181650000Y-76800000D02*
X183250000Y-78400000D01*
X233050000Y-74700000D02*
X233050000Y-51100000D01*
X180500000Y-76800000D02*
X181650000Y-76800000D01*
X183250000Y-78400000D02*
X184750000Y-78400000D01*
X184750000Y-78400000D02*
X189800000Y-83450000D01*
X189800000Y-83450000D02*
X224300000Y-83450000D01*
X224300000Y-83450000D02*
X233050000Y-74700000D01*
X235000000Y-48300000D02*
X235000000Y-48000000D01*
X232500000Y-50800000D02*
X235000000Y-48300000D01*
X232500000Y-74600000D02*
X232500000Y-50800000D01*
X224150000Y-82950000D02*
X232500000Y-74600000D01*
X183900000Y-76700000D02*
X190150000Y-82950000D01*
X190150000Y-82950000D02*
X224150000Y-82950000D01*
X224377000Y-63700000D02*
X224527000Y-63550000D01*
X212300000Y-63700000D02*
X224377000Y-63700000D01*
X211250000Y-64750000D02*
X212300000Y-63700000D01*
X200100000Y-65950000D02*
X201300000Y-64750000D01*
X201300000Y-64750000D02*
X211250000Y-64750000D01*
X225275000Y-80175000D02*
X224575000Y-80175000D01*
X228900000Y-76550000D02*
X225275000Y-80175000D01*
X228900000Y-66300000D02*
X228900000Y-76550000D01*
X214000000Y-62750000D02*
X225350000Y-62750000D01*
X225350000Y-62750000D02*
X228900000Y-66300000D01*
X213800000Y-61050000D02*
X224527000Y-61050000D01*
X195000000Y-64000000D02*
X210850000Y-64000000D01*
X210850000Y-64000000D02*
X213800000Y-61050000D01*
X223950000Y-73300000D02*
X224600000Y-73300000D01*
X223100000Y-72450000D02*
X223950000Y-73300000D01*
X223100000Y-70850000D02*
X223100000Y-72450000D01*
X222550000Y-70300000D02*
X223100000Y-70850000D01*
X213800000Y-70300000D02*
X222550000Y-70300000D01*
X194400000Y-62750000D02*
X193900000Y-63250000D01*
X193900000Y-63250000D02*
X193900000Y-66100000D01*
X193900000Y-66100000D02*
X196300000Y-68500000D01*
X195000000Y-62750000D02*
X194400000Y-62750000D01*
X196300000Y-68500000D02*
X212000000Y-68500000D01*
X212000000Y-68500000D02*
X213800000Y-70300000D01*
X223550000Y-66500000D02*
X224000000Y-66050000D01*
X223550000Y-67900000D02*
X223550000Y-66500000D01*
X222200000Y-68500000D02*
X222950000Y-68500000D01*
X221750000Y-65000000D02*
X221750000Y-68050000D01*
X221350000Y-64600000D02*
X221750000Y-65000000D01*
X220350000Y-64950000D02*
X220700000Y-64600000D01*
X220350000Y-68700000D02*
X220350000Y-64950000D01*
X216150000Y-64650000D02*
X216450000Y-64950000D01*
X220700000Y-64600000D02*
X221350000Y-64600000D01*
X215650000Y-64650000D02*
X216150000Y-64650000D01*
X217250000Y-68950000D02*
X217600000Y-68600000D01*
X215350000Y-64950000D02*
X215650000Y-64650000D01*
X222950000Y-68500000D02*
X223550000Y-67900000D01*
X215350000Y-65815685D02*
X215350000Y-64950000D01*
X214050000Y-66550000D02*
X214615685Y-66550000D01*
X220050000Y-69000000D02*
X220350000Y-68700000D01*
X218850000Y-68700000D02*
X219150000Y-69000000D01*
X219150000Y-69000000D02*
X220050000Y-69000000D01*
X214615685Y-66550000D02*
X215350000Y-65815685D01*
X216450000Y-64950000D02*
X216450000Y-68600000D01*
X216450000Y-68600000D02*
X216800000Y-68950000D01*
X224000000Y-66050000D02*
X224527000Y-66050000D01*
X218850000Y-65000000D02*
X218850000Y-68700000D01*
X216800000Y-68950000D02*
X217250000Y-68950000D01*
X217600000Y-68600000D02*
X217600000Y-65050000D01*
X221750000Y-68050000D02*
X222200000Y-68500000D01*
X217600000Y-65050000D02*
X217950000Y-64700000D01*
X217950000Y-64700000D02*
X218550000Y-64700000D01*
X218550000Y-64700000D02*
X218850000Y-65000000D01*
X223750000Y-69650000D02*
X225650000Y-67750000D01*
X214600000Y-69650000D02*
X223750000Y-69650000D01*
X212750000Y-67800000D02*
X214600000Y-69650000D01*
X212750000Y-65934315D02*
X212750000Y-67800000D01*
X213434315Y-65250000D02*
X212750000Y-65934315D01*
X225650000Y-67750000D02*
X227400000Y-67750000D01*
X214000000Y-65250000D02*
X213434315Y-65250000D01*
X227400000Y-67750000D02*
X227950000Y-68300000D01*
X227950000Y-68300000D02*
X227950000Y-69950000D01*
X227950000Y-69800000D02*
X227950000Y-75500000D01*
X227950000Y-75500000D02*
X225000000Y-78450000D01*
X224500000Y-78450000D02*
X225000000Y-78450000D01*
X203850000Y-79100000D02*
X203850000Y-79150000D01*
X195000000Y-58950000D02*
X192800000Y-58950000D01*
X190300000Y-68500000D02*
X200950000Y-79150000D01*
X190300000Y-61450000D02*
X190300000Y-68500000D01*
X200950000Y-79150000D02*
X203800000Y-79150000D01*
X192800000Y-58950000D02*
X190300000Y-61450000D01*
X203800000Y-79150000D02*
X203850000Y-79100000D01*
X192550000Y-60150000D02*
X194950000Y-60150000D01*
X194950000Y-60150000D02*
X194987340Y-60187340D01*
X204850000Y-79150000D02*
X204850000Y-78584315D01*
X204850000Y-78584315D02*
X204615685Y-78350000D01*
X204615685Y-78350000D02*
X201000000Y-78350000D01*
X201000000Y-78350000D02*
X190800000Y-68150000D01*
X190800000Y-68150000D02*
X190800000Y-61900000D01*
X190800000Y-61900000D02*
X192550000Y-60150000D01*
X226450000Y-46550000D02*
X224300000Y-44400000D01*
X226450000Y-51800000D02*
X226450000Y-46550000D01*
X209850000Y-49500000D02*
X211700000Y-47650000D01*
X211700000Y-47650000D02*
X214650000Y-47650000D01*
X214650000Y-47650000D02*
X220700000Y-53700000D01*
X220700000Y-53700000D02*
X224550000Y-53700000D01*
X209850000Y-51450000D02*
X209850000Y-49500000D01*
X224550000Y-53700000D02*
X226450000Y-51800000D01*
X209400000Y-51900000D02*
X209850000Y-51450000D01*
X208450000Y-59050000D02*
X209400000Y-58100000D01*
X209400000Y-58100000D02*
X209400000Y-51900000D01*
X196350000Y-59050000D02*
X208450000Y-59050000D01*
X182750000Y-63050000D02*
X185750000Y-60050000D01*
X182750000Y-65250000D02*
X182750000Y-63050000D01*
X185750000Y-60050000D02*
X185750000Y-56250000D01*
X185750000Y-56250000D02*
X186950000Y-55050000D01*
X186950000Y-55050000D02*
X192350000Y-55050000D01*
X192350000Y-55050000D02*
X196350000Y-59050000D01*
X224300000Y-44400000D02*
X224300000Y-44400000D01*
X205450000Y-74550000D02*
X205450000Y-75350000D01*
X205450000Y-71850000D02*
X205450000Y-75200000D01*
X203800000Y-70200000D02*
X205450000Y-71850000D01*
X195900000Y-70200000D02*
X203800000Y-70200000D01*
X192600000Y-66900000D02*
X195900000Y-70200000D01*
X192600000Y-62650000D02*
X192600000Y-66900000D01*
X213060000Y-50040000D02*
X210250000Y-52850000D01*
X213800000Y-50040000D02*
X213060000Y-50040000D01*
X210250000Y-52850000D02*
X210250000Y-59000000D01*
X210250000Y-59000000D02*
X208050000Y-61200000D01*
X208050000Y-61200000D02*
X194050000Y-61200000D01*
X194050000Y-61200000D02*
X192600000Y-62650000D01*
X204300000Y-69450000D02*
X208100000Y-73250000D01*
X196200000Y-69450000D02*
X204300000Y-69450000D01*
X193200000Y-62950000D02*
X193200000Y-66450000D01*
X213234315Y-53850000D02*
X211200000Y-55884315D01*
X213800000Y-53850000D02*
X213234315Y-53850000D01*
X208100000Y-73250000D02*
X208100000Y-75200000D01*
X211200000Y-55884315D02*
X211200000Y-59000000D01*
X211200000Y-59000000D02*
X208450000Y-61750000D01*
X208450000Y-61750000D02*
X194400000Y-61750000D01*
X193200000Y-66450000D02*
X196200000Y-69450000D01*
X194400000Y-61750000D02*
X193200000Y-62950000D01*
X214600000Y-48750000D02*
X213600000Y-48750000D01*
X215850000Y-55800000D02*
X215850000Y-50000000D01*
X215850000Y-50000000D02*
X214600000Y-48750000D01*
X193100000Y-53350000D02*
X196100000Y-56350000D01*
X181500000Y-53350000D02*
X193100000Y-53350000D01*
X179550000Y-55300000D02*
X181500000Y-53350000D01*
X179550000Y-58000000D02*
X179550000Y-55300000D01*
X168250000Y-60250000D02*
X177300000Y-60250000D01*
X177300000Y-60250000D02*
X179550000Y-58000000D01*
X169500000Y-65250000D02*
X168250000Y-65250000D01*
X170550000Y-64200000D02*
X169500000Y-65250000D01*
X170550000Y-61700000D02*
X170550000Y-64200000D01*
X171549990Y-60700010D02*
X170550000Y-61700000D01*
X196100000Y-57650000D02*
X192350000Y-53900000D01*
X181800000Y-53900000D02*
X180250000Y-55450000D01*
X180250000Y-55450000D02*
X180250000Y-57950000D01*
X180250000Y-57950000D02*
X177499990Y-60700010D01*
X192350000Y-53900000D02*
X181800000Y-53900000D01*
X177499990Y-60700010D02*
X171549990Y-60700010D01*
D23*
G36*
X195073000Y-46100000D02*
G01*
X195075440Y-46124776D01*
X195082667Y-46148601D01*
X195094403Y-46170557D01*
X195110197Y-46189803D01*
X195129443Y-46205597D01*
X195151399Y-46217333D01*
X195175224Y-46224560D01*
X195200000Y-46227000D01*
X210711134Y-46227000D01*
X210609999Y-46309999D01*
X210586201Y-46338997D01*
X207685199Y-49240000D01*
X196203711Y-49240000D01*
X196159774Y-49196063D01*
X195990256Y-49082795D01*
X195801898Y-49004774D01*
X195601939Y-48965000D01*
X195539802Y-48965000D01*
X194813804Y-48239003D01*
X194790001Y-48209999D01*
X194674276Y-48115026D01*
X194542247Y-48044454D01*
X194398986Y-48000997D01*
X194287333Y-47990000D01*
X194287322Y-47990000D01*
X194250000Y-47986324D01*
X194212678Y-47990000D01*
X184964802Y-47990000D01*
X183917457Y-46942655D01*
X184047226Y-46699875D01*
X184136428Y-46405813D01*
X184166548Y-46100000D01*
X184136428Y-45794187D01*
X184047226Y-45500125D01*
X183906060Y-45236022D01*
X186420251Y-45236022D01*
X186476379Y-45736412D01*
X186628631Y-46216370D01*
X186871207Y-46657615D01*
X187194869Y-47043340D01*
X187587287Y-47358852D01*
X188033515Y-47592134D01*
X188516556Y-47734301D01*
X189018012Y-47779937D01*
X189518781Y-47727304D01*
X189999790Y-47578407D01*
X190442718Y-47338917D01*
X190830693Y-47017956D01*
X191148937Y-46627750D01*
X191385329Y-46183162D01*
X191530864Y-45701125D01*
X191580000Y-45200000D01*
X191578994Y-45127962D01*
X191515885Y-44628405D01*
X191356947Y-44150619D01*
X191108234Y-43712805D01*
X190779218Y-43331637D01*
X190382433Y-43021634D01*
X189932991Y-42794605D01*
X189448012Y-42659196D01*
X188945969Y-42620566D01*
X188445983Y-42680186D01*
X187967099Y-42835784D01*
X187527559Y-43081435D01*
X187144103Y-43407781D01*
X186831338Y-43802393D01*
X186601177Y-44250239D01*
X186462386Y-44734261D01*
X186420251Y-45236022D01*
X183906060Y-45236022D01*
X183902369Y-45229117D01*
X183707424Y-44991576D01*
X183469883Y-44796631D01*
X183198875Y-44651774D01*
X182904813Y-44562572D01*
X182675636Y-44540000D01*
X181324364Y-44540000D01*
X181095187Y-44562572D01*
X180801125Y-44651774D01*
X180530117Y-44796631D01*
X180292576Y-44991576D01*
X180097631Y-45229117D01*
X180038363Y-45340000D01*
X171461637Y-45340000D01*
X171402369Y-45229117D01*
X171207424Y-44991576D01*
X170969883Y-44796631D01*
X170698875Y-44651774D01*
X170404813Y-44562572D01*
X170175636Y-44540000D01*
X168824364Y-44540000D01*
X168595187Y-44562572D01*
X168301125Y-44651774D01*
X168030117Y-44796631D01*
X167792576Y-44991576D01*
X167597631Y-45229117D01*
X167452774Y-45500125D01*
X167363572Y-45794187D01*
X167333452Y-46100000D01*
X167363572Y-46405813D01*
X167452774Y-46699875D01*
X167597631Y-46970883D01*
X167792576Y-47208424D01*
X168030117Y-47403369D01*
X168301125Y-47548226D01*
X168595187Y-47637428D01*
X168824364Y-47660000D01*
X170175636Y-47660000D01*
X170404813Y-47637428D01*
X170698875Y-47548226D01*
X170969883Y-47403369D01*
X171207424Y-47208424D01*
X171402369Y-46970883D01*
X171461637Y-46860000D01*
X180038363Y-46860000D01*
X180097631Y-46970883D01*
X180292576Y-47208424D01*
X180530117Y-47403369D01*
X180801125Y-47548226D01*
X181095187Y-47637428D01*
X181324364Y-47660000D01*
X182485199Y-47660000D01*
X184086200Y-49261002D01*
X184109999Y-49290001D01*
X184138997Y-49313799D01*
X184225723Y-49384974D01*
X184357753Y-49455546D01*
X184501014Y-49499003D01*
X184612667Y-49510000D01*
X184612677Y-49510000D01*
X184650000Y-49513676D01*
X184687323Y-49510000D01*
X193935199Y-49510000D01*
X194465000Y-50039802D01*
X194465000Y-50101939D01*
X194504774Y-50301898D01*
X194582795Y-50490256D01*
X194696063Y-50659774D01*
X194840226Y-50803937D01*
X195009744Y-50917205D01*
X195198102Y-50995226D01*
X195398061Y-51035000D01*
X195601939Y-51035000D01*
X195801898Y-50995226D01*
X195990256Y-50917205D01*
X196159774Y-50803937D01*
X196203711Y-50760000D01*
X207962678Y-50760000D01*
X208000000Y-50763676D01*
X208037322Y-50760000D01*
X208037333Y-50760000D01*
X208148986Y-50749003D01*
X208292247Y-50705546D01*
X208424276Y-50634974D01*
X208540001Y-50540001D01*
X208563804Y-50510997D01*
X209090001Y-49984800D01*
X209090000Y-50746289D01*
X209046063Y-50790226D01*
X208932795Y-50959744D01*
X208854774Y-51148102D01*
X208815000Y-51348061D01*
X208815000Y-51414831D01*
X208765026Y-51475724D01*
X208694454Y-51607754D01*
X208681332Y-51651014D01*
X208653658Y-51742247D01*
X208650998Y-51751015D01*
X208636324Y-51900000D01*
X208640001Y-51937332D01*
X208640000Y-57785198D01*
X208135199Y-58290000D01*
X196917150Y-58290000D01*
X197017205Y-58140256D01*
X197095226Y-57951898D01*
X197135000Y-57751939D01*
X197135000Y-57548061D01*
X197095226Y-57348102D01*
X197017205Y-57159744D01*
X196910468Y-57000000D01*
X197017205Y-56840256D01*
X197095226Y-56651898D01*
X197135000Y-56451939D01*
X197135000Y-56248061D01*
X197095226Y-56048102D01*
X197017205Y-55859744D01*
X196903937Y-55690226D01*
X196759774Y-55546063D01*
X196590256Y-55432795D01*
X196401898Y-55354774D01*
X196201939Y-55315000D01*
X196139802Y-55315000D01*
X193663804Y-52839003D01*
X193640001Y-52809999D01*
X193524276Y-52715026D01*
X193392247Y-52644454D01*
X193248986Y-52600997D01*
X193137333Y-52590000D01*
X193137322Y-52590000D01*
X193100000Y-52586324D01*
X193062678Y-52590000D01*
X183066555Y-52590000D01*
X183313319Y-52492652D01*
X183571286Y-52326536D01*
X183791889Y-52113285D01*
X183966650Y-51861094D01*
X184088853Y-51579655D01*
X184114812Y-51468664D01*
X183994483Y-51227000D01*
X182127000Y-51227000D01*
X182127000Y-51247000D01*
X181873000Y-51247000D01*
X181873000Y-51227000D01*
X180005517Y-51227000D01*
X179885188Y-51468664D01*
X179911147Y-51579655D01*
X180033350Y-51861094D01*
X180208111Y-52113285D01*
X180428714Y-52326536D01*
X180686681Y-52492652D01*
X180972099Y-52605249D01*
X181202819Y-52647091D01*
X181075724Y-52715026D01*
X181075722Y-52715027D01*
X181075723Y-52715027D01*
X180988996Y-52786201D01*
X180988992Y-52786205D01*
X180959999Y-52809999D01*
X180936205Y-52838992D01*
X179038998Y-54736201D01*
X179010000Y-54759999D01*
X178986202Y-54788997D01*
X178986201Y-54788998D01*
X178915026Y-54875724D01*
X178844454Y-55007754D01*
X178823205Y-55077805D01*
X178800998Y-55151014D01*
X178798264Y-55178769D01*
X178786324Y-55300000D01*
X178790001Y-55337332D01*
X178790000Y-57685198D01*
X176985199Y-59490000D01*
X169775620Y-59490000D01*
X169748918Y-59425537D01*
X169569987Y-59157748D01*
X169342252Y-58930013D01*
X169074463Y-58751082D01*
X168861441Y-58662845D01*
X174416761Y-58662845D01*
X174584802Y-58988643D01*
X174976607Y-59189426D01*
X175400055Y-59309914D01*
X175838873Y-59345476D01*
X176276197Y-59294746D01*
X176695221Y-59159674D01*
X177015198Y-58988643D01*
X177183239Y-58662845D01*
X175800000Y-57279605D01*
X174416761Y-58662845D01*
X168861441Y-58662845D01*
X168776912Y-58627832D01*
X168461033Y-58565000D01*
X168138967Y-58565000D01*
X167823088Y-58627832D01*
X167525537Y-58751082D01*
X167257748Y-58930013D01*
X167030013Y-59157748D01*
X166851082Y-59425537D01*
X166727832Y-59723088D01*
X166665000Y-60038967D01*
X166665000Y-60361033D01*
X166727832Y-60676912D01*
X166851082Y-60974463D01*
X167030013Y-61242252D01*
X167257748Y-61469987D01*
X167354935Y-61534925D01*
X167344192Y-61564587D01*
X168300000Y-62520395D01*
X169255808Y-61564587D01*
X169245065Y-61534925D01*
X169342252Y-61469987D01*
X169569987Y-61242252D01*
X169725173Y-61010000D01*
X170165199Y-61010000D01*
X170039002Y-61136197D01*
X170009999Y-61159999D01*
X169958838Y-61222340D01*
X169915026Y-61275724D01*
X169874310Y-61351898D01*
X169844454Y-61407754D01*
X169800997Y-61551015D01*
X169790000Y-61662668D01*
X169790000Y-61662678D01*
X169786324Y-61700000D01*
X169790000Y-61737323D01*
X169790000Y-62008683D01*
X169699814Y-61839956D01*
X169435413Y-61744192D01*
X168479605Y-62700000D01*
X168493748Y-62714143D01*
X168314143Y-62893748D01*
X168300000Y-62879605D01*
X168285858Y-62893748D01*
X168106253Y-62714143D01*
X168120395Y-62700000D01*
X167164587Y-61744192D01*
X166900186Y-61839956D01*
X166759296Y-62129571D01*
X166677616Y-62441108D01*
X166658282Y-62762595D01*
X166702039Y-63081675D01*
X166807205Y-63386088D01*
X166900186Y-63560044D01*
X167049223Y-63614024D01*
X166945506Y-63669463D01*
X166848815Y-63748815D01*
X166769463Y-63845506D01*
X166710498Y-63955820D01*
X166674188Y-64075518D01*
X166661928Y-64200000D01*
X166661928Y-66200000D01*
X166674188Y-66324482D01*
X166710498Y-66444180D01*
X166769463Y-66554494D01*
X166848815Y-66651185D01*
X166945506Y-66730537D01*
X167055820Y-66789502D01*
X167175518Y-66825812D01*
X167300000Y-66838072D01*
X169300000Y-66838072D01*
X169424482Y-66825812D01*
X169544180Y-66789502D01*
X169642112Y-66737155D01*
X174416761Y-66737155D01*
X175800000Y-68120395D01*
X177183239Y-66737155D01*
X177015198Y-66411357D01*
X176623393Y-66210574D01*
X176199945Y-66090086D01*
X175761127Y-66054524D01*
X175323803Y-66105254D01*
X174904779Y-66240326D01*
X174584802Y-66411357D01*
X174416761Y-66737155D01*
X169642112Y-66737155D01*
X169654494Y-66730537D01*
X169751185Y-66651185D01*
X169830537Y-66554494D01*
X169889502Y-66444180D01*
X169925812Y-66324482D01*
X169938072Y-66200000D01*
X169938072Y-65873652D01*
X170040001Y-65790001D01*
X170063804Y-65760998D01*
X171061003Y-64763799D01*
X171090001Y-64740001D01*
X171184974Y-64624276D01*
X171255546Y-64492247D01*
X171299003Y-64348986D01*
X171310000Y-64237333D01*
X171310000Y-64237324D01*
X171313676Y-64200001D01*
X171310000Y-64162678D01*
X171310000Y-62014801D01*
X171864793Y-61460010D01*
X177462668Y-61460010D01*
X177499990Y-61463686D01*
X177537312Y-61460010D01*
X177537323Y-61460010D01*
X177648976Y-61449013D01*
X177792237Y-61405556D01*
X177924266Y-61334984D01*
X178039991Y-61240011D01*
X178063794Y-61211007D01*
X178065000Y-61209801D01*
X178065001Y-68906521D01*
X178060719Y-68950000D01*
X178077805Y-69123490D01*
X178128412Y-69290313D01*
X178210590Y-69444059D01*
X178293468Y-69545046D01*
X178293471Y-69545049D01*
X178321184Y-69578817D01*
X178354952Y-69606530D01*
X184465000Y-75716579D01*
X184465000Y-75832737D01*
X184390256Y-75782795D01*
X184201898Y-75704774D01*
X184001939Y-75665000D01*
X183798061Y-75665000D01*
X183598102Y-75704774D01*
X183409744Y-75782795D01*
X183240226Y-75896063D01*
X183096063Y-76040226D01*
X182982795Y-76209744D01*
X182904774Y-76398102D01*
X182865000Y-76598061D01*
X182865000Y-76801939D01*
X182899330Y-76974528D01*
X182213804Y-76289003D01*
X182190001Y-76259999D01*
X182074276Y-76165026D01*
X181942247Y-76094454D01*
X181798986Y-76050997D01*
X181687333Y-76040000D01*
X181687322Y-76040000D01*
X181650000Y-76036324D01*
X181612678Y-76040000D01*
X181203711Y-76040000D01*
X181159774Y-75996063D01*
X180990256Y-75882795D01*
X180801898Y-75804774D01*
X180601939Y-75765000D01*
X180398061Y-75765000D01*
X180198102Y-75804774D01*
X180009744Y-75882795D01*
X179840226Y-75996063D01*
X179696063Y-76140226D01*
X179582795Y-76309744D01*
X179504774Y-76498102D01*
X179465000Y-76698061D01*
X179465000Y-76901939D01*
X179504774Y-77101898D01*
X179582795Y-77290256D01*
X179696063Y-77459774D01*
X179840226Y-77603937D01*
X180009744Y-77717205D01*
X180198102Y-77795226D01*
X180398061Y-77835000D01*
X180601939Y-77835000D01*
X180801898Y-77795226D01*
X180990256Y-77717205D01*
X181159774Y-77603937D01*
X181203711Y-77560000D01*
X181335199Y-77560000D01*
X182686200Y-78911002D01*
X182709999Y-78940001D01*
X182825724Y-79034974D01*
X182957753Y-79105546D01*
X183101014Y-79149003D01*
X183212667Y-79160000D01*
X183212675Y-79160000D01*
X183250000Y-79163676D01*
X183287325Y-79160000D01*
X184435199Y-79160000D01*
X189236205Y-83961008D01*
X189259999Y-83990001D01*
X189288992Y-84013795D01*
X189288996Y-84013799D01*
X189359685Y-84071811D01*
X189375724Y-84084974D01*
X189507753Y-84155546D01*
X189651014Y-84199003D01*
X189762667Y-84210000D01*
X189762676Y-84210000D01*
X189799999Y-84213676D01*
X189837322Y-84210000D01*
X224262678Y-84210000D01*
X224300000Y-84213676D01*
X224337322Y-84210000D01*
X224337333Y-84210000D01*
X224448986Y-84199003D01*
X224592247Y-84155546D01*
X224724276Y-84084974D01*
X224840001Y-83990001D01*
X224863804Y-83960997D01*
X226431212Y-82393589D01*
X247642000Y-82393589D01*
X247642000Y-82666411D01*
X247695225Y-82933989D01*
X247799629Y-83186043D01*
X247951201Y-83412886D01*
X248144114Y-83605799D01*
X248370957Y-83757371D01*
X248623011Y-83861775D01*
X248890589Y-83915000D01*
X249163411Y-83915000D01*
X249430989Y-83861775D01*
X249683043Y-83757371D01*
X249909886Y-83605799D01*
X250102799Y-83412886D01*
X250254371Y-83186043D01*
X250358775Y-82933989D01*
X250412000Y-82666411D01*
X250412000Y-82393589D01*
X250358775Y-82126011D01*
X250254371Y-81873957D01*
X250102799Y-81647114D01*
X249909886Y-81454201D01*
X249683043Y-81302629D01*
X249430989Y-81198225D01*
X249163411Y-81145000D01*
X248890589Y-81145000D01*
X248623011Y-81198225D01*
X248370957Y-81302629D01*
X248144114Y-81454201D01*
X247951201Y-81647114D01*
X247799629Y-81873957D01*
X247695225Y-82126011D01*
X247642000Y-82393589D01*
X226431212Y-82393589D01*
X233561004Y-75263798D01*
X233590001Y-75240001D01*
X233684974Y-75124276D01*
X233755546Y-74992247D01*
X233799003Y-74848986D01*
X233810000Y-74737333D01*
X233810000Y-74737325D01*
X233813676Y-74700000D01*
X233810000Y-74662675D01*
X233810000Y-58193589D01*
X247642000Y-58193589D01*
X247642000Y-58466411D01*
X247695225Y-58733989D01*
X247799629Y-58986043D01*
X247951201Y-59212886D01*
X248144114Y-59405799D01*
X248370957Y-59557371D01*
X248623011Y-59661775D01*
X248890589Y-59715000D01*
X249163411Y-59715000D01*
X249430989Y-59661775D01*
X249683043Y-59557371D01*
X249909886Y-59405799D01*
X250102799Y-59212886D01*
X250254371Y-58986043D01*
X250358775Y-58733989D01*
X250412000Y-58466411D01*
X250412000Y-58193589D01*
X250358775Y-57926011D01*
X250254371Y-57673957D01*
X250102799Y-57447114D01*
X249909886Y-57254201D01*
X249683043Y-57102629D01*
X249430989Y-56998225D01*
X249163411Y-56945000D01*
X248890589Y-56945000D01*
X248623011Y-56998225D01*
X248370957Y-57102629D01*
X248144114Y-57254201D01*
X247951201Y-57447114D01*
X247799629Y-57673957D01*
X247695225Y-57926011D01*
X247642000Y-58193589D01*
X233810000Y-58193589D01*
X233810000Y-51414801D01*
X234474801Y-50750000D01*
X245861928Y-50750000D01*
X245861928Y-52750000D01*
X245874188Y-52874482D01*
X245910498Y-52994180D01*
X245969463Y-53104494D01*
X246048815Y-53201185D01*
X246145506Y-53280537D01*
X246255820Y-53339502D01*
X246375518Y-53375812D01*
X246500000Y-53388072D01*
X248500000Y-53388072D01*
X248624482Y-53375812D01*
X248744180Y-53339502D01*
X248854494Y-53280537D01*
X248951185Y-53201185D01*
X249030537Y-53104494D01*
X249089502Y-52994180D01*
X249125812Y-52874482D01*
X249138072Y-52750000D01*
X249138072Y-50750000D01*
X249125812Y-50625518D01*
X249089502Y-50505820D01*
X249030537Y-50395506D01*
X248951185Y-50298815D01*
X248854494Y-50219463D01*
X248744180Y-50160498D01*
X248624482Y-50124188D01*
X248500000Y-50111928D01*
X246500000Y-50111928D01*
X246375518Y-50124188D01*
X246255820Y-50160498D01*
X246145506Y-50219463D01*
X246048815Y-50298815D01*
X245969463Y-50395506D01*
X245910498Y-50505820D01*
X245874188Y-50625518D01*
X245861928Y-50750000D01*
X234474801Y-50750000D01*
X235524801Y-49700000D01*
X236911928Y-49700000D01*
X236924188Y-49824482D01*
X236960498Y-49944180D01*
X237019463Y-50054494D01*
X237098815Y-50151185D01*
X237195506Y-50230537D01*
X237305820Y-50289502D01*
X237425518Y-50325812D01*
X237550000Y-50338072D01*
X238164250Y-50335000D01*
X238323000Y-50176250D01*
X238323000Y-48927000D01*
X238577000Y-48927000D01*
X238577000Y-50176250D01*
X238735750Y-50335000D01*
X239350000Y-50338072D01*
X239474482Y-50325812D01*
X239594180Y-50289502D01*
X239704494Y-50230537D01*
X239801185Y-50151185D01*
X239880537Y-50054494D01*
X239939502Y-49944180D01*
X239975812Y-49824482D01*
X239988072Y-49700000D01*
X239985000Y-49085750D01*
X239826250Y-48927000D01*
X238577000Y-48927000D01*
X238323000Y-48927000D01*
X237073750Y-48927000D01*
X236915000Y-49085750D01*
X236911928Y-49700000D01*
X235524801Y-49700000D01*
X236361004Y-48863798D01*
X236390001Y-48840001D01*
X236419598Y-48803937D01*
X236484974Y-48724277D01*
X236555546Y-48592247D01*
X236555546Y-48592246D01*
X236599003Y-48448986D01*
X236610000Y-48337333D01*
X236610000Y-48337323D01*
X236613676Y-48300000D01*
X236610000Y-48262677D01*
X236610000Y-47900000D01*
X236911928Y-47900000D01*
X236915000Y-48514250D01*
X237073750Y-48673000D01*
X238323000Y-48673000D01*
X238323000Y-48653000D01*
X238577000Y-48653000D01*
X238577000Y-48673000D01*
X239826250Y-48673000D01*
X239985000Y-48514250D01*
X239988072Y-47900000D01*
X239975812Y-47775518D01*
X239939502Y-47655820D01*
X239880537Y-47545506D01*
X239801185Y-47448815D01*
X239704494Y-47369463D01*
X239594180Y-47310498D01*
X239575873Y-47304944D01*
X239642312Y-47238505D01*
X239810299Y-46987095D01*
X239926011Y-46707743D01*
X239985000Y-46411184D01*
X239985000Y-46108816D01*
X239926011Y-45812257D01*
X239810299Y-45532905D01*
X239642312Y-45281495D01*
X239428505Y-45067688D01*
X239177095Y-44899701D01*
X238897743Y-44783989D01*
X238601184Y-44725000D01*
X238298816Y-44725000D01*
X238002257Y-44783989D01*
X237722905Y-44899701D01*
X237471495Y-45067688D01*
X237257688Y-45281495D01*
X237089701Y-45532905D01*
X236973989Y-45812257D01*
X236915000Y-46108816D01*
X236915000Y-46411184D01*
X236973989Y-46707743D01*
X237089701Y-46987095D01*
X237257688Y-47238505D01*
X237324127Y-47304944D01*
X237305820Y-47310498D01*
X237195506Y-47369463D01*
X237098815Y-47448815D01*
X237019463Y-47545506D01*
X236960498Y-47655820D01*
X236924188Y-47775518D01*
X236911928Y-47900000D01*
X236610000Y-47900000D01*
X236610000Y-47387322D01*
X236613676Y-47349999D01*
X236610000Y-47312676D01*
X236610000Y-47312667D01*
X236599003Y-47201014D01*
X236555546Y-47057753D01*
X236524134Y-46998986D01*
X236484974Y-46925723D01*
X236413799Y-46838997D01*
X236390001Y-46809999D01*
X236361002Y-46786200D01*
X235975655Y-46400854D01*
X235917205Y-46259744D01*
X235803937Y-46090226D01*
X235659774Y-45946063D01*
X235490256Y-45832795D01*
X235301898Y-45754774D01*
X235101939Y-45715000D01*
X234898061Y-45715000D01*
X234698102Y-45754774D01*
X234509744Y-45832795D01*
X234340226Y-45946063D01*
X234196063Y-46090226D01*
X234082795Y-46259744D01*
X234004774Y-46448102D01*
X233965000Y-46648061D01*
X233965000Y-46851939D01*
X234004774Y-47051898D01*
X234082795Y-47240256D01*
X234172828Y-47375000D01*
X234082795Y-47509744D01*
X234004774Y-47698102D01*
X233965000Y-47898061D01*
X233965000Y-48101939D01*
X233991257Y-48233941D01*
X231988998Y-50236201D01*
X231960000Y-50259999D01*
X231936202Y-50288997D01*
X231936201Y-50288998D01*
X231865026Y-50375724D01*
X231794454Y-50507754D01*
X231769810Y-50588998D01*
X231750998Y-50651014D01*
X231746075Y-50700998D01*
X231736324Y-50800000D01*
X231740001Y-50837333D01*
X231740000Y-74285198D01*
X229660000Y-76365198D01*
X229660000Y-66337322D01*
X229663676Y-66299999D01*
X229660000Y-66262676D01*
X229660000Y-66262667D01*
X229649003Y-66151014D01*
X229605546Y-66007753D01*
X229587752Y-65974463D01*
X229534974Y-65875723D01*
X229463799Y-65788997D01*
X229440001Y-65759999D01*
X229411004Y-65736202D01*
X225913804Y-62239003D01*
X225890001Y-62209999D01*
X225774276Y-62115026D01*
X225642247Y-62044454D01*
X225498986Y-62000997D01*
X225387333Y-61990000D01*
X225387322Y-61990000D01*
X225350000Y-61986324D01*
X225312678Y-61990000D01*
X224962224Y-61990000D01*
X225017256Y-61967205D01*
X225186774Y-61853937D01*
X225330937Y-61709774D01*
X225444205Y-61540256D01*
X225522226Y-61351898D01*
X225562000Y-61151939D01*
X225562000Y-60948061D01*
X225522226Y-60748102D01*
X225444205Y-60559744D01*
X225330937Y-60390226D01*
X225186774Y-60246063D01*
X225017256Y-60132795D01*
X224828898Y-60054774D01*
X224628939Y-60015000D01*
X224425061Y-60015000D01*
X224225102Y-60054774D01*
X224036744Y-60132795D01*
X223867226Y-60246063D01*
X223823289Y-60290000D01*
X213837322Y-60290000D01*
X213799999Y-60286324D01*
X213762677Y-60290000D01*
X213762667Y-60290000D01*
X213651014Y-60300997D01*
X213515200Y-60342195D01*
X213507753Y-60344454D01*
X213375723Y-60415026D01*
X213297057Y-60479586D01*
X213259999Y-60509999D01*
X213236201Y-60538997D01*
X210535199Y-63240000D01*
X195917311Y-63240000D01*
X195995226Y-63051898D01*
X196035000Y-62851939D01*
X196035000Y-62648061D01*
X196007538Y-62510000D01*
X208412678Y-62510000D01*
X208450000Y-62513676D01*
X208487322Y-62510000D01*
X208487333Y-62510000D01*
X208598986Y-62499003D01*
X208742247Y-62455546D01*
X208874276Y-62384974D01*
X208990001Y-62290001D01*
X209013804Y-62260997D01*
X211711003Y-59563799D01*
X211740001Y-59540001D01*
X211834974Y-59424276D01*
X211905546Y-59292247D01*
X211949003Y-59148986D01*
X211960000Y-59037333D01*
X211960000Y-59037324D01*
X211963676Y-59000001D01*
X211960000Y-58962678D01*
X211960000Y-56199116D01*
X213367845Y-54791272D01*
X213498102Y-54845226D01*
X213698061Y-54885000D01*
X213901939Y-54885000D01*
X214101898Y-54845226D01*
X214290256Y-54767205D01*
X214459774Y-54653937D01*
X214603937Y-54509774D01*
X214717205Y-54340256D01*
X214795226Y-54151898D01*
X214835000Y-53951939D01*
X214835000Y-53748061D01*
X214795226Y-53548102D01*
X214717205Y-53359744D01*
X214603937Y-53190226D01*
X214459774Y-53046063D01*
X214290256Y-52932795D01*
X214101898Y-52854774D01*
X213901939Y-52815000D01*
X213698061Y-52815000D01*
X213498102Y-52854774D01*
X213309744Y-52932795D01*
X213140226Y-53046063D01*
X213085276Y-53101013D01*
X212942068Y-53144454D01*
X212810039Y-53215026D01*
X212694314Y-53309999D01*
X212670516Y-53338997D01*
X211010000Y-54999514D01*
X211010000Y-53164801D01*
X213254506Y-50920296D01*
X213309744Y-50957205D01*
X213498102Y-51035226D01*
X213698061Y-51075000D01*
X213901939Y-51075000D01*
X214101898Y-51035226D01*
X214290256Y-50957205D01*
X214459774Y-50843937D01*
X214603937Y-50699774D01*
X214717205Y-50530256D01*
X214795226Y-50341898D01*
X214835000Y-50141939D01*
X214835000Y-50059802D01*
X215090001Y-50314803D01*
X215090000Y-55096289D01*
X215046063Y-55140226D01*
X214932795Y-55309744D01*
X214854774Y-55498102D01*
X214815000Y-55698061D01*
X214815000Y-55901939D01*
X214854774Y-56101898D01*
X214932795Y-56290256D01*
X215046063Y-56459774D01*
X215190226Y-56603937D01*
X215359744Y-56717205D01*
X215548102Y-56795226D01*
X215748061Y-56835000D01*
X215951939Y-56835000D01*
X216151898Y-56795226D01*
X216340256Y-56717205D01*
X216509774Y-56603937D01*
X216653937Y-56459774D01*
X216767205Y-56290256D01*
X216845226Y-56101898D01*
X216885000Y-55901939D01*
X216885000Y-55848061D01*
X218865000Y-55848061D01*
X218865000Y-56051939D01*
X218904774Y-56251898D01*
X218982795Y-56440256D01*
X219096063Y-56609774D01*
X219240226Y-56753937D01*
X219409744Y-56867205D01*
X219598102Y-56945226D01*
X219798061Y-56985000D01*
X220001939Y-56985000D01*
X220201898Y-56945226D01*
X220390256Y-56867205D01*
X220438454Y-56835000D01*
X224606531Y-56835000D01*
X224650000Y-56839281D01*
X224693469Y-56835000D01*
X224693477Y-56835000D01*
X224823490Y-56822195D01*
X224990313Y-56771589D01*
X225144059Y-56689411D01*
X225278817Y-56578817D01*
X225306534Y-56545044D01*
X227866579Y-53985000D01*
X228111546Y-53985000D01*
X228159744Y-54017205D01*
X228348102Y-54095226D01*
X228548061Y-54135000D01*
X228751939Y-54135000D01*
X228951898Y-54095226D01*
X229140256Y-54017205D01*
X229309774Y-53903937D01*
X229453937Y-53759774D01*
X229567205Y-53590256D01*
X229645226Y-53401898D01*
X229685000Y-53201939D01*
X229685000Y-52998061D01*
X229645226Y-52798102D01*
X229567205Y-52609744D01*
X229453937Y-52440226D01*
X229309774Y-52296063D01*
X229140256Y-52182795D01*
X228951898Y-52104774D01*
X228751939Y-52065000D01*
X228548061Y-52065000D01*
X228348102Y-52104774D01*
X228159744Y-52182795D01*
X228111546Y-52215000D01*
X227543469Y-52215000D01*
X227500000Y-52210719D01*
X227456531Y-52215000D01*
X227456523Y-52215000D01*
X227326510Y-52227805D01*
X227159686Y-52278411D01*
X227005941Y-52360589D01*
X226904953Y-52443468D01*
X226904951Y-52443470D01*
X226871183Y-52471183D01*
X226843470Y-52504951D01*
X224283422Y-55065000D01*
X220438454Y-55065000D01*
X220390256Y-55032795D01*
X220201898Y-54954774D01*
X220001939Y-54915000D01*
X219798061Y-54915000D01*
X219598102Y-54954774D01*
X219409744Y-55032795D01*
X219240226Y-55146063D01*
X219096063Y-55290226D01*
X218982795Y-55459744D01*
X218904774Y-55648102D01*
X218865000Y-55848061D01*
X216885000Y-55848061D01*
X216885000Y-55698061D01*
X216845226Y-55498102D01*
X216767205Y-55309744D01*
X216653937Y-55140226D01*
X216610000Y-55096289D01*
X216610000Y-50684801D01*
X220136201Y-54211003D01*
X220159999Y-54240001D01*
X220188997Y-54263799D01*
X220275723Y-54334974D01*
X220378671Y-54390001D01*
X220407753Y-54405546D01*
X220551014Y-54449003D01*
X220662667Y-54460000D01*
X220662676Y-54460000D01*
X220699999Y-54463676D01*
X220737322Y-54460000D01*
X224512678Y-54460000D01*
X224550000Y-54463676D01*
X224587322Y-54460000D01*
X224587333Y-54460000D01*
X224698986Y-54449003D01*
X224842247Y-54405546D01*
X224974276Y-54334974D01*
X225090001Y-54240001D01*
X225113804Y-54210997D01*
X226961004Y-52363798D01*
X226990001Y-52340001D01*
X227084974Y-52224276D01*
X227155546Y-52092247D01*
X227199003Y-51948986D01*
X227210000Y-51837333D01*
X227210000Y-51837325D01*
X227213676Y-51800000D01*
X227210000Y-51762675D01*
X227210000Y-46587322D01*
X227213676Y-46549999D01*
X227210000Y-46512676D01*
X227210000Y-46512667D01*
X227199003Y-46401014D01*
X227155546Y-46257753D01*
X227084974Y-46125724D01*
X226990001Y-46009999D01*
X226961003Y-45986201D01*
X225335000Y-44360199D01*
X225335000Y-44298061D01*
X225295226Y-44098102D01*
X225250021Y-43988967D01*
X245865000Y-43988967D01*
X245865000Y-44311033D01*
X245927832Y-44626912D01*
X246051082Y-44924463D01*
X246230013Y-45192252D01*
X246457748Y-45419987D01*
X246725537Y-45598918D01*
X247023088Y-45722168D01*
X247338967Y-45785000D01*
X247661033Y-45785000D01*
X247976912Y-45722168D01*
X248274463Y-45598918D01*
X248542252Y-45419987D01*
X248769987Y-45192252D01*
X248948918Y-44924463D01*
X249072168Y-44626912D01*
X249135000Y-44311033D01*
X249135000Y-43988967D01*
X249072168Y-43673088D01*
X248948918Y-43375537D01*
X248769987Y-43107748D01*
X248542252Y-42880013D01*
X248274463Y-42701082D01*
X247976912Y-42577832D01*
X247661033Y-42515000D01*
X247338967Y-42515000D01*
X247023088Y-42577832D01*
X246725537Y-42701082D01*
X246457748Y-42880013D01*
X246230013Y-43107748D01*
X246051082Y-43375537D01*
X245927832Y-43673088D01*
X245865000Y-43988967D01*
X225250021Y-43988967D01*
X225217205Y-43909744D01*
X225103937Y-43740226D01*
X224959774Y-43596063D01*
X224790256Y-43482795D01*
X224601898Y-43404774D01*
X224401939Y-43365000D01*
X224198061Y-43365000D01*
X223998102Y-43404774D01*
X223809744Y-43482795D01*
X223640226Y-43596063D01*
X223496063Y-43740226D01*
X223382795Y-43909744D01*
X223304774Y-44098102D01*
X223265000Y-44298061D01*
X223265000Y-44501939D01*
X223304774Y-44701898D01*
X223382795Y-44890256D01*
X223496063Y-45059774D01*
X223640226Y-45203937D01*
X223809744Y-45317205D01*
X223998102Y-45395226D01*
X224198061Y-45435000D01*
X224260199Y-45435000D01*
X225690001Y-46864803D01*
X225690000Y-51485198D01*
X224235199Y-52940000D01*
X221014802Y-52940000D01*
X218634802Y-50560000D01*
X222185199Y-50560000D01*
X223165000Y-51539802D01*
X223165000Y-51601939D01*
X223204774Y-51801898D01*
X223282795Y-51990256D01*
X223396063Y-52159774D01*
X223540226Y-52303937D01*
X223709744Y-52417205D01*
X223898102Y-52495226D01*
X224098061Y-52535000D01*
X224301939Y-52535000D01*
X224501898Y-52495226D01*
X224690256Y-52417205D01*
X224859774Y-52303937D01*
X225003937Y-52159774D01*
X225117205Y-51990256D01*
X225195226Y-51801898D01*
X225235000Y-51601939D01*
X225235000Y-51398061D01*
X225195226Y-51198102D01*
X225117205Y-51009744D01*
X225003937Y-50840226D01*
X224859774Y-50696063D01*
X224690256Y-50582795D01*
X224501898Y-50504774D01*
X224301939Y-50465000D01*
X224239802Y-50465000D01*
X223063804Y-49289003D01*
X223040001Y-49259999D01*
X222924276Y-49165026D01*
X222792247Y-49094454D01*
X222648986Y-49050997D01*
X222537333Y-49040000D01*
X222537322Y-49040000D01*
X222500000Y-49036324D01*
X222462678Y-49040000D01*
X218614802Y-49040000D01*
X215913804Y-46339003D01*
X215890001Y-46309999D01*
X215774276Y-46215026D01*
X215642247Y-46144454D01*
X215498986Y-46100997D01*
X215387333Y-46090000D01*
X215387322Y-46090000D01*
X215350000Y-46086324D01*
X215312678Y-46090000D01*
X213927000Y-46090000D01*
X213927000Y-45236022D01*
X216920251Y-45236022D01*
X216976379Y-45736412D01*
X217128631Y-46216370D01*
X217371207Y-46657615D01*
X217694869Y-47043340D01*
X218087287Y-47358852D01*
X218533515Y-47592134D01*
X219016556Y-47734301D01*
X219518012Y-47779937D01*
X220018781Y-47727304D01*
X220499790Y-47578407D01*
X220942718Y-47338917D01*
X221330693Y-47017956D01*
X221648937Y-46627750D01*
X221885329Y-46183162D01*
X222030864Y-45701125D01*
X222080000Y-45200000D01*
X222078994Y-45127962D01*
X222015885Y-44628405D01*
X221856947Y-44150619D01*
X221608234Y-43712805D01*
X221279218Y-43331637D01*
X220882433Y-43021634D01*
X220432991Y-42794605D01*
X219948012Y-42659196D01*
X219445969Y-42620566D01*
X218945983Y-42680186D01*
X218467099Y-42835784D01*
X218027559Y-43081435D01*
X217644103Y-43407781D01*
X217331338Y-43802393D01*
X217101177Y-44250239D01*
X216962386Y-44734261D01*
X216920251Y-45236022D01*
X213927000Y-45236022D01*
X213927000Y-40660000D01*
X254340000Y-40660000D01*
X254340000Y-58538810D01*
X250980000Y-58538810D01*
X250980000Y-77061191D01*
X254340001Y-77061191D01*
X254340001Y-84340000D01*
X165660000Y-84340000D01*
X165660000Y-83317609D01*
X165919038Y-83317609D01*
X165922909Y-83355282D01*
X166015079Y-83580533D01*
X166149422Y-83783474D01*
X166320775Y-83956307D01*
X166522554Y-84092390D01*
X166747004Y-84186493D01*
X166985500Y-84235000D01*
X167335500Y-84235000D01*
X167335500Y-83127000D01*
X167589500Y-83127000D01*
X167589500Y-84235000D01*
X167939500Y-84235000D01*
X168177996Y-84186493D01*
X168402446Y-84092390D01*
X168604225Y-83956307D01*
X168775578Y-83783474D01*
X168909921Y-83580533D01*
X169002091Y-83355282D01*
X169005962Y-83317609D01*
X168881231Y-83127000D01*
X167589500Y-83127000D01*
X167335500Y-83127000D01*
X166043769Y-83127000D01*
X165919038Y-83317609D01*
X165660000Y-83317609D01*
X165660000Y-82939133D01*
X169402972Y-82939133D01*
X169465465Y-83175450D01*
X169708178Y-83288850D01*
X169968349Y-83352719D01*
X170235982Y-83364604D01*
X170500791Y-83324048D01*
X170752600Y-83232609D01*
X170859535Y-83175450D01*
X170922028Y-82939133D01*
X170162500Y-82179605D01*
X169402972Y-82939133D01*
X165660000Y-82939133D01*
X165660000Y-82682391D01*
X165919038Y-82682391D01*
X166043769Y-82873000D01*
X167335500Y-82873000D01*
X167335500Y-82853000D01*
X167589500Y-82853000D01*
X167589500Y-82873000D01*
X168881231Y-82873000D01*
X168995003Y-82699138D01*
X169223367Y-82759528D01*
X169982895Y-82000000D01*
X170342105Y-82000000D01*
X171101633Y-82759528D01*
X171337950Y-82697035D01*
X171451350Y-82454322D01*
X171515219Y-82194151D01*
X171527104Y-81926518D01*
X171486548Y-81661709D01*
X171395109Y-81409900D01*
X171337950Y-81302965D01*
X171101633Y-81240472D01*
X170342105Y-82000000D01*
X169982895Y-82000000D01*
X169223367Y-81240472D01*
X168987050Y-81302965D01*
X168873650Y-81545678D01*
X168809781Y-81805849D01*
X168797896Y-82073482D01*
X168833115Y-82303442D01*
X168775578Y-82216526D01*
X168604225Y-82043693D01*
X168402446Y-81907610D01*
X168177996Y-81813507D01*
X167939500Y-81765000D01*
X166985500Y-81765000D01*
X166747004Y-81813507D01*
X166522554Y-81907610D01*
X166320775Y-82043693D01*
X166149422Y-82216526D01*
X166015079Y-82419467D01*
X165922909Y-82644718D01*
X165919038Y-82682391D01*
X165660000Y-82682391D01*
X165660000Y-81060867D01*
X169402972Y-81060867D01*
X170162500Y-81820395D01*
X170922028Y-81060867D01*
X170859535Y-80824550D01*
X170616822Y-80711150D01*
X170356651Y-80647281D01*
X170089018Y-80635396D01*
X169824209Y-80675952D01*
X169572400Y-80767391D01*
X169465465Y-80824550D01*
X169402972Y-81060867D01*
X165660000Y-81060867D01*
X165660000Y-77939133D01*
X169402972Y-77939133D01*
X169465465Y-78175450D01*
X169708178Y-78288850D01*
X169968349Y-78352719D01*
X170235982Y-78364604D01*
X170500791Y-78324048D01*
X170752600Y-78232609D01*
X170859535Y-78175450D01*
X170922028Y-77939133D01*
X170162500Y-77179605D01*
X169402972Y-77939133D01*
X165660000Y-77939133D01*
X165660000Y-76317609D01*
X165919038Y-76317609D01*
X165922909Y-76355282D01*
X166015079Y-76580533D01*
X166149422Y-76783474D01*
X166320775Y-76956307D01*
X166522554Y-77092390D01*
X166747004Y-77186493D01*
X166985500Y-77235000D01*
X167335500Y-77235000D01*
X167335500Y-76127000D01*
X167589500Y-76127000D01*
X167589500Y-77235000D01*
X167939500Y-77235000D01*
X168177996Y-77186493D01*
X168402446Y-77092390D01*
X168604225Y-76956307D01*
X168775578Y-76783474D01*
X168838671Y-76688164D01*
X168809781Y-76805849D01*
X168797896Y-77073482D01*
X168838452Y-77338291D01*
X168929891Y-77590100D01*
X168987050Y-77697035D01*
X169223367Y-77759528D01*
X169982895Y-77000000D01*
X170342105Y-77000000D01*
X171101633Y-77759528D01*
X171337950Y-77697035D01*
X171451350Y-77454322D01*
X171515219Y-77194151D01*
X171527104Y-76926518D01*
X171486548Y-76661709D01*
X171395109Y-76409900D01*
X171337950Y-76302965D01*
X171101633Y-76240472D01*
X170342105Y-77000000D01*
X169982895Y-77000000D01*
X169223367Y-76240472D01*
X168995003Y-76300862D01*
X168881231Y-76127000D01*
X167589500Y-76127000D01*
X167335500Y-76127000D01*
X166043769Y-76127000D01*
X165919038Y-76317609D01*
X165660000Y-76317609D01*
X165660000Y-76060867D01*
X169402972Y-76060867D01*
X170162500Y-76820395D01*
X170922028Y-76060867D01*
X170859535Y-75824550D01*
X170616822Y-75711150D01*
X170356651Y-75647281D01*
X170089018Y-75635396D01*
X169824209Y-75675952D01*
X169572400Y-75767391D01*
X169465465Y-75824550D01*
X169402972Y-76060867D01*
X165660000Y-76060867D01*
X165660000Y-75682391D01*
X165919038Y-75682391D01*
X166043769Y-75873000D01*
X167335500Y-75873000D01*
X167335500Y-75853000D01*
X167589500Y-75853000D01*
X167589500Y-75873000D01*
X168881231Y-75873000D01*
X169005962Y-75682391D01*
X169002091Y-75644718D01*
X168909921Y-75419467D01*
X168775578Y-75216526D01*
X168604225Y-75043693D01*
X168402446Y-74907610D01*
X168177996Y-74813507D01*
X167939500Y-74765000D01*
X166985500Y-74765000D01*
X166747004Y-74813507D01*
X166522554Y-74907610D01*
X166320775Y-75043693D01*
X166149422Y-75216526D01*
X166015079Y-75419467D01*
X165922909Y-75644718D01*
X165919038Y-75682391D01*
X165660000Y-75682391D01*
X165660000Y-69862845D01*
X174416761Y-69862845D01*
X174584802Y-70188643D01*
X174976607Y-70389426D01*
X175400055Y-70509914D01*
X175838873Y-70545476D01*
X176276197Y-70494746D01*
X176695221Y-70359674D01*
X177015198Y-70188643D01*
X177183239Y-69862845D01*
X175800000Y-68479605D01*
X174416761Y-69862845D01*
X165660000Y-69862845D01*
X165660000Y-68338873D01*
X173554524Y-68338873D01*
X173605254Y-68776197D01*
X173740326Y-69195221D01*
X173911357Y-69515198D01*
X174237155Y-69683239D01*
X175620395Y-68300000D01*
X175979605Y-68300000D01*
X177362845Y-69683239D01*
X177688643Y-69515198D01*
X177889426Y-69123393D01*
X178009914Y-68699945D01*
X178045476Y-68261127D01*
X177994746Y-67823803D01*
X177859674Y-67404779D01*
X177688643Y-67084802D01*
X177362845Y-66916761D01*
X175979605Y-68300000D01*
X175620395Y-68300000D01*
X174237155Y-66916761D01*
X173911357Y-67084802D01*
X173710574Y-67476607D01*
X173590086Y-67900055D01*
X173554524Y-68338873D01*
X165660000Y-68338873D01*
X165660000Y-57138873D01*
X173554524Y-57138873D01*
X173605254Y-57576197D01*
X173740326Y-57995221D01*
X173911357Y-58315198D01*
X174237155Y-58483239D01*
X175620395Y-57100000D01*
X175979605Y-57100000D01*
X177362845Y-58483239D01*
X177688643Y-58315198D01*
X177889426Y-57923393D01*
X178009914Y-57499945D01*
X178045476Y-57061127D01*
X177994746Y-56623803D01*
X177859674Y-56204779D01*
X177688643Y-55884802D01*
X177362845Y-55716761D01*
X175979605Y-57100000D01*
X175620395Y-57100000D01*
X174237155Y-55716761D01*
X173911357Y-55884802D01*
X173710574Y-56276607D01*
X173590086Y-56700055D01*
X173554524Y-57138873D01*
X165660000Y-57138873D01*
X165660000Y-55537155D01*
X174416761Y-55537155D01*
X175800000Y-56920395D01*
X177183239Y-55537155D01*
X177015198Y-55211357D01*
X176623393Y-55010574D01*
X176199945Y-54890086D01*
X175761127Y-54854524D01*
X175323803Y-54905254D01*
X174904779Y-55040326D01*
X174584802Y-55211357D01*
X174416761Y-55537155D01*
X165660000Y-55537155D01*
X165660000Y-51468664D01*
X167385188Y-51468664D01*
X167411147Y-51579655D01*
X167533350Y-51861094D01*
X167708111Y-52113285D01*
X167928714Y-52326536D01*
X168186681Y-52492652D01*
X168472099Y-52605249D01*
X168774000Y-52660000D01*
X169373000Y-52660000D01*
X169373000Y-51227000D01*
X169627000Y-51227000D01*
X169627000Y-52660000D01*
X170226000Y-52660000D01*
X170527901Y-52605249D01*
X170813319Y-52492652D01*
X171071286Y-52326536D01*
X171291889Y-52113285D01*
X171466650Y-51861094D01*
X171588853Y-51579655D01*
X171614812Y-51468664D01*
X171494483Y-51227000D01*
X169627000Y-51227000D01*
X169373000Y-51227000D01*
X167505517Y-51227000D01*
X167385188Y-51468664D01*
X165660000Y-51468664D01*
X165660000Y-50731336D01*
X167385188Y-50731336D01*
X167505517Y-50973000D01*
X169373000Y-50973000D01*
X169373000Y-50953000D01*
X169627000Y-50953000D01*
X169627000Y-50973000D01*
X171494483Y-50973000D01*
X171614812Y-50731336D01*
X179885188Y-50731336D01*
X180005517Y-50973000D01*
X181873000Y-50973000D01*
X181873000Y-50953000D01*
X182127000Y-50953000D01*
X182127000Y-50973000D01*
X183994483Y-50973000D01*
X184114812Y-50731336D01*
X184088853Y-50620345D01*
X183966650Y-50338906D01*
X183791889Y-50086715D01*
X183571286Y-49873464D01*
X183313319Y-49707348D01*
X183027901Y-49594751D01*
X182726000Y-49540000D01*
X181274000Y-49540000D01*
X180972099Y-49594751D01*
X180686681Y-49707348D01*
X180428714Y-49873464D01*
X180208111Y-50086715D01*
X180033350Y-50338906D01*
X179911147Y-50620345D01*
X179885188Y-50731336D01*
X171614812Y-50731336D01*
X171588853Y-50620345D01*
X171466650Y-50338906D01*
X171291889Y-50086715D01*
X171071286Y-49873464D01*
X170813319Y-49707348D01*
X170527901Y-49594751D01*
X170226000Y-49540000D01*
X168774000Y-49540000D01*
X168472099Y-49594751D01*
X168186681Y-49707348D01*
X167928714Y-49873464D01*
X167708111Y-50086715D01*
X167533350Y-50338906D01*
X167411147Y-50620345D01*
X167385188Y-50731336D01*
X165660000Y-50731336D01*
X165660000Y-40660000D01*
X195073000Y-40660000D01*
X195073000Y-46100000D01*
X195073000Y-46100000D01*
G37*
X195073000Y-46100000D02*
X195075440Y-46124776D01*
X195082667Y-46148601D01*
X195094403Y-46170557D01*
X195110197Y-46189803D01*
X195129443Y-46205597D01*
X195151399Y-46217333D01*
X195175224Y-46224560D01*
X195200000Y-46227000D01*
X210711134Y-46227000D01*
X210609999Y-46309999D01*
X210586201Y-46338997D01*
X207685199Y-49240000D01*
X196203711Y-49240000D01*
X196159774Y-49196063D01*
X195990256Y-49082795D01*
X195801898Y-49004774D01*
X195601939Y-48965000D01*
X195539802Y-48965000D01*
X194813804Y-48239003D01*
X194790001Y-48209999D01*
X194674276Y-48115026D01*
X194542247Y-48044454D01*
X194398986Y-48000997D01*
X194287333Y-47990000D01*
X194287322Y-47990000D01*
X194250000Y-47986324D01*
X194212678Y-47990000D01*
X184964802Y-47990000D01*
X183917457Y-46942655D01*
X184047226Y-46699875D01*
X184136428Y-46405813D01*
X184166548Y-46100000D01*
X184136428Y-45794187D01*
X184047226Y-45500125D01*
X183906060Y-45236022D01*
X186420251Y-45236022D01*
X186476379Y-45736412D01*
X186628631Y-46216370D01*
X186871207Y-46657615D01*
X187194869Y-47043340D01*
X187587287Y-47358852D01*
X188033515Y-47592134D01*
X188516556Y-47734301D01*
X189018012Y-47779937D01*
X189518781Y-47727304D01*
X189999790Y-47578407D01*
X190442718Y-47338917D01*
X190830693Y-47017956D01*
X191148937Y-46627750D01*
X191385329Y-46183162D01*
X191530864Y-45701125D01*
X191580000Y-45200000D01*
X191578994Y-45127962D01*
X191515885Y-44628405D01*
X191356947Y-44150619D01*
X191108234Y-43712805D01*
X190779218Y-43331637D01*
X190382433Y-43021634D01*
X189932991Y-42794605D01*
X189448012Y-42659196D01*
X188945969Y-42620566D01*
X188445983Y-42680186D01*
X187967099Y-42835784D01*
X187527559Y-43081435D01*
X187144103Y-43407781D01*
X186831338Y-43802393D01*
X186601177Y-44250239D01*
X186462386Y-44734261D01*
X186420251Y-45236022D01*
X183906060Y-45236022D01*
X183902369Y-45229117D01*
X183707424Y-44991576D01*
X183469883Y-44796631D01*
X183198875Y-44651774D01*
X182904813Y-44562572D01*
X182675636Y-44540000D01*
X181324364Y-44540000D01*
X181095187Y-44562572D01*
X180801125Y-44651774D01*
X180530117Y-44796631D01*
X180292576Y-44991576D01*
X180097631Y-45229117D01*
X180038363Y-45340000D01*
X171461637Y-45340000D01*
X171402369Y-45229117D01*
X171207424Y-44991576D01*
X170969883Y-44796631D01*
X170698875Y-44651774D01*
X170404813Y-44562572D01*
X170175636Y-44540000D01*
X168824364Y-44540000D01*
X168595187Y-44562572D01*
X168301125Y-44651774D01*
X168030117Y-44796631D01*
X167792576Y-44991576D01*
X167597631Y-45229117D01*
X167452774Y-45500125D01*
X167363572Y-45794187D01*
X167333452Y-46100000D01*
X167363572Y-46405813D01*
X167452774Y-46699875D01*
X167597631Y-46970883D01*
X167792576Y-47208424D01*
X168030117Y-47403369D01*
X168301125Y-47548226D01*
X168595187Y-47637428D01*
X168824364Y-47660000D01*
X170175636Y-47660000D01*
X170404813Y-47637428D01*
X170698875Y-47548226D01*
X170969883Y-47403369D01*
X171207424Y-47208424D01*
X171402369Y-46970883D01*
X171461637Y-46860000D01*
X180038363Y-46860000D01*
X180097631Y-46970883D01*
X180292576Y-47208424D01*
X180530117Y-47403369D01*
X180801125Y-47548226D01*
X181095187Y-47637428D01*
X181324364Y-47660000D01*
X182485199Y-47660000D01*
X184086200Y-49261002D01*
X184109999Y-49290001D01*
X184138997Y-49313799D01*
X184225723Y-49384974D01*
X184357753Y-49455546D01*
X184501014Y-49499003D01*
X184612667Y-49510000D01*
X184612677Y-49510000D01*
X184650000Y-49513676D01*
X184687323Y-49510000D01*
X193935199Y-49510000D01*
X194465000Y-50039802D01*
X194465000Y-50101939D01*
X194504774Y-50301898D01*
X194582795Y-50490256D01*
X194696063Y-50659774D01*
X194840226Y-50803937D01*
X195009744Y-50917205D01*
X195198102Y-50995226D01*
X195398061Y-51035000D01*
X195601939Y-51035000D01*
X195801898Y-50995226D01*
X195990256Y-50917205D01*
X196159774Y-50803937D01*
X196203711Y-50760000D01*
X207962678Y-50760000D01*
X208000000Y-50763676D01*
X208037322Y-50760000D01*
X208037333Y-50760000D01*
X208148986Y-50749003D01*
X208292247Y-50705546D01*
X208424276Y-50634974D01*
X208540001Y-50540001D01*
X208563804Y-50510997D01*
X209090001Y-49984800D01*
X209090000Y-50746289D01*
X209046063Y-50790226D01*
X208932795Y-50959744D01*
X208854774Y-51148102D01*
X208815000Y-51348061D01*
X208815000Y-51414831D01*
X208765026Y-51475724D01*
X208694454Y-51607754D01*
X208681332Y-51651014D01*
X208653658Y-51742247D01*
X208650998Y-51751015D01*
X208636324Y-51900000D01*
X208640001Y-51937332D01*
X208640000Y-57785198D01*
X208135199Y-58290000D01*
X196917150Y-58290000D01*
X197017205Y-58140256D01*
X197095226Y-57951898D01*
X197135000Y-57751939D01*
X197135000Y-57548061D01*
X197095226Y-57348102D01*
X197017205Y-57159744D01*
X196910468Y-57000000D01*
X197017205Y-56840256D01*
X197095226Y-56651898D01*
X197135000Y-56451939D01*
X197135000Y-56248061D01*
X197095226Y-56048102D01*
X197017205Y-55859744D01*
X196903937Y-55690226D01*
X196759774Y-55546063D01*
X196590256Y-55432795D01*
X196401898Y-55354774D01*
X196201939Y-55315000D01*
X196139802Y-55315000D01*
X193663804Y-52839003D01*
X193640001Y-52809999D01*
X193524276Y-52715026D01*
X193392247Y-52644454D01*
X193248986Y-52600997D01*
X193137333Y-52590000D01*
X193137322Y-52590000D01*
X193100000Y-52586324D01*
X193062678Y-52590000D01*
X183066555Y-52590000D01*
X183313319Y-52492652D01*
X183571286Y-52326536D01*
X183791889Y-52113285D01*
X183966650Y-51861094D01*
X184088853Y-51579655D01*
X184114812Y-51468664D01*
X183994483Y-51227000D01*
X182127000Y-51227000D01*
X182127000Y-51247000D01*
X181873000Y-51247000D01*
X181873000Y-51227000D01*
X180005517Y-51227000D01*
X179885188Y-51468664D01*
X179911147Y-51579655D01*
X180033350Y-51861094D01*
X180208111Y-52113285D01*
X180428714Y-52326536D01*
X180686681Y-52492652D01*
X180972099Y-52605249D01*
X181202819Y-52647091D01*
X181075724Y-52715026D01*
X181075722Y-52715027D01*
X181075723Y-52715027D01*
X180988996Y-52786201D01*
X180988992Y-52786205D01*
X180959999Y-52809999D01*
X180936205Y-52838992D01*
X179038998Y-54736201D01*
X179010000Y-54759999D01*
X178986202Y-54788997D01*
X178986201Y-54788998D01*
X178915026Y-54875724D01*
X178844454Y-55007754D01*
X178823205Y-55077805D01*
X178800998Y-55151014D01*
X178798264Y-55178769D01*
X178786324Y-55300000D01*
X178790001Y-55337332D01*
X178790000Y-57685198D01*
X176985199Y-59490000D01*
X169775620Y-59490000D01*
X169748918Y-59425537D01*
X169569987Y-59157748D01*
X169342252Y-58930013D01*
X169074463Y-58751082D01*
X168861441Y-58662845D01*
X174416761Y-58662845D01*
X174584802Y-58988643D01*
X174976607Y-59189426D01*
X175400055Y-59309914D01*
X175838873Y-59345476D01*
X176276197Y-59294746D01*
X176695221Y-59159674D01*
X177015198Y-58988643D01*
X177183239Y-58662845D01*
X175800000Y-57279605D01*
X174416761Y-58662845D01*
X168861441Y-58662845D01*
X168776912Y-58627832D01*
X168461033Y-58565000D01*
X168138967Y-58565000D01*
X167823088Y-58627832D01*
X167525537Y-58751082D01*
X167257748Y-58930013D01*
X167030013Y-59157748D01*
X166851082Y-59425537D01*
X166727832Y-59723088D01*
X166665000Y-60038967D01*
X166665000Y-60361033D01*
X166727832Y-60676912D01*
X166851082Y-60974463D01*
X167030013Y-61242252D01*
X167257748Y-61469987D01*
X167354935Y-61534925D01*
X167344192Y-61564587D01*
X168300000Y-62520395D01*
X169255808Y-61564587D01*
X169245065Y-61534925D01*
X169342252Y-61469987D01*
X169569987Y-61242252D01*
X169725173Y-61010000D01*
X170165199Y-61010000D01*
X170039002Y-61136197D01*
X170009999Y-61159999D01*
X169958838Y-61222340D01*
X169915026Y-61275724D01*
X169874310Y-61351898D01*
X169844454Y-61407754D01*
X169800997Y-61551015D01*
X169790000Y-61662668D01*
X169790000Y-61662678D01*
X169786324Y-61700000D01*
X169790000Y-61737323D01*
X169790000Y-62008683D01*
X169699814Y-61839956D01*
X169435413Y-61744192D01*
X168479605Y-62700000D01*
X168493748Y-62714143D01*
X168314143Y-62893748D01*
X168300000Y-62879605D01*
X168285858Y-62893748D01*
X168106253Y-62714143D01*
X168120395Y-62700000D01*
X167164587Y-61744192D01*
X166900186Y-61839956D01*
X166759296Y-62129571D01*
X166677616Y-62441108D01*
X166658282Y-62762595D01*
X166702039Y-63081675D01*
X166807205Y-63386088D01*
X166900186Y-63560044D01*
X167049223Y-63614024D01*
X166945506Y-63669463D01*
X166848815Y-63748815D01*
X166769463Y-63845506D01*
X166710498Y-63955820D01*
X166674188Y-64075518D01*
X166661928Y-64200000D01*
X166661928Y-66200000D01*
X166674188Y-66324482D01*
X166710498Y-66444180D01*
X166769463Y-66554494D01*
X166848815Y-66651185D01*
X166945506Y-66730537D01*
X167055820Y-66789502D01*
X167175518Y-66825812D01*
X167300000Y-66838072D01*
X169300000Y-66838072D01*
X169424482Y-66825812D01*
X169544180Y-66789502D01*
X169642112Y-66737155D01*
X174416761Y-66737155D01*
X175800000Y-68120395D01*
X177183239Y-66737155D01*
X177015198Y-66411357D01*
X176623393Y-66210574D01*
X176199945Y-66090086D01*
X175761127Y-66054524D01*
X175323803Y-66105254D01*
X174904779Y-66240326D01*
X174584802Y-66411357D01*
X174416761Y-66737155D01*
X169642112Y-66737155D01*
X169654494Y-66730537D01*
X169751185Y-66651185D01*
X169830537Y-66554494D01*
X169889502Y-66444180D01*
X169925812Y-66324482D01*
X169938072Y-66200000D01*
X169938072Y-65873652D01*
X170040001Y-65790001D01*
X170063804Y-65760998D01*
X171061003Y-64763799D01*
X171090001Y-64740001D01*
X171184974Y-64624276D01*
X171255546Y-64492247D01*
X171299003Y-64348986D01*
X171310000Y-64237333D01*
X171310000Y-64237324D01*
X171313676Y-64200001D01*
X171310000Y-64162678D01*
X171310000Y-62014801D01*
X171864793Y-61460010D01*
X177462668Y-61460010D01*
X177499990Y-61463686D01*
X177537312Y-61460010D01*
X177537323Y-61460010D01*
X177648976Y-61449013D01*
X177792237Y-61405556D01*
X177924266Y-61334984D01*
X178039991Y-61240011D01*
X178063794Y-61211007D01*
X178065000Y-61209801D01*
X178065001Y-68906521D01*
X178060719Y-68950000D01*
X178077805Y-69123490D01*
X178128412Y-69290313D01*
X178210590Y-69444059D01*
X178293468Y-69545046D01*
X178293471Y-69545049D01*
X178321184Y-69578817D01*
X178354952Y-69606530D01*
X184465000Y-75716579D01*
X184465000Y-75832737D01*
X184390256Y-75782795D01*
X184201898Y-75704774D01*
X184001939Y-75665000D01*
X183798061Y-75665000D01*
X183598102Y-75704774D01*
X183409744Y-75782795D01*
X183240226Y-75896063D01*
X183096063Y-76040226D01*
X182982795Y-76209744D01*
X182904774Y-76398102D01*
X182865000Y-76598061D01*
X182865000Y-76801939D01*
X182899330Y-76974528D01*
X182213804Y-76289003D01*
X182190001Y-76259999D01*
X182074276Y-76165026D01*
X181942247Y-76094454D01*
X181798986Y-76050997D01*
X181687333Y-76040000D01*
X181687322Y-76040000D01*
X181650000Y-76036324D01*
X181612678Y-76040000D01*
X181203711Y-76040000D01*
X181159774Y-75996063D01*
X180990256Y-75882795D01*
X180801898Y-75804774D01*
X180601939Y-75765000D01*
X180398061Y-75765000D01*
X180198102Y-75804774D01*
X180009744Y-75882795D01*
X179840226Y-75996063D01*
X179696063Y-76140226D01*
X179582795Y-76309744D01*
X179504774Y-76498102D01*
X179465000Y-76698061D01*
X179465000Y-76901939D01*
X179504774Y-77101898D01*
X179582795Y-77290256D01*
X179696063Y-77459774D01*
X179840226Y-77603937D01*
X180009744Y-77717205D01*
X180198102Y-77795226D01*
X180398061Y-77835000D01*
X180601939Y-77835000D01*
X180801898Y-77795226D01*
X180990256Y-77717205D01*
X181159774Y-77603937D01*
X181203711Y-77560000D01*
X181335199Y-77560000D01*
X182686200Y-78911002D01*
X182709999Y-78940001D01*
X182825724Y-79034974D01*
X182957753Y-79105546D01*
X183101014Y-79149003D01*
X183212667Y-79160000D01*
X183212675Y-79160000D01*
X183250000Y-79163676D01*
X183287325Y-79160000D01*
X184435199Y-79160000D01*
X189236205Y-83961008D01*
X189259999Y-83990001D01*
X189288992Y-84013795D01*
X189288996Y-84013799D01*
X189359685Y-84071811D01*
X189375724Y-84084974D01*
X189507753Y-84155546D01*
X189651014Y-84199003D01*
X189762667Y-84210000D01*
X189762676Y-84210000D01*
X189799999Y-84213676D01*
X189837322Y-84210000D01*
X224262678Y-84210000D01*
X224300000Y-84213676D01*
X224337322Y-84210000D01*
X224337333Y-84210000D01*
X224448986Y-84199003D01*
X224592247Y-84155546D01*
X224724276Y-84084974D01*
X224840001Y-83990001D01*
X224863804Y-83960997D01*
X226431212Y-82393589D01*
X247642000Y-82393589D01*
X247642000Y-82666411D01*
X247695225Y-82933989D01*
X247799629Y-83186043D01*
X247951201Y-83412886D01*
X248144114Y-83605799D01*
X248370957Y-83757371D01*
X248623011Y-83861775D01*
X248890589Y-83915000D01*
X249163411Y-83915000D01*
X249430989Y-83861775D01*
X249683043Y-83757371D01*
X249909886Y-83605799D01*
X250102799Y-83412886D01*
X250254371Y-83186043D01*
X250358775Y-82933989D01*
X250412000Y-82666411D01*
X250412000Y-82393589D01*
X250358775Y-82126011D01*
X250254371Y-81873957D01*
X250102799Y-81647114D01*
X249909886Y-81454201D01*
X249683043Y-81302629D01*
X249430989Y-81198225D01*
X249163411Y-81145000D01*
X248890589Y-81145000D01*
X248623011Y-81198225D01*
X248370957Y-81302629D01*
X248144114Y-81454201D01*
X247951201Y-81647114D01*
X247799629Y-81873957D01*
X247695225Y-82126011D01*
X247642000Y-82393589D01*
X226431212Y-82393589D01*
X233561004Y-75263798D01*
X233590001Y-75240001D01*
X233684974Y-75124276D01*
X233755546Y-74992247D01*
X233799003Y-74848986D01*
X233810000Y-74737333D01*
X233810000Y-74737325D01*
X233813676Y-74700000D01*
X233810000Y-74662675D01*
X233810000Y-58193589D01*
X247642000Y-58193589D01*
X247642000Y-58466411D01*
X247695225Y-58733989D01*
X247799629Y-58986043D01*
X247951201Y-59212886D01*
X248144114Y-59405799D01*
X248370957Y-59557371D01*
X248623011Y-59661775D01*
X248890589Y-59715000D01*
X249163411Y-59715000D01*
X249430989Y-59661775D01*
X249683043Y-59557371D01*
X249909886Y-59405799D01*
X250102799Y-59212886D01*
X250254371Y-58986043D01*
X250358775Y-58733989D01*
X250412000Y-58466411D01*
X250412000Y-58193589D01*
X250358775Y-57926011D01*
X250254371Y-57673957D01*
X250102799Y-57447114D01*
X249909886Y-57254201D01*
X249683043Y-57102629D01*
X249430989Y-56998225D01*
X249163411Y-56945000D01*
X248890589Y-56945000D01*
X248623011Y-56998225D01*
X248370957Y-57102629D01*
X248144114Y-57254201D01*
X247951201Y-57447114D01*
X247799629Y-57673957D01*
X247695225Y-57926011D01*
X247642000Y-58193589D01*
X233810000Y-58193589D01*
X233810000Y-51414801D01*
X234474801Y-50750000D01*
X245861928Y-50750000D01*
X245861928Y-52750000D01*
X245874188Y-52874482D01*
X245910498Y-52994180D01*
X245969463Y-53104494D01*
X246048815Y-53201185D01*
X246145506Y-53280537D01*
X246255820Y-53339502D01*
X246375518Y-53375812D01*
X246500000Y-53388072D01*
X248500000Y-53388072D01*
X248624482Y-53375812D01*
X248744180Y-53339502D01*
X248854494Y-53280537D01*
X248951185Y-53201185D01*
X249030537Y-53104494D01*
X249089502Y-52994180D01*
X249125812Y-52874482D01*
X249138072Y-52750000D01*
X249138072Y-50750000D01*
X249125812Y-50625518D01*
X249089502Y-50505820D01*
X249030537Y-50395506D01*
X248951185Y-50298815D01*
X248854494Y-50219463D01*
X248744180Y-50160498D01*
X248624482Y-50124188D01*
X248500000Y-50111928D01*
X246500000Y-50111928D01*
X246375518Y-50124188D01*
X246255820Y-50160498D01*
X246145506Y-50219463D01*
X246048815Y-50298815D01*
X245969463Y-50395506D01*
X245910498Y-50505820D01*
X245874188Y-50625518D01*
X245861928Y-50750000D01*
X234474801Y-50750000D01*
X235524801Y-49700000D01*
X236911928Y-49700000D01*
X236924188Y-49824482D01*
X236960498Y-49944180D01*
X237019463Y-50054494D01*
X237098815Y-50151185D01*
X237195506Y-50230537D01*
X237305820Y-50289502D01*
X237425518Y-50325812D01*
X237550000Y-50338072D01*
X238164250Y-50335000D01*
X238323000Y-50176250D01*
X238323000Y-48927000D01*
X238577000Y-48927000D01*
X238577000Y-50176250D01*
X238735750Y-50335000D01*
X239350000Y-50338072D01*
X239474482Y-50325812D01*
X239594180Y-50289502D01*
X239704494Y-50230537D01*
X239801185Y-50151185D01*
X239880537Y-50054494D01*
X239939502Y-49944180D01*
X239975812Y-49824482D01*
X239988072Y-49700000D01*
X239985000Y-49085750D01*
X239826250Y-48927000D01*
X238577000Y-48927000D01*
X238323000Y-48927000D01*
X237073750Y-48927000D01*
X236915000Y-49085750D01*
X236911928Y-49700000D01*
X235524801Y-49700000D01*
X236361004Y-48863798D01*
X236390001Y-48840001D01*
X236419598Y-48803937D01*
X236484974Y-48724277D01*
X236555546Y-48592247D01*
X236555546Y-48592246D01*
X236599003Y-48448986D01*
X236610000Y-48337333D01*
X236610000Y-48337323D01*
X236613676Y-48300000D01*
X236610000Y-48262677D01*
X236610000Y-47900000D01*
X236911928Y-47900000D01*
X236915000Y-48514250D01*
X237073750Y-48673000D01*
X238323000Y-48673000D01*
X238323000Y-48653000D01*
X238577000Y-48653000D01*
X238577000Y-48673000D01*
X239826250Y-48673000D01*
X239985000Y-48514250D01*
X239988072Y-47900000D01*
X239975812Y-47775518D01*
X239939502Y-47655820D01*
X239880537Y-47545506D01*
X239801185Y-47448815D01*
X239704494Y-47369463D01*
X239594180Y-47310498D01*
X239575873Y-47304944D01*
X239642312Y-47238505D01*
X239810299Y-46987095D01*
X239926011Y-46707743D01*
X239985000Y-46411184D01*
X239985000Y-46108816D01*
X239926011Y-45812257D01*
X239810299Y-45532905D01*
X239642312Y-45281495D01*
X239428505Y-45067688D01*
X239177095Y-44899701D01*
X238897743Y-44783989D01*
X238601184Y-44725000D01*
X238298816Y-44725000D01*
X238002257Y-44783989D01*
X237722905Y-44899701D01*
X237471495Y-45067688D01*
X237257688Y-45281495D01*
X237089701Y-45532905D01*
X236973989Y-45812257D01*
X236915000Y-46108816D01*
X236915000Y-46411184D01*
X236973989Y-46707743D01*
X237089701Y-46987095D01*
X237257688Y-47238505D01*
X237324127Y-47304944D01*
X237305820Y-47310498D01*
X237195506Y-47369463D01*
X237098815Y-47448815D01*
X237019463Y-47545506D01*
X236960498Y-47655820D01*
X236924188Y-47775518D01*
X236911928Y-47900000D01*
X236610000Y-47900000D01*
X236610000Y-47387322D01*
X236613676Y-47349999D01*
X236610000Y-47312676D01*
X236610000Y-47312667D01*
X236599003Y-47201014D01*
X236555546Y-47057753D01*
X236524134Y-46998986D01*
X236484974Y-46925723D01*
X236413799Y-46838997D01*
X236390001Y-46809999D01*
X236361002Y-46786200D01*
X235975655Y-46400854D01*
X235917205Y-46259744D01*
X235803937Y-46090226D01*
X235659774Y-45946063D01*
X235490256Y-45832795D01*
X235301898Y-45754774D01*
X235101939Y-45715000D01*
X234898061Y-45715000D01*
X234698102Y-45754774D01*
X234509744Y-45832795D01*
X234340226Y-45946063D01*
X234196063Y-46090226D01*
X234082795Y-46259744D01*
X234004774Y-46448102D01*
X233965000Y-46648061D01*
X233965000Y-46851939D01*
X234004774Y-47051898D01*
X234082795Y-47240256D01*
X234172828Y-47375000D01*
X234082795Y-47509744D01*
X234004774Y-47698102D01*
X233965000Y-47898061D01*
X233965000Y-48101939D01*
X233991257Y-48233941D01*
X231988998Y-50236201D01*
X231960000Y-50259999D01*
X231936202Y-50288997D01*
X231936201Y-50288998D01*
X231865026Y-50375724D01*
X231794454Y-50507754D01*
X231769810Y-50588998D01*
X231750998Y-50651014D01*
X231746075Y-50700998D01*
X231736324Y-50800000D01*
X231740001Y-50837333D01*
X231740000Y-74285198D01*
X229660000Y-76365198D01*
X229660000Y-66337322D01*
X229663676Y-66299999D01*
X229660000Y-66262676D01*
X229660000Y-66262667D01*
X229649003Y-66151014D01*
X229605546Y-66007753D01*
X229587752Y-65974463D01*
X229534974Y-65875723D01*
X229463799Y-65788997D01*
X229440001Y-65759999D01*
X229411004Y-65736202D01*
X225913804Y-62239003D01*
X225890001Y-62209999D01*
X225774276Y-62115026D01*
X225642247Y-62044454D01*
X225498986Y-62000997D01*
X225387333Y-61990000D01*
X225387322Y-61990000D01*
X225350000Y-61986324D01*
X225312678Y-61990000D01*
X224962224Y-61990000D01*
X225017256Y-61967205D01*
X225186774Y-61853937D01*
X225330937Y-61709774D01*
X225444205Y-61540256D01*
X225522226Y-61351898D01*
X225562000Y-61151939D01*
X225562000Y-60948061D01*
X225522226Y-60748102D01*
X225444205Y-60559744D01*
X225330937Y-60390226D01*
X225186774Y-60246063D01*
X225017256Y-60132795D01*
X224828898Y-60054774D01*
X224628939Y-60015000D01*
X224425061Y-60015000D01*
X224225102Y-60054774D01*
X224036744Y-60132795D01*
X223867226Y-60246063D01*
X223823289Y-60290000D01*
X213837322Y-60290000D01*
X213799999Y-60286324D01*
X213762677Y-60290000D01*
X213762667Y-60290000D01*
X213651014Y-60300997D01*
X213515200Y-60342195D01*
X213507753Y-60344454D01*
X213375723Y-60415026D01*
X213297057Y-60479586D01*
X213259999Y-60509999D01*
X213236201Y-60538997D01*
X210535199Y-63240000D01*
X195917311Y-63240000D01*
X195995226Y-63051898D01*
X196035000Y-62851939D01*
X196035000Y-62648061D01*
X196007538Y-62510000D01*
X208412678Y-62510000D01*
X208450000Y-62513676D01*
X208487322Y-62510000D01*
X208487333Y-62510000D01*
X208598986Y-62499003D01*
X208742247Y-62455546D01*
X208874276Y-62384974D01*
X208990001Y-62290001D01*
X209013804Y-62260997D01*
X211711003Y-59563799D01*
X211740001Y-59540001D01*
X211834974Y-59424276D01*
X211905546Y-59292247D01*
X211949003Y-59148986D01*
X211960000Y-59037333D01*
X211960000Y-59037324D01*
X211963676Y-59000001D01*
X211960000Y-58962678D01*
X211960000Y-56199116D01*
X213367845Y-54791272D01*
X213498102Y-54845226D01*
X213698061Y-54885000D01*
X213901939Y-54885000D01*
X214101898Y-54845226D01*
X214290256Y-54767205D01*
X214459774Y-54653937D01*
X214603937Y-54509774D01*
X214717205Y-54340256D01*
X214795226Y-54151898D01*
X214835000Y-53951939D01*
X214835000Y-53748061D01*
X214795226Y-53548102D01*
X214717205Y-53359744D01*
X214603937Y-53190226D01*
X214459774Y-53046063D01*
X214290256Y-52932795D01*
X214101898Y-52854774D01*
X213901939Y-52815000D01*
X213698061Y-52815000D01*
X213498102Y-52854774D01*
X213309744Y-52932795D01*
X213140226Y-53046063D01*
X213085276Y-53101013D01*
X212942068Y-53144454D01*
X212810039Y-53215026D01*
X212694314Y-53309999D01*
X212670516Y-53338997D01*
X211010000Y-54999514D01*
X211010000Y-53164801D01*
X213254506Y-50920296D01*
X213309744Y-50957205D01*
X213498102Y-51035226D01*
X213698061Y-51075000D01*
X213901939Y-51075000D01*
X214101898Y-51035226D01*
X214290256Y-50957205D01*
X214459774Y-50843937D01*
X214603937Y-50699774D01*
X214717205Y-50530256D01*
X214795226Y-50341898D01*
X214835000Y-50141939D01*
X214835000Y-50059802D01*
X215090001Y-50314803D01*
X215090000Y-55096289D01*
X215046063Y-55140226D01*
X214932795Y-55309744D01*
X214854774Y-55498102D01*
X214815000Y-55698061D01*
X214815000Y-55901939D01*
X214854774Y-56101898D01*
X214932795Y-56290256D01*
X215046063Y-56459774D01*
X215190226Y-56603937D01*
X215359744Y-56717205D01*
X215548102Y-56795226D01*
X215748061Y-56835000D01*
X215951939Y-56835000D01*
X216151898Y-56795226D01*
X216340256Y-56717205D01*
X216509774Y-56603937D01*
X216653937Y-56459774D01*
X216767205Y-56290256D01*
X216845226Y-56101898D01*
X216885000Y-55901939D01*
X216885000Y-55848061D01*
X218865000Y-55848061D01*
X218865000Y-56051939D01*
X218904774Y-56251898D01*
X218982795Y-56440256D01*
X219096063Y-56609774D01*
X219240226Y-56753937D01*
X219409744Y-56867205D01*
X219598102Y-56945226D01*
X219798061Y-56985000D01*
X220001939Y-56985000D01*
X220201898Y-56945226D01*
X220390256Y-56867205D01*
X220438454Y-56835000D01*
X224606531Y-56835000D01*
X224650000Y-56839281D01*
X224693469Y-56835000D01*
X224693477Y-56835000D01*
X224823490Y-56822195D01*
X224990313Y-56771589D01*
X225144059Y-56689411D01*
X225278817Y-56578817D01*
X225306534Y-56545044D01*
X227866579Y-53985000D01*
X228111546Y-53985000D01*
X228159744Y-54017205D01*
X228348102Y-54095226D01*
X228548061Y-54135000D01*
X228751939Y-54135000D01*
X228951898Y-54095226D01*
X229140256Y-54017205D01*
X229309774Y-53903937D01*
X229453937Y-53759774D01*
X229567205Y-53590256D01*
X229645226Y-53401898D01*
X229685000Y-53201939D01*
X229685000Y-52998061D01*
X229645226Y-52798102D01*
X229567205Y-52609744D01*
X229453937Y-52440226D01*
X229309774Y-52296063D01*
X229140256Y-52182795D01*
X228951898Y-52104774D01*
X228751939Y-52065000D01*
X228548061Y-52065000D01*
X228348102Y-52104774D01*
X228159744Y-52182795D01*
X228111546Y-52215000D01*
X227543469Y-52215000D01*
X227500000Y-52210719D01*
X227456531Y-52215000D01*
X227456523Y-52215000D01*
X227326510Y-52227805D01*
X227159686Y-52278411D01*
X227005941Y-52360589D01*
X226904953Y-52443468D01*
X226904951Y-52443470D01*
X226871183Y-52471183D01*
X226843470Y-52504951D01*
X224283422Y-55065000D01*
X220438454Y-55065000D01*
X220390256Y-55032795D01*
X220201898Y-54954774D01*
X220001939Y-54915000D01*
X219798061Y-54915000D01*
X219598102Y-54954774D01*
X219409744Y-55032795D01*
X219240226Y-55146063D01*
X219096063Y-55290226D01*
X218982795Y-55459744D01*
X218904774Y-55648102D01*
X218865000Y-55848061D01*
X216885000Y-55848061D01*
X216885000Y-55698061D01*
X216845226Y-55498102D01*
X216767205Y-55309744D01*
X216653937Y-55140226D01*
X216610000Y-55096289D01*
X216610000Y-50684801D01*
X220136201Y-54211003D01*
X220159999Y-54240001D01*
X220188997Y-54263799D01*
X220275723Y-54334974D01*
X220378671Y-54390001D01*
X220407753Y-54405546D01*
X220551014Y-54449003D01*
X220662667Y-54460000D01*
X220662676Y-54460000D01*
X220699999Y-54463676D01*
X220737322Y-54460000D01*
X224512678Y-54460000D01*
X224550000Y-54463676D01*
X224587322Y-54460000D01*
X224587333Y-54460000D01*
X224698986Y-54449003D01*
X224842247Y-54405546D01*
X224974276Y-54334974D01*
X225090001Y-54240001D01*
X225113804Y-54210997D01*
X226961004Y-52363798D01*
X226990001Y-52340001D01*
X227084974Y-52224276D01*
X227155546Y-52092247D01*
X227199003Y-51948986D01*
X227210000Y-51837333D01*
X227210000Y-51837325D01*
X227213676Y-51800000D01*
X227210000Y-51762675D01*
X227210000Y-46587322D01*
X227213676Y-46549999D01*
X227210000Y-46512676D01*
X227210000Y-46512667D01*
X227199003Y-46401014D01*
X227155546Y-46257753D01*
X227084974Y-46125724D01*
X226990001Y-46009999D01*
X226961003Y-45986201D01*
X225335000Y-44360199D01*
X225335000Y-44298061D01*
X225295226Y-44098102D01*
X225250021Y-43988967D01*
X245865000Y-43988967D01*
X245865000Y-44311033D01*
X245927832Y-44626912D01*
X246051082Y-44924463D01*
X246230013Y-45192252D01*
X246457748Y-45419987D01*
X246725537Y-45598918D01*
X247023088Y-45722168D01*
X247338967Y-45785000D01*
X247661033Y-45785000D01*
X247976912Y-45722168D01*
X248274463Y-45598918D01*
X248542252Y-45419987D01*
X248769987Y-45192252D01*
X248948918Y-44924463D01*
X249072168Y-44626912D01*
X249135000Y-44311033D01*
X249135000Y-43988967D01*
X249072168Y-43673088D01*
X248948918Y-43375537D01*
X248769987Y-43107748D01*
X248542252Y-42880013D01*
X248274463Y-42701082D01*
X247976912Y-42577832D01*
X247661033Y-42515000D01*
X247338967Y-42515000D01*
X247023088Y-42577832D01*
X246725537Y-42701082D01*
X246457748Y-42880013D01*
X246230013Y-43107748D01*
X246051082Y-43375537D01*
X245927832Y-43673088D01*
X245865000Y-43988967D01*
X225250021Y-43988967D01*
X225217205Y-43909744D01*
X225103937Y-43740226D01*
X224959774Y-43596063D01*
X224790256Y-43482795D01*
X224601898Y-43404774D01*
X224401939Y-43365000D01*
X224198061Y-43365000D01*
X223998102Y-43404774D01*
X223809744Y-43482795D01*
X223640226Y-43596063D01*
X223496063Y-43740226D01*
X223382795Y-43909744D01*
X223304774Y-44098102D01*
X223265000Y-44298061D01*
X223265000Y-44501939D01*
X223304774Y-44701898D01*
X223382795Y-44890256D01*
X223496063Y-45059774D01*
X223640226Y-45203937D01*
X223809744Y-45317205D01*
X223998102Y-45395226D01*
X224198061Y-45435000D01*
X224260199Y-45435000D01*
X225690001Y-46864803D01*
X225690000Y-51485198D01*
X224235199Y-52940000D01*
X221014802Y-52940000D01*
X218634802Y-50560000D01*
X222185199Y-50560000D01*
X223165000Y-51539802D01*
X223165000Y-51601939D01*
X223204774Y-51801898D01*
X223282795Y-51990256D01*
X223396063Y-52159774D01*
X223540226Y-52303937D01*
X223709744Y-52417205D01*
X223898102Y-52495226D01*
X224098061Y-52535000D01*
X224301939Y-52535000D01*
X224501898Y-52495226D01*
X224690256Y-52417205D01*
X224859774Y-52303937D01*
X225003937Y-52159774D01*
X225117205Y-51990256D01*
X225195226Y-51801898D01*
X225235000Y-51601939D01*
X225235000Y-51398061D01*
X225195226Y-51198102D01*
X225117205Y-51009744D01*
X225003937Y-50840226D01*
X224859774Y-50696063D01*
X224690256Y-50582795D01*
X224501898Y-50504774D01*
X224301939Y-50465000D01*
X224239802Y-50465000D01*
X223063804Y-49289003D01*
X223040001Y-49259999D01*
X222924276Y-49165026D01*
X222792247Y-49094454D01*
X222648986Y-49050997D01*
X222537333Y-49040000D01*
X222537322Y-49040000D01*
X222500000Y-49036324D01*
X222462678Y-49040000D01*
X218614802Y-49040000D01*
X215913804Y-46339003D01*
X215890001Y-46309999D01*
X215774276Y-46215026D01*
X215642247Y-46144454D01*
X215498986Y-46100997D01*
X215387333Y-46090000D01*
X215387322Y-46090000D01*
X215350000Y-46086324D01*
X215312678Y-46090000D01*
X213927000Y-46090000D01*
X213927000Y-45236022D01*
X216920251Y-45236022D01*
X216976379Y-45736412D01*
X217128631Y-46216370D01*
X217371207Y-46657615D01*
X217694869Y-47043340D01*
X218087287Y-47358852D01*
X218533515Y-47592134D01*
X219016556Y-47734301D01*
X219518012Y-47779937D01*
X220018781Y-47727304D01*
X220499790Y-47578407D01*
X220942718Y-47338917D01*
X221330693Y-47017956D01*
X221648937Y-46627750D01*
X221885329Y-46183162D01*
X222030864Y-45701125D01*
X222080000Y-45200000D01*
X222078994Y-45127962D01*
X222015885Y-44628405D01*
X221856947Y-44150619D01*
X221608234Y-43712805D01*
X221279218Y-43331637D01*
X220882433Y-43021634D01*
X220432991Y-42794605D01*
X219948012Y-42659196D01*
X219445969Y-42620566D01*
X218945983Y-42680186D01*
X218467099Y-42835784D01*
X218027559Y-43081435D01*
X217644103Y-43407781D01*
X217331338Y-43802393D01*
X217101177Y-44250239D01*
X216962386Y-44734261D01*
X216920251Y-45236022D01*
X213927000Y-45236022D01*
X213927000Y-40660000D01*
X254340000Y-40660000D01*
X254340000Y-58538810D01*
X250980000Y-58538810D01*
X250980000Y-77061191D01*
X254340001Y-77061191D01*
X254340001Y-84340000D01*
X165660000Y-84340000D01*
X165660000Y-83317609D01*
X165919038Y-83317609D01*
X165922909Y-83355282D01*
X166015079Y-83580533D01*
X166149422Y-83783474D01*
X166320775Y-83956307D01*
X166522554Y-84092390D01*
X166747004Y-84186493D01*
X166985500Y-84235000D01*
X167335500Y-84235000D01*
X167335500Y-83127000D01*
X167589500Y-83127000D01*
X167589500Y-84235000D01*
X167939500Y-84235000D01*
X168177996Y-84186493D01*
X168402446Y-84092390D01*
X168604225Y-83956307D01*
X168775578Y-83783474D01*
X168909921Y-83580533D01*
X169002091Y-83355282D01*
X169005962Y-83317609D01*
X168881231Y-83127000D01*
X167589500Y-83127000D01*
X167335500Y-83127000D01*
X166043769Y-83127000D01*
X165919038Y-83317609D01*
X165660000Y-83317609D01*
X165660000Y-82939133D01*
X169402972Y-82939133D01*
X169465465Y-83175450D01*
X169708178Y-83288850D01*
X169968349Y-83352719D01*
X170235982Y-83364604D01*
X170500791Y-83324048D01*
X170752600Y-83232609D01*
X170859535Y-83175450D01*
X170922028Y-82939133D01*
X170162500Y-82179605D01*
X169402972Y-82939133D01*
X165660000Y-82939133D01*
X165660000Y-82682391D01*
X165919038Y-82682391D01*
X166043769Y-82873000D01*
X167335500Y-82873000D01*
X167335500Y-82853000D01*
X167589500Y-82853000D01*
X167589500Y-82873000D01*
X168881231Y-82873000D01*
X168995003Y-82699138D01*
X169223367Y-82759528D01*
X169982895Y-82000000D01*
X170342105Y-82000000D01*
X171101633Y-82759528D01*
X171337950Y-82697035D01*
X171451350Y-82454322D01*
X171515219Y-82194151D01*
X171527104Y-81926518D01*
X171486548Y-81661709D01*
X171395109Y-81409900D01*
X171337950Y-81302965D01*
X171101633Y-81240472D01*
X170342105Y-82000000D01*
X169982895Y-82000000D01*
X169223367Y-81240472D01*
X168987050Y-81302965D01*
X168873650Y-81545678D01*
X168809781Y-81805849D01*
X168797896Y-82073482D01*
X168833115Y-82303442D01*
X168775578Y-82216526D01*
X168604225Y-82043693D01*
X168402446Y-81907610D01*
X168177996Y-81813507D01*
X167939500Y-81765000D01*
X166985500Y-81765000D01*
X166747004Y-81813507D01*
X166522554Y-81907610D01*
X166320775Y-82043693D01*
X166149422Y-82216526D01*
X166015079Y-82419467D01*
X165922909Y-82644718D01*
X165919038Y-82682391D01*
X165660000Y-82682391D01*
X165660000Y-81060867D01*
X169402972Y-81060867D01*
X170162500Y-81820395D01*
X170922028Y-81060867D01*
X170859535Y-80824550D01*
X170616822Y-80711150D01*
X170356651Y-80647281D01*
X170089018Y-80635396D01*
X169824209Y-80675952D01*
X169572400Y-80767391D01*
X169465465Y-80824550D01*
X169402972Y-81060867D01*
X165660000Y-81060867D01*
X165660000Y-77939133D01*
X169402972Y-77939133D01*
X169465465Y-78175450D01*
X169708178Y-78288850D01*
X169968349Y-78352719D01*
X170235982Y-78364604D01*
X170500791Y-78324048D01*
X170752600Y-78232609D01*
X170859535Y-78175450D01*
X170922028Y-77939133D01*
X170162500Y-77179605D01*
X169402972Y-77939133D01*
X165660000Y-77939133D01*
X165660000Y-76317609D01*
X165919038Y-76317609D01*
X165922909Y-76355282D01*
X166015079Y-76580533D01*
X166149422Y-76783474D01*
X166320775Y-76956307D01*
X166522554Y-77092390D01*
X166747004Y-77186493D01*
X166985500Y-77235000D01*
X167335500Y-77235000D01*
X167335500Y-76127000D01*
X167589500Y-76127000D01*
X167589500Y-77235000D01*
X167939500Y-77235000D01*
X168177996Y-77186493D01*
X168402446Y-77092390D01*
X168604225Y-76956307D01*
X168775578Y-76783474D01*
X168838671Y-76688164D01*
X168809781Y-76805849D01*
X168797896Y-77073482D01*
X168838452Y-77338291D01*
X168929891Y-77590100D01*
X168987050Y-77697035D01*
X169223367Y-77759528D01*
X169982895Y-77000000D01*
X170342105Y-77000000D01*
X171101633Y-77759528D01*
X171337950Y-77697035D01*
X171451350Y-77454322D01*
X171515219Y-77194151D01*
X171527104Y-76926518D01*
X171486548Y-76661709D01*
X171395109Y-76409900D01*
X171337950Y-76302965D01*
X171101633Y-76240472D01*
X170342105Y-77000000D01*
X169982895Y-77000000D01*
X169223367Y-76240472D01*
X168995003Y-76300862D01*
X168881231Y-76127000D01*
X167589500Y-76127000D01*
X167335500Y-76127000D01*
X166043769Y-76127000D01*
X165919038Y-76317609D01*
X165660000Y-76317609D01*
X165660000Y-76060867D01*
X169402972Y-76060867D01*
X170162500Y-76820395D01*
X170922028Y-76060867D01*
X170859535Y-75824550D01*
X170616822Y-75711150D01*
X170356651Y-75647281D01*
X170089018Y-75635396D01*
X169824209Y-75675952D01*
X169572400Y-75767391D01*
X169465465Y-75824550D01*
X169402972Y-76060867D01*
X165660000Y-76060867D01*
X165660000Y-75682391D01*
X165919038Y-75682391D01*
X166043769Y-75873000D01*
X167335500Y-75873000D01*
X167335500Y-75853000D01*
X167589500Y-75853000D01*
X167589500Y-75873000D01*
X168881231Y-75873000D01*
X169005962Y-75682391D01*
X169002091Y-75644718D01*
X168909921Y-75419467D01*
X168775578Y-75216526D01*
X168604225Y-75043693D01*
X168402446Y-74907610D01*
X168177996Y-74813507D01*
X167939500Y-74765000D01*
X166985500Y-74765000D01*
X166747004Y-74813507D01*
X166522554Y-74907610D01*
X166320775Y-75043693D01*
X166149422Y-75216526D01*
X166015079Y-75419467D01*
X165922909Y-75644718D01*
X165919038Y-75682391D01*
X165660000Y-75682391D01*
X165660000Y-69862845D01*
X174416761Y-69862845D01*
X174584802Y-70188643D01*
X174976607Y-70389426D01*
X175400055Y-70509914D01*
X175838873Y-70545476D01*
X176276197Y-70494746D01*
X176695221Y-70359674D01*
X177015198Y-70188643D01*
X177183239Y-69862845D01*
X175800000Y-68479605D01*
X174416761Y-69862845D01*
X165660000Y-69862845D01*
X165660000Y-68338873D01*
X173554524Y-68338873D01*
X173605254Y-68776197D01*
X173740326Y-69195221D01*
X173911357Y-69515198D01*
X174237155Y-69683239D01*
X175620395Y-68300000D01*
X175979605Y-68300000D01*
X177362845Y-69683239D01*
X177688643Y-69515198D01*
X177889426Y-69123393D01*
X178009914Y-68699945D01*
X178045476Y-68261127D01*
X177994746Y-67823803D01*
X177859674Y-67404779D01*
X177688643Y-67084802D01*
X177362845Y-66916761D01*
X175979605Y-68300000D01*
X175620395Y-68300000D01*
X174237155Y-66916761D01*
X173911357Y-67084802D01*
X173710574Y-67476607D01*
X173590086Y-67900055D01*
X173554524Y-68338873D01*
X165660000Y-68338873D01*
X165660000Y-57138873D01*
X173554524Y-57138873D01*
X173605254Y-57576197D01*
X173740326Y-57995221D01*
X173911357Y-58315198D01*
X174237155Y-58483239D01*
X175620395Y-57100000D01*
X175979605Y-57100000D01*
X177362845Y-58483239D01*
X177688643Y-58315198D01*
X177889426Y-57923393D01*
X178009914Y-57499945D01*
X178045476Y-57061127D01*
X177994746Y-56623803D01*
X177859674Y-56204779D01*
X177688643Y-55884802D01*
X177362845Y-55716761D01*
X175979605Y-57100000D01*
X175620395Y-57100000D01*
X174237155Y-55716761D01*
X173911357Y-55884802D01*
X173710574Y-56276607D01*
X173590086Y-56700055D01*
X173554524Y-57138873D01*
X165660000Y-57138873D01*
X165660000Y-55537155D01*
X174416761Y-55537155D01*
X175800000Y-56920395D01*
X177183239Y-55537155D01*
X177015198Y-55211357D01*
X176623393Y-55010574D01*
X176199945Y-54890086D01*
X175761127Y-54854524D01*
X175323803Y-54905254D01*
X174904779Y-55040326D01*
X174584802Y-55211357D01*
X174416761Y-55537155D01*
X165660000Y-55537155D01*
X165660000Y-51468664D01*
X167385188Y-51468664D01*
X167411147Y-51579655D01*
X167533350Y-51861094D01*
X167708111Y-52113285D01*
X167928714Y-52326536D01*
X168186681Y-52492652D01*
X168472099Y-52605249D01*
X168774000Y-52660000D01*
X169373000Y-52660000D01*
X169373000Y-51227000D01*
X169627000Y-51227000D01*
X169627000Y-52660000D01*
X170226000Y-52660000D01*
X170527901Y-52605249D01*
X170813319Y-52492652D01*
X171071286Y-52326536D01*
X171291889Y-52113285D01*
X171466650Y-51861094D01*
X171588853Y-51579655D01*
X171614812Y-51468664D01*
X171494483Y-51227000D01*
X169627000Y-51227000D01*
X169373000Y-51227000D01*
X167505517Y-51227000D01*
X167385188Y-51468664D01*
X165660000Y-51468664D01*
X165660000Y-50731336D01*
X167385188Y-50731336D01*
X167505517Y-50973000D01*
X169373000Y-50973000D01*
X169373000Y-50953000D01*
X169627000Y-50953000D01*
X169627000Y-50973000D01*
X171494483Y-50973000D01*
X171614812Y-50731336D01*
X179885188Y-50731336D01*
X180005517Y-50973000D01*
X181873000Y-50973000D01*
X181873000Y-50953000D01*
X182127000Y-50953000D01*
X182127000Y-50973000D01*
X183994483Y-50973000D01*
X184114812Y-50731336D01*
X184088853Y-50620345D01*
X183966650Y-50338906D01*
X183791889Y-50086715D01*
X183571286Y-49873464D01*
X183313319Y-49707348D01*
X183027901Y-49594751D01*
X182726000Y-49540000D01*
X181274000Y-49540000D01*
X180972099Y-49594751D01*
X180686681Y-49707348D01*
X180428714Y-49873464D01*
X180208111Y-50086715D01*
X180033350Y-50338906D01*
X179911147Y-50620345D01*
X179885188Y-50731336D01*
X171614812Y-50731336D01*
X171588853Y-50620345D01*
X171466650Y-50338906D01*
X171291889Y-50086715D01*
X171071286Y-49873464D01*
X170813319Y-49707348D01*
X170527901Y-49594751D01*
X170226000Y-49540000D01*
X168774000Y-49540000D01*
X168472099Y-49594751D01*
X168186681Y-49707348D01*
X167928714Y-49873464D01*
X167708111Y-50086715D01*
X167533350Y-50338906D01*
X167411147Y-50620345D01*
X167385188Y-50731336D01*
X165660000Y-50731336D01*
X165660000Y-40660000D01*
X195073000Y-40660000D01*
X195073000Y-46100000D01*
G36*
X227190000Y-68614802D02*
G01*
X227190001Y-69762659D01*
X227190000Y-69762668D01*
X227190001Y-75185197D01*
X224885709Y-77489490D01*
X224801898Y-77454774D01*
X224601939Y-77415000D01*
X224398061Y-77415000D01*
X224198102Y-77454774D01*
X224009744Y-77532795D01*
X223840226Y-77646063D01*
X223696063Y-77790226D01*
X223582795Y-77959744D01*
X223504774Y-78148102D01*
X223465000Y-78348061D01*
X223465000Y-78551939D01*
X223504774Y-78751898D01*
X223582795Y-78940256D01*
X223696063Y-79109774D01*
X223840226Y-79253937D01*
X223965372Y-79337557D01*
X223915226Y-79371063D01*
X223771063Y-79515226D01*
X223657795Y-79684744D01*
X223579774Y-79873102D01*
X223540000Y-80073061D01*
X223540000Y-80276939D01*
X223579774Y-80476898D01*
X223657795Y-80665256D01*
X223771063Y-80834774D01*
X223915226Y-80978937D01*
X224084744Y-81092205D01*
X224273102Y-81170226D01*
X224473061Y-81210000D01*
X224676939Y-81210000D01*
X224849529Y-81175670D01*
X223835199Y-82190000D01*
X190464802Y-82190000D01*
X186762820Y-78488018D01*
X186793469Y-78485000D01*
X197633422Y-78485000D01*
X199893470Y-80745049D01*
X199921183Y-80778817D01*
X199954951Y-80806530D01*
X199954953Y-80806532D01*
X200055941Y-80889411D01*
X200209686Y-80971589D01*
X200376510Y-81022195D01*
X200506523Y-81035000D01*
X200506531Y-81035000D01*
X200550000Y-81039281D01*
X200593469Y-81035000D01*
X205643477Y-81035000D01*
X205773490Y-81022195D01*
X205940313Y-80971589D01*
X206094059Y-80889411D01*
X206228817Y-80778817D01*
X206256534Y-80745044D01*
X206795045Y-80206533D01*
X206828817Y-80178817D01*
X206939411Y-80044059D01*
X207021589Y-79890313D01*
X207072195Y-79723490D01*
X207085000Y-79593477D01*
X207085000Y-79593467D01*
X207089281Y-79550001D01*
X207085000Y-79506535D01*
X207085000Y-78285000D01*
X222706531Y-78285000D01*
X222750000Y-78289281D01*
X222793469Y-78285000D01*
X222793477Y-78285000D01*
X222923490Y-78272195D01*
X223090313Y-78221589D01*
X223244059Y-78139411D01*
X223378817Y-78028817D01*
X223406534Y-77995044D01*
X226845050Y-74556529D01*
X226878817Y-74528817D01*
X226925678Y-74471718D01*
X226989410Y-74394060D01*
X226989411Y-74394059D01*
X227071589Y-74240313D01*
X227122195Y-74073490D01*
X227135000Y-73943477D01*
X227135000Y-73943467D01*
X227139281Y-73900001D01*
X227135000Y-73856535D01*
X227135000Y-72143469D01*
X227139281Y-72100000D01*
X227135000Y-72056531D01*
X227135000Y-72056523D01*
X227122195Y-71926510D01*
X227098985Y-71849999D01*
X227071589Y-71759686D01*
X226989411Y-71605941D01*
X226906532Y-71504953D01*
X226906530Y-71504951D01*
X226878817Y-71471183D01*
X226845049Y-71443470D01*
X225906534Y-70504956D01*
X225878817Y-70471183D01*
X225744059Y-70360589D01*
X225590313Y-70278411D01*
X225423490Y-70227805D01*
X225293477Y-70215000D01*
X225293469Y-70215000D01*
X225250000Y-70210719D01*
X225206531Y-70215000D01*
X224938454Y-70215000D01*
X224890256Y-70182795D01*
X224701898Y-70104774D01*
X224501939Y-70065000D01*
X224409801Y-70065000D01*
X225964802Y-68510000D01*
X227085198Y-68510000D01*
X227190000Y-68614802D01*
X227190000Y-68614802D01*
G37*
X227190000Y-68614802D02*
X227190001Y-69762659D01*
X227190000Y-69762668D01*
X227190001Y-75185197D01*
X224885709Y-77489490D01*
X224801898Y-77454774D01*
X224601939Y-77415000D01*
X224398061Y-77415000D01*
X224198102Y-77454774D01*
X224009744Y-77532795D01*
X223840226Y-77646063D01*
X223696063Y-77790226D01*
X223582795Y-77959744D01*
X223504774Y-78148102D01*
X223465000Y-78348061D01*
X223465000Y-78551939D01*
X223504774Y-78751898D01*
X223582795Y-78940256D01*
X223696063Y-79109774D01*
X223840226Y-79253937D01*
X223965372Y-79337557D01*
X223915226Y-79371063D01*
X223771063Y-79515226D01*
X223657795Y-79684744D01*
X223579774Y-79873102D01*
X223540000Y-80073061D01*
X223540000Y-80276939D01*
X223579774Y-80476898D01*
X223657795Y-80665256D01*
X223771063Y-80834774D01*
X223915226Y-80978937D01*
X224084744Y-81092205D01*
X224273102Y-81170226D01*
X224473061Y-81210000D01*
X224676939Y-81210000D01*
X224849529Y-81175670D01*
X223835199Y-82190000D01*
X190464802Y-82190000D01*
X186762820Y-78488018D01*
X186793469Y-78485000D01*
X197633422Y-78485000D01*
X199893470Y-80745049D01*
X199921183Y-80778817D01*
X199954951Y-80806530D01*
X199954953Y-80806532D01*
X200055941Y-80889411D01*
X200209686Y-80971589D01*
X200376510Y-81022195D01*
X200506523Y-81035000D01*
X200506531Y-81035000D01*
X200550000Y-81039281D01*
X200593469Y-81035000D01*
X205643477Y-81035000D01*
X205773490Y-81022195D01*
X205940313Y-80971589D01*
X206094059Y-80889411D01*
X206228817Y-80778817D01*
X206256534Y-80745044D01*
X206795045Y-80206533D01*
X206828817Y-80178817D01*
X206939411Y-80044059D01*
X207021589Y-79890313D01*
X207072195Y-79723490D01*
X207085000Y-79593477D01*
X207085000Y-79593467D01*
X207089281Y-79550001D01*
X207085000Y-79506535D01*
X207085000Y-78285000D01*
X222706531Y-78285000D01*
X222750000Y-78289281D01*
X222793469Y-78285000D01*
X222793477Y-78285000D01*
X222923490Y-78272195D01*
X223090313Y-78221589D01*
X223244059Y-78139411D01*
X223378817Y-78028817D01*
X223406534Y-77995044D01*
X226845050Y-74556529D01*
X226878817Y-74528817D01*
X226925678Y-74471718D01*
X226989410Y-74394060D01*
X226989411Y-74394059D01*
X227071589Y-74240313D01*
X227122195Y-74073490D01*
X227135000Y-73943477D01*
X227135000Y-73943467D01*
X227139281Y-73900001D01*
X227135000Y-73856535D01*
X227135000Y-72143469D01*
X227139281Y-72100000D01*
X227135000Y-72056531D01*
X227135000Y-72056523D01*
X227122195Y-71926510D01*
X227098985Y-71849999D01*
X227071589Y-71759686D01*
X226989411Y-71605941D01*
X226906532Y-71504953D01*
X226906530Y-71504951D01*
X226878817Y-71471183D01*
X226845049Y-71443470D01*
X225906534Y-70504956D01*
X225878817Y-70471183D01*
X225744059Y-70360589D01*
X225590313Y-70278411D01*
X225423490Y-70227805D01*
X225293477Y-70215000D01*
X225293469Y-70215000D01*
X225250000Y-70210719D01*
X225206531Y-70215000D01*
X224938454Y-70215000D01*
X224890256Y-70182795D01*
X224701898Y-70104774D01*
X224501939Y-70065000D01*
X224409801Y-70065000D01*
X225964802Y-68510000D01*
X227085198Y-68510000D01*
X227190000Y-68614802D01*
G36*
X185238998Y-55686201D02*
G01*
X185210000Y-55709999D01*
X185186202Y-55738997D01*
X185186201Y-55738998D01*
X185115026Y-55825724D01*
X185044454Y-55957754D01*
X185029957Y-56005546D01*
X185003658Y-56092247D01*
X185000998Y-56101015D01*
X184986324Y-56250000D01*
X184990001Y-56287332D01*
X184990000Y-59735198D01*
X184432371Y-60292827D01*
X184441718Y-60137405D01*
X184397961Y-59818325D01*
X184292795Y-59513912D01*
X184199814Y-59339956D01*
X183935413Y-59244192D01*
X182979605Y-60200000D01*
X182993748Y-60214143D01*
X182814143Y-60393748D01*
X182800000Y-60379605D01*
X181844192Y-61335413D01*
X181939956Y-61599814D01*
X182229571Y-61740704D01*
X182541108Y-61822384D01*
X182862595Y-61841718D01*
X182886800Y-61838399D01*
X182238998Y-62486201D01*
X182210000Y-62509999D01*
X182186202Y-62538997D01*
X182186201Y-62538998D01*
X182115026Y-62625724D01*
X182044454Y-62757754D01*
X182023836Y-62825725D01*
X182000998Y-62901014D01*
X181994696Y-62965000D01*
X181986324Y-63050000D01*
X181990001Y-63087332D01*
X181990001Y-63774827D01*
X181757748Y-63930013D01*
X181530013Y-64157748D01*
X181351082Y-64425537D01*
X181227832Y-64723088D01*
X181165000Y-65038967D01*
X181165000Y-65361033D01*
X181227832Y-65676912D01*
X181351082Y-65974463D01*
X181530013Y-66242252D01*
X181757748Y-66469987D01*
X182025537Y-66648918D01*
X182323088Y-66772168D01*
X182638967Y-66835000D01*
X182961033Y-66835000D01*
X183276912Y-66772168D01*
X183574463Y-66648918D01*
X183842252Y-66469987D01*
X184069987Y-66242252D01*
X184248918Y-65974463D01*
X184372168Y-65676912D01*
X184435000Y-65361033D01*
X184435000Y-65038967D01*
X184372168Y-64723088D01*
X184248918Y-64425537D01*
X184069987Y-64157748D01*
X183842252Y-63930013D01*
X183574463Y-63751082D01*
X183510000Y-63724380D01*
X183510000Y-63364801D01*
X186261004Y-60613798D01*
X186290001Y-60590001D01*
X186384974Y-60474276D01*
X186455546Y-60342247D01*
X186499003Y-60198986D01*
X186510000Y-60087333D01*
X186510000Y-60087325D01*
X186513676Y-60050000D01*
X186510000Y-60012675D01*
X186510000Y-56564801D01*
X187264802Y-55810000D01*
X192035199Y-55810000D01*
X194358830Y-58133632D01*
X194340226Y-58146063D01*
X194296289Y-58190000D01*
X192837323Y-58190000D01*
X192800000Y-58186324D01*
X192762677Y-58190000D01*
X192762667Y-58190000D01*
X192651014Y-58200997D01*
X192515029Y-58242247D01*
X192507753Y-58244454D01*
X192375723Y-58315026D01*
X192303526Y-58374277D01*
X192259999Y-58409999D01*
X192236201Y-58438997D01*
X189789003Y-60886196D01*
X189759999Y-60909999D01*
X189726338Y-60951016D01*
X189665026Y-61025724D01*
X189622895Y-61104545D01*
X189594454Y-61157754D01*
X189550997Y-61301015D01*
X189540000Y-61412668D01*
X189540000Y-61412678D01*
X189536324Y-61450000D01*
X189540000Y-61487323D01*
X189540001Y-68462668D01*
X189536324Y-68500000D01*
X189540001Y-68537333D01*
X189550998Y-68648986D01*
X189561915Y-68684974D01*
X189594454Y-68792246D01*
X189665026Y-68924276D01*
X189727171Y-68999999D01*
X189760000Y-69040001D01*
X189788998Y-69063799D01*
X197440198Y-76715000D01*
X187116579Y-76715000D01*
X186235000Y-75833422D01*
X186235000Y-75406523D01*
X186234357Y-75399996D01*
X186239281Y-75350000D01*
X186222195Y-75176510D01*
X186171588Y-75009686D01*
X186089411Y-74855941D01*
X186006532Y-74754953D01*
X185087601Y-73836022D01*
X186420251Y-73836022D01*
X186476379Y-74336412D01*
X186628631Y-74816370D01*
X186871207Y-75257615D01*
X187194869Y-75643340D01*
X187587287Y-75958852D01*
X188033515Y-76192134D01*
X188516556Y-76334301D01*
X189018012Y-76379937D01*
X189518781Y-76327304D01*
X189999790Y-76178407D01*
X190442718Y-75938917D01*
X190830693Y-75617956D01*
X191148937Y-75227750D01*
X191385329Y-74783162D01*
X191530864Y-74301125D01*
X191580000Y-73800000D01*
X191578994Y-73727962D01*
X191515885Y-73228405D01*
X191356947Y-72750619D01*
X191108234Y-72312805D01*
X190779218Y-71931637D01*
X190382433Y-71621634D01*
X189932991Y-71394605D01*
X189448012Y-71259196D01*
X188945969Y-71220566D01*
X188445983Y-71280186D01*
X187967099Y-71435784D01*
X187527559Y-71681435D01*
X187144103Y-72007781D01*
X186831338Y-72402393D01*
X186601177Y-72850239D01*
X186462386Y-73334261D01*
X186420251Y-73836022D01*
X185087601Y-73836022D01*
X179835000Y-68583422D01*
X179835000Y-60882263D01*
X181568828Y-59148436D01*
X181664585Y-59244193D01*
X181400186Y-59339956D01*
X181259296Y-59629571D01*
X181177616Y-59941108D01*
X181158282Y-60262595D01*
X181202039Y-60581675D01*
X181307205Y-60886088D01*
X181400186Y-61060044D01*
X181664587Y-61155808D01*
X182620395Y-60200000D01*
X182606253Y-60185858D01*
X182785858Y-60006253D01*
X182800000Y-60020395D01*
X183755808Y-59064587D01*
X183660044Y-58800186D01*
X183370429Y-58659296D01*
X183058892Y-58577616D01*
X182737405Y-58558282D01*
X182418325Y-58602039D01*
X182113912Y-58707205D01*
X181939956Y-58800186D01*
X181844193Y-59064585D01*
X181748436Y-58968828D01*
X183295049Y-57422215D01*
X183328817Y-57394502D01*
X183358977Y-57357753D01*
X183439411Y-57259744D01*
X183504017Y-57138873D01*
X183521589Y-57105998D01*
X183572195Y-56939175D01*
X183585000Y-56809162D01*
X183585000Y-56809154D01*
X183589281Y-56765685D01*
X183586394Y-56736368D01*
X183617205Y-56690256D01*
X183695226Y-56501898D01*
X183735000Y-56301939D01*
X183735000Y-56098061D01*
X183695226Y-55898102D01*
X183617205Y-55709744D01*
X183503937Y-55540226D01*
X183359774Y-55396063D01*
X183190256Y-55282795D01*
X183001898Y-55204774D01*
X182801939Y-55165000D01*
X182598061Y-55165000D01*
X182398102Y-55204774D01*
X182209744Y-55282795D01*
X182040226Y-55396063D01*
X181896063Y-55540226D01*
X181782795Y-55709744D01*
X181704774Y-55898102D01*
X181665000Y-56098061D01*
X181665000Y-56301939D01*
X181704774Y-56501898D01*
X181706951Y-56507155D01*
X181010000Y-57204106D01*
X181010000Y-55764801D01*
X182114802Y-54660000D01*
X186265198Y-54660000D01*
X185238998Y-55686201D01*
X185238998Y-55686201D01*
G37*
X185238998Y-55686201D02*
X185210000Y-55709999D01*
X185186202Y-55738997D01*
X185186201Y-55738998D01*
X185115026Y-55825724D01*
X185044454Y-55957754D01*
X185029957Y-56005546D01*
X185003658Y-56092247D01*
X185000998Y-56101015D01*
X184986324Y-56250000D01*
X184990001Y-56287332D01*
X184990000Y-59735198D01*
X184432371Y-60292827D01*
X184441718Y-60137405D01*
X184397961Y-59818325D01*
X184292795Y-59513912D01*
X184199814Y-59339956D01*
X183935413Y-59244192D01*
X182979605Y-60200000D01*
X182993748Y-60214143D01*
X182814143Y-60393748D01*
X182800000Y-60379605D01*
X181844192Y-61335413D01*
X181939956Y-61599814D01*
X182229571Y-61740704D01*
X182541108Y-61822384D01*
X182862595Y-61841718D01*
X182886800Y-61838399D01*
X182238998Y-62486201D01*
X182210000Y-62509999D01*
X182186202Y-62538997D01*
X182186201Y-62538998D01*
X182115026Y-62625724D01*
X182044454Y-62757754D01*
X182023836Y-62825725D01*
X182000998Y-62901014D01*
X181994696Y-62965000D01*
X181986324Y-63050000D01*
X181990001Y-63087332D01*
X181990001Y-63774827D01*
X181757748Y-63930013D01*
X181530013Y-64157748D01*
X181351082Y-64425537D01*
X181227832Y-64723088D01*
X181165000Y-65038967D01*
X181165000Y-65361033D01*
X181227832Y-65676912D01*
X181351082Y-65974463D01*
X181530013Y-66242252D01*
X181757748Y-66469987D01*
X182025537Y-66648918D01*
X182323088Y-66772168D01*
X182638967Y-66835000D01*
X182961033Y-66835000D01*
X183276912Y-66772168D01*
X183574463Y-66648918D01*
X183842252Y-66469987D01*
X184069987Y-66242252D01*
X184248918Y-65974463D01*
X184372168Y-65676912D01*
X184435000Y-65361033D01*
X184435000Y-65038967D01*
X184372168Y-64723088D01*
X184248918Y-64425537D01*
X184069987Y-64157748D01*
X183842252Y-63930013D01*
X183574463Y-63751082D01*
X183510000Y-63724380D01*
X183510000Y-63364801D01*
X186261004Y-60613798D01*
X186290001Y-60590001D01*
X186384974Y-60474276D01*
X186455546Y-60342247D01*
X186499003Y-60198986D01*
X186510000Y-60087333D01*
X186510000Y-60087325D01*
X186513676Y-60050000D01*
X186510000Y-60012675D01*
X186510000Y-56564801D01*
X187264802Y-55810000D01*
X192035199Y-55810000D01*
X194358830Y-58133632D01*
X194340226Y-58146063D01*
X194296289Y-58190000D01*
X192837323Y-58190000D01*
X192800000Y-58186324D01*
X192762677Y-58190000D01*
X192762667Y-58190000D01*
X192651014Y-58200997D01*
X192515029Y-58242247D01*
X192507753Y-58244454D01*
X192375723Y-58315026D01*
X192303526Y-58374277D01*
X192259999Y-58409999D01*
X192236201Y-58438997D01*
X189789003Y-60886196D01*
X189759999Y-60909999D01*
X189726338Y-60951016D01*
X189665026Y-61025724D01*
X189622895Y-61104545D01*
X189594454Y-61157754D01*
X189550997Y-61301015D01*
X189540000Y-61412668D01*
X189540000Y-61412678D01*
X189536324Y-61450000D01*
X189540000Y-61487323D01*
X189540001Y-68462668D01*
X189536324Y-68500000D01*
X189540001Y-68537333D01*
X189550998Y-68648986D01*
X189561915Y-68684974D01*
X189594454Y-68792246D01*
X189665026Y-68924276D01*
X189727171Y-68999999D01*
X189760000Y-69040001D01*
X189788998Y-69063799D01*
X197440198Y-76715000D01*
X187116579Y-76715000D01*
X186235000Y-75833422D01*
X186235000Y-75406523D01*
X186234357Y-75399996D01*
X186239281Y-75350000D01*
X186222195Y-75176510D01*
X186171588Y-75009686D01*
X186089411Y-74855941D01*
X186006532Y-74754953D01*
X185087601Y-73836022D01*
X186420251Y-73836022D01*
X186476379Y-74336412D01*
X186628631Y-74816370D01*
X186871207Y-75257615D01*
X187194869Y-75643340D01*
X187587287Y-75958852D01*
X188033515Y-76192134D01*
X188516556Y-76334301D01*
X189018012Y-76379937D01*
X189518781Y-76327304D01*
X189999790Y-76178407D01*
X190442718Y-75938917D01*
X190830693Y-75617956D01*
X191148937Y-75227750D01*
X191385329Y-74783162D01*
X191530864Y-74301125D01*
X191580000Y-73800000D01*
X191578994Y-73727962D01*
X191515885Y-73228405D01*
X191356947Y-72750619D01*
X191108234Y-72312805D01*
X190779218Y-71931637D01*
X190382433Y-71621634D01*
X189932991Y-71394605D01*
X189448012Y-71259196D01*
X188945969Y-71220566D01*
X188445983Y-71280186D01*
X187967099Y-71435784D01*
X187527559Y-71681435D01*
X187144103Y-72007781D01*
X186831338Y-72402393D01*
X186601177Y-72850239D01*
X186462386Y-73334261D01*
X186420251Y-73836022D01*
X185087601Y-73836022D01*
X179835000Y-68583422D01*
X179835000Y-60882263D01*
X181568828Y-59148436D01*
X181664585Y-59244193D01*
X181400186Y-59339956D01*
X181259296Y-59629571D01*
X181177616Y-59941108D01*
X181158282Y-60262595D01*
X181202039Y-60581675D01*
X181307205Y-60886088D01*
X181400186Y-61060044D01*
X181664587Y-61155808D01*
X182620395Y-60200000D01*
X182606253Y-60185858D01*
X182785858Y-60006253D01*
X182800000Y-60020395D01*
X183755808Y-59064587D01*
X183660044Y-58800186D01*
X183370429Y-58659296D01*
X183058892Y-58577616D01*
X182737405Y-58558282D01*
X182418325Y-58602039D01*
X182113912Y-58707205D01*
X181939956Y-58800186D01*
X181844193Y-59064585D01*
X181748436Y-58968828D01*
X183295049Y-57422215D01*
X183328817Y-57394502D01*
X183358977Y-57357753D01*
X183439411Y-57259744D01*
X183504017Y-57138873D01*
X183521589Y-57105998D01*
X183572195Y-56939175D01*
X183585000Y-56809162D01*
X183585000Y-56809154D01*
X183589281Y-56765685D01*
X183586394Y-56736368D01*
X183617205Y-56690256D01*
X183695226Y-56501898D01*
X183735000Y-56301939D01*
X183735000Y-56098061D01*
X183695226Y-55898102D01*
X183617205Y-55709744D01*
X183503937Y-55540226D01*
X183359774Y-55396063D01*
X183190256Y-55282795D01*
X183001898Y-55204774D01*
X182801939Y-55165000D01*
X182598061Y-55165000D01*
X182398102Y-55204774D01*
X182209744Y-55282795D01*
X182040226Y-55396063D01*
X181896063Y-55540226D01*
X181782795Y-55709744D01*
X181704774Y-55898102D01*
X181665000Y-56098061D01*
X181665000Y-56301939D01*
X181704774Y-56501898D01*
X181706951Y-56507155D01*
X181010000Y-57204106D01*
X181010000Y-55764801D01*
X182114802Y-54660000D01*
X186265198Y-54660000D01*
X185238998Y-55686201D01*
G36*
X213236205Y-70811008D02*
G01*
X213259999Y-70840001D01*
X213288992Y-70863795D01*
X213288996Y-70863799D01*
X213339866Y-70905546D01*
X213375724Y-70934974D01*
X213507753Y-71005546D01*
X213651014Y-71049003D01*
X213762667Y-71060000D01*
X213762676Y-71060000D01*
X213799999Y-71063676D01*
X213837322Y-71060000D01*
X222235198Y-71060000D01*
X222340000Y-71164802D01*
X222340001Y-72412668D01*
X222336324Y-72450000D01*
X222340001Y-72487333D01*
X222349322Y-72581964D01*
X222350998Y-72598985D01*
X222394454Y-72742246D01*
X222465026Y-72874276D01*
X222535169Y-72959744D01*
X222560000Y-72990001D01*
X222588998Y-73013799D01*
X223386201Y-73811003D01*
X223409999Y-73840001D01*
X223438997Y-73863799D01*
X223525724Y-73934974D01*
X223657753Y-74005546D01*
X223681166Y-74012648D01*
X223746063Y-74109774D01*
X223890226Y-74253937D01*
X224059744Y-74367205D01*
X224248102Y-74445226D01*
X224419168Y-74479253D01*
X222383422Y-76515000D01*
X208656556Y-76515000D01*
X208721727Y-76488005D01*
X208950535Y-76335120D01*
X209145120Y-76140535D01*
X209298005Y-75911727D01*
X209403314Y-75657490D01*
X209457000Y-75387592D01*
X209457000Y-75112408D01*
X209403314Y-74842510D01*
X209298005Y-74588273D01*
X209145120Y-74359465D01*
X208950535Y-74164880D01*
X208860000Y-74104386D01*
X208860000Y-73736022D01*
X216920251Y-73736022D01*
X216976379Y-74236412D01*
X217128631Y-74716370D01*
X217371207Y-75157615D01*
X217694869Y-75543340D01*
X218087287Y-75858852D01*
X218533515Y-76092134D01*
X219016556Y-76234301D01*
X219518012Y-76279937D01*
X220018781Y-76227304D01*
X220499790Y-76078407D01*
X220942718Y-75838917D01*
X221330693Y-75517956D01*
X221648937Y-75127750D01*
X221885329Y-74683162D01*
X222030864Y-74201125D01*
X222080000Y-73700000D01*
X222078994Y-73627962D01*
X222015885Y-73128405D01*
X221856947Y-72650619D01*
X221608234Y-72212805D01*
X221279218Y-71831637D01*
X220882433Y-71521634D01*
X220432991Y-71294605D01*
X219948012Y-71159196D01*
X219445969Y-71120566D01*
X218945983Y-71180186D01*
X218467099Y-71335784D01*
X218027559Y-71581435D01*
X217644103Y-71907781D01*
X217331338Y-72302393D01*
X217101177Y-72750239D01*
X216962386Y-73234261D01*
X216920251Y-73736022D01*
X208860000Y-73736022D01*
X208860000Y-73287333D01*
X208863677Y-73250000D01*
X208849003Y-73101014D01*
X208805546Y-72957753D01*
X208734974Y-72825724D01*
X208663799Y-72738997D01*
X208640001Y-72709999D01*
X208611004Y-72686202D01*
X205184801Y-69260000D01*
X211685199Y-69260000D01*
X213236205Y-70811008D01*
X213236205Y-70811008D01*
G37*
X213236205Y-70811008D02*
X213259999Y-70840001D01*
X213288992Y-70863795D01*
X213288996Y-70863799D01*
X213339866Y-70905546D01*
X213375724Y-70934974D01*
X213507753Y-71005546D01*
X213651014Y-71049003D01*
X213762667Y-71060000D01*
X213762676Y-71060000D01*
X213799999Y-71063676D01*
X213837322Y-71060000D01*
X222235198Y-71060000D01*
X222340000Y-71164802D01*
X222340001Y-72412668D01*
X222336324Y-72450000D01*
X222340001Y-72487333D01*
X222349322Y-72581964D01*
X222350998Y-72598985D01*
X222394454Y-72742246D01*
X222465026Y-72874276D01*
X222535169Y-72959744D01*
X222560000Y-72990001D01*
X222588998Y-73013799D01*
X223386201Y-73811003D01*
X223409999Y-73840001D01*
X223438997Y-73863799D01*
X223525724Y-73934974D01*
X223657753Y-74005546D01*
X223681166Y-74012648D01*
X223746063Y-74109774D01*
X223890226Y-74253937D01*
X224059744Y-74367205D01*
X224248102Y-74445226D01*
X224419168Y-74479253D01*
X222383422Y-76515000D01*
X208656556Y-76515000D01*
X208721727Y-76488005D01*
X208950535Y-76335120D01*
X209145120Y-76140535D01*
X209298005Y-75911727D01*
X209403314Y-75657490D01*
X209457000Y-75387592D01*
X209457000Y-75112408D01*
X209403314Y-74842510D01*
X209298005Y-74588273D01*
X209145120Y-74359465D01*
X208950535Y-74164880D01*
X208860000Y-74104386D01*
X208860000Y-73736022D01*
X216920251Y-73736022D01*
X216976379Y-74236412D01*
X217128631Y-74716370D01*
X217371207Y-75157615D01*
X217694869Y-75543340D01*
X218087287Y-75858852D01*
X218533515Y-76092134D01*
X219016556Y-76234301D01*
X219518012Y-76279937D01*
X220018781Y-76227304D01*
X220499790Y-76078407D01*
X220942718Y-75838917D01*
X221330693Y-75517956D01*
X221648937Y-75127750D01*
X221885329Y-74683162D01*
X222030864Y-74201125D01*
X222080000Y-73700000D01*
X222078994Y-73627962D01*
X222015885Y-73128405D01*
X221856947Y-72650619D01*
X221608234Y-72212805D01*
X221279218Y-71831637D01*
X220882433Y-71521634D01*
X220432991Y-71294605D01*
X219948012Y-71159196D01*
X219445969Y-71120566D01*
X218945983Y-71180186D01*
X218467099Y-71335784D01*
X218027559Y-71581435D01*
X217644103Y-71907781D01*
X217331338Y-72302393D01*
X217101177Y-72750239D01*
X216962386Y-73234261D01*
X216920251Y-73736022D01*
X208860000Y-73736022D01*
X208860000Y-73287333D01*
X208863677Y-73250000D01*
X208849003Y-73101014D01*
X208805546Y-72957753D01*
X208734974Y-72825724D01*
X208663799Y-72738997D01*
X208640001Y-72709999D01*
X208611004Y-72686202D01*
X205184801Y-69260000D01*
X211685199Y-69260000D01*
X213236205Y-70811008D01*
G36*
X192089003Y-62086196D02*
G01*
X192059999Y-62109999D01*
X192022620Y-62155546D01*
X191965026Y-62225724D01*
X191911575Y-62325724D01*
X191894454Y-62357754D01*
X191850997Y-62501015D01*
X191840000Y-62612668D01*
X191840000Y-62612678D01*
X191836324Y-62650000D01*
X191840000Y-62687323D01*
X191840001Y-66862668D01*
X191836324Y-66900000D01*
X191840001Y-66937333D01*
X191850998Y-67048986D01*
X191861915Y-67084974D01*
X191894454Y-67192246D01*
X191965026Y-67324276D01*
X192007249Y-67375724D01*
X192060000Y-67440001D01*
X192088998Y-67463799D01*
X195336200Y-70711002D01*
X195359999Y-70740001D01*
X195475724Y-70834974D01*
X195607753Y-70905546D01*
X195751014Y-70949003D01*
X195862667Y-70960000D01*
X195862675Y-70960000D01*
X195900000Y-70963676D01*
X195937325Y-70960000D01*
X203485199Y-70960000D01*
X204690000Y-72164803D01*
X204690001Y-74124431D01*
X204629465Y-74164880D01*
X204434880Y-74359465D01*
X204281995Y-74588273D01*
X204252308Y-74659943D01*
X204247636Y-74646977D01*
X204185656Y-74531020D01*
X203945565Y-74464040D01*
X203159605Y-75250000D01*
X203945565Y-76035960D01*
X204185656Y-75968980D01*
X204249485Y-75833240D01*
X204281995Y-75911727D01*
X204434880Y-76140535D01*
X204629465Y-76335120D01*
X204858273Y-76488005D01*
X204923444Y-76515000D01*
X203587955Y-76515000D01*
X203698980Y-76455656D01*
X203765960Y-76215565D01*
X202980000Y-75429605D01*
X202965858Y-75443748D01*
X202786253Y-75264143D01*
X202800395Y-75250000D01*
X202014435Y-74464040D01*
X201774344Y-74531020D01*
X201710515Y-74666760D01*
X201678005Y-74588273D01*
X201525120Y-74359465D01*
X201450090Y-74284435D01*
X202194040Y-74284435D01*
X202980000Y-75070395D01*
X203765960Y-74284435D01*
X203698980Y-74044344D01*
X203449952Y-73927244D01*
X203182865Y-73860977D01*
X202907983Y-73848090D01*
X202635867Y-73889078D01*
X202376977Y-73982364D01*
X202261020Y-74044344D01*
X202194040Y-74284435D01*
X201450090Y-74284435D01*
X201330535Y-74164880D01*
X201101727Y-74011995D01*
X200847490Y-73906686D01*
X200577592Y-73853000D01*
X200302408Y-73853000D01*
X200032510Y-73906686D01*
X199778273Y-74011995D01*
X199549465Y-74164880D01*
X199354880Y-74359465D01*
X199201995Y-74588273D01*
X199096686Y-74842510D01*
X199043000Y-75112408D01*
X199043000Y-75318198D01*
X191560000Y-67835199D01*
X191560000Y-62214801D01*
X192864802Y-60910000D01*
X193265198Y-60910000D01*
X192089003Y-62086196D01*
X192089003Y-62086196D01*
G37*
X192089003Y-62086196D02*
X192059999Y-62109999D01*
X192022620Y-62155546D01*
X191965026Y-62225724D01*
X191911575Y-62325724D01*
X191894454Y-62357754D01*
X191850997Y-62501015D01*
X191840000Y-62612668D01*
X191840000Y-62612678D01*
X191836324Y-62650000D01*
X191840000Y-62687323D01*
X191840001Y-66862668D01*
X191836324Y-66900000D01*
X191840001Y-66937333D01*
X191850998Y-67048986D01*
X191861915Y-67084974D01*
X191894454Y-67192246D01*
X191965026Y-67324276D01*
X192007249Y-67375724D01*
X192060000Y-67440001D01*
X192088998Y-67463799D01*
X195336200Y-70711002D01*
X195359999Y-70740001D01*
X195475724Y-70834974D01*
X195607753Y-70905546D01*
X195751014Y-70949003D01*
X195862667Y-70960000D01*
X195862675Y-70960000D01*
X195900000Y-70963676D01*
X195937325Y-70960000D01*
X203485199Y-70960000D01*
X204690000Y-72164803D01*
X204690001Y-74124431D01*
X204629465Y-74164880D01*
X204434880Y-74359465D01*
X204281995Y-74588273D01*
X204252308Y-74659943D01*
X204247636Y-74646977D01*
X204185656Y-74531020D01*
X203945565Y-74464040D01*
X203159605Y-75250000D01*
X203945565Y-76035960D01*
X204185656Y-75968980D01*
X204249485Y-75833240D01*
X204281995Y-75911727D01*
X204434880Y-76140535D01*
X204629465Y-76335120D01*
X204858273Y-76488005D01*
X204923444Y-76515000D01*
X203587955Y-76515000D01*
X203698980Y-76455656D01*
X203765960Y-76215565D01*
X202980000Y-75429605D01*
X202965858Y-75443748D01*
X202786253Y-75264143D01*
X202800395Y-75250000D01*
X202014435Y-74464040D01*
X201774344Y-74531020D01*
X201710515Y-74666760D01*
X201678005Y-74588273D01*
X201525120Y-74359465D01*
X201450090Y-74284435D01*
X202194040Y-74284435D01*
X202980000Y-75070395D01*
X203765960Y-74284435D01*
X203698980Y-74044344D01*
X203449952Y-73927244D01*
X203182865Y-73860977D01*
X202907983Y-73848090D01*
X202635867Y-73889078D01*
X202376977Y-73982364D01*
X202261020Y-74044344D01*
X202194040Y-74284435D01*
X201450090Y-74284435D01*
X201330535Y-74164880D01*
X201101727Y-74011995D01*
X200847490Y-73906686D01*
X200577592Y-73853000D01*
X200302408Y-73853000D01*
X200032510Y-73906686D01*
X199778273Y-74011995D01*
X199549465Y-74164880D01*
X199354880Y-74359465D01*
X199201995Y-74588273D01*
X199096686Y-74842510D01*
X199043000Y-75112408D01*
X199043000Y-75318198D01*
X191560000Y-67835199D01*
X191560000Y-62214801D01*
X192864802Y-60910000D01*
X193265198Y-60910000D01*
X192089003Y-62086196D01*
G36*
X213285276Y-64501013D02*
G01*
X213142068Y-64544454D01*
X213010039Y-64615026D01*
X212894314Y-64709999D01*
X212870516Y-64738998D01*
X212239002Y-65370512D01*
X212209999Y-65394314D01*
X212156092Y-65460000D01*
X212115026Y-65510039D01*
X212074972Y-65584974D01*
X212044454Y-65642069D01*
X212000997Y-65785330D01*
X211990000Y-65896983D01*
X211990000Y-65896993D01*
X211986324Y-65934315D01*
X211990000Y-65971638D01*
X211990001Y-67737309D01*
X211962678Y-67740000D01*
X196614802Y-67740000D01*
X194660000Y-65785199D01*
X194660000Y-64979444D01*
X194698102Y-64995226D01*
X194898061Y-65035000D01*
X195101939Y-65035000D01*
X195301898Y-64995226D01*
X195490256Y-64917205D01*
X195659774Y-64803937D01*
X195703711Y-64760000D01*
X200215198Y-64760000D01*
X200060199Y-64915000D01*
X199998061Y-64915000D01*
X199798102Y-64954774D01*
X199609744Y-65032795D01*
X199440226Y-65146063D01*
X199296063Y-65290226D01*
X199182795Y-65459744D01*
X199104774Y-65648102D01*
X199065000Y-65848061D01*
X199065000Y-66051939D01*
X199104774Y-66251898D01*
X199182795Y-66440256D01*
X199296063Y-66609774D01*
X199440226Y-66753937D01*
X199609744Y-66867205D01*
X199798102Y-66945226D01*
X199998061Y-66985000D01*
X200201939Y-66985000D01*
X200401898Y-66945226D01*
X200590256Y-66867205D01*
X200759774Y-66753937D01*
X200903937Y-66609774D01*
X201017205Y-66440256D01*
X201095226Y-66251898D01*
X201135000Y-66051939D01*
X201135000Y-65989801D01*
X201614802Y-65510000D01*
X211212678Y-65510000D01*
X211250000Y-65513676D01*
X211287322Y-65510000D01*
X211287333Y-65510000D01*
X211398986Y-65499003D01*
X211542247Y-65455546D01*
X211674276Y-65384974D01*
X211790001Y-65290001D01*
X211813804Y-65260998D01*
X212614802Y-64460000D01*
X213326289Y-64460000D01*
X213285276Y-64501013D01*
X213285276Y-64501013D01*
G37*
X213285276Y-64501013D02*
X213142068Y-64544454D01*
X213010039Y-64615026D01*
X212894314Y-64709999D01*
X212870516Y-64738998D01*
X212239002Y-65370512D01*
X212209999Y-65394314D01*
X212156092Y-65460000D01*
X212115026Y-65510039D01*
X212074972Y-65584974D01*
X212044454Y-65642069D01*
X212000997Y-65785330D01*
X211990000Y-65896983D01*
X211990000Y-65896993D01*
X211986324Y-65934315D01*
X211990000Y-65971638D01*
X211990001Y-67737309D01*
X211962678Y-67740000D01*
X196614802Y-67740000D01*
X194660000Y-65785199D01*
X194660000Y-64979444D01*
X194698102Y-64995226D01*
X194898061Y-65035000D01*
X195101939Y-65035000D01*
X195301898Y-64995226D01*
X195490256Y-64917205D01*
X195659774Y-64803937D01*
X195703711Y-64760000D01*
X200215198Y-64760000D01*
X200060199Y-64915000D01*
X199998061Y-64915000D01*
X199798102Y-64954774D01*
X199609744Y-65032795D01*
X199440226Y-65146063D01*
X199296063Y-65290226D01*
X199182795Y-65459744D01*
X199104774Y-65648102D01*
X199065000Y-65848061D01*
X199065000Y-66051939D01*
X199104774Y-66251898D01*
X199182795Y-66440256D01*
X199296063Y-66609774D01*
X199440226Y-66753937D01*
X199609744Y-66867205D01*
X199798102Y-66945226D01*
X199998061Y-66985000D01*
X200201939Y-66985000D01*
X200401898Y-66945226D01*
X200590256Y-66867205D01*
X200759774Y-66753937D01*
X200903937Y-66609774D01*
X201017205Y-66440256D01*
X201095226Y-66251898D01*
X201135000Y-66051939D01*
X201135000Y-65989801D01*
X201614802Y-65510000D01*
X211212678Y-65510000D01*
X211250000Y-65513676D01*
X211287322Y-65510000D01*
X211287333Y-65510000D01*
X211398986Y-65499003D01*
X211542247Y-65455546D01*
X211674276Y-65384974D01*
X211790001Y-65290001D01*
X211813804Y-65260998D01*
X212614802Y-64460000D01*
X213326289Y-64460000D01*
X213285276Y-64501013D01*
G36*
X195925724Y-59684974D02*
G01*
X196057753Y-59755546D01*
X196201014Y-59799003D01*
X196312667Y-59810000D01*
X196312676Y-59810000D01*
X196349999Y-59813676D01*
X196387322Y-59810000D01*
X208365199Y-59810000D01*
X207735199Y-60440000D01*
X195992360Y-60440000D01*
X196022340Y-60289279D01*
X196022340Y-60085401D01*
X195982566Y-59885442D01*
X195904545Y-59697084D01*
X195860915Y-59631786D01*
X195925724Y-59684974D01*
X195925724Y-59684974D01*
G37*
X195925724Y-59684974D02*
X196057753Y-59755546D01*
X196201014Y-59799003D01*
X196312667Y-59810000D01*
X196312676Y-59810000D01*
X196349999Y-59813676D01*
X196387322Y-59810000D01*
X208365199Y-59810000D01*
X207735199Y-60440000D01*
X195992360Y-60440000D01*
X196022340Y-60289279D01*
X196022340Y-60085401D01*
X195982566Y-59885442D01*
X195904545Y-59697084D01*
X195860915Y-59631786D01*
X195925724Y-59684974D01*
M02*
