G04 #@! TF.GenerationSoftware,KiCad,Pcbnew,(5.1.0)-1*
G04 #@! TF.CreationDate,2020-03-20T23:12:45+08:00*
G04 #@! TF.ProjectId,espcnc,65737063-6e63-42e6-9b69-6361645f7063,rev?*
G04 #@! TF.SameCoordinates,Original*
G04 #@! TF.FileFunction,Legend,Bot*
G04 #@! TF.FilePolarity,Positive*
%FSLAX46Y46*%
G04 Gerber Fmt 4.6, Leading zero omitted, Abs format (unit mm)*
G04 Created by KiCad (PCBNEW (5.1.0)-1) date 2020-03-20 23:12:45*
%MOMM*%
%LPD*%
G04 APERTURE LIST*
%ADD10C,0.120000*%
%ADD11C,0.150000*%
%ADD12R,2.102000X2.102000*%
%ADD13C,2.102000*%
%ADD14C,3.302000*%
%ADD15C,1.626000*%
%ADD16O,3.150000X1.952000*%
%ADD17C,1.602000*%
%ADD18R,1.902000X1.902000*%
%ADD19C,1.902000*%
%ADD20O,2.002000X1.302000*%
%ADD21C,1.552000*%
G04 APERTURE END LIST*
D10*
X178800000Y-62700000D02*
G75*
G03X178800000Y-62700000I-3000000J0D01*
G01*
X177800000Y-68600000D02*
X181900000Y-68600000D01*
X181900000Y-56800000D02*
X177800000Y-56800000D01*
X173800000Y-56800000D02*
X169700000Y-56800000D01*
X173800000Y-68600000D02*
X169700000Y-68600000D01*
X169700000Y-68600000D02*
X169700000Y-56800000D01*
X168300000Y-66500000D02*
X168000000Y-66800000D01*
X168000000Y-66800000D02*
X168600000Y-66800000D01*
X168600000Y-66800000D02*
X168300000Y-66500000D01*
X181900000Y-68600000D02*
X181900000Y-66200000D01*
X181900000Y-64000000D02*
X181900000Y-61400000D01*
X181900000Y-59200000D02*
X181900000Y-56800000D01*
X175800000Y-63200000D02*
X175800000Y-62200000D01*
X175300000Y-62700000D02*
X176300000Y-62700000D01*
X189500000Y-52650000D02*
X189500000Y-67350000D01*
X219000000Y-52650000D02*
X189500000Y-52650000D01*
X219000000Y-67350000D02*
X219000000Y-52650000D01*
X189500000Y-67350000D02*
X219000000Y-67350000D01*
X221112452Y-45150000D02*
G75*
G03X221112452Y-45150000I-1612452J0D01*
G01*
X190612452Y-45150000D02*
G75*
G03X190612452Y-45150000I-1612452J0D01*
G01*
X221112452Y-73750000D02*
G75*
G03X221112452Y-73750000I-1612452J0D01*
G01*
X190612452Y-73750000D02*
G75*
G03X190612452Y-73750000I-1612452J0D01*
G01*
X186500000Y-43150000D02*
X186500000Y-76750000D01*
X222000000Y-43150000D02*
X186500000Y-43150000D01*
X222000000Y-76750000D02*
X222000000Y-43150000D01*
X186500000Y-76750000D02*
X222000000Y-76750000D01*
X181900000Y-42450000D02*
X169600000Y-42450000D01*
X169600000Y-47030000D02*
X169600000Y-50170000D01*
X169600000Y-54750000D02*
X181900000Y-54750000D01*
X181900000Y-45170000D02*
X181900000Y-42450000D01*
X180229050Y-48640000D02*
G75*
G03X180229050Y-48640000I-4579050J0D01*
G01*
X181900000Y-54750000D02*
X181900000Y-52030000D01*
X181900000Y-50170000D02*
X181900000Y-47030000D01*
X169600000Y-52030000D02*
X169600000Y-54750000D01*
X169600000Y-42450000D02*
X169600000Y-45170000D01*
X253600000Y-47950000D02*
G75*
G03X253600000Y-47950000I-6100000J0D01*
G01*
X239710000Y-49240000D02*
X239710000Y-45820000D01*
X237190000Y-49240000D02*
X237190000Y-45820000D01*
X239710000Y-49240000D02*
X239530000Y-49240000D01*
X237370000Y-49240000D02*
X237190000Y-49240000D01*
X239710000Y-45820000D02*
X239545000Y-45820000D01*
X237355000Y-45820000D02*
X237190000Y-45820000D01*
X239710000Y-49120000D02*
X239530000Y-49120000D01*
X237370000Y-49120000D02*
X237190000Y-49120000D01*
X239710000Y-49000000D02*
X239530000Y-49000000D01*
X237370000Y-49000000D02*
X237190000Y-49000000D01*
D11*
X172433333Y-70304761D02*
X172290476Y-70352380D01*
X172052380Y-70352380D01*
X171957142Y-70304761D01*
X171909523Y-70257142D01*
X171861904Y-70161904D01*
X171861904Y-70066666D01*
X171909523Y-69971428D01*
X171957142Y-69923809D01*
X172052380Y-69876190D01*
X172242857Y-69828571D01*
X172338095Y-69780952D01*
X172385714Y-69733333D01*
X172433333Y-69638095D01*
X172433333Y-69542857D01*
X172385714Y-69447619D01*
X172338095Y-69400000D01*
X172242857Y-69352380D01*
X172004761Y-69352380D01*
X171861904Y-69400000D01*
X171528571Y-69352380D02*
X171290476Y-70352380D01*
X171100000Y-69638095D01*
X170909523Y-70352380D01*
X170671428Y-69352380D01*
X170338095Y-69447619D02*
X170290476Y-69400000D01*
X170195238Y-69352380D01*
X169957142Y-69352380D01*
X169861904Y-69400000D01*
X169814285Y-69447619D01*
X169766666Y-69542857D01*
X169766666Y-69638095D01*
X169814285Y-69780952D01*
X170385714Y-70352380D01*
X169766666Y-70352380D01*
X197961904Y-76152380D02*
X197961904Y-76961904D01*
X197914285Y-77057142D01*
X197866666Y-77104761D01*
X197771428Y-77152380D01*
X197580952Y-77152380D01*
X197485714Y-77104761D01*
X197438095Y-77057142D01*
X197390476Y-76961904D01*
X197390476Y-76152380D01*
X196961904Y-76247619D02*
X196914285Y-76200000D01*
X196819047Y-76152380D01*
X196580952Y-76152380D01*
X196485714Y-76200000D01*
X196438095Y-76247619D01*
X196390476Y-76342857D01*
X196390476Y-76438095D01*
X196438095Y-76580952D01*
X197009523Y-77152380D01*
X196390476Y-77152380D01*
X177253333Y-41844761D02*
X177110476Y-41892380D01*
X176872380Y-41892380D01*
X176777142Y-41844761D01*
X176729523Y-41797142D01*
X176681904Y-41701904D01*
X176681904Y-41606666D01*
X176729523Y-41511428D01*
X176777142Y-41463809D01*
X176872380Y-41416190D01*
X177062857Y-41368571D01*
X177158095Y-41320952D01*
X177205714Y-41273333D01*
X177253333Y-41178095D01*
X177253333Y-41082857D01*
X177205714Y-40987619D01*
X177158095Y-40940000D01*
X177062857Y-40892380D01*
X176824761Y-40892380D01*
X176681904Y-40940000D01*
X176348571Y-40892380D02*
X176110476Y-41892380D01*
X175920000Y-41178095D01*
X175729523Y-41892380D01*
X175491428Y-40892380D01*
X174586666Y-41892380D02*
X175158095Y-41892380D01*
X174872380Y-41892380D02*
X174872380Y-40892380D01*
X174967619Y-41035238D01*
X175062857Y-41130476D01*
X175158095Y-41178095D01*
X241028571Y-50619047D02*
X241076190Y-50761904D01*
X241123809Y-50809523D01*
X241219047Y-50857142D01*
X241361904Y-50857142D01*
X241457142Y-50809523D01*
X241504761Y-50761904D01*
X241552380Y-50666666D01*
X241552380Y-50285714D01*
X240552380Y-50285714D01*
X240552380Y-50619047D01*
X240600000Y-50714285D01*
X240647619Y-50761904D01*
X240742857Y-50809523D01*
X240838095Y-50809523D01*
X240933333Y-50761904D01*
X240980952Y-50714285D01*
X241028571Y-50619047D01*
X241028571Y-50285714D01*
X240552380Y-51190476D02*
X240552380Y-51857142D01*
X241552380Y-51190476D01*
X241552380Y-51857142D01*
X241552380Y-52761904D02*
X241552380Y-52190476D01*
X241552380Y-52476190D02*
X240552380Y-52476190D01*
X240695238Y-52380952D01*
X240790476Y-52285714D01*
X240838095Y-52190476D01*
X250111428Y-51379047D02*
X250111428Y-52140952D01*
X250492380Y-51760000D02*
X249730476Y-51760000D01*
X237052380Y-47061904D02*
X236052380Y-47061904D01*
X236052380Y-47300000D01*
X236100000Y-47442857D01*
X236195238Y-47538095D01*
X236290476Y-47585714D01*
X236480952Y-47633333D01*
X236623809Y-47633333D01*
X236814285Y-47585714D01*
X236909523Y-47538095D01*
X237004761Y-47442857D01*
X237052380Y-47300000D01*
X237052380Y-47061904D01*
X237052380Y-48585714D02*
X237052380Y-48014285D01*
X237052380Y-48300000D02*
X236052380Y-48300000D01*
X236195238Y-48204761D01*
X236290476Y-48109523D01*
X236338095Y-48014285D01*
%LPC*%
D12*
X168300000Y-65200000D03*
D13*
X168300000Y-62700000D03*
X168300000Y-60200000D03*
D14*
X175800000Y-68300000D03*
X175800000Y-57100000D03*
D13*
X182800000Y-65200000D03*
X182800000Y-60200000D03*
D15*
X208060000Y-75250000D03*
X205520000Y-75250000D03*
X202980000Y-75250000D03*
X200440000Y-75250000D03*
D16*
X169500000Y-46100000D03*
X169500000Y-51100000D03*
X182000000Y-46100000D03*
X182000000Y-51100000D03*
D17*
X249027000Y-58330000D03*
X249027000Y-82530000D03*
D12*
X247500000Y-51750000D03*
D13*
X247500000Y-44150000D03*
D18*
X238450000Y-48800000D03*
D19*
X238450000Y-46260000D03*
D20*
X167462500Y-83000000D03*
X167462500Y-76000000D03*
D21*
X170162500Y-82000000D03*
X170162500Y-77000000D03*
M02*
