M48
; DRILL file {KiCad (5.1.0)-1} date 2020/3/21 0:26:58
; FORMAT={-:-/ absolute / metric / decimal}
; #@! TF.CreationDate,2020-03-21T00:26:58+08:00
; #@! TF.GenerationSoftware,Kicad,Pcbnew,(5.1.0)-1
; #@! TF.FileFunction,Plated,1,2,PTH
FMAT,2
METRIC
T1C0.400
T2C0.600
T3C0.762
T4C0.850
T5C0.900
T6C1.000
T7C1.300
T8C2.600
%
G90
G05
T1
X168.0Y-43.0
X173.0Y-48.0
X174.0Y-53.0
X180.5Y-76.8
X182.7Y-56.2
X183.9Y-76.7
X184.0Y-69.0
X186.0Y-45.0
X189.45Y-57.9
X189.45Y-59.6
X189.5Y-63.0
X191.0Y-80.0
X194.036Y-81.952
X194.987Y-60.187
X195.0Y-58.95
X195.0Y-62.75
X195.0Y-64.0
X195.5Y-50.0
X195.7Y-65.3
X196.1Y-56.35
X196.1Y-57.65
X198.575Y-80.875
X198.785Y-65.5
X199.0Y-53.0
X199.6Y-80.9
X200.0Y-48.0
X200.1Y-65.95
X201.0Y-62.9
X202.3Y-53.3
X202.3Y-55.3
X202.3Y-57.2
X203.85Y-79.15
X204.3Y-53.3
X204.3Y-55.3
X204.3Y-57.2
X204.85Y-79.15
X205.0Y-60.0
X205.8Y-67.6
X206.0Y-53.3
X206.0Y-55.3
X206.0Y-57.2
X209.8Y-70.3
X209.85Y-51.45
X213.75Y-48.8
X213.8Y-50.04
X213.8Y-53.85
X214.0Y-62.75
X214.0Y-65.25
X214.05Y-66.55
X214.636Y-81.952
X215.85Y-55.8
X216.0Y-43.0
X219.9Y-55.95
X221.0Y-81.0
X222.7Y-74.6
X224.2Y-51.5
X224.3Y-44.4
X224.4Y-71.1
X224.5Y-78.45
X224.527Y-61.05
X224.527Y-63.55
X224.527Y-66.05
X224.55Y-73.45
X224.575Y-80.175
X228.65Y-53.1
X229.0Y-59.0
X232.0Y-47.0
X234.9Y-53.1
X235.0Y-46.75
X235.0Y-48.0
X239.0Y-62.0
X239.0Y-73.0
X246.775Y-47.0
X247.0Y-62.0
X247.0Y-67.0
X247.8Y-77.2
X250.8Y-79.3
T3
X200.44Y-75.25
X202.98Y-75.25
X205.52Y-75.25
X208.06Y-75.25
T4
X170.162Y-77.0
X170.162Y-82.0
T5
X238.45Y-46.26
X238.45Y-48.8
T6
X247.5Y-44.15
X247.5Y-51.75
X168.3Y-60.2
X168.3Y-62.7
X168.3Y-65.2
X182.8Y-60.2
X182.8Y-65.2
T7
X169.5Y-46.1
X169.5Y-51.1
X182.0Y-46.1
X182.0Y-51.1
T8
X175.8Y-57.1
X175.8Y-68.3
T2
G00X167.112Y-76.0
M15
G01X167.812Y-76.0
M16
G05
G00X167.812Y-83.0
M15
G01X167.112Y-83.0
M16
G05
T0
M30
