M48
; DRILL file {KiCad (5.1.0)-1} date 2020/3/21 7:43:02
; FORMAT={-:-/ absolute / metric / decimal}
; #@! TF.CreationDate,2020-03-21T07:43:02+08:00
; #@! TF.GenerationSoftware,Kicad,Pcbnew,(5.1.0)-1
; #@! TF.FileFunction,Plated,1,2,PTH
FMAT,2
METRIC
T1C0.400
T2C0.600
T3C0.762
T4C0.850
T5C0.900
T6C1.000
T7C1.300
T8C2.600
%
G90
G05
T1
X3.0Y-3.0
X8.0Y-8.0
X9.0Y-13.0
X15.5Y-36.8
X17.7Y-16.2
X18.9Y-36.7
X19.0Y-29.0
X21.0Y-5.0
X24.45Y-17.9
X24.45Y-19.6
X24.5Y-23.0
X26.0Y-40.0
X29.036Y-41.952
X29.987Y-20.187
X30.0Y-18.95
X30.0Y-22.75
X30.0Y-24.0
X30.5Y-10.0
X30.7Y-25.3
X31.1Y-16.35
X31.1Y-17.65
X33.575Y-40.875
X33.785Y-25.5
X34.0Y-13.0
X34.6Y-40.9
X35.0Y-8.0
X35.1Y-25.95
X36.0Y-22.9
X37.3Y-13.3
X37.3Y-15.3
X37.3Y-17.2
X38.85Y-39.15
X39.3Y-13.3
X39.3Y-15.3
X39.3Y-17.2
X39.85Y-39.15
X40.0Y-20.0
X40.8Y-27.6
X41.0Y-13.3
X41.0Y-15.3
X41.0Y-17.2
X44.8Y-30.3
X44.85Y-11.45
X48.75Y-8.8
X48.8Y-10.04
X48.8Y-13.85
X49.0Y-22.75
X49.0Y-25.25
X49.05Y-26.55
X49.636Y-41.952
X50.85Y-15.8
X51.0Y-3.0
X54.9Y-15.95
X56.0Y-41.0
X57.7Y-34.6
X59.2Y-11.5
X59.3Y-4.4
X59.4Y-31.1
X59.5Y-38.45
X59.527Y-21.05
X59.527Y-23.55
X59.527Y-26.05
X59.55Y-33.45
X59.575Y-40.175
X63.65Y-13.1
X64.0Y-19.0
X67.0Y-7.0
X69.9Y-13.1
X70.0Y-6.75
X70.0Y-8.0
X74.0Y-22.0
X74.0Y-33.0
X81.775Y-7.0
X82.0Y-22.0
X82.0Y-27.0
X82.8Y-37.2
X85.8Y-39.3
T3
X35.44Y-35.25
X37.98Y-35.25
X40.52Y-35.25
X43.06Y-35.25
T4
X5.162Y-37.0
X5.162Y-42.0
T5
X73.45Y-6.26
X73.45Y-8.8
T6
X3.3Y-20.2
X3.3Y-22.7
X3.3Y-25.2
X17.8Y-20.2
X17.8Y-25.2
X82.5Y-4.15
X82.5Y-11.75
T7
X4.5Y-6.1
X4.5Y-11.1
X17.0Y-6.1
X17.0Y-11.1
T8
X10.8Y-17.1
X10.8Y-28.3
T2
G00X2.112Y-36.0
M15
G01X2.812Y-36.0
M16
G05
G00X2.812Y-43.0
M15
G01X2.112Y-43.0
M16
G05
T0
M30
