G04 #@! TF.GenerationSoftware,KiCad,Pcbnew,(5.1.0)-1*
G04 #@! TF.CreationDate,2020-03-21T07:42:55+08:00*
G04 #@! TF.ProjectId,espcnc,65737063-6e63-42e6-9b69-6361645f7063,rev?*
G04 #@! TF.SameCoordinates,PX9d5b340PY2625a00*
G04 #@! TF.FileFunction,Copper,L2,Bot*
G04 #@! TF.FilePolarity,Positive*
%FSLAX46Y46*%
G04 Gerber Fmt 4.6, Leading zero omitted, Abs format (unit mm)*
G04 Created by KiCad (PCBNEW (5.1.0)-1) date 2020-03-21 07:42:55*
%MOMM*%
%LPD*%
G04 APERTURE LIST*
%ADD10C,0.300000*%
%ADD11R,2.000000X2.000000*%
%ADD12C,2.000000*%
%ADD13C,3.200000*%
%ADD14C,1.524000*%
%ADD15O,3.048000X1.850000*%
%ADD16R,1.800000X1.800000*%
%ADD17C,1.800000*%
%ADD18O,1.900000X1.200000*%
%ADD19C,1.450000*%
%ADD20C,0.800000*%
%ADD21C,0.500000*%
%ADD22C,0.250000*%
%ADD23C,0.254000*%
G04 APERTURE END LIST*
D10*
X88542857Y-35800000D02*
X88542857Y-35133333D01*
X87495238Y-34847619D02*
X87495238Y-35800000D01*
X89495238Y-35800000D01*
X89495238Y-34847619D01*
X87590476Y-34085714D02*
X87495238Y-33800000D01*
X87495238Y-33323809D01*
X87590476Y-33133333D01*
X87685714Y-33038095D01*
X87876190Y-32942857D01*
X88066666Y-32942857D01*
X88257142Y-33038095D01*
X88352380Y-33133333D01*
X88447619Y-33323809D01*
X88542857Y-33704761D01*
X88638095Y-33895238D01*
X88733333Y-33990476D01*
X88923809Y-34085714D01*
X89114285Y-34085714D01*
X89304761Y-33990476D01*
X89400000Y-33895238D01*
X89495238Y-33704761D01*
X89495238Y-33228571D01*
X89400000Y-32942857D01*
X87495238Y-32085714D02*
X89495238Y-32085714D01*
X89495238Y-31323809D01*
X89400000Y-31133333D01*
X89304761Y-31038095D01*
X89114285Y-30942857D01*
X88828571Y-30942857D01*
X88638095Y-31038095D01*
X88542857Y-31133333D01*
X88447619Y-31323809D01*
X88447619Y-32085714D01*
X87685714Y-28942857D02*
X87590476Y-29038095D01*
X87495238Y-29323809D01*
X87495238Y-29514285D01*
X87590476Y-29800000D01*
X87780952Y-29990476D01*
X87971428Y-30085714D01*
X88352380Y-30180952D01*
X88638095Y-30180952D01*
X89019047Y-30085714D01*
X89209523Y-29990476D01*
X89400000Y-29800000D01*
X89495238Y-29514285D01*
X89495238Y-29323809D01*
X89400000Y-29038095D01*
X89304761Y-28942857D01*
X87495238Y-28085714D02*
X89495238Y-28085714D01*
X87495238Y-26942857D01*
X89495238Y-26942857D01*
X87685714Y-24847619D02*
X87590476Y-24942857D01*
X87495238Y-25228571D01*
X87495238Y-25419047D01*
X87590476Y-25704761D01*
X87780952Y-25895238D01*
X87971428Y-25990476D01*
X88352380Y-26085714D01*
X88638095Y-26085714D01*
X89019047Y-25990476D01*
X89209523Y-25895238D01*
X89400000Y-25704761D01*
X89495238Y-25419047D01*
X89495238Y-25228571D01*
X89400000Y-24942857D01*
X89304761Y-24847619D01*
X89495238Y-22752380D02*
X87495238Y-22085714D01*
X89495238Y-21419047D01*
X87495238Y-19704761D02*
X87495238Y-20847619D01*
X87495238Y-20276190D02*
X89495238Y-20276190D01*
X89209523Y-20466666D01*
X89019047Y-20657142D01*
X88923809Y-20847619D01*
D11*
X3300000Y-25200000D03*
D12*
X3300000Y-22700000D03*
X3300000Y-20200000D03*
D13*
X10800000Y-28300000D03*
X10800000Y-17100000D03*
D12*
X17800000Y-25200000D03*
X17800000Y-20200000D03*
D14*
X43060000Y-35250000D03*
X40520000Y-35250000D03*
X37980000Y-35250000D03*
X35440000Y-35250000D03*
D15*
X4500000Y-6100000D03*
X4500000Y-11100000D03*
X17000000Y-6100000D03*
X17000000Y-11100000D03*
D11*
X82500000Y-11750000D03*
D12*
X82500000Y-4150000D03*
D16*
X73450000Y-8800000D03*
D17*
X73450000Y-6260000D03*
D18*
X2462500Y-43000000D03*
X2462500Y-36000000D03*
D19*
X5162500Y-42000000D03*
X5162500Y-37000000D03*
D20*
X63650000Y-13100000D03*
X54900000Y-15950000D03*
X59400000Y-31100000D03*
X17700000Y-16200000D03*
X39300000Y-15300000D03*
X37300000Y-15300000D03*
X41000000Y-15300000D03*
X41000000Y-17200000D03*
X37300000Y-17200000D03*
X39300000Y-17200000D03*
X39300000Y-13300000D03*
X41000000Y-13300000D03*
X37300000Y-13300000D03*
X33575000Y-40875000D03*
X34600000Y-40900000D03*
X29036000Y-41952000D03*
X49636000Y-41952000D03*
X24450000Y-17900000D03*
X24450000Y-19600000D03*
X24500000Y-23000000D03*
X81775000Y-7000000D03*
X69900000Y-13100000D03*
X82000000Y-22000000D03*
X82000000Y-27000000D03*
X82800000Y-37200000D03*
X85800000Y-39300000D03*
X74000000Y-22000000D03*
X74000000Y-33000000D03*
X51000000Y-3000000D03*
X67000000Y-7000000D03*
X64000000Y-19000000D03*
X34000000Y-13000000D03*
X35000000Y-8000000D03*
X56000000Y-41000000D03*
X9000000Y-13000000D03*
X19000000Y-29000000D03*
X26000000Y-40000000D03*
X3000000Y-3000000D03*
X8000000Y-8000000D03*
X21000000Y-5000000D03*
X40000000Y-20000000D03*
X57700000Y-34600000D03*
X44800000Y-30300000D03*
X36000000Y-22900000D03*
X40800000Y-27600000D03*
X33785000Y-25500000D03*
X30700000Y-25300000D03*
X59200000Y-11500000D03*
X30500000Y-10000000D03*
X70000000Y-6750000D03*
X15500000Y-36800000D03*
X70000000Y-8000000D03*
X18900000Y-36700000D03*
X59527000Y-23550000D03*
X35100000Y-25950000D03*
X49000000Y-22750000D03*
X59575000Y-40175000D03*
X30000000Y-24000000D03*
X59527000Y-21050000D03*
X59550000Y-33450000D03*
X30000000Y-22750000D03*
X59527000Y-26050000D03*
X49050000Y-26550000D03*
X59500000Y-38450000D03*
X49000000Y-25250000D03*
X38850000Y-39150000D03*
X30000000Y-18950000D03*
X39850000Y-39150000D03*
X29987340Y-20187340D03*
X44850000Y-11450000D03*
X59300000Y-4400000D03*
X48800000Y-10040000D03*
X48800000Y-13850000D03*
X48750000Y-8800000D03*
X50850000Y-15800000D03*
X31100000Y-16350000D03*
X31100000Y-17650000D03*
D21*
X55465685Y-15950000D02*
X54900000Y-15950000D01*
X62500000Y-13100000D02*
X59650000Y-15950000D01*
X63650000Y-13100000D02*
X62500000Y-13100000D01*
X35350000Y-35250000D02*
X37500000Y-37400000D01*
X35440000Y-35250000D02*
X35350000Y-35250000D01*
X37500000Y-37400000D02*
X40900000Y-37400000D01*
X41200000Y-37700000D02*
X40900000Y-37400000D01*
X41200000Y-39550000D02*
X41200000Y-37700000D01*
X40650000Y-40100000D02*
X41200000Y-39550000D01*
X20350000Y-36200000D02*
X20600000Y-36450000D01*
X20350000Y-35450000D02*
X20350000Y-36200000D01*
X35550000Y-40150000D02*
X40600000Y-40150000D01*
X33000000Y-37600000D02*
X35550000Y-40150000D01*
X20500000Y-36350000D02*
X21750000Y-37600000D01*
X21750000Y-37600000D02*
X33000000Y-37600000D01*
X13950000Y-28950000D02*
X20350000Y-35350000D01*
X13950000Y-20515685D02*
X13950000Y-28950000D01*
X17700000Y-16200000D02*
X17700000Y-16765685D01*
X17700000Y-16765685D02*
X13950000Y-20515685D01*
X59650000Y-15950000D02*
X55465685Y-15950000D01*
X57750000Y-37400000D02*
X61250000Y-33900000D01*
X40900000Y-37400000D02*
X57750000Y-37400000D01*
X61250000Y-33900000D02*
X61250000Y-32100000D01*
X61250000Y-32100000D02*
X60250000Y-31100000D01*
X60250000Y-31100000D02*
X59400000Y-31100000D01*
X32498000Y-41952000D02*
X33575000Y-40875000D01*
X29036000Y-41952000D02*
X32498000Y-41952000D01*
X34575000Y-40875000D02*
X34600000Y-40900000D01*
X33575000Y-40875000D02*
X34575000Y-40875000D01*
X35652000Y-41952000D02*
X34600000Y-40900000D01*
X49636000Y-41952000D02*
X35652000Y-41952000D01*
X37980000Y-35250000D02*
X37980000Y-34830000D01*
X24450000Y-22950000D02*
X24500000Y-23000000D01*
X24450000Y-17900000D02*
X24450000Y-22950000D01*
X4500000Y-11100000D02*
X4550000Y-11050000D01*
X4550000Y-11050000D02*
X4650000Y-11150000D01*
X4650000Y-11150000D02*
X16900000Y-11150000D01*
X75300000Y-7050000D02*
X73600000Y-8750000D01*
X81775000Y-7000000D02*
X81725000Y-7050000D01*
X81725000Y-7050000D02*
X75300000Y-7050000D01*
X81775000Y-7025000D02*
X81775000Y-7000000D01*
X76099999Y-12700001D02*
X81775000Y-7025000D01*
X69900000Y-13100000D02*
X70299999Y-12700001D01*
X70299999Y-12700001D02*
X76099999Y-12700001D01*
X37980000Y-34830000D02*
X34400000Y-31250000D01*
X34400000Y-31250000D02*
X30750000Y-31250000D01*
X30750000Y-31250000D02*
X26750000Y-27250000D01*
X26750000Y-27250000D02*
X26750000Y-22186814D01*
X26750000Y-22186814D02*
X27893407Y-21043407D01*
X26750000Y-22186814D02*
X27024992Y-21911822D01*
X37300000Y-13300000D02*
X39300000Y-13300000D01*
X39300000Y-13300000D02*
X41000000Y-13300000D01*
X37300000Y-13300000D02*
X37300000Y-17200000D01*
X37300000Y-17200000D02*
X41000000Y-17200000D01*
X41000000Y-17200000D02*
X41000000Y-13300000D01*
X41000000Y-15300000D02*
X37300000Y-15300000D01*
X31450000Y-15300000D02*
X37300000Y-15300000D01*
X17000000Y-11100000D02*
X27250000Y-11100000D01*
X27250000Y-11100000D02*
X31450000Y-15300000D01*
D22*
X57500000Y-9800000D02*
X59200000Y-11500000D01*
X53300000Y-9800000D02*
X57500000Y-9800000D01*
X50350000Y-6850000D02*
X53300000Y-9800000D01*
X46150000Y-6850000D02*
X50350000Y-6850000D01*
X30500000Y-10000000D02*
X43000000Y-10000000D01*
X43000000Y-10000000D02*
X46150000Y-6850000D01*
X29250000Y-8750000D02*
X30500000Y-10000000D01*
X17000000Y-6100000D02*
X19650000Y-8750000D01*
X19650000Y-8750000D02*
X29250000Y-8750000D01*
X4500000Y-6100000D02*
X17050000Y-6100000D01*
X70250000Y-6750000D02*
X70000000Y-6750000D01*
X70850000Y-7350000D02*
X70250000Y-6750000D01*
X70850000Y-8300000D02*
X70850000Y-7350000D01*
X68050000Y-11100000D02*
X70850000Y-8300000D01*
X16650000Y-36800000D02*
X18250000Y-38400000D01*
X68050000Y-34700000D02*
X68050000Y-11100000D01*
X15500000Y-36800000D02*
X16650000Y-36800000D01*
X18250000Y-38400000D02*
X19750000Y-38400000D01*
X19750000Y-38400000D02*
X24800000Y-43450000D01*
X24800000Y-43450000D02*
X59300000Y-43450000D01*
X59300000Y-43450000D02*
X68050000Y-34700000D01*
X70000000Y-8300000D02*
X70000000Y-8000000D01*
X67500000Y-10800000D02*
X70000000Y-8300000D01*
X67500000Y-34600000D02*
X67500000Y-10800000D01*
X59150000Y-42950000D02*
X67500000Y-34600000D01*
X18900000Y-36700000D02*
X25150000Y-42950000D01*
X25150000Y-42950000D02*
X59150000Y-42950000D01*
X59377000Y-23700000D02*
X59527000Y-23550000D01*
X47300000Y-23700000D02*
X59377000Y-23700000D01*
X46250000Y-24750000D02*
X47300000Y-23700000D01*
X35100000Y-25950000D02*
X36300000Y-24750000D01*
X36300000Y-24750000D02*
X46250000Y-24750000D01*
X60275000Y-40175000D02*
X59575000Y-40175000D01*
X63900000Y-36550000D02*
X60275000Y-40175000D01*
X63900000Y-26300000D02*
X63900000Y-36550000D01*
X49000000Y-22750000D02*
X60350000Y-22750000D01*
X60350000Y-22750000D02*
X63900000Y-26300000D01*
X48800000Y-21050000D02*
X59527000Y-21050000D01*
X30000000Y-24000000D02*
X45850000Y-24000000D01*
X45850000Y-24000000D02*
X48800000Y-21050000D01*
X58950000Y-33300000D02*
X59600000Y-33300000D01*
X58100000Y-32450000D02*
X58950000Y-33300000D01*
X58100000Y-30850000D02*
X58100000Y-32450000D01*
X57550000Y-30300000D02*
X58100000Y-30850000D01*
X48800000Y-30300000D02*
X57550000Y-30300000D01*
X29400000Y-22750000D02*
X28900000Y-23250000D01*
X28900000Y-23250000D02*
X28900000Y-26100000D01*
X28900000Y-26100000D02*
X31300000Y-28500000D01*
X30000000Y-22750000D02*
X29400000Y-22750000D01*
X31300000Y-28500000D02*
X47000000Y-28500000D01*
X47000000Y-28500000D02*
X48800000Y-30300000D01*
X58550000Y-26500000D02*
X59000000Y-26050000D01*
X58550000Y-27900000D02*
X58550000Y-26500000D01*
X57200000Y-28500000D02*
X57950000Y-28500000D01*
X56750000Y-25000000D02*
X56750000Y-28050000D01*
X56350000Y-24600000D02*
X56750000Y-25000000D01*
X55350000Y-24950000D02*
X55700000Y-24600000D01*
X55350000Y-28700000D02*
X55350000Y-24950000D01*
X51150000Y-24650000D02*
X51450000Y-24950000D01*
X55700000Y-24600000D02*
X56350000Y-24600000D01*
X50650000Y-24650000D02*
X51150000Y-24650000D01*
X52250000Y-28950000D02*
X52600000Y-28600000D01*
X50350000Y-24950000D02*
X50650000Y-24650000D01*
X57950000Y-28500000D02*
X58550000Y-27900000D01*
X50350000Y-25815685D02*
X50350000Y-24950000D01*
X49050000Y-26550000D02*
X49615685Y-26550000D01*
X55050000Y-29000000D02*
X55350000Y-28700000D01*
X53850000Y-28700000D02*
X54150000Y-29000000D01*
X54150000Y-29000000D02*
X55050000Y-29000000D01*
X49615685Y-26550000D02*
X50350000Y-25815685D01*
X51450000Y-24950000D02*
X51450000Y-28600000D01*
X51450000Y-28600000D02*
X51800000Y-28950000D01*
X59000000Y-26050000D02*
X59527000Y-26050000D01*
X53850000Y-25000000D02*
X53850000Y-28700000D01*
X51800000Y-28950000D02*
X52250000Y-28950000D01*
X52600000Y-28600000D02*
X52600000Y-25050000D01*
X56750000Y-28050000D02*
X57200000Y-28500000D01*
X52600000Y-25050000D02*
X52950000Y-24700000D01*
X52950000Y-24700000D02*
X53550000Y-24700000D01*
X53550000Y-24700000D02*
X53850000Y-25000000D01*
X58750000Y-29650000D02*
X60650000Y-27750000D01*
X49600000Y-29650000D02*
X58750000Y-29650000D01*
X47750000Y-27800000D02*
X49600000Y-29650000D01*
X47750000Y-25934315D02*
X47750000Y-27800000D01*
X48434315Y-25250000D02*
X47750000Y-25934315D01*
X60650000Y-27750000D02*
X62400000Y-27750000D01*
X49000000Y-25250000D02*
X48434315Y-25250000D01*
X62400000Y-27750000D02*
X62950000Y-28300000D01*
X62950000Y-28300000D02*
X62950000Y-29950000D01*
X62950000Y-29800000D02*
X62950000Y-35500000D01*
X62950000Y-35500000D02*
X60000000Y-38450000D01*
X59500000Y-38450000D02*
X60000000Y-38450000D01*
X38850000Y-39100000D02*
X38850000Y-39150000D01*
X30000000Y-18950000D02*
X27800000Y-18950000D01*
X25300000Y-28500000D02*
X35950000Y-39150000D01*
X25300000Y-21450000D02*
X25300000Y-28500000D01*
X35950000Y-39150000D02*
X38800000Y-39150000D01*
X27800000Y-18950000D02*
X25300000Y-21450000D01*
X38800000Y-39150000D02*
X38850000Y-39100000D01*
X27550000Y-20150000D02*
X29950000Y-20150000D01*
X29950000Y-20150000D02*
X29987340Y-20187340D01*
X39850000Y-39150000D02*
X39850000Y-38584315D01*
X39850000Y-38584315D02*
X39615685Y-38350000D01*
X39615685Y-38350000D02*
X36000000Y-38350000D01*
X36000000Y-38350000D02*
X25800000Y-28150000D01*
X25800000Y-28150000D02*
X25800000Y-21900000D01*
X25800000Y-21900000D02*
X27550000Y-20150000D01*
X61450000Y-6550000D02*
X59300000Y-4400000D01*
X61450000Y-11800000D02*
X61450000Y-6550000D01*
X44850000Y-9500000D02*
X46700000Y-7650000D01*
X46700000Y-7650000D02*
X49650000Y-7650000D01*
X49650000Y-7650000D02*
X55700000Y-13700000D01*
X55700000Y-13700000D02*
X59550000Y-13700000D01*
X44850000Y-11450000D02*
X44850000Y-9500000D01*
X59550000Y-13700000D02*
X61450000Y-11800000D01*
X44400000Y-11900000D02*
X44850000Y-11450000D01*
X43450000Y-19050000D02*
X44400000Y-18100000D01*
X44400000Y-18100000D02*
X44400000Y-11900000D01*
X31350000Y-19050000D02*
X43450000Y-19050000D01*
X17750000Y-23050000D02*
X20750000Y-20050000D01*
X17750000Y-25250000D02*
X17750000Y-23050000D01*
X20750000Y-20050000D02*
X20750000Y-16250000D01*
X20750000Y-16250000D02*
X21950000Y-15050000D01*
X21950000Y-15050000D02*
X27350000Y-15050000D01*
X27350000Y-15050000D02*
X31350000Y-19050000D01*
X59300000Y-4400000D02*
X59300000Y-4400000D01*
X40450000Y-34550000D02*
X40450000Y-35350000D01*
X40450000Y-31850000D02*
X40450000Y-35200000D01*
X38800000Y-30200000D02*
X40450000Y-31850000D01*
X30900000Y-30200000D02*
X38800000Y-30200000D01*
X27600000Y-26900000D02*
X30900000Y-30200000D01*
X27600000Y-22650000D02*
X27600000Y-26900000D01*
X48060000Y-10040000D02*
X45250000Y-12850000D01*
X48800000Y-10040000D02*
X48060000Y-10040000D01*
X45250000Y-12850000D02*
X45250000Y-19000000D01*
X45250000Y-19000000D02*
X43050000Y-21200000D01*
X43050000Y-21200000D02*
X29050000Y-21200000D01*
X29050000Y-21200000D02*
X27600000Y-22650000D01*
X39300000Y-29450000D02*
X43100000Y-33250000D01*
X31200000Y-29450000D02*
X39300000Y-29450000D01*
X28200000Y-22950000D02*
X28200000Y-26450000D01*
X48234315Y-13850000D02*
X46200000Y-15884315D01*
X48800000Y-13850000D02*
X48234315Y-13850000D01*
X43100000Y-33250000D02*
X43100000Y-35200000D01*
X46200000Y-15884315D02*
X46200000Y-19000000D01*
X46200000Y-19000000D02*
X43450000Y-21750000D01*
X43450000Y-21750000D02*
X29400000Y-21750000D01*
X28200000Y-26450000D02*
X31200000Y-29450000D01*
X29400000Y-21750000D02*
X28200000Y-22950000D01*
X49600000Y-8750000D02*
X48600000Y-8750000D01*
X50850000Y-15800000D02*
X50850000Y-10000000D01*
X50850000Y-10000000D02*
X49600000Y-8750000D01*
X28100000Y-13350000D02*
X31100000Y-16350000D01*
X16500000Y-13350000D02*
X28100000Y-13350000D01*
X14550000Y-15300000D02*
X16500000Y-13350000D01*
X14550000Y-18000000D02*
X14550000Y-15300000D01*
X3250000Y-20250000D02*
X12300000Y-20250000D01*
X12300000Y-20250000D02*
X14550000Y-18000000D01*
X4500000Y-25250000D02*
X3250000Y-25250000D01*
X5550000Y-24200000D02*
X4500000Y-25250000D01*
X5550000Y-21700000D02*
X5550000Y-24200000D01*
X6549990Y-20700010D02*
X5550000Y-21700000D01*
X31100000Y-17650000D02*
X27350000Y-13900000D01*
X16800000Y-13900000D02*
X15250000Y-15450000D01*
X15250000Y-15450000D02*
X15250000Y-17950000D01*
X15250000Y-17950000D02*
X12499990Y-20700010D01*
X27350000Y-13900000D02*
X16800000Y-13900000D01*
X12499990Y-20700010D02*
X6549990Y-20700010D01*
D23*
G36*
X30073000Y-6100000D02*
G01*
X30075440Y-6124776D01*
X30082667Y-6148601D01*
X30094403Y-6170557D01*
X30110197Y-6189803D01*
X30129443Y-6205597D01*
X30151399Y-6217333D01*
X30175224Y-6224560D01*
X30200000Y-6227000D01*
X45711134Y-6227000D01*
X45609999Y-6309999D01*
X45586201Y-6338997D01*
X42685199Y-9240000D01*
X31203711Y-9240000D01*
X31159774Y-9196063D01*
X30990256Y-9082795D01*
X30801898Y-9004774D01*
X30601939Y-8965000D01*
X30539802Y-8965000D01*
X29813804Y-8239003D01*
X29790001Y-8209999D01*
X29674276Y-8115026D01*
X29542247Y-8044454D01*
X29398986Y-8000997D01*
X29287333Y-7990000D01*
X29287322Y-7990000D01*
X29250000Y-7986324D01*
X29212678Y-7990000D01*
X19964802Y-7990000D01*
X18917457Y-6942655D01*
X19047226Y-6699875D01*
X19136428Y-6405813D01*
X19166548Y-6100000D01*
X19136428Y-5794187D01*
X19047226Y-5500125D01*
X18906060Y-5236022D01*
X21420251Y-5236022D01*
X21476379Y-5736412D01*
X21628631Y-6216370D01*
X21871207Y-6657615D01*
X22194869Y-7043340D01*
X22587287Y-7358852D01*
X23033515Y-7592134D01*
X23516556Y-7734301D01*
X24018012Y-7779937D01*
X24518781Y-7727304D01*
X24999790Y-7578407D01*
X25442718Y-7338917D01*
X25830693Y-7017956D01*
X26148937Y-6627750D01*
X26385329Y-6183162D01*
X26530864Y-5701125D01*
X26580000Y-5200000D01*
X26578994Y-5127962D01*
X26515885Y-4628405D01*
X26356947Y-4150619D01*
X26108234Y-3712805D01*
X25779218Y-3331637D01*
X25382433Y-3021634D01*
X24932991Y-2794605D01*
X24448012Y-2659196D01*
X23945969Y-2620566D01*
X23445983Y-2680186D01*
X22967099Y-2835784D01*
X22527559Y-3081435D01*
X22144103Y-3407781D01*
X21831338Y-3802393D01*
X21601177Y-4250239D01*
X21462386Y-4734261D01*
X21420251Y-5236022D01*
X18906060Y-5236022D01*
X18902369Y-5229117D01*
X18707424Y-4991576D01*
X18469883Y-4796631D01*
X18198875Y-4651774D01*
X17904813Y-4562572D01*
X17675636Y-4540000D01*
X16324364Y-4540000D01*
X16095187Y-4562572D01*
X15801125Y-4651774D01*
X15530117Y-4796631D01*
X15292576Y-4991576D01*
X15097631Y-5229117D01*
X15038363Y-5340000D01*
X6461637Y-5340000D01*
X6402369Y-5229117D01*
X6207424Y-4991576D01*
X5969883Y-4796631D01*
X5698875Y-4651774D01*
X5404813Y-4562572D01*
X5175636Y-4540000D01*
X3824364Y-4540000D01*
X3595187Y-4562572D01*
X3301125Y-4651774D01*
X3030117Y-4796631D01*
X2792576Y-4991576D01*
X2597631Y-5229117D01*
X2452774Y-5500125D01*
X2363572Y-5794187D01*
X2333452Y-6100000D01*
X2363572Y-6405813D01*
X2452774Y-6699875D01*
X2597631Y-6970883D01*
X2792576Y-7208424D01*
X3030117Y-7403369D01*
X3301125Y-7548226D01*
X3595187Y-7637428D01*
X3824364Y-7660000D01*
X5175636Y-7660000D01*
X5404813Y-7637428D01*
X5698875Y-7548226D01*
X5969883Y-7403369D01*
X6207424Y-7208424D01*
X6402369Y-6970883D01*
X6461637Y-6860000D01*
X15038363Y-6860000D01*
X15097631Y-6970883D01*
X15292576Y-7208424D01*
X15530117Y-7403369D01*
X15801125Y-7548226D01*
X16095187Y-7637428D01*
X16324364Y-7660000D01*
X17485199Y-7660000D01*
X19086200Y-9261002D01*
X19109999Y-9290001D01*
X19138997Y-9313799D01*
X19225723Y-9384974D01*
X19357753Y-9455546D01*
X19501014Y-9499003D01*
X19612667Y-9510000D01*
X19612677Y-9510000D01*
X19650000Y-9513676D01*
X19687323Y-9510000D01*
X28935199Y-9510000D01*
X29465000Y-10039802D01*
X29465000Y-10101939D01*
X29504774Y-10301898D01*
X29582795Y-10490256D01*
X29696063Y-10659774D01*
X29840226Y-10803937D01*
X30009744Y-10917205D01*
X30198102Y-10995226D01*
X30398061Y-11035000D01*
X30601939Y-11035000D01*
X30801898Y-10995226D01*
X30990256Y-10917205D01*
X31159774Y-10803937D01*
X31203711Y-10760000D01*
X42962678Y-10760000D01*
X43000000Y-10763676D01*
X43037322Y-10760000D01*
X43037333Y-10760000D01*
X43148986Y-10749003D01*
X43292247Y-10705546D01*
X43424276Y-10634974D01*
X43540001Y-10540001D01*
X43563804Y-10510997D01*
X44090001Y-9984800D01*
X44090000Y-10746289D01*
X44046063Y-10790226D01*
X43932795Y-10959744D01*
X43854774Y-11148102D01*
X43815000Y-11348061D01*
X43815000Y-11414831D01*
X43765026Y-11475724D01*
X43694454Y-11607754D01*
X43681332Y-11651014D01*
X43653658Y-11742247D01*
X43650998Y-11751015D01*
X43636324Y-11900000D01*
X43640001Y-11937332D01*
X43640000Y-17785198D01*
X43135199Y-18290000D01*
X31917150Y-18290000D01*
X32017205Y-18140256D01*
X32095226Y-17951898D01*
X32135000Y-17751939D01*
X32135000Y-17548061D01*
X32095226Y-17348102D01*
X32017205Y-17159744D01*
X31910468Y-17000000D01*
X32017205Y-16840256D01*
X32095226Y-16651898D01*
X32135000Y-16451939D01*
X32135000Y-16248061D01*
X32095226Y-16048102D01*
X32017205Y-15859744D01*
X31903937Y-15690226D01*
X31759774Y-15546063D01*
X31590256Y-15432795D01*
X31401898Y-15354774D01*
X31201939Y-15315000D01*
X31139802Y-15315000D01*
X28663804Y-12839003D01*
X28640001Y-12809999D01*
X28524276Y-12715026D01*
X28392247Y-12644454D01*
X28248986Y-12600997D01*
X28137333Y-12590000D01*
X28137322Y-12590000D01*
X28100000Y-12586324D01*
X28062678Y-12590000D01*
X18066555Y-12590000D01*
X18313319Y-12492652D01*
X18571286Y-12326536D01*
X18791889Y-12113285D01*
X18966650Y-11861094D01*
X19088853Y-11579655D01*
X19114812Y-11468664D01*
X18994483Y-11227000D01*
X17127000Y-11227000D01*
X17127000Y-11247000D01*
X16873000Y-11247000D01*
X16873000Y-11227000D01*
X15005517Y-11227000D01*
X14885188Y-11468664D01*
X14911147Y-11579655D01*
X15033350Y-11861094D01*
X15208111Y-12113285D01*
X15428714Y-12326536D01*
X15686681Y-12492652D01*
X15972099Y-12605249D01*
X16202819Y-12647091D01*
X16075724Y-12715026D01*
X16075722Y-12715027D01*
X16075723Y-12715027D01*
X15988996Y-12786201D01*
X15988992Y-12786205D01*
X15959999Y-12809999D01*
X15936205Y-12838992D01*
X14038998Y-14736201D01*
X14010000Y-14759999D01*
X13986202Y-14788997D01*
X13986201Y-14788998D01*
X13915026Y-14875724D01*
X13844454Y-15007754D01*
X13823205Y-15077805D01*
X13800998Y-15151014D01*
X13798264Y-15178769D01*
X13786324Y-15300000D01*
X13790001Y-15337332D01*
X13790000Y-17685198D01*
X11985199Y-19490000D01*
X4775620Y-19490000D01*
X4748918Y-19425537D01*
X4569987Y-19157748D01*
X4342252Y-18930013D01*
X4074463Y-18751082D01*
X3861441Y-18662845D01*
X9416761Y-18662845D01*
X9584802Y-18988643D01*
X9976607Y-19189426D01*
X10400055Y-19309914D01*
X10838873Y-19345476D01*
X11276197Y-19294746D01*
X11695221Y-19159674D01*
X12015198Y-18988643D01*
X12183239Y-18662845D01*
X10800000Y-17279605D01*
X9416761Y-18662845D01*
X3861441Y-18662845D01*
X3776912Y-18627832D01*
X3461033Y-18565000D01*
X3138967Y-18565000D01*
X2823088Y-18627832D01*
X2525537Y-18751082D01*
X2257748Y-18930013D01*
X2030013Y-19157748D01*
X1851082Y-19425537D01*
X1727832Y-19723088D01*
X1665000Y-20038967D01*
X1665000Y-20361033D01*
X1727832Y-20676912D01*
X1851082Y-20974463D01*
X2030013Y-21242252D01*
X2257748Y-21469987D01*
X2354935Y-21534925D01*
X2344192Y-21564587D01*
X3300000Y-22520395D01*
X4255808Y-21564587D01*
X4245065Y-21534925D01*
X4342252Y-21469987D01*
X4569987Y-21242252D01*
X4725173Y-21010000D01*
X5165199Y-21010000D01*
X5039002Y-21136197D01*
X5009999Y-21159999D01*
X4958838Y-21222340D01*
X4915026Y-21275724D01*
X4874310Y-21351898D01*
X4844454Y-21407754D01*
X4800997Y-21551015D01*
X4790000Y-21662668D01*
X4790000Y-21662678D01*
X4786324Y-21700000D01*
X4790000Y-21737323D01*
X4790000Y-22008683D01*
X4699814Y-21839956D01*
X4435413Y-21744192D01*
X3479605Y-22700000D01*
X3493748Y-22714143D01*
X3314143Y-22893748D01*
X3300000Y-22879605D01*
X3285858Y-22893748D01*
X3106253Y-22714143D01*
X3120395Y-22700000D01*
X2164587Y-21744192D01*
X1900186Y-21839956D01*
X1759296Y-22129571D01*
X1677616Y-22441108D01*
X1658282Y-22762595D01*
X1702039Y-23081675D01*
X1807205Y-23386088D01*
X1900186Y-23560044D01*
X2049223Y-23614024D01*
X1945506Y-23669463D01*
X1848815Y-23748815D01*
X1769463Y-23845506D01*
X1710498Y-23955820D01*
X1674188Y-24075518D01*
X1661928Y-24200000D01*
X1661928Y-26200000D01*
X1674188Y-26324482D01*
X1710498Y-26444180D01*
X1769463Y-26554494D01*
X1848815Y-26651185D01*
X1945506Y-26730537D01*
X2055820Y-26789502D01*
X2175518Y-26825812D01*
X2300000Y-26838072D01*
X4300000Y-26838072D01*
X4424482Y-26825812D01*
X4544180Y-26789502D01*
X4642112Y-26737155D01*
X9416761Y-26737155D01*
X10800000Y-28120395D01*
X12183239Y-26737155D01*
X12015198Y-26411357D01*
X11623393Y-26210574D01*
X11199945Y-26090086D01*
X10761127Y-26054524D01*
X10323803Y-26105254D01*
X9904779Y-26240326D01*
X9584802Y-26411357D01*
X9416761Y-26737155D01*
X4642112Y-26737155D01*
X4654494Y-26730537D01*
X4751185Y-26651185D01*
X4830537Y-26554494D01*
X4889502Y-26444180D01*
X4925812Y-26324482D01*
X4938072Y-26200000D01*
X4938072Y-25873652D01*
X5040001Y-25790001D01*
X5063804Y-25760998D01*
X6061003Y-24763799D01*
X6090001Y-24740001D01*
X6184974Y-24624276D01*
X6255546Y-24492247D01*
X6299003Y-24348986D01*
X6310000Y-24237333D01*
X6310000Y-24237324D01*
X6313676Y-24200001D01*
X6310000Y-24162678D01*
X6310000Y-22014801D01*
X6864793Y-21460010D01*
X12462668Y-21460010D01*
X12499990Y-21463686D01*
X12537312Y-21460010D01*
X12537323Y-21460010D01*
X12648976Y-21449013D01*
X12792237Y-21405556D01*
X12924266Y-21334984D01*
X13039991Y-21240011D01*
X13063794Y-21211007D01*
X13065000Y-21209801D01*
X13065001Y-28906521D01*
X13060719Y-28950000D01*
X13077805Y-29123490D01*
X13128412Y-29290313D01*
X13210590Y-29444059D01*
X13293468Y-29545046D01*
X13293471Y-29545049D01*
X13321184Y-29578817D01*
X13354952Y-29606530D01*
X19465000Y-35716579D01*
X19465000Y-35832737D01*
X19390256Y-35782795D01*
X19201898Y-35704774D01*
X19001939Y-35665000D01*
X18798061Y-35665000D01*
X18598102Y-35704774D01*
X18409744Y-35782795D01*
X18240226Y-35896063D01*
X18096063Y-36040226D01*
X17982795Y-36209744D01*
X17904774Y-36398102D01*
X17865000Y-36598061D01*
X17865000Y-36801939D01*
X17899330Y-36974528D01*
X17213804Y-36289003D01*
X17190001Y-36259999D01*
X17074276Y-36165026D01*
X16942247Y-36094454D01*
X16798986Y-36050997D01*
X16687333Y-36040000D01*
X16687322Y-36040000D01*
X16650000Y-36036324D01*
X16612678Y-36040000D01*
X16203711Y-36040000D01*
X16159774Y-35996063D01*
X15990256Y-35882795D01*
X15801898Y-35804774D01*
X15601939Y-35765000D01*
X15398061Y-35765000D01*
X15198102Y-35804774D01*
X15009744Y-35882795D01*
X14840226Y-35996063D01*
X14696063Y-36140226D01*
X14582795Y-36309744D01*
X14504774Y-36498102D01*
X14465000Y-36698061D01*
X14465000Y-36901939D01*
X14504774Y-37101898D01*
X14582795Y-37290256D01*
X14696063Y-37459774D01*
X14840226Y-37603937D01*
X15009744Y-37717205D01*
X15198102Y-37795226D01*
X15398061Y-37835000D01*
X15601939Y-37835000D01*
X15801898Y-37795226D01*
X15990256Y-37717205D01*
X16159774Y-37603937D01*
X16203711Y-37560000D01*
X16335199Y-37560000D01*
X17686200Y-38911002D01*
X17709999Y-38940001D01*
X17825724Y-39034974D01*
X17957753Y-39105546D01*
X18101014Y-39149003D01*
X18212667Y-39160000D01*
X18212675Y-39160000D01*
X18250000Y-39163676D01*
X18287325Y-39160000D01*
X19435199Y-39160000D01*
X24236205Y-43961008D01*
X24259999Y-43990001D01*
X24288992Y-44013795D01*
X24288996Y-44013799D01*
X24359685Y-44071811D01*
X24375724Y-44084974D01*
X24507753Y-44155546D01*
X24651014Y-44199003D01*
X24762667Y-44210000D01*
X24762676Y-44210000D01*
X24799999Y-44213676D01*
X24837322Y-44210000D01*
X59262678Y-44210000D01*
X59300000Y-44213676D01*
X59337322Y-44210000D01*
X59337333Y-44210000D01*
X59448986Y-44199003D01*
X59592247Y-44155546D01*
X59724276Y-44084974D01*
X59840001Y-43990001D01*
X59863804Y-43960997D01*
X61431212Y-42393589D01*
X82642000Y-42393589D01*
X82642000Y-42666411D01*
X82695225Y-42933989D01*
X82799629Y-43186043D01*
X82951201Y-43412886D01*
X83144114Y-43605799D01*
X83370957Y-43757371D01*
X83623011Y-43861775D01*
X83890589Y-43915000D01*
X84163411Y-43915000D01*
X84430989Y-43861775D01*
X84683043Y-43757371D01*
X84909886Y-43605799D01*
X85102799Y-43412886D01*
X85254371Y-43186043D01*
X85358775Y-42933989D01*
X85412000Y-42666411D01*
X85412000Y-42393589D01*
X85358775Y-42126011D01*
X85254371Y-41873957D01*
X85102799Y-41647114D01*
X84909886Y-41454201D01*
X84683043Y-41302629D01*
X84430989Y-41198225D01*
X84163411Y-41145000D01*
X83890589Y-41145000D01*
X83623011Y-41198225D01*
X83370957Y-41302629D01*
X83144114Y-41454201D01*
X82951201Y-41647114D01*
X82799629Y-41873957D01*
X82695225Y-42126011D01*
X82642000Y-42393589D01*
X61431212Y-42393589D01*
X68561004Y-35263798D01*
X68590001Y-35240001D01*
X68684974Y-35124276D01*
X68755546Y-34992247D01*
X68799003Y-34848986D01*
X68810000Y-34737333D01*
X68810000Y-34737325D01*
X68813676Y-34700000D01*
X68810000Y-34662675D01*
X68810000Y-18193589D01*
X82642000Y-18193589D01*
X82642000Y-18466411D01*
X82695225Y-18733989D01*
X82799629Y-18986043D01*
X82951201Y-19212886D01*
X83144114Y-19405799D01*
X83370957Y-19557371D01*
X83623011Y-19661775D01*
X83890589Y-19715000D01*
X84163411Y-19715000D01*
X84430989Y-19661775D01*
X84683043Y-19557371D01*
X84909886Y-19405799D01*
X85102799Y-19212886D01*
X85254371Y-18986043D01*
X85358775Y-18733989D01*
X85412000Y-18466411D01*
X85412000Y-18193589D01*
X85358775Y-17926011D01*
X85254371Y-17673957D01*
X85102799Y-17447114D01*
X84909886Y-17254201D01*
X84683043Y-17102629D01*
X84430989Y-16998225D01*
X84163411Y-16945000D01*
X83890589Y-16945000D01*
X83623011Y-16998225D01*
X83370957Y-17102629D01*
X83144114Y-17254201D01*
X82951201Y-17447114D01*
X82799629Y-17673957D01*
X82695225Y-17926011D01*
X82642000Y-18193589D01*
X68810000Y-18193589D01*
X68810000Y-11414801D01*
X69474801Y-10750000D01*
X80861928Y-10750000D01*
X80861928Y-12750000D01*
X80874188Y-12874482D01*
X80910498Y-12994180D01*
X80969463Y-13104494D01*
X81048815Y-13201185D01*
X81145506Y-13280537D01*
X81255820Y-13339502D01*
X81375518Y-13375812D01*
X81500000Y-13388072D01*
X83500000Y-13388072D01*
X83624482Y-13375812D01*
X83744180Y-13339502D01*
X83854494Y-13280537D01*
X83951185Y-13201185D01*
X84030537Y-13104494D01*
X84089502Y-12994180D01*
X84125812Y-12874482D01*
X84138072Y-12750000D01*
X84138072Y-10750000D01*
X84125812Y-10625518D01*
X84089502Y-10505820D01*
X84030537Y-10395506D01*
X83951185Y-10298815D01*
X83854494Y-10219463D01*
X83744180Y-10160498D01*
X83624482Y-10124188D01*
X83500000Y-10111928D01*
X81500000Y-10111928D01*
X81375518Y-10124188D01*
X81255820Y-10160498D01*
X81145506Y-10219463D01*
X81048815Y-10298815D01*
X80969463Y-10395506D01*
X80910498Y-10505820D01*
X80874188Y-10625518D01*
X80861928Y-10750000D01*
X69474801Y-10750000D01*
X70524801Y-9700000D01*
X71911928Y-9700000D01*
X71924188Y-9824482D01*
X71960498Y-9944180D01*
X72019463Y-10054494D01*
X72098815Y-10151185D01*
X72195506Y-10230537D01*
X72305820Y-10289502D01*
X72425518Y-10325812D01*
X72550000Y-10338072D01*
X73164250Y-10335000D01*
X73323000Y-10176250D01*
X73323000Y-8927000D01*
X73577000Y-8927000D01*
X73577000Y-10176250D01*
X73735750Y-10335000D01*
X74350000Y-10338072D01*
X74474482Y-10325812D01*
X74594180Y-10289502D01*
X74704494Y-10230537D01*
X74801185Y-10151185D01*
X74880537Y-10054494D01*
X74939502Y-9944180D01*
X74975812Y-9824482D01*
X74988072Y-9700000D01*
X74985000Y-9085750D01*
X74826250Y-8927000D01*
X73577000Y-8927000D01*
X73323000Y-8927000D01*
X72073750Y-8927000D01*
X71915000Y-9085750D01*
X71911928Y-9700000D01*
X70524801Y-9700000D01*
X71361004Y-8863798D01*
X71390001Y-8840001D01*
X71419598Y-8803937D01*
X71484974Y-8724277D01*
X71555546Y-8592247D01*
X71555546Y-8592246D01*
X71599003Y-8448986D01*
X71610000Y-8337333D01*
X71610000Y-8337323D01*
X71613676Y-8300000D01*
X71610000Y-8262677D01*
X71610000Y-7900000D01*
X71911928Y-7900000D01*
X71915000Y-8514250D01*
X72073750Y-8673000D01*
X73323000Y-8673000D01*
X73323000Y-8653000D01*
X73577000Y-8653000D01*
X73577000Y-8673000D01*
X74826250Y-8673000D01*
X74985000Y-8514250D01*
X74988072Y-7900000D01*
X74975812Y-7775518D01*
X74939502Y-7655820D01*
X74880537Y-7545506D01*
X74801185Y-7448815D01*
X74704494Y-7369463D01*
X74594180Y-7310498D01*
X74575873Y-7304944D01*
X74642312Y-7238505D01*
X74810299Y-6987095D01*
X74926011Y-6707743D01*
X74985000Y-6411184D01*
X74985000Y-6108816D01*
X74926011Y-5812257D01*
X74810299Y-5532905D01*
X74642312Y-5281495D01*
X74428505Y-5067688D01*
X74177095Y-4899701D01*
X73897743Y-4783989D01*
X73601184Y-4725000D01*
X73298816Y-4725000D01*
X73002257Y-4783989D01*
X72722905Y-4899701D01*
X72471495Y-5067688D01*
X72257688Y-5281495D01*
X72089701Y-5532905D01*
X71973989Y-5812257D01*
X71915000Y-6108816D01*
X71915000Y-6411184D01*
X71973989Y-6707743D01*
X72089701Y-6987095D01*
X72257688Y-7238505D01*
X72324127Y-7304944D01*
X72305820Y-7310498D01*
X72195506Y-7369463D01*
X72098815Y-7448815D01*
X72019463Y-7545506D01*
X71960498Y-7655820D01*
X71924188Y-7775518D01*
X71911928Y-7900000D01*
X71610000Y-7900000D01*
X71610000Y-7387322D01*
X71613676Y-7349999D01*
X71610000Y-7312676D01*
X71610000Y-7312667D01*
X71599003Y-7201014D01*
X71555546Y-7057753D01*
X71524134Y-6998986D01*
X71484974Y-6925723D01*
X71413799Y-6838997D01*
X71390001Y-6809999D01*
X71361002Y-6786200D01*
X70975655Y-6400854D01*
X70917205Y-6259744D01*
X70803937Y-6090226D01*
X70659774Y-5946063D01*
X70490256Y-5832795D01*
X70301898Y-5754774D01*
X70101939Y-5715000D01*
X69898061Y-5715000D01*
X69698102Y-5754774D01*
X69509744Y-5832795D01*
X69340226Y-5946063D01*
X69196063Y-6090226D01*
X69082795Y-6259744D01*
X69004774Y-6448102D01*
X68965000Y-6648061D01*
X68965000Y-6851939D01*
X69004774Y-7051898D01*
X69082795Y-7240256D01*
X69172828Y-7375000D01*
X69082795Y-7509744D01*
X69004774Y-7698102D01*
X68965000Y-7898061D01*
X68965000Y-8101939D01*
X68991257Y-8233941D01*
X66988998Y-10236201D01*
X66960000Y-10259999D01*
X66936202Y-10288997D01*
X66936201Y-10288998D01*
X66865026Y-10375724D01*
X66794454Y-10507754D01*
X66769810Y-10588998D01*
X66750998Y-10651014D01*
X66746075Y-10700998D01*
X66736324Y-10800000D01*
X66740001Y-10837333D01*
X66740000Y-34285198D01*
X64660000Y-36365198D01*
X64660000Y-26337322D01*
X64663676Y-26299999D01*
X64660000Y-26262676D01*
X64660000Y-26262667D01*
X64649003Y-26151014D01*
X64605546Y-26007753D01*
X64587752Y-25974463D01*
X64534974Y-25875723D01*
X64463799Y-25788997D01*
X64440001Y-25759999D01*
X64411004Y-25736202D01*
X60913804Y-22239003D01*
X60890001Y-22209999D01*
X60774276Y-22115026D01*
X60642247Y-22044454D01*
X60498986Y-22000997D01*
X60387333Y-21990000D01*
X60387322Y-21990000D01*
X60350000Y-21986324D01*
X60312678Y-21990000D01*
X59962224Y-21990000D01*
X60017256Y-21967205D01*
X60186774Y-21853937D01*
X60330937Y-21709774D01*
X60444205Y-21540256D01*
X60522226Y-21351898D01*
X60562000Y-21151939D01*
X60562000Y-20948061D01*
X60522226Y-20748102D01*
X60444205Y-20559744D01*
X60330937Y-20390226D01*
X60186774Y-20246063D01*
X60017256Y-20132795D01*
X59828898Y-20054774D01*
X59628939Y-20015000D01*
X59425061Y-20015000D01*
X59225102Y-20054774D01*
X59036744Y-20132795D01*
X58867226Y-20246063D01*
X58823289Y-20290000D01*
X48837322Y-20290000D01*
X48799999Y-20286324D01*
X48762677Y-20290000D01*
X48762667Y-20290000D01*
X48651014Y-20300997D01*
X48515200Y-20342195D01*
X48507753Y-20344454D01*
X48375723Y-20415026D01*
X48297057Y-20479586D01*
X48259999Y-20509999D01*
X48236201Y-20538997D01*
X45535199Y-23240000D01*
X30917311Y-23240000D01*
X30995226Y-23051898D01*
X31035000Y-22851939D01*
X31035000Y-22648061D01*
X31007538Y-22510000D01*
X43412678Y-22510000D01*
X43450000Y-22513676D01*
X43487322Y-22510000D01*
X43487333Y-22510000D01*
X43598986Y-22499003D01*
X43742247Y-22455546D01*
X43874276Y-22384974D01*
X43990001Y-22290001D01*
X44013804Y-22260997D01*
X46711003Y-19563799D01*
X46740001Y-19540001D01*
X46834974Y-19424276D01*
X46905546Y-19292247D01*
X46949003Y-19148986D01*
X46960000Y-19037333D01*
X46960000Y-19037324D01*
X46963676Y-19000001D01*
X46960000Y-18962678D01*
X46960000Y-16199116D01*
X48367845Y-14791272D01*
X48498102Y-14845226D01*
X48698061Y-14885000D01*
X48901939Y-14885000D01*
X49101898Y-14845226D01*
X49290256Y-14767205D01*
X49459774Y-14653937D01*
X49603937Y-14509774D01*
X49717205Y-14340256D01*
X49795226Y-14151898D01*
X49835000Y-13951939D01*
X49835000Y-13748061D01*
X49795226Y-13548102D01*
X49717205Y-13359744D01*
X49603937Y-13190226D01*
X49459774Y-13046063D01*
X49290256Y-12932795D01*
X49101898Y-12854774D01*
X48901939Y-12815000D01*
X48698061Y-12815000D01*
X48498102Y-12854774D01*
X48309744Y-12932795D01*
X48140226Y-13046063D01*
X48085276Y-13101013D01*
X47942068Y-13144454D01*
X47810039Y-13215026D01*
X47694314Y-13309999D01*
X47670516Y-13338997D01*
X46010000Y-14999514D01*
X46010000Y-13164801D01*
X48254506Y-10920296D01*
X48309744Y-10957205D01*
X48498102Y-11035226D01*
X48698061Y-11075000D01*
X48901939Y-11075000D01*
X49101898Y-11035226D01*
X49290256Y-10957205D01*
X49459774Y-10843937D01*
X49603937Y-10699774D01*
X49717205Y-10530256D01*
X49795226Y-10341898D01*
X49835000Y-10141939D01*
X49835000Y-10059802D01*
X50090001Y-10314803D01*
X50090000Y-15096289D01*
X50046063Y-15140226D01*
X49932795Y-15309744D01*
X49854774Y-15498102D01*
X49815000Y-15698061D01*
X49815000Y-15901939D01*
X49854774Y-16101898D01*
X49932795Y-16290256D01*
X50046063Y-16459774D01*
X50190226Y-16603937D01*
X50359744Y-16717205D01*
X50548102Y-16795226D01*
X50748061Y-16835000D01*
X50951939Y-16835000D01*
X51151898Y-16795226D01*
X51340256Y-16717205D01*
X51509774Y-16603937D01*
X51653937Y-16459774D01*
X51767205Y-16290256D01*
X51845226Y-16101898D01*
X51885000Y-15901939D01*
X51885000Y-15848061D01*
X53865000Y-15848061D01*
X53865000Y-16051939D01*
X53904774Y-16251898D01*
X53982795Y-16440256D01*
X54096063Y-16609774D01*
X54240226Y-16753937D01*
X54409744Y-16867205D01*
X54598102Y-16945226D01*
X54798061Y-16985000D01*
X55001939Y-16985000D01*
X55201898Y-16945226D01*
X55390256Y-16867205D01*
X55438454Y-16835000D01*
X59606531Y-16835000D01*
X59650000Y-16839281D01*
X59693469Y-16835000D01*
X59693477Y-16835000D01*
X59823490Y-16822195D01*
X59990313Y-16771589D01*
X60144059Y-16689411D01*
X60278817Y-16578817D01*
X60306534Y-16545044D01*
X62866579Y-13985000D01*
X63111546Y-13985000D01*
X63159744Y-14017205D01*
X63348102Y-14095226D01*
X63548061Y-14135000D01*
X63751939Y-14135000D01*
X63951898Y-14095226D01*
X64140256Y-14017205D01*
X64309774Y-13903937D01*
X64453937Y-13759774D01*
X64567205Y-13590256D01*
X64645226Y-13401898D01*
X64685000Y-13201939D01*
X64685000Y-12998061D01*
X64645226Y-12798102D01*
X64567205Y-12609744D01*
X64453937Y-12440226D01*
X64309774Y-12296063D01*
X64140256Y-12182795D01*
X63951898Y-12104774D01*
X63751939Y-12065000D01*
X63548061Y-12065000D01*
X63348102Y-12104774D01*
X63159744Y-12182795D01*
X63111546Y-12215000D01*
X62543469Y-12215000D01*
X62500000Y-12210719D01*
X62456531Y-12215000D01*
X62456523Y-12215000D01*
X62326510Y-12227805D01*
X62159686Y-12278411D01*
X62005941Y-12360589D01*
X61904953Y-12443468D01*
X61904951Y-12443470D01*
X61871183Y-12471183D01*
X61843470Y-12504951D01*
X59283422Y-15065000D01*
X55438454Y-15065000D01*
X55390256Y-15032795D01*
X55201898Y-14954774D01*
X55001939Y-14915000D01*
X54798061Y-14915000D01*
X54598102Y-14954774D01*
X54409744Y-15032795D01*
X54240226Y-15146063D01*
X54096063Y-15290226D01*
X53982795Y-15459744D01*
X53904774Y-15648102D01*
X53865000Y-15848061D01*
X51885000Y-15848061D01*
X51885000Y-15698061D01*
X51845226Y-15498102D01*
X51767205Y-15309744D01*
X51653937Y-15140226D01*
X51610000Y-15096289D01*
X51610000Y-10684801D01*
X55136201Y-14211003D01*
X55159999Y-14240001D01*
X55188997Y-14263799D01*
X55275723Y-14334974D01*
X55378671Y-14390001D01*
X55407753Y-14405546D01*
X55551014Y-14449003D01*
X55662667Y-14460000D01*
X55662676Y-14460000D01*
X55699999Y-14463676D01*
X55737322Y-14460000D01*
X59512678Y-14460000D01*
X59550000Y-14463676D01*
X59587322Y-14460000D01*
X59587333Y-14460000D01*
X59698986Y-14449003D01*
X59842247Y-14405546D01*
X59974276Y-14334974D01*
X60090001Y-14240001D01*
X60113804Y-14210997D01*
X61961004Y-12363798D01*
X61990001Y-12340001D01*
X62084974Y-12224276D01*
X62155546Y-12092247D01*
X62199003Y-11948986D01*
X62210000Y-11837333D01*
X62210000Y-11837325D01*
X62213676Y-11800000D01*
X62210000Y-11762675D01*
X62210000Y-6587322D01*
X62213676Y-6549999D01*
X62210000Y-6512676D01*
X62210000Y-6512667D01*
X62199003Y-6401014D01*
X62155546Y-6257753D01*
X62084974Y-6125724D01*
X61990001Y-6009999D01*
X61961003Y-5986201D01*
X60335000Y-4360199D01*
X60335000Y-4298061D01*
X60295226Y-4098102D01*
X60250021Y-3988967D01*
X80865000Y-3988967D01*
X80865000Y-4311033D01*
X80927832Y-4626912D01*
X81051082Y-4924463D01*
X81230013Y-5192252D01*
X81457748Y-5419987D01*
X81725537Y-5598918D01*
X82023088Y-5722168D01*
X82338967Y-5785000D01*
X82661033Y-5785000D01*
X82976912Y-5722168D01*
X83274463Y-5598918D01*
X83542252Y-5419987D01*
X83769987Y-5192252D01*
X83948918Y-4924463D01*
X84072168Y-4626912D01*
X84135000Y-4311033D01*
X84135000Y-3988967D01*
X84072168Y-3673088D01*
X83948918Y-3375537D01*
X83769987Y-3107748D01*
X83542252Y-2880013D01*
X83274463Y-2701082D01*
X82976912Y-2577832D01*
X82661033Y-2515000D01*
X82338967Y-2515000D01*
X82023088Y-2577832D01*
X81725537Y-2701082D01*
X81457748Y-2880013D01*
X81230013Y-3107748D01*
X81051082Y-3375537D01*
X80927832Y-3673088D01*
X80865000Y-3988967D01*
X60250021Y-3988967D01*
X60217205Y-3909744D01*
X60103937Y-3740226D01*
X59959774Y-3596063D01*
X59790256Y-3482795D01*
X59601898Y-3404774D01*
X59401939Y-3365000D01*
X59198061Y-3365000D01*
X58998102Y-3404774D01*
X58809744Y-3482795D01*
X58640226Y-3596063D01*
X58496063Y-3740226D01*
X58382795Y-3909744D01*
X58304774Y-4098102D01*
X58265000Y-4298061D01*
X58265000Y-4501939D01*
X58304774Y-4701898D01*
X58382795Y-4890256D01*
X58496063Y-5059774D01*
X58640226Y-5203937D01*
X58809744Y-5317205D01*
X58998102Y-5395226D01*
X59198061Y-5435000D01*
X59260199Y-5435000D01*
X60690001Y-6864803D01*
X60690000Y-11485198D01*
X59235199Y-12940000D01*
X56014802Y-12940000D01*
X53634802Y-10560000D01*
X57185199Y-10560000D01*
X58165000Y-11539802D01*
X58165000Y-11601939D01*
X58204774Y-11801898D01*
X58282795Y-11990256D01*
X58396063Y-12159774D01*
X58540226Y-12303937D01*
X58709744Y-12417205D01*
X58898102Y-12495226D01*
X59098061Y-12535000D01*
X59301939Y-12535000D01*
X59501898Y-12495226D01*
X59690256Y-12417205D01*
X59859774Y-12303937D01*
X60003937Y-12159774D01*
X60117205Y-11990256D01*
X60195226Y-11801898D01*
X60235000Y-11601939D01*
X60235000Y-11398061D01*
X60195226Y-11198102D01*
X60117205Y-11009744D01*
X60003937Y-10840226D01*
X59859774Y-10696063D01*
X59690256Y-10582795D01*
X59501898Y-10504774D01*
X59301939Y-10465000D01*
X59239802Y-10465000D01*
X58063804Y-9289003D01*
X58040001Y-9259999D01*
X57924276Y-9165026D01*
X57792247Y-9094454D01*
X57648986Y-9050997D01*
X57537333Y-9040000D01*
X57537322Y-9040000D01*
X57500000Y-9036324D01*
X57462678Y-9040000D01*
X53614802Y-9040000D01*
X50913804Y-6339003D01*
X50890001Y-6309999D01*
X50774276Y-6215026D01*
X50642247Y-6144454D01*
X50498986Y-6100997D01*
X50387333Y-6090000D01*
X50387322Y-6090000D01*
X50350000Y-6086324D01*
X50312678Y-6090000D01*
X48927000Y-6090000D01*
X48927000Y-5236022D01*
X51920251Y-5236022D01*
X51976379Y-5736412D01*
X52128631Y-6216370D01*
X52371207Y-6657615D01*
X52694869Y-7043340D01*
X53087287Y-7358852D01*
X53533515Y-7592134D01*
X54016556Y-7734301D01*
X54518012Y-7779937D01*
X55018781Y-7727304D01*
X55499790Y-7578407D01*
X55942718Y-7338917D01*
X56330693Y-7017956D01*
X56648937Y-6627750D01*
X56885329Y-6183162D01*
X57030864Y-5701125D01*
X57080000Y-5200000D01*
X57078994Y-5127962D01*
X57015885Y-4628405D01*
X56856947Y-4150619D01*
X56608234Y-3712805D01*
X56279218Y-3331637D01*
X55882433Y-3021634D01*
X55432991Y-2794605D01*
X54948012Y-2659196D01*
X54445969Y-2620566D01*
X53945983Y-2680186D01*
X53467099Y-2835784D01*
X53027559Y-3081435D01*
X52644103Y-3407781D01*
X52331338Y-3802393D01*
X52101177Y-4250239D01*
X51962386Y-4734261D01*
X51920251Y-5236022D01*
X48927000Y-5236022D01*
X48927000Y-660000D01*
X89340000Y-660000D01*
X89340000Y-18538810D01*
X85980000Y-18538810D01*
X85980000Y-37061191D01*
X89340001Y-37061191D01*
X89340001Y-44340000D01*
X660000Y-44340000D01*
X660000Y-43317609D01*
X919038Y-43317609D01*
X922909Y-43355282D01*
X1015079Y-43580533D01*
X1149422Y-43783474D01*
X1320775Y-43956307D01*
X1522554Y-44092390D01*
X1747004Y-44186493D01*
X1985500Y-44235000D01*
X2335500Y-44235000D01*
X2335500Y-43127000D01*
X2589500Y-43127000D01*
X2589500Y-44235000D01*
X2939500Y-44235000D01*
X3177996Y-44186493D01*
X3402446Y-44092390D01*
X3604225Y-43956307D01*
X3775578Y-43783474D01*
X3909921Y-43580533D01*
X4002091Y-43355282D01*
X4005962Y-43317609D01*
X3881231Y-43127000D01*
X2589500Y-43127000D01*
X2335500Y-43127000D01*
X1043769Y-43127000D01*
X919038Y-43317609D01*
X660000Y-43317609D01*
X660000Y-42939133D01*
X4402972Y-42939133D01*
X4465465Y-43175450D01*
X4708178Y-43288850D01*
X4968349Y-43352719D01*
X5235982Y-43364604D01*
X5500791Y-43324048D01*
X5752600Y-43232609D01*
X5859535Y-43175450D01*
X5922028Y-42939133D01*
X5162500Y-42179605D01*
X4402972Y-42939133D01*
X660000Y-42939133D01*
X660000Y-42682391D01*
X919038Y-42682391D01*
X1043769Y-42873000D01*
X2335500Y-42873000D01*
X2335500Y-42853000D01*
X2589500Y-42853000D01*
X2589500Y-42873000D01*
X3881231Y-42873000D01*
X3995003Y-42699138D01*
X4223367Y-42759528D01*
X4982895Y-42000000D01*
X5342105Y-42000000D01*
X6101633Y-42759528D01*
X6337950Y-42697035D01*
X6451350Y-42454322D01*
X6515219Y-42194151D01*
X6527104Y-41926518D01*
X6486548Y-41661709D01*
X6395109Y-41409900D01*
X6337950Y-41302965D01*
X6101633Y-41240472D01*
X5342105Y-42000000D01*
X4982895Y-42000000D01*
X4223367Y-41240472D01*
X3987050Y-41302965D01*
X3873650Y-41545678D01*
X3809781Y-41805849D01*
X3797896Y-42073482D01*
X3833115Y-42303442D01*
X3775578Y-42216526D01*
X3604225Y-42043693D01*
X3402446Y-41907610D01*
X3177996Y-41813507D01*
X2939500Y-41765000D01*
X1985500Y-41765000D01*
X1747004Y-41813507D01*
X1522554Y-41907610D01*
X1320775Y-42043693D01*
X1149422Y-42216526D01*
X1015079Y-42419467D01*
X922909Y-42644718D01*
X919038Y-42682391D01*
X660000Y-42682391D01*
X660000Y-41060867D01*
X4402972Y-41060867D01*
X5162500Y-41820395D01*
X5922028Y-41060867D01*
X5859535Y-40824550D01*
X5616822Y-40711150D01*
X5356651Y-40647281D01*
X5089018Y-40635396D01*
X4824209Y-40675952D01*
X4572400Y-40767391D01*
X4465465Y-40824550D01*
X4402972Y-41060867D01*
X660000Y-41060867D01*
X660000Y-37939133D01*
X4402972Y-37939133D01*
X4465465Y-38175450D01*
X4708178Y-38288850D01*
X4968349Y-38352719D01*
X5235982Y-38364604D01*
X5500791Y-38324048D01*
X5752600Y-38232609D01*
X5859535Y-38175450D01*
X5922028Y-37939133D01*
X5162500Y-37179605D01*
X4402972Y-37939133D01*
X660000Y-37939133D01*
X660000Y-36317609D01*
X919038Y-36317609D01*
X922909Y-36355282D01*
X1015079Y-36580533D01*
X1149422Y-36783474D01*
X1320775Y-36956307D01*
X1522554Y-37092390D01*
X1747004Y-37186493D01*
X1985500Y-37235000D01*
X2335500Y-37235000D01*
X2335500Y-36127000D01*
X2589500Y-36127000D01*
X2589500Y-37235000D01*
X2939500Y-37235000D01*
X3177996Y-37186493D01*
X3402446Y-37092390D01*
X3604225Y-36956307D01*
X3775578Y-36783474D01*
X3838671Y-36688164D01*
X3809781Y-36805849D01*
X3797896Y-37073482D01*
X3838452Y-37338291D01*
X3929891Y-37590100D01*
X3987050Y-37697035D01*
X4223367Y-37759528D01*
X4982895Y-37000000D01*
X5342105Y-37000000D01*
X6101633Y-37759528D01*
X6337950Y-37697035D01*
X6451350Y-37454322D01*
X6515219Y-37194151D01*
X6527104Y-36926518D01*
X6486548Y-36661709D01*
X6395109Y-36409900D01*
X6337950Y-36302965D01*
X6101633Y-36240472D01*
X5342105Y-37000000D01*
X4982895Y-37000000D01*
X4223367Y-36240472D01*
X3995003Y-36300862D01*
X3881231Y-36127000D01*
X2589500Y-36127000D01*
X2335500Y-36127000D01*
X1043769Y-36127000D01*
X919038Y-36317609D01*
X660000Y-36317609D01*
X660000Y-36060867D01*
X4402972Y-36060867D01*
X5162500Y-36820395D01*
X5922028Y-36060867D01*
X5859535Y-35824550D01*
X5616822Y-35711150D01*
X5356651Y-35647281D01*
X5089018Y-35635396D01*
X4824209Y-35675952D01*
X4572400Y-35767391D01*
X4465465Y-35824550D01*
X4402972Y-36060867D01*
X660000Y-36060867D01*
X660000Y-35682391D01*
X919038Y-35682391D01*
X1043769Y-35873000D01*
X2335500Y-35873000D01*
X2335500Y-35853000D01*
X2589500Y-35853000D01*
X2589500Y-35873000D01*
X3881231Y-35873000D01*
X4005962Y-35682391D01*
X4002091Y-35644718D01*
X3909921Y-35419467D01*
X3775578Y-35216526D01*
X3604225Y-35043693D01*
X3402446Y-34907610D01*
X3177996Y-34813507D01*
X2939500Y-34765000D01*
X1985500Y-34765000D01*
X1747004Y-34813507D01*
X1522554Y-34907610D01*
X1320775Y-35043693D01*
X1149422Y-35216526D01*
X1015079Y-35419467D01*
X922909Y-35644718D01*
X919038Y-35682391D01*
X660000Y-35682391D01*
X660000Y-29862845D01*
X9416761Y-29862845D01*
X9584802Y-30188643D01*
X9976607Y-30389426D01*
X10400055Y-30509914D01*
X10838873Y-30545476D01*
X11276197Y-30494746D01*
X11695221Y-30359674D01*
X12015198Y-30188643D01*
X12183239Y-29862845D01*
X10800000Y-28479605D01*
X9416761Y-29862845D01*
X660000Y-29862845D01*
X660000Y-28338873D01*
X8554524Y-28338873D01*
X8605254Y-28776197D01*
X8740326Y-29195221D01*
X8911357Y-29515198D01*
X9237155Y-29683239D01*
X10620395Y-28300000D01*
X10979605Y-28300000D01*
X12362845Y-29683239D01*
X12688643Y-29515198D01*
X12889426Y-29123393D01*
X13009914Y-28699945D01*
X13045476Y-28261127D01*
X12994746Y-27823803D01*
X12859674Y-27404779D01*
X12688643Y-27084802D01*
X12362845Y-26916761D01*
X10979605Y-28300000D01*
X10620395Y-28300000D01*
X9237155Y-26916761D01*
X8911357Y-27084802D01*
X8710574Y-27476607D01*
X8590086Y-27900055D01*
X8554524Y-28338873D01*
X660000Y-28338873D01*
X660000Y-17138873D01*
X8554524Y-17138873D01*
X8605254Y-17576197D01*
X8740326Y-17995221D01*
X8911357Y-18315198D01*
X9237155Y-18483239D01*
X10620395Y-17100000D01*
X10979605Y-17100000D01*
X12362845Y-18483239D01*
X12688643Y-18315198D01*
X12889426Y-17923393D01*
X13009914Y-17499945D01*
X13045476Y-17061127D01*
X12994746Y-16623803D01*
X12859674Y-16204779D01*
X12688643Y-15884802D01*
X12362845Y-15716761D01*
X10979605Y-17100000D01*
X10620395Y-17100000D01*
X9237155Y-15716761D01*
X8911357Y-15884802D01*
X8710574Y-16276607D01*
X8590086Y-16700055D01*
X8554524Y-17138873D01*
X660000Y-17138873D01*
X660000Y-15537155D01*
X9416761Y-15537155D01*
X10800000Y-16920395D01*
X12183239Y-15537155D01*
X12015198Y-15211357D01*
X11623393Y-15010574D01*
X11199945Y-14890086D01*
X10761127Y-14854524D01*
X10323803Y-14905254D01*
X9904779Y-15040326D01*
X9584802Y-15211357D01*
X9416761Y-15537155D01*
X660000Y-15537155D01*
X660000Y-11468664D01*
X2385188Y-11468664D01*
X2411147Y-11579655D01*
X2533350Y-11861094D01*
X2708111Y-12113285D01*
X2928714Y-12326536D01*
X3186681Y-12492652D01*
X3472099Y-12605249D01*
X3774000Y-12660000D01*
X4373000Y-12660000D01*
X4373000Y-11227000D01*
X4627000Y-11227000D01*
X4627000Y-12660000D01*
X5226000Y-12660000D01*
X5527901Y-12605249D01*
X5813319Y-12492652D01*
X6071286Y-12326536D01*
X6291889Y-12113285D01*
X6466650Y-11861094D01*
X6588853Y-11579655D01*
X6614812Y-11468664D01*
X6494483Y-11227000D01*
X4627000Y-11227000D01*
X4373000Y-11227000D01*
X2505517Y-11227000D01*
X2385188Y-11468664D01*
X660000Y-11468664D01*
X660000Y-10731336D01*
X2385188Y-10731336D01*
X2505517Y-10973000D01*
X4373000Y-10973000D01*
X4373000Y-10953000D01*
X4627000Y-10953000D01*
X4627000Y-10973000D01*
X6494483Y-10973000D01*
X6614812Y-10731336D01*
X14885188Y-10731336D01*
X15005517Y-10973000D01*
X16873000Y-10973000D01*
X16873000Y-10953000D01*
X17127000Y-10953000D01*
X17127000Y-10973000D01*
X18994483Y-10973000D01*
X19114812Y-10731336D01*
X19088853Y-10620345D01*
X18966650Y-10338906D01*
X18791889Y-10086715D01*
X18571286Y-9873464D01*
X18313319Y-9707348D01*
X18027901Y-9594751D01*
X17726000Y-9540000D01*
X16274000Y-9540000D01*
X15972099Y-9594751D01*
X15686681Y-9707348D01*
X15428714Y-9873464D01*
X15208111Y-10086715D01*
X15033350Y-10338906D01*
X14911147Y-10620345D01*
X14885188Y-10731336D01*
X6614812Y-10731336D01*
X6588853Y-10620345D01*
X6466650Y-10338906D01*
X6291889Y-10086715D01*
X6071286Y-9873464D01*
X5813319Y-9707348D01*
X5527901Y-9594751D01*
X5226000Y-9540000D01*
X3774000Y-9540000D01*
X3472099Y-9594751D01*
X3186681Y-9707348D01*
X2928714Y-9873464D01*
X2708111Y-10086715D01*
X2533350Y-10338906D01*
X2411147Y-10620345D01*
X2385188Y-10731336D01*
X660000Y-10731336D01*
X660000Y-660000D01*
X30073000Y-660000D01*
X30073000Y-6100000D01*
X30073000Y-6100000D01*
G37*
X30073000Y-6100000D02*
X30075440Y-6124776D01*
X30082667Y-6148601D01*
X30094403Y-6170557D01*
X30110197Y-6189803D01*
X30129443Y-6205597D01*
X30151399Y-6217333D01*
X30175224Y-6224560D01*
X30200000Y-6227000D01*
X45711134Y-6227000D01*
X45609999Y-6309999D01*
X45586201Y-6338997D01*
X42685199Y-9240000D01*
X31203711Y-9240000D01*
X31159774Y-9196063D01*
X30990256Y-9082795D01*
X30801898Y-9004774D01*
X30601939Y-8965000D01*
X30539802Y-8965000D01*
X29813804Y-8239003D01*
X29790001Y-8209999D01*
X29674276Y-8115026D01*
X29542247Y-8044454D01*
X29398986Y-8000997D01*
X29287333Y-7990000D01*
X29287322Y-7990000D01*
X29250000Y-7986324D01*
X29212678Y-7990000D01*
X19964802Y-7990000D01*
X18917457Y-6942655D01*
X19047226Y-6699875D01*
X19136428Y-6405813D01*
X19166548Y-6100000D01*
X19136428Y-5794187D01*
X19047226Y-5500125D01*
X18906060Y-5236022D01*
X21420251Y-5236022D01*
X21476379Y-5736412D01*
X21628631Y-6216370D01*
X21871207Y-6657615D01*
X22194869Y-7043340D01*
X22587287Y-7358852D01*
X23033515Y-7592134D01*
X23516556Y-7734301D01*
X24018012Y-7779937D01*
X24518781Y-7727304D01*
X24999790Y-7578407D01*
X25442718Y-7338917D01*
X25830693Y-7017956D01*
X26148937Y-6627750D01*
X26385329Y-6183162D01*
X26530864Y-5701125D01*
X26580000Y-5200000D01*
X26578994Y-5127962D01*
X26515885Y-4628405D01*
X26356947Y-4150619D01*
X26108234Y-3712805D01*
X25779218Y-3331637D01*
X25382433Y-3021634D01*
X24932991Y-2794605D01*
X24448012Y-2659196D01*
X23945969Y-2620566D01*
X23445983Y-2680186D01*
X22967099Y-2835784D01*
X22527559Y-3081435D01*
X22144103Y-3407781D01*
X21831338Y-3802393D01*
X21601177Y-4250239D01*
X21462386Y-4734261D01*
X21420251Y-5236022D01*
X18906060Y-5236022D01*
X18902369Y-5229117D01*
X18707424Y-4991576D01*
X18469883Y-4796631D01*
X18198875Y-4651774D01*
X17904813Y-4562572D01*
X17675636Y-4540000D01*
X16324364Y-4540000D01*
X16095187Y-4562572D01*
X15801125Y-4651774D01*
X15530117Y-4796631D01*
X15292576Y-4991576D01*
X15097631Y-5229117D01*
X15038363Y-5340000D01*
X6461637Y-5340000D01*
X6402369Y-5229117D01*
X6207424Y-4991576D01*
X5969883Y-4796631D01*
X5698875Y-4651774D01*
X5404813Y-4562572D01*
X5175636Y-4540000D01*
X3824364Y-4540000D01*
X3595187Y-4562572D01*
X3301125Y-4651774D01*
X3030117Y-4796631D01*
X2792576Y-4991576D01*
X2597631Y-5229117D01*
X2452774Y-5500125D01*
X2363572Y-5794187D01*
X2333452Y-6100000D01*
X2363572Y-6405813D01*
X2452774Y-6699875D01*
X2597631Y-6970883D01*
X2792576Y-7208424D01*
X3030117Y-7403369D01*
X3301125Y-7548226D01*
X3595187Y-7637428D01*
X3824364Y-7660000D01*
X5175636Y-7660000D01*
X5404813Y-7637428D01*
X5698875Y-7548226D01*
X5969883Y-7403369D01*
X6207424Y-7208424D01*
X6402369Y-6970883D01*
X6461637Y-6860000D01*
X15038363Y-6860000D01*
X15097631Y-6970883D01*
X15292576Y-7208424D01*
X15530117Y-7403369D01*
X15801125Y-7548226D01*
X16095187Y-7637428D01*
X16324364Y-7660000D01*
X17485199Y-7660000D01*
X19086200Y-9261002D01*
X19109999Y-9290001D01*
X19138997Y-9313799D01*
X19225723Y-9384974D01*
X19357753Y-9455546D01*
X19501014Y-9499003D01*
X19612667Y-9510000D01*
X19612677Y-9510000D01*
X19650000Y-9513676D01*
X19687323Y-9510000D01*
X28935199Y-9510000D01*
X29465000Y-10039802D01*
X29465000Y-10101939D01*
X29504774Y-10301898D01*
X29582795Y-10490256D01*
X29696063Y-10659774D01*
X29840226Y-10803937D01*
X30009744Y-10917205D01*
X30198102Y-10995226D01*
X30398061Y-11035000D01*
X30601939Y-11035000D01*
X30801898Y-10995226D01*
X30990256Y-10917205D01*
X31159774Y-10803937D01*
X31203711Y-10760000D01*
X42962678Y-10760000D01*
X43000000Y-10763676D01*
X43037322Y-10760000D01*
X43037333Y-10760000D01*
X43148986Y-10749003D01*
X43292247Y-10705546D01*
X43424276Y-10634974D01*
X43540001Y-10540001D01*
X43563804Y-10510997D01*
X44090001Y-9984800D01*
X44090000Y-10746289D01*
X44046063Y-10790226D01*
X43932795Y-10959744D01*
X43854774Y-11148102D01*
X43815000Y-11348061D01*
X43815000Y-11414831D01*
X43765026Y-11475724D01*
X43694454Y-11607754D01*
X43681332Y-11651014D01*
X43653658Y-11742247D01*
X43650998Y-11751015D01*
X43636324Y-11900000D01*
X43640001Y-11937332D01*
X43640000Y-17785198D01*
X43135199Y-18290000D01*
X31917150Y-18290000D01*
X32017205Y-18140256D01*
X32095226Y-17951898D01*
X32135000Y-17751939D01*
X32135000Y-17548061D01*
X32095226Y-17348102D01*
X32017205Y-17159744D01*
X31910468Y-17000000D01*
X32017205Y-16840256D01*
X32095226Y-16651898D01*
X32135000Y-16451939D01*
X32135000Y-16248061D01*
X32095226Y-16048102D01*
X32017205Y-15859744D01*
X31903937Y-15690226D01*
X31759774Y-15546063D01*
X31590256Y-15432795D01*
X31401898Y-15354774D01*
X31201939Y-15315000D01*
X31139802Y-15315000D01*
X28663804Y-12839003D01*
X28640001Y-12809999D01*
X28524276Y-12715026D01*
X28392247Y-12644454D01*
X28248986Y-12600997D01*
X28137333Y-12590000D01*
X28137322Y-12590000D01*
X28100000Y-12586324D01*
X28062678Y-12590000D01*
X18066555Y-12590000D01*
X18313319Y-12492652D01*
X18571286Y-12326536D01*
X18791889Y-12113285D01*
X18966650Y-11861094D01*
X19088853Y-11579655D01*
X19114812Y-11468664D01*
X18994483Y-11227000D01*
X17127000Y-11227000D01*
X17127000Y-11247000D01*
X16873000Y-11247000D01*
X16873000Y-11227000D01*
X15005517Y-11227000D01*
X14885188Y-11468664D01*
X14911147Y-11579655D01*
X15033350Y-11861094D01*
X15208111Y-12113285D01*
X15428714Y-12326536D01*
X15686681Y-12492652D01*
X15972099Y-12605249D01*
X16202819Y-12647091D01*
X16075724Y-12715026D01*
X16075722Y-12715027D01*
X16075723Y-12715027D01*
X15988996Y-12786201D01*
X15988992Y-12786205D01*
X15959999Y-12809999D01*
X15936205Y-12838992D01*
X14038998Y-14736201D01*
X14010000Y-14759999D01*
X13986202Y-14788997D01*
X13986201Y-14788998D01*
X13915026Y-14875724D01*
X13844454Y-15007754D01*
X13823205Y-15077805D01*
X13800998Y-15151014D01*
X13798264Y-15178769D01*
X13786324Y-15300000D01*
X13790001Y-15337332D01*
X13790000Y-17685198D01*
X11985199Y-19490000D01*
X4775620Y-19490000D01*
X4748918Y-19425537D01*
X4569987Y-19157748D01*
X4342252Y-18930013D01*
X4074463Y-18751082D01*
X3861441Y-18662845D01*
X9416761Y-18662845D01*
X9584802Y-18988643D01*
X9976607Y-19189426D01*
X10400055Y-19309914D01*
X10838873Y-19345476D01*
X11276197Y-19294746D01*
X11695221Y-19159674D01*
X12015198Y-18988643D01*
X12183239Y-18662845D01*
X10800000Y-17279605D01*
X9416761Y-18662845D01*
X3861441Y-18662845D01*
X3776912Y-18627832D01*
X3461033Y-18565000D01*
X3138967Y-18565000D01*
X2823088Y-18627832D01*
X2525537Y-18751082D01*
X2257748Y-18930013D01*
X2030013Y-19157748D01*
X1851082Y-19425537D01*
X1727832Y-19723088D01*
X1665000Y-20038967D01*
X1665000Y-20361033D01*
X1727832Y-20676912D01*
X1851082Y-20974463D01*
X2030013Y-21242252D01*
X2257748Y-21469987D01*
X2354935Y-21534925D01*
X2344192Y-21564587D01*
X3300000Y-22520395D01*
X4255808Y-21564587D01*
X4245065Y-21534925D01*
X4342252Y-21469987D01*
X4569987Y-21242252D01*
X4725173Y-21010000D01*
X5165199Y-21010000D01*
X5039002Y-21136197D01*
X5009999Y-21159999D01*
X4958838Y-21222340D01*
X4915026Y-21275724D01*
X4874310Y-21351898D01*
X4844454Y-21407754D01*
X4800997Y-21551015D01*
X4790000Y-21662668D01*
X4790000Y-21662678D01*
X4786324Y-21700000D01*
X4790000Y-21737323D01*
X4790000Y-22008683D01*
X4699814Y-21839956D01*
X4435413Y-21744192D01*
X3479605Y-22700000D01*
X3493748Y-22714143D01*
X3314143Y-22893748D01*
X3300000Y-22879605D01*
X3285858Y-22893748D01*
X3106253Y-22714143D01*
X3120395Y-22700000D01*
X2164587Y-21744192D01*
X1900186Y-21839956D01*
X1759296Y-22129571D01*
X1677616Y-22441108D01*
X1658282Y-22762595D01*
X1702039Y-23081675D01*
X1807205Y-23386088D01*
X1900186Y-23560044D01*
X2049223Y-23614024D01*
X1945506Y-23669463D01*
X1848815Y-23748815D01*
X1769463Y-23845506D01*
X1710498Y-23955820D01*
X1674188Y-24075518D01*
X1661928Y-24200000D01*
X1661928Y-26200000D01*
X1674188Y-26324482D01*
X1710498Y-26444180D01*
X1769463Y-26554494D01*
X1848815Y-26651185D01*
X1945506Y-26730537D01*
X2055820Y-26789502D01*
X2175518Y-26825812D01*
X2300000Y-26838072D01*
X4300000Y-26838072D01*
X4424482Y-26825812D01*
X4544180Y-26789502D01*
X4642112Y-26737155D01*
X9416761Y-26737155D01*
X10800000Y-28120395D01*
X12183239Y-26737155D01*
X12015198Y-26411357D01*
X11623393Y-26210574D01*
X11199945Y-26090086D01*
X10761127Y-26054524D01*
X10323803Y-26105254D01*
X9904779Y-26240326D01*
X9584802Y-26411357D01*
X9416761Y-26737155D01*
X4642112Y-26737155D01*
X4654494Y-26730537D01*
X4751185Y-26651185D01*
X4830537Y-26554494D01*
X4889502Y-26444180D01*
X4925812Y-26324482D01*
X4938072Y-26200000D01*
X4938072Y-25873652D01*
X5040001Y-25790001D01*
X5063804Y-25760998D01*
X6061003Y-24763799D01*
X6090001Y-24740001D01*
X6184974Y-24624276D01*
X6255546Y-24492247D01*
X6299003Y-24348986D01*
X6310000Y-24237333D01*
X6310000Y-24237324D01*
X6313676Y-24200001D01*
X6310000Y-24162678D01*
X6310000Y-22014801D01*
X6864793Y-21460010D01*
X12462668Y-21460010D01*
X12499990Y-21463686D01*
X12537312Y-21460010D01*
X12537323Y-21460010D01*
X12648976Y-21449013D01*
X12792237Y-21405556D01*
X12924266Y-21334984D01*
X13039991Y-21240011D01*
X13063794Y-21211007D01*
X13065000Y-21209801D01*
X13065001Y-28906521D01*
X13060719Y-28950000D01*
X13077805Y-29123490D01*
X13128412Y-29290313D01*
X13210590Y-29444059D01*
X13293468Y-29545046D01*
X13293471Y-29545049D01*
X13321184Y-29578817D01*
X13354952Y-29606530D01*
X19465000Y-35716579D01*
X19465000Y-35832737D01*
X19390256Y-35782795D01*
X19201898Y-35704774D01*
X19001939Y-35665000D01*
X18798061Y-35665000D01*
X18598102Y-35704774D01*
X18409744Y-35782795D01*
X18240226Y-35896063D01*
X18096063Y-36040226D01*
X17982795Y-36209744D01*
X17904774Y-36398102D01*
X17865000Y-36598061D01*
X17865000Y-36801939D01*
X17899330Y-36974528D01*
X17213804Y-36289003D01*
X17190001Y-36259999D01*
X17074276Y-36165026D01*
X16942247Y-36094454D01*
X16798986Y-36050997D01*
X16687333Y-36040000D01*
X16687322Y-36040000D01*
X16650000Y-36036324D01*
X16612678Y-36040000D01*
X16203711Y-36040000D01*
X16159774Y-35996063D01*
X15990256Y-35882795D01*
X15801898Y-35804774D01*
X15601939Y-35765000D01*
X15398061Y-35765000D01*
X15198102Y-35804774D01*
X15009744Y-35882795D01*
X14840226Y-35996063D01*
X14696063Y-36140226D01*
X14582795Y-36309744D01*
X14504774Y-36498102D01*
X14465000Y-36698061D01*
X14465000Y-36901939D01*
X14504774Y-37101898D01*
X14582795Y-37290256D01*
X14696063Y-37459774D01*
X14840226Y-37603937D01*
X15009744Y-37717205D01*
X15198102Y-37795226D01*
X15398061Y-37835000D01*
X15601939Y-37835000D01*
X15801898Y-37795226D01*
X15990256Y-37717205D01*
X16159774Y-37603937D01*
X16203711Y-37560000D01*
X16335199Y-37560000D01*
X17686200Y-38911002D01*
X17709999Y-38940001D01*
X17825724Y-39034974D01*
X17957753Y-39105546D01*
X18101014Y-39149003D01*
X18212667Y-39160000D01*
X18212675Y-39160000D01*
X18250000Y-39163676D01*
X18287325Y-39160000D01*
X19435199Y-39160000D01*
X24236205Y-43961008D01*
X24259999Y-43990001D01*
X24288992Y-44013795D01*
X24288996Y-44013799D01*
X24359685Y-44071811D01*
X24375724Y-44084974D01*
X24507753Y-44155546D01*
X24651014Y-44199003D01*
X24762667Y-44210000D01*
X24762676Y-44210000D01*
X24799999Y-44213676D01*
X24837322Y-44210000D01*
X59262678Y-44210000D01*
X59300000Y-44213676D01*
X59337322Y-44210000D01*
X59337333Y-44210000D01*
X59448986Y-44199003D01*
X59592247Y-44155546D01*
X59724276Y-44084974D01*
X59840001Y-43990001D01*
X59863804Y-43960997D01*
X61431212Y-42393589D01*
X82642000Y-42393589D01*
X82642000Y-42666411D01*
X82695225Y-42933989D01*
X82799629Y-43186043D01*
X82951201Y-43412886D01*
X83144114Y-43605799D01*
X83370957Y-43757371D01*
X83623011Y-43861775D01*
X83890589Y-43915000D01*
X84163411Y-43915000D01*
X84430989Y-43861775D01*
X84683043Y-43757371D01*
X84909886Y-43605799D01*
X85102799Y-43412886D01*
X85254371Y-43186043D01*
X85358775Y-42933989D01*
X85412000Y-42666411D01*
X85412000Y-42393589D01*
X85358775Y-42126011D01*
X85254371Y-41873957D01*
X85102799Y-41647114D01*
X84909886Y-41454201D01*
X84683043Y-41302629D01*
X84430989Y-41198225D01*
X84163411Y-41145000D01*
X83890589Y-41145000D01*
X83623011Y-41198225D01*
X83370957Y-41302629D01*
X83144114Y-41454201D01*
X82951201Y-41647114D01*
X82799629Y-41873957D01*
X82695225Y-42126011D01*
X82642000Y-42393589D01*
X61431212Y-42393589D01*
X68561004Y-35263798D01*
X68590001Y-35240001D01*
X68684974Y-35124276D01*
X68755546Y-34992247D01*
X68799003Y-34848986D01*
X68810000Y-34737333D01*
X68810000Y-34737325D01*
X68813676Y-34700000D01*
X68810000Y-34662675D01*
X68810000Y-18193589D01*
X82642000Y-18193589D01*
X82642000Y-18466411D01*
X82695225Y-18733989D01*
X82799629Y-18986043D01*
X82951201Y-19212886D01*
X83144114Y-19405799D01*
X83370957Y-19557371D01*
X83623011Y-19661775D01*
X83890589Y-19715000D01*
X84163411Y-19715000D01*
X84430989Y-19661775D01*
X84683043Y-19557371D01*
X84909886Y-19405799D01*
X85102799Y-19212886D01*
X85254371Y-18986043D01*
X85358775Y-18733989D01*
X85412000Y-18466411D01*
X85412000Y-18193589D01*
X85358775Y-17926011D01*
X85254371Y-17673957D01*
X85102799Y-17447114D01*
X84909886Y-17254201D01*
X84683043Y-17102629D01*
X84430989Y-16998225D01*
X84163411Y-16945000D01*
X83890589Y-16945000D01*
X83623011Y-16998225D01*
X83370957Y-17102629D01*
X83144114Y-17254201D01*
X82951201Y-17447114D01*
X82799629Y-17673957D01*
X82695225Y-17926011D01*
X82642000Y-18193589D01*
X68810000Y-18193589D01*
X68810000Y-11414801D01*
X69474801Y-10750000D01*
X80861928Y-10750000D01*
X80861928Y-12750000D01*
X80874188Y-12874482D01*
X80910498Y-12994180D01*
X80969463Y-13104494D01*
X81048815Y-13201185D01*
X81145506Y-13280537D01*
X81255820Y-13339502D01*
X81375518Y-13375812D01*
X81500000Y-13388072D01*
X83500000Y-13388072D01*
X83624482Y-13375812D01*
X83744180Y-13339502D01*
X83854494Y-13280537D01*
X83951185Y-13201185D01*
X84030537Y-13104494D01*
X84089502Y-12994180D01*
X84125812Y-12874482D01*
X84138072Y-12750000D01*
X84138072Y-10750000D01*
X84125812Y-10625518D01*
X84089502Y-10505820D01*
X84030537Y-10395506D01*
X83951185Y-10298815D01*
X83854494Y-10219463D01*
X83744180Y-10160498D01*
X83624482Y-10124188D01*
X83500000Y-10111928D01*
X81500000Y-10111928D01*
X81375518Y-10124188D01*
X81255820Y-10160498D01*
X81145506Y-10219463D01*
X81048815Y-10298815D01*
X80969463Y-10395506D01*
X80910498Y-10505820D01*
X80874188Y-10625518D01*
X80861928Y-10750000D01*
X69474801Y-10750000D01*
X70524801Y-9700000D01*
X71911928Y-9700000D01*
X71924188Y-9824482D01*
X71960498Y-9944180D01*
X72019463Y-10054494D01*
X72098815Y-10151185D01*
X72195506Y-10230537D01*
X72305820Y-10289502D01*
X72425518Y-10325812D01*
X72550000Y-10338072D01*
X73164250Y-10335000D01*
X73323000Y-10176250D01*
X73323000Y-8927000D01*
X73577000Y-8927000D01*
X73577000Y-10176250D01*
X73735750Y-10335000D01*
X74350000Y-10338072D01*
X74474482Y-10325812D01*
X74594180Y-10289502D01*
X74704494Y-10230537D01*
X74801185Y-10151185D01*
X74880537Y-10054494D01*
X74939502Y-9944180D01*
X74975812Y-9824482D01*
X74988072Y-9700000D01*
X74985000Y-9085750D01*
X74826250Y-8927000D01*
X73577000Y-8927000D01*
X73323000Y-8927000D01*
X72073750Y-8927000D01*
X71915000Y-9085750D01*
X71911928Y-9700000D01*
X70524801Y-9700000D01*
X71361004Y-8863798D01*
X71390001Y-8840001D01*
X71419598Y-8803937D01*
X71484974Y-8724277D01*
X71555546Y-8592247D01*
X71555546Y-8592246D01*
X71599003Y-8448986D01*
X71610000Y-8337333D01*
X71610000Y-8337323D01*
X71613676Y-8300000D01*
X71610000Y-8262677D01*
X71610000Y-7900000D01*
X71911928Y-7900000D01*
X71915000Y-8514250D01*
X72073750Y-8673000D01*
X73323000Y-8673000D01*
X73323000Y-8653000D01*
X73577000Y-8653000D01*
X73577000Y-8673000D01*
X74826250Y-8673000D01*
X74985000Y-8514250D01*
X74988072Y-7900000D01*
X74975812Y-7775518D01*
X74939502Y-7655820D01*
X74880537Y-7545506D01*
X74801185Y-7448815D01*
X74704494Y-7369463D01*
X74594180Y-7310498D01*
X74575873Y-7304944D01*
X74642312Y-7238505D01*
X74810299Y-6987095D01*
X74926011Y-6707743D01*
X74985000Y-6411184D01*
X74985000Y-6108816D01*
X74926011Y-5812257D01*
X74810299Y-5532905D01*
X74642312Y-5281495D01*
X74428505Y-5067688D01*
X74177095Y-4899701D01*
X73897743Y-4783989D01*
X73601184Y-4725000D01*
X73298816Y-4725000D01*
X73002257Y-4783989D01*
X72722905Y-4899701D01*
X72471495Y-5067688D01*
X72257688Y-5281495D01*
X72089701Y-5532905D01*
X71973989Y-5812257D01*
X71915000Y-6108816D01*
X71915000Y-6411184D01*
X71973989Y-6707743D01*
X72089701Y-6987095D01*
X72257688Y-7238505D01*
X72324127Y-7304944D01*
X72305820Y-7310498D01*
X72195506Y-7369463D01*
X72098815Y-7448815D01*
X72019463Y-7545506D01*
X71960498Y-7655820D01*
X71924188Y-7775518D01*
X71911928Y-7900000D01*
X71610000Y-7900000D01*
X71610000Y-7387322D01*
X71613676Y-7349999D01*
X71610000Y-7312676D01*
X71610000Y-7312667D01*
X71599003Y-7201014D01*
X71555546Y-7057753D01*
X71524134Y-6998986D01*
X71484974Y-6925723D01*
X71413799Y-6838997D01*
X71390001Y-6809999D01*
X71361002Y-6786200D01*
X70975655Y-6400854D01*
X70917205Y-6259744D01*
X70803937Y-6090226D01*
X70659774Y-5946063D01*
X70490256Y-5832795D01*
X70301898Y-5754774D01*
X70101939Y-5715000D01*
X69898061Y-5715000D01*
X69698102Y-5754774D01*
X69509744Y-5832795D01*
X69340226Y-5946063D01*
X69196063Y-6090226D01*
X69082795Y-6259744D01*
X69004774Y-6448102D01*
X68965000Y-6648061D01*
X68965000Y-6851939D01*
X69004774Y-7051898D01*
X69082795Y-7240256D01*
X69172828Y-7375000D01*
X69082795Y-7509744D01*
X69004774Y-7698102D01*
X68965000Y-7898061D01*
X68965000Y-8101939D01*
X68991257Y-8233941D01*
X66988998Y-10236201D01*
X66960000Y-10259999D01*
X66936202Y-10288997D01*
X66936201Y-10288998D01*
X66865026Y-10375724D01*
X66794454Y-10507754D01*
X66769810Y-10588998D01*
X66750998Y-10651014D01*
X66746075Y-10700998D01*
X66736324Y-10800000D01*
X66740001Y-10837333D01*
X66740000Y-34285198D01*
X64660000Y-36365198D01*
X64660000Y-26337322D01*
X64663676Y-26299999D01*
X64660000Y-26262676D01*
X64660000Y-26262667D01*
X64649003Y-26151014D01*
X64605546Y-26007753D01*
X64587752Y-25974463D01*
X64534974Y-25875723D01*
X64463799Y-25788997D01*
X64440001Y-25759999D01*
X64411004Y-25736202D01*
X60913804Y-22239003D01*
X60890001Y-22209999D01*
X60774276Y-22115026D01*
X60642247Y-22044454D01*
X60498986Y-22000997D01*
X60387333Y-21990000D01*
X60387322Y-21990000D01*
X60350000Y-21986324D01*
X60312678Y-21990000D01*
X59962224Y-21990000D01*
X60017256Y-21967205D01*
X60186774Y-21853937D01*
X60330937Y-21709774D01*
X60444205Y-21540256D01*
X60522226Y-21351898D01*
X60562000Y-21151939D01*
X60562000Y-20948061D01*
X60522226Y-20748102D01*
X60444205Y-20559744D01*
X60330937Y-20390226D01*
X60186774Y-20246063D01*
X60017256Y-20132795D01*
X59828898Y-20054774D01*
X59628939Y-20015000D01*
X59425061Y-20015000D01*
X59225102Y-20054774D01*
X59036744Y-20132795D01*
X58867226Y-20246063D01*
X58823289Y-20290000D01*
X48837322Y-20290000D01*
X48799999Y-20286324D01*
X48762677Y-20290000D01*
X48762667Y-20290000D01*
X48651014Y-20300997D01*
X48515200Y-20342195D01*
X48507753Y-20344454D01*
X48375723Y-20415026D01*
X48297057Y-20479586D01*
X48259999Y-20509999D01*
X48236201Y-20538997D01*
X45535199Y-23240000D01*
X30917311Y-23240000D01*
X30995226Y-23051898D01*
X31035000Y-22851939D01*
X31035000Y-22648061D01*
X31007538Y-22510000D01*
X43412678Y-22510000D01*
X43450000Y-22513676D01*
X43487322Y-22510000D01*
X43487333Y-22510000D01*
X43598986Y-22499003D01*
X43742247Y-22455546D01*
X43874276Y-22384974D01*
X43990001Y-22290001D01*
X44013804Y-22260997D01*
X46711003Y-19563799D01*
X46740001Y-19540001D01*
X46834974Y-19424276D01*
X46905546Y-19292247D01*
X46949003Y-19148986D01*
X46960000Y-19037333D01*
X46960000Y-19037324D01*
X46963676Y-19000001D01*
X46960000Y-18962678D01*
X46960000Y-16199116D01*
X48367845Y-14791272D01*
X48498102Y-14845226D01*
X48698061Y-14885000D01*
X48901939Y-14885000D01*
X49101898Y-14845226D01*
X49290256Y-14767205D01*
X49459774Y-14653937D01*
X49603937Y-14509774D01*
X49717205Y-14340256D01*
X49795226Y-14151898D01*
X49835000Y-13951939D01*
X49835000Y-13748061D01*
X49795226Y-13548102D01*
X49717205Y-13359744D01*
X49603937Y-13190226D01*
X49459774Y-13046063D01*
X49290256Y-12932795D01*
X49101898Y-12854774D01*
X48901939Y-12815000D01*
X48698061Y-12815000D01*
X48498102Y-12854774D01*
X48309744Y-12932795D01*
X48140226Y-13046063D01*
X48085276Y-13101013D01*
X47942068Y-13144454D01*
X47810039Y-13215026D01*
X47694314Y-13309999D01*
X47670516Y-13338997D01*
X46010000Y-14999514D01*
X46010000Y-13164801D01*
X48254506Y-10920296D01*
X48309744Y-10957205D01*
X48498102Y-11035226D01*
X48698061Y-11075000D01*
X48901939Y-11075000D01*
X49101898Y-11035226D01*
X49290256Y-10957205D01*
X49459774Y-10843937D01*
X49603937Y-10699774D01*
X49717205Y-10530256D01*
X49795226Y-10341898D01*
X49835000Y-10141939D01*
X49835000Y-10059802D01*
X50090001Y-10314803D01*
X50090000Y-15096289D01*
X50046063Y-15140226D01*
X49932795Y-15309744D01*
X49854774Y-15498102D01*
X49815000Y-15698061D01*
X49815000Y-15901939D01*
X49854774Y-16101898D01*
X49932795Y-16290256D01*
X50046063Y-16459774D01*
X50190226Y-16603937D01*
X50359744Y-16717205D01*
X50548102Y-16795226D01*
X50748061Y-16835000D01*
X50951939Y-16835000D01*
X51151898Y-16795226D01*
X51340256Y-16717205D01*
X51509774Y-16603937D01*
X51653937Y-16459774D01*
X51767205Y-16290256D01*
X51845226Y-16101898D01*
X51885000Y-15901939D01*
X51885000Y-15848061D01*
X53865000Y-15848061D01*
X53865000Y-16051939D01*
X53904774Y-16251898D01*
X53982795Y-16440256D01*
X54096063Y-16609774D01*
X54240226Y-16753937D01*
X54409744Y-16867205D01*
X54598102Y-16945226D01*
X54798061Y-16985000D01*
X55001939Y-16985000D01*
X55201898Y-16945226D01*
X55390256Y-16867205D01*
X55438454Y-16835000D01*
X59606531Y-16835000D01*
X59650000Y-16839281D01*
X59693469Y-16835000D01*
X59693477Y-16835000D01*
X59823490Y-16822195D01*
X59990313Y-16771589D01*
X60144059Y-16689411D01*
X60278817Y-16578817D01*
X60306534Y-16545044D01*
X62866579Y-13985000D01*
X63111546Y-13985000D01*
X63159744Y-14017205D01*
X63348102Y-14095226D01*
X63548061Y-14135000D01*
X63751939Y-14135000D01*
X63951898Y-14095226D01*
X64140256Y-14017205D01*
X64309774Y-13903937D01*
X64453937Y-13759774D01*
X64567205Y-13590256D01*
X64645226Y-13401898D01*
X64685000Y-13201939D01*
X64685000Y-12998061D01*
X64645226Y-12798102D01*
X64567205Y-12609744D01*
X64453937Y-12440226D01*
X64309774Y-12296063D01*
X64140256Y-12182795D01*
X63951898Y-12104774D01*
X63751939Y-12065000D01*
X63548061Y-12065000D01*
X63348102Y-12104774D01*
X63159744Y-12182795D01*
X63111546Y-12215000D01*
X62543469Y-12215000D01*
X62500000Y-12210719D01*
X62456531Y-12215000D01*
X62456523Y-12215000D01*
X62326510Y-12227805D01*
X62159686Y-12278411D01*
X62005941Y-12360589D01*
X61904953Y-12443468D01*
X61904951Y-12443470D01*
X61871183Y-12471183D01*
X61843470Y-12504951D01*
X59283422Y-15065000D01*
X55438454Y-15065000D01*
X55390256Y-15032795D01*
X55201898Y-14954774D01*
X55001939Y-14915000D01*
X54798061Y-14915000D01*
X54598102Y-14954774D01*
X54409744Y-15032795D01*
X54240226Y-15146063D01*
X54096063Y-15290226D01*
X53982795Y-15459744D01*
X53904774Y-15648102D01*
X53865000Y-15848061D01*
X51885000Y-15848061D01*
X51885000Y-15698061D01*
X51845226Y-15498102D01*
X51767205Y-15309744D01*
X51653937Y-15140226D01*
X51610000Y-15096289D01*
X51610000Y-10684801D01*
X55136201Y-14211003D01*
X55159999Y-14240001D01*
X55188997Y-14263799D01*
X55275723Y-14334974D01*
X55378671Y-14390001D01*
X55407753Y-14405546D01*
X55551014Y-14449003D01*
X55662667Y-14460000D01*
X55662676Y-14460000D01*
X55699999Y-14463676D01*
X55737322Y-14460000D01*
X59512678Y-14460000D01*
X59550000Y-14463676D01*
X59587322Y-14460000D01*
X59587333Y-14460000D01*
X59698986Y-14449003D01*
X59842247Y-14405546D01*
X59974276Y-14334974D01*
X60090001Y-14240001D01*
X60113804Y-14210997D01*
X61961004Y-12363798D01*
X61990001Y-12340001D01*
X62084974Y-12224276D01*
X62155546Y-12092247D01*
X62199003Y-11948986D01*
X62210000Y-11837333D01*
X62210000Y-11837325D01*
X62213676Y-11800000D01*
X62210000Y-11762675D01*
X62210000Y-6587322D01*
X62213676Y-6549999D01*
X62210000Y-6512676D01*
X62210000Y-6512667D01*
X62199003Y-6401014D01*
X62155546Y-6257753D01*
X62084974Y-6125724D01*
X61990001Y-6009999D01*
X61961003Y-5986201D01*
X60335000Y-4360199D01*
X60335000Y-4298061D01*
X60295226Y-4098102D01*
X60250021Y-3988967D01*
X80865000Y-3988967D01*
X80865000Y-4311033D01*
X80927832Y-4626912D01*
X81051082Y-4924463D01*
X81230013Y-5192252D01*
X81457748Y-5419987D01*
X81725537Y-5598918D01*
X82023088Y-5722168D01*
X82338967Y-5785000D01*
X82661033Y-5785000D01*
X82976912Y-5722168D01*
X83274463Y-5598918D01*
X83542252Y-5419987D01*
X83769987Y-5192252D01*
X83948918Y-4924463D01*
X84072168Y-4626912D01*
X84135000Y-4311033D01*
X84135000Y-3988967D01*
X84072168Y-3673088D01*
X83948918Y-3375537D01*
X83769987Y-3107748D01*
X83542252Y-2880013D01*
X83274463Y-2701082D01*
X82976912Y-2577832D01*
X82661033Y-2515000D01*
X82338967Y-2515000D01*
X82023088Y-2577832D01*
X81725537Y-2701082D01*
X81457748Y-2880013D01*
X81230013Y-3107748D01*
X81051082Y-3375537D01*
X80927832Y-3673088D01*
X80865000Y-3988967D01*
X60250021Y-3988967D01*
X60217205Y-3909744D01*
X60103937Y-3740226D01*
X59959774Y-3596063D01*
X59790256Y-3482795D01*
X59601898Y-3404774D01*
X59401939Y-3365000D01*
X59198061Y-3365000D01*
X58998102Y-3404774D01*
X58809744Y-3482795D01*
X58640226Y-3596063D01*
X58496063Y-3740226D01*
X58382795Y-3909744D01*
X58304774Y-4098102D01*
X58265000Y-4298061D01*
X58265000Y-4501939D01*
X58304774Y-4701898D01*
X58382795Y-4890256D01*
X58496063Y-5059774D01*
X58640226Y-5203937D01*
X58809744Y-5317205D01*
X58998102Y-5395226D01*
X59198061Y-5435000D01*
X59260199Y-5435000D01*
X60690001Y-6864803D01*
X60690000Y-11485198D01*
X59235199Y-12940000D01*
X56014802Y-12940000D01*
X53634802Y-10560000D01*
X57185199Y-10560000D01*
X58165000Y-11539802D01*
X58165000Y-11601939D01*
X58204774Y-11801898D01*
X58282795Y-11990256D01*
X58396063Y-12159774D01*
X58540226Y-12303937D01*
X58709744Y-12417205D01*
X58898102Y-12495226D01*
X59098061Y-12535000D01*
X59301939Y-12535000D01*
X59501898Y-12495226D01*
X59690256Y-12417205D01*
X59859774Y-12303937D01*
X60003937Y-12159774D01*
X60117205Y-11990256D01*
X60195226Y-11801898D01*
X60235000Y-11601939D01*
X60235000Y-11398061D01*
X60195226Y-11198102D01*
X60117205Y-11009744D01*
X60003937Y-10840226D01*
X59859774Y-10696063D01*
X59690256Y-10582795D01*
X59501898Y-10504774D01*
X59301939Y-10465000D01*
X59239802Y-10465000D01*
X58063804Y-9289003D01*
X58040001Y-9259999D01*
X57924276Y-9165026D01*
X57792247Y-9094454D01*
X57648986Y-9050997D01*
X57537333Y-9040000D01*
X57537322Y-9040000D01*
X57500000Y-9036324D01*
X57462678Y-9040000D01*
X53614802Y-9040000D01*
X50913804Y-6339003D01*
X50890001Y-6309999D01*
X50774276Y-6215026D01*
X50642247Y-6144454D01*
X50498986Y-6100997D01*
X50387333Y-6090000D01*
X50387322Y-6090000D01*
X50350000Y-6086324D01*
X50312678Y-6090000D01*
X48927000Y-6090000D01*
X48927000Y-5236022D01*
X51920251Y-5236022D01*
X51976379Y-5736412D01*
X52128631Y-6216370D01*
X52371207Y-6657615D01*
X52694869Y-7043340D01*
X53087287Y-7358852D01*
X53533515Y-7592134D01*
X54016556Y-7734301D01*
X54518012Y-7779937D01*
X55018781Y-7727304D01*
X55499790Y-7578407D01*
X55942718Y-7338917D01*
X56330693Y-7017956D01*
X56648937Y-6627750D01*
X56885329Y-6183162D01*
X57030864Y-5701125D01*
X57080000Y-5200000D01*
X57078994Y-5127962D01*
X57015885Y-4628405D01*
X56856947Y-4150619D01*
X56608234Y-3712805D01*
X56279218Y-3331637D01*
X55882433Y-3021634D01*
X55432991Y-2794605D01*
X54948012Y-2659196D01*
X54445969Y-2620566D01*
X53945983Y-2680186D01*
X53467099Y-2835784D01*
X53027559Y-3081435D01*
X52644103Y-3407781D01*
X52331338Y-3802393D01*
X52101177Y-4250239D01*
X51962386Y-4734261D01*
X51920251Y-5236022D01*
X48927000Y-5236022D01*
X48927000Y-660000D01*
X89340000Y-660000D01*
X89340000Y-18538810D01*
X85980000Y-18538810D01*
X85980000Y-37061191D01*
X89340001Y-37061191D01*
X89340001Y-44340000D01*
X660000Y-44340000D01*
X660000Y-43317609D01*
X919038Y-43317609D01*
X922909Y-43355282D01*
X1015079Y-43580533D01*
X1149422Y-43783474D01*
X1320775Y-43956307D01*
X1522554Y-44092390D01*
X1747004Y-44186493D01*
X1985500Y-44235000D01*
X2335500Y-44235000D01*
X2335500Y-43127000D01*
X2589500Y-43127000D01*
X2589500Y-44235000D01*
X2939500Y-44235000D01*
X3177996Y-44186493D01*
X3402446Y-44092390D01*
X3604225Y-43956307D01*
X3775578Y-43783474D01*
X3909921Y-43580533D01*
X4002091Y-43355282D01*
X4005962Y-43317609D01*
X3881231Y-43127000D01*
X2589500Y-43127000D01*
X2335500Y-43127000D01*
X1043769Y-43127000D01*
X919038Y-43317609D01*
X660000Y-43317609D01*
X660000Y-42939133D01*
X4402972Y-42939133D01*
X4465465Y-43175450D01*
X4708178Y-43288850D01*
X4968349Y-43352719D01*
X5235982Y-43364604D01*
X5500791Y-43324048D01*
X5752600Y-43232609D01*
X5859535Y-43175450D01*
X5922028Y-42939133D01*
X5162500Y-42179605D01*
X4402972Y-42939133D01*
X660000Y-42939133D01*
X660000Y-42682391D01*
X919038Y-42682391D01*
X1043769Y-42873000D01*
X2335500Y-42873000D01*
X2335500Y-42853000D01*
X2589500Y-42853000D01*
X2589500Y-42873000D01*
X3881231Y-42873000D01*
X3995003Y-42699138D01*
X4223367Y-42759528D01*
X4982895Y-42000000D01*
X5342105Y-42000000D01*
X6101633Y-42759528D01*
X6337950Y-42697035D01*
X6451350Y-42454322D01*
X6515219Y-42194151D01*
X6527104Y-41926518D01*
X6486548Y-41661709D01*
X6395109Y-41409900D01*
X6337950Y-41302965D01*
X6101633Y-41240472D01*
X5342105Y-42000000D01*
X4982895Y-42000000D01*
X4223367Y-41240472D01*
X3987050Y-41302965D01*
X3873650Y-41545678D01*
X3809781Y-41805849D01*
X3797896Y-42073482D01*
X3833115Y-42303442D01*
X3775578Y-42216526D01*
X3604225Y-42043693D01*
X3402446Y-41907610D01*
X3177996Y-41813507D01*
X2939500Y-41765000D01*
X1985500Y-41765000D01*
X1747004Y-41813507D01*
X1522554Y-41907610D01*
X1320775Y-42043693D01*
X1149422Y-42216526D01*
X1015079Y-42419467D01*
X922909Y-42644718D01*
X919038Y-42682391D01*
X660000Y-42682391D01*
X660000Y-41060867D01*
X4402972Y-41060867D01*
X5162500Y-41820395D01*
X5922028Y-41060867D01*
X5859535Y-40824550D01*
X5616822Y-40711150D01*
X5356651Y-40647281D01*
X5089018Y-40635396D01*
X4824209Y-40675952D01*
X4572400Y-40767391D01*
X4465465Y-40824550D01*
X4402972Y-41060867D01*
X660000Y-41060867D01*
X660000Y-37939133D01*
X4402972Y-37939133D01*
X4465465Y-38175450D01*
X4708178Y-38288850D01*
X4968349Y-38352719D01*
X5235982Y-38364604D01*
X5500791Y-38324048D01*
X5752600Y-38232609D01*
X5859535Y-38175450D01*
X5922028Y-37939133D01*
X5162500Y-37179605D01*
X4402972Y-37939133D01*
X660000Y-37939133D01*
X660000Y-36317609D01*
X919038Y-36317609D01*
X922909Y-36355282D01*
X1015079Y-36580533D01*
X1149422Y-36783474D01*
X1320775Y-36956307D01*
X1522554Y-37092390D01*
X1747004Y-37186493D01*
X1985500Y-37235000D01*
X2335500Y-37235000D01*
X2335500Y-36127000D01*
X2589500Y-36127000D01*
X2589500Y-37235000D01*
X2939500Y-37235000D01*
X3177996Y-37186493D01*
X3402446Y-37092390D01*
X3604225Y-36956307D01*
X3775578Y-36783474D01*
X3838671Y-36688164D01*
X3809781Y-36805849D01*
X3797896Y-37073482D01*
X3838452Y-37338291D01*
X3929891Y-37590100D01*
X3987050Y-37697035D01*
X4223367Y-37759528D01*
X4982895Y-37000000D01*
X5342105Y-37000000D01*
X6101633Y-37759528D01*
X6337950Y-37697035D01*
X6451350Y-37454322D01*
X6515219Y-37194151D01*
X6527104Y-36926518D01*
X6486548Y-36661709D01*
X6395109Y-36409900D01*
X6337950Y-36302965D01*
X6101633Y-36240472D01*
X5342105Y-37000000D01*
X4982895Y-37000000D01*
X4223367Y-36240472D01*
X3995003Y-36300862D01*
X3881231Y-36127000D01*
X2589500Y-36127000D01*
X2335500Y-36127000D01*
X1043769Y-36127000D01*
X919038Y-36317609D01*
X660000Y-36317609D01*
X660000Y-36060867D01*
X4402972Y-36060867D01*
X5162500Y-36820395D01*
X5922028Y-36060867D01*
X5859535Y-35824550D01*
X5616822Y-35711150D01*
X5356651Y-35647281D01*
X5089018Y-35635396D01*
X4824209Y-35675952D01*
X4572400Y-35767391D01*
X4465465Y-35824550D01*
X4402972Y-36060867D01*
X660000Y-36060867D01*
X660000Y-35682391D01*
X919038Y-35682391D01*
X1043769Y-35873000D01*
X2335500Y-35873000D01*
X2335500Y-35853000D01*
X2589500Y-35853000D01*
X2589500Y-35873000D01*
X3881231Y-35873000D01*
X4005962Y-35682391D01*
X4002091Y-35644718D01*
X3909921Y-35419467D01*
X3775578Y-35216526D01*
X3604225Y-35043693D01*
X3402446Y-34907610D01*
X3177996Y-34813507D01*
X2939500Y-34765000D01*
X1985500Y-34765000D01*
X1747004Y-34813507D01*
X1522554Y-34907610D01*
X1320775Y-35043693D01*
X1149422Y-35216526D01*
X1015079Y-35419467D01*
X922909Y-35644718D01*
X919038Y-35682391D01*
X660000Y-35682391D01*
X660000Y-29862845D01*
X9416761Y-29862845D01*
X9584802Y-30188643D01*
X9976607Y-30389426D01*
X10400055Y-30509914D01*
X10838873Y-30545476D01*
X11276197Y-30494746D01*
X11695221Y-30359674D01*
X12015198Y-30188643D01*
X12183239Y-29862845D01*
X10800000Y-28479605D01*
X9416761Y-29862845D01*
X660000Y-29862845D01*
X660000Y-28338873D01*
X8554524Y-28338873D01*
X8605254Y-28776197D01*
X8740326Y-29195221D01*
X8911357Y-29515198D01*
X9237155Y-29683239D01*
X10620395Y-28300000D01*
X10979605Y-28300000D01*
X12362845Y-29683239D01*
X12688643Y-29515198D01*
X12889426Y-29123393D01*
X13009914Y-28699945D01*
X13045476Y-28261127D01*
X12994746Y-27823803D01*
X12859674Y-27404779D01*
X12688643Y-27084802D01*
X12362845Y-26916761D01*
X10979605Y-28300000D01*
X10620395Y-28300000D01*
X9237155Y-26916761D01*
X8911357Y-27084802D01*
X8710574Y-27476607D01*
X8590086Y-27900055D01*
X8554524Y-28338873D01*
X660000Y-28338873D01*
X660000Y-17138873D01*
X8554524Y-17138873D01*
X8605254Y-17576197D01*
X8740326Y-17995221D01*
X8911357Y-18315198D01*
X9237155Y-18483239D01*
X10620395Y-17100000D01*
X10979605Y-17100000D01*
X12362845Y-18483239D01*
X12688643Y-18315198D01*
X12889426Y-17923393D01*
X13009914Y-17499945D01*
X13045476Y-17061127D01*
X12994746Y-16623803D01*
X12859674Y-16204779D01*
X12688643Y-15884802D01*
X12362845Y-15716761D01*
X10979605Y-17100000D01*
X10620395Y-17100000D01*
X9237155Y-15716761D01*
X8911357Y-15884802D01*
X8710574Y-16276607D01*
X8590086Y-16700055D01*
X8554524Y-17138873D01*
X660000Y-17138873D01*
X660000Y-15537155D01*
X9416761Y-15537155D01*
X10800000Y-16920395D01*
X12183239Y-15537155D01*
X12015198Y-15211357D01*
X11623393Y-15010574D01*
X11199945Y-14890086D01*
X10761127Y-14854524D01*
X10323803Y-14905254D01*
X9904779Y-15040326D01*
X9584802Y-15211357D01*
X9416761Y-15537155D01*
X660000Y-15537155D01*
X660000Y-11468664D01*
X2385188Y-11468664D01*
X2411147Y-11579655D01*
X2533350Y-11861094D01*
X2708111Y-12113285D01*
X2928714Y-12326536D01*
X3186681Y-12492652D01*
X3472099Y-12605249D01*
X3774000Y-12660000D01*
X4373000Y-12660000D01*
X4373000Y-11227000D01*
X4627000Y-11227000D01*
X4627000Y-12660000D01*
X5226000Y-12660000D01*
X5527901Y-12605249D01*
X5813319Y-12492652D01*
X6071286Y-12326536D01*
X6291889Y-12113285D01*
X6466650Y-11861094D01*
X6588853Y-11579655D01*
X6614812Y-11468664D01*
X6494483Y-11227000D01*
X4627000Y-11227000D01*
X4373000Y-11227000D01*
X2505517Y-11227000D01*
X2385188Y-11468664D01*
X660000Y-11468664D01*
X660000Y-10731336D01*
X2385188Y-10731336D01*
X2505517Y-10973000D01*
X4373000Y-10973000D01*
X4373000Y-10953000D01*
X4627000Y-10953000D01*
X4627000Y-10973000D01*
X6494483Y-10973000D01*
X6614812Y-10731336D01*
X14885188Y-10731336D01*
X15005517Y-10973000D01*
X16873000Y-10973000D01*
X16873000Y-10953000D01*
X17127000Y-10953000D01*
X17127000Y-10973000D01*
X18994483Y-10973000D01*
X19114812Y-10731336D01*
X19088853Y-10620345D01*
X18966650Y-10338906D01*
X18791889Y-10086715D01*
X18571286Y-9873464D01*
X18313319Y-9707348D01*
X18027901Y-9594751D01*
X17726000Y-9540000D01*
X16274000Y-9540000D01*
X15972099Y-9594751D01*
X15686681Y-9707348D01*
X15428714Y-9873464D01*
X15208111Y-10086715D01*
X15033350Y-10338906D01*
X14911147Y-10620345D01*
X14885188Y-10731336D01*
X6614812Y-10731336D01*
X6588853Y-10620345D01*
X6466650Y-10338906D01*
X6291889Y-10086715D01*
X6071286Y-9873464D01*
X5813319Y-9707348D01*
X5527901Y-9594751D01*
X5226000Y-9540000D01*
X3774000Y-9540000D01*
X3472099Y-9594751D01*
X3186681Y-9707348D01*
X2928714Y-9873464D01*
X2708111Y-10086715D01*
X2533350Y-10338906D01*
X2411147Y-10620345D01*
X2385188Y-10731336D01*
X660000Y-10731336D01*
X660000Y-660000D01*
X30073000Y-660000D01*
X30073000Y-6100000D01*
G36*
X62190000Y-28614802D02*
G01*
X62190001Y-29762659D01*
X62190000Y-29762668D01*
X62190001Y-35185197D01*
X59885709Y-37489490D01*
X59801898Y-37454774D01*
X59601939Y-37415000D01*
X59398061Y-37415000D01*
X59198102Y-37454774D01*
X59009744Y-37532795D01*
X58840226Y-37646063D01*
X58696063Y-37790226D01*
X58582795Y-37959744D01*
X58504774Y-38148102D01*
X58465000Y-38348061D01*
X58465000Y-38551939D01*
X58504774Y-38751898D01*
X58582795Y-38940256D01*
X58696063Y-39109774D01*
X58840226Y-39253937D01*
X58965372Y-39337557D01*
X58915226Y-39371063D01*
X58771063Y-39515226D01*
X58657795Y-39684744D01*
X58579774Y-39873102D01*
X58540000Y-40073061D01*
X58540000Y-40276939D01*
X58579774Y-40476898D01*
X58657795Y-40665256D01*
X58771063Y-40834774D01*
X58915226Y-40978937D01*
X59084744Y-41092205D01*
X59273102Y-41170226D01*
X59473061Y-41210000D01*
X59676939Y-41210000D01*
X59849529Y-41175670D01*
X58835199Y-42190000D01*
X25464802Y-42190000D01*
X21762820Y-38488018D01*
X21793469Y-38485000D01*
X32633422Y-38485000D01*
X34893470Y-40745049D01*
X34921183Y-40778817D01*
X34954951Y-40806530D01*
X34954953Y-40806532D01*
X35055941Y-40889411D01*
X35209686Y-40971589D01*
X35376510Y-41022195D01*
X35506523Y-41035000D01*
X35506531Y-41035000D01*
X35550000Y-41039281D01*
X35593469Y-41035000D01*
X40643477Y-41035000D01*
X40773490Y-41022195D01*
X40940313Y-40971589D01*
X41094059Y-40889411D01*
X41228817Y-40778817D01*
X41256534Y-40745044D01*
X41795045Y-40206533D01*
X41828817Y-40178817D01*
X41939411Y-40044059D01*
X42021589Y-39890313D01*
X42072195Y-39723490D01*
X42085000Y-39593477D01*
X42085000Y-39593467D01*
X42089281Y-39550001D01*
X42085000Y-39506535D01*
X42085000Y-38285000D01*
X57706531Y-38285000D01*
X57750000Y-38289281D01*
X57793469Y-38285000D01*
X57793477Y-38285000D01*
X57923490Y-38272195D01*
X58090313Y-38221589D01*
X58244059Y-38139411D01*
X58378817Y-38028817D01*
X58406534Y-37995044D01*
X61845050Y-34556529D01*
X61878817Y-34528817D01*
X61925678Y-34471718D01*
X61989410Y-34394060D01*
X61989411Y-34394059D01*
X62071589Y-34240313D01*
X62122195Y-34073490D01*
X62135000Y-33943477D01*
X62135000Y-33943467D01*
X62139281Y-33900001D01*
X62135000Y-33856535D01*
X62135000Y-32143469D01*
X62139281Y-32100000D01*
X62135000Y-32056531D01*
X62135000Y-32056523D01*
X62122195Y-31926510D01*
X62098985Y-31849999D01*
X62071589Y-31759686D01*
X61989411Y-31605941D01*
X61906532Y-31504953D01*
X61906530Y-31504951D01*
X61878817Y-31471183D01*
X61845049Y-31443470D01*
X60906534Y-30504956D01*
X60878817Y-30471183D01*
X60744059Y-30360589D01*
X60590313Y-30278411D01*
X60423490Y-30227805D01*
X60293477Y-30215000D01*
X60293469Y-30215000D01*
X60250000Y-30210719D01*
X60206531Y-30215000D01*
X59938454Y-30215000D01*
X59890256Y-30182795D01*
X59701898Y-30104774D01*
X59501939Y-30065000D01*
X59409801Y-30065000D01*
X60964802Y-28510000D01*
X62085198Y-28510000D01*
X62190000Y-28614802D01*
X62190000Y-28614802D01*
G37*
X62190000Y-28614802D02*
X62190001Y-29762659D01*
X62190000Y-29762668D01*
X62190001Y-35185197D01*
X59885709Y-37489490D01*
X59801898Y-37454774D01*
X59601939Y-37415000D01*
X59398061Y-37415000D01*
X59198102Y-37454774D01*
X59009744Y-37532795D01*
X58840226Y-37646063D01*
X58696063Y-37790226D01*
X58582795Y-37959744D01*
X58504774Y-38148102D01*
X58465000Y-38348061D01*
X58465000Y-38551939D01*
X58504774Y-38751898D01*
X58582795Y-38940256D01*
X58696063Y-39109774D01*
X58840226Y-39253937D01*
X58965372Y-39337557D01*
X58915226Y-39371063D01*
X58771063Y-39515226D01*
X58657795Y-39684744D01*
X58579774Y-39873102D01*
X58540000Y-40073061D01*
X58540000Y-40276939D01*
X58579774Y-40476898D01*
X58657795Y-40665256D01*
X58771063Y-40834774D01*
X58915226Y-40978937D01*
X59084744Y-41092205D01*
X59273102Y-41170226D01*
X59473061Y-41210000D01*
X59676939Y-41210000D01*
X59849529Y-41175670D01*
X58835199Y-42190000D01*
X25464802Y-42190000D01*
X21762820Y-38488018D01*
X21793469Y-38485000D01*
X32633422Y-38485000D01*
X34893470Y-40745049D01*
X34921183Y-40778817D01*
X34954951Y-40806530D01*
X34954953Y-40806532D01*
X35055941Y-40889411D01*
X35209686Y-40971589D01*
X35376510Y-41022195D01*
X35506523Y-41035000D01*
X35506531Y-41035000D01*
X35550000Y-41039281D01*
X35593469Y-41035000D01*
X40643477Y-41035000D01*
X40773490Y-41022195D01*
X40940313Y-40971589D01*
X41094059Y-40889411D01*
X41228817Y-40778817D01*
X41256534Y-40745044D01*
X41795045Y-40206533D01*
X41828817Y-40178817D01*
X41939411Y-40044059D01*
X42021589Y-39890313D01*
X42072195Y-39723490D01*
X42085000Y-39593477D01*
X42085000Y-39593467D01*
X42089281Y-39550001D01*
X42085000Y-39506535D01*
X42085000Y-38285000D01*
X57706531Y-38285000D01*
X57750000Y-38289281D01*
X57793469Y-38285000D01*
X57793477Y-38285000D01*
X57923490Y-38272195D01*
X58090313Y-38221589D01*
X58244059Y-38139411D01*
X58378817Y-38028817D01*
X58406534Y-37995044D01*
X61845050Y-34556529D01*
X61878817Y-34528817D01*
X61925678Y-34471718D01*
X61989410Y-34394060D01*
X61989411Y-34394059D01*
X62071589Y-34240313D01*
X62122195Y-34073490D01*
X62135000Y-33943477D01*
X62135000Y-33943467D01*
X62139281Y-33900001D01*
X62135000Y-33856535D01*
X62135000Y-32143469D01*
X62139281Y-32100000D01*
X62135000Y-32056531D01*
X62135000Y-32056523D01*
X62122195Y-31926510D01*
X62098985Y-31849999D01*
X62071589Y-31759686D01*
X61989411Y-31605941D01*
X61906532Y-31504953D01*
X61906530Y-31504951D01*
X61878817Y-31471183D01*
X61845049Y-31443470D01*
X60906534Y-30504956D01*
X60878817Y-30471183D01*
X60744059Y-30360589D01*
X60590313Y-30278411D01*
X60423490Y-30227805D01*
X60293477Y-30215000D01*
X60293469Y-30215000D01*
X60250000Y-30210719D01*
X60206531Y-30215000D01*
X59938454Y-30215000D01*
X59890256Y-30182795D01*
X59701898Y-30104774D01*
X59501939Y-30065000D01*
X59409801Y-30065000D01*
X60964802Y-28510000D01*
X62085198Y-28510000D01*
X62190000Y-28614802D01*
G36*
X20238998Y-15686201D02*
G01*
X20210000Y-15709999D01*
X20186202Y-15738997D01*
X20186201Y-15738998D01*
X20115026Y-15825724D01*
X20044454Y-15957754D01*
X20029957Y-16005546D01*
X20003658Y-16092247D01*
X20000998Y-16101015D01*
X19986324Y-16250000D01*
X19990001Y-16287332D01*
X19990000Y-19735198D01*
X19432371Y-20292827D01*
X19441718Y-20137405D01*
X19397961Y-19818325D01*
X19292795Y-19513912D01*
X19199814Y-19339956D01*
X18935413Y-19244192D01*
X17979605Y-20200000D01*
X17993748Y-20214143D01*
X17814143Y-20393748D01*
X17800000Y-20379605D01*
X16844192Y-21335413D01*
X16939956Y-21599814D01*
X17229571Y-21740704D01*
X17541108Y-21822384D01*
X17862595Y-21841718D01*
X17886800Y-21838399D01*
X17238998Y-22486201D01*
X17210000Y-22509999D01*
X17186202Y-22538997D01*
X17186201Y-22538998D01*
X17115026Y-22625724D01*
X17044454Y-22757754D01*
X17023836Y-22825725D01*
X17000998Y-22901014D01*
X16994696Y-22965000D01*
X16986324Y-23050000D01*
X16990001Y-23087332D01*
X16990001Y-23774827D01*
X16757748Y-23930013D01*
X16530013Y-24157748D01*
X16351082Y-24425537D01*
X16227832Y-24723088D01*
X16165000Y-25038967D01*
X16165000Y-25361033D01*
X16227832Y-25676912D01*
X16351082Y-25974463D01*
X16530013Y-26242252D01*
X16757748Y-26469987D01*
X17025537Y-26648918D01*
X17323088Y-26772168D01*
X17638967Y-26835000D01*
X17961033Y-26835000D01*
X18276912Y-26772168D01*
X18574463Y-26648918D01*
X18842252Y-26469987D01*
X19069987Y-26242252D01*
X19248918Y-25974463D01*
X19372168Y-25676912D01*
X19435000Y-25361033D01*
X19435000Y-25038967D01*
X19372168Y-24723088D01*
X19248918Y-24425537D01*
X19069987Y-24157748D01*
X18842252Y-23930013D01*
X18574463Y-23751082D01*
X18510000Y-23724380D01*
X18510000Y-23364801D01*
X21261004Y-20613798D01*
X21290001Y-20590001D01*
X21384974Y-20474276D01*
X21455546Y-20342247D01*
X21499003Y-20198986D01*
X21510000Y-20087333D01*
X21510000Y-20087325D01*
X21513676Y-20050000D01*
X21510000Y-20012675D01*
X21510000Y-16564801D01*
X22264802Y-15810000D01*
X27035199Y-15810000D01*
X29358830Y-18133632D01*
X29340226Y-18146063D01*
X29296289Y-18190000D01*
X27837323Y-18190000D01*
X27800000Y-18186324D01*
X27762677Y-18190000D01*
X27762667Y-18190000D01*
X27651014Y-18200997D01*
X27515029Y-18242247D01*
X27507753Y-18244454D01*
X27375723Y-18315026D01*
X27303526Y-18374277D01*
X27259999Y-18409999D01*
X27236201Y-18438997D01*
X24789003Y-20886196D01*
X24759999Y-20909999D01*
X24726338Y-20951016D01*
X24665026Y-21025724D01*
X24622895Y-21104545D01*
X24594454Y-21157754D01*
X24550997Y-21301015D01*
X24540000Y-21412668D01*
X24540000Y-21412678D01*
X24536324Y-21450000D01*
X24540000Y-21487323D01*
X24540001Y-28462668D01*
X24536324Y-28500000D01*
X24540001Y-28537333D01*
X24550998Y-28648986D01*
X24561915Y-28684974D01*
X24594454Y-28792246D01*
X24665026Y-28924276D01*
X24727171Y-28999999D01*
X24760000Y-29040001D01*
X24788998Y-29063799D01*
X32440198Y-36715000D01*
X22116579Y-36715000D01*
X21235000Y-35833422D01*
X21235000Y-35406523D01*
X21234357Y-35399996D01*
X21239281Y-35350000D01*
X21222195Y-35176510D01*
X21171588Y-35009686D01*
X21089411Y-34855941D01*
X21006532Y-34754953D01*
X20087601Y-33836022D01*
X21420251Y-33836022D01*
X21476379Y-34336412D01*
X21628631Y-34816370D01*
X21871207Y-35257615D01*
X22194869Y-35643340D01*
X22587287Y-35958852D01*
X23033515Y-36192134D01*
X23516556Y-36334301D01*
X24018012Y-36379937D01*
X24518781Y-36327304D01*
X24999790Y-36178407D01*
X25442718Y-35938917D01*
X25830693Y-35617956D01*
X26148937Y-35227750D01*
X26385329Y-34783162D01*
X26530864Y-34301125D01*
X26580000Y-33800000D01*
X26578994Y-33727962D01*
X26515885Y-33228405D01*
X26356947Y-32750619D01*
X26108234Y-32312805D01*
X25779218Y-31931637D01*
X25382433Y-31621634D01*
X24932991Y-31394605D01*
X24448012Y-31259196D01*
X23945969Y-31220566D01*
X23445983Y-31280186D01*
X22967099Y-31435784D01*
X22527559Y-31681435D01*
X22144103Y-32007781D01*
X21831338Y-32402393D01*
X21601177Y-32850239D01*
X21462386Y-33334261D01*
X21420251Y-33836022D01*
X20087601Y-33836022D01*
X14835000Y-28583422D01*
X14835000Y-20882263D01*
X16568828Y-19148436D01*
X16664585Y-19244193D01*
X16400186Y-19339956D01*
X16259296Y-19629571D01*
X16177616Y-19941108D01*
X16158282Y-20262595D01*
X16202039Y-20581675D01*
X16307205Y-20886088D01*
X16400186Y-21060044D01*
X16664587Y-21155808D01*
X17620395Y-20200000D01*
X17606253Y-20185858D01*
X17785858Y-20006253D01*
X17800000Y-20020395D01*
X18755808Y-19064587D01*
X18660044Y-18800186D01*
X18370429Y-18659296D01*
X18058892Y-18577616D01*
X17737405Y-18558282D01*
X17418325Y-18602039D01*
X17113912Y-18707205D01*
X16939956Y-18800186D01*
X16844193Y-19064585D01*
X16748436Y-18968828D01*
X18295049Y-17422215D01*
X18328817Y-17394502D01*
X18358977Y-17357753D01*
X18439411Y-17259744D01*
X18504017Y-17138873D01*
X18521589Y-17105998D01*
X18572195Y-16939175D01*
X18585000Y-16809162D01*
X18585000Y-16809154D01*
X18589281Y-16765685D01*
X18586394Y-16736368D01*
X18617205Y-16690256D01*
X18695226Y-16501898D01*
X18735000Y-16301939D01*
X18735000Y-16098061D01*
X18695226Y-15898102D01*
X18617205Y-15709744D01*
X18503937Y-15540226D01*
X18359774Y-15396063D01*
X18190256Y-15282795D01*
X18001898Y-15204774D01*
X17801939Y-15165000D01*
X17598061Y-15165000D01*
X17398102Y-15204774D01*
X17209744Y-15282795D01*
X17040226Y-15396063D01*
X16896063Y-15540226D01*
X16782795Y-15709744D01*
X16704774Y-15898102D01*
X16665000Y-16098061D01*
X16665000Y-16301939D01*
X16704774Y-16501898D01*
X16706951Y-16507155D01*
X16010000Y-17204106D01*
X16010000Y-15764801D01*
X17114802Y-14660000D01*
X21265198Y-14660000D01*
X20238998Y-15686201D01*
X20238998Y-15686201D01*
G37*
X20238998Y-15686201D02*
X20210000Y-15709999D01*
X20186202Y-15738997D01*
X20186201Y-15738998D01*
X20115026Y-15825724D01*
X20044454Y-15957754D01*
X20029957Y-16005546D01*
X20003658Y-16092247D01*
X20000998Y-16101015D01*
X19986324Y-16250000D01*
X19990001Y-16287332D01*
X19990000Y-19735198D01*
X19432371Y-20292827D01*
X19441718Y-20137405D01*
X19397961Y-19818325D01*
X19292795Y-19513912D01*
X19199814Y-19339956D01*
X18935413Y-19244192D01*
X17979605Y-20200000D01*
X17993748Y-20214143D01*
X17814143Y-20393748D01*
X17800000Y-20379605D01*
X16844192Y-21335413D01*
X16939956Y-21599814D01*
X17229571Y-21740704D01*
X17541108Y-21822384D01*
X17862595Y-21841718D01*
X17886800Y-21838399D01*
X17238998Y-22486201D01*
X17210000Y-22509999D01*
X17186202Y-22538997D01*
X17186201Y-22538998D01*
X17115026Y-22625724D01*
X17044454Y-22757754D01*
X17023836Y-22825725D01*
X17000998Y-22901014D01*
X16994696Y-22965000D01*
X16986324Y-23050000D01*
X16990001Y-23087332D01*
X16990001Y-23774827D01*
X16757748Y-23930013D01*
X16530013Y-24157748D01*
X16351082Y-24425537D01*
X16227832Y-24723088D01*
X16165000Y-25038967D01*
X16165000Y-25361033D01*
X16227832Y-25676912D01*
X16351082Y-25974463D01*
X16530013Y-26242252D01*
X16757748Y-26469987D01*
X17025537Y-26648918D01*
X17323088Y-26772168D01*
X17638967Y-26835000D01*
X17961033Y-26835000D01*
X18276912Y-26772168D01*
X18574463Y-26648918D01*
X18842252Y-26469987D01*
X19069987Y-26242252D01*
X19248918Y-25974463D01*
X19372168Y-25676912D01*
X19435000Y-25361033D01*
X19435000Y-25038967D01*
X19372168Y-24723088D01*
X19248918Y-24425537D01*
X19069987Y-24157748D01*
X18842252Y-23930013D01*
X18574463Y-23751082D01*
X18510000Y-23724380D01*
X18510000Y-23364801D01*
X21261004Y-20613798D01*
X21290001Y-20590001D01*
X21384974Y-20474276D01*
X21455546Y-20342247D01*
X21499003Y-20198986D01*
X21510000Y-20087333D01*
X21510000Y-20087325D01*
X21513676Y-20050000D01*
X21510000Y-20012675D01*
X21510000Y-16564801D01*
X22264802Y-15810000D01*
X27035199Y-15810000D01*
X29358830Y-18133632D01*
X29340226Y-18146063D01*
X29296289Y-18190000D01*
X27837323Y-18190000D01*
X27800000Y-18186324D01*
X27762677Y-18190000D01*
X27762667Y-18190000D01*
X27651014Y-18200997D01*
X27515029Y-18242247D01*
X27507753Y-18244454D01*
X27375723Y-18315026D01*
X27303526Y-18374277D01*
X27259999Y-18409999D01*
X27236201Y-18438997D01*
X24789003Y-20886196D01*
X24759999Y-20909999D01*
X24726338Y-20951016D01*
X24665026Y-21025724D01*
X24622895Y-21104545D01*
X24594454Y-21157754D01*
X24550997Y-21301015D01*
X24540000Y-21412668D01*
X24540000Y-21412678D01*
X24536324Y-21450000D01*
X24540000Y-21487323D01*
X24540001Y-28462668D01*
X24536324Y-28500000D01*
X24540001Y-28537333D01*
X24550998Y-28648986D01*
X24561915Y-28684974D01*
X24594454Y-28792246D01*
X24665026Y-28924276D01*
X24727171Y-28999999D01*
X24760000Y-29040001D01*
X24788998Y-29063799D01*
X32440198Y-36715000D01*
X22116579Y-36715000D01*
X21235000Y-35833422D01*
X21235000Y-35406523D01*
X21234357Y-35399996D01*
X21239281Y-35350000D01*
X21222195Y-35176510D01*
X21171588Y-35009686D01*
X21089411Y-34855941D01*
X21006532Y-34754953D01*
X20087601Y-33836022D01*
X21420251Y-33836022D01*
X21476379Y-34336412D01*
X21628631Y-34816370D01*
X21871207Y-35257615D01*
X22194869Y-35643340D01*
X22587287Y-35958852D01*
X23033515Y-36192134D01*
X23516556Y-36334301D01*
X24018012Y-36379937D01*
X24518781Y-36327304D01*
X24999790Y-36178407D01*
X25442718Y-35938917D01*
X25830693Y-35617956D01*
X26148937Y-35227750D01*
X26385329Y-34783162D01*
X26530864Y-34301125D01*
X26580000Y-33800000D01*
X26578994Y-33727962D01*
X26515885Y-33228405D01*
X26356947Y-32750619D01*
X26108234Y-32312805D01*
X25779218Y-31931637D01*
X25382433Y-31621634D01*
X24932991Y-31394605D01*
X24448012Y-31259196D01*
X23945969Y-31220566D01*
X23445983Y-31280186D01*
X22967099Y-31435784D01*
X22527559Y-31681435D01*
X22144103Y-32007781D01*
X21831338Y-32402393D01*
X21601177Y-32850239D01*
X21462386Y-33334261D01*
X21420251Y-33836022D01*
X20087601Y-33836022D01*
X14835000Y-28583422D01*
X14835000Y-20882263D01*
X16568828Y-19148436D01*
X16664585Y-19244193D01*
X16400186Y-19339956D01*
X16259296Y-19629571D01*
X16177616Y-19941108D01*
X16158282Y-20262595D01*
X16202039Y-20581675D01*
X16307205Y-20886088D01*
X16400186Y-21060044D01*
X16664587Y-21155808D01*
X17620395Y-20200000D01*
X17606253Y-20185858D01*
X17785858Y-20006253D01*
X17800000Y-20020395D01*
X18755808Y-19064587D01*
X18660044Y-18800186D01*
X18370429Y-18659296D01*
X18058892Y-18577616D01*
X17737405Y-18558282D01*
X17418325Y-18602039D01*
X17113912Y-18707205D01*
X16939956Y-18800186D01*
X16844193Y-19064585D01*
X16748436Y-18968828D01*
X18295049Y-17422215D01*
X18328817Y-17394502D01*
X18358977Y-17357753D01*
X18439411Y-17259744D01*
X18504017Y-17138873D01*
X18521589Y-17105998D01*
X18572195Y-16939175D01*
X18585000Y-16809162D01*
X18585000Y-16809154D01*
X18589281Y-16765685D01*
X18586394Y-16736368D01*
X18617205Y-16690256D01*
X18695226Y-16501898D01*
X18735000Y-16301939D01*
X18735000Y-16098061D01*
X18695226Y-15898102D01*
X18617205Y-15709744D01*
X18503937Y-15540226D01*
X18359774Y-15396063D01*
X18190256Y-15282795D01*
X18001898Y-15204774D01*
X17801939Y-15165000D01*
X17598061Y-15165000D01*
X17398102Y-15204774D01*
X17209744Y-15282795D01*
X17040226Y-15396063D01*
X16896063Y-15540226D01*
X16782795Y-15709744D01*
X16704774Y-15898102D01*
X16665000Y-16098061D01*
X16665000Y-16301939D01*
X16704774Y-16501898D01*
X16706951Y-16507155D01*
X16010000Y-17204106D01*
X16010000Y-15764801D01*
X17114802Y-14660000D01*
X21265198Y-14660000D01*
X20238998Y-15686201D01*
G36*
X48236205Y-30811008D02*
G01*
X48259999Y-30840001D01*
X48288992Y-30863795D01*
X48288996Y-30863799D01*
X48339866Y-30905546D01*
X48375724Y-30934974D01*
X48507753Y-31005546D01*
X48651014Y-31049003D01*
X48762667Y-31060000D01*
X48762676Y-31060000D01*
X48799999Y-31063676D01*
X48837322Y-31060000D01*
X57235198Y-31060000D01*
X57340000Y-31164802D01*
X57340001Y-32412668D01*
X57336324Y-32450000D01*
X57340001Y-32487333D01*
X57349322Y-32581964D01*
X57350998Y-32598985D01*
X57394454Y-32742246D01*
X57465026Y-32874276D01*
X57535169Y-32959744D01*
X57560000Y-32990001D01*
X57588998Y-33013799D01*
X58386201Y-33811003D01*
X58409999Y-33840001D01*
X58438997Y-33863799D01*
X58525724Y-33934974D01*
X58657753Y-34005546D01*
X58681166Y-34012648D01*
X58746063Y-34109774D01*
X58890226Y-34253937D01*
X59059744Y-34367205D01*
X59248102Y-34445226D01*
X59419168Y-34479253D01*
X57383422Y-36515000D01*
X43656556Y-36515000D01*
X43721727Y-36488005D01*
X43950535Y-36335120D01*
X44145120Y-36140535D01*
X44298005Y-35911727D01*
X44403314Y-35657490D01*
X44457000Y-35387592D01*
X44457000Y-35112408D01*
X44403314Y-34842510D01*
X44298005Y-34588273D01*
X44145120Y-34359465D01*
X43950535Y-34164880D01*
X43860000Y-34104386D01*
X43860000Y-33736022D01*
X51920251Y-33736022D01*
X51976379Y-34236412D01*
X52128631Y-34716370D01*
X52371207Y-35157615D01*
X52694869Y-35543340D01*
X53087287Y-35858852D01*
X53533515Y-36092134D01*
X54016556Y-36234301D01*
X54518012Y-36279937D01*
X55018781Y-36227304D01*
X55499790Y-36078407D01*
X55942718Y-35838917D01*
X56330693Y-35517956D01*
X56648937Y-35127750D01*
X56885329Y-34683162D01*
X57030864Y-34201125D01*
X57080000Y-33700000D01*
X57078994Y-33627962D01*
X57015885Y-33128405D01*
X56856947Y-32650619D01*
X56608234Y-32212805D01*
X56279218Y-31831637D01*
X55882433Y-31521634D01*
X55432991Y-31294605D01*
X54948012Y-31159196D01*
X54445969Y-31120566D01*
X53945983Y-31180186D01*
X53467099Y-31335784D01*
X53027559Y-31581435D01*
X52644103Y-31907781D01*
X52331338Y-32302393D01*
X52101177Y-32750239D01*
X51962386Y-33234261D01*
X51920251Y-33736022D01*
X43860000Y-33736022D01*
X43860000Y-33287333D01*
X43863677Y-33250000D01*
X43849003Y-33101014D01*
X43805546Y-32957753D01*
X43734974Y-32825724D01*
X43663799Y-32738997D01*
X43640001Y-32709999D01*
X43611004Y-32686202D01*
X40184801Y-29260000D01*
X46685199Y-29260000D01*
X48236205Y-30811008D01*
X48236205Y-30811008D01*
G37*
X48236205Y-30811008D02*
X48259999Y-30840001D01*
X48288992Y-30863795D01*
X48288996Y-30863799D01*
X48339866Y-30905546D01*
X48375724Y-30934974D01*
X48507753Y-31005546D01*
X48651014Y-31049003D01*
X48762667Y-31060000D01*
X48762676Y-31060000D01*
X48799999Y-31063676D01*
X48837322Y-31060000D01*
X57235198Y-31060000D01*
X57340000Y-31164802D01*
X57340001Y-32412668D01*
X57336324Y-32450000D01*
X57340001Y-32487333D01*
X57349322Y-32581964D01*
X57350998Y-32598985D01*
X57394454Y-32742246D01*
X57465026Y-32874276D01*
X57535169Y-32959744D01*
X57560000Y-32990001D01*
X57588998Y-33013799D01*
X58386201Y-33811003D01*
X58409999Y-33840001D01*
X58438997Y-33863799D01*
X58525724Y-33934974D01*
X58657753Y-34005546D01*
X58681166Y-34012648D01*
X58746063Y-34109774D01*
X58890226Y-34253937D01*
X59059744Y-34367205D01*
X59248102Y-34445226D01*
X59419168Y-34479253D01*
X57383422Y-36515000D01*
X43656556Y-36515000D01*
X43721727Y-36488005D01*
X43950535Y-36335120D01*
X44145120Y-36140535D01*
X44298005Y-35911727D01*
X44403314Y-35657490D01*
X44457000Y-35387592D01*
X44457000Y-35112408D01*
X44403314Y-34842510D01*
X44298005Y-34588273D01*
X44145120Y-34359465D01*
X43950535Y-34164880D01*
X43860000Y-34104386D01*
X43860000Y-33736022D01*
X51920251Y-33736022D01*
X51976379Y-34236412D01*
X52128631Y-34716370D01*
X52371207Y-35157615D01*
X52694869Y-35543340D01*
X53087287Y-35858852D01*
X53533515Y-36092134D01*
X54016556Y-36234301D01*
X54518012Y-36279937D01*
X55018781Y-36227304D01*
X55499790Y-36078407D01*
X55942718Y-35838917D01*
X56330693Y-35517956D01*
X56648937Y-35127750D01*
X56885329Y-34683162D01*
X57030864Y-34201125D01*
X57080000Y-33700000D01*
X57078994Y-33627962D01*
X57015885Y-33128405D01*
X56856947Y-32650619D01*
X56608234Y-32212805D01*
X56279218Y-31831637D01*
X55882433Y-31521634D01*
X55432991Y-31294605D01*
X54948012Y-31159196D01*
X54445969Y-31120566D01*
X53945983Y-31180186D01*
X53467099Y-31335784D01*
X53027559Y-31581435D01*
X52644103Y-31907781D01*
X52331338Y-32302393D01*
X52101177Y-32750239D01*
X51962386Y-33234261D01*
X51920251Y-33736022D01*
X43860000Y-33736022D01*
X43860000Y-33287333D01*
X43863677Y-33250000D01*
X43849003Y-33101014D01*
X43805546Y-32957753D01*
X43734974Y-32825724D01*
X43663799Y-32738997D01*
X43640001Y-32709999D01*
X43611004Y-32686202D01*
X40184801Y-29260000D01*
X46685199Y-29260000D01*
X48236205Y-30811008D01*
G36*
X27089003Y-22086196D02*
G01*
X27059999Y-22109999D01*
X27022620Y-22155546D01*
X26965026Y-22225724D01*
X26911575Y-22325724D01*
X26894454Y-22357754D01*
X26850997Y-22501015D01*
X26840000Y-22612668D01*
X26840000Y-22612678D01*
X26836324Y-22650000D01*
X26840000Y-22687323D01*
X26840001Y-26862668D01*
X26836324Y-26900000D01*
X26840001Y-26937333D01*
X26850998Y-27048986D01*
X26861915Y-27084974D01*
X26894454Y-27192246D01*
X26965026Y-27324276D01*
X27007249Y-27375724D01*
X27060000Y-27440001D01*
X27088998Y-27463799D01*
X30336200Y-30711002D01*
X30359999Y-30740001D01*
X30475724Y-30834974D01*
X30607753Y-30905546D01*
X30751014Y-30949003D01*
X30862667Y-30960000D01*
X30862675Y-30960000D01*
X30900000Y-30963676D01*
X30937325Y-30960000D01*
X38485199Y-30960000D01*
X39690000Y-32164803D01*
X39690001Y-34124431D01*
X39629465Y-34164880D01*
X39434880Y-34359465D01*
X39281995Y-34588273D01*
X39252308Y-34659943D01*
X39247636Y-34646977D01*
X39185656Y-34531020D01*
X38945565Y-34464040D01*
X38159605Y-35250000D01*
X38945565Y-36035960D01*
X39185656Y-35968980D01*
X39249485Y-35833240D01*
X39281995Y-35911727D01*
X39434880Y-36140535D01*
X39629465Y-36335120D01*
X39858273Y-36488005D01*
X39923444Y-36515000D01*
X38587955Y-36515000D01*
X38698980Y-36455656D01*
X38765960Y-36215565D01*
X37980000Y-35429605D01*
X37965858Y-35443748D01*
X37786253Y-35264143D01*
X37800395Y-35250000D01*
X37014435Y-34464040D01*
X36774344Y-34531020D01*
X36710515Y-34666760D01*
X36678005Y-34588273D01*
X36525120Y-34359465D01*
X36450090Y-34284435D01*
X37194040Y-34284435D01*
X37980000Y-35070395D01*
X38765960Y-34284435D01*
X38698980Y-34044344D01*
X38449952Y-33927244D01*
X38182865Y-33860977D01*
X37907983Y-33848090D01*
X37635867Y-33889078D01*
X37376977Y-33982364D01*
X37261020Y-34044344D01*
X37194040Y-34284435D01*
X36450090Y-34284435D01*
X36330535Y-34164880D01*
X36101727Y-34011995D01*
X35847490Y-33906686D01*
X35577592Y-33853000D01*
X35302408Y-33853000D01*
X35032510Y-33906686D01*
X34778273Y-34011995D01*
X34549465Y-34164880D01*
X34354880Y-34359465D01*
X34201995Y-34588273D01*
X34096686Y-34842510D01*
X34043000Y-35112408D01*
X34043000Y-35318198D01*
X26560000Y-27835199D01*
X26560000Y-22214801D01*
X27864802Y-20910000D01*
X28265198Y-20910000D01*
X27089003Y-22086196D01*
X27089003Y-22086196D01*
G37*
X27089003Y-22086196D02*
X27059999Y-22109999D01*
X27022620Y-22155546D01*
X26965026Y-22225724D01*
X26911575Y-22325724D01*
X26894454Y-22357754D01*
X26850997Y-22501015D01*
X26840000Y-22612668D01*
X26840000Y-22612678D01*
X26836324Y-22650000D01*
X26840000Y-22687323D01*
X26840001Y-26862668D01*
X26836324Y-26900000D01*
X26840001Y-26937333D01*
X26850998Y-27048986D01*
X26861915Y-27084974D01*
X26894454Y-27192246D01*
X26965026Y-27324276D01*
X27007249Y-27375724D01*
X27060000Y-27440001D01*
X27088998Y-27463799D01*
X30336200Y-30711002D01*
X30359999Y-30740001D01*
X30475724Y-30834974D01*
X30607753Y-30905546D01*
X30751014Y-30949003D01*
X30862667Y-30960000D01*
X30862675Y-30960000D01*
X30900000Y-30963676D01*
X30937325Y-30960000D01*
X38485199Y-30960000D01*
X39690000Y-32164803D01*
X39690001Y-34124431D01*
X39629465Y-34164880D01*
X39434880Y-34359465D01*
X39281995Y-34588273D01*
X39252308Y-34659943D01*
X39247636Y-34646977D01*
X39185656Y-34531020D01*
X38945565Y-34464040D01*
X38159605Y-35250000D01*
X38945565Y-36035960D01*
X39185656Y-35968980D01*
X39249485Y-35833240D01*
X39281995Y-35911727D01*
X39434880Y-36140535D01*
X39629465Y-36335120D01*
X39858273Y-36488005D01*
X39923444Y-36515000D01*
X38587955Y-36515000D01*
X38698980Y-36455656D01*
X38765960Y-36215565D01*
X37980000Y-35429605D01*
X37965858Y-35443748D01*
X37786253Y-35264143D01*
X37800395Y-35250000D01*
X37014435Y-34464040D01*
X36774344Y-34531020D01*
X36710515Y-34666760D01*
X36678005Y-34588273D01*
X36525120Y-34359465D01*
X36450090Y-34284435D01*
X37194040Y-34284435D01*
X37980000Y-35070395D01*
X38765960Y-34284435D01*
X38698980Y-34044344D01*
X38449952Y-33927244D01*
X38182865Y-33860977D01*
X37907983Y-33848090D01*
X37635867Y-33889078D01*
X37376977Y-33982364D01*
X37261020Y-34044344D01*
X37194040Y-34284435D01*
X36450090Y-34284435D01*
X36330535Y-34164880D01*
X36101727Y-34011995D01*
X35847490Y-33906686D01*
X35577592Y-33853000D01*
X35302408Y-33853000D01*
X35032510Y-33906686D01*
X34778273Y-34011995D01*
X34549465Y-34164880D01*
X34354880Y-34359465D01*
X34201995Y-34588273D01*
X34096686Y-34842510D01*
X34043000Y-35112408D01*
X34043000Y-35318198D01*
X26560000Y-27835199D01*
X26560000Y-22214801D01*
X27864802Y-20910000D01*
X28265198Y-20910000D01*
X27089003Y-22086196D01*
G36*
X48285276Y-24501013D02*
G01*
X48142068Y-24544454D01*
X48010039Y-24615026D01*
X47894314Y-24709999D01*
X47870516Y-24738998D01*
X47239002Y-25370512D01*
X47209999Y-25394314D01*
X47156092Y-25460000D01*
X47115026Y-25510039D01*
X47074972Y-25584974D01*
X47044454Y-25642069D01*
X47000997Y-25785330D01*
X46990000Y-25896983D01*
X46990000Y-25896993D01*
X46986324Y-25934315D01*
X46990000Y-25971638D01*
X46990001Y-27737309D01*
X46962678Y-27740000D01*
X31614802Y-27740000D01*
X29660000Y-25785199D01*
X29660000Y-24979444D01*
X29698102Y-24995226D01*
X29898061Y-25035000D01*
X30101939Y-25035000D01*
X30301898Y-24995226D01*
X30490256Y-24917205D01*
X30659774Y-24803937D01*
X30703711Y-24760000D01*
X35215198Y-24760000D01*
X35060199Y-24915000D01*
X34998061Y-24915000D01*
X34798102Y-24954774D01*
X34609744Y-25032795D01*
X34440226Y-25146063D01*
X34296063Y-25290226D01*
X34182795Y-25459744D01*
X34104774Y-25648102D01*
X34065000Y-25848061D01*
X34065000Y-26051939D01*
X34104774Y-26251898D01*
X34182795Y-26440256D01*
X34296063Y-26609774D01*
X34440226Y-26753937D01*
X34609744Y-26867205D01*
X34798102Y-26945226D01*
X34998061Y-26985000D01*
X35201939Y-26985000D01*
X35401898Y-26945226D01*
X35590256Y-26867205D01*
X35759774Y-26753937D01*
X35903937Y-26609774D01*
X36017205Y-26440256D01*
X36095226Y-26251898D01*
X36135000Y-26051939D01*
X36135000Y-25989801D01*
X36614802Y-25510000D01*
X46212678Y-25510000D01*
X46250000Y-25513676D01*
X46287322Y-25510000D01*
X46287333Y-25510000D01*
X46398986Y-25499003D01*
X46542247Y-25455546D01*
X46674276Y-25384974D01*
X46790001Y-25290001D01*
X46813804Y-25260998D01*
X47614802Y-24460000D01*
X48326289Y-24460000D01*
X48285276Y-24501013D01*
X48285276Y-24501013D01*
G37*
X48285276Y-24501013D02*
X48142068Y-24544454D01*
X48010039Y-24615026D01*
X47894314Y-24709999D01*
X47870516Y-24738998D01*
X47239002Y-25370512D01*
X47209999Y-25394314D01*
X47156092Y-25460000D01*
X47115026Y-25510039D01*
X47074972Y-25584974D01*
X47044454Y-25642069D01*
X47000997Y-25785330D01*
X46990000Y-25896983D01*
X46990000Y-25896993D01*
X46986324Y-25934315D01*
X46990000Y-25971638D01*
X46990001Y-27737309D01*
X46962678Y-27740000D01*
X31614802Y-27740000D01*
X29660000Y-25785199D01*
X29660000Y-24979444D01*
X29698102Y-24995226D01*
X29898061Y-25035000D01*
X30101939Y-25035000D01*
X30301898Y-24995226D01*
X30490256Y-24917205D01*
X30659774Y-24803937D01*
X30703711Y-24760000D01*
X35215198Y-24760000D01*
X35060199Y-24915000D01*
X34998061Y-24915000D01*
X34798102Y-24954774D01*
X34609744Y-25032795D01*
X34440226Y-25146063D01*
X34296063Y-25290226D01*
X34182795Y-25459744D01*
X34104774Y-25648102D01*
X34065000Y-25848061D01*
X34065000Y-26051939D01*
X34104774Y-26251898D01*
X34182795Y-26440256D01*
X34296063Y-26609774D01*
X34440226Y-26753937D01*
X34609744Y-26867205D01*
X34798102Y-26945226D01*
X34998061Y-26985000D01*
X35201939Y-26985000D01*
X35401898Y-26945226D01*
X35590256Y-26867205D01*
X35759774Y-26753937D01*
X35903937Y-26609774D01*
X36017205Y-26440256D01*
X36095226Y-26251898D01*
X36135000Y-26051939D01*
X36135000Y-25989801D01*
X36614802Y-25510000D01*
X46212678Y-25510000D01*
X46250000Y-25513676D01*
X46287322Y-25510000D01*
X46287333Y-25510000D01*
X46398986Y-25499003D01*
X46542247Y-25455546D01*
X46674276Y-25384974D01*
X46790001Y-25290001D01*
X46813804Y-25260998D01*
X47614802Y-24460000D01*
X48326289Y-24460000D01*
X48285276Y-24501013D01*
G36*
X30925724Y-19684974D02*
G01*
X31057753Y-19755546D01*
X31201014Y-19799003D01*
X31312667Y-19810000D01*
X31312676Y-19810000D01*
X31349999Y-19813676D01*
X31387322Y-19810000D01*
X43365199Y-19810000D01*
X42735199Y-20440000D01*
X30992360Y-20440000D01*
X31022340Y-20289279D01*
X31022340Y-20085401D01*
X30982566Y-19885442D01*
X30904545Y-19697084D01*
X30860915Y-19631786D01*
X30925724Y-19684974D01*
X30925724Y-19684974D01*
G37*
X30925724Y-19684974D02*
X31057753Y-19755546D01*
X31201014Y-19799003D01*
X31312667Y-19810000D01*
X31312676Y-19810000D01*
X31349999Y-19813676D01*
X31387322Y-19810000D01*
X43365199Y-19810000D01*
X42735199Y-20440000D01*
X30992360Y-20440000D01*
X31022340Y-20289279D01*
X31022340Y-20085401D01*
X30982566Y-19885442D01*
X30904545Y-19697084D01*
X30860915Y-19631786D01*
X30925724Y-19684974D01*
M02*
