%FSLAX45Y45*%
G04 Gerber Fmt 4.5, Leading zero omitted, Abs format (unit mm)*
G04 Created by KiCad (PCBNEW (5.1.0)-1) date 2020-03-20 23:12:10*
%MOMM*%
%LPD*%
G04 APERTURE LIST*
%ADD10C,0.050000*%
%ADD11C,0.200000*%
%ADD12C,0.300000*%
G04 APERTURE END LIST*
D10*
X19090000Y-4520000D02*
G75*
G03X19090000Y-4520000I-190000J0D01*
G01*
X19090000Y-7380000D02*
G75*
G03X19090000Y-7380000I-190000J0D01*
G01*
X22140000Y-7370000D02*
G75*
G03X22140000Y-7370000I-190000J0D01*
G01*
X22140000Y-4520000D02*
G75*
G03X22140000Y-4520000I-190000J0D01*
G01*
X16500000Y-8500000D02*
X16500000Y-4000000D01*
X25500000Y-8500000D02*
X16500000Y-8500000D01*
X25500000Y-4000000D02*
X25500000Y-8500000D01*
X16500000Y-4000000D02*
X25500000Y-4000000D01*
D11*
X24827700Y-5758000D02*
X24977700Y-5908000D01*
X24977700Y-5758000D02*
X24827700Y-5908000D01*
X24827700Y-8178000D02*
X24977700Y-8328000D01*
X24977700Y-8178000D02*
X24827700Y-8328000D01*
D12*
X16783928Y-8968214D02*
X16783928Y-8668214D01*
X16855357Y-8668214D01*
X16898214Y-8682500D01*
X16926786Y-8711072D01*
X16941071Y-8739643D01*
X16955357Y-8796786D01*
X16955357Y-8839643D01*
X16941071Y-8896786D01*
X16926786Y-8925357D01*
X16898214Y-8953929D01*
X16855357Y-8968214D01*
X16783928Y-8968214D01*
X17083928Y-8968214D02*
X17083928Y-8768214D01*
X17083928Y-8825357D02*
X17098214Y-8796786D01*
X17112500Y-8782500D01*
X17141071Y-8768214D01*
X17169643Y-8768214D01*
X17269643Y-8968214D02*
X17269643Y-8768214D01*
X17269643Y-8668214D02*
X17255357Y-8682500D01*
X17269643Y-8696786D01*
X17283928Y-8682500D01*
X17269643Y-8668214D01*
X17269643Y-8696786D01*
X17455357Y-8968214D02*
X17426786Y-8953929D01*
X17412500Y-8925357D01*
X17412500Y-8668214D01*
X17612500Y-8968214D02*
X17583928Y-8953929D01*
X17569643Y-8925357D01*
X17569643Y-8668214D01*
X17955357Y-8968214D02*
X17955357Y-8668214D01*
X18055357Y-8882500D01*
X18155357Y-8668214D01*
X18155357Y-8968214D01*
X18426786Y-8968214D02*
X18426786Y-8811072D01*
X18412500Y-8782500D01*
X18383928Y-8768214D01*
X18326786Y-8768214D01*
X18298214Y-8782500D01*
X18426786Y-8953929D02*
X18398214Y-8968214D01*
X18326786Y-8968214D01*
X18298214Y-8953929D01*
X18283928Y-8925357D01*
X18283928Y-8896786D01*
X18298214Y-8868214D01*
X18326786Y-8853929D01*
X18398214Y-8853929D01*
X18426786Y-8839643D01*
X18569643Y-8768214D02*
X18569643Y-9068214D01*
X18569643Y-8782500D02*
X18598214Y-8768214D01*
X18655357Y-8768214D01*
X18683928Y-8782500D01*
X18698214Y-8796786D01*
X18712500Y-8825357D01*
X18712500Y-8911072D01*
X18698214Y-8939643D01*
X18683928Y-8953929D01*
X18655357Y-8968214D01*
X18598214Y-8968214D01*
X18569643Y-8953929D01*
X18841071Y-8939643D02*
X18855357Y-8953929D01*
X18841071Y-8968214D01*
X18826786Y-8953929D01*
X18841071Y-8939643D01*
X18841071Y-8968214D01*
X18841071Y-8782500D02*
X18855357Y-8796786D01*
X18841071Y-8811072D01*
X18826786Y-8796786D01*
X18841071Y-8782500D01*
X18841071Y-8811072D01*
X16347500Y-9387500D02*
X16497500Y-9537500D01*
X16497500Y-9387500D02*
X16347500Y-9537500D01*
X16941071Y-9598214D02*
X16769643Y-9598214D01*
X16855357Y-9598214D02*
X16855357Y-9298214D01*
X16826786Y-9341072D01*
X16798214Y-9369643D01*
X16769643Y-9383929D01*
X17069643Y-9569643D02*
X17083928Y-9583929D01*
X17069643Y-9598214D01*
X17055357Y-9583929D01*
X17069643Y-9569643D01*
X17069643Y-9598214D01*
X17355357Y-9298214D02*
X17212500Y-9298214D01*
X17198214Y-9441072D01*
X17212500Y-9426786D01*
X17241071Y-9412500D01*
X17312500Y-9412500D01*
X17341071Y-9426786D01*
X17355357Y-9441072D01*
X17369643Y-9469643D01*
X17369643Y-9541072D01*
X17355357Y-9569643D01*
X17341071Y-9583929D01*
X17312500Y-9598214D01*
X17241071Y-9598214D01*
X17212500Y-9583929D01*
X17198214Y-9569643D01*
X17555357Y-9298214D02*
X17583928Y-9298214D01*
X17612500Y-9312500D01*
X17626786Y-9326786D01*
X17641071Y-9355357D01*
X17655357Y-9412500D01*
X17655357Y-9483929D01*
X17641071Y-9541072D01*
X17626786Y-9569643D01*
X17612500Y-9583929D01*
X17583928Y-9598214D01*
X17555357Y-9598214D01*
X17526786Y-9583929D01*
X17512500Y-9569643D01*
X17498214Y-9541072D01*
X17483928Y-9483929D01*
X17483928Y-9412500D01*
X17498214Y-9355357D01*
X17512500Y-9326786D01*
X17526786Y-9312500D01*
X17555357Y-9298214D01*
X17783928Y-9598214D02*
X17783928Y-9398214D01*
X17783928Y-9426786D02*
X17798214Y-9412500D01*
X17826786Y-9398214D01*
X17869643Y-9398214D01*
X17898214Y-9412500D01*
X17912500Y-9441072D01*
X17912500Y-9598214D01*
X17912500Y-9441072D02*
X17926786Y-9412500D01*
X17955357Y-9398214D01*
X17998214Y-9398214D01*
X18026786Y-9412500D01*
X18041071Y-9441072D01*
X18041071Y-9598214D01*
X18183928Y-9598214D02*
X18183928Y-9398214D01*
X18183928Y-9426786D02*
X18198214Y-9412500D01*
X18226786Y-9398214D01*
X18269643Y-9398214D01*
X18298214Y-9412500D01*
X18312500Y-9441072D01*
X18312500Y-9598214D01*
X18312500Y-9441072D02*
X18326786Y-9412500D01*
X18355357Y-9398214D01*
X18398214Y-9398214D01*
X18426786Y-9412500D01*
X18441071Y-9441072D01*
X18441071Y-9598214D01*
X19026786Y-9283929D02*
X18769643Y-9669643D01*
X19412500Y-9298214D02*
X19441071Y-9298214D01*
X19469643Y-9312500D01*
X19483928Y-9326786D01*
X19498214Y-9355357D01*
X19512500Y-9412500D01*
X19512500Y-9483929D01*
X19498214Y-9541072D01*
X19483928Y-9569643D01*
X19469643Y-9583929D01*
X19441071Y-9598214D01*
X19412500Y-9598214D01*
X19383928Y-9583929D01*
X19369643Y-9569643D01*
X19355357Y-9541072D01*
X19341071Y-9483929D01*
X19341071Y-9412500D01*
X19355357Y-9355357D01*
X19369643Y-9326786D01*
X19383928Y-9312500D01*
X19412500Y-9298214D01*
X19641071Y-9569643D02*
X19655357Y-9583929D01*
X19641071Y-9598214D01*
X19626786Y-9583929D01*
X19641071Y-9569643D01*
X19641071Y-9598214D01*
X19841071Y-9298214D02*
X19869643Y-9298214D01*
X19898214Y-9312500D01*
X19912500Y-9326786D01*
X19926786Y-9355357D01*
X19941071Y-9412500D01*
X19941071Y-9483929D01*
X19926786Y-9541072D01*
X19912500Y-9569643D01*
X19898214Y-9583929D01*
X19869643Y-9598214D01*
X19841071Y-9598214D01*
X19812500Y-9583929D01*
X19798214Y-9569643D01*
X19783928Y-9541072D01*
X19769643Y-9483929D01*
X19769643Y-9412500D01*
X19783928Y-9355357D01*
X19798214Y-9326786D01*
X19812500Y-9312500D01*
X19841071Y-9298214D01*
X20212500Y-9298214D02*
X20069643Y-9298214D01*
X20055357Y-9441072D01*
X20069643Y-9426786D01*
X20098214Y-9412500D01*
X20169643Y-9412500D01*
X20198214Y-9426786D01*
X20212500Y-9441072D01*
X20226786Y-9469643D01*
X20226786Y-9541072D01*
X20212500Y-9569643D01*
X20198214Y-9583929D01*
X20169643Y-9598214D01*
X20098214Y-9598214D01*
X20069643Y-9583929D01*
X20055357Y-9569643D01*
X20369643Y-9598214D02*
X20426786Y-9598214D01*
X20455357Y-9583929D01*
X20469643Y-9569643D01*
X20498214Y-9526786D01*
X20512500Y-9469643D01*
X20512500Y-9355357D01*
X20498214Y-9326786D01*
X20483928Y-9312500D01*
X20455357Y-9298214D01*
X20398214Y-9298214D01*
X20369643Y-9312500D01*
X20355357Y-9326786D01*
X20341071Y-9355357D01*
X20341071Y-9426786D01*
X20355357Y-9455357D01*
X20369643Y-9469643D01*
X20398214Y-9483929D01*
X20455357Y-9483929D01*
X20483928Y-9469643D01*
X20498214Y-9455357D01*
X20512500Y-9426786D01*
X20626786Y-9298214D02*
X20626786Y-9355357D01*
X20741071Y-9298214D02*
X20741071Y-9355357D01*
X21183928Y-9712500D02*
X21169643Y-9698214D01*
X21141071Y-9655357D01*
X21126786Y-9626786D01*
X21112500Y-9583929D01*
X21098214Y-9512500D01*
X21098214Y-9455357D01*
X21112500Y-9383929D01*
X21126786Y-9341072D01*
X21141071Y-9312500D01*
X21169643Y-9269643D01*
X21183928Y-9255357D01*
X21283928Y-9326786D02*
X21298214Y-9312500D01*
X21326786Y-9298214D01*
X21398214Y-9298214D01*
X21426786Y-9312500D01*
X21441071Y-9326786D01*
X21455357Y-9355357D01*
X21455357Y-9383929D01*
X21441071Y-9426786D01*
X21269643Y-9598214D01*
X21455357Y-9598214D01*
X21812500Y-9598214D02*
X21812500Y-9298214D01*
X21941071Y-9598214D02*
X21941071Y-9441072D01*
X21926786Y-9412500D01*
X21898214Y-9398214D01*
X21855357Y-9398214D01*
X21826786Y-9412500D01*
X21812500Y-9426786D01*
X22126786Y-9598214D02*
X22098214Y-9583929D01*
X22083928Y-9569643D01*
X22069643Y-9541072D01*
X22069643Y-9455357D01*
X22083928Y-9426786D01*
X22098214Y-9412500D01*
X22126786Y-9398214D01*
X22169643Y-9398214D01*
X22198214Y-9412500D01*
X22212500Y-9426786D01*
X22226786Y-9455357D01*
X22226786Y-9541072D01*
X22212500Y-9569643D01*
X22198214Y-9583929D01*
X22169643Y-9598214D01*
X22126786Y-9598214D01*
X22398214Y-9598214D02*
X22369643Y-9583929D01*
X22355357Y-9555357D01*
X22355357Y-9298214D01*
X22626786Y-9583929D02*
X22598214Y-9598214D01*
X22541071Y-9598214D01*
X22512500Y-9583929D01*
X22498214Y-9555357D01*
X22498214Y-9441072D01*
X22512500Y-9412500D01*
X22541071Y-9398214D01*
X22598214Y-9398214D01*
X22626786Y-9412500D01*
X22641071Y-9441072D01*
X22641071Y-9469643D01*
X22498214Y-9498214D01*
X22755357Y-9583929D02*
X22783928Y-9598214D01*
X22841071Y-9598214D01*
X22869643Y-9583929D01*
X22883928Y-9555357D01*
X22883928Y-9541072D01*
X22869643Y-9512500D01*
X22841071Y-9498214D01*
X22798214Y-9498214D01*
X22769643Y-9483929D01*
X22755357Y-9455357D01*
X22755357Y-9441072D01*
X22769643Y-9412500D01*
X22798214Y-9398214D01*
X22841071Y-9398214D01*
X22869643Y-9412500D01*
X22983928Y-9712500D02*
X22998214Y-9698214D01*
X23026786Y-9655357D01*
X23041071Y-9626786D01*
X23055357Y-9583929D01*
X23069643Y-9512500D01*
X23069643Y-9455357D01*
X23055357Y-9383929D01*
X23041071Y-9341072D01*
X23026786Y-9312500D01*
X22998214Y-9269643D01*
X22983928Y-9255357D01*
X23526786Y-9712500D02*
X23512500Y-9698214D01*
X23483928Y-9655357D01*
X23469643Y-9626786D01*
X23455357Y-9583929D01*
X23441071Y-9512500D01*
X23441071Y-9455357D01*
X23455357Y-9383929D01*
X23469643Y-9341072D01*
X23483928Y-9312500D01*
X23512500Y-9269643D01*
X23526786Y-9255357D01*
X23641071Y-9398214D02*
X23641071Y-9598214D01*
X23641071Y-9426786D02*
X23655357Y-9412500D01*
X23683928Y-9398214D01*
X23726786Y-9398214D01*
X23755357Y-9412500D01*
X23769643Y-9441072D01*
X23769643Y-9598214D01*
X23955357Y-9598214D02*
X23926786Y-9583929D01*
X23912500Y-9569643D01*
X23898214Y-9541072D01*
X23898214Y-9455357D01*
X23912500Y-9426786D01*
X23926786Y-9412500D01*
X23955357Y-9398214D01*
X23998214Y-9398214D01*
X24026786Y-9412500D01*
X24041071Y-9426786D01*
X24055357Y-9455357D01*
X24055357Y-9541072D01*
X24041071Y-9569643D01*
X24026786Y-9583929D01*
X23998214Y-9598214D01*
X23955357Y-9598214D01*
X24141071Y-9398214D02*
X24255357Y-9398214D01*
X24183928Y-9298214D02*
X24183928Y-9555357D01*
X24198214Y-9583929D01*
X24226786Y-9598214D01*
X24255357Y-9598214D01*
X24583928Y-9398214D02*
X24583928Y-9698214D01*
X24583928Y-9412500D02*
X24612500Y-9398214D01*
X24669643Y-9398214D01*
X24698214Y-9412500D01*
X24712500Y-9426786D01*
X24726786Y-9455357D01*
X24726786Y-9541072D01*
X24712500Y-9569643D01*
X24698214Y-9583929D01*
X24669643Y-9598214D01*
X24612500Y-9598214D01*
X24583928Y-9583929D01*
X24898214Y-9598214D02*
X24869643Y-9583929D01*
X24855357Y-9555357D01*
X24855357Y-9298214D01*
X25141071Y-9598214D02*
X25141071Y-9441072D01*
X25126786Y-9412500D01*
X25098214Y-9398214D01*
X25041071Y-9398214D01*
X25012500Y-9412500D01*
X25141071Y-9583929D02*
X25112500Y-9598214D01*
X25041071Y-9598214D01*
X25012500Y-9583929D01*
X24998214Y-9555357D01*
X24998214Y-9526786D01*
X25012500Y-9498214D01*
X25041071Y-9483929D01*
X25112500Y-9483929D01*
X25141071Y-9469643D01*
X25241071Y-9398214D02*
X25355357Y-9398214D01*
X25283928Y-9298214D02*
X25283928Y-9555357D01*
X25298214Y-9583929D01*
X25326786Y-9598214D01*
X25355357Y-9598214D01*
X25569643Y-9583929D02*
X25541071Y-9598214D01*
X25483928Y-9598214D01*
X25455357Y-9583929D01*
X25441071Y-9555357D01*
X25441071Y-9441072D01*
X25455357Y-9412500D01*
X25483928Y-9398214D01*
X25541071Y-9398214D01*
X25569643Y-9412500D01*
X25583928Y-9441072D01*
X25583928Y-9469643D01*
X25441071Y-9498214D01*
X25841071Y-9598214D02*
X25841071Y-9298214D01*
X25841071Y-9583929D02*
X25812500Y-9598214D01*
X25755357Y-9598214D01*
X25726786Y-9583929D01*
X25712500Y-9569643D01*
X25698214Y-9541072D01*
X25698214Y-9455357D01*
X25712500Y-9426786D01*
X25726786Y-9412500D01*
X25755357Y-9398214D01*
X25812500Y-9398214D01*
X25841071Y-9412500D01*
X25955357Y-9712500D02*
X25969643Y-9698214D01*
X25998214Y-9655357D01*
X26012500Y-9626786D01*
X26026786Y-9583929D01*
X26041071Y-9512500D01*
X26041071Y-9455357D01*
X26026786Y-9383929D01*
X26012500Y-9341072D01*
X25998214Y-9312500D01*
X25969643Y-9269643D01*
X25955357Y-9255357D01*
M02*
